<svg id="Layer_1" data-name="Layer 1" xmlns="http://www.w3.org/2000/svg" viewBox="0 0 120 120"><title>Artboard 6 copy 9</title><path d="M60,89.61A29.61,29.61,0,1,1,89.61,60,29.64,29.64,0,0,1,60,89.61ZM60,40A20,20,0,1,0,80,60,20,20,0,0,0,60,40Z"/><path d="M84.28,119.84H35.72A35.6,35.6,0,0,1,.16,84.28V35.72A35.6,35.6,0,0,1,35.72.16H84.28a35.6,35.6,0,0,1,35.56,35.56V84.28A35.6,35.6,0,0,1,84.28,119.84ZM35.72,9.79A26,26,0,0,0,9.79,35.72V84.28a26,26,0,0,0,25.93,25.93H84.28a26,26,0,0,0,25.93-25.93V35.72A26,26,0,0,0,84.28,9.79Z"/><circle cx="91.98" cy="28.27" r="6.93"/></svg>