<svg id="Layer_1" data-name="Layer 1" xmlns="http://www.w3.org/2000/svg" viewBox="0 0 120 120"><defs><style>.cls-1{fill:#fff;}</style></defs><title>Artboard 6 copy 12</title><polygon class="cls-1" points="48.1 74.25 77.3 59.97 48.1 74.61 48.1 74.25"/><polygon class="cls-1" points="80.54 57.67 80.54 57.73 48.1 41.86 48.1 41.39 80.54 57.67"/><polygon class="cls-1" points="81.2 58.01 80.54 58.01 80.54 57.67 81.2 58.01"/><path d="M99.81,18.53c-12.26-.74-25.22-1.17-38.81-1.2-14.32,0-27.94.43-40.8,1.2a20.35,20.35,0,0,0-14,5.66A19,19,0,0,0,.38,37.84V82.42A19.59,19.59,0,0,0,20.2,101.74c13,.61,26.65.94,40.8.92,13.44,0,26.39-.34,38.81-.92a20.23,20.23,0,0,0,14-5.66,19,19,0,0,0,5.79-13.66V37.84A19.55,19.55,0,0,0,99.81,18.53ZM80.54,58.38,77.3,60,48.1,74.25V41.86L80.54,57.73l.54.28.06,0,.06,0Z"/><polygon class="cls-1" points="81.2 58.01 81.14 58.04 80.54 58.34 80.54 58.01 81.2 58.01"/></svg>