<svg width="600" height="600" viewBox="0 0 600 600" fill="none" xmlns="http://www.w3.org/2000/svg">
<g clip-path="url(#clip0_2341_1824)">
<g clip-path="url(#clip1_2341_1824)">
<path d="M205.694 150.013C205.694 150.013 220.721 111.226 254.454 121.88C288.187 132.52 291.067 183.133 234.441 212.293C177.814 241.44 138.561 182.346 126.961 145.4C115.361 108.453 131.694 87.5329 141.027 83.4662C156.281 76.8129 183.454 81.7996 205.707 150.026L205.694 150.013Z" fill="#1E96FF"/>
<path d="M245.32 208.24C242.16 210.266 238.827 212.186 235.32 213.986C217.067 223.386 199.214 224.546 182.227 217.466C154.667 205.96 133.68 173.253 125.107 145.946C113.08 107.613 130.107 86.0797 140.254 81.6664C145.467 79.3997 153.76 77.6131 163.654 82.0664C179.974 89.3997 194.214 110.506 206 144.813C207.934 141.106 211.24 135.653 216.04 130.613C227.014 119.093 240.494 115.44 255.04 120.026C269.64 124.64 279.134 136.44 280.427 151.626C281.334 162.32 278.094 173.52 271.027 184.026C264.987 193.013 256.214 201.253 245.334 208.24H245.32ZM139.88 86.2397C131.04 91.9064 118.427 111.773 128.787 144.8C137.094 171.253 157.294 202.88 183.707 213.906C199.587 220.533 216.347 219.413 233.547 210.56C255.787 199.106 278.76 177.706 276.56 151.946C275.4 138.386 266.92 127.826 253.854 123.706C240.667 119.546 228.894 122.733 218.88 133.2C211.24 141.186 207.52 150.613 207.48 150.706C207.187 151.466 206.44 151.96 205.627 151.933C204.814 151.906 204.094 151.373 203.854 150.6C195.787 125.88 182 94.5331 162.067 85.5864C153.467 81.7197 146.294 83.2531 141.787 85.2131C141.174 85.4797 140.534 85.8264 139.88 86.2531V86.2397Z" fill="black"/>
<path d="M109.227 353.12C129.494 345.133 176.574 330.293 201.347 391.68C222.867 444.96 171.201 477.013 130.627 481.733C95.1472 485.853 61.5872 471.573 71.7072 443.12C71.9872 442.32 72.3472 441.533 72.7739 440.76C66.1339 438.653 59.0672 434.28 54.7472 425.493C38.7205 392.907 88.9605 361.093 109.227 353.12Z" fill="#1E96FF"/>
<path d="M199.44 382.64C200.747 385.28 201.974 388.053 203.147 390.96C210.867 410.067 210.04 427.733 200.707 443.467C186.587 467.253 155.454 480.787 130.854 483.64C105.707 486.56 83.1204 480.48 73.3071 468.147C67.6404 461.027 66.4538 452.147 69.8938 442.467C69.9604 442.267 70.0404 442.067 70.1204 441.867C62.3871 438.907 56.6404 433.693 53.0138 426.347C48.9204 418.013 48.6271 409.16 52.1604 400.027C61.3071 376.4 94.0804 357.013 108.52 351.333C119.614 346.973 136.387 341.507 153.92 344.493C173.294 347.8 188.587 360.613 199.427 382.64H199.44ZM73.8271 461.853C74.4938 463.2 75.3204 464.507 76.3204 465.747C85.1871 476.893 106.934 482.547 130.414 479.813C154.067 477.067 183.947 464.147 197.4 441.493C206.094 426.853 206.827 410.333 199.574 392.4C189.16 366.587 173.574 351.747 153.28 348.293C136.694 345.467 120.6 350.72 109.934 354.92C96.0138 360.4 64.4404 378.987 55.7604 401.427C52.6271 409.507 52.8671 417.333 56.4804 424.653C59.9338 431.667 65.6138 436.48 73.3604 438.933C73.9071 439.107 74.3604 439.52 74.5738 440.053C74.7871 440.587 74.7471 441.2 74.4671 441.693C74.0804 442.387 73.7738 443.08 73.5338 443.76C71.1338 450.507 71.2404 456.573 73.8404 461.853H73.8271Z" fill="black"/>
<path d="M163.973 411.853C164.147 412.213 164.213 412.64 164.133 413.067C163.933 414.107 162.92 414.8 161.867 414.587C161.533 414.52 127.84 408.24 96.9467 424.12C85.1067 430.187 77.5467 436.107 74.4533 441.68C73.9333 442.613 72.76 442.947 71.84 442.44C70.9067 441.92 70.5733 440.747 71.08 439.827C74.5867 433.467 82.48 427.213 95.1733 420.693C127.293 404.173 161.173 410.52 162.6 410.8C163.213 410.92 163.707 411.32 163.96 411.84L163.973 411.853Z" fill="black"/>
<path d="M388.667 495.947C388.667 495.947 417.561 549.493 450.241 527.24C482.907 504.987 449.041 444.627 444.641 436.227C425.601 401.507 408.934 375.587 388.121 389.107C367.307 402.627 382.907 442.467 392.334 462.107C392.334 462.107 360.907 417.12 328.054 439.92C302.521 457.64 315.654 499.173 333.454 525.32C340.974 536.36 374.881 576.92 396.067 562.493C420.174 546.067 388.667 495.947 388.667 495.947Z" fill="#1E96FF"/>
<path d="M386.614 387.786C386.76 387.68 386.907 387.586 387.054 387.493C392.667 383.853 398.36 382.72 403.987 384.133C419.28 387.986 432.734 410.533 446.32 435.306C446.507 435.653 446.707 436.04 446.947 436.493C470.96 481.6 472.52 514.4 451.32 528.84C443.534 534.146 435.28 535.8 426.8 533.733C416.694 531.266 407.84 523.96 401.054 516.48C401.827 518.413 402.56 520.413 403.24 522.466C409.907 542.453 407.8 556.853 397.16 564.106C387.454 570.72 374.067 567.56 358.44 554.973C345.974 544.933 335.614 531.906 331.867 526.413C321.787 511.626 314.774 494.626 312.6 479.76C309.88 461.08 314.84 446.773 326.96 438.36C341.094 428.533 357.254 429.413 373.627 440.906C378.134 444.066 382.054 447.6 385.214 450.813C381.84 442.493 378.614 432.92 376.987 423.653C373.934 406.293 377.174 394.226 386.627 387.786H386.614ZM449.147 525.64C475.267 507.84 456.84 463.266 443.547 438.28C443.307 437.813 443.094 437.426 442.92 437.106C429.787 413.146 416.827 391.32 403.04 387.853C398.44 386.693 393.894 387.626 389.16 390.706C369.2 403.64 385.96 444.36 394.067 461.266C394.507 462.173 394.174 463.253 393.307 463.76C392.44 464.266 391.334 464.026 390.76 463.2C390.68 463.093 382.907 452.066 371.334 443.973C356.214 433.386 342 432.546 329.16 441.493C304.027 458.946 318.907 500.533 335.054 524.213C342.214 534.72 375.36 574.253 394.987 560.88C414.614 547.506 395.48 511.826 389.067 500.426C387.827 498.413 387.107 497.093 386.974 496.84C386.48 495.92 386.8 494.786 387.694 494.253C388.587 493.733 389.747 494.013 390.294 494.893C390.387 495.053 391.174 496.306 392.36 498.386C394.2 501.346 397.254 505.92 401.2 510.68C407.28 518.013 416.827 527.293 427.72 529.946C435.094 531.746 442.307 530.28 449.147 525.613V525.64Z" fill="black"/>
<path d="M308.587 100.2C308.587 100.2 350.28 84.3202 350 48.2936C349.72 12.2669 268.307 28.4402 236.827 74.2535C205.347 120.067 230.867 168.854 273.987 143.04C273.987 143.04 225.853 168.76 240.8 195.227C254.413 219.334 329.08 188.96 346.04 145.867C359.653 111.267 341.213 86.5869 308.6 100.2H308.587Z" fill="#1E96FF"/>
<path d="M259.894 205.68C249.787 205.68 242.641 202.427 239.121 196.173C235.854 190.387 235.134 184.187 237.014 177.76C240.054 167.32 249.361 158.053 257.761 151.493C247.121 153.44 237.574 150.693 230.654 143.333C218.134 130 215.694 101.627 235.254 73.1733C246.227 57.2133 263.841 43.64 284.854 34.9733C304.147 27.0133 323.32 24.6 336.12 28.52C346.254 31.6267 351.881 38.64 351.947 48.2933C352.067 63.6267 344.694 77.8 330.64 89.2666C328.16 91.2933 325.68 93.0533 323.347 94.5866C331.68 94.0533 338.907 96.3866 344.16 101.533C348.814 106.093 351.641 112.6 352.334 120.36C353.041 128.267 351.494 137.333 347.841 146.6C342.041 161.333 329.161 175.813 311.547 187.387C295.721 197.787 277.761 204.587 263.507 205.587C262.267 205.667 261.067 205.72 259.907 205.72L259.894 205.68ZM272.707 145.987C265.881 150.027 245.214 163.36 240.72 178.84C239.147 184.24 239.747 189.427 242.494 194.28C246.481 201.333 255.974 202.213 263.254 201.707C276.867 200.76 294.134 194.187 309.441 184.133C326.387 173 338.76 159.16 344.267 145.16C350.947 128.173 349.881 112.493 341.467 104.267C334.507 97.44 323.201 96.4933 310.334 101.587C309.734 101.84 309.374 101.973 309.307 102C308.32 102.373 307.227 101.893 306.827 100.907C306.44 99.9333 306.907 98.8133 307.881 98.4133C308.134 98.3066 308.387 98.2 308.64 98.1066C314.027 95.8266 348.361 80.0133 348.107 48.3067C348.041 40.2533 343.641 34.84 335.001 32.2C310.121 24.5867 260.681 43 238.441 75.3466C220.041 102.12 222.014 128.48 233.481 140.693C242.294 150.067 255.667 150.8 270.467 142.84C271.947 141.973 272.894 141.453 273.094 141.347C274.014 140.853 275.16 141.187 275.68 142.093C276.2 143 275.894 144.16 274.987 144.693C274.227 145.147 273.467 145.587 272.707 146V145.987Z" fill="black"/>
<path d="M203.628 491.08C203.628 491.08 254.694 510.986 230.041 541.146C205.388 571.32 139.134 525.346 111.401 502.066C83.6676 478.786 120.374 446.693 148.788 460.186C162.854 468.28 163.761 472.306 166.121 470C172.481 462.906 166.241 452.28 185.868 422.586C205.854 392.346 234.454 401.013 247.481 415.186C261.921 430.906 231.681 471.333 203.641 491.053L203.628 491.08Z" fill="#1E96FF"/>
<path d="M241.734 407.733C244.534 409.653 246.947 411.787 248.894 413.907C252.254 417.56 253.627 422.493 252.974 428.533C250.894 447.853 228.294 475.08 207.507 490.653C215.134 494.16 234.027 504.2 237.974 519.227C239.987 526.893 237.827 534.693 231.547 542.387C226.534 548.52 219.627 552.04 211.014 552.853C197.201 554.147 179.041 548.56 157.067 536.24C135.454 524.12 117.081 509.347 110.174 503.56C98.9872 494.173 96.5206 482.04 103.547 471.093C111.747 458.32 132.227 450.2 149.627 458.467C149.667 458.493 149.721 458.507 149.761 458.533C156.161 462.213 159.827 465.027 162.254 466.893C163.241 467.653 164.254 468.427 164.747 468.667C166.734 466.413 167.281 463.6 168.094 459.36C169.561 451.813 171.774 440.413 184.267 421.533C194.987 405.32 207.427 401.107 215.987 400.427C225.974 399.627 234.974 403.08 241.747 407.733H241.734ZM202.534 492.68C202.081 492.373 201.774 491.88 201.707 491.32C201.627 490.613 201.934 489.92 202.507 489.507C229.241 470.693 247.521 443 249.121 428.12C249.654 423.213 248.614 419.307 246.041 416.507C240.001 409.92 229.001 403.253 216.267 404.267C205.227 405.147 195.267 411.853 187.467 423.667C175.401 441.907 173.281 452.853 171.867 460.107C170.987 464.653 170.281 468.253 167.547 471.307C167.521 471.333 167.481 471.373 167.454 471.4C164.947 473.827 162.827 472.2 159.881 469.947C157.547 468.16 154.014 465.453 147.881 461.907C132.334 454.56 114.081 461.787 106.774 473.16C103.947 477.56 98.8672 489.04 112.641 500.587C141.121 524.48 183.867 551.507 210.641 548.987C218.187 548.28 224.214 545.227 228.561 539.92C234.027 533.24 235.934 526.6 234.254 520.187C229.881 503.533 203.214 492.973 202.947 492.867C202.814 492.813 202.681 492.747 202.561 492.653L202.534 492.68Z" fill="black"/>
<path d="M145.814 235.733C145.814 235.733 185.321 269.466 174.094 294.106C162.881 318.746 106.414 292.32 75.5205 254.186C44.6272 216.053 52.1872 195.826 58.4272 185.2C84.3605 145.306 156.041 175.92 189.601 193.853C205.001 202.08 209.547 222.626 198.147 235.84C189.147 246.266 172.787 249.346 145.814 235.746V235.733Z" fill="#1E96FF"/>
<path d="M174.867 296.787C171.974 301.587 167.094 304.533 160.627 305.36C137.961 308.253 98.3073 285.373 74.014 255.4C43.3207 217.52 49.4673 196.64 56.7607 184.226C56.774 184.2 56.7873 184.173 56.8007 184.147C68.574 166.04 90.3473 159.906 121.507 165.946C148.707 171.213 176.401 184.627 190.494 192.147C198.614 196.48 204.241 204.16 205.921 213.226C207.534 221.866 205.214 230.56 199.587 237.093C188.294 250.173 170.627 247.973 155.134 242.013C166.347 253.693 184.281 276.36 175.841 294.906C175.547 295.56 175.214 296.187 174.854 296.787H174.867ZM60.0673 186.213C53.374 197.64 47.8673 216.987 77.014 252.973C100.161 281.533 139.001 304.226 160.134 301.533C166.094 300.773 170.201 298.013 172.334 293.307C182.827 270.253 144.934 237.52 144.561 237.2C143.814 236.56 143.667 235.48 144.201 234.667C144.747 233.853 145.801 233.573 146.667 234.013C169.681 245.613 186.974 245.813 196.667 234.573C201.534 228.933 203.521 221.413 202.134 213.933C200.667 206.026 195.761 199.333 188.681 195.547C174.787 188.12 147.481 174.907 120.774 169.733C91.3207 164.027 70.894 169.573 60.054 186.213H60.0673Z" fill="black"/>
<path d="M122.694 220.666C122.521 220.946 122.281 221.186 121.961 221.36C121.027 221.866 119.854 221.52 119.347 220.586C113.747 210.306 99.4939 209.306 99.3605 209.293C98.2939 209.226 97.4939 208.32 97.5605 207.253C97.6272 206.186 98.5339 205.386 99.6005 205.453C100.267 205.493 116.107 206.573 122.747 218.746C123.094 219.373 123.041 220.093 122.707 220.666H122.694Z" fill="black"/>
<path d="M119.44 288.173C119.44 288.173 104.6 263.813 77.0938 265.547C19.0671 269.2 23.7871 336.947 57.0938 355.28C115.36 392.227 188.094 369.147 186.16 338.44C184.147 306.413 146.32 312.573 146.32 312.573C146.32 312.573 186.307 304.76 181.934 271.36C178.6 242.44 120.134 263.147 119.44 288.16V288.173Z" fill="#1E96FF"/>
<path d="M184.12 273.906C184.947 287.106 179.014 298.213 166.827 306.12C164.134 307.866 161.414 309.28 158.88 310.413C165.04 311 172.32 312.8 178.12 317.427C184.174 322.253 187.52 329.28 188.094 338.333C188.72 348.226 182.414 357.613 170.334 364.76C157.12 372.573 138.427 376.747 119.067 376.187C103.494 375.733 79.9203 372.026 56.1337 356.96C37.5337 346.693 26.8937 321.04 31.9337 298.56C36.5604 277.88 52.987 265.16 77.0003 263.653C98.747 262.28 112.72 276.28 118.334 283.32C122.707 268.693 144.12 256.2 161.72 255.44C174.587 254.88 182.667 260.613 183.88 271.187C184 272.12 184.094 273.04 184.147 273.947L184.12 273.906ZM144.4 312.693C144.334 311.747 145 310.866 145.947 310.68C146.04 310.666 155.774 308.693 164.8 302.813C176.6 295.12 181.707 284.627 180.014 271.613C178.694 260.227 168.067 258.987 161.854 259.253C144.334 260.013 121.76 273.813 121.36 288.213C121.334 289.067 120.76 289.8 119.934 290.027C119.107 290.24 118.24 289.893 117.787 289.173C117.64 288.933 103.187 265.827 77.2004 267.467C55.027 268.867 39.8804 280.493 35.6537 299.373C30.9737 320.306 40.787 344.12 58.0003 353.587C58.0403 353.6 58.067 353.627 58.107 353.653C81.187 368.293 104.04 371.88 119.147 372.32C137.814 372.853 155.734 368.893 168.347 361.44C179.12 355.067 184.76 346.946 184.227 338.573C183.734 330.653 180.854 324.56 175.694 320.44C164.694 311.667 146.8 314.466 146.614 314.493C145.574 314.666 144.587 313.973 144.414 312.933C144.4 312.853 144.387 312.786 144.387 312.706L144.4 312.693Z" fill="black"/>
<path d="M95.0538 315C95.0805 315.44 94.9605 315.88 94.6805 316.266C94.0538 317.12 92.8405 317.306 91.9872 316.666C82.5738 309.706 69.2271 314.8 69.0938 314.853C68.1071 315.24 66.9872 314.746 66.6005 313.76C66.2138 312.773 66.6938 311.653 67.6805 311.266C68.3072 311.026 83.1205 305.32 94.2671 313.56C94.7471 313.906 95.0138 314.44 95.0405 314.986L95.0538 315Z" fill="black"/>
<path d="M446.44 172C435.346 191.48 403.786 232.253 348.12 205.04C292.453 177.827 321.586 121.453 350.773 91.3598C376.306 65.0265 410.72 47.2132 420.346 76.3198C420.613 77.1332 420.826 77.9865 420.96 78.8798C427.533 76.2532 435.84 75.1198 444.693 79.2532C477.586 94.6398 457.533 152.507 446.44 171.987V172Z" fill="#1E96FF"/>
<path d="M349.067 207.627C348.467 207.347 347.867 207.053 347.267 206.76C328.92 197.787 318.2 185.067 315.373 168.92C310.587 141.52 329.8 110.187 349.387 90.0001C365.947 72.9201 389.72 56.0534 406.747 59.9467C414.08 61.6267 419.28 66.9201 422.187 75.6934C422.253 75.8934 422.32 76.0934 422.373 76.2934C430.347 73.6267 438.12 74.0267 445.52 77.4934C453.747 81.3467 459.413 87.9601 462.333 97.1734C470.16 121.8 456.133 158.853 448.12 172.933C443.12 181.72 432.16 197.907 414.947 207.693C395.253 218.88 373.107 218.853 349.067 207.627ZM408.973 64.7734C408 64.3201 406.973 63.9601 405.88 63.7201C393.133 60.8001 372.053 72.1734 352.147 92.6934C341.747 103.413 332.76 116.027 326.853 128.2C319.693 142.947 317.107 156.427 319.173 168.267C321.773 183.12 331.787 194.907 348.96 203.307C349.533 203.587 350.107 203.867 350.68 204.133C404.28 229.2 434.28 189.453 444.76 171.04C448.64 164.227 454.027 151.933 457.52 137.84C460.253 126.813 462.667 111.013 458.653 98.3467C456.067 90.2134 451.093 84.3734 443.88 81.0001C436.827 77.7067 429.36 77.5867 421.68 80.6667C421.133 80.8801 420.52 80.8401 420 80.5467C419.493 80.2534 419.133 79.7467 419.053 79.1601C418.933 78.3867 418.76 77.6267 418.52 76.9201C416.52 70.8667 413.32 66.8001 408.973 64.7734Z" fill="black"/>
<path d="M366.72 160.987C366.36 160.813 366.053 160.533 365.84 160.16C365.333 159.227 365.68 158.053 366.613 157.547C366.92 157.373 397.506 140.453 412.133 107.747C417.733 95.2399 420.066 85.6266 419.053 79.1733C418.893 78.1199 419.6 77.1333 420.653 76.9733C421.706 76.8133 422.693 77.5199 422.853 78.5733C424 85.8799 421.653 95.9466 415.653 109.32C400.48 143.253 369.76 160.227 368.453 160.933C367.893 161.24 367.253 161.24 366.72 160.987Z" fill="black"/>
<path d="M460.801 233.28C460.801 233.28 494.481 281.427 536.214 249.24C577.934 217.053 522.654 141.52 472.801 162.053C403.281 190.52 374.587 224.293 399.347 252.933C424.107 281.573 450.467 257.267 460.801 233.28Z" fill="#1E96FF"/>
<path d="M392.161 245.84C388.654 239 387.761 231.853 389.521 224.493C394.801 202.427 423.334 180.227 472.067 160.267C500.747 148.453 530.854 167.387 544.614 191.2C550.667 201.667 553.467 212.547 552.721 222.653C551.894 233.933 546.587 243.653 537.374 250.76C525.414 259.987 512.907 263.68 500.227 261.747C480.601 258.747 466.281 243.253 461.201 236.987C454.774 250.213 442.601 265.16 427.267 267.52C416.801 269.133 406.921 264.653 397.881 254.187C395.521 251.453 393.614 248.667 392.161 245.827V245.84ZM543.014 196.32C542.481 195.267 541.894 194.213 541.281 193.133C528.334 170.733 500.201 152.853 473.534 163.84C426.681 183.027 398.174 204.88 393.281 225.387C391.094 234.52 393.627 243.36 400.814 251.667C408.934 261.053 417.641 265.107 426.707 263.707C436.041 262.267 450.107 253.227 459.041 232.507C459.321 231.867 459.921 231.427 460.614 231.347C461.307 231.267 461.987 231.587 462.387 232.16C462.547 232.387 478.281 254.493 500.854 257.933C512.454 259.693 523.947 256.253 535.041 247.707C547.134 238.373 555.241 220.133 543.027 196.32H543.014Z" fill="black"/>
<path d="M481.574 264.359C488.534 253.919 504.2 234.773 537.6 258.159C568.56 279.826 582.867 348.119 540.734 355.546C513.294 360.373 511.187 316.213 511.187 316.213C511.187 316.213 521.947 345.213 494.934 350.293C467.934 355.373 469.347 312.933 469.347 312.933C469.347 312.933 476.294 360.386 448.134 361.679C416.507 363.133 412.227 313.306 417.4 282.853C423.094 249.386 448.48 252.439 459.334 253.826C469.774 255.159 481.56 264.359 481.56 264.359H481.574Z" fill="#1E96FF"/>
<path d="M413.627 305.6C413.627 297.586 414.307 289.653 415.52 282.52C421.547 247.04 449.187 250.573 459.6 251.906C468.2 253.013 477.427 259 481.12 261.613C485.547 255.32 492.454 247.64 503.267 245.613C513.614 243.666 525.547 247.346 538.72 256.573C559.694 271.253 573.227 306.106 567.667 331.173C564.454 345.653 555.014 354.986 541.08 357.44C534.494 358.6 528.694 357.226 523.867 353.36C519.12 349.573 515.92 343.853 513.747 338.026C513.347 339.146 512.854 340.24 512.254 341.306C509.027 347.026 503.32 350.68 495.32 352.186C488.68 353.44 483.04 352.12 478.56 348.266C475.227 345.4 472.88 341.426 471.24 337.146C470.214 343.973 468.067 350.906 463.894 355.96C459.96 360.72 454.694 363.293 448.24 363.586C439.76 363.973 432.614 360.946 426.987 354.6C417.4 343.76 413.627 324.426 413.627 305.586V305.6ZM565.04 319.346C565.04 297.466 553.107 271.36 536.507 259.733C524.214 251.133 513.267 247.653 503.974 249.4C493.614 251.346 487.147 259.48 483.187 265.413C482.894 265.853 482.414 266.16 481.894 266.253C481.36 266.333 480.827 266.2 480.4 265.866C480.28 265.773 468.894 256.986 459.12 255.733C448.84 254.413 424.747 251.333 419.334 283.173C415.294 306.92 417.627 338.2 429.88 352.053C434.694 357.493 440.814 360.08 448.067 359.746C453.454 359.493 457.667 357.466 460.92 353.52C466.974 346.186 468.24 333.893 468.187 324.84C467.28 318.426 467.427 313.32 467.44 312.866C467.48 311.866 468.267 311.066 469.254 311C470.254 310.946 471.12 311.653 471.267 312.64C471.334 313.12 472.027 318.026 472.067 324.613C473.107 331.826 475.534 340.6 481.067 345.346C484.667 348.426 489.094 349.426 494.6 348.386C501.44 347.106 506.24 344.08 508.894 339.4C510.534 336.493 511.214 333.226 511.36 330.106C509.627 322.813 509.307 316.813 509.28 316.306C509.227 315.36 509.894 314.52 510.814 314.32C511.747 314.133 512.68 314.653 513 315.533C513.147 315.933 515.44 322.253 515.227 329.64C517.027 337.026 520.32 345.6 526.267 350.346C530.254 353.533 534.88 354.6 540.4 353.626C556.16 350.853 561.88 339.426 563.894 330.32C564.667 326.853 565.027 323.146 565.027 319.32L565.04 319.346Z" fill="black"/>
<path d="M446.267 389.16C446.267 389.16 411.2 386.626 412.88 362.306C413.094 359.106 414.454 356 416.867 353.88C443.867 330.2 582.934 373.853 540.147 439.626C536.067 445.893 530.8 451.386 524.44 455.306C489.134 477.106 457.16 437.2 458.867 427.853C458.867 427.853 442.587 452.413 416.854 444.186C408.107 441.386 397.28 435.8 396.48 427.733C394.76 410.253 405.827 392.613 446.267 389.16Z" fill="#1E96FF"/>
<path d="M412.494 356.493C413.28 354.933 414.32 353.56 415.6 352.44C434.294 336.04 498.534 350.066 530.16 377.453C551.92 396.293 556.04 418.76 541.76 440.693C537.294 447.56 531.8 453.04 525.44 456.973C504.547 469.88 486.067 461.293 476.907 455.04C467.094 448.333 459.92 439.066 457.64 432.506C451.707 439.24 436.8 452.626 416.267 446.053C410.08 444.08 395.587 438.346 394.56 427.96C393.694 419.213 396.014 411.253 401.267 404.946C407.88 396.986 418.947 391.586 434.227 388.813C432.28 388.24 430.227 387.533 428.187 386.653C416.174 381.493 410.214 373.04 410.947 362.213C411.08 360.2 411.627 358.253 412.494 356.52V356.493ZM541.733 433.026C553.347 409.893 540.827 391.786 527.64 380.36C513.027 367.706 490.32 357.173 466.867 352.173C444.48 347.4 425.814 348.613 418.147 355.333C416.214 357.026 415 359.613 414.8 362.44C413.28 384.586 446.08 387.213 446.414 387.24C447.414 387.306 448.2 388.146 448.2 389.146C448.2 390.146 447.44 391 446.44 391.08C425.974 392.826 411.774 398.306 404.24 407.373C399.6 412.946 397.64 419.733 398.414 427.546C399.24 435.893 413.2 440.986 417.454 442.346C441.52 450.053 457.12 427.013 457.267 426.786C457.774 426.026 458.747 425.72 459.6 426.066C460.454 426.413 460.947 427.306 460.774 428.2C460.147 431.586 466.8 443.426 479.094 451.826C487.48 457.56 504.4 465.426 523.427 453.666C529.294 450.04 534.374 444.96 538.534 438.573C539.76 436.693 540.827 434.84 541.733 433.013V433.026Z" fill="black"/>
<path d="M491.267 412.786C491.507 412.306 491.947 411.933 492.507 411.786C493.533 411.52 494.587 412.133 494.867 413.16C494.907 413.32 496.173 417.56 502.146 420.706C508.36 423.986 513.36 423.44 513.413 423.44C514.466 423.32 515.427 424.066 515.56 425.12C515.693 426.173 514.947 427.133 513.893 427.266C513.64 427.293 507.707 428 500.347 424.12C492.787 420.133 491.2 414.386 491.133 414.133C491.013 413.666 491.067 413.186 491.28 412.786H491.267Z" fill="black"/>
<path d="M480.067 212.213C479.881 211.853 479.814 211.44 479.881 211.013C480.054 209.96 481.054 209.253 482.107 209.44C489.094 210.626 494.921 206.933 498.574 203.613C501.361 201.093 501.334 196.92 501.321 196.88C501.294 195.813 502.134 194.933 503.201 194.906C504.267 194.88 505.147 195.72 505.174 196.786C505.174 197.026 505.294 202.746 501.161 206.48C495.107 211.96 488.107 214.36 481.467 213.24C480.841 213.133 480.334 212.746 480.067 212.213Z" fill="black"/>
<path d="M288.853 476.093C288.853 476.093 286.4 428.24 325.933 432.026C365.467 435.813 355.573 493.36 330.773 531.12C296.227 583.733 258.747 575.573 247.013 560.76C225.907 531.76 226.76 500.066 234.427 466.266C239.813 442.52 258.067 431.186 268.013 432.146C295.787 434.8 288.853 476.106 288.853 476.106V476.093Z" fill="#1E96FF"/>
<path d="M326.12 430.093C337.48 431.187 345.893 436.76 350.427 446.213C355.253 456.28 355.76 470.413 351.893 487.12C348.347 502.413 341.427 518.413 332.4 532.173C323.2 546.187 313.173 556.867 302.587 563.933C293.427 570.04 284.08 573.36 274.787 573.773C260.613 574.4 250.373 568.08 245.52 561.947C245.507 561.92 245.493 561.907 245.467 561.88C222.16 529.867 225.853 495.36 232.547 465.827C238.12 441.227 257.173 429.16 268.2 430.213C275.08 430.867 280.573 433.813 284.507 438.947C287.6 442.987 289.413 447.947 290.413 452.933C292.573 446.853 295.653 441.827 299.533 438.107C306.173 431.747 315.12 429.053 326.107 430.107L326.12 430.093ZM269.173 569.787C270.893 569.947 272.707 570 274.6 569.92C293.467 569.08 312.84 554.92 329.16 530.053C345.187 505.653 356.853 468.56 346.947 447.88C342.973 439.587 335.84 434.893 325.747 433.933C315.653 432.973 308.013 435.333 302.213 440.867C295.533 447.253 292.72 456.827 291.56 464.373C291.64 470.947 290.827 475.96 290.747 476.4C290.587 477.373 289.72 478.067 288.733 478C287.747 477.947 286.973 477.16 286.92 476.173C286.92 475.947 286.667 470.893 287.667 464.173C287.56 456.84 286.293 447.587 281.44 441.267C278.173 437.027 273.6 434.587 267.827 434.04C259.347 433.227 241.573 443.44 236.293 466.667C229.787 495.347 226.16 528.8 248.547 559.573C252.187 564.147 259.307 568.84 269.173 569.787Z" fill="black"/>
<path d="M282.653 502.88C283.093 502.92 283.506 503.107 283.84 503.44C284.586 504.2 284.573 505.413 283.813 506.16C274.653 515.173 276.533 526.333 276.613 526.8C276.8 527.84 276.106 528.853 275.066 529.04C274.013 529.227 273.013 528.547 272.826 527.493C272.72 526.947 270.453 513.893 281.106 503.413C281.533 503 282.093 502.813 282.64 502.867L282.653 502.88Z" fill="black"/>
</g>
</g>
<defs>
<clipPath id="clip0_2341_1824">
<rect width="600" height="600" fill="white"/>
</clipPath>
<clipPath id="clip1_2341_1824">
<rect width="538.253" height="547.147" fill="white" transform="translate(30.667 26.6665)"/>
</clipPath>
</defs>
</svg>
