<?xml version="1.0" encoding="UTF-8"?>
<svg id="Layer_1" data-name="Layer 1" xmlns="http://www.w3.org/2000/svg" viewBox="0 0 1414.05 240.55">
  <defs>
    <style>
      .cls-1 {
        fill: #fff;
      }
    </style>
  </defs>
  <path d="M243,28.03c-3.9-8.37-11.16-16.19-20.09-18.42-21.5-5.31-36.29,20.38-44.67,35.73-10.33,19.26-17.03,40.2-25.68,60.85,0,0,0,.56-.28.84.28-15.91.84-31.54-3.35-46.9-5.02-17.3-15.91-36.84-36.29-36.84-41.31,0-74.25,69.78-84.86,104.12-4.18,13.12-7.25,26.52-8.93,40.19-2.23,15.08-3.91,32.38,1.68,47.18,4.74,11.44,12.56,17.87,25.12,17.87,30.7,0,48.85-55.28,55.83-80.12-.28,5.86,0,11.72,0,17.59,1.11,14.79,2.51,31.82,11.16,44.66,7.54,11.17,20.1,15.91,33.22,13.4,35.17-6.98,69.79-66.44,83.74-99.38,9.22-21.49,16.75-44.1,18.43-67.83.84-11.16,0-22.89-5.03-32.94ZM227.93,116.24c-11.72,30.43-51.08,106.08-89.61,106.08-22.61,0-27.63-25.41-29.58-43.27-1.68-17.59-.84-35.73.83-53.32.28-4.46,1.12-8.65,1.4-12.84,0-.28,0-.56.28-1.11.28-1.96-1.68-2.8-3.35-2.8-1.4,0-2.79.56-3.07,2.24v.56c-5.59,25.4-25.4,114.72-58.9,114.72-17.03,0-21.78-16.75-22.33-30.7-.56-7.82.28-15.91.83-24.01,5.59-41.59,26.24-97.7,58.07-127.29,8.37-8.09,19.26-15.35,31.54-14.51,14.79.28,23.17,15.63,27.35,28.19,6.7,20.66,3.91,43.27,4.47,64.76,0,1.96,1.68,3.35,3.35,3.35s3.07-1.67,3.07-3.35c8.65-18.14,15.08-37.96,22.89-56.67,4.47-9.21,8.93-18.14,14.24-27.07,5.58-9.21,15.35-23.73,27.63-23.73,17.03,0,24.01,21.49,24.85,35.17.83,22.33-5.87,44.95-13.96,65.6Z"/>
  <path class="cls-1" d="M227.93,116.24c-11.72,30.43-51.08,106.08-89.61,106.08-22.61,0-27.63-25.41-29.58-43.27-1.68-17.59-.84-35.73.83-53.32.28-4.46,1.12-8.65,1.4-12.84,0-.28,0-.56.28-1.11.28-1.96-1.68-2.8-3.35-2.8-1.4,0-2.79.56-3.07,2.24v.56c-5.59,25.4-25.4,114.72-58.9,114.72-17.03,0-21.78-16.75-22.33-30.7-.56-7.82.28-15.91.83-24.01,5.59-41.59,26.24-97.7,58.07-127.29,8.37-8.09,19.26-15.35,31.54-14.51,14.79.28,23.17,15.63,27.35,28.19,6.7,20.66,3.91,43.27,4.47,64.76,0,1.96,1.68,3.35,3.35,3.35s3.07-1.67,3.07-3.35c8.65-18.14,15.08-37.96,22.89-56.67,4.47-9.21,8.93-18.14,14.24-27.07,5.58-9.21,15.35-23.73,27.63-23.73,17.03,0,24.01,21.49,24.85,35.17.83,22.33-5.87,44.95-13.96,65.6Z"/>
  <path d="M416.63,140.25c-5.86-6.98-14.51-9.49-23.17-10.61-6.14-.56-12.84-.84-19.26-.28,2.52-1.95,4.47-3.91,6.7-6.7,3.07-3.91,5.31-8.93,5.03-14.23-.84-14.52-17.87-21.5-30.15-23.17,11.17-3.07,22.33-6.42,33.22-10.33,7.54-3.07,15.35-6.42,20.66-12.56,5.02-5.59,8.09-13.4,6.69-20.66-3.62-15.35-20.65-19.26-34.05-21.21-9.21-1.12-18.42-2.24-27.36-2.52-18.14-.28-36.84,1.96-54.71,6.14-20.38,5.03-53.32,18.43-61.69,40.2-2.51,6.14-2.79,12.84-1.95,19.26,5.02,24.57,31.54,33.22,53.31,35.45-16.47,6.14-37.12,15.91-49.13,28.2-9.49,9.77-15.63,22.33-14.23,36.01,1.39,16.19,11.72,29.86,25.96,37.4,15.07,7.82,32.38,10.33,49.41,10.05,32.38-.56,70.9-14.51,95.74-35.45,11.73-9.77,21.5-22.33,23.45-37.68.84-6.43-.28-12.29-4.47-17.31ZM398.77,186.03c-24.29,23.72-65.88,38.8-99.38,38.8-24,0-57.5-7.82-64.76-34.34-3.63-12.28-1.39-24.84,6.7-34.61,15.35-18.14,38.52-26.8,60.58-34.06,1.39-.55,3.07-.83,4.46-1.11h.56c3.63-1.12,2.79-6.14-.56-6.42-19.82-1.12-50.24-3.91-60.85-24.29-5.31-10.61-3.07-22.33,3.91-30.98,18.42-23.73,60.57-32.94,89.04-34.34,16.47-.84,33.22-.28,49.97,3.07,5.58,1.12,12,3.07,16.75,7.26,5.02,4.47,6.14,11.17,3.63,17.31-3.07,6.98-9.49,11.16-16.19,14.23-7.54,3.63-15.64,5.87-24.29,8.38-20.93,6.14-42.15,11.44-63.64,15.63-3.63.56-2.79,5.3.28,6.14.55.56,1.39.84,2.79.56,11.16-3.63,24.28-6.98,36.84-6.98,9.22,0,18.15,1.96,25.96,6.7,4.19,2.23,7.82,5.86,8.94,10.61.83,4.19-1.12,8.65-4.19,11.72-6.98,8.1-17.87,11.45-26.8,15.08-11.44,3.9-24.84,8.37-34.61,15.91-2.79,2.23-.28,7.26,3.35,5.02,9.77-5.58,20.38-10.05,30.98-14.23,8.38-2.8,17.03-5.03,26.24-5.59,5.86-.28,11.45-.28,17.31.28,10.05.56,21.21,4.47,22.89,15.91,1.67,12.84-7.26,25.68-15.91,34.34Z"/>
  <path class="cls-1" d="M398.77,186.03c-24.29,23.72-65.88,38.8-99.38,38.8-24,0-57.5-7.82-64.76-34.34-3.63-12.28-1.39-24.84,6.7-34.61,15.35-18.14,38.52-26.8,60.58-34.06,1.39-.55,3.07-.83,4.46-1.11h.56c3.63-1.12,2.79-6.14-.56-6.42-19.82-1.12-50.24-3.91-60.85-24.29-5.31-10.61-3.07-22.33,3.91-30.98,18.42-23.73,60.57-32.94,89.04-34.34,16.47-.84,33.22-.28,49.97,3.07,5.58,1.12,12,3.07,16.75,7.26,5.02,4.47,6.14,11.17,3.63,17.31-3.07,6.98-9.49,11.16-16.19,14.23-7.54,3.63-15.64,5.87-24.29,8.38-20.93,6.14-42.15,11.44-63.64,15.63-3.63.56-2.79,5.3.28,6.14.55.56,1.39.84,2.79.56,11.16-3.63,24.28-6.98,36.84-6.98,9.22,0,18.15,1.96,25.96,6.7,4.19,2.23,7.82,5.86,8.94,10.61.83,4.19-1.12,8.65-4.19,11.72-6.98,8.1-17.87,11.45-26.8,15.08-11.44,3.9-24.84,8.37-34.61,15.91-2.79,2.23-.28,7.26,3.35,5.02,9.77-5.58,20.38-10.05,30.98-14.23,8.38-2.8,17.03-5.03,26.24-5.59,5.86-.28,11.45-.28,17.31.28,10.05.56,21.21,4.47,22.89,15.91,1.67,12.84-7.26,25.68-15.91,34.34Z"/>
  <path d="M637.16,62.65c-.84-13.12-3.35-29.87-14.79-37.69-5.31-3.63-12.85-4.74-18.99-3.35-24.28,4.75-39.91,58.62-45.5,82.07-2.51-16.19-9.77-38.8-29.59-38.8s-28.47,25.68-32.38,41.87c-2.79-19.82-6.98-45.78-15.07-64.2-6.7-15.63-22.33-25.13-39.08-25.13-24.01,0-34.62,19.27-39.36,40.2-5.3,24.57-3.35,50.81-.56,75.65,2.79,26.52,8.38,56.39,26.52,77.04,9.49,10.61,22.89,17.31,37.4,16.47,27.08-1.11,45.51-41.59,52.76-63.64.56,22.61,7.54,65.88,36.57,66.99,16.75.56,30.71-10.6,40.48-23.45,18.98-25.4,32.66-69.78,38.52-101.32,2.51-14.24,3.91-28.48,3.07-42.71ZM619.85,136.62c-7.53,27.63-28.19,87.09-63.36,87.09-28.48,0-31.55-48.01-31.55-69.23,0-5.58,0-10.88.28-16.47v-.83c.28-1.96-1.39-3.07-3.07-3.07-1.39,0-2.79.56-3.35,2.23v.84c-5.02,24-21.21,76.48-49.69,82.62-12.28,2.8-25.68-3.07-34.05-11.44-18.42-18.42-23.73-50.25-26.8-75.09-2.79-21.77-4.19-44.38-1.12-66.44,2.24-15.35,8.1-34.89,24.01-41.31.84-.28,1.96-.56,3.35-.56,2.51-.56,5.03-.84,7.54-.84,12.84,0,25.96,6.98,31.82,18.43,3.91,7.53,6.14,15.63,8.1,23.72,4.74,19.82,7.53,39.64,10.04,59.74.28,1.68,1.4,3.07,2.8,3.35,1.95,0,3.9-1.39,3.9-3.35,2.52-15.35,9.22-54.99,30.43-54.99,14.8,0,20.38,20.38,22.05,31.82,1.4,5.86,1.68,12.01,1.96,18.15v7.53c0,.84-.28,1.4-.28,1.96,0,1.67-.28,3.07-.28,4.46-.28,1.96,1.67,3.07,3.07,3.07s2.79-.83,3.07-2.23v-1.11c.28-1.68.56-3.35.56-4.75,3.35-26.24,17.03-80.95,38.8-99.1,4.19-3.35,8.65-4.18,14.24-3.07,12.28,2.24,16.19,16.19,17.86,26.8,3.91,27.36-2.79,56.11-10.33,82.07Z"/>
  <path class="cls-1" d="M619.85,136.62c-7.53,27.63-28.19,87.09-63.36,87.09-28.48,0-31.55-48.01-31.55-69.23,0-5.58,0-10.88.28-16.47v-.83c.28-1.96-1.39-3.07-3.07-3.07-1.39,0-2.79.56-3.35,2.23v.84c-5.02,24-21.21,76.48-49.69,82.62-12.28,2.8-25.68-3.07-34.05-11.44-18.42-18.42-23.73-50.25-26.8-75.09-2.79-21.77-4.19-44.38-1.12-66.44,2.24-15.35,8.1-34.89,24.01-41.31.84-.28,1.96-.56,3.35-.56,2.51-.56,5.03-.84,7.54-.84,12.84,0,25.96,6.98,31.82,18.43,3.91,7.53,6.14,15.63,8.1,23.72,4.74,19.82,7.53,39.64,10.04,59.74.28,1.68,1.4,3.07,2.8,3.35,1.95,0,3.9-1.39,3.9-3.35,2.52-15.35,9.22-54.99,30.43-54.99,14.8,0,20.38,20.38,22.05,31.82,1.4,5.86,1.68,12.01,1.96,18.15v7.53c0,.84-.28,1.4-.28,1.96,0,1.67-.28,3.07-.28,4.46-.28,1.96,1.67,3.07,3.07,3.07s2.79-.83,3.07-2.23v-1.11c.28-1.68.56-3.35.56-4.75,3.35-26.24,17.03-80.95,38.8-99.1,4.19-3.35,8.65-4.18,14.24-3.07,12.28,2.24,16.19,16.19,17.86,26.8,3.91,27.36-2.79,56.11-10.33,82.07Z"/>
  <path d="M740.77,143.88c-2.79-40.2-15.07-82.91-43.54-112.5-6.98-7.54-16.75-11.72-27.08-11.72-9.21,0-18.14,3.35-23.73,10.61-5.58,7.25-6.7,16.74-6.14,25.4,2.24,29.31,22.05,69.78,37.13,94.07-11.17-11.17-24.57-23.45-41.31-23.45-6.43,0-12.57,1.95-17.87,6.7-9.77,8.93-13.96,23.73-12.84,36.57,3.35,33.77,40.75,60.01,72.86,60.85,17.3.56,34.33-5.58,45.78-19.54,15.07-18.14,17.86-44.1,16.74-66.99ZM724.03,200.82c-8.38,13.4-21.78,22.06-37.13,23.45-22.05,2.23-43.27-7.26-58.62-22.33-5.86-5.58-9.49-10.61-12.84-18.15-5.58-12.28-5.31-26.79.84-38.52,4.18-7.81,10.6-13.4,19.54-13.4,4.18,0,8.65,1.12,12.56,2.8,13.95,6.14,24,18.7,35.17,29.03,2.51,2.23,4.75,4.46,7.26,6.42.56.28.83.55,1.11,1.11,2.52,1.4,5.87-1.95,4.19-4.18-19.54-26.52-43.27-70.91-48.85-104.4-1.67-6.98-1.95-14.8.28-21.78,3.35-10.6,12.28-15.07,22.05-15.07,8.38,0,17.03,3.35,22.61,9.21,27.36,29.59,35.73,58.06,41.6,96.58,2.79,23.17,2.51,48.85-9.77,69.23Z"/>
  <path class="cls-1" d="M724.03,200.82c-8.38,13.4-21.78,22.06-37.13,23.45-22.05,2.23-43.27-7.26-58.62-22.33-5.86-5.58-9.49-10.61-12.84-18.15-5.58-12.28-5.31-26.79.84-38.52,4.18-7.81,10.6-13.4,19.54-13.4,4.18,0,8.65,1.12,12.56,2.8,13.95,6.14,24,18.7,35.17,29.03,2.51,2.23,4.75,4.46,7.26,6.42.56.28.83.55,1.11,1.11,2.52,1.4,5.87-1.95,4.19-4.18-19.54-26.52-43.27-70.91-48.85-104.4-1.67-6.98-1.95-14.8.28-21.78,3.35-10.6,12.28-15.07,22.05-15.07,8.38,0,17.03,3.35,22.61,9.21,27.36,29.59,35.73,58.06,41.6,96.58,2.79,23.17,2.51,48.85-9.77,69.23Z"/>
  <path d="M909.1,140.25c-5.86-6.98-14.52-9.49-23.17-10.61-6.14-.56-12.84-.84-19.26-.28,2.51-1.95,4.47-3.91,6.7-6.7,3.07-3.91,5.3-8.93,5.02-14.23-.83-14.52-17.86-21.5-30.14-23.17,11.16-3.07,22.33-6.42,33.21-10.33,7.54-3.07,15.36-6.42,20.66-12.56,5.03-5.59,8.1-13.4,6.7-20.66-3.63-15.35-20.66-19.26-34.06-21.21-9.21-1.12-18.42-2.24-27.35-2.52-18.15-.28-36.85,1.96-54.71,6.14-20.38,5.03-53.32,18.43-61.69,40.2-2.52,6.14-2.8,12.84-1.96,19.26,5.03,24.57,31.54,33.22,53.32,35.45-16.47,6.14-37.13,15.91-49.13,28.2-9.49,9.77-15.63,22.33-14.24,36.01,1.4,16.19,11.73,29.86,25.96,37.4,15.08,7.82,32.38,10.33,49.41,10.05,32.38-.56,70.9-14.51,95.75-35.45,11.72-9.77,21.49-22.33,23.45-37.68.83-6.43-.28-12.29-4.47-17.31ZM891.23,186.03c-24.28,23.72-65.87,38.8-99.37,38.8-24.01,0-57.51-7.82-64.76-34.34-3.63-12.28-1.4-24.84,6.7-34.61,15.35-18.14,38.52-26.8,60.57-34.06,1.4-.55,3.07-.83,4.47-1.11h.56c3.62-1.12,2.79-6.14-.56-6.42-19.82-1.12-50.25-3.91-60.86-24.29-5.3-10.61-3.07-22.33,3.91-30.98,18.43-23.73,60.58-32.94,89.05-34.34,16.47-.84,33.22-.28,49.97,3.07,5.58,1.12,12,3.07,16.74,7.26,5.03,4.47,6.15,11.17,3.63,17.31-3.07,6.98-9.49,11.16-16.19,14.23-7.53,3.63-15.63,5.87-24.28,8.38-20.94,6.14-42.15,11.44-63.65,15.63-3.63.56-2.79,5.3.28,6.14.56.56,1.4.84,2.79.56,11.17-3.63,24.29-6.98,36.85-6.98,9.21,0,18.14,1.96,25.96,6.7,4.19,2.23,7.82,5.86,8.93,10.61.84,4.19-1.11,8.65-4.18,11.72-6.98,8.1-17.87,11.45-26.8,15.08-11.45,3.9-24.85,8.37-34.62,15.91-2.79,2.23-.27,7.26,3.35,5.02,9.77-5.58,20.38-10.05,30.99-14.23,8.37-2.8,17.03-5.03,26.24-5.59,5.86-.28,11.44-.28,17.31.28,10.04.56,21.21,4.47,22.89,15.91,1.67,12.84-7.26,25.68-15.92,34.34Z"/>
  <path class="cls-1" d="M891.23,186.03c-24.28,23.72-65.87,38.8-99.37,38.8-24.01,0-57.51-7.82-64.76-34.34-3.63-12.28-1.4-24.84,6.7-34.61,15.35-18.14,38.52-26.8,60.57-34.06,1.4-.55,3.07-.83,4.47-1.11h.56c3.62-1.12,2.79-6.14-.56-6.42-19.82-1.12-50.25-3.91-60.86-24.29-5.3-10.61-3.07-22.33,3.91-30.98,18.43-23.73,60.58-32.94,89.05-34.34,16.47-.84,33.22-.28,49.97,3.07,5.58,1.12,12,3.07,16.74,7.26,5.03,4.47,6.15,11.17,3.63,17.31-3.07,6.98-9.49,11.16-16.19,14.23-7.53,3.63-15.63,5.87-24.28,8.38-20.94,6.14-42.15,11.44-63.65,15.63-3.63.56-2.79,5.3.28,6.14.56.56,1.4.84,2.79.56,11.17-3.63,24.29-6.98,36.85-6.98,9.21,0,18.14,1.96,25.96,6.7,4.19,2.23,7.82,5.86,8.93,10.61.84,4.19-1.11,8.65-4.18,11.72-6.98,8.1-17.87,11.45-26.8,15.08-11.45,3.9-24.85,8.37-34.62,15.91-2.79,2.23-.27,7.26,3.35,5.02,9.77-5.58,20.38-10.05,30.99-14.23,8.37-2.8,17.03-5.03,26.24-5.59,5.86-.28,11.44-.28,17.31.28,10.04.56,21.21,4.47,22.89,15.91,1.67,12.84-7.26,25.68-15.92,34.34Z"/>
  <path d="M1238.8,129.12c-.07,2.68-.18,5.35-.35,8.02-2.37,1.22-4.59,2.71-6.63,4.43.01-.07.02-.14.02-.21.47-6.13.72-12.27.73-18.38,0-3.47-.07-6.92-.22-10.38-.37-8.79-1.27-17.54-2.74-26.23-1.02-5.61-2.59-12.19-4.81-18.89-.96-2.94-2.06-5.9-3.29-8.81-5.88-13.9-14.83-26.6-27.91-30.08-6.42-1.4-13.68-.56-20.1,1.95-10.61,3.91-19.54,12.01-27.35,20.1,13.39,21.78,23.44,49.97,27.91,75.09.28,2.24-1.67,3.91-3.63,3.91-1.12,0-2.23-.84-2.51-2.51,0-.84-.28-1.4-.56-2.23l-.84-4.19c-8.65-34.34-30.14-100.21-72.57-100.21-37.13,0-49.13,58.34-52.76,86.81-3.07,21.49-3.91,44.1-.56,65.88,3.63,22.33,12.84,51.92,40.2,51.92,6.14-.28,12.28-3.07,16.74-7.54,22.06-19.82,32.11-66.71,32.94-95.47,0-2.23,1.68-3.07,3.35-3.07,1.4,0,3.07.84,3.07,3.07v11.17c1.12,28.47,10.33,89.33,47.46,89.33,17.74,0,29.48-15.33,36.86-33.62.5,1.18,1.05,2.34,1.66,3.47.66,1.25,1.38,2.46,2.15,3.64-7.9,17.19-20.2,31.8-38.72,32.93-13.4.83-25.4-6.42-33.49-16.47-12.85-16.75-16.75-36.57-20.1-56.67-5.59,25.96-21.22,75.65-52.76,75.65-34.06,0-44.94-42.43-46.9-69.23-1.95-22.61-.56-45.22,3.35-67.27,5.59-30.71,18.7-79.56,57.23-80.96,20.93,0,37.68,14.8,48.57,31.27,1.11-.84,1.67-1.68,2.23-2.23,10.89-10.61,24.01-20.38,39.64-21.5,9.77-.84,17.86,2.23,25.12,8.38,6.49,5.58,11.66,13.11,15.73,21.52,1.1,2.28,2.13,4.64,3.08,7.03,5.15,13.01,8.04,27.28,9.39,39.28.84,7.45,1.32,15.04,1.42,22.68.04,2.87.02,5.75-.05,8.62Z"/>
  <path d="M1396.26,159.79c-6.7,43.82-49.41,70.06-91.56,70.06-27.41,0-63.95-9.63-79.64-33.76-.77-1.18-1.49-2.39-2.15-3.64-.61-1.13-1.16-2.29-1.66-3.47-5.88-13.97-3.93-31.01,5.85-42.59,1.43-1.76,3.01-3.37,4.72-4.82,2.04-1.72,4.26-3.21,6.63-4.43,2.24-1.16,4.61-2.08,7.07-2.75-2.39-1.69-4.63-3.44-6.72-5.27.07-2.87.09-5.75.05-8.62,4.67,4.83,10.16,9,16.16,12.49,6.7-.28,13.96,1.68,19.82,4.19,12.84,5.58,21.22,17.03,23.73,30.42.28,2.24-1.67,3.91-3.35,3.91-1.39,0-2.51-.84-2.79-2.23-1.95-16.47-16.19-27.92-32.38-29.87-1.95,0-3.91-.28-5.86,0-5.59,0-10.61,1.68-15.08,5.03-.44.28-.88.57-1.31.87-2.71,1.9-5.1,4.26-7.09,6.93-2.44,3.28-4.27,7.01-5.27,10.9-1.49,5.37-1.62,10.69-.61,15.77.64,3.35,1.79,6.59,3.35,9.68,1.87,3.68,4.34,7.14,7.3,10.28,17.03,17.58,46.34,24.56,70.35,24.56,26.24,0,51.08-10.05,68.39-30.14,19.82-22.89,23.45-60.58,4.47-85.42-4.47-5.59-10.33-10.61-17.31-12.84-4.75-1.68-10.33-2.79-15.63-2.24-21.5,1.68-39.08,14.24-48.02,34.06,0,0,0,.28-.55.56-.84,1.39-2.24,1.39-3.35,1.11-1.12-.28-2.24-1.39-2.24-3.07,0-20.09-6.42-31.54-21.77-43.54-3.07-2.24,0-7.54,3.35-5.03,14.24,10.33,20.66,20.66,24.01,37.41l.83-.84c10.89-15.07,27.08-24.84,45.22-26.24,9.22-13.4,1.68-30.71-7.81-41.31-12-13.12-28.47-20.66-46.06-20.66-18.7-.28-39.08,4.75-52.2,19.26-3.74,4.28-6.8,9.01-9.11,14.04-.95-2.39-1.98-4.75-3.08-7.03,3.6-6.39,8.35-12.19,14.14-17.06,7.82-6.42,17.59-10.33,27.64-12.84,9.77-2.23,20.38-3.07,30.15-1.95,19.26,1.95,37.12,12.28,47.73,27.91,7.82,11.17,12.28,26.52,5.86,39.36,17.31.56,30.99,10.89,38.8,25.96,7.54,14.24,9.49,30.71,6.98,46.9Z"/>
  <path class="cls-1" d="M1232.57,122.98c-.01,6.11-.26,12.25-.73,18.38,0,.07,0,.14-.02.21-1.71,1.45-3.29,3.06-4.72,4.82-9.78,11.58-11.73,28.62-5.85,42.59-7.38,18.29-19.12,33.62-36.86,33.62-37.13,0-46.34-60.86-47.46-89.33v-11.17c0-2.23-1.67-3.07-3.07-3.07-1.67,0-3.35.84-3.35,3.07-.83,28.76-10.88,75.65-32.94,95.47-4.46,4.47-10.6,7.26-16.74,7.54-27.36,0-36.57-29.59-40.2-51.92-3.35-21.78-2.51-44.39.56-65.88,3.63-28.47,15.63-86.81,52.76-86.81,42.43,0,63.92,65.87,72.57,100.21l.84,4.19c.28.83.56,1.39.56,2.23.28,1.67,1.39,2.51,2.51,2.51,1.96,0,3.91-1.67,3.63-3.91-4.47-25.12-14.52-53.31-27.91-75.09,7.81-8.09,16.74-16.19,27.35-20.1,6.42-2.51,13.68-3.35,20.1-1.95,13.08,3.48,22.03,16.18,27.91,30.08,1.23,2.91,2.33,5.87,3.29,8.81,2.22,6.7,3.79,13.28,4.81,18.89,1.47,8.69,2.37,17.44,2.74,26.23.15,3.46.22,6.91.22,10.38Z"/>
  <path class="cls-1" d="M1374.21,193.29c-17.31,20.09-42.15,30.14-68.39,30.14-24.01,0-53.32-6.98-70.35-24.56-2.96-3.14-5.43-6.6-7.3-10.28-1.56-3.09-2.71-6.33-3.35-9.68-1.01-5.08-.88-10.4.61-15.77,1-3.89,2.83-7.62,5.27-10.9,1.99-2.67,4.38-5.03,7.09-6.93.43-.3.87-.59,1.31-.87,4.47-3.35,9.49-5.03,15.08-5.03,1.95-.28,3.91,0,5.86,0,16.19,1.95,30.43,13.4,32.38,29.87.28,1.39,1.4,2.23,2.79,2.23,1.68,0,3.63-1.67,3.35-3.91-2.51-13.39-10.89-24.84-23.73-30.42-5.86-2.51-13.12-4.47-19.82-4.19-6-3.49-11.49-7.66-16.16-12.49-.1-7.64-.58-15.23-1.42-22.68-1.35-12-4.24-26.27-9.39-39.28,2.31-5.03,5.37-9.76,9.11-14.04,13.12-14.51,33.5-19.54,52.2-19.26,17.59,0,34.06,7.54,46.06,20.66,9.49,10.6,17.03,27.91,7.81,41.31-18.14,1.4-34.33,11.17-45.22,26.24l-.83.84c-3.35-16.75-9.77-27.08-24.01-37.41-3.35-2.51-6.42,2.79-3.35,5.03,15.35,12,21.77,23.45,21.77,43.54,0,1.68,1.12,2.79,2.24,3.07,1.11.28,2.51.28,3.35-1.11.55-.28.55-.56.55-.56,8.94-19.82,26.52-32.38,48.02-34.06,5.3-.55,10.88.56,15.63,2.24,6.98,2.23,12.84,7.25,17.31,12.84,18.98,24.84,15.35,62.53-4.47,85.42Z"/>
  <path d="M984.04,68.2c-1.11.11-2.18.77-2.59,2.21-1.93,12.24-2.74,24.37-2.72,36.43-.12,1.69,1.68,2.92,3.35,2.77,1.67-.16,2.66-1.66,2.5-3.32.28-11.81.87-23.36,3.18-34.51.32-2.55-1.76-3.76-3.7-3.58ZM984.04,68.2c-1.11.11-2.18.77-2.59,2.21-1.93,12.24-2.74,24.37-2.72,36.43-.12,1.69,1.68,2.92,3.35,2.77,1.67-.16,2.66-1.66,2.5-3.32.28-11.81.87-23.36,3.18-34.51.32-2.55-1.76-3.76-3.7-3.58ZM1050.12,99.8c-6.39-26.03-27.26-95.27-64.22-91.77-42.79,4.06-71.29,64.24-84.62,101.11-5.54,12.59-9.66,31.2-11.78,44.3-2.67,16.23-3.79,34.01,1.91,49.73,4.66,16.66,19.59,26.18,36.53,27.37,18.63,1.32,30.06-17.14,37.38-31.58,5.67-11.2,9.92-22.53,13.26-34.63,2.46,14.07,9.05,27.46,21.27,35,7.53,5.45,17.01,7.92,26.13,6.49,21.9-2.64,28.32-23.72,30.46-42.42.2-6.75.38-13.78.33-20.22-.85-14.78-3.63-29.38-6.65-43.39ZM1049.58,167.98c-2.5,15.09-8.35,30.23-25.86,31.89-23.06,2.19-37.25-20.3-39.76-40.81-.73-4.7-.84-8.9-.73-13.67l-.13-1.39c6.64-.91,12.89-.1,18.72,2.15,3.79,1.6,6.34-3.97,2.86-5.31-6.44-2.75-13.55-3.77-20.49-3.11-9.45.9-18.88,4.87-26.19,10.62-3.12,2.54.43,7.52,3.84,4.96,4.16-3.48,9.78-6.25,15.23-7.89-3.76,19.42-19.91,73.95-43.54,78.99-7.45,1.27-16.35-.97-22.62-4.87-5.95-3.63-10.12-9.14-12.97-15.6-6.07-13.72-5.09-30.07-3.15-45.12.98-7.39,2.51-14.81,4.36-22,.54-3.13,1.39-6.02,2.24-8.91.17-1.13.87-2.6,1.04-3.73.43-1.45.45-1.17.88-2.61.23-.57.68-1.74.9-2.33,11.42-33.33,40.04-101.09,80.89-104.96,38.63-3.66,60.19,81.77,63.83,114.23,1.79,13.01,2.5,26.4.66,39.47ZM984.04,68.2c-1.11.11-2.18.77-2.59,2.21-1.93,12.24-2.74,24.37-2.72,36.43-.12,1.69,1.68,2.92,3.35,2.77,1.67-.16,2.66-1.66,2.5-3.32.28-11.81.87-23.36,3.18-34.51.32-2.55-1.76-3.76-3.7-3.58Z"/>
  <path class="cls-1" d="M1048.92,128.51c-3.64-32.46-25.2-117.9-63.83-114.23-40.86,3.87-69.48,71.64-80.89,104.96-.23.58-.68,1.75-.9,2.33-.43,1.45-.45,1.17-.88,2.61-.17,1.13-.87,2.6-1.04,3.73-.85,2.89-1.7,5.78-2.24,8.91-1.85,7.19-3.39,14.61-4.36,22-1.94,15.05-2.92,31.41,3.15,45.12,2.85,6.46,7.02,11.96,12.97,15.6,6.27,3.9,15.17,6.14,22.62,4.87,23.63-5.04,39.77-59.57,43.54-78.99-5.45,1.64-11.07,4.41-15.23,7.89-3.4,2.56-6.96-2.42-3.84-4.96,7.31-5.75,16.75-9.72,26.19-10.62,6.94-.66,14.05.36,20.49,3.11,3.48,1.35.93,6.91-2.86,5.31-5.83-2.25-12.07-3.06-18.72-2.15l.13,1.39c-.11,4.77,0,8.97.73,13.67,2.51,20.5,16.7,43,39.76,40.81,17.51-1.66,23.37-16.8,25.86-31.89,1.84-13.07,1.13-26.46-.66-39.47ZM987.75,71.78c-2.31,11.16-2.9,22.71-3.18,34.51.16,1.66-.83,3.16-2.5,3.32-1.66.16-3.47-1.08-3.35-2.77-.02-12.06.79-24.19,2.72-36.43.42-1.45,1.48-2.11,2.59-2.21,1.94-.18,4.02,1.02,3.7,3.58Z"/>
</svg>