<?xml version="1.0" encoding="UTF-8"?>
<svg id="Layer_1" data-name="Layer 1" xmlns="http://www.w3.org/2000/svg" viewBox="0 0 771.28 407">
  <defs>
    <style>
      .cls-1 {
        fill: #fff;
      }
    </style>
  </defs>
  <path class="cls-1" d="M736.38,364.42c-16.46,19.12-40.1,28.68-65.06,28.68-22.83,0-50.71-6.64-66.91-23.36-5.57-5.92-9.32-13-10.42-20.61-.64-4.34-.4-8.85.86-13.38,1.36-5.26,4.29-10.23,8.28-14.07,1.45-1.41,3.03-2.66,4.74-3.73,4.24-3.19,9.03-4.78,14.34-4.78,1.86-.27,3.72,0,5.57,0,15.4,1.85,28.95,12.75,30.8,28.42.27,1.32,1.33,2.12,2.66,2.12,1.59,0,3.44-1.59,3.19-3.72-2.4-12.75-10.36-23.63-22.57-28.94-5.57-2.4-12.48-4.25-18.85-3.99-5.96-3.45-11.38-7.63-15.94-12.46,1.01-13.38.68-26.96-.79-40.02-.69-6.17-1.82-12.99-3.47-19.89-.46-1.87-.94-3.76-1.47-5.64.3-.48.63-.94.95-1.41,1.15-1.64,2.4-3.23,3.73-4.76,6.52-7.21,14.92-11.96,23.99-14.81,3.41-1.07,6.91-1.87,10.44-2.44,5.08-.82,10.22-1.14,15.23-1.07,16.73,0,32.4,7.17,43.82,19.65,9.03,10.08,16.2,26.55,7.44,39.3-17.27,1.33-32.67,10.63-43.02,24.96l-.8.8c-3.19-15.93-9.29-25.76-22.84-35.59-3.19-2.39-6.11,2.65-3.19,4.79,14.61,11.42,20.72,22.3,20.72,41.42,0,1.6,1.06,2.65,2.12,2.92,1.07.27,2.39.27,3.19-1.06.53-.27.53-.53.53-.53,8.5-18.85,25.23-30.8,45.67-32.4,5.05-.53,10.36.53,14.87,2.13,6.64,2.12,12.21,6.9,16.47,12.21,18.06,23.63,14.6,59.48-4.25,81.25Z"/>
  <path class="cls-1" d="M134.64,320.61c-9.03,9.29-14.88,21.24-13.55,34.26.5,5.87,2.25,11.41,4.98,16.39-.07.11-.13.22-.2.33-7.96,12.75-20.71,20.98-35.31,22.31-20.98,2.12-41.16-6.91-55.77-21.24-5.57-5.31-9.03-10.09-12.21-17.27-5.32-11.68-5.05-25.49.79-36.64,3.99-7.43,10.09-12.75,18.59-12.75,3.99,0,8.24,1.07,11.96,2.65,13.27,5.85,22.83,17.8,33.46,27.63,2.39,2.12,4.51,4.24,6.91,6.11.52.27.79.52,1.06,1.06,2.39,1.33,5.57-1.85,3.99-3.98-18.59-25.23-41.16-67.46-46.47-99.32-1.6-6.64-1.86-14.08.27-20.72,3.19-10.09,11.68-14.34,20.98-14.34,7.96,0,16.2,3.19,21.51,8.76.73.8,1.46,1.59,2.16,2.39,1.8,3.15,3.93,5.76,6.48,7.75,19.27,24.67,26.03,49.51,30.93,81.74.52,4.34.93,8.77,1.16,13.23-.58.54-1.14,1.09-1.68,1.65Z"/>
  <path class="cls-1" d="M304.84,76.95c-.96,6.11-2.36,12.17-4.05,18.15v.02c-2.22,7.86-4.94,15.56-7.85,23-7.28,18.87-25.72,56.04-47.85,79.61-.62-.04-1.23-.06-1.84-.08-17.27-.27-35.06,1.86-52.06,5.84-1.58.39-3.23.83-4.95,1.32-4.11-8.16-5.77-18.46-6.71-26.95-1.59-16.73-.79-33.99.8-50.72.27-4.25,1.07-8.23,1.33-12.21,0-.27,0-.53.27-1.07.27-1.85-1.6-2.65-3.19-2.65-1.33,0-2.65.53-2.92,2.12v.53c-5.32,24.16-24.17,109.14-56.03,109.14-5.03,0-8.94-1.54-11.95-4.06-1.38-1.73-2.81-3.43-4.28-5.1-3.42-5.7-4.75-13.23-5.01-20.05-.53-7.43.26-15.14.79-22.83,5.32-39.56,24.96-92.94,55.23-121.09,7.97-7.71,18.33-14.6,30.01-13.81,14.07.27,22.04,14.88,26.02,26.83,6.37,19.64,3.72,41.15,4.25,61.61,0,1.85,1.6,3.19,3.19,3.19s2.92-1.6,2.92-3.19c8.23-17.27,14.34-36.12,21.78-53.91,4.25-8.76,8.5-17.26,13.55-25.76,5.31-8.76,14.6-22.56,26.28-22.56,16.2,0,22.84,20.44,23.64,33.46.27,7.08-.27,14.17-1.38,21.23Z"/>
  <path class="cls-1" d="M294.5,230.33c-2.92,6.64-9.03,10.62-15.4,13.54-7.17,3.45-14.87,5.58-23.1,7.97-19.92,5.84-40.1,10.88-60.55,14.87-3.45.53-2.65,5.04.27,5.84.53.53,1.33.8,2.65.53,10.63-3.45,23.11-6.64,35.06-6.64,8.76,0,17.26,1.85,24.7,6.37,3.99,2.12,7.44,5.57,8.5,10.09.8,3.98-1.06,8.23-3.99,11.15-6.63,7.71-16.99,10.89-25.49,14.35-10.89,3.71-23.64,7.96-32.93,15.14-2.65,2.12-.27,6.9,3.19,4.78,9.29-5.31,19.39-9.56,29.48-13.55,7.96-2.65,16.2-4.78,24.96-5.31,5.57-.27,10.88-.27,16.46.27,2.87.16,5.86.61,8.66,1.46-.51,4.65-.9,9.29-1.22,13.95-.49,9.94-.48,20.3,1.35,30.17-.71.77-1.44,1.52-2.15,2.24-23.1,22.56-62.67,36.91-94.53,36.91-19.85,0-46.52-5.62-57.68-23.65-1.24-1.99-2.28-4.13-3.11-6.43-.3-.84-.58-1.7-.82-2.59-3.45-11.68-1.33-23.63,6.37-32.92.45-.53.9-1.05,1.37-1.56,1.71-1.91,3.53-3.71,5.42-5.39,14.17-12.67,32.9-19.54,50.83-25.45,1.33-.52,2.92-.79,4.25-1.06h.52c3.45-1.07,2.66-5.84-.52-6.11-18.85-1.07-47.8-3.72-57.9-23.11-5.04-10.09-2.92-21.24,3.72-29.47,9.07-11.68,24.18-19.66,40.4-24.83,2.05-.66,4.13-1.27,6.21-1.83,13.24-3.61,26.8-5.46,38.1-6.01,3.82-.19,7.66-.31,11.5-.32,2.87-.02,5.75.03,8.62.12,9.1.33,18.26,1.29,27.41,3.12,5.32,1.07,11.43,2.92,15.93,6.91,4.79,4.25,5.84,10.63,3.45,16.47Z"/>
  <path class="cls-1" d="M601.44,287.67c-.11,2.78-.28,5.56-.49,8.33-.02.23-.03.46-.05.69-.43,5.98-1.42,13.54-3.13,21.58h0c-.47.5-.91,1.02-1.34,1.55-6.55,7.77-9.41,18.12-8.56,28.21-7.07,14.28-17.42,25.27-32.07,25.27-35.31,0-44.07-57.9-45.14-84.98v-10.63c0-2.12-1.6-2.92-2.92-2.92-1.6,0-3.19.8-3.19,2.92-.8,27.36-10.36,71.97-31.34,90.82-4.25,4.25-10.09,6.91-15.93,7.17-11.66,0-19.85-5.65-25.66-13.8-2.27-3.18-4.18-6.74-5.77-10.5-3.45-8.1-5.52-17.09-6.81-25.09-2.07-13.51-2.46-27.35-1.67-41.01t0-.02c.1-1.49.2-2.98.3-4.46.06-.72.11-1.45.18-2.16.06-.72.12-1.45.19-2.17.07-.71.14-1.44.22-2.15.21-2.05.44-4.09.7-6.12h0c.19-1.54.39-3.06.61-4.59,1.91-15,6.27-38.74,15.78-56.92,6.87-4.53,13.24-9.48,18.88-14.75,3.49-3.23,6.81-6.71,9.77-10.42,1.2-.22,2.44-.37,3.7-.45.68-.05,1.36-.07,2.05-.07,1.14,0,2.27.05,3.39.15,18.21,1.61,32.18,16.17,42.68,34.39,1.11,1.93,2.19,3.91,3.22,5.91,9.65,18.66,15.98,39.93,19.76,54.89l.8,3.98c.26.8.52,1.33.52,2.13.27,1.59,1.33,2.39,2.4,2.39,1.85,0,3.71-1.59,3.45-3.72-3.66-20.6-11.27-43.37-21.47-62.53,8.69-5.81,16.05-16.72,21.83-28.36,4.59-1.66,9.57-2.43,14.31-2.08,1.33.1,2.64.29,3.92.56.86.23,1.68.49,2.5.8,14.23,5.35,22.96,22.5,27.88,38.39.05.15.1.3.14.46.69,2.25,1.3,4.49,1.85,6.65.11.45.23.89.32,1.34.63,2.58,1.14,5.04,1.56,7.33,2.45,14.53,3.22,29.24,2.61,43.98Z"/>
  <path class="cls-1" d="M411.88,315.92c-1.38-15.86-1.01-31.72.77-47.37-4.2-13.23-10.37-29.19-18.55-41.74-1.07-1.63-2.16-3.2-3.29-4.7-7.43-9.9-16.33-16.75-26.73-16.75s-21.24,5.57-28.42,11.95c-3.13,2.55-6.06,5.38-8.82,8.47-1.46,1.63-2.85,3.32-4.2,5.08-16.07,20.85-25.1,50.31-28.97,76.77-.3,2.08-.58,4.15-.82,6.19-.64,5.38-1.06,10.61-1.27,15.55-.24,6.38-.16,13.08.65,19.65.31,2.64.75,5.27,1.32,7.85,1.21,5.39,3.04,10.57,5.74,15.25,5.57,9.56,13.8,14.34,24.7,14.34,20.18,0,26.02-20.44,28.42-37.18,1.06-7.96,1.32-16.46,1.06-24.43-5.84,1.07-11.15,2.92-15.67,6.37-3.19,2.12-6.37-2.92-3.19-5.31,6.11-4.25,13.55-6.37,20.99-7.17,7.96-.8,15.93.27,23.1,3.99,3.19,1.59.27,6.91-3.19,5.04-4.78-2.65-10.09-3.45-15.67-3.45.8,3.99,1.33,7.71,1.86,11.16,1.85,9.29,3.71,18.32,6.37,27.08,4.78,17,12.75,34.52,33.46,34.52,16.99,0,21.51-14.34,23.36-28.95.22-1.68.39-3.36.52-5.04h0c-8.77-13.92-12.49-32.89-13.53-47.18ZM374.44,280.51c-10.36-.79-20.99,0-31.6,1.07-1.6.27-2.92-1.32-2.92-2.92,0-1.86,1.32-2.65,2.92-2.92,10.62-1.33,21.24-2.12,31.6-1.59,3.98.26,3.98,6.36,0,6.36Z"/>
  <path class="cls-1" d="M468.15,163.7h0c-.98,2.44-2.2,4.82-3.58,7.13-1.08,1.82-2.27,3.59-3.51,5.28-1.85,2.51-3.81,4.86-5.76,6.99-1.13,1.21-2.31,2.41-3.52,3.59-2.64,1.83-5.09,4.04-7.33,6.56-4.43,3.66-9.21,7.12-14.22,10.31-10.46,6.7-21.98,12.32-33.58,16.55-8.18-11.25-19.03-20.32-33.1-20.32-16.71,0-31.16,9.9-42.76,23.89-10.16-4.17-18.37-11.2-21.48-22.31-3.44-11.38-1.32-23.52,6.37-33.5,14.58-18.57,36.61-28.79,57.56-37.58,1.33-.65,2.92-1.06,4.24-1.44l.53-.05c3.45-1.38,2.65-6.09-.53-6.06-18.84.63-47.75.57-57.83-17.9-1.62-3.08-2.49-6.35-2.72-9.65v-.02c1.35-5.03,2.49-10.11,3.37-15.26t0,0c.87-1.69,1.89-3.32,3.06-4.88,17.51-24.14,57.57-36.51,84.64-40.27,15.65-2.21,31.56-3.11,47.48-1.35,5.31.58,11.42,1.89,15.92,5.47.47.37.89.76,1.28,1.18,1.68,1.78,2.73,3.92,3.16,6.26.51,2.75.17,5.76-1,8.71-.52,1.24-1.15,2.4-1.86,3.49-1.59,2.45-3.61,4.57-5.89,6.41-2.36,1.92-4.97,3.57-7.63,5.02-7.16,4.1-14.86,6.92-23.08,10.05-19.9,7.63-40.07,14.49-60.49,20.31-3.44.84-2.65,5.28.27,5.82.53.48,1.32.68,2.65.29,10.61-4.4,23.08-8.71,35.02-9.79,8.75-.78,17.25.31,24.68,4.16,3.98,1.77,7.43,4.91,8.49,9.33.8,3.91-1.06,8.32-3.98,11.51-6.63,8.3-16.98,12.41-25.47,16.63-10.88,4.69-23.61,10.08-32.91,18.09-2.64,2.36-.26,6.93,3.19,4.49,9.28-6.15,19.37-11.3,29.45-16.19,7.95-3.37,16.18-6.23,24.93-7.55,5.57-.76,10.87-1.24,16.45-1.21,3.36-.11,6.84.15,10.02,1.01,1.95.52,3.78,1.27,5.39,2.29,3.27,2.05,5.66,5.21,6.35,9.87.64,4.83-.34,9.82-2.27,14.63Z"/>
  <path class="cls-1" d="M662.32,134.32c-4.72,17.52-13.83,45.71-27.3,66.6-.29.06-.58.12-.88.19-9.56,2.39-18.85,6.11-26.28,12.21-3.22,2.72-6.12,5.74-8.65,9-4.31-12.6-10.67-24.45-19.77-32.28-4.16-3.51-8.6-5.97-13.5-7.19-1.69-11.61-2.05-23.02-2.05-30.9,0-5.89,0-11.48.27-17.36v-.88c.27-2.05-1.33-3.25-2.92-3.27-1.32,0-2.64.56-3.17,2.31v.88c-2.47,13.13-7.76,34.11-15.89,51.67-1.47,3.19-3.04,6.27-4.7,9.16h0c-4.62,8.08-9.99,14.74-16.08,18.52-.65-1.11-1.3-2.21-1.97-3.29l-3.72-5.04c-10.07-15.25-25.44-29-44.63-29.72-.27-.88-.53-1.76-.78-2.65,3.19-5.65,5.41-11.74,6.22-18.19.8-6.18-.27-11.66-4.24-16.09-2.53-2.8-5.61-4.65-9-5.88-.12-1.17-.25-2.32-.36-3.46-2.06-19.66-3.16-39.99-1.25-60.04,1.44-1.25,2.78-2.61,3.98-4.11,4.78-5.75,7.7-13.44,6.36-20.22-.6-2.49-1.59-4.61-2.88-6.43,2.88-5.98,6.79-11.08,12.12-14.16.68-.33,1.59-.69,2.73-.8,2.06-.74,4.14-1.21,6.22-1.41,10.76-1.03,21.99,4.92,27.09,16.03,3.42,7.37,5.39,15.45,7.12,23.57,4.22,20.01,6.72,40.19,8.97,60.76.26,1.72,1.27,3.16,2.52,3.45,1.77,0,3.55-1.43,3.55-3.43,2.29-15.87,8.46-57.14,28.44-58.14,14.37-.72,19.89,20.96,21.56,33.25,1.4,6.31,1.67,12.94,1.95,19.57v8.14c0,.91-.28,1.51-.28,2.11,0,1.81-.28,3.32-.28,4.82-.29,2.11,1.67,3.34,3.07,3.36,1.41.02,2.82-.87,3.09-2.38v-1.22c.29-1.82.57-3.63.57-5.15,3.4-28.58,17.48-89.21,40.63-111.28,4.57-4.19,9.47-5.58,15.65-4.89,13.84,1.31,18.3,17.07,20.23,29.22,4.52,31.54-3.21,65.1-11.78,95.02Z"/>
</svg>