<?xml version="1.0" encoding="UTF-8"?>
<svg id="Layer_1" data-name="Layer 1" xmlns="http://www.w3.org/2000/svg" viewBox="0 0 1414.05 240.55">
  <defs>
    <style>
      .cls-1 {
        fill: #fff;
      }
    </style>
  </defs>
  <path class="cls-1" d="M409.08,173.09c-.35.58-.72,1.16-1.08,1.73-.02.02-.03.04-.05.07-.39.59-.79,1.18-1.2,1.75-.46.65-.93,1.29-1.41,1.92-.38.49-.76.97-1.14,1.44-.44.55-.88,1.08-1.33,1.6-.38.44-.75.87-1.13,1.29-.98,1.1-1.98,2.15-2.97,3.14-24.29,23.72-65.88,38.8-99.38,38.8-24,0-57.5-7.82-64.76-34.34-3.63-12.28-1.39-24.84,6.7-34.61,15.35-18.14,38.52-26.8,60.58-34.06,1.39-.55,3.07-.83,4.46-1.11h.56c3.63-1.12,2.79-6.14-.56-6.42-19.82-1.12-50.24-3.91-60.85-24.29-.31-.62-.6-1.25-.85-1.88-.11-.24-.21-.49-.3-.74-.1-.25-.19-.5-.28-.76,0-.04-.03-.08-.04-.12-.57-1.66-.97-3.34-1.2-5.02-.04-.23-.07-.46-.09-.68-.04-.33-.07-.66-.1-.99-.02-.29-.04-.59-.05-.88-.02-.41-.03-.81-.03-1.22s0-.84.03-1.26c.02-.41.05-.82.09-1.22.02-.31.06-.63.1-.94.02-.22.05-.44.09-.66.03-.23.07-.46.11-.68.04-.26.09-.52.15-.78.07-.37.15-.73.24-1.09.09-.36.18-.72.29-1.08.1-.36.21-.71.32-1.07.47-1.41,1.04-2.8,1.72-4.14.16-.32.33-.64.49-.95.01-.03.03-.06.05-.09.18-.32.36-.64.55-.95.37-.65.78-1.29,1.23-1.91h0c.44-.64.9-1.26,1.39-1.87,18.42-23.73,60.57-32.94,89.04-34.34,16.47-.84,33.22-.28,49.97,3.07,5.58,1.12,12,3.07,16.75,7.26.22.2.43.4.64.6.18.18.35.36.52.55.17.19.34.38.49.57.37.44.7.89.99,1.36.13.2.25.4.37.6.11.18.21.37.31.56.03.06.06.11.09.17-2.76,5.58-4.75,11.81-6.2,18.2-.26,1.2-.5,2.39-.72,3.6-.02.02-.04.04-.06.05-.28.22-.56.43-.85.64-.11.09-.22.16-.33.23-.29.21-.58.42-.88.61-.36.25-.73.48-1.1.71-.37.23-.74.45-1.11.67-1.53.89-3.12,1.69-4.72,2.42-7.54,3.63-15.64,5.87-24.29,8.38-20.93,6.14-42.15,11.44-63.64,15.63-3.63.56-2.79,5.3.28,6.14.55.56,1.39.84,2.79.56,11.16-3.63,24.28-6.98,36.84-6.98,9.22,0,18.15,1.96,25.96,6.7,4.19,2.23,7.82,5.86,8.94,10.61.83,4.19-1.12,8.65-4.19,11.72-6.98,8.1-17.87,11.45-26.8,15.08-11.44,3.9-24.84,8.37-34.61,15.91-2.79,2.23-.28,7.26,3.35,5.02,9.77-5.58,20.38-10.05,30.98-14.23,8.38-2.8,17.03-5.03,26.24-5.59,5.86-.28,11.45-.28,17.31.28.37.02.74.05,1.11.08.26.02.52.04.79.07.72.07,1.45.16,2.17.27.38.05.76.12,1.13.19.49.08.99.18,1.48.29.43.1.87.2,1.3.32h.02c.43.11.86.24,1.28.37.42.13.83.26,1.23.41.01,0,.03.01.04.01,1.36,11.61,3.34,23.72,6.74,35.3Z"/>
  <path class="cls-1" d="M241.9,57.81c-1.36,2.08-2.49,4.25-3.36,6.51-2.51,6.14-2.79,12.84-1.95,19.26.25,1.23.56,2.42.91,3.57-2.52,9.96-5.9,19.73-9.57,29.09-11.72,30.43-51.08,106.08-89.61,106.08-22.61,0-27.63-25.41-29.58-43.27-1.68-17.59-.84-35.73.83-53.32.28-4.46,1.12-8.65,1.4-12.84,0-.28,0-.56.28-1.11.28-1.96-1.68-2.8-3.35-2.8-1.4,0-2.79.56-3.07,2.24v.56c-5.59,25.4-25.4,114.72-58.9,114.72-17.03,0-21.78-16.75-22.33-30.7-.56-7.82.28-15.91.83-24.01,5.59-41.59,26.24-97.7,58.07-127.29,8.37-8.09,19.26-15.35,31.54-14.51,14.79.28,23.17,15.63,27.35,28.19,6.7,20.66,3.91,43.27,4.47,64.76,0,1.96,1.68,3.35,3.35,3.35s3.07-1.67,3.07-3.35c8.65-18.14,15.08-37.96,22.89-56.67,4.47-9.21,8.93-18.14,14.24-27.07,5.58-9.21,15.35-23.73,27.63-23.73,17.03,0,24.01,21.49,24.85,35.17.09,2.39.09,4.78.01,7.17Z"/>
  <path class="cls-1" d="M631.33,71.37c0,1.25-.02,2.49-.05,3.74-.06,2.14-.16,4.28-.32,6.41-.03.55-.07,1.09-.12,1.63-.03.44-.07.88-.11,1.32-.05.62-.11,1.24-.18,1.87-.12,1.24-.26,2.48-.41,3.72-.17,1.39-.36,2.79-.56,4.18-.11.8-.23,1.59-.36,2.39-.91,5.89-2.09,11.75-3.43,17.54-.14.61-.28,1.22-.43,1.83-.14.61-.29,1.22-.44,1.82-.41,1.67-.83,3.34-1.26,5-.66,2.55-1.34,5.08-2.04,7.59-1.16.73-2.3,1.6-3.39,2.58-9.77,8.93-13.96,23.73-12.84,36.57.19,1.9.48,3.77.89,5.62-.36.79-.72,1.59-1.08,2.38-.37.79-.74,1.59-1.12,2.38-.4.82-.8,1.65-1.21,2.47-.32.64-.64,1.28-.97,1.91-.33.65-.67,1.31-1.02,1.96-.31.58-.62,1.16-.94,1.74-.33.61-.67,1.21-1.01,1.81-.29.52-.59,1.04-.89,1.56-.35.59-.7,1.18-1.05,1.77-.32.54-.65,1.07-.98,1.59-.17.28-.34.56-.52.83-.37.59-.75,1.17-1.13,1.75-.15.23-.3.46-.46.69-.3.45-.6.89-.91,1.33-.46.67-.93,1.33-1.4,1.98-.34.46-.67.91-1.01,1.36-.38.5-.76,1-1.15,1.49-.58.73-1.16,1.45-1.76,2.16-.32.38-.64.75-.97,1.12-.21.25-.42.49-.64.73-.2.22-.4.44-.6.66-.07.07-.14.15-.21.23-.36.38-.71.76-1.08,1.13-.54.56-1.1,1.12-1.66,1.65-.34.33-.69.66-1.04.98-.49.44-.98.87-1.47,1.29-.28.24-.56.47-.84.7-.38.31-.75.61-1.13.9-.57.44-1.15.86-1.73,1.27-.19.14-.39.27-.58.4-.2.14-.4.27-.6.4-.32.21-.64.42-.97.61-.32.2-.64.4-.97.59-.33.19-.66.37-.99.55-.62.35-1.25.66-1.88.96-.28.13-.55.26-.83.38-.32.14-.64.28-.96.41-.34.14-.67.27-1.01.4-.96.35-1.93.67-2.92.93-.29.08-.59.16-.89.23-.03.01-.06.01-.09.02-.3.07-.6.14-.9.2-.36.07-.73.14-1.09.2-.34.06-.67.11-1.01.15-.02.01-.04.01-.06.01-.32.04-.64.08-.96.11-.37.04-.75.07-1.12.09-.08.01-.15.02-.23.02-.08.01-.16.01-.24.01-.16,0-.31.02-.47.02-.34.01-.69.02-1.04.02-28.48,0-31.55-48.01-31.55-69.23,0-5.58,0-10.88.28-16.47v-.83c.28-1.96-1.39-3.07-3.07-3.07-1.39,0-2.79.56-3.35,2.23v.84c-5.02,24-21.21,76.48-49.69,82.62-12.28,2.8-25.68-3.07-34.05-11.44-.57-.57-1.13-1.16-1.69-1.76h0c-.55-.61-1.09-1.22-1.61-1.85-.53-.62-1.04-1.26-1.54-1.91-.51-.65-1-1.31-1.47-1.98-.43-.6-.85-1.21-1.27-1.83-.07-.1-.14-.21-.21-.32-.43-.65-.85-1.32-1.26-1.99-.4-.65-.79-1.31-1.16-1.98-.35-.61-.7-1.24-1.03-1.87-.34-.62-.66-1.26-.98-1.9-.22-.42-.43-.84-.63-1.26-.29-.58-.56-1.17-.83-1.76-.1-.22-.2-.43-.29-.65-.17-.36-.33-.72-.48-1.09-.17-.39-.34-.77-.5-1.16-.58-1.38-1.13-2.77-1.65-4.18-.3-.81-.59-1.62-.87-2.43-.12-.34-.24-.68-.35-1.03-.19-.56-.38-1.12-.56-1.69-.24-.74-.47-1.47-.69-2.21-.03-.09-.06-.19-.09-.29-.45-1.5-.88-3.02-1.28-4.54-.15-.55-.29-1.11-.43-1.66-.28-1.07-.54-2.14-.79-3.21-.01-.06-.03-.12-.04-.18-.2-.87-.4-1.73-.59-2.6-.09-.41-.18-.82-.26-1.23-.26-1.21-.51-2.42-.74-3.63-.16-.81-.31-1.62-.46-2.43-.15-.81-.29-1.61-.43-2.42-.1-.59-.2-1.18-.3-1.76-.44-2.62-.83-5.21-1.19-7.75-.39-2.74-.74-5.43-1.07-8.04-.02-.17-.04-.33-.06-.5-2.79-21.77-4.19-44.38-1.12-66.44.05-.36.11-.73.17-1.1.05-.37.11-.74.18-1.12.05-.26.09-.52.13-.78.04-.26.09-.52.14-.78.09-.52.19-1.04.29-1.57.1-.52.21-1.05.33-1.59.09-.42.18-.84.27-1.26.01-.07.03-.15.05-.22.11-.44.21-.88.32-1.33.15-.66.32-1.33.51-2,.14-.53.29-1.07.45-1.61.3-1.07.64-2.14,1-3.2.04-.13.08-.26.13-.39.04-.13.09-.26.14-.39.21-.6.43-1.2.66-1.8.17-.45.35-.9.54-1.34.16-.41.33-.81.51-1.21-.01-.01.01-.02.01-.02.03-.1.07-.19.12-.28.17-.42.36-.82.56-1.22.18-.39.37-.78.56-1.16.14-.3.29-.59.45-.87.08-.16.16-.32.25-.48.27-.51.54-1,.83-1.49.04-.06.07-.12.11-.18.19-.33.39-.65.59-.97.45-.73.93-1.44,1.43-2.13.12-.17.24-.34.37-.51.25-.34.5-.67.76-1,.25-.31.51-.62.78-.93.1-.13.21-.26.33-.39.28-.33.57-.65.87-.96.36-.38.73-.75,1.11-1.11.37-.36.74-.7,1.13-1.04.36-.31.72-.61,1.09-.9.07-.06.14-.11.21-.16.26-.2.52-.4.79-.59.05-.04.1-.08.16-.12.12-.08.26-.17.39-.26.01-.02.03-.03.05-.04.27-.19.55-.37.83-.54.1-.07.19-.13.3-.19.29-.18.58-.35.88-.52.02-.01.04-.03.06-.03.18-.11.36-.21.54-.3.38-.21.77-.4,1.17-.59.48-.23.96-.44,1.46-.64.84-.28,1.96-.56,3.35-.56,2.51-.56,5.03-.84,7.54-.84,12.84,0,25.96,6.98,31.82,18.43,3.91,7.53,6.14,15.63,8.1,23.72,4.74,19.82,7.53,39.64,10.04,59.74.28,1.68,1.4,3.07,2.8,3.35,1.95,0,3.9-1.39,3.9-3.35,2.52-15.35,9.22-54.99,30.43-54.99,14.8,0,20.38,20.38,22.05,31.82,1.4,5.86,1.68,12.01,1.96,18.15v7.53c0,.84-.28,1.4-.28,1.96,0,1.67-.28,3.07-.28,4.46-.28,1.96,1.67,3.07,3.07,3.07s2.79-.83,3.07-2.23v-1.11c.28-1.68.56-3.35.56-4.75,3.35-26.24,17.03-80.95,38.8-99.1,4.19-3.35,8.65-4.18,14.24-3.07,12.28,2.24,16.19,16.19,17.86,26.8.79,5.56,1.15,11.18,1.15,16.82Z"/>
  <path d="M627.48,133.72s.02-.01.03-.01h0s-.02,0-.03.01ZM618.37,141.82h.01c.05-.19.11-.37.15-.54-.05.18-.11.36-.16.54ZM407.48,64.61c-.06.38-.12.75-.17,1.12.05-.37.11-.74.18-1.12h-.01ZM407.48,64.61c-.06.38-.12.75-.17,1.12.05-.37.11-.74.18-1.12h-.01ZM407.48,64.61c-.06.38-.12.75-.17,1.12.05-.37.11-.74.18-1.12h-.01ZM611.04,163.66c.17-.44.34-.88.51-1.33v-.02c-.17.45-.34.9-.51,1.35ZM407.48,64.61c-.06.38-.12.75-.17,1.12.05-.37.11-.74.18-1.12h-.01ZM407.48,64.61c-.06.38-.12.75-.17,1.12.05-.37.11-.74.18-1.12h-.01ZM407.48,64.61c-.06.38-.12.75-.17,1.12.05-.37.11-.74.18-1.12h-.01ZM407.48,64.61c-.06.38-.12.75-.17,1.12.05-.37.11-.74.18-1.12h-.01Z"/>
  <path class="cls-1" d="M407.49,64.61c-.07.38-.13.75-.18,1.12.05-.37.11-.74.17-1.12h.01Z"/>
  <path class="cls-1" d="M611.04,163.66c.17-.45.34-.9.51-1.35v.02c-.17.45-.34.89-.51,1.33Z"/>
  <path class="cls-1" d="M611.55,162.31c.01-.14.02-.28.03-.42-.01.13-.02.26-.02.4-.01,0-.01.02-.01.02Z"/>
  <path class="cls-1" d="M618.53,141.28c-.04.17-.1.35-.15.53h-.01c.05-.17.11-.35.16-.53Z"/>
  <path d="M611.04,163.66c.17-.44.34-.88.51-1.33v-.02c-.17.45-.34.9-.51,1.35ZM618.37,141.82h.01c.05-.19.11-.37.15-.54-.05.18-.11.36-.16.54Z"/>
  <path class="cls-1" d="M733.24,147.23c-9.49,9.77-15.63,22.33-14.24,36.01.53,6.17,2.37,11.99,5.23,17.23-.06.12-.13.23-.2.35-8.38,13.4-21.78,22.06-37.13,23.45-22.05,2.23-43.27-7.26-58.62-22.33-5.86-5.58-9.49-10.61-12.84-18.15-.29-.63-.56-1.27-.81-1.91-.09-.22-.18-.44-.26-.66-.16-.42-.31-.84-.46-1.27-.1-.3-.2-.59-.3-.89-.32-1.01-.61-2.03-.87-3.06h0c-.17-.71-.32-1.42-.46-2.12-.07-.35-.13-.7-.19-1.05-.07-.42-.14-.84-.2-1.26-.04-.34-.08-.67-.12-1.01-.05-.45-.1-.89-.14-1.33-.04-.44-.07-.88-.1-1.32-.02-.28-.03-.57-.04-.86-.07-1.58-.05-3.16.06-4.72v-.02s0-.02.01-.02c0-.14.01-.27.02-.4,0-.05,0-.1,0-.15.04-.48.09-.95.14-1.41.01-.13.03-.26.04-.39.07-.59.15-1.17.25-1.75.04-.29.1-.58.15-.87s.1-.57.16-.86c.05-.25.1-.49.16-.73.09-.39.18-.79.28-1.18.13-.56.28-1.11.44-1.66.01-.03.01-.05.03-.08.05-.21.12-.41.19-.62.12-.39.25-.78.38-1.17.2-.61.42-1.21.67-1.8.08-.21.16-.42.25-.62.02-.06.04-.12.07-.17.11-.28.23-.55.35-.82.03-.08.07-.16.11-.24.14-.32.28-.63.44-.94.18-.39.38-.78.58-1.16.16-.3.33-.6.5-.89.16-.3.33-.59.51-.87.17-.29.35-.57.53-.85.18-.28.36-.55.55-.82h0v-.02h.01c.78-1.12,1.6-2.16,2.48-3.12.18-.19.36-.38.54-.56.28-.29.56-.57.85-.83.15-.14.3-.28.45-.41.21-.19.43-.37.65-.55.24-.2.48-.38.72-.56.13-.1.27-.2.41-.3.34-.24.68-.47,1.03-.69.16-.1.32-.2.48-.29.16-.1.33-.19.49-.28.33-.18.66-.35,1-.51.01-.01.02-.01.03-.01h0c.22-.11.44-.21.66-.3.29-.13.59-.25.9-.36.31-.12.62-.22.93-.31.14-.05.29-.09.44-.13.47-.14.95-.26,1.44-.35.17-.04.35-.07.52-.1.09-.02.18-.03.27-.04.3-.05.6-.09.91-.13.28-.03.56-.05.84-.07.19-.02.38-.03.57-.03.27-.01.55-.02.83-.02,4.18,0,8.65,1.12,12.56,2.8,13.95,6.14,24,18.7,35.17,29.03,2.51,2.23,4.75,4.46,7.26,6.42.56.28.83.55,1.11,1.11,2.52,1.4,5.87-1.95,4.19-4.18-19.54-26.52-43.27-70.91-48.85-104.4-1.67-6.98-1.95-14.8.28-21.78,3.35-10.6,12.28-15.07,22.05-15.07,8.38,0,17.03,3.35,22.61,9.21,27.36,29.59,35.73,58.06,41.6,96.58.3,2.51.57,5.05.78,7.61.03.31.06.61.08.92.08.94.15,1.88.21,2.82.05.82.1,1.63.14,2.45,0,.04,0,.07,0,.11-.61.56-1.21,1.14-1.78,1.73Z"/>
  <path class="cls-1" d="M901.28,52.32c-3.07,6.98-9.49,11.16-16.19,14.23-7.53,3.63-15.63,5.87-24.28,8.38-20.94,6.14-42.15,11.44-63.65,15.63-3.63.56-2.79,5.3.28,6.14.56.56,1.4.84,2.79.56,11.17-3.63,24.29-6.98,36.85-6.98,9.21,0,18.14,1.96,25.96,6.7,4.19,2.23,7.82,5.86,8.93,10.61.84,4.19-1.11,8.65-4.18,11.72-6.98,8.1-17.87,11.45-26.8,15.08-11.45,3.9-24.85,8.37-34.62,15.91-2.79,2.23-.27,7.26,3.35,5.02,9.77-5.58,20.38-10.05,30.99-14.23,8.37-2.8,17.03-5.03,26.24-5.59,5.86-.28,11.44-.28,17.31.28.44.03.88.06,1.33.1.5.04,1.01.09,1.51.15.57.07,1.13.15,1.69.24.24.04.49.08.73.13.36.06.71.13,1.07.21.7.15,1.39.32,2.08.51-1.31,5.8-2.38,11.44-3.17,16.32-1.89,11.51-3.01,23.79-1.46,35.56h0c-.11.11-.22.21-.34.31-.8.71-1.63,1.42-2.47,2.12-.51.43-1.03.85-1.56,1.27-.76.61-1.53,1.21-2.31,1.81-.05.04-.1.07-.15.11-.41.32-.83.63-1.26.94-.42.32-.84.62-1.27.93-.91.65-1.83,1.3-2.77,1.93-3.73,2.53-7.66,4.91-11.74,7.12-1.02.55-2.05,1.1-3.09,1.63-1.03.53-2.08,1.05-3.13,1.56-.53.26-1.06.51-1.59.76-1.06.5-2.12.99-3.2,1.47-.67.29-1.34.59-2.02.88-.67.29-1.35.57-2.03.85-.81.34-1.64.67-2.46,1-.82.32-1.65.64-2.48.95-.27.11-.55.21-.83.31-1.1.41-2.21.8-3.32,1.19-1.59.55-3.19,1.08-4.8,1.58-.16.05-.32.1-.48.15-1.16.36-2.32.71-3.48,1.04-.75.22-1.51.43-2.26.63-2.39.65-4.79,1.25-7.19,1.78-.54.12-1.08.24-1.62.35-.7.15-1.39.29-2.09.43-.74.15-1.49.29-2.24.43-.74.14-1.49.27-2.23.39-.37.07-.74.13-1.11.18-.74.12-1.48.23-2.21.34-.46.07-.91.13-1.37.19-1.06.15-2.12.28-3.17.39-.53.06-1.05.12-1.58.17-.52.06-1.05.11-1.57.15-.56.05-1.13.1-1.69.14-.57.04-1.13.08-1.69.11-.34.03-.67.05-1.01.06-.49.03-.99.06-1.48.07-.23.02-.47.02-.7.03-.56.02-1.12.04-1.68.05-.84.02-1.68.03-2.51.03-.65,0-1.31-.01-1.98-.02-.39-.01-.79-.02-1.19-.03-.31,0-.62-.01-.94-.03-.26-.01-.52-.02-.78-.03-.69-.03-1.38-.06-2.08-.11-.68-.04-1.36-.08-2.04-.14-.17-.01-.35-.03-.52-.04-.75-.06-1.52-.14-2.28-.22-.82-.08-1.64-.17-2.46-.28-.78-.1-1.56-.2-2.35-.32-.04-.01-.08-.01-.12-.02-.83-.12-1.66-.25-2.48-.4-.83-.14-1.66-.29-2.49-.46-.66-.13-1.31-.26-1.96-.41-.44-.09-.88-.19-1.32-.3-.63-.15-1.27-.3-1.9-.46-.63-.16-1.27-.33-1.9-.51-.25-.07-.49-.14-.73-.21-.07-.02-.15-.04-.22-.06-.46-.13-.91-.27-1.36-.41-.09-.03-.19-.06-.28-.09-.17-.05-.34-.11-.5-.16-.09-.02-.18-.05-.27-.09-.42-.13-.84-.26-1.26-.41-.07-.02-.15-.05-.22-.08-.18-.06-.36-.12-.54-.19-.76-.26-1.52-.54-2.26-.83-.71-.28-1.42-.56-2.11-.86-.35-.15-.69-.3-1.03-.45-.24-.11-.49-.22-.73-.33-.64-.3-1.28-.61-1.91-.92-.63-.32-1.25-.65-1.86-.98-.17-.09-.34-.19-.51-.28-.49-.27-.97-.55-1.44-.83-.16-.09-.31-.19-.46-.28-.5-.3-1-.62-1.49-.95-.45-.29-.89-.59-1.32-.9-.29-.2-.57-.41-.85-.61-.25-.18-.49-.37-.73-.55-.39-.29-.77-.59-1.14-.9-.41-.33-.81-.67-1.2-1.01-.23-.2-.45-.4-.67-.61-.21-.19-.42-.39-.62-.58-.16-.15-.32-.3-.48-.46-.22-.22-.44-.44-.65-.66-.1-.09-.19-.19-.28-.29-.38-.4-.75-.81-1.11-1.22-.19-.22-.38-.44-.57-.67-.33-.39-.65-.8-.97-1.21-.16-.2-.32-.41-.47-.62-.16-.2-.31-.41-.45-.63-.2-.29-.4-.57-.59-.86s-.38-.58-.56-.88c-1.3-2.09-2.4-4.34-3.27-6.76,0-.01,0-.03-.02-.05-.15-.43-.3-.86-.43-1.3-.15-.45-.28-.91-.41-1.38-3.63-12.28-1.4-24.84,6.7-34.61.4-.48.81-.95,1.23-1.41.07-.08.14-.16.21-.23h0s.02-.03.02-.03c.45-.5.9-.98,1.36-1.46.46-.49.93-.97,1.42-1.44.22-.22.44-.44.67-.66.02-.03.03-.04.05-.05.28-.28.57-.56.86-.82.14-.14.28-.27.43-.4.29-.27.59-.55.89-.8.01-.03.03-.04.04-.03.45-.41.91-.81,1.37-1.2.05-.06.11-.1.16-.14.23-.2.46-.4.69-.59.2-.16.39-.32.59-.47.48-.39.97-.78,1.46-1.16.98-.77,1.98-1.51,3-2.23.51-.36,1.02-.71,1.54-1.07.51-.34,1.03-.69,1.56-1.03.46-.3.92-.6,1.39-.89.19-.13.37-.24.56-.35.5-.32,1-.62,1.51-.92.44-.26.88-.52,1.33-.78,2.17-1.25,4.38-2.43,6.63-3.55.54-.27,1.09-.54,1.63-.8.73-.35,1.46-.69,2.19-1.03.43-.2.86-.4,1.3-.59.61-.28,1.23-.55,1.85-.82,1.07-.47,2.14-.92,3.21-1.36.4-.17.8-.33,1.2-.49.12-.05.24-.1.36-.14.39-.17.79-.33,1.19-.48.31-.12.61-.24.92-.36,1.07-.42,2.14-.83,3.21-1.23l.33-.12c1.18-.44,2.37-.87,3.55-1.29.09-.04.18-.07.27-.1,1.1-.39,2.2-.78,3.29-1.15,1.19-.41,2.38-.82,3.56-1.21,1.18-.4,2.36-.79,3.54-1.18,1.4-.55,3.07-.83,4.47-1.11h.56c3.62-1.12,2.79-6.14-.56-6.42-19.82-1.12-50.25-3.91-60.86-24.29-5.3-10.61-3.07-22.33,3.91-30.98,18.43-23.73,60.58-32.94,89.05-34.34,16.47-.84,33.22-.28,49.97,3.07,5.58,1.12,12,3.07,16.74,7.26,5.03,4.47,6.15,11.17,3.63,17.31Z"/>
  <path class="cls-1" d="M1232.57,122.98c-.01,6.11-.26,12.25-.73,18.38,0,.07,0,.14-.02.21-1.71,1.45-3.29,3.06-4.72,4.82-9.78,11.58-11.73,28.62-5.85,42.59-7.38,18.29-19.12,33.62-36.86,33.62-37.13,0-46.34-60.86-47.46-89.33v-11.17c0-2.23-1.67-3.07-3.07-3.07-1.67,0-3.35.84-3.35,3.07-.83,28.76-10.88,75.65-32.94,95.47-4.46,4.47-10.6,7.26-16.74,7.54-.48,0-.96-.01-1.43-.03h-.05c-.35-.01-.69-.03-1.03-.06-.41-.02-.82-.06-1.22-.1-.69-.07-1.37-.17-2.03-.28-.15-.02-.31-.05-.46-.08-.6-.11-1.2-.24-1.78-.38-.21-.05-.41-.1-.61-.16-.09-.02-.17-.04-.25-.07-.46-.12-.91-.25-1.35-.4-.01,0-.01-.01-.01-.01-.26-.08-.51-.17-.77-.26-.25-.09-.51-.19-.76-.29-.28-.09-.55-.2-.81-.32-.34-.14-.67-.29-1-.44-.42-.2-.83-.4-1.23-.61-.34-.18-.67-.36-1-.55-.14-.08-.28-.16-.42-.25-.32-.18-.63-.38-.94-.58-.63-.4-1.24-.83-1.83-1.28-.3-.22-.59-.45-.88-.68-.29-.23-.57-.47-.86-.72-.53-.46-1.06-.95-1.57-1.44-.44-.43-.86-.87-1.28-1.32-.32-.34-.63-.69-.93-1.04-.48-.55-.93-1.11-1.38-1.69-.22-.28-.44-.57-.66-.87-.53-.72-1.05-1.46-1.54-2.22-.18-.27-.36-.55-.53-.84-.18-.28-.35-.57-.52-.85-.07-.09-.13-.19-.18-.3-.23-.38-.45-.76-.66-1.15-.09-.15-.18-.3-.26-.46-.32-.57-.62-1.15-.92-1.74-.01-.02-.03-.05-.04-.08-.27-.53-.53-1.07-.77-1.61-.05-.08-.08-.15-.11-.23-.1-.2-.19-.4-.28-.61-.17-.35-.33-.71-.48-1.07-.13-.29-.25-.58-.37-.87-.23-.52-.44-1.05-.65-1.58-.18-.46-.36-.93-.53-1.4-.19-.5-.37-1-.55-1.51,6.52-8.41,9.27-20.26,10.53-31.28.21-6.75.38-13.77.33-20.22-.84-14.77-3.63-29.38-6.64-43.38-1.11-4.53-2.66-10.36-4.65-16.89h0c.46-2.02.96-4.06,1.49-6.11.35-1.35.72-2.7,1.1-4.05.01-.03.02-.06.03-.1.19-.68.39-1.35.59-2.03.41-1.38.84-2.75,1.28-4.12.14-.46.29-.91.45-1.37.3-.91.62-1.82.94-2.72.16-.45.32-.9.49-1.35.67-1.84,1.38-3.65,2.14-5.44.17-.4.34-.8.51-1.2.27-.63.55-1.25.83-1.87,1.04-2.31,2.16-4.57,3.36-6.73.14-.27.29-.53.44-.79.11-.21.23-.41.35-.61.14-.25.29-.51.44-.76.18-.32.37-.64.57-.95.13-.23.27-.45.4-.67.41-.65.82-1.29,1.24-1.92.25-.37.5-.74.76-1.11.33-.48.67-.95,1.01-1.41.08-.12.17-.23.26-.35.39-.52.77-1.03,1.17-1.52.4-.5.8-.99,1.21-1.47.55-.65,1.11-1.27,1.68-1.88.2-.21.4-.41.59-.61.29-.3.59-.6.89-.89.29-.28.57-.55.86-.82.28-.26.57-.52.86-.77.37-.33.75-.65,1.13-.95.29-.24.58-.47.88-.7.32-.25.65-.49.97-.73.33-.24.66-.47,1-.69.29-.2.58-.39.88-.58.22-.14.43-.27.65-.4.17-.1.34-.2.51-.3.3-.18.6-.35.9-.51.17-.09.34-.18.52-.27.29-.16.58-.3.88-.44.3-.15.61-.29.92-.43.3-.13.6-.26.9-.38.3-.13.61-.25.91-.36.06-.03.12-.05.18-.07.5-.18,1.01-.36,1.51-.51.51-.16,1.03-.31,1.55-.44.31-.08.62-.16.94-.23.32-.07.64-.14.96-.2.4-.08.81-.15,1.23-.21.02-.01.04-.01.06-.01.31-.05.63-.09.94-.13.68-.09,1.36-.15,2.05-.18.34-.02.69-.04,1.04-.05.34-.01.69-.02,1.03-.02,42.43,0,63.92,65.87,72.57,100.21l.84,4.19c.28.83.56,1.39.56,2.23.28,1.67,1.39,2.51,2.51,2.51,1.96,0,3.91-1.67,3.63-3.91-4.47-25.12-14.52-53.31-27.91-75.09,7.81-8.09,16.74-16.19,27.35-20.1,6.42-2.51,13.68-3.35,20.1-1.95,13.08,3.48,22.03,16.18,27.91,30.08,1.23,2.91,2.33,5.87,3.29,8.81,2.22,6.7,3.79,13.28,4.81,18.89,1.47,8.69,2.37,17.44,2.74,26.23.15,3.46.22,6.91.22,10.38Z"/>
  <path class="cls-1" d="M1374.21,193.29c-17.31,20.09-42.15,30.14-68.39,30.14-24.01,0-53.32-6.98-70.35-24.56-2.96-3.14-5.43-6.6-7.3-10.28-1.56-3.09-2.71-6.33-3.35-9.68-1.01-5.08-.88-10.4.61-15.77,1-3.89,2.83-7.62,5.27-10.9,1.99-2.67,4.38-5.03,7.09-6.93.43-.3.87-.59,1.31-.87,4.47-3.35,9.49-5.03,15.08-5.03,1.95-.28,3.91,0,5.86,0,16.19,1.95,30.43,13.4,32.38,29.87.28,1.39,1.4,2.23,2.79,2.23,1.68,0,3.63-1.67,3.35-3.91-2.51-13.39-10.89-24.84-23.73-30.42-5.86-2.51-13.12-4.47-19.82-4.19-6-3.49-11.49-7.66-16.16-12.49-.1-7.64-.58-15.23-1.42-22.68-1.35-12-4.24-26.27-9.39-39.28,2.31-5.03,5.37-9.76,9.11-14.04,13.12-14.51,33.5-19.54,52.2-19.26,17.59,0,34.06,7.54,46.06,20.66,9.49,10.6,17.03,27.91,7.81,41.31-18.14,1.4-34.33,11.17-45.22,26.24l-.83.84c-3.35-16.75-9.77-27.08-24.01-37.41-3.35-2.51-6.42,2.79-3.35,5.03,15.35,12,21.77,23.45,21.77,43.54,0,1.68,1.12,2.79,2.24,3.07,1.11.28,2.51.28,3.35-1.11.55-.28.55-.56.55-.56,8.94-19.82,26.52-32.38,48.02-34.06,5.3-.55,10.88.56,15.63,2.24,6.98,2.23,12.84,7.25,17.31,12.84,18.98,24.84,15.35,62.53-4.47,85.42Z"/>
  <path d="M888.04,189h0c.15-.12.3-.26.44-.39-.15.14-.29.27-.44.39Z"/>
  <path class="cls-1" d="M1048.92,128.51c-.91-8.14-2.95-19.6-6.11-32.16v-.02c-1.13-4.5-2.4-9.13-3.82-13.81h0c-10.38-34.34-28.43-70.66-53.89-68.25-40.86,3.88-69.48,71.64-80.9,104.97-.22.58-.68,1.75-.9,2.32-.43,1.45-.45,1.17-.88,2.62-.17,1.13-.87,2.6-1.04,3.73-.53,1.79-1.05,3.57-1.5,5.42-.28,1.14-.53,2.3-.74,3.49-.22.87-.44,1.75-.66,2.63-1.56,6.36-2.85,12.89-3.7,19.37-1.05,8.13-1.82,16.64-1.35,24.91.15,2.64.43,5.25.87,7.82.72,4.29,1.88,8.46,3.63,12.4,2.85,6.46,7.02,11.96,12.97,15.59,6.27,3.9,15.17,6.14,22.62,4.87,23.63-5.04,39.78-59.57,43.54-78.99-5.45,1.64-11.07,4.41-15.23,7.89-3.41,2.56-6.96-2.42-3.84-4.96,7.31-5.75,16.75-9.73,26.2-10.62,6.93-.66,14.04.35,20.48,3.11,3.48,1.35.93,6.91-2.86,5.31-5.83-2.25-12.07-3.06-18.72-2.15l.13,1.39c-.11,4.78.01,8.97.74,13.68,2.5,20.5,16.7,42.99,39.76,40.8,6.52-.62,11.42-3.1,15.13-6.75,1.83-1.8,3.37-3.88,4.67-6.17,3.18-5.54,4.96-12.25,6.06-18.97,1.85-13.07,1.13-26.46-.66-39.47ZM987.75,71.78c-2.31,11.16-2.9,22.7-3.18,34.51.16,1.66-.83,3.16-2.5,3.32-1.66.16-3.47-1.07-3.34-2.76-.02-12.07.79-24.2,2.72-36.43.41-1.45,1.48-2.11,2.59-2.22,1.94-.18,4.03,1.03,3.71,3.58Z"/>
</svg>