<svg width="385" height="65" viewBox="0 0 385 65" fill="none" xmlns="http://www.w3.org/2000/svg">
<path d="M63.3631 11.72C63.6031 18.12 61.6831 24.6 59.3631 30.52C56.4031 38.2 52.2431 45.72 46.9631 52.12C44.4831 55.24 41.4431 58.2 37.7631 59.96C34.8831 61.32 31.3631 61.4 28.9631 59.08C26.3231 56.44 25.6031 52.12 25.2031 48.52C24.7231 43.48 24.9631 38.28 25.4431 33.24C25.5231 31.96 25.7631 30.76 25.8431 29.56C25.8431 29.48 25.8431 29.4 25.9231 29.24C26.0031 28.28 24.3231 28.04 24.0831 29.08C24.0831 29.08 24.0831 29.16 24.0831 29.24C22.5631 36.04 20.8831 42.68 18.3231 49.08C17.2831 51.72 16.0831 54.28 14.5631 56.6C13.4431 58.36 12.0831 60.2 10.2431 61.24C8.72313 62.12 7.04313 62.36 5.36313 61.8C3.76313 61.32 2.72313 60.28 2.00313 58.84C1.20313 57.16 0.883128 55.24 0.803128 53.32C0.643128 51.08 0.883128 48.76 1.04313 46.44C1.60313 42.36 2.48313 38.2 3.76313 34.12C5.28313 29.56 7.20313 25.08 9.60313 20.76C11.8431 16.76 14.4031 13 17.6831 9.96C20.0831 7.64 23.2031 5.56 26.7231 5.8C30.9631 5.88 33.3631 10.28 34.5631 13.88C36.4831 19.8 35.6831 26.28 35.8431 32.44C35.8431 33.32 37.1231 33.8 37.5231 32.92C37.6031 32.76 37.6831 32.68 37.6831 32.44C40.1631 27.24 42.0031 21.56 44.2431 16.2C45.5231 13.56 46.8031 11 48.3231 8.44C49.7631 6.12 51.5231 3.48 54.0031 2.2C56.4031 0.919998 58.8031 1.88 60.4831 3.72C62.4831 5.88 63.2031 8.92 63.3631 11.72ZM110.019 40.68C110.499 44.36 107.939 48.04 105.459 50.52C98.4988 57.32 86.5788 61.64 76.9788 61.64C70.0988 61.64 60.4988 59.4 58.4188 51.8C57.3788 48.28 58.0188 44.68 60.3388 41.88C64.7388 36.68 71.3788 34.2 77.6988 32.12C78.0988 31.96 78.5788 31.88 78.9788 31.8H79.1388C80.1788 31.48 79.9388 30.04 78.9788 29.96C73.2988 29.64 64.5788 28.84 61.5388 23C60.0188 19.96 60.6588 16.6 62.6588 14.12C67.9388 7.32 80.0188 4.68 88.1788 4.28C92.8988 4.04 97.6988 4.2 102.499 5.16C104.099 5.48 105.939 6.04 107.299 7.24C108.739 8.52 109.059 10.44 108.339 12.2C107.459 14.2 105.619 15.4 103.699 16.28C101.539 17.32 99.2188 17.96 96.7388 18.68C90.7388 20.44 84.6588 21.96 78.4988 23.16C77.4588 23.32 77.6988 24.68 78.5788 24.92C78.7388 25.08 78.9788 25.16 79.3788 25.08C82.5788 24.04 86.3388 23.08 89.9388 23.08C92.5788 23.08 95.1388 23.64 97.3788 25C98.5788 25.64 99.6188 26.68 99.9388 28.04C100.179 29.24 99.6188 30.52 98.7388 31.4C96.7388 33.72 93.6188 34.68 91.0588 35.72C87.7788 36.84 83.9388 38.12 81.1388 40.28C80.3388 40.92 81.0588 42.36 82.0988 41.72C84.8988 40.12 87.9388 38.84 90.9788 37.64C93.3788 36.84 95.8588 36.2 98.4988 36.04C100.179 35.96 101.779 35.96 103.459 36.12C106.339 36.28 109.539 37.4 110.019 40.68ZM170.959 12.84C172.079 20.68 170.159 28.92 167.999 36.36C166.559 41.56 164.639 46.84 161.999 51.56C159.759 55.48 156.959 59.56 152.479 60.92C141.839 64.2 140.799 48.2 140.799 41.48C140.799 39.88 140.799 38.36 140.879 36.76C140.879 36.68 140.879 36.6 140.879 36.52C140.959 35.48 139.359 35.24 139.039 36.28C139.039 36.28 139.039 36.36 139.039 36.52C137.839 42.12 136.079 47.72 133.119 52.68C131.279 55.8 128.559 59.4 124.799 60.2C121.279 61 117.439 59.32 115.039 56.92C112.399 54.28 110.719 50.6 109.599 47C108.399 43.24 107.839 39.32 107.359 35.4C106.559 29.16 106.159 22.68 107.039 16.36C107.519 13 108.559 9.24 110.799 6.76C111.599 5.88 112.319 5.32 113.359 4.76C113.519 4.68 113.519 4.68 113.919 4.52C114.159 4.44 114.479 4.36 114.879 4.36C116.479 3.96 118.159 4.04 119.759 4.44C122.559 5.24 124.879 6.92 126.159 9.4C127.279 11.56 127.919 13.88 128.479 16.2C129.839 21.88 130.639 27.56 131.359 33.32C131.439 33.8 131.759 34.2 132.159 34.28C132.639 34.28 133.199 33.96 133.199 33.64C133.199 33.56 133.279 33.48 133.279 33.32C133.599 31.32 133.999 29.32 134.479 27.32C135.199 24.52 136.319 21.4 138.319 19.24C140.079 17.4 142.799 16.92 144.799 18.6C147.039 20.6 147.919 23.88 148.319 26.68C148.719 28.36 148.799 30.12 148.879 31.88C148.879 32.68 148.879 33.32 148.879 34.04C148.879 34.28 148.799 34.44 148.799 34.6C148.799 35.08 148.719 35.48 148.719 35.88C148.639 36.92 150.319 37.08 150.479 36.12C150.479 36.04 150.479 35.96 150.479 35.88C150.479 35.88 150.479 35.88 150.479 35.8C150.559 35.32 150.639 34.84 150.639 34.44C151.119 30.76 151.919 27.16 152.879 23.72C154.239 19.16 155.839 14.44 158.239 10.36C159.279 8.68 160.319 7.24 161.759 6.04C162.959 5.08 164.239 4.84 165.839 5.16C169.359 5.8 170.479 9.8 170.959 12.84ZM199.674 34.92C200.474 41.56 200.394 48.92 196.874 54.76C194.474 58.6 190.634 61.08 186.234 61.48C179.914 62.12 173.834 59.4 169.434 55.08C167.754 53.48 166.714 52.04 165.754 49.88C164.154 46.36 164.234 42.2 165.994 38.84C166.794 37.32 167.914 36.04 169.434 35.4C171.274 34.6 173.354 35 175.194 35.8C179.194 37.56 182.074 41.16 185.274 44.12C185.994 44.76 186.634 45.4 187.354 45.96C187.514 46.04 187.594 46.12 187.674 46.28C188.394 46.68 189.354 45.72 188.874 45.08C184.394 39 180.634 32.12 177.834 25C176.554 21.88 175.434 18.6 174.874 15.16C174.394 13.16 174.314 10.92 174.954 8.92C176.714 3.32 184.234 3.64 187.754 7.24C189.754 9.4 191.594 11.56 193.114 14.12C196.234 19.56 198.154 25.64 199.194 31.72C199.354 32.76 199.514 33.88 199.674 34.92ZM248.541 40.68C249.021 44.36 246.461 48.04 243.981 50.52C237.021 57.32 225.101 61.64 215.501 61.64C208.621 61.64 199.021 59.4 196.941 51.8C195.901 48.28 196.541 44.68 198.861 41.88C203.261 36.68 209.901 34.2 216.221 32.12C216.621 31.96 217.101 31.88 217.501 31.8H217.661C218.701 31.48 218.461 30.04 217.501 29.96C211.821 29.64 203.101 28.84 200.061 23C198.541 19.96 199.181 16.6 201.181 14.12C206.461 7.32 218.541 4.68 226.701 4.28C231.421 4.04 236.221 4.2 241.021 5.16C242.621 5.48 244.461 6.04 245.821 7.24C247.261 8.52 247.581 10.44 246.861 12.2C245.981 14.2 244.141 15.4 242.221 16.28C240.061 17.32 237.741 17.96 235.261 18.68C229.261 20.44 223.181 21.96 217.021 23.16C215.981 23.32 216.221 24.68 217.101 24.92C217.261 25.08 217.501 25.16 217.901 25.08C221.101 24.04 224.861 23.08 228.461 23.08C231.101 23.08 233.661 23.64 235.901 25C237.101 25.64 238.141 26.68 238.461 28.04C238.701 29.24 238.141 30.52 237.261 31.4C235.261 33.72 232.141 34.68 229.581 35.72C226.301 36.84 222.461 38.12 219.661 40.28C218.861 40.92 219.581 42.36 220.621 41.72C223.421 40.12 226.461 38.84 229.501 37.64C231.901 36.84 234.381 36.2 237.021 36.04C238.701 35.96 240.301 35.96 241.981 36.12C244.861 36.28 248.061 37.4 248.541 40.68ZM285.481 44.28C285.641 47.48 285.721 50.6 285.321 53.72C284.761 58.12 283.401 62.44 278.281 62.44C275.081 62.44 272.521 60.92 270.761 58.28C268.441 54.68 267.081 48.04 266.281 43.88C266.121 42.84 265.961 41.72 265.721 40.52C267.401 40.52 269.001 40.76 270.441 41.56C271.481 42.12 272.361 40.52 271.401 40.04C269.241 38.92 266.841 38.6 264.441 38.84C262.201 39.08 259.961 39.72 258.121 41C257.161 41.72 258.121 43.24 259.081 42.6C260.441 41.56 262.041 41 263.801 40.68C263.881 43.08 263.801 45.64 263.481 48.04C262.761 53.08 261.001 59.24 254.921 59.24C251.641 59.24 249.161 57.8 247.481 54.92C245.321 51.16 245.001 46.36 245.161 42.04C245.321 38.12 245.721 34.2 246.681 30.36C248.841 20.92 255.801 4.68 267.001 4.68C272.041 4.68 275.161 9.48 277.321 13.4C282.121 22.2 284.841 34.28 285.481 44.28ZM270.121 25.4C267.001 25.24 263.801 25.48 260.601 25.88C260.121 25.96 259.721 26.2 259.721 26.76C259.721 27.24 260.121 27.72 260.601 27.64C263.801 27.32 267.001 27.08 270.121 27.32C271.321 27.32 271.321 25.48 270.121 25.4ZM336.94 21.96C337.82 27.16 337.98 32.44 337.58 37.72C337.26 42.76 336.22 48.04 333.98 52.68C332.46 55.8 330.22 59.24 326.7 60.52C323.5 61.64 320.06 60.6 317.74 58.44C314.94 55.8 313.42 52.12 312.38 48.52C311.18 44.28 310.54 39.8 310.38 35.4C310.38 34.28 310.38 33.32 310.38 32.2C310.38 31 308.54 31 308.54 32.2C308.38 37.16 307.5 42.28 305.98 47C304.62 51.48 302.62 56.36 299.1 59.56C297.82 60.84 296.06 61.64 294.3 61.72C292.3 61.72 290.38 61.08 288.78 59.88C284.94 56.92 283.5 51.4 282.78 46.84C281.82 40.6 282.06 34.12 282.94 27.96C283.58 23 284.7 17.96 286.54 13.4C288.22 9.32 290.94 4.6 295.58 3.39999C299.74 2.36 303.82 4.04 306.78 6.84C308.38 8.36 309.82 10.2 311.1 12.12C312.46 14.2 313.58 16.36 314.54 18.6C316.38 22.6 317.66 26.84 318.7 31.24C318.86 32.04 319.1 32.84 319.26 33.64C319.42 34.84 321.18 34.36 321.02 33.24C320.22 28.84 318.94 24.6 317.34 20.52C316.06 17.48 314.7 14.44 313.02 11.72C315.26 9.4 317.82 7.08 320.86 5.96C322.7 5.24 324.78 5 326.62 5.4C327.5 5.64 328.06 5.88 328.86 6.44C330.78 7.64 332.38 9.64 333.5 11.72C335.26 14.84 336.3 18.36 336.94 21.96ZM378.838 28.12C384.278 35.24 383.238 46.04 377.558 52.6C374.438 56.2 370.278 58.84 365.638 60.2C360.598 61.72 355.078 61.48 349.958 60.36C345.478 59.4 341.078 57.56 337.798 54.2C335.158 51.4 333.878 47.72 334.918 43.96C335.478 41.8 336.918 39.8 338.838 38.6C340.118 37.64 341.558 37.16 343.158 37.16C343.718 37.08 344.278 37.16 344.838 37.16C348.838 37.64 352.198 39.96 353.638 43.72C353.878 44.36 354.038 45.08 354.118 45.72C354.358 46.76 356.038 46.36 355.878 45.24C355.158 41.4 352.758 38.12 349.078 36.52C347.398 35.8 345.318 35.24 343.398 35.32C338.998 32.76 335.558 28.92 334.518 23.96C333.478 18.92 334.918 13.8 338.278 9.96C342.038 5.8 347.878 4.36 353.238 4.44C358.278 4.44 362.998 6.6 366.438 10.36C369.158 13.4 371.318 18.36 368.678 22.2C363.478 22.6 358.838 25.4 355.798 29.64C355.718 29.8 355.478 29.96 355.398 30.12C355.158 28.36 354.678 26.44 353.718 24.76C352.518 22.52 350.598 20.68 348.598 19.24C347.638 18.52 346.758 20.04 347.638 20.68C349.478 22.12 351.078 23.64 352.198 25.64C353.478 27.96 353.878 30.6 353.878 33.16C353.878 33.64 354.198 33.96 354.518 34.04C354.838 34.12 355.238 34.12 355.478 33.72C355.478 33.72 355.478 33.72 355.478 33.64C355.638 33.64 355.638 33.56 355.638 33.56C357.718 29 361.398 25.56 366.278 24.36C367.318 24.12 368.358 23.88 369.398 23.8C370.918 23.64 372.518 23.96 373.878 24.44C375.878 25.08 377.558 26.52 378.838 28.12Z" fill="white"/>
</svg>
