<svg id="Layer_1" data-name="Layer 1" xmlns="http://www.w3.org/2000/svg" viewBox="0 0 182.18 182.18"><defs><style>.cls-1,.cls-5,.cls-7{fill:#1d1d1b;}.cls-1{opacity:0.3;}.cls-2,.cls-4{fill:#fff;}.cls-2,.cls-3,.cls-4,.cls-7{stroke:#1d1d1b;}.cls-2,.cls-3,.cls-4,.cls-6,.cls-7{stroke-miterlimit:10;}.cls-2{stroke-width:0.92px;}.cls-3,.cls-6{fill:none;}.cls-3{stroke-width:0.85px;}.cls-6{stroke:#fff;stroke-width:2px;}.cls-7{font-size:12.86px;stroke-width:0.5px;font-family:LeeSeoyun;}</style></defs><title>Artboard 13</title><circle class="cls-1" cx="91.09" cy="91.09" r="83.31"/><circle class="cls-2" cx="91.09" cy="91.09" r="90.63"/><circle class="cls-3" cx="91.09" cy="91.09" r="83.31"/><path class="cls-4" d="M128.46,53.74c-22.59-22.6-56.29-25.52-75.26-6.55a40.16,40.16,0,0,0-3.09,3.47,38.32,38.32,0,0,0-3.46,3.08c-19,19-16,52.67,6.55,75.26s56.28,25.51,75.25,6.54a38.32,38.32,0,0,0,3.08-3.46A40.16,40.16,0,0,0,135,129C154,110,151.05,76.32,128.46,53.74ZM78.68,79.23a12.92,12.92,0,0,1,2.67-3.89c5.91-5.91,16.41-5,23.46,2s8,17.54,2,23.45a12.92,12.92,0,0,1-3.89,2.67c-5.95,2.67-13.89,1-19.57-4.7S76,85.18,78.68,79.23Z"/><path class="cls-4" d="M81.35,75.34a12.9,12.9,0,0,0-2.49,3.52c6-2.89,14.12-1.25,19.92,4.55s7.43,13.93,4.53,19.92a13,13,0,0,0,3.54-2.49c5.91-5.91,5-16.41-2-23.45S87.26,69.43,81.35,75.34Z"/><path class="cls-5" d="M146.3,85.94c-.2-.94-.42-1.89-.67-2.83a0,0,0,0,0,0,0c-.37-1.42-.8-2.85-1.29-4.26-.65-1.88-1.4-3.76-2.25-5.61-.42-.92-.87-1.84-1.33-2.75-.24-.46-.49-.92-.74-1.38-.49-.9-1-1.8-1.55-2.69-.28-.45-.56-.9-.85-1.34-.73-1.14-1.51-2.26-2.32-3.37-.27-.37-.54-.73-.83-1.1-.51-.67-1-1.33-1.57-2-.69-.84-1.41-1.66-2.14-2.47s-1.5-1.61-2.29-2.4c-22.59-22.6-56.29-25.52-75.26-6.55a40.16,40.16,0,0,0-3.09,3.47C41.74,61.14,39,75.05,41.64,89v0c2,11.94,3.37,24.23,5.56,25.4,3.09,1.54,1.67-3.74,3.45-3.13h0q1.67,2.59,3.61,5.07c3.21,3.84,3.73,7.88,5.95,8.31a8.92,8.92,0,0,1,4.13,2.07s0,0,0,0a66.18,66.18,0,0,0,15.73,9.78.26.26,0,0,0,.09,0c2.61,1.23,5.3,3.9,4.74,7.83a23,23,0,0,1-.64,2.26,3.6,3.6,0,1,0,6.19,2.5c0-.5-.06-1-.08-1.43-.22-5.17.44-7.55,2.15-7.24h0a55.47,55.47,0,0,0,10.65,1.09h0s6.77.62,8.82,3.48l.31.52c3.37,6-2.25,5.92-2.25,12.95a5.78,5.78,0,1,0,10.76-2.92,8.4,8.4,0,0,1-.17-1.71c0-5.71,4.83-15,13.45-24l0,0,.22-.23.3-.28L135,129c.26-.25.49-.52.74-.79l.4-.4,0,0a43.93,43.93,0,0,0,11.37-28.38A54.51,54.51,0,0,0,146.3,85.94Zm-39.45,14.9a12.92,12.92,0,0,1-3.89,2.67c-5.95,2.67-13.89,1-19.57-4.7S76,85.18,78.68,79.23a12.92,12.92,0,0,1,2.67-3.89c5.91-5.91,16.41-5,23.46,2S112.76,94.93,106.85,100.84Z"/><line class="cls-6" x1="130.16" y1="100.89" x2="126.94" y2="104.86"/><line class="cls-6" x1="122.11" y1="90.35" x2="121.38" y2="85.52"/><line class="cls-6" x1="114.51" y1="67.26" x2="119.86" y2="63.42"/><line class="cls-6" x1="128.55" y1="55.52" x2="131.77" y2="60.35"/><line class="cls-6" x1="84.65" y1="64.85" x2="84.6" y2="72.98"/><line class="cls-6" x1="68.42" y1="58.29" x2="63.59" y2="57.58"/><line class="cls-6" x1="63.72" y1="79.37" x2="58.16" y2="87.19"/><line class="cls-6" x1="68.63" y1="102.2" x2="75.51" y2="112.15"/><line class="cls-6" x1="90.82" y1="119.62" x2="86.85" y2="125.18"/><line class="cls-6" x1="128.55" y1="119.84" x2="137.04" y2="122.4"/><line class="cls-6" x1="97.09" y1="39.28" x2="97.09" y2="45.09"/><line class="cls-6" x1="84.63" y1="43.01" x2="79.97" y2="43.23"/><line class="cls-6" x1="47.7" y1="65.34" x2="54.72" y2="70.19"/><line class="cls-6" x1="137.26" y1="78.79" x2="139.03" y2="72.86"/><line class="cls-6" x1="54.72" y1="99.46" x2="48.8" y2="99.46"/><line class="cls-6" x1="104.77" y1="131.03" x2="112.68" y2="129.5"/><line class="cls-6" x1="114.21" y1="112.59" x2="114.21" y2="119.84"/><line class="cls-6" x1="140.11" y1="97.89" x2="147.47" y2="99.44"/><text class="cls-7" transform="translate(71.38 31.59) rotate(-16)">I</text><text class="cls-7" transform="translate(76.11 30.26) rotate(-12.32)"> </text><text class="cls-7" transform="translate(79.03 29.51) rotate(-7.42)">L</text><text class="cls-7" transform="translate(86.58 28.52) rotate(-0.54)">O</text><text class="cls-7" transform="translate(94.9 28.47) rotate(7)">V</text><text class="cls-7" transform="matrix(0.97, 0.24, -0.24, 0.97, 102.46, 29.4)">E</text><text class="cls-7" transform="translate(109.35 31.16) rotate(18.4)"> </text><text class="cls-7" transform="matrix(0.93, 0.38, -0.38, 0.93, 112.29, 32.1)">I</text><text class="cls-7" transform="translate(116.79 33.86) rotate(27.6)">T</text><text class="cls-7" transform="matrix(0.84, 0.54, -0.54, 0.84, 123.13, 37.25)">!</text><text class="cls-7" transform="translate(126.41 39.36) rotate(35.83)"> </text><text class="cls-7" transform="translate(128.92 41.06) rotate(40.52)">B</text><text class="cls-7" transform="translate(134.4 45.73) rotate(47.01)">R</text><text class="cls-7" transform="translate(139.24 50.9) rotate(53.43)">E</text><text class="cls-7" transform="matrix(0.5, 0.86, -0.86, 0.5, 143.45, 56.55)">A</text><text class="cls-7" transform="translate(147.01 62.63) rotate(66.43)">D</text><text class="cls-7" transform="matrix(0.32, 0.95, -0.95, 0.32, 149.87, 69.4)"> </text><text class="cls-7" transform="translate(150.94 72.25) rotate(75.89)">A</text><text class="cls-7" transform="matrix(0.13, 0.99, -0.99, 0.13, 152.66, 79.07)">R</text><text class="cls-7" transform="matrix(0.02, 1, -1, 0.02, 153.62, 86.11)">T</text><text class="cls-7" transform="matrix(-0.06, 1, -1, -0.06, 153.69, 93.32)"> </text><text class="cls-7" transform="translate(153.63 96.34) rotate(98.58)">G</text><text class="cls-7" transform="translate(152.44 104.41) rotate(106.16)">O</text><text class="cls-7" transform="translate(150.14 112.42) rotate(113.82)">O</text><text class="cls-7" transform="translate(146.75 120.05) rotate(120.98)">D</text><text class="cls-7" transform="matrix(-0.58, 0.81, -0.81, -0.58, 142.9, 126.31)"> </text><text class="cls-7" transform="translate(141.2 128.83) rotate(130.39)">T</text><text class="cls-7" transform="matrix(-0.74, 0.68, -0.68, -0.74, 136.62, 134.29)">O</text><text class="cls-7" transform="translate(130.48 139.96) rotate(145.02)">O</text><text class="cls-7" transform="translate(123.56 144.68) rotate(150.58)">!</text><text class="cls-7" transform="matrix(-0.96, 0.28, -0.28, -0.96, 110.81, 150.59)">I</text><text class="cls-7" transform="matrix(-0.98, 0.21, -0.21, -0.98, 106.07, 151.92)"> </text><text class="cls-7" transform="translate(103.15 152.67) rotate(172.58)">L</text><text class="cls-7" transform="translate(95.61 153.66) rotate(179.46)">O</text><text class="cls-7" transform="translate(87.29 153.71) rotate(-173)">V</text><text class="cls-7" transform="matrix(-0.97, -0.24, 0.24, -0.97, 79.72, 152.78)">E</text><text class="cls-7" transform="translate(72.83 151.02) rotate(-161.6)"> </text><text class="cls-7" transform="translate(69.9 150.08) rotate(-157.92)">I</text><text class="cls-7" transform="translate(65.4 148.33) rotate(-152.4)">T</text><text class="cls-7" transform="matrix(-0.84, -0.54, 0.54, -0.84, 59.06, 144.94)">!</text><text class="cls-7" transform="translate(55.78 142.83) rotate(-144.17)"> </text><text class="cls-7" transform="translate(53.26 141.13) rotate(-139.48)">B</text><text class="cls-7" transform="matrix(-0.68, -0.73, 0.73, -0.68, 47.79, 136.46)">R</text><text class="cls-7" transform="matrix(-0.6, -0.8, 0.8, -0.6, 42.95, 131.29)">E</text><text class="cls-7" transform="translate(38.73 125.63) rotate(-120.14)">A</text><text class="cls-7" transform="translate(35.18 119.55) rotate(-113.57)">D</text><text class="cls-7" transform="matrix(-0.32, -0.95, 0.95, -0.32, 32.32, 112.79)"> </text><text class="cls-7" transform="translate(31.25 109.93) rotate(-104.1)">A</text><text class="cls-7" transform="translate(29.52 103.11) rotate(-97.62)">R</text><text class="cls-7" transform="matrix(-0.02, -1, 1, -0.02, 28.57, 96.08)">T</text><text class="cls-7" transform="translate(28.5 88.87) rotate(-86.55)"> </text><text class="cls-7" transform="translate(28.55 85.84) rotate(-81.42)">G</text><text class="cls-7" transform="translate(29.75 77.77) rotate(-73.84)">O</text><text class="cls-7" transform="matrix(0.4, -0.91, 0.91, 0.4, 32.05, 69.77)">O</text><text class="cls-7" transform="translate(35.43 62.14) rotate(-59.02)">D</text><text class="cls-7" transform="translate(39.29 55.88) rotate(-54.28)"> </text><text class="cls-7" transform="translate(40.99 53.36) rotate(-49.61)">T</text><text class="cls-7" transform="matrix(0.74, -0.68, 0.68, 0.74, 45.56, 47.9)">O</text><text class="cls-7" transform="translate(51.7 42.23) rotate(-34.98)">O</text><text class="cls-7" transform="translate(58.63 37.51) rotate(-29.42)">!</text></svg>