<svg id="Layer_1" data-name="Layer 1" xmlns="http://www.w3.org/2000/svg" viewBox="0 0 200.01 200.01"><defs><style>.cls-1,.cls-5,.cls-7{fill:#1d1d1b;}.cls-1{opacity:0.3;}.cls-2,.cls-4{fill:#fff;}.cls-3,.cls-6{fill:none;}.cls-3,.cls-4{stroke:#1d1d1b;}.cls-3,.cls-4,.cls-6{stroke-miterlimit:10;}.cls-3{stroke-width:0.85px;}.cls-6{stroke:#fff;stroke-width:2px;}.cls-7{font-size:12.86px;font-family:LeeSeoyun;}</style></defs><title>Artboard 5</title><circle class="cls-1" cx="100" cy="100" r="83.31"/><circle class="cls-2" cx="100" cy="100" r="90.63"/><circle class="cls-3" cx="100" cy="100" r="83.31"/><path class="cls-4" d="M137.37,62.65c-22.59-22.6-56.29-25.52-75.26-6.55A40.16,40.16,0,0,0,59,59.57a38.32,38.32,0,0,0-3.46,3.08c-19,19-16.05,52.67,6.55,75.26s56.28,25.51,75.25,6.54a38.32,38.32,0,0,0,3.08-3.46,40.16,40.16,0,0,0,3.47-3.09C162.88,118.93,160,85.23,137.37,62.65ZM87.59,88.14a12.92,12.92,0,0,1,2.67-3.89c5.91-5.91,16.41-5,23.46,2s8,17.54,2,23.45a12.92,12.92,0,0,1-3.89,2.67c-6,2.67-13.89,1-19.57-4.7S84.92,94.09,87.59,88.14Z"/><path class="cls-4" d="M90.26,84.25a12.79,12.79,0,0,0-2.49,3.53c6-2.89,14.13-1.26,19.93,4.54s7.42,13.93,4.52,19.92a12.84,12.84,0,0,0,3.54-2.49c5.91-5.91,5-16.41-2-23.45S96.17,78.34,90.26,84.25Z"/><path class="cls-5" d="M155.21,94.85c-.2-.94-.42-1.89-.67-2.83v0c-.37-1.42-.8-2.85-1.29-4.26-.65-1.88-1.4-3.76-2.25-5.61-.42-.92-.87-1.84-1.33-2.75-.24-.46-.49-.92-.74-1.38-.49-.9-1-1.8-1.55-2.69-.28-.45-.56-.9-.85-1.34-.73-1.14-1.51-2.26-2.32-3.37-.27-.37-.54-.73-.83-1.1-.51-.67-1-1.33-1.57-2-.69-.84-1.41-1.66-2.14-2.47s-1.5-1.61-2.29-2.4c-22.59-22.6-56.29-25.52-75.26-6.55A40.16,40.16,0,0,0,59,59.57C50.65,70.05,47.93,84,50.55,97.88v0c2.05,11.94,3.37,24.23,5.56,25.4,3.09,1.54,1.67-3.74,3.45-3.13h0q1.66,2.59,3.61,5.07c3.21,3.84,3.73,7.88,5.95,8.31a8.92,8.92,0,0,1,4.13,2.07h0A66.18,66.18,0,0,0,89,145.37a.26.26,0,0,0,.09,0c2.61,1.23,5.3,3.9,4.74,7.83a23,23,0,0,1-.64,2.26,3.6,3.6,0,1,0,6.19,2.5c0-.5-.06-1-.08-1.43-.22-5.17.44-7.55,2.15-7.24h0a55.47,55.47,0,0,0,10.65,1.09h0s6.77.62,8.82,3.48l.31.52c3.37,6-2.25,5.92-2.25,12.95a5.78,5.78,0,1,0,10.76-2.92,8.4,8.4,0,0,1-.17-1.71c0-5.71,4.83-15,13.45-24l0,0,.22-.23.3-.28.29-.28c.26-.25.49-.52.74-.79l.4-.4,0,0a43.93,43.93,0,0,0,11.37-28.38A54.51,54.51,0,0,0,155.21,94.85Zm-39.45,14.9a12.92,12.92,0,0,1-3.89,2.67c-6,2.67-13.89,1-19.57-4.7s-7.38-13.63-4.71-19.58a12.92,12.92,0,0,1,2.67-3.89c5.91-5.91,16.41-5,23.46,2S121.67,103.84,115.76,109.75Z"/><line class="cls-6" x1="139.08" y1="109.8" x2="135.86" y2="113.77"/><line class="cls-6" x1="131.03" y1="99.26" x2="130.3" y2="94.43"/><line class="cls-6" x1="123.42" y1="76.18" x2="128.77" y2="72.34"/><line class="cls-6" x1="137.47" y1="64.43" x2="140.69" y2="69.26"/><line class="cls-6" x1="93.56" y1="73.76" x2="93.51" y2="81.89"/><line class="cls-6" x1="77.33" y1="67.2" x2="72.5" y2="66.49"/><line class="cls-6" x1="72.64" y1="88.29" x2="67.08" y2="96.1"/><line class="cls-6" x1="77.54" y1="111.12" x2="84.42" y2="121.07"/><line class="cls-6" x1="99.73" y1="128.53" x2="95.76" y2="134.09"/><line class="cls-6" x1="137.47" y1="128.75" x2="145.95" y2="131.31"/><line class="cls-6" x1="106" y1="48.19" x2="106" y2="54.01"/><line class="cls-6" x1="93.54" y1="51.92" x2="88.88" y2="52.14"/><line class="cls-6" x1="56.61" y1="74.26" x2="63.64" y2="79.11"/><line class="cls-6" x1="146.17" y1="87.7" x2="147.94" y2="81.77"/><line class="cls-6" x1="63.64" y1="108.37" x2="57.71" y2="108.37"/><line class="cls-6" x1="113.69" y1="139.94" x2="121.59" y2="138.41"/><line class="cls-6" x1="123.12" y1="121.51" x2="123.12" y2="128.75"/><line class="cls-6" x1="149.03" y1="106.8" x2="156.38" y2="108.35"/><text class="cls-7" transform="translate(80.29 40.51) rotate(-16)">I</text><text class="cls-7" transform="translate(85.02 39.17) rotate(-12.32)"> </text><text class="cls-7" transform="translate(87.94 38.43) rotate(-7.42)">L</text><text class="cls-7" transform="translate(95.49 37.43) rotate(-0.54)">O</text><text class="cls-7" transform="translate(103.81 37.38) rotate(7)">V</text><text class="cls-7" transform="matrix(0.97, 0.24, -0.24, 0.97, 111.38, 38.31)">E</text><text class="cls-7" transform="translate(118.27 40.08) rotate(18.4)"> </text><text class="cls-7" transform="matrix(0.93, 0.38, -0.38, 0.93, 121.2, 41.02)">I</text><text class="cls-7" transform="translate(125.7 42.77) rotate(27.6)">T</text><text class="cls-7" transform="matrix(0.84, 0.54, -0.54, 0.84, 132.04, 46.16)">!</text><text class="cls-7" transform="translate(135.32 48.27) rotate(35.83)"> </text><text class="cls-7" transform="translate(137.84 49.97) rotate(40.52)">B</text><text class="cls-7" transform="translate(143.31 54.64) rotate(47.01)">R</text><text class="cls-7" transform="translate(148.15 59.81) rotate(53.43)">E</text><text class="cls-7" transform="matrix(0.5, 0.86, -0.86, 0.5, 152.37, 65.47)">A</text><text class="cls-7" transform="translate(155.92 71.54) rotate(66.43)">D</text><text class="cls-7" transform="matrix(0.32, 0.95, -0.95, 0.32, 158.78, 78.31)"> </text><text class="cls-7" transform="translate(159.85 81.17) rotate(75.89)">A</text><text class="cls-7" transform="matrix(0.13, 0.99, -0.99, 0.13, 161.58, 87.99)">R</text><text class="cls-7" transform="matrix(0.02, 1, -1, 0.02, 162.53, 95.02)">T</text><text class="cls-7" transform="matrix(-0.06, 1, -1, -0.06, 162.6, 102.23)"> </text><text class="cls-7" transform="translate(162.55 105.25) rotate(98.58)">G</text><text class="cls-7" transform="translate(161.35 113.32) rotate(106.16)">O</text><text class="cls-7" transform="translate(159.05 121.33) rotate(113.82)">O</text><text class="cls-7" transform="translate(155.67 128.96) rotate(120.98)">D</text><text class="cls-7" transform="matrix(-0.58, 0.81, -0.81, -0.58, 151.81, 135.22)"> </text><text class="cls-7" transform="translate(150.11 137.74) rotate(130.39)">T</text><text class="cls-7" transform="matrix(-0.74, 0.68, -0.68, -0.74, 145.54, 143.2)">O</text><text class="cls-7" transform="translate(139.39 148.87) rotate(145.02)">O</text><text class="cls-7" transform="translate(132.47 153.59) rotate(150.58)">!</text><text class="cls-7" transform="matrix(-0.96, 0.28, -0.28, -0.96, 119.72, 159.5)">I</text><text class="cls-7" transform="matrix(-0.98, 0.21, -0.21, -0.98, 114.99, 160.84)"> </text><text class="cls-7" transform="translate(112.07 161.58) rotate(172.58)">L</text><text class="cls-7" transform="translate(104.52 162.58) rotate(179.46)">O</text><text class="cls-7" transform="translate(96.2 162.62) rotate(-173)">V</text><text class="cls-7" transform="matrix(-0.97, -0.24, 0.24, -0.97, 88.64, 161.7)">E</text><text class="cls-7" transform="translate(81.74 159.93) rotate(-161.6)"> </text><text class="cls-7" transform="translate(78.81 158.99) rotate(-157.92)">I</text><text class="cls-7" transform="translate(74.31 157.24) rotate(-152.4)">T</text><text class="cls-7" transform="matrix(-0.84, -0.54, 0.54, -0.84, 67.97, 153.85)">!</text><text class="cls-7" transform="translate(64.69 151.74) rotate(-144.17)"> </text><text class="cls-7" transform="translate(62.17 150.04) rotate(-139.48)">B</text><text class="cls-7" transform="matrix(-0.68, -0.73, 0.73, -0.68, 56.7, 145.37)">R</text><text class="cls-7" transform="matrix(-0.6, -0.8, 0.8, -0.6, 51.86, 140.2)">E</text><text class="cls-7" transform="translate(47.65 134.55) rotate(-120.14)">A</text><text class="cls-7" transform="translate(44.09 128.47) rotate(-113.57)">D</text><text class="cls-7" transform="matrix(-0.32, -0.95, 0.95, -0.32, 41.23, 121.7)"> </text><text class="cls-7" transform="translate(40.16 118.84) rotate(-104.1)">A</text><text class="cls-7" transform="translate(38.44 112.02) rotate(-97.62)">R</text><text class="cls-7" transform="matrix(-0.02, -1, 1, -0.02, 37.48, 104.99)">T</text><text class="cls-7" transform="translate(37.41 97.78) rotate(-86.55)"> </text><text class="cls-7" transform="translate(37.47 94.76) rotate(-81.42)">G</text><text class="cls-7" transform="translate(38.66 86.69) rotate(-73.84)">O</text><text class="cls-7" transform="matrix(0.4, -0.91, 0.91, 0.4, 40.96, 78.68)">O</text><text class="cls-7" transform="translate(44.35 71.05) rotate(-59.02)">D</text><text class="cls-7" transform="translate(48.2 64.79) rotate(-54.28)"> </text><text class="cls-7" transform="translate(49.9 62.27) rotate(-49.61)">T</text><text class="cls-7" transform="matrix(0.74, -0.68, 0.68, 0.74, 54.48, 56.81)">O</text><text class="cls-7" transform="translate(60.62 51.14) rotate(-34.98)">O</text><text class="cls-7" transform="translate(67.54 46.42) rotate(-29.42)">!</text></svg>