<svg id="Layer_1" data-name="Layer 1" xmlns="http://www.w3.org/2000/svg" viewBox="0 0 142.33 230.78"><defs><style>.cls-1,.cls-9{fill:#fff;}.cls-10,.cls-2,.cls-4,.cls-5,.cls-6,.cls-8{fill:none;stroke-miterlimit:10;}.cls-2,.cls-6{stroke:#000;}.cls-2,.cls-4{stroke-width:2px;}.cls-3{fill:#616160;}.cls-4{stroke:#616160;}.cls-5{stroke:#909091;stroke-width:0.95px;}.cls-7{fill:#1d1d1b;}.cls-8{stroke:#fff;stroke-width:0.94px;}.cls-9{opacity:0.5;}.cls-10{stroke:#1d1d1b;}</style></defs><title>Artboard 11</title><path class="cls-1" d="M142.33,89.35v5.5a16.2,16.2,0,0,1-2.92,9.13,3.11,3.11,0,0,0-.53,1.38L126,208.53c-.69,15.39-26.07,22.25-51.23,22.25s-50.53-6.86-51.22-22.17L10.67,105.36a3.25,3.25,0,0,0-.54-1.38,16.18,16.18,0,0,1-2.91-9.13v-5.5a15.37,15.37,0,0,1,.15-2.1c0-.2.06-.4.1-.61a14.41,14.41,0,0,1,.34-1.49L8,84.64c.14-.43.29-.84.46-1.25a73.54,73.54,0,0,1,8.47-18.67l-4.73-5.67L3.28,48.42.72,45.36A3.08,3.08,0,0,1,1.11,41L45.42,4a17.13,17.13,0,0,1,27.67,9.23l4.5,19.21a3.05,3.05,0,0,0,2.78,2.37c43.86,2.71,57.42,37,60.75,48.58A15.49,15.49,0,0,1,142.33,89.35Z"/><path class="cls-2" d="M133.56,89.35A7,7,0,0,1,133,92.1c-4,9.63-28.65,17-58.48,17S20,101.73,16,92.1a7,7,0,0,1-.57-2.75s.2-1.17.74-3.15c2.86-10.33,15.14-42.6,57.41-43.05h1.8c42.27.45,54.55,32.72,57.41,43.05C133.36,88.18,133.56,89.35,133.56,89.35Z"/><path class="cls-3" d="M125.37,126.27l-.18,1.38-10.36,80.24V208c0,6.45-18.06,11.67-40.32,11.67S34.2,214.41,34.2,208L23.83,127.65l-.18-1.38c0-9.41,22.78-17,50.86-17S125.37,116.86,125.37,126.27Z"/><line class="cls-4" x1="117.25" y1="207.89" x2="117.24" y2="207.96"/><line class="cls-4" x1="114.83" y1="207.9" x2="114.82" y2="207.96"/><path class="cls-5" d="M36.39,205.64c0-6.1,17.07-11,38.12-11s38,4.91,38.12,11v0"/><path class="cls-2" d="M133.56,89.35A7,7,0,0,1,133,92.1c-4,9.63-28.65,17-58.48,17S20,101.73,16,92.1a7,7,0,0,1-.57-2.75c0-10.93,26.44-19.8,59.05-19.8S133.56,78.42,133.56,89.35Z"/><path class="cls-6" d="M86.73,49.76a1.46,1.46,0,0,1-.12.57c-.83,2-5.93,3.52-12.1,3.52S63.23,52.32,62.4,50.33a1.65,1.65,0,0,1-.11-.57c0-2.27,5.47-4.1,12.22-4.1S86.73,47.49,86.73,49.76Z"/><path class="cls-7" d="M100.9,200.92,57.73,16.77a1.63,1.63,0,0,0-2.63-.88L14.94,49.44l-4.49-5.37L50.61,10.52a8.63,8.63,0,0,1,13.93,4.65l43.18,184.15Z"/><path class="cls-2" d="M18.44,101.08,31.78,208c0,7.91,19.13,14.32,42.73,14.32s42.74-6.41,42.74-14.32v-.07l13.33-106.81"/><path class="cls-8" d="M122.38,126.77a5.69,5.69,0,0,1-.47,2.23c-3.23,7.8-23.22,13.81-47.4,13.81S30.34,136.8,27.1,129a5.67,5.67,0,0,1-.46-2.23"/><ellipse class="cls-2" cx="74.51" cy="92.1" rx="58.48" ry="17.04"/><path class="cls-2" d="M133.56,89.35v5.5c0,10.94-26.44,19.8-59,19.8s-59-8.86-59-19.8v-5.5A7,7,0,0,0,16,92.1c4,9.63,28.65,17,58.48,17S129,101.73,133,92.1A7,7,0,0,0,133.56,89.35Z"/><path class="cls-2" d="M133.56,89.35s-.2-1.17-.74-3.15A7.27,7.27,0,0,1,133.56,89.35Z"/><path class="cls-6" d="M86.73,49.76a1.46,1.46,0,0,1-.12.57c-.83,2-5.93,3.52-12.1,3.52S63.23,52.32,62.4,50.33a1.65,1.65,0,0,1-.11-.57"/><path class="cls-2" d="M133,92.1c-4,9.63-28.65,17-58.48,17S20,101.73,16,92.1"/><rect class="cls-9" x="46.37" y="154.73" width="18.73" height="18.73" rx="3.07" transform="translate(119.64 3.01) rotate(40.4)"/><rect class="cls-9" x="57.71" y="189.55" width="10.97" height="10.97" rx="1.8" transform="translate(45.32 -9.2) rotate(12.95)"/><rect class="cls-9" x="96.01" y="129.3" width="10.97" height="10.97" rx="1.8"/><rect class="cls-9" x="75.24" y="176.38" width="10.97" height="10.97" rx="1.8" transform="translate(-47.9 30.05) rotate(-16.34)"/><rect class="cls-9" x="94.87" y="161.83" width="15.13" height="15.13" rx="2.48" transform="translate(71.27 -26.1) rotate(22.1)"/><rect class="cls-9" x="48.9" y="120.53" width="15.13" height="15.13" rx="2.48" transform="translate(52.35 -11.83) rotate(22.1)"/><rect class="cls-10" x="46.37" y="154.73" width="18.73" height="18.73" rx="3.07" transform="translate(119.64 3.01) rotate(40.4)"/><rect class="cls-10" x="57.71" y="189.55" width="10.97" height="10.97" rx="1.8" transform="translate(45.32 -9.2) rotate(12.95)"/><rect class="cls-10" x="96.01" y="129.3" width="10.97" height="10.97" rx="1.8"/><rect class="cls-10" x="75.24" y="176.38" width="10.97" height="10.97" rx="1.8" transform="translate(-47.9 30.05) rotate(-16.34)"/><rect class="cls-10" x="94.87" y="161.83" width="15.13" height="15.13" rx="2.48" transform="translate(71.27 -26.1) rotate(22.1)"/><rect class="cls-10" x="48.9" y="120.53" width="15.13" height="15.13" rx="2.48" transform="translate(52.35 -11.83) rotate(22.1)"/></svg>