<svg id="Layer_1" data-name="Layer 1" xmlns="http://www.w3.org/2000/svg" viewBox="0 0 146.18 153.76"><defs><style>.cls-1{fill:#1d1d1b;}.cls-2{fill:#fff;}</style></defs><title>Artboard 8</title><path class="cls-1" d="M78.18,26.63l7.24-15-4.5-2.17-3.44,7.13V0h-5V26.45A73.09,73.09,0,0,0,0,99.53v49.26a5,5,0,0,0,5,5H141.21a5,5,0,0,0,5-5V99.53A73.08,73.08,0,0,0,78.18,26.63Z"/><path class="cls-2" d="M46.08,101.55A23.61,23.61,0,0,1,22.49,78v-1.5H69.66V78A23.61,23.61,0,0,1,46.08,101.55ZM25.55,79.47a20.59,20.59,0,0,0,41.06,0Z"/><path class="cls-2" d="M100.11,101.54A23.6,23.6,0,0,1,76.54,78v-1.5h47.15V78A23.61,23.61,0,0,1,100.11,101.54ZM79.59,79.47a20.58,20.58,0,0,0,41.05,0Z"/><path class="cls-2" d="M46.31,110.65a41.72,41.72,0,0,1-19.76-5L28,103a38.74,38.74,0,0,0,18.33,4.62Z"/><path class="cls-2" d="M99.87,110.65v-3A38.78,38.78,0,0,0,118.21,103l1.42,2.64A41.72,41.72,0,0,1,99.87,110.65Z"/><path class="cls-2" d="M46.08,91.6A13.65,13.65,0,0,1,32.44,78v-1.5H59.71V78A13.65,13.65,0,0,1,46.08,91.6ZM35.55,79.47a10.64,10.64,0,0,0,21.06,0Z"/><path class="cls-2" d="M100.11,91.6A13.65,13.65,0,0,1,86.48,78v-1.5h27.27V78A13.65,13.65,0,0,1,100.11,91.6ZM89.59,79.47a10.63,10.63,0,0,0,21,0Z"/></svg>