<svg id="Layer_1" data-name="Layer 1" xmlns="http://www.w3.org/2000/svg" viewBox="0 0 182.65 114.29"><defs><style>.cls-1{fill:#fff;}.cls-2{fill:#1d1d1b;}</style></defs><title>Artboard 6</title><path class="cls-1" d="M166.56,61.76a46.8,46.8,0,0,0,.65-7.79V44.85a14.16,14.16,0,0,0,7.36-12.43v-4a14.25,14.25,0,0,0-.45-3.54,14.25,14.25,0,0,0,.45-3.54v-4A14.17,14.17,0,0,0,160.4,3.17H22.26A14.17,14.17,0,0,0,8.08,17.34v4a14.25,14.25,0,0,0,.45,3.54,14.25,14.25,0,0,0-.45,3.54v4a14.19,14.19,0,0,0,7.36,12.43V54a44,44,0,0,0,.36,5.67c.09.71.19,1.41.31,2.11-6.88,3.34-11,9-11,16.07C5.06,89.18,16,97.11,31.62,97.11A41.31,41.31,0,0,0,42.2,95.77,45.72,45.72,0,0,0,61.44,100a16,16,0,0,0,7,6.45,46.45,46.45,0,0,0,18.78,4.66q.8,0,1.59,0A46.55,46.55,0,0,0,102,109.2a16.2,16.2,0,0,0,6.64,1.42l.71,0h.13a16.18,16.18,0,0,0,14.38-10.69,45.55,45.55,0,0,0,16.59-4.14A41.28,41.28,0,0,0,151,97.11c15.63,0,26.55-7.93,26.55-19.29C177.59,70.81,173.43,65.1,166.56,61.76Z"/><path class="cls-2" d="M106.63,86.73a10.12,10.12,0,0,0-5.87-1.87,2,2,0,0,0,0,4h0a6.32,6.32,0,0,1,2.1.36,28.87,28.87,0,0,1-15.09,3.72,28.57,28.57,0,0,1-11.5-2.86,2,2,0,0,0-1.74,3.6,32.49,32.49,0,0,0,13.1,3.25c.37,0,.74,0,1.11,0a33,33,0,0,0,16.76-4.63A2.12,2.12,0,0,0,106,92a6.81,6.81,0,0,1,.7,2.58,2,2,0,0,0,2,1.89h.11a2,2,0,0,0,1.89-2.1A10.2,10.2,0,0,0,106.63,86.73Z"/><path class="cls-2" d="M151,72.71a28.6,28.6,0,0,0-4.36.33A31.68,31.68,0,0,0,153,54V32.42h7.36v-4H153V21.34h7.36v-4H22.26v4h7.35v7.08H22.26v4h7.35V54a29.54,29.54,0,0,0,.25,3.88A31.68,31.68,0,0,0,36,73a28.33,28.33,0,0,0-4.34-.33c-6.84,0-12.39,2.29-12.39,5.11s5.55,5.12,12.39,5.12c5.07,0,9.42-1.26,11.33-3.07A31.68,31.68,0,0,0,79,80.53L76.14,77.8l-.1-.1a1.6,1.6,0,0,1,.59-2.54l5.05-2.06,7.2-2.94a29.16,29.16,0,0,0,2.05-4.11c.14-.33.26-.66.39-1a31.83,31.83,0,0,0,48.37,14.81c1.91,1.8,6.27,3.07,11.35,3.07,6.83,0,12.38-2.29,12.38-5.12S157.87,72.71,151,72.71ZM75.12,71.46a5.57,5.57,0,0,0-3.38,4.14,5.45,5.45,0,0,0,.73,4A27.83,27.83,0,0,1,36.72,66.73a16.23,16.23,0,0,0,27.39-11.8V21.34H89.32V54a27.59,27.59,0,0,1-3.24,13Zm46.06,10.36A27.85,27.85,0,0,1,96.43,66.73a16.23,16.23,0,0,0,27.39-11.8V21.34H149V54A27.89,27.89,0,0,1,121.18,81.82Z"/></svg>