<svg id="Layer_1" data-name="Layer 1" xmlns="http://www.w3.org/2000/svg" viewBox="0 0 48.01 48.01"><defs><style>.cls-1{fill:#f05a88;}</style></defs><title>Artboard 5 copy 3</title><path class="cls-1" d="M41,40H25a1,1,0,0,0,0,2H41a1,1,0,0,0,0-2Z"/><path class="cls-1" d="M41.09,16.35,31.66,6.91a3,3,0,0,0-4.28,0l-20.53,21A3,3,0,0,0,6,30V39a3,3,0,0,0,3,3h9.08a3,3,0,0,0,2.08-.84l21-20.54A3,3,0,0,0,41.09,16.35Zm-15-5.28L36.94,21.94l-.57.56L25.51,11.64ZM18.74,39.72a.91.91,0,0,1-.68.28H9a1,1,0,0,1-1-1V30a1,1,0,0,1,.28-.68l15.83-16.2L34.94,23.89Zm21-20.52-1.37,1.34L27.47,9.64,28.8,8.28A.92.92,0,0,1,29.47,8a1.06,1.06,0,0,1,.77.33l9.44,9.43A1,1,0,0,1,39.74,19.2Z"/></svg>