<svg id="Layer_1" data-name="Layer 1" xmlns="http://www.w3.org/2000/svg" viewBox="0 0 185.38 181.3"><defs><style>.cls-1,.cls-6{fill:#fff;}.cls-2,.cls-7{fill:none;}.cls-2,.cls-6{stroke:#1d1d1b;}.cls-2,.cls-6,.cls-7{stroke-miterlimit:10;}.cls-2{stroke-width:0.91px;}.cls-3{font-size:12.65px;font-family:LeeSeoyun;}.cls-3,.cls-5{fill:#1d1d1b;}.cls-4{opacity:0.2;}.cls-7{stroke:#000;stroke-width:2px;}</style></defs><title>Artboard 12</title><path class="cls-1" d="M184.92,90.65c0,6.82-6.76,12.8-8.21,19.18-1.5,6.59,2,14.9-.91,20.85s-11.6,8.5-15.74,13.69-4.64,14.23-9.86,18.39-14.08,2.62-20.12,5.54-10.27,10.79-16.87,12.29c-6.38,1.45-13.7-3.78-20.52-3.78S78.55,182,72.16,180.59c-6.59-1.5-10.92-9.42-16.86-12.29s-14.93-1.39-20.12-5.54-5.7-13.17-9.86-18.39-12.83-7.65-15.75-13.69.59-14.26-.9-20.85C7.21,103.45.45,97.47.45,90.65s6.76-12.8,8.22-19.18c1.49-6.6-2-14.9.9-20.85s11.6-8.5,15.75-13.69S30,22.7,35.18,18.54,49.25,15.91,55.3,13,65.57,2.21,72.16.71c6.39-1.45,13.7,3.78,20.53,3.78S106.83-.74,113.21.71c6.6,1.5,10.92,9.42,16.87,12.29S145,14.39,150.2,18.54s5.69,13.17,9.86,18.39,12.83,7.65,15.75,13.69-.6,14.26.9,20.85C178.16,77.85,184.92,83.82,184.92,90.65Z"/><path class="cls-2" d="M184.92,90.65c0,6.82-6.76,12.8-8.21,19.18-1.5,6.59,2,14.9-.91,20.85s-11.6,8.5-15.74,13.69-4.64,14.23-9.86,18.39-14.08,2.62-20.12,5.54-10.27,10.79-16.87,12.29c-6.38,1.45-13.7-3.78-20.52-3.78S78.55,182,72.16,180.59c-6.59-1.5-10.92-9.42-16.86-12.29s-14.93-1.39-20.12-5.54-5.7-13.17-9.86-18.39-12.83-7.65-15.75-13.69.59-14.26-.9-20.85C7.21,103.45.45,97.47.45,90.65s6.76-12.8,8.22-19.18c1.49-6.6-2-14.9.9-20.85s11.6-8.5,15.75-13.69S30,22.7,35.18,18.54,49.25,15.91,55.3,13,65.57,2.21,72.16.71c6.39-1.45,13.7,3.78,20.53,3.78S106.83-.74,113.21.71c6.6,1.5,10.92,9.42,16.87,12.29S145,14.39,150.2,18.54s5.69,13.17,9.86,18.39,12.83,7.65,15.75,13.69-.6,14.26.9,20.85C178.16,77.85,184.92,83.82,184.92,90.65Z"/><text class="cls-3" transform="translate(73.3 32.19) rotate(-16)">I</text><text class="cls-3" transform="matrix(0.98, -0.21, 0.21, 0.98, 77.93, 30.89)"> </text><text class="cls-3" transform="translate(80.82 30.15) rotate(-7.42)">L</text><text class="cls-3" transform="matrix(1, -0.01, 0.01, 1, 88.22, 29.17)">O</text><text class="cls-3" transform="matrix(0.99, 0.12, -0.12, 0.99, 96.43, 29.12)">V</text><text class="cls-3" transform="matrix(0.97, 0.24, -0.24, 0.97, 103.84, 30.03)">E</text><text class="cls-3" transform="translate(110.62 31.76) rotate(18.38)"> </text><text class="cls-3" transform="translate(113.48 32.68) rotate(22.04)">I</text><text class="cls-3" transform="translate(117.93 34.41) rotate(27.58)">T</text><text class="cls-3" transform="translate(124.17 37.74) rotate(32.62)">!</text><text class="cls-3" transform="matrix(0.81, 0.59, -0.59, 0.81, 127.39, 39.81)"> </text><text class="cls-3" transform="matrix(0.76, 0.65, -0.65, 0.76, 129.85, 41.47)">B</text><text class="cls-3" transform="translate(135.23 46.06) rotate(46.97)">R</text><text class="cls-3" transform="matrix(0.6, 0.8, -0.8, 0.6, 139.99, 51.14)">E</text><text class="cls-3" transform="matrix(0.5, 0.86, -0.86, 0.5, 144.14, 56.69)">A</text><text class="cls-3" transform="matrix(0.4, 0.92, -0.92, 0.4, 147.64, 62.67)">D</text><text class="cls-3" transform="translate(150.46 69.32) rotate(71.16)"> </text><text class="cls-3" transform="translate(151.5 72.1) rotate(75.83)">A</text><text class="cls-3" transform="matrix(0.13, 0.99, -0.99, 0.13, 153.22, 78.83)">R</text><text class="cls-3" transform="translate(154.16 85.72) rotate(88.78)">T</text><text class="cls-3" transform="translate(154.23 92.81) rotate(93.38)"> </text><text class="cls-3" transform="matrix(-0.15, 0.99, -0.99, -0.15, 154.18, 95.76)">G</text><text class="cls-3" transform="translate(153.02 103.7) rotate(106.07)">O</text><text class="cls-3" transform="matrix(-0.4, 0.92, -0.92, -0.4, 150.77, 111.6)">O</text><text class="cls-3" transform="matrix(-0.51, 0.86, -0.86, -0.51, 147.46, 119.08)">D</text><text class="cls-3" transform="translate(143.67 125.24) rotate(125.64)"> </text><text class="cls-3" transform="matrix(-0.65, 0.76, -0.76, -0.65, 142.01, 127.73)">T</text><text class="cls-3" transform="translate(137.52 133.1) rotate(137.33)">O</text><text class="cls-3" transform="translate(131.51 138.67) rotate(144.91)">O</text><text class="cls-3" transform="translate(124.69 143.34) rotate(150.49)">!</text><text class="cls-3" transform="translate(112.08 149.1) rotate(164)">I</text><text class="cls-3" transform="matrix(-0.98, 0.21, -0.21, -0.98, 107.45, 150.41)"> </text><text class="cls-3" transform="translate(104.55 151.15) rotate(172.58)">L</text><text class="cls-3" transform="matrix(-1, 0.01, -0.01, -1, 97.15, 152.13)">O</text><text class="cls-3" transform="translate(88.95 152.18) rotate(-173)">V</text><text class="cls-3" transform="translate(81.53 151.26) rotate(-166.3)">E</text><text class="cls-3" transform="translate(74.76 149.53) rotate(-161.62)"> </text><text class="cls-3" transform="translate(71.9 148.62) rotate(-157.96)">I</text><text class="cls-3" transform="translate(67.45 146.89) rotate(-152.42)">T</text><text class="cls-3" transform="matrix(-0.84, -0.54, 0.54, -0.84, 61.21, 143.56)">!</text><text class="cls-3" transform="translate(57.99 141.49) rotate(-144.19)"> </text><text class="cls-3" transform="matrix(-0.76, -0.65, 0.65, -0.76, 55.53, 139.83)">B</text><text class="cls-3" transform="translate(50.14 135.24) rotate(-133.03)">R</text><text class="cls-3" transform="translate(45.38 130.16) rotate(-126.61)">E</text><text class="cls-3" transform="translate(41.23 124.6) rotate(-120.18)">A</text><text class="cls-3" transform="matrix(-0.4, -0.92, 0.92, -0.4, 37.74, 118.63)">D</text><text class="cls-3" transform="translate(34.92 111.98) rotate(-108.84)"> </text><text class="cls-3" transform="translate(33.87 109.19) rotate(-104.17)">A</text><text class="cls-3" transform="translate(32.16 102.46) rotate(-97.67)">R</text><text class="cls-3" transform="matrix(-0.02, -1, 1, -0.02, 31.22, 95.57)">T</text><text class="cls-3" transform="matrix(0.06, -1, 1, 0.06, 31.14, 88.49)"> </text><text class="cls-3" transform="translate(31.19 85.54) rotate(-81.51)">G</text><text class="cls-3" transform="translate(32.35 77.6) rotate(-73.93)">O</text><text class="cls-3" transform="translate(34.61 69.7) rotate(-66.24)">O</text><text class="cls-3" transform="matrix(0.51, -0.86, 0.86, 0.51, 37.92, 62.21)">D</text><text class="cls-3" transform="translate(41.7 56.05) rotate(-54.36)"> </text><text class="cls-3" transform="matrix(0.65, -0.76, 0.76, 0.65, 43.37, 53.57)">T</text><text class="cls-3" transform="translate(47.86 48.19) rotate(-42.67)">O</text><text class="cls-3" transform="translate(53.87 42.63) rotate(-35.09)">O</text><text class="cls-3" transform="translate(60.69 37.96) rotate(-29.51)">!</text><g class="cls-4"><path class="cls-5" d="M177.62,90.65c0,6.28-6.23,11.78-7.56,17.66-1.38,6.07,1.81,13.72-.84,19.2s-10.68,7.83-14.5,12.61-4.27,13.1-9.08,16.93-13,2.42-18.52,5.1-9.46,9.94-15.53,11.32C105.71,174.8,99,170,92.69,170s-13,4.81-18.9,3.48c-6.07-1.38-10.06-8.68-15.53-11.32s-13.75-1.28-18.53-5.1-5.24-12.13-9.08-16.93-11.81-7.05-14.5-12.61.55-13.13-.83-19.2C14,102.43,7.76,96.93,7.76,90.65S14,78.87,15.32,73c1.38-6.07-1.81-13.72.83-19.2S26.83,46,30.65,41.18s4.28-13.1,9.08-16.93,13-2.42,18.53-5.1S67.72,9.21,73.79,7.83c5.88-1.34,12.61,3.48,18.9,3.48s13-4.82,18.9-3.48c6.07,1.38,10,8.67,15.53,11.32s13.74,1.28,18.52,5.1,5.25,12.13,9.08,16.93,11.82,7,14.5,12.61-.54,13.13.84,19.2C171.39,78.87,177.62,84.37,177.62,90.65Z"/></g><path class="cls-6" d="M130.05,53.29c-22.59-22.6-56.29-25.52-75.26-6.55a40.16,40.16,0,0,0-3.09,3.47,38.32,38.32,0,0,0-3.46,3.08c-19,19-16.05,52.67,6.55,75.26s56.28,25.51,75.25,6.54a38.32,38.32,0,0,0,3.08-3.46,40.16,40.16,0,0,0,3.47-3.09C155.56,109.57,152.64,75.87,130.05,53.29ZM80.27,78.78a12.92,12.92,0,0,1,2.67-3.89c5.91-5.91,16.41-5,23.46,2s7.95,17.54,2,23.45a12.92,12.92,0,0,1-3.89,2.67c-6,2.67-13.89,1-19.57-4.7S77.6,84.73,80.27,78.78Z"/><path class="cls-6" d="M82.94,74.89a13,13,0,0,0-2.49,3.53c6-2.89,14.13-1.26,19.93,4.54s7.42,13.93,4.53,19.93a12.83,12.83,0,0,0,3.53-2.5c5.91-5.91,5-16.41-2-23.45S88.85,69,82.94,74.89Z"/><path class="cls-6" d="M147.89,85.49c-.2-.94-.42-1.89-.67-2.83v0c-.37-1.42-.8-2.85-1.29-4.26-.65-1.88-1.4-3.76-2.25-5.61-.42-.92-.87-1.84-1.33-2.75-.24-.46-.49-.92-.74-1.38-.49-.9-1-1.8-1.55-2.69-.28-.45-.56-.9-.85-1.34-.73-1.14-1.51-2.26-2.32-3.37-.27-.37-.54-.73-.83-1.1-.51-.67-1-1.33-1.57-2-.69-.84-1.41-1.66-2.14-2.47s-1.5-1.61-2.29-2.4c-22.59-22.6-56.29-25.52-75.26-6.55a40.16,40.16,0,0,0-3.09,3.47C43.33,60.69,40.61,74.6,43.23,88.52v0c2.05,11.94,3.37,24.23,5.56,25.4,3.09,1.54,1.67-3.74,3.45-3.13h0q1.66,2.6,3.61,5.07c3.21,3.84,3.73,7.88,6,8.31a8.92,8.92,0,0,1,4.13,2.07s0,0,0,0A66.18,66.18,0,0,0,81.69,136a.26.26,0,0,0,.09.05c2.61,1.23,5.3,3.9,4.74,7.83a23,23,0,0,1-.64,2.26,3.6,3.6,0,1,0,6.19,2.5c0-.5-.06-1-.08-1.43-.22-5.17.44-7.55,2.15-7.24h0a55.47,55.47,0,0,0,10.65,1.09h0s6.77.62,8.82,3.48l.31.52c3.37,6-2.25,5.92-2.25,13a5.78,5.78,0,1,0,10.76-2.92,8.4,8.4,0,0,1-.17-1.71c0-5.71,4.83-15,13.45-24l0,0,.22-.23.3-.28.29-.28c.26-.25.49-.52.74-.79s.26-.26.4-.4l0,0A43.93,43.93,0,0,0,149.06,99,54.51,54.51,0,0,0,147.89,85.49Zm-39.45,14.9a12.92,12.92,0,0,1-3.89,2.67c-6,2.67-13.89,1-19.57-4.7S77.6,84.73,80.27,78.78a12.92,12.92,0,0,1,2.67-3.89c5.91-5.91,16.41-5,23.46,2S114.35,94.48,108.44,100.39Z"/><line class="cls-7" x1="131.76" y1="100.44" x2="128.54" y2="104.42"/><line class="cls-7" x1="123.71" y1="89.91" x2="122.98" y2="85.08"/><line class="cls-7" x1="116.1" y1="66.82" x2="121.45" y2="62.98"/><line class="cls-7" x1="130.15" y1="55.08" x2="133.37" y2="59.91"/><line class="cls-7" x1="86.25" y1="64.41" x2="86.2" y2="72.53"/><line class="cls-7" x1="70.01" y1="57.85" x2="65.18" y2="57.13"/><line class="cls-7" x1="65.32" y1="78.93" x2="59.76" y2="86.75"/><line class="cls-7" x1="70.22" y1="101.76" x2="77.1" y2="111.71"/><line class="cls-7" x1="92.42" y1="119.17" x2="88.44" y2="124.74"/><line class="cls-7" x1="130.15" y1="119.39" x2="138.64" y2="121.95"/><line class="cls-7" x1="98.69" y1="38.83" x2="98.69" y2="44.65"/><line class="cls-7" x1="86.22" y1="42.56" x2="81.56" y2="42.78"/><line class="cls-7" x1="49.3" y1="64.9" x2="56.32" y2="69.75"/><line class="cls-7" x1="138.86" y1="78.35" x2="140.63" y2="72.42"/><line class="cls-7" x1="56.32" y1="99.02" x2="50.39" y2="99.02"/><line class="cls-7" x1="106.37" y1="130.59" x2="114.27" y2="129.05"/><line class="cls-7" x1="115.81" y1="112.15" x2="115.81" y2="119.39"/><line class="cls-7" x1="141.71" y1="97.44" x2="149.06" y2="98.99"/></svg>