<svg id="Layer_1" data-name="Layer 1" xmlns="http://www.w3.org/2000/svg" viewBox="0 0 163.56 191.59"><defs><style>.cls-1{fill:#fff;}.cls-2{fill:#1d1d1b;}.cls-3,.cls-4{fill:none;stroke:#1d1d1b;stroke-miterlimit:10;}.cls-4{stroke-width:6px;}</style></defs><title>Artboard 9</title><path class="cls-1" d="M163.56,67.19V188.76a2.83,2.83,0,0,1-2.83,2.83H2.83A2.83,2.83,0,0,1,0,188.76V2.83A2.83,2.83,0,0,1,2.83,0h78a2.82,2.82,0,0,1,1.78.63L162.5,65A2.84,2.84,0,0,1,163.56,67.19Z"/><path class="cls-2" d="M26.24,131.78V151.1H22V131.78H8v54H22V163.11h4.2V185.8h14v-54Z"/><path class="cls-2" d="M108.33,131.78,105.09,157l-2-13.74c-.57-4.42-1.13-8.24-1.66-11.49H83.26v54H95.53l0-35.63,5.15,35.63h8.71l4.89-36.47V185.8H126.6v-54Z"/><path class="cls-2" d="M155.06,142.59V131.78H132.23v54h22.83V175h-8.77V163.11h8.77V152.84h-8.77V142.59Z"/><path class="cls-2" d="M79,166.29H44.52V131.78H79Zm-32.5-2H77V133.78H46.52Z"/><rect class="cls-2" x="45.52" y="148.03" width="32.51" height="2"/><rect class="cls-2" x="60.77" y="132.78" width="2" height="32.51"/><line class="cls-3" x1="155.06" y1="69.9" x2="81.78" y2="10.91"/><polyline class="cls-4" points="54.93 32.53 54.93 10.91 8.5 10.91 8.5 69.91 81.78 10.91 155.06 69.9"/></svg>