<svg id="Layer_1" data-name="Layer 1" xmlns="http://www.w3.org/2000/svg" viewBox="0 0 248.34 181.74"><defs><style>.cls-1{fill:#fff;}.cls-2{fill:#1d1d1b;}</style></defs><title>Artboard 10</title><path class="cls-1" d="M236.83,118.39l-9.44-3.31a14,14,0,0,0-4.69-.8,14.17,14.17,0,0,0-13.37,9.48c-.2.55-.39,1.08-.59,1.58a69.17,69.17,0,0,1-1.14-19.92A68,68,0,0,1,212,85.34a14.18,14.18,0,0,0,16.62,7l9.58-2.86a14.18,14.18,0,0,0,9.53-17.64c-5.41-18.12-16.28-29.52-30-31.66a19.92,19.92,0,0,0-19.47-24.53,19.52,19.52,0,0,0-2.88.23,20,20,0,0,0-39.28.72,60.74,60.74,0,0,0-15.77-2.17,48.22,48.22,0,0,0-14.91,2.27,40.59,40.59,0,0,0-16.94,10.49,14.14,14.14,0,0,0-12.8-10.79L86,15.77l-1,0a14.18,14.18,0,0,0-13.37,9.47l-21.13,60-.1-.06L53,40.57a14.17,14.17,0,0,0-13.34-15l-10-.57-.82,0A14.17,14.17,0,0,0,14.75,38.38L13,69.36a14.17,14.17,0,0,0-5.16,4.72L2.33,82.44a14.17,14.17,0,0,0,4.06,19.63l4.55,3L7.43,166.19a14.19,14.19,0,0,0,13.34,15l10,.57c.27,0,.54,0,.81,0a14.17,14.17,0,0,0,14.15-13.36l2.23-39,2,1.34a14.15,14.15,0,0,0,7.78,2.33,14.33,14.33,0,0,0,4.53-.74l7.47-2.52a15.12,15.12,0,0,0,1.81-.77l4.5,22.55a37,37,0,0,0,36.26,29.78h0a37.34,37.34,0,0,0,7.3-.73,36.79,36.79,0,0,0,18.83-10l2.38-.48A14.18,14.18,0,0,0,152,153.43l-3.36-16.82c1.39.12,2.81.19,4.28.19a42.91,42.91,0,0,0,18.21-3.9,72.63,72.63,0,0,0,4.17,13.6c6.28,14.79,17.19,23.84,29.91,24.82.75.06,1.53.09,2.3.09,16.37,0,30.24-12.74,38-35A14.16,14.16,0,0,0,236.83,118.39Z"/><polygon class="cls-2" points="105.97 134.76 115.77 132.75 94.69 30.57 85.08 29.92 57.94 107.01 35.87 92.51 38.89 39.76 28.9 39.19 26.21 86.17 19.66 81.86 14.17 90.22 25.55 97.7 21.59 167 31.57 167.57 35.21 104.04 57.78 118.88 65.24 116.36 88.53 50.21 105.97 134.76"/><path class="cls-2" d="M134.81,139.84h0l-7.09-35.48-9.8,2L125,141.8a12.85,12.85,0,1,1-25.2,5l-7.09-35.48-9.81,2L90,148.79a22.83,22.83,0,0,0,41,8.84l7.14-1.43Z"/><path class="cls-2" d="M150.22,76.76c-11.33-3.62-24.17-7.72-27.74-15.37-1.7-3.64-1.39-8.22.94-14a15.39,15.39,0,0,1,9.4-7.68c7.44-2.4,17.24-.88,26.89,4.18l4.64-8.86c-12-6.3-24.62-8.06-34.61-4.84A25.39,25.39,0,0,0,114.4,43.1l-.16.34c-3.46,8.45-3.74,15.91-.82,22.18,5.41,11.61,20.47,16.42,33.76,20.67,9.86,3.15,20.07,6.4,22.06,11.2.27.65,1.09,2.62-1.14,7.08-9.9,14.83-28.89,4.72-29.68,4.29l-4.84,8.75a41.83,41.83,0,0,0,19.32,5c8.46,0,17.41-3.12,23.72-12.81l.26-.45c3-5.8,3.51-11.09,1.59-15.72C174.7,84.58,162.81,80.78,150.22,76.76Z"/><rect class="cls-2" x="153.86" y="51.81" width="37.32" height="10" transform="translate(55.83 195.99) rotate(-68.25)"/><path class="cls-2" d="M207.05,147.22c-7.92-.61-15.41-19.08-13.58-42.89s12.06-40.92,20-40.3c4.23.32,8.49,6,11.11,14.76l9.58-2.86C230.21,62.7,223,54.73,214.24,54.06c-15.23-1.18-28.47,20.1-30.74,49.5S191,156,206.29,157.19c.4,0,.8.05,1.2.05,9.87,0,19-9.41,24.65-25.48l-9.44-3.31C218.62,140.09,212.3,147.64,207.05,147.22Z"/><circle class="cls-2" cx="175.77" cy="20.01" r="5.84"/><circle class="cls-2" cx="198.23" cy="35.69" r="5.84" transform="translate(32.83 150.62) rotate(-45)"/></svg>