<?xml version="1.0" encoding="UTF-8"?>
<svg id="Layer_1" data-name="Layer 1" xmlns="http://www.w3.org/2000/svg" viewBox="0 0 18 18">
  <defs>
    <style>
      .cls-1 {
        fill: #fa273f;
      }

      .cls-2 {
        fill: #fff;
      }
    </style>
  </defs>
  <rect class="cls-1" x="0" width="18" height="18"/>
  <polygon class="cls-2" points="11.98 2 9.98 2 9.98 4 7.98 4 5.98 4 5.98 6 5.98 8 5.98 10 5.98 12 3.98 12 3.98 14 3.98 16 5.98 16 7.98 16 7.98 14 7.98 12 7.98 10 7.98 8 9.98 8 9.98 6 11.98 6 11.98 8 11.98 10 9.98 10 9.98 12 9.98 14 11.98 14 13.98 14 13.98 12 13.98 10 13.98 8 13.98 6 13.98 4 13.98 2 11.98 2"/>
</svg>