<?xml version="1.0" encoding="UTF-8"?>
<svg id="Layer_1" data-name="Layer 1" xmlns="http://www.w3.org/2000/svg" viewBox="0 0 18 18">
  <defs>
    <style>
      .cls-1 {
        fill: #fff;
      }

      .cls-2 {
        fill: #3f3ff3;
      }
    </style>
  </defs>
  <rect class="cls-2" x="0" width="18" height="18"/>
  <g>
    <rect class="cls-1" x="6.54" y="3.27" width="1.64" height="1.64"/>
    <rect class="cls-1" x="11.45" y="3.27" width="1.64" height="1.64"/>
    <rect class="cls-1" x="4.91" y="4.91" width="1.64" height="1.64"/>
    <polygon class="cls-1" points="9.82 4.91 8.18 4.91 8.18 6.54 9.82 6.54 11.45 6.54 11.45 4.91 9.82 4.91"/>
    <rect class="cls-1" x="6.54" y="6.54" width="1.64" height="1.64"/>
    <rect class="cls-1" x="11.45" y="6.54" width="1.64" height="1.64"/>
    <polygon class="cls-1" points="4.91 9.82 4.91 11.45 4.91 13.09 6.54 13.09 6.54 11.45 6.54 9.82 6.54 8.18 4.91 8.18 4.91 9.82"/>
    <polygon class="cls-1" points="8.18 8.18 8.18 9.82 9.82 9.82 11.45 9.82 11.45 8.18 9.82 8.18 8.18 8.18"/>
  </g>
</svg>