<?xml version="1.0" encoding="UTF-8"?>
<svg id="Layer_1" data-name="Layer 1" xmlns="http://www.w3.org/2000/svg" viewBox="0 0 18 18">
  <defs>
    <style>
      .cls-1 {
        fill: #448aff;
      }

      .cls-2 {
        fill: #fff;
      }
    </style>
  </defs>
  <rect class="cls-2" x="0" width="18" height="18"/>
  <g>
    <polygon class="cls-1" points="9.82 3.27 8.18 3.27 8.18 4.91 9.82 4.91 9.82 6.54 9.82 8.18 9.82 9.82 8.18 9.82 8.18 11.45 9.82 11.45 9.82 13.09 8.18 13.09 8.18 11.45 6.54 11.45 6.54 13.09 6.54 14.72 8.18 14.72 9.82 14.72 11.45 14.72 11.45 13.09 11.45 11.45 11.45 9.82 11.45 8.18 11.45 6.54 11.45 4.91 11.45 3.27 9.82 3.27"/>
    <polygon class="cls-1" points="8.18 6.54 8.18 4.91 6.54 4.91 6.54 6.54 6.54 8.18 6.54 9.82 8.18 9.82 8.18 8.18 8.18 6.54"/>
  </g>
</svg>