<?xml version="1.0" encoding="UTF-8"?>
<svg id="Layer_1" data-name="Layer 1" xmlns="http://www.w3.org/2000/svg" viewBox="0 0 18 18">
  <defs>
    <style>
      .cls-1 {
        fill: #fff;
      }

      .cls-2 {
        fill: #04e532;
      }
    </style>
  </defs>
  <rect class="cls-1" x="0" width="18" height="18"/>
  <path class="cls-1" d="M14.82,4.39c0,.94-.76,1.71-1.71,1.71s-1.71-.76-1.71-1.71.76-1.71,1.71-1.71,1.71.76,1.71,1.71"/>
  <path class="cls-1" d="M8.63,5.85c-2.51,0-4.54,2.03-4.54,4.54s2.03,4.54,4.54,4.54,4.54-2.03,4.54-4.54-2.03-4.54-4.54-4.54M8.63,8.41c1.09,0,1.98.89,1.98,1.98s-.89,1.98-1.98,1.98-1.98-.89-1.98-1.98.89-1.98,1.98-1.98"/>
  <g>
    <polygon class="cls-2" points="13.09 1.64 11.45 1.64 11.45 3.27 11.45 4.91 13.09 4.91 14.72 4.91 14.72 3.27 14.72 1.64 13.09 1.64"/>
    <path class="cls-2" d="M11.45,6.54h-1.64v-1.64h-3.27v1.64h-1.64v1.64h-1.64v3.27h1.64v1.64h1.64v1.64h3.27v-1.64h1.64v-1.64h1.64v-3.27h-1.64v-1.64ZM9.82,9.82v1.64h-3.27v-3.27h3.27v1.64Z"/>
  </g>
</svg>