<?xml version="1.0" encoding="UTF-8"?>
<svg id="Layer_1" data-name="Layer 1" xmlns="http://www.w3.org/2000/svg" viewBox="0 0 18 18">
  <defs>
    <style>
      .cls-1 {
        fill: #d21489;
      }

      .cls-2 {
        fill: #fff;
      }
    </style>
  </defs>
  <rect class="cls-1" width="18" height="18"/>
  <g>
    <polygon class="cls-2" points="4.91 4.91 4.91 6.54 4.91 8.18 4.91 9.82 4.91 11.45 6.54 11.45 6.54 9.82 6.54 8.18 6.54 6.54 6.54 4.91 6.54 3.27 4.91 3.27 4.91 4.91"/>
    <polygon class="cls-2" points="11.45 4.91 11.45 6.54 11.45 8.18 11.45 9.82 11.45 11.45 13.09 11.45 13.09 9.82 13.09 8.18 13.09 6.54 13.09 4.91 13.09 3.27 11.45 3.27 11.45 4.91"/>
    <polygon class="cls-2" points="1.64 6.54 1.64 8.18 1.64 9.82 3.27 9.82 3.27 8.18 3.27 6.54 3.27 4.91 1.64 4.91 1.64 6.54"/>
    <polygon class="cls-2" points="8.18 8.18 8.18 9.82 8.18 11.45 8.18 13.09 8.18 14.72 9.82 14.72 9.82 13.09 9.82 11.45 9.82 9.82 9.82 8.18 9.82 6.54 8.18 6.54 8.18 8.18"/>
    <polygon class="cls-2" points="14.72 4.91 14.72 6.54 14.72 8.18 14.72 9.82 16.36 9.82 16.36 8.18 16.36 6.54 16.36 4.91 14.72 4.91"/>
  </g>
</svg>