<svg width="920" height="500" viewBox="0 0 920 500" fill="none" xmlns="http://www.w3.org/2000/svg">
<g clip-path="url(#clip0_58_54)">
<path d="M-95 461.066V284.734L53.6415 292.609C77.2991 293.865 100.478 297.355 122.186 302.953L163.614 313.615C174.652 316.467 186.058 318.851 197.684 320.767L223.586 325.023C253.829 330.004 286.28 327.428 313.139 317.957L321.38 315.041C348.202 305.57 377.415 298.611 407.99 294.418L446.094 292.875C450.459 292.698 454.798 292.113 459.054 291.127L520.575 276.881C535.696 274.348 549.641 269.921 561.451 263.919L611.194 238.677C626.059 231.122 645.338 227.142 665.095 227.546L687.171 227.993C713.22 228.525 738.643 223.332 758.364 213.456L793.832 195.706C807.74 188.725 826.614 186.044 844.569 188.491L946.3 202.347L1075 221.991V461.066" stroke="#F7DBC6" stroke-width="3"/>
<path d="M1075 476.751V279.902L965.837 267.898C942.658 265.344 920.545 260.258 900.641 252.915L835.224 225.225C824.112 220.522 808.77 221.033 798.689 226.46L739.416 258.3C730.843 262.897 718.334 263.982 707.811 261.066L657.295 247.019C643.388 243.146 626.868 244.402 615.131 250.191L559.096 277.859C548.978 282.86 536.579 286.074 523.408 287.117L474.51 290.969C460.345 292.097 447.063 295.63 436.357 301.122L384.81 327.64C371.197 334.238 351.734 334.941 336.87 329.322L305.67 312.529C286.464 302.186 256.478 302.611 238.192 313.508L171.892 352.968C164.129 357.607 151.473 357.969 142.937 353.819L121.119 343.22C103.054 334.472 76.5632 334.941 59.4547 344.305L29.616 360.651C11.8453 370.399 -11.7387 375.826 -36.2057 375.826H-95V476.751" stroke="#EF7A1C" stroke-width="2"/>
</g>
<defs>
<clipPath id="clip0_58_54">
<rect width="920" height="500" fill="white"/>
</clipPath>
</defs>
</svg>
