<svg width="920" height="500" viewBox="0 0 920 500" fill="none" xmlns="http://www.w3.org/2000/svg">
<g clip-path="url(#clip0_58_54)">
<path d="M-125 477.066V300.734L23.6415 308.609C47.2991 309.865 70.4783 313.355 92.1858 318.953L133.614 329.615C144.652 332.467 156.058 334.851 167.684 336.767L193.586 341.023C223.829 346.004 256.28 343.428 283.139 333.957L291.38 331.041C318.202 321.57 347.415 314.611 377.99 310.418L416.094 308.875C420.459 308.698 424.798 308.113 429.054 307.127L490.575 292.881C505.696 290.348 519.641 285.921 531.451 279.919L581.194 254.677C596.059 247.122 615.338 243.142 635.095 243.546L657.171 243.993C683.22 244.525 708.643 239.332 728.364 229.456L763.832 211.706C777.74 204.725 796.614 202.044 814.569 204.491L916.3 218.347L1045 237.991V477.066" stroke="#F7DBC6" stroke-width="3"/>
<line x1="57.7944" y1="410.545" x2="57.7944" y2="174.525" stroke="black" stroke-opacity="0.4" stroke-width="0.5" stroke-dasharray="2 2"/>
<line x1="242.076" y1="410.545" x2="242.076" y2="174.525" stroke="black" stroke-opacity="0.4" stroke-width="0.5" stroke-dasharray="2 2"/>
<line x1="426.356" y1="410.545" x2="426.356" y2="174.525" stroke="black" stroke-opacity="0.4" stroke-width="0.5" stroke-dasharray="2 2"/>
<line x1="610.637" y1="410.545" x2="610.637" y2="174.525" stroke="black" stroke-opacity="0.4" stroke-width="0.5" stroke-dasharray="2 2"/>
<line x1="794.919" y1="410.545" x2="794.919" y2="174.525" stroke="black" stroke-opacity="0.4" stroke-width="0.5" stroke-dasharray="2 2"/>
<path d="M775.688 190.645C775.052 190.645 774.485 190.536 773.988 190.317C773.493 190.095 773.103 189.792 772.816 189.405C772.532 189.016 772.385 188.567 772.377 188.059H774.235C774.246 188.272 774.316 188.459 774.444 188.621C774.574 188.78 774.748 188.904 774.964 188.992C775.18 189.08 775.422 189.124 775.692 189.124C775.974 189.124 776.222 189.074 776.438 188.975C776.654 188.875 776.823 188.738 776.945 188.561C777.067 188.385 777.128 188.182 777.128 187.952C777.128 187.719 777.063 187.513 776.932 187.334C776.805 187.152 776.62 187.01 776.378 186.908C776.14 186.806 775.856 186.755 775.526 186.755H774.712V185.399H775.526C775.805 185.399 776.05 185.351 776.263 185.255C776.479 185.158 776.647 185.024 776.766 184.854C776.885 184.681 776.945 184.479 776.945 184.249C776.945 184.03 776.893 183.838 776.787 183.674C776.685 183.506 776.54 183.375 776.353 183.282C776.168 183.188 775.952 183.141 775.705 183.141C775.455 183.141 775.226 183.186 775.019 183.277C774.812 183.365 774.645 183.492 774.52 183.657C774.395 183.821 774.329 184.015 774.32 184.236H772.552C772.56 183.733 772.704 183.29 772.982 182.907C773.26 182.523 773.635 182.223 774.107 182.007C774.582 181.789 775.117 181.679 775.714 181.679C776.316 181.679 776.843 181.789 777.295 182.007C777.746 182.226 778.097 182.522 778.347 182.894C778.6 183.263 778.725 183.678 778.722 184.138C778.725 184.627 778.573 185.034 778.266 185.361C777.962 185.688 777.566 185.895 777.077 185.983V186.051C777.719 186.134 778.208 186.357 778.543 186.72C778.881 187.081 779.049 187.533 779.046 188.076C779.049 188.573 778.905 189.015 778.616 189.401C778.329 189.787 777.932 190.091 777.427 190.313C776.921 190.534 776.341 190.645 775.688 190.645ZM784.169 181.799V190.526H782.324V183.55H782.273L780.274 184.803V183.167L782.435 181.799H784.169ZM786.111 188.992V187.539L789.755 181.799H791.008V183.81H790.266L787.969 187.445V187.513H793.147V188.992H786.111ZM790.3 190.526V188.549L790.334 187.905V181.799H792.064V190.526H790.3ZM796.202 189.333L796.155 189.801C796.118 190.176 796.047 190.55 795.942 190.922C795.84 191.297 795.732 191.637 795.618 191.941C795.508 192.245 795.418 192.483 795.35 192.657H794.174C794.216 192.489 794.275 192.255 794.349 191.953C794.422 191.655 794.492 191.32 794.557 190.948C794.623 190.576 794.664 190.196 794.681 189.81L794.702 189.333H796.202ZM800.962 190.645C800.36 190.645 799.823 190.534 799.351 190.313C798.883 190.091 798.51 189.786 798.235 189.397C797.959 189.007 797.816 188.561 797.805 188.059H799.594C799.614 188.397 799.756 188.671 800.02 188.881C800.285 189.091 800.599 189.196 800.962 189.196C801.252 189.196 801.508 189.132 801.729 189.005C801.954 188.874 802.128 188.693 802.253 188.463C802.381 188.23 802.445 187.963 802.445 187.662C802.445 187.355 802.38 187.086 802.249 186.853C802.121 186.62 801.944 186.438 801.716 186.307C801.489 186.176 801.229 186.11 800.937 186.107C800.681 186.107 800.432 186.159 800.191 186.265C799.952 186.37 799.766 186.513 799.633 186.695L797.992 186.401L798.405 181.799H803.741V183.307H799.927L799.701 185.493H799.752C799.905 185.277 800.137 185.098 800.447 184.956C800.756 184.814 801.103 184.743 801.486 184.743C802.012 184.743 802.481 184.867 802.893 185.114C803.305 185.361 803.63 185.701 803.868 186.132C804.107 186.561 804.225 187.056 804.222 187.615C804.225 188.203 804.089 188.726 803.813 189.184C803.54 189.638 803.158 189.996 802.667 190.257C802.178 190.516 801.61 190.645 800.962 190.645ZM809.306 181.799V190.526H807.461V183.55H807.41L805.411 184.803V183.167L807.572 181.799H809.306ZM814.606 190.645C813.97 190.645 813.403 190.536 812.906 190.317C812.411 190.095 812.021 189.792 811.734 189.405C811.45 189.016 811.303 188.567 811.295 188.059H813.153C813.164 188.272 813.234 188.459 813.362 188.621C813.492 188.78 813.666 188.904 813.882 188.992C814.097 189.08 814.34 189.124 814.61 189.124C814.892 189.124 815.14 189.074 815.356 188.975C815.572 188.875 815.741 188.738 815.863 188.561C815.985 188.385 816.046 188.182 816.046 187.952C816.046 187.719 815.981 187.513 815.85 187.334C815.722 187.152 815.538 187.01 815.296 186.908C815.058 186.806 814.774 186.755 814.444 186.755H813.63V185.399H814.444C814.722 185.399 814.968 185.351 815.181 185.255C815.397 185.158 815.565 185.024 815.684 184.854C815.803 184.681 815.863 184.479 815.863 184.249C815.863 184.03 815.811 183.838 815.705 183.674C815.603 183.506 815.458 183.375 815.271 183.282C815.086 183.188 814.87 183.141 814.623 183.141C814.373 183.141 814.144 183.186 813.937 183.277C813.73 183.365 813.563 183.492 813.438 183.657C813.313 183.821 813.247 184.015 813.238 184.236H811.47C811.478 183.733 811.622 183.29 811.9 182.907C812.178 182.523 812.553 182.223 813.025 182.007C813.499 181.789 814.035 181.679 814.632 181.679C815.234 181.679 815.761 181.789 816.213 182.007C816.664 182.226 817.015 182.522 817.265 182.894C817.518 183.263 817.643 183.678 817.64 184.138C817.643 184.627 817.491 185.034 817.184 185.361C816.88 185.688 816.484 185.895 815.995 185.983V186.051C816.637 186.134 817.126 186.357 817.461 186.72C817.799 187.081 817.967 187.533 817.964 188.076C817.967 188.573 817.823 189.015 817.534 189.401C817.247 189.787 816.85 190.091 816.345 190.313C815.839 190.534 815.259 190.645 814.606 190.645Z" fill="#303030"/>
<path d="M594.791 238.783V237.896L596.862 235.979C597.039 235.808 597.186 235.655 597.306 235.518C597.427 235.382 597.519 235.249 597.581 235.118C597.644 234.985 597.675 234.842 597.675 234.689C597.675 234.518 597.636 234.372 597.558 234.249C597.481 234.124 597.375 234.028 597.24 233.962C597.106 233.893 596.953 233.859 596.783 233.859C596.605 233.859 596.45 233.895 596.317 233.967C596.184 234.039 596.082 234.142 596.01 234.277C595.938 234.411 595.902 234.571 595.902 234.757H594.735C594.735 234.376 594.821 234.046 594.993 233.766C595.165 233.485 595.407 233.268 595.718 233.115C596.028 232.962 596.386 232.885 596.791 232.885C597.208 232.885 597.571 232.959 597.879 233.106C598.19 233.252 598.432 233.455 598.604 233.714C598.776 233.974 598.862 234.271 598.862 234.606C598.862 234.826 598.819 235.043 598.732 235.257C598.647 235.471 598.494 235.709 598.274 235.97C598.055 236.23 597.745 236.541 597.345 236.905L596.496 237.737V237.777H598.939V238.783H594.791ZM601.936 232.885C602.235 232.885 602.523 232.935 602.799 233.035C603.078 233.136 603.326 233.296 603.544 233.516C603.763 233.735 603.937 234.027 604.063 234.391C604.192 234.752 604.258 235.196 604.259 235.723C604.259 236.217 604.204 236.659 604.092 237.047C603.982 237.433 603.824 237.762 603.617 238.033C603.411 238.303 603.162 238.51 602.87 238.652C602.579 238.792 602.253 238.862 601.893 238.862C601.505 238.862 601.162 238.787 600.865 238.638C600.567 238.486 600.328 238.281 600.146 238.021C599.966 237.76 599.857 237.466 599.819 237.141H601.032C601.08 237.353 601.179 237.517 601.33 237.635C601.482 237.75 601.669 237.808 601.893 237.808C602.272 237.808 602.56 237.643 602.757 237.314C602.954 236.982 603.053 236.529 603.055 235.953H603.015C602.928 236.124 602.811 236.27 602.663 236.393C602.515 236.515 602.346 236.608 602.154 236.675C601.965 236.741 601.763 236.774 601.549 236.774C601.206 236.774 600.901 236.694 600.632 236.533C600.363 236.372 600.151 236.15 599.995 235.868C599.84 235.586 599.762 235.264 599.762 234.902C599.76 234.512 599.85 234.164 600.032 233.859C600.214 233.554 600.468 233.316 600.794 233.143C601.121 232.969 601.502 232.883 601.936 232.885ZM601.944 233.851C601.753 233.851 601.582 233.896 601.433 233.987C601.285 234.078 601.168 234.2 601.08 234.354C600.995 234.507 600.954 234.678 600.955 234.868C600.955 235.059 600.997 235.231 601.08 235.385C601.166 235.536 601.281 235.658 601.427 235.749C601.575 235.838 601.743 235.882 601.933 235.882C602.075 235.882 602.206 235.856 602.328 235.802C602.449 235.749 602.554 235.677 602.643 235.584C602.734 235.489 602.805 235.38 602.856 235.257C602.907 235.134 602.933 235.003 602.933 234.865C602.931 234.681 602.887 234.513 602.802 234.359C602.717 234.206 602.599 234.083 602.45 233.99C602.3 233.897 602.132 233.851 601.944 233.851ZM607.282 238.862C606.845 238.862 606.455 238.791 606.115 238.649C605.776 238.505 605.509 238.309 605.316 238.061C605.123 237.813 605.027 237.532 605.027 237.217C605.027 236.975 605.081 236.752 605.191 236.55C605.303 236.345 605.455 236.176 605.646 236.041C605.837 235.905 606.051 235.818 606.288 235.78V235.74C605.977 235.677 605.725 235.527 605.532 235.288C605.339 235.048 605.242 234.768 605.242 234.45C605.242 234.149 605.33 233.881 605.507 233.646C605.683 233.409 605.924 233.224 606.231 233.089C606.54 232.953 606.89 232.885 607.282 232.885C607.674 232.885 608.024 232.953 608.33 233.089C608.639 233.226 608.882 233.412 609.058 233.649C609.234 233.884 609.323 234.151 609.325 234.45C609.323 234.77 609.224 235.05 609.029 235.288C608.834 235.527 608.584 235.677 608.279 235.74V235.78C608.512 235.818 608.723 235.905 608.913 236.041C609.104 236.176 609.256 236.345 609.367 236.55C609.481 236.752 609.539 236.975 609.541 237.217C609.539 237.532 609.441 237.813 609.248 238.061C609.055 238.309 608.788 238.505 608.447 238.649C608.108 238.791 607.72 238.862 607.282 238.862ZM607.282 237.959C607.477 237.959 607.648 237.924 607.794 237.854C607.939 237.782 608.053 237.683 608.134 237.558C608.218 237.431 608.259 237.285 608.259 237.121C608.259 236.952 608.217 236.803 608.132 236.675C608.046 236.544 607.931 236.442 607.785 236.368C607.639 236.292 607.472 236.254 607.282 236.254C607.095 236.254 606.927 236.292 606.779 236.368C606.632 236.442 606.515 236.544 606.43 236.675C606.347 236.803 606.305 236.952 606.305 237.121C606.305 237.285 606.346 237.431 606.427 237.558C606.509 237.683 606.623 237.782 606.771 237.854C606.919 237.924 607.089 237.959 607.282 237.959ZM607.282 235.359C607.445 235.359 607.59 235.326 607.717 235.26C607.844 235.194 607.943 235.102 608.015 234.984C608.087 234.867 608.123 234.731 608.123 234.578C608.123 234.427 608.087 234.294 608.015 234.18C607.943 234.065 607.845 233.975 607.72 233.91C607.595 233.844 607.449 233.811 607.282 233.811C607.117 233.811 606.972 233.844 606.845 233.91C606.718 233.975 606.618 234.065 606.546 234.18C606.476 234.294 606.441 234.427 606.441 234.578C606.441 234.731 606.477 234.867 606.549 234.984C606.621 235.102 606.721 235.194 606.848 235.26C606.974 235.326 607.119 235.359 607.282 235.359ZM611.563 237.987L611.532 238.3C611.508 238.55 611.46 238.799 611.39 239.047C611.322 239.297 611.25 239.523 611.174 239.726C611.1 239.928 611.041 240.088 610.995 240.203H610.211C610.24 240.091 610.278 239.935 610.328 239.734C610.377 239.535 610.423 239.312 610.467 239.064C610.51 238.816 610.538 238.563 610.549 238.305L610.563 237.987H611.563ZM614.737 238.862C614.335 238.862 613.977 238.788 613.663 238.641C613.35 238.493 613.102 238.289 612.919 238.03C612.735 237.77 612.639 237.473 612.632 237.138H613.825C613.838 237.363 613.933 237.546 614.109 237.686C614.285 237.826 614.494 237.896 614.737 237.896C614.93 237.896 615.1 237.854 615.248 237.768C615.398 237.681 615.514 237.561 615.598 237.408C615.683 237.252 615.725 237.074 615.725 236.874C615.725 236.669 615.682 236.489 615.595 236.334C615.509 236.178 615.391 236.057 615.24 235.97C615.088 235.883 614.915 235.838 614.72 235.837C614.549 235.837 614.384 235.872 614.223 235.942C614.063 236.012 613.939 236.107 613.85 236.229L612.757 236.033L613.032 232.964H616.589V233.97H614.046L613.896 235.427H613.93C614.032 235.284 614.187 235.164 614.393 235.07C614.599 234.975 614.83 234.927 615.086 234.927C615.437 234.927 615.749 235.01 616.024 235.175C616.298 235.339 616.515 235.566 616.674 235.854C616.833 236.14 616.912 236.469 616.91 236.842C616.912 237.234 616.821 237.583 616.637 237.888C616.455 238.191 616.201 238.429 615.873 238.604C615.547 238.776 615.169 238.862 614.737 238.862ZM619.873 232.885C620.172 232.885 620.46 232.935 620.737 233.035C621.015 233.136 621.263 233.296 621.481 233.516C621.701 233.735 621.874 234.027 622.001 234.391C622.13 234.752 622.195 235.196 622.197 235.723C622.197 236.217 622.141 236.659 622.029 237.047C621.919 237.433 621.761 237.762 621.555 238.033C621.348 238.303 621.099 238.51 620.808 238.652C620.516 238.792 620.19 238.862 619.83 238.862C619.442 238.862 619.099 238.787 618.802 238.638C618.505 238.486 618.265 238.281 618.083 238.021C617.903 237.76 617.794 237.466 617.757 237.141H618.97C619.017 237.353 619.116 237.517 619.268 237.635C619.419 237.75 619.607 237.808 619.83 237.808C620.209 237.808 620.497 237.643 620.694 237.314C620.891 236.982 620.991 236.529 620.992 235.953H620.953C620.866 236.124 620.748 236.27 620.6 236.393C620.453 236.515 620.283 236.608 620.092 236.675C619.902 236.741 619.701 236.774 619.487 236.774C619.144 236.774 618.838 236.694 618.569 236.533C618.3 236.372 618.088 236.15 617.933 235.868C617.777 235.586 617.7 235.264 617.7 234.902C617.698 234.512 617.788 234.164 617.97 233.859C618.152 233.554 618.405 233.316 618.731 233.143C619.059 232.969 619.439 232.883 619.873 232.885ZM619.882 233.851C619.69 233.851 619.52 233.896 619.37 233.987C619.223 234.078 619.105 234.2 619.018 234.354C618.933 234.507 618.891 234.678 618.893 234.868C618.893 235.059 618.935 235.231 619.018 235.385C619.103 235.536 619.219 235.658 619.365 235.749C619.512 235.838 619.681 235.882 619.87 235.882C620.012 235.882 620.144 235.856 620.265 235.802C620.386 235.749 620.491 235.677 620.58 235.584C620.671 235.489 620.742 235.38 620.794 235.257C620.845 235.134 620.87 235.003 620.87 234.865C620.868 234.681 620.825 234.513 620.74 234.359C620.654 234.206 620.537 234.083 620.387 233.99C620.238 233.897 620.069 233.851 619.882 233.851ZM625.174 238.862C624.773 238.862 624.415 238.788 624.1 238.641C623.788 238.493 623.54 238.289 623.356 238.03C623.172 237.77 623.077 237.473 623.069 237.138H624.262C624.276 237.363 624.37 237.546 624.546 237.686C624.723 237.826 624.932 237.896 625.174 237.896C625.367 237.896 625.538 237.854 625.686 237.768C625.835 237.681 625.952 237.561 626.035 237.408C626.12 237.252 626.163 237.074 626.163 236.874C626.163 236.669 626.119 236.489 626.032 236.334C625.947 236.178 625.829 236.057 625.677 235.97C625.526 235.883 625.352 235.838 625.157 235.837C624.987 235.837 624.821 235.872 624.66 235.942C624.501 236.012 624.377 236.107 624.288 236.229L623.194 236.033L623.47 232.964H627.027V233.97H624.484L624.333 235.427H624.367C624.47 235.284 624.624 235.164 624.83 235.07C625.037 234.975 625.268 234.927 625.524 234.927C625.874 234.927 626.187 235.01 626.461 235.175C626.736 235.339 626.953 235.566 627.112 235.854C627.271 236.14 627.349 236.469 627.348 236.842C627.349 237.234 627.259 237.583 627.075 237.888C626.893 238.191 626.638 238.429 626.311 238.604C625.985 238.776 625.606 238.862 625.174 238.862Z" fill="#696969"/>
<rect x="764" y="261.675" width="62" height="19" rx="5" fill="#EF7A1C"/>
<path d="M773.351 275.794C772.715 275.794 772.148 275.685 771.651 275.466C771.157 275.245 770.766 274.941 770.479 274.554C770.195 274.165 770.049 273.716 770.04 273.208H771.898C771.909 273.421 771.979 273.608 772.107 273.77C772.238 273.929 772.411 274.053 772.627 274.141C772.843 274.229 773.086 274.273 773.355 274.273C773.637 274.273 773.885 274.223 774.101 274.124C774.317 274.024 774.486 273.887 774.608 273.71C774.73 273.534 774.792 273.331 774.792 273.101C774.792 272.868 774.726 272.662 774.596 272.483C774.468 272.301 774.283 272.159 774.042 272.057C773.803 271.955 773.519 271.904 773.189 271.904H772.375V270.549H773.189C773.468 270.549 773.713 270.5 773.926 270.404C774.142 270.307 774.31 270.174 774.429 270.003C774.549 269.83 774.608 269.628 774.608 269.398C774.608 269.179 774.556 268.987 774.451 268.823C774.348 268.655 774.203 268.524 774.016 268.431C773.831 268.337 773.615 268.29 773.368 268.29C773.118 268.29 772.89 268.335 772.682 268.426C772.475 268.514 772.309 268.641 772.184 268.806C772.059 268.97 771.992 269.164 771.983 269.385H770.215C770.223 268.882 770.367 268.439 770.645 268.056C770.924 267.672 771.299 267.372 771.77 267.156C772.245 266.938 772.78 266.828 773.377 266.828C773.979 266.828 774.506 266.938 774.958 267.156C775.409 267.375 775.76 267.671 776.01 268.043C776.263 268.412 776.388 268.827 776.385 269.287C776.388 269.776 776.236 270.183 775.929 270.51C775.625 270.837 775.229 271.044 774.74 271.132V271.2C775.382 271.283 775.871 271.506 776.206 271.87C776.544 272.23 776.712 272.682 776.709 273.225C776.712 273.722 776.569 274.164 776.279 274.55C775.992 274.936 775.596 275.24 775.09 275.462C774.584 275.683 774.005 275.794 773.351 275.794ZM781.457 275.867C780.724 275.864 780.094 275.683 779.565 275.325C779.04 274.968 778.635 274.449 778.351 273.77C778.07 273.091 777.93 272.274 777.933 271.32C777.933 270.368 778.074 269.557 778.355 268.887C778.639 268.216 779.044 267.706 779.57 267.357C780.098 267.004 780.727 266.828 781.457 266.828C782.188 266.828 782.815 267.004 783.341 267.357C783.869 267.709 784.276 268.22 784.56 268.891C784.844 269.558 784.984 270.368 784.982 271.32C784.982 272.277 784.839 273.095 784.555 273.774C784.274 274.453 783.871 274.972 783.345 275.33C782.82 275.688 782.19 275.867 781.457 275.867ZM781.457 274.337C781.957 274.337 782.357 274.085 782.655 273.583C782.953 273.08 783.101 272.325 783.098 271.32C783.098 270.658 783.03 270.107 782.893 269.666C782.76 269.226 782.57 268.895 782.322 268.674C782.078 268.452 781.79 268.341 781.457 268.341C780.96 268.341 780.563 268.59 780.264 269.087C779.966 269.584 779.815 270.328 779.812 271.32C779.812 271.99 779.879 272.55 780.013 272.999C780.149 273.445 780.341 273.78 780.588 274.004C780.835 274.226 781.125 274.337 781.457 274.337ZM789.647 275.794C789.198 275.791 788.765 275.716 788.347 275.568C787.932 275.421 787.56 275.181 787.23 274.848C786.901 274.516 786.64 274.075 786.446 273.527C786.256 272.979 786.161 272.306 786.161 271.507C786.164 270.774 786.248 270.12 786.412 269.543C786.58 268.963 786.819 268.472 787.128 268.068C787.441 267.665 787.814 267.358 788.249 267.148C788.684 266.935 789.171 266.828 789.711 266.828C790.293 266.828 790.807 266.942 791.253 267.169C791.699 267.394 792.057 267.699 792.327 268.085C792.6 268.472 792.765 268.905 792.821 269.385H791.002C790.931 269.081 790.782 268.843 790.554 268.669C790.327 268.496 790.046 268.409 789.711 268.409C789.142 268.409 788.711 268.656 788.415 269.151C788.123 269.645 787.973 270.317 787.968 271.166H788.027C788.158 270.908 788.334 270.688 788.556 270.506C788.78 270.321 789.034 270.181 789.319 270.084C789.605 269.985 789.908 269.935 790.226 269.935C790.743 269.935 791.203 270.057 791.607 270.301C792.01 270.543 792.328 270.875 792.561 271.299C792.794 271.722 792.911 272.206 792.911 272.752C792.911 273.343 792.773 273.868 792.498 274.328C792.225 274.789 791.843 275.149 791.351 275.411C790.863 275.669 790.294 275.797 789.647 275.794ZM789.638 274.345C789.922 274.345 790.176 274.277 790.401 274.141C790.625 274.004 790.801 273.82 790.929 273.587C791.057 273.354 791.121 273.093 791.121 272.803C791.121 272.513 791.057 272.253 790.929 272.023C790.804 271.793 790.631 271.61 790.409 271.473C790.188 271.337 789.935 271.269 789.651 271.269C789.438 271.269 789.24 271.308 789.059 271.388C788.88 271.468 788.722 271.578 788.586 271.72C788.452 271.862 788.347 272.027 788.27 272.215C788.194 272.399 788.155 272.597 788.155 272.807C788.155 273.088 788.219 273.345 788.347 273.578C788.478 273.811 788.654 273.997 788.875 274.137C789.1 274.276 789.354 274.345 789.638 274.345ZM795.846 274.482L795.799 274.95C795.762 275.325 795.691 275.699 795.586 276.071C795.484 276.446 795.376 276.786 795.262 277.09C795.151 277.394 795.062 277.632 794.994 277.806H793.817C793.86 277.638 793.918 277.404 793.992 277.102C794.066 276.804 794.136 276.469 794.201 276.097C794.266 275.725 794.308 275.345 794.325 274.959L794.346 274.482H795.846ZM800.433 275.794C799.797 275.794 799.23 275.685 798.733 275.466C798.239 275.245 797.848 274.941 797.561 274.554C797.277 274.165 797.131 273.716 797.122 273.208H798.98C798.991 273.421 799.061 273.608 799.189 273.77C799.32 273.929 799.493 274.053 799.709 274.141C799.925 274.229 800.168 274.273 800.438 274.273C800.719 274.273 800.967 274.223 801.183 274.124C801.399 274.024 801.568 273.887 801.69 273.71C801.813 273.534 801.874 273.331 801.874 273.101C801.874 272.868 801.808 272.662 801.678 272.483C801.55 272.301 801.365 272.159 801.124 272.057C800.885 271.955 800.601 271.904 800.271 271.904H799.457V270.549H800.271C800.55 270.549 800.795 270.5 801.009 270.404C801.224 270.307 801.392 270.174 801.511 270.003C801.631 269.83 801.69 269.628 801.69 269.398C801.69 269.179 801.638 268.987 801.533 268.823C801.43 268.655 801.286 268.524 801.098 268.431C800.913 268.337 800.697 268.29 800.45 268.29C800.2 268.29 799.972 268.335 799.764 268.426C799.557 268.514 799.391 268.641 799.266 268.806C799.141 268.97 799.074 269.164 799.065 269.385H797.297C797.305 268.882 797.449 268.439 797.727 268.056C798.006 267.672 798.381 267.372 798.852 267.156C799.327 266.938 799.862 266.828 800.459 266.828C801.061 266.828 801.588 266.938 802.04 267.156C802.491 267.375 802.842 267.671 803.092 268.043C803.345 268.412 803.47 268.827 803.467 269.287C803.47 269.776 803.318 270.183 803.011 270.51C802.707 270.837 802.311 271.044 801.822 271.132V271.2C802.464 271.283 802.953 271.506 803.288 271.87C803.626 272.23 803.794 272.682 803.791 273.225C803.794 273.722 803.651 274.164 803.361 274.55C803.074 274.936 802.678 275.24 802.172 275.462C801.666 275.683 801.087 275.794 800.433 275.794ZM808.539 275.867C807.806 275.864 807.176 275.683 806.647 275.325C806.122 274.968 805.717 274.449 805.433 273.77C805.152 273.091 805.012 272.274 805.015 271.32C805.015 270.368 805.156 269.557 805.437 268.887C805.721 268.216 806.126 267.706 806.652 267.357C807.18 267.004 807.809 266.828 808.539 266.828C809.27 266.828 809.897 267.004 810.423 267.357C810.951 267.709 811.358 268.22 811.642 268.891C811.926 269.558 812.066 270.368 812.064 271.32C812.064 272.277 811.922 273.095 811.637 273.774C811.356 274.453 810.953 274.972 810.427 275.33C809.902 275.688 809.272 275.867 808.539 275.867ZM808.539 274.337C809.039 274.337 809.439 274.085 809.737 273.583C810.035 273.08 810.183 272.325 810.18 271.32C810.18 270.658 810.112 270.107 809.975 269.666C809.842 269.226 809.652 268.895 809.404 268.674C809.16 268.452 808.872 268.341 808.539 268.341C808.042 268.341 807.645 268.59 807.346 269.087C807.048 269.584 806.897 270.328 806.895 271.32C806.895 271.99 806.961 272.55 807.095 272.999C807.231 273.445 807.423 273.78 807.67 274.004C807.917 274.226 808.207 274.337 808.539 274.337ZM816.605 275.794C815.969 275.794 815.402 275.685 814.905 275.466C814.411 275.245 814.02 274.941 813.733 274.554C813.449 274.165 813.303 273.716 813.294 273.208H815.152C815.163 273.421 815.233 273.608 815.361 273.77C815.491 273.929 815.665 274.053 815.881 274.141C816.097 274.229 816.339 274.273 816.609 274.273C816.891 274.273 817.139 274.223 817.355 274.124C817.571 274.024 817.74 273.887 817.862 273.71C817.984 273.534 818.045 273.331 818.045 273.101C818.045 272.868 817.98 272.662 817.849 272.483C817.722 272.301 817.537 272.159 817.295 272.057C817.057 271.955 816.773 271.904 816.443 271.904H815.629V270.549H816.443C816.722 270.549 816.967 270.5 817.18 270.404C817.396 270.307 817.564 270.174 817.683 270.003C817.803 269.83 817.862 269.628 817.862 269.398C817.862 269.179 817.81 268.987 817.705 268.823C817.602 268.655 817.457 268.524 817.27 268.431C817.085 268.337 816.869 268.29 816.622 268.29C816.372 268.29 816.143 268.335 815.936 268.426C815.729 268.514 815.562 268.641 815.438 268.806C815.312 268.97 815.246 269.164 815.237 269.385H813.469C813.477 268.882 813.621 268.439 813.899 268.056C814.178 267.672 814.553 267.372 815.024 267.156C815.499 266.938 816.034 266.828 816.631 266.828C817.233 266.828 817.76 266.938 818.212 267.156C818.663 267.375 819.014 267.671 819.264 268.043C819.517 268.412 819.642 268.827 819.639 269.287C819.642 269.776 819.49 270.183 819.183 270.51C818.879 270.837 818.483 271.044 817.994 271.132V271.2C818.636 271.283 819.125 271.506 819.46 271.87C819.798 272.23 819.966 272.682 819.963 273.225C819.966 273.722 819.822 274.164 819.533 274.55C819.246 274.936 818.849 275.24 818.344 275.462C817.838 275.683 817.259 275.794 816.605 275.794Z" fill="white"/>
<path d="M592.604 284.268V283.271L594.934 281.113C595.132 280.922 595.298 280.749 595.432 280.596C595.569 280.442 595.672 280.292 595.742 280.145C595.813 279.996 595.848 279.835 595.848 279.662C595.848 279.471 595.804 279.305 595.717 279.167C595.629 279.026 595.51 278.919 595.359 278.844C595.207 278.767 595.036 278.729 594.844 278.729C594.644 278.729 594.469 278.77 594.32 278.851C594.171 278.931 594.056 279.048 593.975 279.199C593.894 279.35 593.853 279.53 593.853 279.739H592.54C592.54 279.311 592.637 278.939 592.831 278.624C593.025 278.308 593.296 278.064 593.646 277.892C593.995 277.719 594.398 277.633 594.854 277.633C595.323 277.633 595.731 277.716 596.078 277.882C596.427 278.046 596.699 278.274 596.893 278.566C597.087 278.858 597.184 279.192 597.184 279.57C597.184 279.817 597.135 280.061 597.037 280.301C596.941 280.542 596.769 280.81 596.522 281.104C596.275 281.396 595.927 281.746 595.477 282.155L594.521 283.092V283.136H597.27V284.268H592.604ZM600.714 284.357C600.222 284.357 599.784 284.277 599.401 284.118C599.02 283.956 598.72 283.735 598.503 283.456C598.286 283.177 598.177 282.86 598.177 282.507C598.177 282.234 598.239 281.984 598.362 281.756C598.488 281.526 598.658 281.335 598.874 281.184C599.089 281.03 599.33 280.932 599.596 280.89V280.845C599.246 280.775 598.963 280.605 598.746 280.337C598.528 280.066 598.42 279.752 598.42 279.394C598.42 279.055 598.519 278.754 598.717 278.489C598.915 278.223 599.187 278.014 599.532 277.863C599.879 277.71 600.273 277.633 600.714 277.633C601.156 277.633 601.549 277.71 601.894 277.863C602.241 278.016 602.514 278.226 602.712 278.493C602.91 278.757 603.01 279.057 603.012 279.394C603.01 279.754 602.9 280.068 602.68 280.337C602.461 280.605 602.179 280.775 601.836 280.845V280.89C602.098 280.932 602.336 281.03 602.549 281.184C602.764 281.335 602.935 281.526 603.06 281.756C603.188 281.984 603.253 282.234 603.255 282.507C603.253 282.86 603.143 283.177 602.926 283.456C602.709 283.735 602.408 283.956 602.025 284.118C601.643 284.277 601.207 284.357 600.714 284.357ZM600.714 283.341C600.934 283.341 601.126 283.301 601.29 283.223C601.454 283.142 601.582 283.031 601.673 282.89C601.767 282.748 601.814 282.583 601.814 282.398C601.814 282.208 601.766 282.041 601.67 281.896C601.574 281.749 601.444 281.634 601.28 281.551C601.116 281.466 600.928 281.423 600.714 281.423C600.504 281.423 600.315 281.466 600.149 281.551C599.983 281.634 599.852 281.749 599.756 281.896C599.662 282.041 599.615 282.208 599.615 282.398C599.615 282.583 599.661 282.748 599.752 282.89C599.844 283.031 599.973 283.142 600.139 283.223C600.305 283.301 600.497 283.341 600.714 283.341ZM600.714 280.417C600.898 280.417 601.061 280.379 601.203 280.305C601.346 280.23 601.458 280.127 601.539 279.995C601.62 279.863 601.661 279.71 601.661 279.538C601.661 279.367 601.62 279.218 601.539 279.09C601.458 278.96 601.347 278.859 601.207 278.787C601.066 278.712 600.902 278.675 600.714 278.675C600.529 278.675 600.365 278.712 600.222 278.787C600.08 278.859 599.968 278.96 599.887 279.09C599.808 279.218 599.768 279.367 599.768 279.538C599.768 279.71 599.809 279.863 599.89 279.995C599.971 280.127 600.083 280.23 600.225 280.305C600.368 280.379 600.531 280.417 600.714 280.417ZM606.591 277.633C606.928 277.633 607.252 277.689 607.563 277.802C607.876 277.915 608.155 278.095 608.4 278.342C608.647 278.589 608.842 278.918 608.985 279.327C609.13 279.734 609.203 280.233 609.206 280.826C609.206 281.382 609.143 281.878 609.017 282.315C608.893 282.75 608.715 283.119 608.483 283.424C608.251 283.729 607.971 283.961 607.643 284.121C607.315 284.278 606.948 284.357 606.543 284.357C606.106 284.357 605.721 284.273 605.386 284.105C605.052 283.934 604.782 283.703 604.578 283.411C604.375 283.117 604.253 282.787 604.21 282.42H605.575C605.628 282.659 605.74 282.844 605.91 282.977C606.081 283.107 606.292 283.172 606.543 283.172C606.969 283.172 607.293 282.986 607.515 282.615C607.736 282.243 607.848 281.732 607.85 281.085H607.806C607.708 281.276 607.576 281.441 607.409 281.58C607.243 281.716 607.052 281.822 606.837 281.896C606.624 281.971 606.397 282.008 606.157 282.008C605.771 282.008 605.427 281.918 605.124 281.737C604.822 281.555 604.583 281.306 604.408 280.989C604.234 280.671 604.146 280.309 604.146 279.902C604.144 279.463 604.245 279.072 604.45 278.729C604.654 278.386 604.94 278.118 605.306 277.924C605.675 277.728 606.103 277.631 606.591 277.633ZM606.601 278.719C606.386 278.719 606.194 278.771 606.025 278.873C605.859 278.975 605.727 279.113 605.629 279.285C605.533 279.458 605.486 279.651 605.489 279.864C605.489 280.079 605.535 280.273 605.629 280.445C605.725 280.616 605.855 280.752 606.019 280.854C606.185 280.955 606.375 281.005 606.588 281.005C606.748 281.005 606.896 280.975 607.032 280.915C607.169 280.855 607.287 280.773 607.387 280.669C607.489 280.563 607.569 280.44 607.627 280.301C607.684 280.163 607.713 280.016 607.713 279.86C607.711 279.654 607.662 279.464 607.566 279.292C607.47 279.119 607.338 278.98 607.17 278.876C607.001 278.772 606.812 278.719 606.601 278.719ZM611.393 283.373L611.358 283.724C611.33 284.006 611.277 284.286 611.198 284.565C611.122 284.846 611.041 285.101 610.955 285.329C610.872 285.557 610.805 285.736 610.754 285.866H609.872C609.904 285.74 609.948 285.564 610.003 285.338C610.058 285.115 610.111 284.863 610.16 284.584C610.209 284.305 610.239 284.021 610.252 283.731L610.268 283.373H611.393ZM614.963 284.357C614.511 284.357 614.109 284.274 613.755 284.108C613.403 283.942 613.124 283.713 612.918 283.421C612.711 283.129 612.603 282.794 612.595 282.417H613.937C613.952 282.671 614.059 282.876 614.257 283.034C614.455 283.192 614.69 283.271 614.963 283.271C615.18 283.271 615.372 283.223 615.538 283.127C615.707 283.029 615.838 282.893 615.932 282.721C616.027 282.546 616.075 282.346 616.075 282.12C616.075 281.89 616.026 281.688 615.928 281.513C615.832 281.338 615.699 281.202 615.529 281.104C615.358 281.006 615.163 280.956 614.944 280.953C614.752 280.953 614.566 280.993 614.385 281.072C614.206 281.151 614.066 281.258 613.966 281.395L612.736 281.174L613.046 277.722H617.047V278.854H614.187L614.017 280.493H614.055C614.171 280.331 614.344 280.197 614.576 280.091C614.809 279.984 615.069 279.931 615.356 279.931C615.75 279.931 616.102 280.023 616.411 280.209C616.72 280.394 616.964 280.649 617.143 280.973C617.322 281.294 617.41 281.665 617.408 282.085C617.41 282.526 617.308 282.918 617.101 283.261C616.897 283.602 616.61 283.87 616.242 284.066C615.875 284.26 615.449 284.357 614.963 284.357ZM620.94 284.412C620.39 284.409 619.917 284.274 619.521 284.006C619.127 283.737 618.823 283.348 618.61 282.839C618.399 282.33 618.294 281.717 618.297 281.001C618.297 280.288 618.402 279.679 618.613 279.176C618.826 278.674 619.13 278.291 619.524 278.029C619.92 277.765 620.392 277.633 620.94 277.633C621.487 277.633 621.958 277.765 622.352 278.029C622.749 278.293 623.053 278.677 623.266 279.18C623.479 279.68 623.585 280.288 623.583 281.001C623.583 281.719 623.476 282.333 623.263 282.842C623.052 283.352 622.75 283.74 622.356 284.009C621.961 284.277 621.489 284.412 620.94 284.412ZM620.94 283.264C621.315 283.264 621.614 283.076 621.838 282.699C622.062 282.321 622.172 281.756 622.17 281.001C622.17 280.505 622.119 280.092 622.017 279.761C621.917 279.431 621.774 279.183 621.589 279.017C621.405 278.851 621.189 278.767 620.94 278.767C620.567 278.767 620.269 278.954 620.045 279.327C619.821 279.7 619.708 280.258 619.706 281.001C619.706 281.504 619.756 281.924 619.856 282.261C619.959 282.595 620.102 282.847 620.288 283.015C620.473 283.181 620.69 283.264 620.94 283.264ZM627.082 284.357C626.745 284.355 626.42 284.299 626.107 284.188C625.796 284.077 625.517 283.897 625.27 283.648C625.022 283.398 624.826 283.068 624.681 282.657C624.539 282.246 624.467 281.741 624.467 281.142C624.469 280.592 624.532 280.101 624.656 279.669C624.782 279.234 624.961 278.865 625.193 278.563C625.427 278.26 625.707 278.03 626.033 277.873C626.359 277.713 626.725 277.633 627.13 277.633C627.566 277.633 627.952 277.718 628.287 277.888C628.621 278.057 628.89 278.286 629.092 278.576C629.297 278.865 629.42 279.19 629.463 279.55H628.098C628.045 279.322 627.933 279.143 627.762 279.013C627.592 278.884 627.381 278.819 627.13 278.819C626.703 278.819 626.38 279.004 626.158 279.375C625.939 279.745 625.827 280.249 625.822 280.886H625.867C625.965 280.692 626.097 280.527 626.263 280.391C626.432 280.252 626.623 280.147 626.836 280.075C627.051 280 627.278 279.963 627.516 279.963C627.904 279.963 628.249 280.054 628.552 280.238C628.854 280.419 629.093 280.668 629.268 280.985C629.442 281.303 629.53 281.666 629.53 282.075C629.53 282.518 629.426 282.913 629.22 283.258C629.015 283.603 628.729 283.874 628.36 284.07C627.994 284.263 627.567 284.359 627.082 284.357ZM627.075 283.271C627.288 283.271 627.479 283.219 627.647 283.117C627.816 283.015 627.948 282.876 628.044 282.702C628.14 282.527 628.188 282.331 628.188 282.114C628.188 281.896 628.14 281.701 628.044 281.529C627.95 281.356 627.82 281.219 627.654 281.116C627.488 281.014 627.298 280.963 627.085 280.963C626.925 280.963 626.777 280.993 626.641 281.053C626.506 281.112 626.388 281.195 626.286 281.302C626.186 281.408 626.107 281.532 626.049 281.673C625.992 281.811 625.963 281.959 625.963 282.117C625.963 282.328 626.011 282.521 626.107 282.695C626.205 282.87 626.337 283.01 626.503 283.114C626.672 283.218 626.862 283.271 627.075 283.271Z" fill="#696969"/>
<path d="M410.611 286.975V286.088L412.682 284.171C412.858 284 413.006 283.847 413.125 283.711C413.246 283.574 413.338 283.441 413.401 283.31C413.463 283.177 413.494 283.034 413.494 282.881C413.494 282.711 413.455 282.564 413.378 282.441C413.3 282.316 413.194 282.22 413.06 282.154C412.925 282.086 412.773 282.051 412.602 282.051C412.424 282.051 412.269 282.087 412.136 282.159C412.004 282.231 411.901 282.335 411.83 282.469C411.758 282.604 411.722 282.764 411.722 282.949H410.554C410.554 282.569 410.64 282.238 410.812 281.958C410.985 281.677 411.226 281.461 411.537 281.307C411.847 281.154 412.205 281.077 412.611 281.077C413.027 281.077 413.39 281.151 413.699 281.299C414.009 281.444 414.251 281.647 414.423 281.907C414.596 282.166 414.682 282.463 414.682 282.799C414.682 283.018 414.638 283.235 414.551 283.449C414.466 283.663 414.313 283.901 414.094 284.162C413.874 284.422 413.564 284.733 413.165 285.097L412.315 285.929V285.969H414.758V286.975H410.611ZM417.775 287.054C417.373 287.054 417.015 286.98 416.701 286.833C416.388 286.685 416.14 286.481 415.957 286.222C415.773 285.962 415.677 285.665 415.67 285.33H416.863C416.876 285.555 416.971 285.738 417.147 285.878C417.323 286.018 417.532 286.088 417.775 286.088C417.968 286.088 418.138 286.046 418.286 285.961C418.436 285.873 418.552 285.753 418.636 285.6C418.721 285.444 418.763 285.266 418.763 285.066C418.763 284.861 418.72 284.681 418.633 284.526C418.548 284.371 418.429 284.249 418.278 284.162C418.126 284.075 417.953 284.031 417.758 284.029C417.587 284.029 417.422 284.064 417.261 284.134C417.102 284.204 416.977 284.3 416.888 284.421L415.795 284.225L416.07 281.157H419.627V282.162H417.084L416.934 283.62H416.968C417.07 283.476 417.225 283.356 417.431 283.262C417.638 283.167 417.869 283.12 418.124 283.12C418.475 283.12 418.787 283.202 419.062 283.367C419.336 283.532 419.553 283.758 419.712 284.046C419.871 284.332 419.95 284.661 419.948 285.034C419.95 285.426 419.859 285.775 419.675 286.08C419.494 286.383 419.239 286.622 418.911 286.796C418.585 286.968 418.207 287.054 417.775 287.054ZM422.957 287.054C422.532 287.054 422.155 286.981 421.823 286.836C421.494 286.688 421.233 286.485 421.042 286.228C420.852 285.968 420.755 285.669 420.749 285.33H421.988C421.995 285.472 422.042 285.597 422.127 285.705C422.214 285.811 422.33 285.893 422.474 285.952C422.618 286.011 422.78 286.04 422.959 286.04C423.147 286.04 423.313 286.007 423.457 285.941C423.601 285.874 423.713 285.783 423.795 285.665C423.876 285.548 423.917 285.412 423.917 285.259C423.917 285.104 423.873 284.966 423.786 284.847C423.701 284.726 423.578 284.631 423.417 284.563C423.258 284.495 423.068 284.461 422.849 284.461H422.306V283.557H422.849C423.034 283.557 423.198 283.525 423.34 283.461C423.484 283.396 423.596 283.307 423.675 283.194C423.755 283.078 423.795 282.944 423.795 282.79C423.795 282.644 423.76 282.516 423.69 282.407C423.621 282.295 423.525 282.208 423.4 282.145C423.277 282.083 423.133 282.051 422.968 282.051C422.801 282.051 422.649 282.082 422.511 282.142C422.372 282.201 422.262 282.285 422.178 282.395C422.095 282.505 422.05 282.634 422.045 282.782H420.866C420.871 282.446 420.967 282.151 421.153 281.895C421.338 281.64 421.588 281.44 421.903 281.296C422.219 281.15 422.576 281.077 422.974 281.077C423.375 281.077 423.727 281.15 424.028 281.296C424.329 281.442 424.563 281.639 424.729 281.887C424.898 282.133 424.981 282.409 424.979 282.716C424.981 283.042 424.88 283.314 424.675 283.532C424.473 283.749 424.209 283.888 423.883 283.946V283.992C424.311 284.047 424.637 284.195 424.86 284.438C425.085 284.678 425.197 284.98 425.195 285.341C425.197 285.673 425.102 285.967 424.908 286.225C424.717 286.482 424.453 286.685 424.116 286.833C423.779 286.98 423.392 287.054 422.957 287.054ZM427.242 286.179L427.211 286.492C427.186 286.742 427.139 286.991 427.069 287.239C427.001 287.489 426.929 287.715 426.853 287.918C426.779 288.121 426.719 288.28 426.674 288.395H425.89C425.918 288.284 425.957 288.127 426.006 287.926C426.056 287.728 426.102 287.504 426.146 287.256C426.189 287.008 426.217 286.755 426.228 286.498L426.242 286.179H427.242ZM430.333 281.077C430.632 281.077 430.92 281.127 431.197 281.228C431.475 281.328 431.723 281.488 431.941 281.708C432.161 281.927 432.334 282.219 432.461 282.583C432.59 282.944 432.655 283.389 432.657 283.915C432.657 284.409 432.601 284.851 432.489 285.239C432.379 285.625 432.221 285.954 432.015 286.225C431.808 286.496 431.559 286.702 431.268 286.844C430.976 286.984 430.65 287.054 430.29 287.054C429.902 287.054 429.559 286.98 429.262 286.83C428.965 286.678 428.725 286.473 428.543 286.213C428.363 285.952 428.254 285.659 428.217 285.333H429.43C429.477 285.545 429.576 285.71 429.728 285.827C429.879 285.943 430.067 286 430.29 286C430.669 286 430.957 285.836 431.154 285.506C431.351 285.175 431.45 284.721 431.452 284.145H431.413C431.325 284.316 431.208 284.462 431.06 284.586C430.913 284.707 430.743 284.801 430.552 284.867C430.362 284.933 430.161 284.966 429.947 284.966C429.604 284.966 429.298 284.886 429.029 284.725C428.76 284.564 428.548 284.342 428.393 284.06C428.237 283.778 428.16 283.456 428.16 283.094C428.158 282.704 428.248 282.356 428.43 282.051C428.611 281.747 428.865 281.508 429.191 281.336C429.519 281.161 429.899 281.075 430.333 281.077ZM430.342 282.043C430.15 282.043 429.98 282.088 429.83 282.179C429.682 282.27 429.565 282.392 429.478 282.546C429.393 282.699 429.351 282.871 429.353 283.06C429.353 283.251 429.395 283.424 429.478 283.577C429.563 283.729 429.679 283.85 429.825 283.941C429.972 284.03 430.141 284.074 430.33 284.074C430.472 284.074 430.604 284.048 430.725 283.995C430.846 283.942 430.951 283.869 431.04 283.776C431.131 283.681 431.202 283.572 431.254 283.449C431.305 283.326 431.33 283.195 431.33 283.057C431.328 282.873 431.285 282.705 431.2 282.551C431.114 282.398 430.997 282.275 430.847 282.182C430.698 282.089 430.529 282.043 430.342 282.043ZM435.66 287.054C435.236 287.054 434.858 286.981 434.526 286.836C434.197 286.688 433.936 286.485 433.745 286.228C433.556 285.968 433.458 285.669 433.452 285.33H434.691C434.699 285.472 434.745 285.597 434.83 285.705C434.917 285.811 435.033 285.893 435.177 285.952C435.321 286.011 435.483 286.04 435.663 286.04C435.85 286.04 436.016 286.007 436.16 285.941C436.304 285.874 436.416 285.783 436.498 285.665C436.579 285.548 436.62 285.412 436.62 285.259C436.62 285.104 436.576 284.966 436.489 284.847C436.404 284.726 436.281 284.631 436.12 284.563C435.961 284.495 435.771 284.461 435.552 284.461H435.009V283.557H435.552C435.737 283.557 435.901 283.525 436.043 283.461C436.187 283.396 436.299 283.307 436.379 283.194C436.458 283.078 436.498 282.944 436.498 282.79C436.498 282.644 436.463 282.516 436.393 282.407C436.325 282.295 436.228 282.208 436.103 282.145C435.98 282.083 435.836 282.051 435.671 282.051C435.504 282.051 435.352 282.082 435.214 282.142C435.075 282.201 434.965 282.285 434.881 282.395C434.798 282.505 434.754 282.634 434.748 282.782H433.569C433.575 282.446 433.67 282.151 433.856 281.895C434.041 281.64 434.291 281.44 434.606 281.296C434.922 281.15 435.279 281.077 435.677 281.077C436.078 281.077 436.43 281.15 436.731 281.296C437.032 281.442 437.266 281.639 437.432 281.887C437.601 282.133 437.684 282.409 437.682 282.716C437.684 283.042 437.583 283.314 437.379 283.532C437.176 283.749 436.912 283.888 436.586 283.946V283.992C437.014 284.047 437.34 284.195 437.563 284.438C437.789 284.678 437.9 284.98 437.898 285.341C437.9 285.673 437.805 285.967 437.611 286.225C437.42 286.482 437.156 286.685 436.819 286.833C436.482 286.98 436.095 287.054 435.66 287.054ZM438.783 286.975V286.088L440.854 284.171C441.03 284 441.178 283.847 441.297 283.711C441.418 283.574 441.51 283.441 441.572 283.31C441.635 283.177 441.666 283.034 441.666 282.881C441.666 282.711 441.627 282.564 441.55 282.441C441.472 282.316 441.366 282.22 441.231 282.154C441.097 282.086 440.945 282.051 440.774 282.051C440.596 282.051 440.441 282.087 440.308 282.159C440.176 282.231 440.073 282.335 440.001 282.469C439.929 282.604 439.893 282.764 439.893 282.949H438.726C438.726 282.569 438.812 282.238 438.984 281.958C439.157 281.677 439.398 281.461 439.709 281.307C440.019 281.154 440.377 281.077 440.783 281.077C441.199 281.077 441.562 281.151 441.871 281.299C442.181 281.444 442.423 281.647 442.595 281.907C442.767 282.166 442.854 282.463 442.854 282.799C442.854 283.018 442.81 283.235 442.723 283.449C442.638 283.663 442.485 283.901 442.266 284.162C442.046 284.422 441.736 284.733 441.337 285.097L440.487 285.929V285.969H442.93V286.975H438.783Z" fill="#696969"/>
<path d="M42.6508 299.332V298.446L44.7218 296.528C44.8979 296.358 45.0457 296.204 45.165 296.068C45.2862 295.931 45.3781 295.798 45.4406 295.667C45.5031 295.535 45.5343 295.392 45.5343 295.238C45.5343 295.068 45.4955 294.921 45.4178 294.798C45.3402 294.673 45.2341 294.577 45.0997 294.511C44.9652 294.443 44.8127 294.409 44.6423 294.409C44.4642 294.409 44.3089 294.445 44.1764 294.517C44.0438 294.589 43.9415 294.692 43.8695 294.826C43.7976 294.961 43.7616 295.121 43.7616 295.306H42.594C42.594 294.926 42.6801 294.595 42.8525 294.315C43.0248 294.035 43.2663 293.818 43.5769 293.664C43.8875 293.511 44.2455 293.434 44.6508 293.434C45.0675 293.434 45.4301 293.508 45.7389 293.656C46.0495 293.802 46.2909 294.004 46.4633 294.264C46.6356 294.523 46.7218 294.821 46.7218 295.156C46.7218 295.376 46.6783 295.592 46.5911 295.806C46.5059 296.02 46.3534 296.258 46.1337 296.52C45.914 296.779 45.6044 297.091 45.2048 297.454L44.3553 298.287V298.326H46.7985V299.332H42.6508ZM47.4768 298.309V297.341L49.9058 293.514H50.741V294.855H50.2467L48.7154 297.278V297.324H52.1671V298.309H47.4768ZM50.2694 299.332V298.014L50.2921 297.585V293.514H51.4455V299.332H50.2694ZM55.1373 299.412C54.7131 299.412 54.3352 299.339 54.0038 299.193C53.6742 299.045 53.4138 298.842 53.2225 298.585C53.0331 298.325 52.9356 298.026 52.9299 297.687H54.1685C54.1761 297.829 54.2225 297.954 54.3078 298.062C54.3949 298.168 54.5104 298.251 54.6543 298.309C54.7983 298.368 54.9602 298.397 55.1401 298.397C55.3276 298.397 55.4934 298.364 55.6373 298.298C55.7812 298.232 55.8939 298.14 55.9754 298.022C56.0568 297.905 56.0975 297.77 56.0975 297.616C56.0975 297.461 56.054 297.324 55.9668 297.204C55.8816 297.083 55.7585 296.988 55.5975 296.92C55.4384 296.852 55.249 296.818 55.0293 296.818H54.4867V295.914H55.0293C55.2149 295.914 55.3788 295.882 55.5208 295.818C55.6648 295.753 55.7765 295.664 55.856 295.551C55.9356 295.435 55.9754 295.301 55.9754 295.147C55.9754 295.002 55.9403 294.874 55.8703 294.764C55.8021 294.652 55.7055 294.565 55.5805 294.502C55.4574 294.44 55.3134 294.409 55.1487 294.409C54.982 294.409 54.8295 294.439 54.6913 294.5C54.553 294.558 54.4422 294.643 54.3589 294.752C54.2756 294.862 54.231 294.991 54.2254 295.139H53.0464C53.0521 294.804 53.1477 294.508 53.3333 294.252C53.5189 293.997 53.7689 293.797 54.0833 293.653C54.3996 293.507 54.7566 293.434 55.1543 293.434C55.5559 293.434 55.9072 293.507 56.2083 293.653C56.5095 293.799 56.7434 293.996 56.91 294.244C57.0786 294.49 57.1619 294.767 57.16 295.074C57.1619 295.399 57.0606 295.671 56.856 295.889C56.6534 296.107 56.3892 296.245 56.0634 296.304V296.349C56.4915 296.404 56.8172 296.553 57.0407 296.795C57.2661 297.036 57.3778 297.337 57.3759 297.699C57.3778 298.03 57.2822 298.324 57.089 298.582C56.8977 298.84 56.6335 299.042 56.2964 299.19C55.9593 299.338 55.5729 299.412 55.1373 299.412ZM59.4228 298.537L59.3916 298.849C59.3669 299.099 59.3196 299.348 59.2495 299.596C59.1813 299.846 59.1094 300.073 59.0336 300.275C58.9597 300.478 58.9001 300.637 58.8546 300.752H58.0705C58.0989 300.641 58.1378 300.484 58.187 300.284C58.2363 300.085 58.2827 299.861 58.3262 299.613C58.3698 299.365 58.3972 299.112 58.4086 298.855L58.4228 298.537H59.4228ZM62.3227 293.514V299.332H61.0926V294.681H61.0585L59.7261 295.517V294.426L61.1664 293.514H62.3227ZM65.9867 299.46C65.4981 299.458 65.0776 299.338 64.7254 299.099C64.375 298.86 64.1051 298.515 63.9157 298.062C63.7282 297.609 63.6354 297.065 63.6373 296.429C63.6373 295.794 63.731 295.253 63.9185 294.806C64.1079 294.359 64.3778 294.02 64.7282 293.787C65.0805 293.552 65.5 293.434 65.9867 293.434C66.4735 293.434 66.892 293.552 67.2424 293.787C67.5947 294.021 67.8655 294.362 68.0549 294.809C68.2443 295.254 68.3381 295.794 68.3362 296.429C68.3362 297.067 68.2415 297.612 68.0521 298.065C67.8646 298.518 67.5956 298.863 67.2453 299.102C66.8949 299.341 66.4754 299.46 65.9867 299.46ZM65.9867 298.44C66.3201 298.44 66.5862 298.272 66.785 297.937C66.9839 297.602 67.0824 297.099 67.0805 296.429C67.0805 295.987 67.035 295.62 66.9441 295.326C66.8551 295.033 66.7282 294.812 66.5634 294.664C66.4006 294.517 66.2083 294.443 65.9867 294.443C65.6553 294.443 65.3901 294.609 65.1913 294.94C64.9924 295.271 64.892 295.768 64.8901 296.429C64.8901 296.876 64.9346 297.249 65.0237 297.548C65.1146 297.845 65.2424 298.069 65.4072 298.218C65.572 298.366 65.7651 298.44 65.9867 298.44ZM71.4945 299.46C71.0059 299.458 70.5854 299.338 70.2332 299.099C69.8828 298.86 69.6129 298.515 69.4235 298.062C69.236 297.609 69.1432 297.065 69.1451 296.429C69.1451 295.794 69.2389 295.253 69.4264 294.806C69.6158 294.359 69.8856 294.02 70.236 293.787C70.5883 293.552 71.0078 293.434 71.4945 293.434C71.9813 293.434 72.3998 293.552 72.7502 293.787C73.1025 294.021 73.3733 294.362 73.5627 294.809C73.7521 295.254 73.8459 295.794 73.844 296.429C73.844 297.067 73.7493 297.612 73.5599 298.065C73.3724 298.518 73.1034 298.863 72.7531 299.102C72.4027 299.341 71.9832 299.46 71.4945 299.46ZM71.4945 298.44C71.8279 298.44 72.094 298.272 72.2928 297.937C72.4917 297.602 72.5902 297.099 72.5883 296.429C72.5883 295.987 72.5428 295.62 72.4519 295.326C72.3629 295.033 72.236 294.812 72.0712 294.664C71.9084 294.517 71.7161 294.443 71.4945 294.443C71.1631 294.443 70.8979 294.609 70.6991 294.94C70.5002 295.271 70.3998 295.768 70.3979 296.429C70.3979 296.876 70.4425 297.249 70.5315 297.548C70.6224 297.845 70.7502 298.069 70.915 298.218C71.0798 298.366 71.2729 298.44 71.4945 298.44Z" fill="#696969"/>
<path d="M225.352 310.453V309.567L227.423 307.649C227.6 307.479 227.747 307.326 227.867 307.189C227.988 307.053 228.08 306.919 228.142 306.789C228.205 306.656 228.236 306.513 228.236 306.36C228.236 306.189 228.197 306.042 228.119 305.919C228.042 305.794 227.936 305.699 227.801 305.632C227.667 305.564 227.514 305.53 227.344 305.53C227.166 305.53 227.011 305.566 226.878 305.638C226.745 305.71 226.643 305.813 226.571 305.948C226.499 306.082 226.463 306.242 226.463 306.428H225.296C225.296 306.047 225.382 305.717 225.554 305.436C225.727 305.156 225.968 304.939 226.279 304.786C226.589 304.632 226.947 304.556 227.352 304.556C227.769 304.556 228.132 304.63 228.441 304.777C228.751 304.923 228.993 305.126 229.165 305.385C229.337 305.645 229.423 305.942 229.423 306.277C229.423 306.497 229.38 306.714 229.293 306.928C229.208 307.142 229.055 307.38 228.835 307.641C228.616 307.9 228.306 308.212 227.906 308.576L227.057 309.408V309.448H229.5V310.453H225.352ZM232.542 310.533C232.118 310.533 231.74 310.46 231.409 310.314C231.079 310.166 230.819 309.964 230.627 309.706C230.438 309.447 230.34 309.148 230.335 308.809H231.573C231.581 308.951 231.627 309.076 231.713 309.184C231.8 309.29 231.915 309.372 232.059 309.431C232.203 309.489 232.365 309.519 232.545 309.519C232.732 309.519 232.898 309.486 233.042 309.419C233.186 309.353 233.299 309.261 233.38 309.144C233.462 309.026 233.502 308.891 233.502 308.738C233.502 308.582 233.459 308.445 233.372 308.326C233.286 308.204 233.163 308.11 233.002 308.041C232.843 307.973 232.654 307.939 232.434 307.939H231.892V307.036H232.434C232.62 307.036 232.784 307.004 232.926 306.939C233.07 306.875 233.181 306.786 233.261 306.672C233.34 306.557 233.38 306.422 233.38 306.269C233.38 306.123 233.345 305.995 233.275 305.885C233.207 305.774 233.11 305.686 232.985 305.624C232.862 305.561 232.718 305.53 232.553 305.53C232.387 305.53 232.234 305.56 232.096 305.621C231.958 305.68 231.847 305.764 231.764 305.874C231.68 305.984 231.636 306.113 231.63 306.26H230.451C230.457 305.925 230.552 305.63 230.738 305.374C230.924 305.118 231.174 304.918 231.488 304.774C231.804 304.629 232.161 304.556 232.559 304.556C232.961 304.556 233.312 304.629 233.613 304.774C233.914 304.92 234.148 305.117 234.315 305.365C234.483 305.612 234.567 305.888 234.565 306.195C234.567 306.521 234.465 306.792 234.261 307.01C234.058 307.228 233.794 307.366 233.468 307.425V307.47C233.896 307.525 234.222 307.674 234.445 307.916C234.671 308.157 234.783 308.458 234.781 308.82C234.783 309.151 234.687 309.446 234.494 309.703C234.302 309.961 234.038 310.164 233.701 310.311C233.364 310.459 232.978 310.533 232.542 310.533ZM238.196 304.635V310.453H236.966V305.803H236.932L235.6 306.638V305.547L237.04 304.635H238.196ZM240.593 309.658L240.562 309.97C240.537 310.22 240.49 310.47 240.42 310.718C240.352 310.968 240.28 311.194 240.204 311.397C240.13 311.599 240.07 311.758 240.025 311.874H239.241C239.269 311.762 239.308 311.606 239.357 311.405C239.407 311.206 239.453 310.983 239.497 310.735C239.54 310.487 239.568 310.234 239.579 309.976L239.593 309.658H240.593ZM241.7 310.453L244.112 305.681V305.641H241.302V304.635H245.384V305.655L242.97 310.453H241.7ZM246.227 310.453V309.567L248.298 307.649C248.475 307.479 248.622 307.326 248.742 307.189C248.863 307.053 248.955 306.919 249.017 306.789C249.08 306.656 249.111 306.513 249.111 306.36C249.111 306.189 249.072 306.042 248.994 305.919C248.917 305.794 248.811 305.699 248.676 305.632C248.542 305.564 248.389 305.53 248.219 305.53C248.041 305.53 247.886 305.566 247.753 305.638C247.62 305.71 247.518 305.813 247.446 305.948C247.374 306.082 247.338 306.242 247.338 306.428H246.171C246.171 306.047 246.257 305.717 246.429 305.436C246.602 305.156 246.843 304.939 247.154 304.786C247.464 304.632 247.822 304.556 248.227 304.556C248.644 304.556 249.007 304.63 249.316 304.777C249.626 304.923 249.868 305.126 250.04 305.385C250.212 305.645 250.298 305.942 250.298 306.277C250.298 306.497 250.255 306.714 250.168 306.928C250.083 307.142 249.93 307.38 249.71 307.641C249.491 307.9 249.181 308.212 248.781 308.576L247.932 309.408V309.448H250.375V310.453H246.227ZM251.267 310.453V309.567L253.338 307.649C253.514 307.479 253.661 307.326 253.781 307.189C253.902 307.053 253.994 306.919 254.056 306.789C254.119 306.656 254.15 306.513 254.15 306.36C254.15 306.189 254.111 306.042 254.034 305.919C253.956 305.794 253.85 305.699 253.715 305.632C253.581 305.564 253.428 305.53 253.258 305.53C253.08 305.53 252.925 305.566 252.792 305.638C252.66 305.71 252.557 305.813 252.485 305.948C252.413 306.082 252.377 306.242 252.377 306.428H251.21C251.21 306.047 251.296 305.717 251.468 305.436C251.641 305.156 251.882 304.939 252.193 304.786C252.503 304.632 252.861 304.556 253.267 304.556C253.683 304.556 254.046 304.63 254.355 304.777C254.665 304.923 254.907 305.126 255.079 305.385C255.251 305.645 255.338 305.942 255.338 306.277C255.338 306.497 255.294 306.714 255.207 306.928C255.122 307.142 254.969 307.38 254.749 307.641C254.53 307.9 254.22 308.212 253.82 308.576L252.971 309.408V309.448H255.414V310.453H251.267Z" fill="#696969"/>
<path d="M408.212 331.224V330.227L410.542 328.07C410.74 327.878 410.906 327.705 411.04 327.552C411.177 327.399 411.28 327.248 411.35 327.101C411.42 326.952 411.456 326.791 411.456 326.619C411.456 326.427 411.412 326.262 411.325 326.123C411.237 325.983 411.118 325.875 410.967 325.801C410.815 325.724 410.644 325.686 410.452 325.686C410.252 325.686 410.077 325.726 409.928 325.807C409.779 325.888 409.664 326.004 409.583 326.155C409.502 326.307 409.461 326.487 409.461 326.695H408.148C408.148 326.267 408.245 325.895 408.439 325.58C408.633 325.265 408.904 325.021 409.254 324.848C409.603 324.676 410.006 324.589 410.462 324.589C410.93 324.589 411.338 324.672 411.686 324.839C412.035 325.003 412.307 325.231 412.501 325.523C412.695 325.814 412.792 326.149 412.792 326.526C412.792 326.773 412.743 327.017 412.645 327.258C412.549 327.499 412.377 327.766 412.13 328.06C411.883 328.352 411.534 328.703 411.085 329.112L410.129 330.048V330.093H412.878V331.224H408.212ZM416.271 331.314C415.82 331.314 415.417 331.231 415.063 331.064C414.712 330.898 414.432 330.669 414.226 330.377C414.019 330.085 413.912 329.751 413.903 329.374H415.245C415.26 329.627 415.367 329.833 415.565 329.991C415.763 330.148 415.999 330.227 416.271 330.227C416.489 330.227 416.68 330.179 416.847 330.083C417.015 329.985 417.146 329.85 417.24 329.677C417.336 329.503 417.383 329.302 417.383 329.077C417.383 328.846 417.334 328.644 417.236 328.469C417.141 328.295 417.007 328.158 416.837 328.06C416.667 327.962 416.472 327.912 416.252 327.91C416.06 327.91 415.874 327.949 415.693 328.028C415.514 328.107 415.374 328.215 415.274 328.351L414.044 328.13L414.354 324.679H418.355V325.81H415.495L415.325 327.45H415.364C415.479 327.288 415.652 327.154 415.885 327.047C416.117 326.941 416.377 326.887 416.664 326.887C417.059 326.887 417.41 326.98 417.719 327.165C418.028 327.351 418.272 327.605 418.451 327.929C418.63 328.251 418.718 328.622 418.716 329.041C418.718 329.482 418.616 329.874 418.409 330.217C418.205 330.558 417.918 330.827 417.55 331.023C417.183 331.217 416.757 331.314 416.271 331.314ZM419.582 330.074V328.984L422.315 324.679H423.255V326.187H422.698L420.976 328.914V328.965H424.859V330.074H419.582ZM422.724 331.224V329.741L422.75 329.259V324.679H424.047V331.224H422.724ZM427.151 330.329L427.115 330.681C427.088 330.962 427.034 331.242 426.956 331.521C426.879 331.803 426.798 332.057 426.713 332.285C426.63 332.513 426.562 332.692 426.511 332.822H425.629C425.661 332.697 425.705 332.521 425.76 332.295C425.816 332.071 425.868 331.82 425.917 331.541C425.966 331.262 425.997 330.977 426.01 330.687L426.026 330.329H427.151ZM430.628 324.589C430.964 324.589 431.288 324.646 431.599 324.759C431.913 324.872 432.192 325.052 432.437 325.299C432.684 325.546 432.879 325.874 433.022 326.283C433.167 326.69 433.24 327.19 433.242 327.782C433.242 328.338 433.179 328.835 433.054 329.271C432.93 329.706 432.752 330.076 432.52 330.38C432.288 330.685 432.007 330.917 431.679 331.077C431.351 331.235 430.985 331.314 430.58 331.314C430.143 331.314 429.757 331.23 429.423 331.061C429.088 330.891 428.819 330.66 428.614 330.368C428.412 330.074 428.289 329.743 428.247 329.377H429.611C429.665 329.616 429.777 329.801 429.947 329.933C430.117 330.063 430.328 330.128 430.58 330.128C431.006 330.128 431.33 329.943 431.551 329.572C431.773 329.199 431.885 328.689 431.887 328.041H431.842C431.744 328.233 431.612 328.398 431.446 328.536C431.28 328.673 431.089 328.778 430.874 328.853C430.661 328.927 430.434 328.965 430.193 328.965C429.807 328.965 429.463 328.874 429.161 328.693C428.858 328.512 428.62 328.263 428.445 327.945C428.27 327.628 428.183 327.265 428.183 326.858C428.181 326.42 428.282 326.029 428.486 325.686C428.691 325.342 428.977 325.074 429.343 324.88C429.712 324.684 430.14 324.587 430.628 324.589ZM430.637 325.676C430.422 325.676 430.23 325.727 430.062 325.829C429.896 325.932 429.764 326.069 429.666 326.242C429.57 326.414 429.523 326.607 429.525 326.82C429.525 327.035 429.572 327.229 429.666 327.402C429.762 327.572 429.892 327.709 430.056 327.811C430.222 327.911 430.412 327.961 430.625 327.961C430.784 327.961 430.932 327.931 431.069 327.872C431.205 327.812 431.323 327.73 431.424 327.626C431.526 327.519 431.606 327.396 431.663 327.258C431.721 327.119 431.75 326.972 431.75 326.817C431.747 326.61 431.698 326.421 431.603 326.248C431.507 326.075 431.375 325.937 431.206 325.833C431.038 325.728 430.848 325.676 430.637 325.676ZM436.767 331.368C436.218 331.366 435.745 331.231 435.348 330.962C434.954 330.694 434.651 330.305 434.437 329.796C434.227 329.286 434.122 328.674 434.124 327.958C434.124 327.244 434.23 326.636 434.441 326.133C434.654 325.63 434.957 325.248 435.352 324.986C435.748 324.721 436.22 324.589 436.767 324.589C437.315 324.589 437.786 324.721 438.18 324.986C438.576 325.25 438.881 325.633 439.094 326.136C439.307 326.637 439.413 327.244 439.41 327.958C439.41 328.676 439.304 329.29 439.091 329.799C438.88 330.308 438.577 330.697 438.183 330.965C437.789 331.234 437.317 331.368 436.767 331.368ZM436.767 330.221C437.142 330.221 437.442 330.032 437.665 329.655C437.889 329.278 438 328.712 437.998 327.958C437.998 327.461 437.947 327.048 437.844 326.718C437.744 326.388 437.602 326.139 437.416 325.973C437.233 325.807 437.017 325.724 436.767 325.724C436.394 325.724 436.096 325.91 435.872 326.283C435.649 326.656 435.536 327.214 435.534 327.958C435.534 328.461 435.584 328.88 435.684 329.217C435.786 329.552 435.93 329.803 436.115 329.971C436.301 330.138 436.518 330.221 436.767 330.221ZM442.909 331.314C442.573 331.312 442.248 331.255 441.935 331.144C441.623 331.034 441.344 330.854 441.097 330.604C440.85 330.355 440.654 330.025 440.509 329.613C440.366 329.202 440.295 328.697 440.295 328.099C440.297 327.549 440.36 327.058 440.484 326.625C440.609 326.191 440.788 325.822 441.02 325.519C441.255 325.217 441.535 324.987 441.861 324.829C442.187 324.669 442.552 324.589 442.957 324.589C443.394 324.589 443.78 324.675 444.114 324.845C444.449 325.013 444.717 325.242 444.92 325.532C445.124 325.822 445.248 326.147 445.29 326.507H443.926C443.872 326.279 443.761 326.1 443.59 325.97C443.42 325.84 443.209 325.775 442.957 325.775C442.531 325.775 442.207 325.96 441.986 326.331C441.766 326.702 441.654 327.206 441.65 327.843H441.695C441.793 327.649 441.925 327.484 442.091 327.347C442.259 327.209 442.45 327.104 442.663 327.031C442.878 326.956 443.105 326.919 443.344 326.919C443.732 326.919 444.077 327.011 444.379 327.194C444.682 327.375 444.921 327.624 445.095 327.942C445.27 328.259 445.357 328.623 445.357 329.032C445.357 329.475 445.254 329.869 445.047 330.214C444.843 330.559 444.556 330.83 444.188 331.026C443.821 331.22 443.395 331.316 442.909 331.314ZM442.903 330.227C443.116 330.227 443.307 330.176 443.475 330.074C443.643 329.971 443.775 329.833 443.871 329.658C443.967 329.483 444.015 329.287 444.015 329.07C444.015 328.853 443.967 328.658 443.871 328.485C443.778 328.313 443.648 328.175 443.481 328.073C443.315 327.971 443.126 327.92 442.913 327.92C442.753 327.92 442.605 327.949 442.468 328.009C442.334 328.069 442.216 328.152 442.114 328.258C442.013 328.365 441.935 328.488 441.877 328.629C441.819 328.768 441.791 328.916 441.791 329.073C441.791 329.284 441.839 329.477 441.935 329.652C442.033 329.827 442.165 329.966 442.331 330.07C442.499 330.175 442.69 330.227 442.903 330.227Z" fill="#696969"/>
<path d="M222.273 342.346V341.349L224.603 339.191C224.801 339 224.967 338.827 225.101 338.674C225.238 338.52 225.341 338.37 225.411 338.223C225.482 338.074 225.517 337.913 225.517 337.74C225.517 337.549 225.473 337.383 225.386 337.245C225.298 337.104 225.179 336.997 225.028 336.922C224.876 336.845 224.705 336.807 224.513 336.807C224.313 336.807 224.138 336.848 223.989 336.929C223.84 337.01 223.725 337.126 223.644 337.277C223.563 337.428 223.522 337.608 223.522 337.817H222.209C222.209 337.389 222.306 337.017 222.5 336.702C222.694 336.386 222.965 336.142 223.315 335.97C223.664 335.797 224.067 335.711 224.523 335.711C224.991 335.711 225.4 335.794 225.747 335.96C226.096 336.124 226.368 336.352 226.562 336.644C226.756 336.936 226.853 337.271 226.853 337.648C226.853 337.895 226.804 338.139 226.706 338.38C226.61 338.62 226.438 338.888 226.191 339.182C225.944 339.474 225.596 339.824 225.146 340.233L224.19 341.17V341.214H226.939V342.346H222.273ZM227.702 341.195V340.105L230.435 335.8H231.374V337.309H230.818L229.095 340.035V340.086H232.979V341.195H227.702ZM230.844 342.346V340.863L230.869 340.38V335.8H232.167V342.346H230.844ZM236.291 342.435C235.84 342.435 235.437 342.352 235.083 342.186C234.732 342.02 234.453 341.791 234.246 341.499C234.039 341.207 233.932 340.872 233.923 340.495H235.265C235.28 340.749 235.387 340.954 235.585 341.112C235.783 341.27 236.019 341.349 236.291 341.349C236.509 341.349 236.7 341.301 236.867 341.205C237.035 341.107 237.166 340.972 237.26 340.799C237.356 340.624 237.403 340.424 237.403 340.198C237.403 339.968 237.354 339.766 237.256 339.591C237.161 339.416 237.027 339.28 236.857 339.182C236.687 339.084 236.492 339.034 236.272 339.032C236.08 339.032 235.894 339.071 235.713 339.15C235.534 339.229 235.394 339.336 235.294 339.473L234.064 339.252L234.374 335.8H238.375V336.932H235.515L235.345 338.571H235.384C235.499 338.409 235.672 338.275 235.905 338.169C236.137 338.062 236.397 338.009 236.684 338.009C237.079 338.009 237.43 338.102 237.739 338.287C238.048 338.472 238.292 338.727 238.471 339.051C238.65 339.372 238.738 339.743 238.736 340.163C238.738 340.604 238.636 340.996 238.429 341.339C238.225 341.68 237.938 341.948 237.57 342.144C237.203 342.338 236.777 342.435 236.291 342.435ZM240.983 341.451L240.948 341.803C240.92 342.084 240.867 342.364 240.788 342.643C240.711 342.924 240.63 343.179 240.545 343.407C240.462 343.635 240.395 343.814 240.344 343.944H239.462C239.494 343.818 239.537 343.642 239.593 343.416C239.648 343.193 239.7 342.941 239.749 342.662C239.798 342.383 239.829 342.099 239.842 341.809L239.858 341.451H240.983ZM244.464 342.435C244.127 342.433 243.802 342.377 243.489 342.266C243.178 342.155 242.899 341.975 242.651 341.726C242.404 341.477 242.208 341.146 242.063 340.735C241.921 340.324 241.849 339.819 241.849 339.22C241.851 338.67 241.914 338.179 242.038 337.747C242.163 337.312 242.342 336.943 242.575 336.641C242.809 336.338 243.089 336.108 243.415 335.951C243.741 335.791 244.107 335.711 244.511 335.711C244.948 335.711 245.334 335.796 245.668 335.967C246.003 336.135 246.271 336.364 246.474 336.654C246.678 336.943 246.802 337.268 246.845 337.628H245.48C245.427 337.401 245.315 337.222 245.144 337.092C244.974 336.962 244.763 336.897 244.511 336.897C244.085 336.897 243.761 337.082 243.54 337.453C243.32 337.823 243.209 338.327 243.204 338.964H243.249C243.347 338.771 243.479 338.605 243.645 338.469C243.814 338.331 244.004 338.225 244.217 338.153C244.433 338.078 244.66 338.041 244.898 338.041C245.286 338.041 245.631 338.132 245.934 338.316C246.236 338.497 246.475 338.746 246.65 339.064C246.824 339.381 246.912 339.744 246.912 340.153C246.912 340.597 246.808 340.991 246.602 341.336C246.397 341.681 246.111 341.952 245.742 342.148C245.375 342.342 244.949 342.437 244.464 342.435ZM244.457 341.349C244.67 341.349 244.861 341.298 245.029 341.195C245.198 341.093 245.33 340.954 245.426 340.78C245.521 340.605 245.569 340.409 245.569 340.192C245.569 339.974 245.521 339.779 245.426 339.607C245.332 339.434 245.202 339.297 245.036 339.195C244.869 339.092 244.68 339.041 244.467 339.041C244.307 339.041 244.159 339.071 244.022 339.131C243.888 339.19 243.77 339.273 243.668 339.38C243.568 339.486 243.489 339.61 243.431 339.751C243.374 339.889 243.345 340.037 243.345 340.195C243.345 340.406 243.393 340.599 243.489 340.773C243.587 340.948 243.719 341.088 243.885 341.192C244.053 341.296 244.244 341.349 244.457 341.349ZM250.405 342.435C250.068 342.433 249.743 342.377 249.43 342.266C249.119 342.155 248.84 341.975 248.593 341.726C248.346 341.477 248.15 341.146 248.005 340.735C247.862 340.324 247.791 339.819 247.791 339.22C247.793 338.67 247.856 338.179 247.979 337.747C248.105 337.312 248.284 336.943 248.516 336.641C248.75 336.338 249.031 336.108 249.357 335.951C249.683 335.791 250.048 335.711 250.453 335.711C250.89 335.711 251.275 335.796 251.61 335.967C251.944 336.135 252.213 336.364 252.415 336.654C252.62 336.943 252.743 337.268 252.786 337.628H251.421C251.368 337.401 251.256 337.222 251.086 337.092C250.915 336.962 250.704 336.897 250.453 336.897C250.027 336.897 249.703 337.082 249.481 337.453C249.262 337.823 249.15 338.327 249.146 338.964H249.19C249.288 338.771 249.421 338.605 249.587 338.469C249.755 338.331 249.946 338.225 250.159 338.153C250.374 338.078 250.601 338.041 250.84 338.041C251.227 338.041 251.573 338.132 251.875 338.316C252.178 338.497 252.416 338.746 252.591 339.064C252.766 339.381 252.853 339.744 252.853 340.153C252.853 340.597 252.75 340.991 252.543 341.336C252.339 341.681 252.052 341.952 251.683 342.148C251.317 342.342 250.891 342.437 250.405 342.435ZM250.399 341.349C250.612 341.349 250.802 341.298 250.971 341.195C251.139 341.093 251.271 340.954 251.367 340.78C251.463 340.605 251.511 340.409 251.511 340.192C251.511 339.974 251.463 339.779 251.367 339.607C251.273 339.434 251.143 339.297 250.977 339.195C250.811 339.092 250.621 339.041 250.408 339.041C250.248 339.041 250.1 339.071 249.964 339.131C249.83 339.19 249.711 339.273 249.609 339.38C249.509 339.486 249.43 339.61 249.373 339.751C249.315 339.889 249.286 340.037 249.286 340.195C249.286 340.406 249.334 340.599 249.43 340.773C249.528 340.948 249.66 341.088 249.826 341.192C249.995 341.296 250.185 341.349 250.399 341.349ZM253.834 342.346V341.349L256.164 339.191C256.362 339 256.528 338.827 256.663 338.674C256.799 338.52 256.902 338.37 256.973 338.223C257.043 338.074 257.078 337.913 257.078 337.74C257.078 337.549 257.035 337.383 256.947 337.245C256.86 337.104 256.741 336.997 256.589 336.922C256.438 336.845 256.266 336.807 256.075 336.807C255.874 336.807 255.7 336.848 255.551 336.929C255.401 337.01 255.286 337.126 255.205 337.277C255.124 337.428 255.084 337.608 255.084 337.817H253.77C253.77 337.389 253.867 337.017 254.061 336.702C254.255 336.386 254.527 336.142 254.876 335.97C255.226 335.797 255.628 335.711 256.084 335.711C256.553 335.711 256.961 335.794 257.308 335.96C257.658 336.124 257.929 336.352 258.123 336.644C258.317 336.936 258.414 337.271 258.414 337.648C258.414 337.895 258.365 338.139 258.267 338.38C258.171 338.62 258 338.888 257.753 339.182C257.505 339.474 257.157 339.824 256.707 340.233L255.752 341.17V341.214H258.5V342.346H253.834Z" fill="#696969"/>
<path d="M41.2141 379.417V378.42L43.544 376.263C43.7422 376.071 43.9084 375.899 44.0426 375.745C44.179 375.592 44.2823 375.442 44.3526 375.295C44.4229 375.145 44.4581 374.985 44.4581 374.812C44.4581 374.62 44.4144 374.455 44.3271 374.317C44.2397 374.176 44.1204 374.068 43.9691 373.994C43.8178 373.917 43.6463 373.879 43.4545 373.879C43.2543 373.879 43.0795 373.919 42.9304 374C42.7813 374.081 42.6662 374.197 42.5852 374.349C42.5043 374.5 42.4638 374.68 42.4638 374.889H41.1502C41.1502 374.46 41.2472 374.089 41.4411 373.773C41.6349 373.458 41.9066 373.214 42.256 373.041C42.6055 372.869 43.0082 372.782 43.4641 372.782C43.9329 372.782 44.3409 372.866 44.6882 373.032C45.0376 373.196 45.3093 373.424 45.5032 373.716C45.6971 374.008 45.794 374.342 45.794 374.719C45.794 374.966 45.745 375.21 45.647 375.451C45.5511 375.692 45.3796 375.959 45.1325 376.253C44.8853 376.545 44.5369 376.896 44.0874 377.305L43.1317 378.241V378.286H45.8803V379.417H41.2141ZM46.8831 379.417V378.42L49.213 376.263C49.4111 376.071 49.5773 375.899 49.7116 375.745C49.8479 375.592 49.9513 375.442 50.0216 375.295C50.0919 375.145 50.127 374.985 50.127 374.812C50.127 374.62 50.0834 374.455 49.996 374.317C49.9086 374.176 49.7893 374.068 49.6381 373.994C49.4868 373.917 49.3153 373.879 49.1235 373.879C48.9232 373.879 48.7485 373.919 48.5993 374C48.4502 374.081 48.3351 374.197 48.2542 374.349C48.1732 374.5 48.1327 374.68 48.1327 374.889H46.8192C46.8192 374.46 46.9161 374.089 47.11 373.773C47.3039 373.458 47.5756 373.214 47.925 373.041C48.2744 372.869 48.6771 372.782 49.1331 372.782C49.6018 372.782 50.0099 372.866 50.3572 373.032C50.7066 373.196 50.9782 373.424 51.1721 373.716C51.366 374.008 51.463 374.342 51.463 374.719C51.463 374.966 51.414 375.21 51.316 375.451C51.2201 375.692 51.0486 375.959 50.8014 376.253C50.5542 376.545 50.2059 376.896 49.7563 377.305L48.8007 378.241V378.286H51.5493V379.417H46.8831ZM54.9714 379.507C54.4941 379.507 54.0691 379.425 53.6962 379.261C53.3255 379.095 53.0325 378.867 52.8173 378.577C52.6042 378.285 52.4945 377.948 52.4881 377.567H53.8816C53.8901 377.727 53.9423 377.867 54.0382 377.989C54.1362 378.108 54.2662 378.201 54.4281 378.267C54.59 378.333 54.7722 378.366 54.9746 378.366C55.1855 378.366 55.372 378.329 55.5339 378.254C55.6958 378.179 55.8226 378.076 55.9142 377.944C56.0059 377.812 56.0517 377.66 56.0517 377.487C56.0517 377.312 56.0027 377.158 55.9047 377.024C55.8088 376.887 55.6703 376.781 55.4892 376.704C55.3102 376.627 55.0971 376.589 54.85 376.589H54.2395V375.573H54.85C55.0588 375.573 55.2431 375.536 55.4029 375.464C55.5648 375.391 55.6905 375.291 55.78 375.164C55.8695 375.034 55.9142 374.882 55.9142 374.71C55.9142 374.546 55.8748 374.402 55.796 374.278C55.7193 374.153 55.6106 374.054 55.47 373.984C55.3315 373.914 55.1696 373.879 54.9842 373.879C54.7967 373.879 54.6252 373.913 54.4696 373.981C54.3141 374.047 54.1895 374.142 54.0957 374.265C54.002 374.389 53.9519 374.534 53.9455 374.7H52.6191C52.6255 374.323 52.7331 373.991 52.9419 373.703C53.1507 373.415 53.432 373.191 53.7857 373.029C54.1415 372.865 54.5431 372.782 54.9906 372.782C55.4423 372.782 55.8375 372.865 56.1763 373.029C56.5151 373.193 56.7782 373.414 56.9657 373.693C57.1554 373.97 57.2491 374.281 57.247 374.627C57.2491 374.993 57.1351 375.299 56.905 375.544C56.677 375.789 56.3798 375.944 56.0133 376.01V376.062C56.4949 376.123 56.8613 376.291 57.1127 376.563C57.3663 376.834 57.492 377.173 57.4899 377.58C57.492 377.953 57.3844 378.284 57.1671 378.574C56.9519 378.863 56.6547 379.091 56.2754 379.258C55.8961 379.424 55.4615 379.507 54.9714 379.507ZM59.7926 378.523L59.7575 378.874C59.7298 379.155 59.6765 379.436 59.5977 379.715C59.521 379.996 59.44 380.251 59.3548 380.478C59.2717 380.706 59.2045 380.885 59.1534 381.015H58.2713C58.3033 380.89 58.3469 380.714 58.4023 380.488C58.4577 380.264 58.5099 380.013 58.5589 379.734C58.608 379.455 58.6388 379.17 58.6516 378.88L58.6676 378.523H59.7926ZM63.055 372.872V379.417H61.6711V374.186H61.6327L60.1338 375.125V373.898L61.7542 372.872H63.055ZM67.03 379.507C66.5527 379.507 66.1277 379.425 65.7548 379.261C65.3841 379.095 65.0911 378.867 64.8759 378.577C64.6628 378.285 64.5531 377.948 64.5467 377.567H65.9402C65.9487 377.727 66.0009 377.867 66.0968 377.989C66.1948 378.108 66.3248 378.201 66.4867 378.267C66.6486 378.333 66.8308 378.366 67.0332 378.366C67.2441 378.366 67.4306 378.329 67.5925 378.254C67.7544 378.179 67.8812 378.076 67.9728 377.944C68.0645 377.812 68.1103 377.66 68.1103 377.487C68.1103 377.312 68.0613 377.158 67.9632 377.024C67.8674 376.887 67.7289 376.781 67.5478 376.704C67.3688 376.627 67.1557 376.589 66.9086 376.589H66.2981V375.573H66.9086C67.1174 375.573 67.3017 375.536 67.4615 375.464C67.6234 375.391 67.7491 375.291 67.8386 375.164C67.9281 375.034 67.9728 374.882 67.9728 374.71C67.9728 374.546 67.9334 374.402 67.8546 374.278C67.7779 374.153 67.6692 374.054 67.5286 373.984C67.3901 373.914 67.2282 373.879 67.0428 373.879C66.8553 373.879 66.6838 373.913 66.5282 373.981C66.3727 374.047 66.248 374.142 66.1543 374.265C66.0605 374.389 66.0105 374.534 66.0041 374.7H64.6777C64.6841 374.323 64.7917 373.991 65.0005 373.703C65.2093 373.415 65.4906 373.191 65.8443 373.029C66.2001 372.865 66.6017 372.782 67.0492 372.782C67.5009 372.782 67.8961 372.865 68.2349 373.029C68.5737 373.193 68.8368 373.414 69.0243 373.693C69.214 373.97 69.3077 374.281 69.3056 374.627C69.3077 374.993 69.1937 375.299 68.9636 375.544C68.7356 375.789 68.4384 375.944 68.0719 376.01V376.062C68.5534 376.123 68.9199 376.291 69.1713 376.563C69.4249 376.834 69.5506 377.173 69.5485 377.58C69.5506 377.953 69.443 378.284 69.2257 378.574C69.0105 378.863 68.7132 379.091 68.334 379.258C67.9547 379.424 67.5201 379.507 67.03 379.507ZM70.5432 379.417V378.42L72.8731 376.263C73.0713 376.071 73.2375 375.899 73.3717 375.745C73.5081 375.592 73.6114 375.442 73.6817 375.295C73.752 375.145 73.7872 374.985 73.7872 374.812C73.7872 374.62 73.7435 374.455 73.6562 374.317C73.5688 374.176 73.4495 374.068 73.2982 373.994C73.1469 373.917 72.9754 373.879 72.7836 373.879C72.5834 373.879 72.4086 373.919 72.2595 374C72.1104 374.081 71.9953 374.197 71.9143 374.349C71.8334 374.5 71.7929 374.68 71.7929 374.889H70.4793C70.4793 374.46 70.5763 374.089 70.7702 373.773C70.964 373.458 71.2357 373.214 71.5851 373.041C71.9346 372.869 72.3373 372.782 72.7932 372.782C73.262 372.782 73.67 372.866 74.0173 373.032C74.3667 373.196 74.6384 373.424 74.8323 373.716C75.0262 374.008 75.1231 374.342 75.1231 374.719C75.1231 374.966 75.0741 375.21 74.9761 375.451C74.8802 375.692 74.7087 375.959 74.4616 376.253C74.2144 376.545 73.866 376.896 73.4165 377.305L72.4608 378.241V378.286H75.2094V379.417H70.5432Z" fill="#696969"/>
<path d="M48.8149 440.202V439.316L50.8859 437.398C51.062 437.228 51.2097 437.074 51.3291 436.938C51.4503 436.801 51.5421 436.668 51.6046 436.537C51.6671 436.405 51.6984 436.262 51.6984 436.108C51.6984 435.938 51.6595 435.791 51.5819 435.668C51.5042 435.543 51.3982 435.447 51.2637 435.381C51.1292 435.313 50.9768 435.279 50.8063 435.279C50.6283 435.279 50.473 435.315 50.3404 435.387C50.2078 435.459 50.1056 435.562 50.0336 435.696C49.9616 435.831 49.9256 435.991 49.9256 436.176H48.758C48.758 435.796 48.8442 435.465 49.0166 435.185C49.1889 434.905 49.4304 434.688 49.741 434.534C50.0516 434.381 50.4095 434.304 50.8149 434.304C51.2315 434.304 51.5942 434.378 51.9029 434.526C52.2135 434.672 52.455 434.874 52.6274 435.134C52.7997 435.393 52.8859 435.691 52.8859 436.026C52.8859 436.246 52.8423 436.462 52.7552 436.676C52.67 436.89 52.5175 437.128 52.2978 437.39C52.0781 437.649 51.7685 437.961 51.3688 438.324L50.5194 439.157V439.196H52.9626V440.202H48.8149ZM56.1352 440.33C55.6465 440.328 55.2261 440.208 54.8738 439.969C54.5234 439.73 54.2535 439.385 54.0641 438.932C53.8766 438.479 53.7838 437.935 53.7857 437.299C53.7857 436.664 53.8795 436.123 54.067 435.676C54.2564 435.229 54.5263 434.89 54.8766 434.657C55.2289 434.422 55.6484 434.304 56.1352 434.304C56.6219 434.304 57.0405 434.422 57.3908 434.657C57.7431 434.891 58.014 435.232 58.2033 435.679C58.3927 436.124 58.4865 436.664 58.4846 437.299C58.4846 437.937 58.3899 438.482 58.2005 438.935C58.013 439.388 57.7441 439.733 57.3937 439.972C57.0433 440.211 56.6238 440.33 56.1352 440.33ZM56.1352 439.31C56.4685 439.31 56.7346 439.142 56.9335 438.807C57.1323 438.472 57.2308 437.969 57.2289 437.299C57.2289 436.857 57.1835 436.49 57.0926 436.196C57.0035 435.903 56.8766 435.682 56.7119 435.534C56.549 435.387 56.3568 435.313 56.1352 435.313C55.8037 435.313 55.5386 435.479 55.3397 435.81C55.1408 436.141 55.0405 436.638 55.0386 437.299C55.0386 437.746 55.0831 438.119 55.1721 438.418C55.263 438.715 55.3908 438.939 55.5556 439.088C55.7204 439.236 55.9136 439.31 56.1352 439.31ZM61.893 434.384V440.202H60.6629V435.551H60.6288L59.2964 436.387V435.296L60.7367 434.384H61.893ZM65.3809 434.304C65.6801 434.304 65.968 434.354 66.2445 434.455C66.5229 434.555 66.7711 434.715 66.9889 434.935C67.2086 435.155 67.3819 435.446 67.5087 435.81C67.6375 436.172 67.7029 436.616 67.7048 437.142C67.7048 437.637 67.6489 438.078 67.5372 438.466C67.4273 438.853 67.2692 439.181 67.0627 439.452C66.8563 439.723 66.6072 439.929 66.3156 440.071C66.0239 440.211 65.6981 440.282 65.3383 440.282C64.95 440.282 64.6072 440.207 64.3099 440.057C64.0125 439.906 63.7729 439.7 63.5911 439.441C63.4112 439.179 63.3023 438.886 63.2644 438.56H64.4775C64.5248 438.772 64.6243 438.937 64.7758 439.054C64.9273 439.17 65.1148 439.228 65.3383 439.228C65.7171 439.228 66.005 439.063 66.2019 438.733C66.3989 438.402 66.4983 437.948 66.5002 437.372H66.4604C66.3733 437.543 66.2559 437.69 66.1082 437.813C65.9604 437.934 65.7909 438.028 65.5997 438.094C65.4103 438.16 65.2086 438.194 64.9945 438.194C64.6517 438.194 64.3459 438.113 64.0769 437.952C63.808 437.791 63.5959 437.569 63.4406 437.287C63.2853 437.005 63.2076 436.683 63.2076 436.321C63.2057 435.931 63.2957 435.584 63.4775 435.279C63.6593 434.974 63.9131 434.735 64.2389 434.563C64.5665 434.389 64.9472 434.302 65.3809 434.304ZM65.3894 435.27C65.1981 435.27 65.0277 435.316 64.8781 435.407C64.7303 435.497 64.6129 435.62 64.5258 435.773C64.4406 435.926 64.3989 436.098 64.4008 436.287C64.4008 436.479 64.4425 436.651 64.5258 436.804C64.611 436.956 64.7265 437.077 64.8724 437.168C65.0201 437.257 65.1887 437.301 65.3781 437.301C65.5201 437.301 65.6517 437.275 65.7729 437.222C65.8942 437.169 65.9993 437.096 66.0883 437.003C66.1792 436.908 66.2502 436.8 66.3014 436.676C66.3525 436.553 66.3781 436.423 66.3781 436.284C66.3762 436.101 66.3326 435.932 66.2474 435.779C66.1622 435.625 66.0447 435.502 65.8951 435.409C65.7455 435.317 65.5769 435.27 65.3894 435.27Z" fill="#828282"/>
<path d="M232.425 440.202V439.316L234.496 437.398C234.672 437.228 234.82 437.074 234.939 436.938C235.061 436.801 235.152 436.668 235.215 436.537C235.277 436.405 235.309 436.262 235.309 436.108C235.309 435.938 235.27 435.791 235.192 435.668C235.115 435.543 235.009 435.447 234.874 435.381C234.74 435.313 234.587 435.279 234.417 435.279C234.239 435.279 234.083 435.315 233.951 435.387C233.818 435.459 233.716 435.562 233.644 435.696C233.572 435.831 233.536 435.991 233.536 436.176H232.368C232.368 435.796 232.455 435.465 232.627 435.185C232.799 434.905 233.041 434.688 233.351 434.534C233.662 434.381 234.02 434.304 234.425 434.304C234.842 434.304 235.205 434.378 235.513 434.526C235.824 434.672 236.065 434.874 236.238 435.134C236.41 435.393 236.496 435.691 236.496 436.026C236.496 436.246 236.453 436.462 236.366 436.676C236.28 436.89 236.128 437.128 235.908 437.39C235.688 437.649 235.379 437.961 234.979 438.324L234.13 439.157V439.196H236.573V440.202H232.425ZM239.746 440.33C239.257 440.328 238.836 440.208 238.484 439.969C238.134 439.73 237.864 439.385 237.674 438.932C237.487 438.479 237.394 437.935 237.396 437.299C237.396 436.664 237.49 436.123 237.677 435.676C237.867 435.229 238.137 434.89 238.487 434.657C238.839 434.422 239.259 434.304 239.746 434.304C240.232 434.304 240.651 434.422 241.001 434.657C241.353 434.891 241.624 435.232 241.814 435.679C242.003 436.124 242.097 436.664 242.095 437.299C242.095 437.937 242 438.482 241.811 438.935C241.623 439.388 241.354 439.733 241.004 439.972C240.654 440.211 240.234 440.33 239.746 440.33ZM239.746 439.31C240.079 439.31 240.345 439.142 240.544 438.807C240.743 438.472 240.841 437.969 240.839 437.299C240.839 436.857 240.794 436.49 240.703 436.196C240.614 435.903 240.487 435.682 240.322 435.534C240.159 435.387 239.967 435.313 239.746 435.313C239.414 435.313 239.149 435.479 238.95 435.81C238.751 436.141 238.651 436.638 238.649 437.299C238.649 437.746 238.693 438.119 238.782 438.418C238.873 438.715 239.001 438.939 239.166 439.088C239.331 439.236 239.524 439.31 239.746 439.31ZM242.972 440.202V439.316L245.043 437.398C245.219 437.228 245.367 437.074 245.486 436.938C245.607 436.801 245.699 436.668 245.762 436.537C245.824 436.405 245.856 436.262 245.856 436.108C245.856 435.938 245.817 435.791 245.739 435.668C245.661 435.543 245.555 435.447 245.421 435.381C245.286 435.313 245.134 435.279 244.964 435.279C244.786 435.279 244.63 435.315 244.498 435.387C244.365 435.459 244.263 435.562 244.191 435.696C244.119 435.831 244.083 435.991 244.083 436.176H242.915C242.915 435.796 243.001 435.465 243.174 435.185C243.346 434.905 243.588 434.688 243.898 434.534C244.209 434.381 244.567 434.304 244.972 434.304C245.389 434.304 245.751 434.378 246.06 434.526C246.371 434.672 246.612 434.874 246.785 435.134C246.957 435.393 247.043 435.691 247.043 436.026C247.043 436.246 247 436.462 246.912 436.676C246.827 436.89 246.675 437.128 246.455 437.39C246.235 437.649 245.926 437.961 245.526 438.324L244.677 439.157V439.196H247.12V440.202H242.972ZM250.292 440.33C249.804 440.328 249.383 440.208 249.031 439.969C248.681 439.73 248.411 439.385 248.221 438.932C248.034 438.479 247.941 437.935 247.943 437.299C247.943 436.664 248.037 436.123 248.224 435.676C248.414 435.229 248.683 434.89 249.034 434.657C249.386 434.422 249.806 434.304 250.292 434.304C250.779 434.304 251.198 434.422 251.548 434.657C251.9 434.891 252.171 435.232 252.361 435.679C252.55 436.124 252.644 436.664 252.642 437.299C252.642 437.937 252.547 438.482 252.358 438.935C252.17 439.388 251.901 439.733 251.551 439.972C251.201 440.211 250.781 440.33 250.292 440.33ZM250.292 439.31C250.626 439.31 250.892 439.142 251.091 438.807C251.29 438.472 251.388 437.969 251.386 437.299C251.386 436.857 251.341 436.49 251.25 436.196C251.161 435.903 251.034 435.682 250.869 435.534C250.706 435.387 250.514 435.313 250.292 435.313C249.961 435.313 249.696 435.479 249.497 435.81C249.298 436.141 249.198 436.638 249.196 437.299C249.196 437.746 249.24 438.119 249.329 438.418C249.42 438.715 249.548 438.939 249.713 439.088C249.878 439.236 250.071 439.31 250.292 439.31Z" fill="#828282"/>
<path d="M417.466 440.202V439.316L419.537 437.398C419.713 437.228 419.861 437.074 419.98 436.938C420.102 436.801 420.193 436.668 420.256 436.537C420.318 436.405 420.35 436.262 420.35 436.108C420.35 435.938 420.311 435.791 420.233 435.668C420.156 435.543 420.05 435.447 419.915 435.381C419.781 435.313 419.628 435.279 419.458 435.279C419.28 435.279 419.124 435.315 418.992 435.387C418.859 435.459 418.757 435.562 418.685 435.696C418.613 435.831 418.577 435.991 418.577 436.176H417.409C417.409 435.796 417.496 435.465 417.668 435.185C417.84 434.905 418.082 434.688 418.392 434.534C418.703 434.381 419.061 434.304 419.466 434.304C419.883 434.304 420.246 434.378 420.554 434.526C420.865 434.672 421.106 434.874 421.279 435.134C421.451 435.393 421.537 435.691 421.537 436.026C421.537 436.246 421.494 436.462 421.407 436.676C421.321 436.89 421.169 437.128 420.949 437.39C420.729 437.649 420.42 437.961 420.02 438.324L419.171 439.157V439.196H421.614V440.202H417.466ZM424.787 440.33C424.298 440.328 423.877 440.208 423.525 439.969C423.175 439.73 422.905 439.385 422.716 438.932C422.528 438.479 422.435 437.935 422.437 437.299C422.437 436.664 422.531 436.123 422.718 435.676C422.908 435.229 423.178 434.89 423.528 434.657C423.88 434.422 424.3 434.304 424.787 434.304C425.273 434.304 425.692 434.422 426.042 434.657C426.394 434.891 426.665 435.232 426.855 435.679C427.044 436.124 427.138 436.664 427.136 437.299C427.136 437.937 427.041 438.482 426.852 438.935C426.664 439.388 426.395 439.733 426.045 439.972C425.695 440.211 425.275 440.33 424.787 440.33ZM424.787 439.31C425.12 439.31 425.386 439.142 425.585 438.807C425.784 438.472 425.882 437.969 425.88 437.299C425.88 436.857 425.835 436.49 425.744 436.196C425.655 435.903 425.528 435.682 425.363 435.534C425.2 435.387 425.008 435.313 424.787 435.313C424.455 435.313 424.19 435.479 423.991 435.81C423.792 436.141 423.692 436.638 423.69 437.299C423.69 437.746 423.734 438.119 423.823 438.418C423.914 438.715 424.042 438.939 424.207 439.088C424.372 439.236 424.565 439.31 424.787 439.31ZM428.013 440.202V439.316L430.084 437.398C430.26 437.228 430.408 437.074 430.527 436.938C430.649 436.801 430.74 436.668 430.803 436.537C430.865 436.405 430.897 436.262 430.897 436.108C430.897 435.938 430.858 435.791 430.78 435.668C430.702 435.543 430.596 435.447 430.462 435.381C430.327 435.313 430.175 435.279 430.005 435.279C429.827 435.279 429.671 435.315 429.539 435.387C429.406 435.459 429.304 435.562 429.232 435.696C429.16 435.831 429.124 435.991 429.124 436.176H427.956C427.956 435.796 428.042 435.465 428.215 435.185C428.387 434.905 428.629 434.688 428.939 434.534C429.25 434.381 429.608 434.304 430.013 434.304C430.43 434.304 430.792 434.378 431.101 434.526C431.412 434.672 431.653 434.874 431.826 435.134C431.998 435.393 432.084 435.691 432.084 436.026C432.084 436.246 432.041 436.462 431.953 436.676C431.868 436.89 431.716 437.128 431.496 437.39C431.276 437.649 430.967 437.961 430.567 438.324L429.718 439.157V439.196H432.161V440.202H428.013ZM435.583 434.384V440.202H434.353V435.551H434.319L432.987 436.387V435.296L434.427 434.384H435.583Z" fill="#828282"/>
<path d="M601.186 440.202V439.316L603.257 437.398C603.433 437.228 603.581 437.074 603.7 436.938C603.821 436.801 603.913 436.668 603.976 436.537C604.038 436.405 604.069 436.262 604.069 436.108C604.069 435.938 604.031 435.791 603.953 435.668C603.875 435.543 603.769 435.447 603.635 435.381C603.5 435.313 603.348 435.279 603.177 435.279C602.999 435.279 602.844 435.315 602.712 435.387C602.579 435.459 602.477 435.562 602.405 435.696C602.333 435.831 602.297 435.991 602.297 436.176H601.129C601.129 435.796 601.215 435.465 601.388 435.185C601.56 434.905 601.801 434.688 602.112 434.534C602.423 434.381 602.781 434.304 603.186 434.304C603.603 434.304 603.965 434.378 604.274 434.526C604.585 434.672 604.826 434.874 604.998 435.134C605.171 435.393 605.257 435.691 605.257 436.026C605.257 436.246 605.213 436.462 605.126 436.676C605.041 436.89 604.889 437.128 604.669 437.39C604.449 437.649 604.14 437.961 603.74 438.324L602.89 439.157V439.196H605.334V440.202H601.186ZM608.506 440.33C608.018 440.328 607.597 440.208 607.245 439.969C606.895 439.73 606.625 439.385 606.435 438.932C606.248 438.479 606.155 437.935 606.157 437.299C606.157 436.664 606.251 436.123 606.438 435.676C606.627 435.229 606.897 434.89 607.248 434.657C607.6 434.422 608.02 434.304 608.506 434.304C608.993 434.304 609.412 434.422 609.762 434.657C610.114 434.891 610.385 435.232 610.574 435.679C610.764 436.124 610.858 436.664 610.856 437.299C610.856 437.937 610.761 438.482 610.572 438.935C610.384 439.388 610.115 439.733 609.765 439.972C609.414 440.211 608.995 440.33 608.506 440.33ZM608.506 439.31C608.84 439.31 609.106 439.142 609.305 438.807C609.503 438.472 609.602 437.969 609.6 437.299C609.6 436.857 609.555 436.49 609.464 436.196C609.375 435.903 609.248 435.682 609.083 435.534C608.92 435.387 608.728 435.313 608.506 435.313C608.175 435.313 607.91 435.479 607.711 435.81C607.512 436.141 607.412 436.638 607.41 437.299C607.41 437.746 607.454 438.119 607.543 438.418C607.634 438.715 607.762 438.939 607.927 439.088C608.091 439.236 608.285 439.31 608.506 439.31ZM611.733 440.202V439.316L613.804 437.398C613.98 437.228 614.128 437.074 614.247 436.938C614.368 436.801 614.46 436.668 614.523 436.537C614.585 436.405 614.616 436.262 614.616 436.108C614.616 435.938 614.578 435.791 614.5 435.668C614.422 435.543 614.316 435.447 614.182 435.381C614.047 435.313 613.895 435.279 613.724 435.279C613.546 435.279 613.391 435.315 613.258 435.387C613.126 435.459 613.024 435.562 612.952 435.696C612.88 435.831 612.844 435.991 612.844 436.176H611.676C611.676 435.796 611.762 435.465 611.935 435.185C612.107 434.905 612.348 434.688 612.659 434.534C612.97 434.381 613.328 434.304 613.733 434.304C614.149 434.304 614.512 434.378 614.821 434.526C615.131 434.672 615.373 434.874 615.545 435.134C615.718 435.393 615.804 435.691 615.804 436.026C615.804 436.246 615.76 436.462 615.673 436.676C615.588 436.89 615.435 437.128 615.216 437.39C614.996 437.649 614.686 437.961 614.287 438.324L613.437 439.157V439.196H615.881V440.202H611.733ZM616.772 440.202V439.316L618.843 437.398C619.019 437.228 619.167 437.074 619.286 436.938C619.407 436.801 619.499 436.668 619.562 436.537C619.624 436.405 619.655 436.262 619.655 436.108C619.655 435.938 619.617 435.791 619.539 435.668C619.461 435.543 619.355 435.447 619.221 435.381C619.086 435.313 618.934 435.279 618.763 435.279C618.585 435.279 618.43 435.315 618.297 435.387C618.165 435.459 618.063 435.562 617.991 435.696C617.919 435.831 617.883 435.991 617.883 436.176H616.715C616.715 435.796 616.801 435.465 616.974 435.185C617.146 434.905 617.387 434.688 617.698 434.534C618.009 434.381 618.367 434.304 618.772 434.304C619.189 434.304 619.551 434.378 619.86 434.526C620.171 434.672 620.412 434.874 620.584 435.134C620.757 435.393 620.843 435.691 620.843 436.026C620.843 436.246 620.799 436.462 620.712 436.676C620.627 436.89 620.475 437.128 620.255 437.39C620.035 437.649 619.725 437.961 619.326 438.324L618.476 439.157V439.196H620.92V440.202H616.772Z" fill="#828282"/>
<path d="M785.399 440.202V439.316L787.47 437.398C787.646 437.228 787.794 437.074 787.913 436.938C788.034 436.801 788.126 436.668 788.189 436.537C788.251 436.405 788.282 436.262 788.282 436.108C788.282 435.938 788.244 435.791 788.166 435.668C788.088 435.543 787.982 435.447 787.848 435.381C787.713 435.313 787.561 435.279 787.39 435.279C787.212 435.279 787.057 435.315 786.924 435.387C786.792 435.459 786.69 435.562 786.618 435.696C786.546 435.831 786.51 435.991 786.51 436.176H785.342C785.342 435.796 785.428 435.465 785.601 435.185C785.773 434.905 786.014 434.688 786.325 434.534C786.636 434.381 786.994 434.304 787.399 434.304C787.816 434.304 788.178 434.378 788.487 434.526C788.798 434.672 789.039 434.874 789.211 435.134C789.384 435.393 789.47 435.691 789.47 436.026C789.47 436.246 789.426 436.462 789.339 436.676C789.254 436.89 789.101 437.128 788.882 437.39C788.662 437.649 788.352 437.961 787.953 438.324L787.103 439.157V439.196H789.547V440.202H785.399ZM792.719 440.33C792.231 440.328 791.81 440.208 791.458 439.969C791.107 439.73 790.838 439.385 790.648 438.932C790.461 438.479 790.368 437.935 790.37 437.299C790.37 436.664 790.463 436.123 790.651 435.676C790.84 435.229 791.11 434.89 791.461 434.657C791.813 434.422 792.232 434.304 792.719 434.304C793.206 434.304 793.624 434.422 793.975 434.657C794.327 434.891 794.598 435.232 794.787 435.679C794.977 436.124 795.07 436.664 795.069 437.299C795.069 437.937 794.974 438.482 794.784 438.935C794.597 439.388 794.328 439.733 793.978 439.972C793.627 440.211 793.208 440.33 792.719 440.33ZM792.719 439.31C793.052 439.31 793.319 439.142 793.517 438.807C793.716 438.472 793.815 437.969 793.813 437.299C793.813 436.857 793.767 436.49 793.677 436.196C793.588 435.903 793.461 435.682 793.296 435.534C793.133 435.387 792.941 435.313 792.719 435.313C792.388 435.313 792.123 435.479 791.924 435.81C791.725 436.141 791.624 436.638 791.623 437.299C791.623 437.746 791.667 438.119 791.756 438.418C791.847 438.715 791.975 438.939 792.14 439.088C792.304 439.236 792.498 439.31 792.719 439.31ZM795.946 440.202V439.316L798.017 437.398C798.193 437.228 798.341 437.074 798.46 436.938C798.581 436.801 798.673 436.668 798.735 436.537C798.798 436.405 798.829 436.262 798.829 436.108C798.829 435.938 798.79 435.791 798.713 435.668C798.635 435.543 798.529 435.447 798.395 435.381C798.26 435.313 798.108 435.279 797.937 435.279C797.759 435.279 797.604 435.315 797.471 435.387C797.339 435.459 797.236 435.562 797.164 435.696C797.092 435.831 797.057 435.991 797.057 436.176H795.889C795.889 435.796 795.975 435.465 796.147 435.185C796.32 434.905 796.561 434.688 796.872 434.534C797.182 434.381 797.54 434.304 797.946 434.304C798.362 434.304 798.725 434.378 799.034 434.526C799.344 434.672 799.586 434.874 799.758 435.134C799.931 435.393 800.017 435.691 800.017 436.026C800.017 436.246 799.973 436.462 799.886 436.676C799.801 436.89 799.648 437.128 799.429 437.39C799.209 437.649 798.899 437.961 798.5 438.324L797.65 439.157V439.196H800.093V440.202H795.946ZM803.135 440.282C802.711 440.282 802.333 440.209 802.002 440.063C801.672 439.915 801.412 439.712 801.221 439.455C801.031 439.195 800.934 438.896 800.928 438.557H802.167C802.174 438.699 802.221 438.824 802.306 438.932C802.393 439.038 802.508 439.121 802.652 439.179C802.796 439.238 802.958 439.267 803.138 439.267C803.326 439.267 803.491 439.234 803.635 439.168C803.779 439.102 803.892 439.01 803.973 438.892C804.055 438.775 804.096 438.64 804.096 438.486C804.096 438.331 804.052 438.194 803.965 438.074C803.88 437.953 803.757 437.858 803.596 437.79C803.436 437.722 803.247 437.688 803.027 437.688H802.485V436.784H803.027C803.213 436.784 803.377 436.752 803.519 436.688C803.663 436.623 803.775 436.534 803.854 436.421C803.934 436.305 803.973 436.171 803.973 436.017C803.973 435.872 803.938 435.744 803.868 435.634C803.8 435.522 803.704 435.435 803.579 435.372C803.455 435.31 803.311 435.279 803.147 435.279C802.98 435.279 802.828 435.309 802.689 435.37C802.551 435.428 802.44 435.513 802.357 435.622C802.274 435.732 802.229 435.861 802.223 436.009H801.044C801.05 435.674 801.146 435.378 801.331 435.122C801.517 434.867 801.767 434.667 802.081 434.523C802.398 434.377 802.755 434.304 803.152 434.304C803.554 434.304 803.905 434.377 804.206 434.523C804.508 434.669 804.741 434.866 804.908 435.114C805.077 435.36 805.16 435.637 805.158 435.944C805.16 436.269 805.059 436.541 804.854 436.759C804.651 436.977 804.387 437.115 804.061 437.174V437.219C804.49 437.274 804.815 437.423 805.039 437.665C805.264 437.906 805.376 438.207 805.374 438.569C805.376 438.9 805.28 439.194 805.087 439.452C804.896 439.71 804.632 439.912 804.294 440.06C803.957 440.208 803.571 440.282 803.135 440.282Z" fill="#828282"/>
<path d="M1045 492.751V295.902L935.837 283.898C912.658 281.344 890.545 276.258 870.641 268.915L805.224 241.225C794.112 236.522 778.77 237.033 768.689 242.46L709.416 274.3C700.843 278.897 688.334 279.982 677.811 277.066L627.295 263.019C613.388 259.146 596.868 260.402 585.131 266.191L529.096 293.859C518.978 298.86 506.579 302.074 493.408 303.117L444.51 306.969C430.345 308.097 417.063 311.63 406.357 317.122L354.81 343.64C341.197 350.238 321.734 350.941 306.87 345.322L275.67 328.529C256.464 318.186 226.478 318.611 208.192 329.508L141.892 368.968C134.129 373.607 121.473 373.969 112.937 369.819L91.1189 359.22C73.0538 350.472 46.5632 350.941 29.4547 360.305L-0.383965 376.651C-18.1547 386.399 -41.7387 391.826 -66.2057 391.826H-125V492.751" stroke="#EF7A1C" stroke-width="2"/>
</g>
<defs>
<clipPath id="clip0_58_54">
<rect width="920" height="500" fill="white"/>
</clipPath>
</defs>
</svg>
