<svg width="920" height="296" viewBox="0 0 920 296" fill="none" xmlns="http://www.w3.org/2000/svg">
<g clip-path="url(#clip0_58_54)">
<path d="M-95 280V158.775L53.6415 164.189C77.2991 165.052 100.478 167.452 122.186 171.3L163.614 178.631C174.652 180.591 186.058 182.23 197.684 183.547L223.586 186.473C253.829 189.897 286.28 188.127 313.139 181.616L321.38 179.611C348.202 173.1 377.415 168.315 407.99 165.433L452.656 164.189L520.575 153.376C535.696 151.635 549.641 148.592 561.451 144.465L611.194 127.112C626.059 121.918 645.338 119.182 665.095 119.46L687.171 119.767C713.22 120.133 738.643 116.562 758.364 109.773L793.832 97.5704C807.74 92.7711 826.614 90.9275 844.569 92.6102L946.3 102.135L1075 115.641V280" stroke="#F7DBC6" stroke-width="3"/>
<path d="M1075 290V154.767L965.837 146.521C942.658 144.766 920.545 141.272 900.641 136.228L835.224 117.205C824.112 113.974 808.77 114.325 798.689 118.053L739.416 139.927C730.843 143.085 718.334 143.831 707.811 141.828L657.295 132.177C643.388 129.516 626.868 130.379 615.131 134.356L559.096 153.364C548.978 156.8 536.579 159.008 523.408 159.724L474.51 162.37C460.345 163.145 447.063 165.573 436.357 169.345L384.81 187.563C371.197 192.096 351.734 192.578 336.87 188.718L305.67 177.182C286.464 170.076 256.478 170.368 238.192 177.854L171.892 204.962C164.129 208.15 151.473 208.398 142.937 205.547L121.119 198.266C103.054 192.256 76.5632 192.578 59.4547 199.012L29.616 210.241C11.8453 216.937 -11.7387 220.666 -36.2057 220.666H-95V290" stroke="#EF7A1C" stroke-width="2"/>
</g>
<defs>
<clipPath id="clip0_58_54">
<rect width="920" height="296" fill="white"/>
</clipPath>
</defs>
</svg>
