<?xml version="1.0" encoding="UTF-8"?>
<svg id="Layer_1" data-name="Layer 1" xmlns="http://www.w3.org/2000/svg" viewBox="0 0 50 34">
  <defs>
    <style>
      .cls-1 {
        fill: #231f20;
      }

      .cls-2 {
        fill: #fff;
      }
    </style>
  </defs>
  <g>
    <rect class="cls-1" x="2" y="0" width="46" height="2"/>
    <rect class="cls-1" x="0" y="2" width="2" height="30"/>
    <rect class="cls-1" x="2" y="32" width="46" height="2"/>
    <rect class="cls-2" x="2" y="2" width="46" height="30"/>
    <rect class="cls-1" x="48" y="2" width="2" height="30"/>
  </g>
  <g>
    <polygon class="cls-1" points="28 10 30 10 30 24 28 24 28 22.59 28 22 28 12 28 10"/>
    <polygon class="cls-1" points="26 16 26 14 24 14 24 12 22 12 22 10 20 10 20 24 22 24 22 22 24 22 24 20 26 20 26 18 28 18 28 16 26 16"/>
  </g>
</svg>