<?xml version="1.0" encoding="UTF-8"?>
<svg id="Layer_1" data-name="Layer 1" xmlns="http://www.w3.org/2000/svg" viewBox="0 0 30 20">
  <defs>
    <style>
      .cls-1 {
        fill: #1e96ff;
      }
    </style>
  </defs>
  <polygon class="cls-1" points="20 6 18 6 16 6 14 6 12 6 10 6 8 6 6 6 4 6 4 8 4 10 4 12 4 14 6 14 8 14 10 14 12 14 14 14 16 14 18 14 20 14 22 14 24 14 24 12 24 10 24 8 24 6 22 6 20 6"/>
  <polygon class="cls-1" points="28 8 28 6 28 4 26 4 26 6 26 8 26 10 26 12 26 14 26 15.91 24 15.91 22 15.91 20 15.91 18 15.91 16 15.91 14 15.91 12 15.91 10 15.91 8 15.91 6 15.91 4 15.91 2 15.91 2 14 2 12 2 10 2 8 2 6 2 4 0 4 0 6 0 8 0 10 0 12 0 14 0 16 2 16 2 17.91 4 17.91 6 17.91 8 17.91 10 17.91 12 17.91 14 17.91 16 17.91 18 17.91 20 17.91 22 17.91 24 17.91 26 17.91 26 16 28 16 28 14 28 12 30 12 30 10 30 8 28 8"/>
  <polygon class="cls-1" points="6 3.91 8 3.91 10 3.91 12 3.91 14 3.91 16 3.91 18 3.91 20 3.91 22 3.91 24 3.91 26 3.91 26 1.91 24 1.91 22 1.91 20 1.91 18 1.91 16 1.91 14 1.91 12 1.91 10 1.91 8 1.91 6 1.91 4 1.91 2 1.91 2 3.91 4 3.91 6 3.91"/>
</svg>