<?xml version="1.0" encoding="UTF-8"?>
<svg id="Layer_1" data-name="Layer 1" xmlns="http://www.w3.org/2000/svg" xmlns:xlink="http://www.w3.org/1999/xlink" viewBox="0 0 80 38">
  <defs>
    <style>
      .cls-1 {
        fill: url(#linear-gradient);
      }

      .cls-2 {
        fill: #fff;
      }
    </style>
    <linearGradient id="linear-gradient" x1="1.74" y1="35.67" x2="77.44" y2="2.68" gradientUnits="userSpaceOnUse">
      <stop offset="0" stop-color="#ff95dc"/>
      <stop offset="1" stop-color="#fff"/>
    </linearGradient>
  </defs>
  <rect class="cls-1" x="2" y="2" width="76" height="34"/>
  <g>
    <rect x="2" y="36" width="76" height="2"/>
    <rect x="2" y="0" width="76" height="2"/>
    <rect x="0" y="2" width="2" height="34"/>
    <rect x="78" y="2" width="2" height="34"/>
  </g>
  <polygon class="cls-2" points="50 7 48 7 48 9 46 9 46 11 44 11 44 13 42 13 42 15 40 15 38 15 38 13 36 13 36 11 34 11 34 9 32 9 32 7 30 7 30 5 26 5 26 9 28 9 28 11 30 11 30 13 32 13 32 15 34 15 34 17 36 17 36 19 36 21 34 21 34 23 32 23 32 25 30 25 30 27 28 27 28 29 26 29 26 33 30 33 30 31 32 31 32 29 34 29 34 27 36 27 36 25 38 25 38 23 40 23 42 23 42 25 44 25 44 27 46 27 46 29 48 29 48 31 50 31 50 33 54 33 54 29 52 29 52 27 50 27 50 25 48 25 48 23 46 23 46 21 44 21 44 19 44 17 46 17 46 15 48 15 48 13 50 13 50 11 52 11 52 9 54 9 54 5 50 5 50 7"/>
  <g>
    <rect x="27" y="6" width="2" height="2"/>
    <rect x="29" y="8" width="2" height="2"/>
    <rect x="31" y="10" width="2" height="2"/>
    <rect x="33" y="12" width="2" height="2"/>
    <rect x="35" y="14" width="2" height="2"/>
    <rect x="37" y="16" width="2" height="2"/>
    <rect x="41" y="20" width="2" height="2"/>
    <rect x="43" y="22" width="2" height="2"/>
    <rect x="45" y="24" width="2" height="2"/>
    <rect x="47" y="26" width="2" height="2"/>
    <rect x="49" y="28" width="2" height="2"/>
    <rect x="51" y="30" width="2" height="2"/>
    <rect x="51" y="6" width="2" height="2"/>
    <rect x="49" y="8" width="2" height="2"/>
    <rect x="47" y="10" width="2" height="2"/>
    <rect x="45" y="12" width="2" height="2"/>
    <rect x="43" y="14" width="2" height="2"/>
    <rect x="41" y="16" width="2" height="2"/>
    <rect x="39" y="18" width="2" height="2"/>
    <rect x="37" y="20" width="2" height="2"/>
    <rect x="35" y="22" width="2" height="2"/>
    <rect x="33" y="24" width="2" height="2"/>
    <rect x="31" y="26" width="2" height="2"/>
    <rect x="29" y="28" width="2" height="2"/>
    <rect x="27" y="30" width="2" height="2"/>
  </g>
</svg>