<?xml version="1.0" encoding="UTF-8"?>
<svg id="Layer_1" data-name="Layer 1" xmlns="http://www.w3.org/2000/svg" viewBox="0 0 38 38">
  <defs>
    <style>
      .cls-1 {
        fill: #fff;
      }
    </style>
  </defs>
  <polygon class="cls-1" points="29 7 27 7 27 9 25 9 25 11 23 11 23 13 21 13 21 15 19 15 17 15 17 13 15 13 15 11 13 11 13 9 11 9 11 7 9 7 9 5 5 5 5 9 7 9 7 11 9 11 9 13 11 13 11 15 13 15 13 17 15 17 15 19 15 21 13 21 13 23 11 23 11 25 9 25 9 27 7 27 7 29 5 29 5 33 9 33 9 31 11 31 11 29 13 29 13 27 15 27 15 25 17 25 17 23 19 23 21 23 21 25 23 25 23 27 25 27 25 29 27 29 27 31 29 31 29 33 33 33 33 29 31 29 31 27 29 27 29 25 27 25 27 23 25 23 25 21 23 21 23 19 23 17 25 17 25 15 27 15 27 13 29 13 29 11 31 11 31 9 33 9 33 5 29 5 29 7"/>
  <g>
    <rect x="6" y="6" width="2" height="2"/>
    <rect x="8" y="8" width="2" height="2"/>
    <rect x="10" y="10" width="2" height="2"/>
    <rect x="12" y="12" width="2" height="2"/>
    <rect x="14" y="14" width="2" height="2"/>
    <rect x="16" y="16" width="2" height="2"/>
    <rect x="20" y="20" width="2" height="2"/>
    <rect x="22" y="22" width="2" height="2"/>
    <rect x="24" y="24" width="2" height="2"/>
    <rect x="26" y="26" width="2" height="2"/>
    <rect x="28" y="28" width="2" height="2"/>
    <rect x="30" y="30" width="2" height="2"/>
    <rect x="30" y="6" width="2" height="2"/>
    <rect x="28" y="8" width="2" height="2"/>
    <rect x="26" y="10" width="2" height="2"/>
    <rect x="24" y="12" width="2" height="2"/>
    <rect x="22" y="14" width="2" height="2"/>
    <rect x="20" y="16" width="2" height="2"/>
    <rect x="18" y="18" width="2" height="2"/>
    <rect x="16" y="20" width="2" height="2"/>
    <rect x="14" y="22" width="2" height="2"/>
    <rect x="12" y="24" width="2" height="2"/>
    <rect x="10" y="26" width="2" height="2"/>
    <rect x="8" y="28" width="2" height="2"/>
    <rect x="6" y="30" width="2" height="2"/>
  </g>
</svg>