<?xml version="1.0" encoding="UTF-8"?>
<svg id="Layer_1" data-name="Layer 1" xmlns="http://www.w3.org/2000/svg" viewBox="0 0 38 38">
  <defs>
    <style>
      .cls-1 {
        fill: #fff;
      }
    </style>
  </defs>
  <polygon class="cls-1" points="29 23 29 29 21 29 21 27 23 27 23 25 25 25 25 23 27 23 27 21 29 21 29 19 31 19 31 15 27 15 27 17 25 17 25 19 23 19 23 21 21 21 21 5 17 5 17 21 15 21 15 19 13 19 13 17 11 17 11 15 7 15 7 19 9 19 9 21 11 21 11 23 13 23 13 25 15 25 15 27 17 27 17 29 9 29 9 23 5 23 5 31 7 31 7 33 31 33 31 31 33 31 33 23 29 23"/>
  <g>
    <rect x="8" y="16" width="2" height="2"/>
    <rect x="10" y="18" width="2" height="2"/>
    <polygon points="8 26 8 24 6 24 6 26 6 28 6 30 8 30 8 28 8 26"/>
    <rect x="28" y="16" width="2" height="2"/>
    <rect x="26" y="18" width="2" height="2"/>
    <rect x="12" y="20" width="2" height="2"/>
    <rect x="24" y="20" width="2" height="2"/>
    <rect x="14" y="22" width="2" height="2"/>
    <rect x="22" y="22" width="2" height="2"/>
    <polygon points="18 26 18 28 20 28 20 26 22 26 22 24 20 24 20 22 20 20 20 18 20 16 20 14 20 12 20 10 20 8 20 6 18 6 18 8 18 10 18 12 18 14 18 16 18 18 18 20 18 22 18 24 16 24 16 26 18 26"/>
    <polygon points="30 24 30 26 30 28 30 30 32 30 32 28 32 26 32 24 30 24"/>
    <polygon points="26 30 24 30 22 30 20 30 18 30 16 30 14 30 12 30 10 30 8 30 8 32 10 32 12 32 14 32 16 32 18 32 20 32 22 32 24 32 26 32 28 32 30 32 30 30 28 30 26 30"/>
  </g>
</svg>