<?xml version="1.0" encoding="UTF-8"?>
<svg id="Layer_1" data-name="Layer 1" xmlns="http://www.w3.org/2000/svg" xmlns:xlink="http://www.w3.org/1999/xlink" viewBox="0 0 80 38">
  <defs>
    <style>
      .cls-1 {
        fill: url(#linear-gradient);
      }

      .cls-2 {
        fill: #fff;
      }
    </style>
    <linearGradient id="linear-gradient" x1="1.74" y1="35.67" x2="77.44" y2="2.68" gradientUnits="userSpaceOnUse">
      <stop offset="0" stop-color="#ff95dc"/>
      <stop offset="1" stop-color="#fff"/>
    </linearGradient>
  </defs>
  <rect class="cls-1" x="2" y="2" width="76" height="34"/>
  <polygon class="cls-2" points="50 23 50 29 42 29 42 27 44 27 44 25 46 25 46 23 48 23 48 21 50 21 50 19 52 19 52 15 48 15 48 17 46 17 46 19 44 19 44 21 42 21 42 5 38 5 38 21 36 21 36 19 34 19 34 17 32 17 32 15 28 15 28 19 30 19 30 21 32 21 32 23 34 23 34 25 36 25 36 27 38 27 38 29 30 29 30 23 26 23 26 31 28 31 28 33 52 33 52 31 54 31 54 23 50 23"/>
  <g>
    <rect x="2" y="36" width="76" height="2"/>
    <rect x="2" y="0" width="76" height="2"/>
    <rect x="0" y="2" width="2" height="34"/>
    <rect x="78" y="2" width="2" height="34"/>
  </g>
  <g>
    <rect x="29" y="16" width="2" height="2"/>
    <rect x="31" y="18" width="2" height="2"/>
    <polygon points="29 26 29 24 27 24 27 26 27 28 27 30 29 30 29 28 29 26"/>
    <rect x="49" y="16" width="2" height="2"/>
    <rect x="47" y="18" width="2" height="2"/>
    <rect x="33" y="20" width="2" height="2"/>
    <rect x="45" y="20" width="2" height="2"/>
    <rect x="35" y="22" width="2" height="2"/>
    <rect x="43" y="22" width="2" height="2"/>
    <polygon points="39 26 39 28 41 28 41 26 43 26 43 24 41 24 41 22 41 20 41 18 41 16 41 14 41 12 41 10 41 8 41 6 39 6 39 8 39 10 39 12 39 14 39 16 39 18 39 20 39 22 39 24 37 24 37 26 39 26"/>
    <polygon points="51 24 51 26 51 28 51 30 53 30 53 28 53 26 53 24 51 24"/>
    <polygon points="47 30 45 30 43 30 41 30 39 30 37 30 35 30 33 30 31 30 29 30 29 32 31 32 33 32 35 32 37 32 39 32 41 32 43 32 45 32 47 32 49 32 51 32 51 30 49 30 47 30"/>
  </g>
</svg>