<?xml version="1.0" encoding="UTF-8"?>
<svg id="Layer_1" data-name="Layer 1" xmlns="http://www.w3.org/2000/svg" viewBox="0 0 20 20">
  <rect x="5" y="10" width="2" height="2"/>
  <rect x="3" y="8" width="2" height="2"/>
  <rect x="2" y="12" width="2" height="2"/>
  <rect x="7" y="12" width="2" height="2"/>
  <rect x="13" y="10" width="2" height="2" transform="translate(28 22) rotate(-180)"/>
  <rect x="15" y="8" width="2" height="2" transform="translate(32 18) rotate(-180)"/>
  <rect x="11" y="12" width="2" height="2" transform="translate(24 26) rotate(-180)"/>
  <rect x="2" y="14" width="2" height="2"/>
  <rect x="9" y="14" width="2" height="2"/>
  <rect x="9" y="12" width="2" height="2"/>
  <rect x="9" y="10" width="2" height="2"/>
  <rect x="9" y="8" width="2" height="2"/>
  <rect x="9" y="6" width="2" height="2"/>
  <rect x="9" y="4" width="2" height="2"/>
  <rect x="9" y="2" width="2" height="2"/>
  <rect x="4" y="16" width="2" height="2"/>
  <rect x="6" y="16" width="2" height="2"/>
  <rect x="8" y="16" width="2" height="2"/>
  <rect x="10" y="16" width="2" height="2"/>
  <rect x="16" y="12" width="2" height="2"/>
  <rect x="16" y="14" width="2" height="2"/>
  <rect x="12" y="16" width="2" height="2"/>
  <rect x="14" y="16" width="2" height="2"/>
</svg>