<?xml version="1.0" encoding="UTF-8"?>
<svg id="Layer_1" data-name="Layer 1" xmlns="http://www.w3.org/2000/svg" viewBox="0 0 61 57">
  <defs>
    <style>
      .cls-1 {
        fill: #fff;
      }
    </style>
  </defs>
  <rect class="cls-1" x="8.5" y="4.5" width="2" height="2"/>
  <rect class="cls-1" x="10.5" y="4.5" width="2" height="2"/>
  <rect class="cls-1" x="12.5" y="4.5" width="2" height="2"/>
  <rect class="cls-1" x="6.5" y="6.5" width="2" height="2"/>
  <rect class="cls-1" x="8.5" y="6.5" width="2" height="2"/>
  <rect class="cls-1" x="10.5" y="6.5" width="2" height="2"/>
  <rect class="cls-1" x="12.5" y="6.5" width="2" height="2"/>
  <rect class="cls-1" x="14.5" y="6.5" width="2" height="2"/>
  <rect class="cls-1" x="16.5" y="6.5" width="2" height="2"/>
  <rect class="cls-1" x="4.5" y="8.5" width="2" height="2"/>
  <rect class="cls-1" x="6.5" y="8.5" width="2" height="2"/>
  <rect class="cls-1" x="8.5" y="8.5" width="2" height="2"/>
  <rect class="cls-1" x="10.5" y="8.5" width="2" height="2"/>
  <rect class="cls-1" x="12.5" y="8.5" width="2" height="2"/>
  <rect class="cls-1" x="14.5" y="8.5" width="2" height="2"/>
  <rect class="cls-1" x="16.5" y="8.5" width="2" height="2"/>
  <rect class="cls-1" x="18.5" y="8.5" width="2" height="2"/>
  <rect class="cls-1" x="2.5" y="10.5" width="2" height="2"/>
  <rect class="cls-1" x="4.5" y="10.5" width="2" height="2"/>
  <rect class="cls-1" x="6.5" y="10.5" width="2" height="2"/>
  <rect class="cls-1" x="8.5" y="10.5" width="2" height="2"/>
  <rect class="cls-1" x="10.5" y="10.5" width="2" height="2"/>
  <rect class="cls-1" x="12.5" y="10.5" width="2" height="2"/>
  <rect class="cls-1" x="14.5" y="10.5" width="2" height="2"/>
  <rect class="cls-1" x="16.5" y="10.5" width="2" height="2"/>
  <rect class="cls-1" x="18.5" y="10.5" width="2" height="2"/>
  <rect class="cls-1" x="2.5" y="12.5" width="2" height="2"/>
  <rect class="cls-1" x="4.5" y="12.5" width="2" height="2"/>
  <rect class="cls-1" x="6.5" y="12.5" width="2" height="2"/>
  <rect class="cls-1" x="8.5" y="12.5" width="2" height="2"/>
  <rect class="cls-1" x="10.5" y="12.5" width="2" height="2"/>
  <rect class="cls-1" x="12.5" y="12.5" width="2" height="2"/>
  <rect class="cls-1" x="14.5" y="12.5" width="2" height="2"/>
  <rect class="cls-1" x="16.5" y="12.5" width="2" height="2"/>
  <rect class="cls-1" x="18.5" y="12.5" width="2" height="2"/>
  <rect class="cls-1" x="20.5" y="12.5" width="2" height="2"/>
  <rect class="cls-1" x="2.5" y="14.5" width="2" height="2"/>
  <rect class="cls-1" x="4.5" y="14.5" width="2" height="2"/>
  <rect class="cls-1" x="6.5" y="14.5" width="2" height="2"/>
  <rect class="cls-1" x="8.5" y="14.5" width="2" height="2"/>
  <rect class="cls-1" x="10.5" y="14.5" width="2" height="2"/>
  <rect class="cls-1" x="12.5" y="14.5" width="2" height="2"/>
  <rect class="cls-1" x="14.5" y="14.5" width="2" height="2"/>
  <rect class="cls-1" x="16.5" y="14.5" width="2" height="2"/>
  <rect class="cls-1" x="18.5" y="14.5" width="2" height="2"/>
  <rect class="cls-1" x="20.5" y="14.5" width="2" height="2"/>
  <rect class="cls-1" x="2.5" y="16.5" width="2" height="2"/>
  <rect class="cls-1" x="4.5" y="16.5" width="2" height="2"/>
  <rect class="cls-1" x="6.5" y="16.5" width="2" height="2"/>
  <rect class="cls-1" x="8.5" y="16.5" width="2" height="2"/>
  <rect class="cls-1" x="10.5" y="16.5" width="2" height="2"/>
  <rect class="cls-1" x="12.5" y="16.5" width="2" height="2"/>
  <rect class="cls-1" x="14.5" y="16.5" width="2" height="2"/>
  <rect class="cls-1" x="16.5" y="16.5" width="2" height="2"/>
  <rect class="cls-1" x="18.5" y="16.5" width="2" height="2"/>
  <rect class="cls-1" x="20.5" y="16.5" width="2" height="2"/>
  <rect class="cls-1" x="2.5" y="18.5" width="2" height="2"/>
  <rect class="cls-1" x="4.5" y="18.5" width="2" height="2"/>
  <rect class="cls-1" x="6.5" y="18.5" width="2" height="2"/>
  <rect class="cls-1" x="8.5" y="18.5" width="2" height="2"/>
  <rect class="cls-1" x="10.5" y="18.5" width="2" height="2"/>
  <rect class="cls-1" x="12.5" y="18.5" width="2" height="2"/>
  <rect class="cls-1" x="14.5" y="18.5" width="2" height="2"/>
  <rect class="cls-1" x="16.5" y="18.5" width="2" height="2"/>
  <rect class="cls-1" x="18.5" y="18.5" width="2" height="2"/>
  <rect class="cls-1" x="20.5" y="18.5" width="2" height="2"/>
  <rect class="cls-1" x="2.5" y="20.5" width="2" height="2"/>
  <rect class="cls-1" x="4.5" y="20.5" width="2" height="2"/>
  <rect class="cls-1" x="6.5" y="20.5" width="2" height="2"/>
  <rect class="cls-1" x="8.5" y="20.5" width="2" height="2"/>
  <rect class="cls-1" x="10.5" y="20.5" width="2" height="2"/>
  <rect class="cls-1" x="12.5" y="20.5" width="2" height="2"/>
  <rect class="cls-1" x="14.5" y="20.5" width="2" height="2"/>
  <rect class="cls-1" x="16.5" y="20.5" width="2" height="2"/>
  <rect class="cls-1" x="18.5" y="20.5" width="2" height="2"/>
  <rect class="cls-1" x="20.5" y="20.5" width="2" height="2"/>
  <rect class="cls-1" x="22.5" y="20.5" width="2" height="2"/>
  <rect class="cls-1" x="24.5" y="20.5" width="2" height="2"/>
  <rect class="cls-1" x="2.5" y="22.5" width="2" height="2"/>
  <rect class="cls-1" x="4.5" y="22.5" width="2" height="2"/>
  <rect class="cls-1" x="6.5" y="22.5" width="2" height="2"/>
  <rect class="cls-1" x="8.5" y="22.5" width="2" height="2"/>
  <rect class="cls-1" x="10.5" y="22.5" width="2" height="2"/>
  <rect class="cls-1" x="12.5" y="22.5" width="2" height="2"/>
  <rect class="cls-1" x="14.5" y="22.5" width="2" height="2"/>
  <rect class="cls-1" x="16.5" y="22.5" width="2" height="2"/>
  <rect class="cls-1" x="18.5" y="22.5" width="2" height="2"/>
  <rect class="cls-1" x="20.5" y="22.5" width="2" height="2"/>
  <rect class="cls-1" x="22.5" y="22.5" width="2" height="2"/>
  <rect class="cls-1" x="24.5" y="22.5" width="2" height="2"/>
  <rect class="cls-1" x="26.5" y="22.5" width="2" height="2"/>
  <rect class="cls-1" x="2.5" y="24.5" width="2" height="2"/>
  <rect class="cls-1" x="4.5" y="24.5" width="2" height="2"/>
  <rect class="cls-1" x="6.5" y="24.5" width="2" height="2"/>
  <rect class="cls-1" x="8.5" y="24.5" width="2" height="2"/>
  <rect class="cls-1" x="10.5" y="24.5" width="2" height="2"/>
  <rect class="cls-1" x="12.5" y="24.5" width="2" height="2"/>
  <rect class="cls-1" x="14.5" y="24.5" width="2" height="2"/>
  <rect class="cls-1" x="16.5" y="24.5" width="2" height="2"/>
  <rect class="cls-1" x="18.5" y="24.5" width="2" height="2"/>
  <rect class="cls-1" x="20.5" y="24.5" width="2" height="2"/>
  <rect class="cls-1" x="22.5" y="24.5" width="2" height="2"/>
  <rect class="cls-1" x="24.5" y="24.5" width="2" height="2"/>
  <rect class="cls-1" x="26.5" y="24.5" width="2" height="2"/>
  <rect class="cls-1" x="28.5" y="24.5" width="2" height="2"/>
  <rect class="cls-1" x="2.5" y="26.5" width="2" height="2"/>
  <rect class="cls-1" x="4.5" y="26.5" width="2" height="2"/>
  <rect class="cls-1" x="6.5" y="26.5" width="2" height="2"/>
  <rect class="cls-1" x="8.5" y="26.5" width="2" height="2"/>
  <rect class="cls-1" x="10.5" y="26.5" width="2" height="2"/>
  <rect class="cls-1" x="12.5" y="26.5" width="2" height="2"/>
  <rect class="cls-1" x="14.5" y="26.5" width="2" height="2"/>
  <rect class="cls-1" x="16.5" y="26.5" width="2" height="2"/>
  <rect class="cls-1" x="18.5" y="26.5" width="2" height="2"/>
  <rect class="cls-1" x="20.5" y="26.5" width="2" height="2"/>
  <rect class="cls-1" x="22.5" y="26.5" width="2" height="2"/>
  <rect class="cls-1" x="24.5" y="26.5" width="2" height="2"/>
  <rect class="cls-1" x="26.5" y="26.5" width="2" height="2"/>
  <rect class="cls-1" x="28.5" y="26.5" width="2" height="2"/>
  <rect class="cls-1" x="2.5" y="28.5" width="2" height="2"/>
  <rect class="cls-1" x="4.5" y="28.5" width="2" height="2"/>
  <rect class="cls-1" x="6.5" y="28.5" width="2" height="2"/>
  <rect class="cls-1" x="8.5" y="28.5" width="2" height="2"/>
  <rect class="cls-1" x="10.5" y="28.5" width="2" height="2"/>
  <rect class="cls-1" x="12.5" y="28.5" width="2" height="2"/>
  <rect class="cls-1" x="14.5" y="28.5" width="2" height="2"/>
  <rect class="cls-1" x="16.5" y="28.5" width="2" height="2"/>
  <rect class="cls-1" x="18.5" y="28.5" width="2" height="2"/>
  <rect class="cls-1" x="20.5" y="28.5" width="2" height="2"/>
  <rect class="cls-1" x="22.5" y="28.5" width="2" height="2"/>
  <rect class="cls-1" x="24.5" y="28.5" width="2" height="2"/>
  <rect class="cls-1" x="26.5" y="28.5" width="2" height="2"/>
  <rect class="cls-1" x="28.5" y="28.5" width="2" height="2"/>
  <rect class="cls-1" x="2.5" y="30.5" width="2" height="2"/>
  <rect class="cls-1" x="4.5" y="30.5" width="2" height="2"/>
  <rect class="cls-1" x="6.5" y="30.5" width="2" height="2"/>
  <rect class="cls-1" x="8.5" y="30.5" width="2" height="2"/>
  <rect class="cls-1" x="10.5" y="30.5" width="2" height="2"/>
  <rect class="cls-1" x="12.5" y="30.5" width="2" height="2"/>
  <rect class="cls-1" x="14.5" y="30.5" width="2" height="2"/>
  <rect class="cls-1" x="16.5" y="30.5" width="2" height="2"/>
  <rect class="cls-1" x="18.5" y="30.5" width="2" height="2"/>
  <rect class="cls-1" x="20.5" y="30.5" width="2" height="2"/>
  <rect class="cls-1" x="22.5" y="30.5" width="2" height="2"/>
  <rect class="cls-1" x="24.5" y="30.5" width="2" height="2"/>
  <rect class="cls-1" x="26.5" y="30.5" width="2" height="2"/>
  <rect class="cls-1" x="28.5" y="30.5" width="2" height="2"/>
  <rect class="cls-1" x="2.5" y="32.5" width="2" height="2"/>
  <rect class="cls-1" x="4.5" y="32.5" width="2" height="2"/>
  <rect class="cls-1" x="6.5" y="32.5" width="2" height="2"/>
  <rect class="cls-1" x="8.5" y="32.5" width="2" height="2"/>
  <rect class="cls-1" x="10.5" y="32.5" width="2" height="2"/>
  <rect class="cls-1" x="12.5" y="32.5" width="2" height="2"/>
  <rect class="cls-1" x="14.5" y="32.5" width="2" height="2"/>
  <rect class="cls-1" x="16.5" y="32.5" width="2" height="2"/>
  <rect class="cls-1" x="18.5" y="32.5" width="2" height="2"/>
  <rect class="cls-1" x="20.5" y="32.5" width="2" height="2"/>
  <rect class="cls-1" x="22.5" y="32.5" width="2" height="2"/>
  <rect class="cls-1" x="24.5" y="32.5" width="2" height="2"/>
  <rect class="cls-1" x="26.5" y="32.5" width="2" height="2"/>
  <rect class="cls-1" x="28.5" y="32.5" width="2" height="2"/>
  <rect class="cls-1" x="4.5" y="34.5" width="2" height="2"/>
  <rect class="cls-1" x="6.5" y="34.5" width="2" height="2"/>
  <rect class="cls-1" x="8.5" y="34.5" width="2" height="2"/>
  <rect class="cls-1" x="10.5" y="34.5" width="2" height="2"/>
  <rect class="cls-1" x="12.5" y="34.5" width="2" height="2"/>
  <rect class="cls-1" x="14.5" y="34.5" width="2" height="2"/>
  <rect class="cls-1" x="16.5" y="34.5" width="2" height="2"/>
  <rect class="cls-1" x="18.5" y="34.5" width="2" height="2"/>
  <rect class="cls-1" x="20.5" y="34.5" width="2" height="2"/>
  <rect class="cls-1" x="22.5" y="34.5" width="2" height="2"/>
  <rect class="cls-1" x="24.5" y="34.5" width="2" height="2"/>
  <rect class="cls-1" x="26.5" y="34.5" width="2" height="2"/>
  <rect class="cls-1" x="28.5" y="34.5" width="2" height="2"/>
  <rect class="cls-1" x="4.5" y="36.5" width="2" height="2"/>
  <rect class="cls-1" x="6.5" y="36.5" width="2" height="2"/>
  <rect class="cls-1" x="8.5" y="36.5" width="2" height="2"/>
  <rect class="cls-1" x="10.5" y="36.5" width="2" height="2"/>
  <rect class="cls-1" x="12.5" y="36.5" width="2" height="2"/>
  <rect class="cls-1" x="14.5" y="36.5" width="2" height="2"/>
  <rect class="cls-1" x="16.5" y="36.5" width="2" height="2"/>
  <rect class="cls-1" x="18.5" y="36.5" width="2" height="2"/>
  <rect class="cls-1" x="20.5" y="36.5" width="2" height="2"/>
  <rect class="cls-1" x="22.5" y="36.5" width="2" height="2"/>
  <rect class="cls-1" x="24.5" y="36.5" width="2" height="2"/>
  <rect class="cls-1" x="26.5" y="36.5" width="2" height="2"/>
  <rect class="cls-1" x="28.5" y="36.5" width="2" height="2"/>
  <rect class="cls-1" x="4.5" y="38.5" width="2" height="2"/>
  <rect class="cls-1" x="6.5" y="38.5" width="2" height="2"/>
  <rect class="cls-1" x="8.5" y="38.5" width="2" height="2"/>
  <rect class="cls-1" x="10.5" y="38.5" width="2" height="2"/>
  <rect class="cls-1" x="12.5" y="38.5" width="2" height="2"/>
  <rect class="cls-1" x="14.5" y="38.5" width="2" height="2"/>
  <rect class="cls-1" x="16.5" y="38.5" width="2" height="2"/>
  <rect class="cls-1" x="18.5" y="38.5" width="2" height="2"/>
  <rect class="cls-1" x="20.5" y="38.5" width="2" height="2"/>
  <rect class="cls-1" x="22.5" y="38.5" width="2" height="2"/>
  <rect class="cls-1" x="24.5" y="38.5" width="2" height="2"/>
  <rect class="cls-1" x="26.5" y="38.5" width="2" height="2"/>
  <rect class="cls-1" x="28.5" y="38.5" width="2" height="2"/>
  <rect class="cls-1" x="6.5" y="40.5" width="2" height="2"/>
  <rect class="cls-1" x="8.5" y="40.5" width="2" height="2"/>
  <rect class="cls-1" x="10.5" y="40.5" width="2" height="2"/>
  <rect class="cls-1" x="12.5" y="40.5" width="2" height="2"/>
  <rect class="cls-1" x="14.5" y="40.5" width="2" height="2"/>
  <rect class="cls-1" x="16.5" y="40.5" width="2" height="2"/>
  <rect class="cls-1" x="18.5" y="40.5" width="2" height="2"/>
  <rect class="cls-1" x="20.5" y="40.5" width="2" height="2"/>
  <rect class="cls-1" x="22.5" y="40.5" width="2" height="2"/>
  <rect class="cls-1" x="24.5" y="40.5" width="2" height="2"/>
  <rect class="cls-1" x="26.5" y="40.5" width="2" height="2"/>
  <rect class="cls-1" x="28.5" y="40.5" width="2" height="2"/>
  <rect class="cls-1" x="8.5" y="42.5" width="2" height="2"/>
  <rect class="cls-1" x="10.5" y="42.5" width="2" height="2"/>
  <rect class="cls-1" x="12.5" y="42.5" width="2" height="2"/>
  <rect class="cls-1" x="14.5" y="42.5" width="2" height="2"/>
  <rect class="cls-1" x="16.5" y="42.5" width="2" height="2"/>
  <rect class="cls-1" x="18.5" y="42.5" width="2" height="2"/>
  <rect class="cls-1" x="20.5" y="42.5" width="2" height="2"/>
  <rect class="cls-1" x="22.5" y="42.5" width="2" height="2"/>
  <rect class="cls-1" x="24.5" y="42.5" width="2" height="2"/>
  <rect class="cls-1" x="26.5" y="42.5" width="2" height="2"/>
  <rect class="cls-1" x="28.5" y="42.5" width="2" height="2"/>
  <rect class="cls-1" x="10.5" y="44.5" width="2" height="2"/>
  <rect class="cls-1" x="12.5" y="44.5" width="2" height="2"/>
  <rect class="cls-1" x="14.5" y="44.5" width="2" height="2"/>
  <rect class="cls-1" x="16.5" y="44.5" width="2" height="2"/>
  <rect class="cls-1" x="18.5" y="44.5" width="2" height="2"/>
  <rect class="cls-1" x="20.5" y="44.5" width="2" height="2"/>
  <rect class="cls-1" x="22.5" y="44.5" width="2" height="2"/>
  <rect class="cls-1" x="24.5" y="44.5" width="2" height="2"/>
  <rect class="cls-1" x="26.5" y="44.5" width="2" height="2"/>
  <rect class="cls-1" x="28.5" y="44.5" width="2" height="2"/>
  <rect class="cls-1" x="14.5" y="46.5" width="2" height="2"/>
  <rect class="cls-1" x="16.5" y="46.5" width="2" height="2"/>
  <rect class="cls-1" x="18.5" y="46.5" width="2" height="2"/>
  <rect class="cls-1" x="20.5" y="46.5" width="2" height="2"/>
  <rect class="cls-1" x="22.5" y="46.5" width="2" height="2"/>
  <rect class="cls-1" x="24.5" y="46.5" width="2" height="2"/>
  <rect class="cls-1" x="26.5" y="46.5" width="2" height="2"/>
  <rect class="cls-1" x="28.5" y="46.5" width="2" height="2"/>
  <rect class="cls-1" x="16.5" y="48.5" width="2" height="2"/>
  <rect class="cls-1" x="18.5" y="48.5" width="2" height="2"/>
  <rect class="cls-1" x="20.5" y="48.5" width="2" height="2"/>
  <rect class="cls-1" x="22.5" y="48.5" width="2" height="2"/>
  <rect class="cls-1" x="24.5" y="48.5" width="2" height="2"/>
  <rect class="cls-1" x="26.5" y="48.5" width="2" height="2"/>
  <rect class="cls-1" x="28.5" y="48.5" width="2" height="2"/>
  <rect class="cls-1" x="22.5" y="50.5" width="2" height="2"/>
  <rect class="cls-1" x="24.5" y="50.5" width="2" height="2"/>
  <rect class="cls-1" x="26.5" y="50.5" width="2" height="2"/>
  <rect class="cls-1" x="28.5" y="50.5" width="2" height="2"/>
  <rect class="cls-1" x="50.5" y="4.5" width="2" height="2" transform="translate(103 11) rotate(-180)"/>
  <rect class="cls-1" x="48.5" y="4.5" width="2" height="2" transform="translate(99 11) rotate(-180)"/>
  <rect class="cls-1" x="46.5" y="4.5" width="2" height="2" transform="translate(95 11) rotate(-180)"/>
  <rect class="cls-1" x="52.5" y="6.5" width="2" height="2" transform="translate(107 15) rotate(-180)"/>
  <rect class="cls-1" x="50.5" y="6.5" width="2" height="2" transform="translate(103 15) rotate(-180)"/>
  <rect class="cls-1" x="48.5" y="6.5" width="2" height="2" transform="translate(99 15) rotate(-180)"/>
  <rect class="cls-1" x="46.5" y="6.5" width="2" height="2" transform="translate(95 15) rotate(-180)"/>
  <rect class="cls-1" x="44.5" y="6.5" width="2" height="2" transform="translate(91 15) rotate(-180)"/>
  <rect class="cls-1" x="42.5" y="6.5" width="2" height="2" transform="translate(87 15) rotate(-180)"/>
  <rect class="cls-1" x="54.5" y="8.5" width="2" height="2" transform="translate(111 19) rotate(-180)"/>
  <rect class="cls-1" x="52.5" y="8.5" width="2" height="2" transform="translate(107 19) rotate(-180)"/>
  <rect class="cls-1" x="50.5" y="8.5" width="2" height="2" transform="translate(103 19) rotate(-180)"/>
  <rect class="cls-1" x="48.5" y="8.5" width="2" height="2" transform="translate(99 19) rotate(-180)"/>
  <rect class="cls-1" x="46.5" y="8.5" width="2" height="2" transform="translate(95 19) rotate(-180)"/>
  <rect class="cls-1" x="44.5" y="8.5" width="2" height="2" transform="translate(91 19) rotate(-180)"/>
  <rect class="cls-1" x="42.5" y="8.5" width="2" height="2" transform="translate(87 19) rotate(-180)"/>
  <rect class="cls-1" x="40.5" y="8.5" width="2" height="2" transform="translate(83 19) rotate(-180)"/>
  <rect class="cls-1" x="56.5" y="10.5" width="2" height="2" transform="translate(115 23) rotate(-180)"/>
  <rect class="cls-1" x="54.5" y="10.5" width="2" height="2" transform="translate(111 23) rotate(-180)"/>
  <rect class="cls-1" x="52.5" y="10.5" width="2" height="2" transform="translate(107 23) rotate(-180)"/>
  <rect class="cls-1" x="50.5" y="10.5" width="2" height="2" transform="translate(103 23) rotate(-180)"/>
  <rect class="cls-1" x="48.5" y="10.5" width="2" height="2" transform="translate(99 23) rotate(-180)"/>
  <rect class="cls-1" x="46.5" y="10.5" width="2" height="2" transform="translate(95 23) rotate(-180)"/>
  <rect class="cls-1" x="44.5" y="10.5" width="2" height="2" transform="translate(91 23) rotate(-180)"/>
  <rect class="cls-1" x="42.5" y="10.5" width="2" height="2" transform="translate(87 23) rotate(-180)"/>
  <rect class="cls-1" x="40.5" y="10.5" width="2" height="2" transform="translate(83 23) rotate(-180)"/>
  <rect class="cls-1" x="56.5" y="12.5" width="2" height="2" transform="translate(115 27) rotate(-180)"/>
  <rect class="cls-1" x="54.5" y="12.5" width="2" height="2" transform="translate(111 27) rotate(-180)"/>
  <rect class="cls-1" x="52.5" y="12.5" width="2" height="2" transform="translate(107 27) rotate(-180)"/>
  <rect class="cls-1" x="50.5" y="12.5" width="2" height="2" transform="translate(103 27) rotate(-180)"/>
  <rect class="cls-1" x="48.5" y="12.5" width="2" height="2" transform="translate(99 27) rotate(-180)"/>
  <rect class="cls-1" x="46.5" y="12.5" width="2" height="2" transform="translate(95 27) rotate(-180)"/>
  <rect class="cls-1" x="44.5" y="12.5" width="2" height="2" transform="translate(91 27) rotate(-180)"/>
  <rect class="cls-1" x="42.5" y="12.5" width="2" height="2" transform="translate(87 27) rotate(-180)"/>
  <rect class="cls-1" x="40.5" y="12.5" width="2" height="2" transform="translate(83 27) rotate(-180)"/>
  <rect class="cls-1" x="38.5" y="12.5" width="2" height="2" transform="translate(79 27) rotate(-180)"/>
  <rect class="cls-1" x="56.5" y="14.5" width="2" height="2" transform="translate(115 31) rotate(-180)"/>
  <rect class="cls-1" x="54.5" y="14.5" width="2" height="2" transform="translate(111 31) rotate(-180)"/>
  <rect class="cls-1" x="52.5" y="14.5" width="2" height="2" transform="translate(107 31) rotate(-180)"/>
  <rect class="cls-1" x="50.5" y="14.5" width="2" height="2" transform="translate(103 31) rotate(-180)"/>
  <rect class="cls-1" x="48.5" y="14.5" width="2" height="2" transform="translate(99 31) rotate(-180)"/>
  <rect class="cls-1" x="46.5" y="14.5" width="2" height="2" transform="translate(95 31) rotate(-180)"/>
  <rect class="cls-1" x="44.5" y="14.5" width="2" height="2" transform="translate(91 31) rotate(-180)"/>
  <rect class="cls-1" x="42.5" y="14.5" width="2" height="2" transform="translate(87 31) rotate(-180)"/>
  <rect class="cls-1" x="40.5" y="14.5" width="2" height="2" transform="translate(83 31) rotate(-180)"/>
  <rect class="cls-1" x="38.5" y="14.5" width="2" height="2" transform="translate(79 31) rotate(-180)"/>
  <rect class="cls-1" x="56.5" y="16.5" width="2" height="2" transform="translate(115 35) rotate(-180)"/>
  <rect class="cls-1" x="54.5" y="16.5" width="2" height="2" transform="translate(111 35) rotate(-180)"/>
  <rect class="cls-1" x="52.5" y="16.5" width="2" height="2" transform="translate(107 35) rotate(-180)"/>
  <rect class="cls-1" x="50.5" y="16.5" width="2" height="2" transform="translate(103 35) rotate(-180)"/>
  <rect class="cls-1" x="48.5" y="16.5" width="2" height="2" transform="translate(99 35) rotate(-180)"/>
  <rect class="cls-1" x="46.5" y="16.5" width="2" height="2" transform="translate(95 35) rotate(-180)"/>
  <rect class="cls-1" x="44.5" y="16.5" width="2" height="2" transform="translate(91 35) rotate(-180)"/>
  <rect class="cls-1" x="42.5" y="16.5" width="2" height="2" transform="translate(87 35) rotate(-180)"/>
  <rect class="cls-1" x="40.5" y="16.5" width="2" height="2" transform="translate(83 35) rotate(-180)"/>
  <rect class="cls-1" x="38.5" y="16.5" width="2" height="2" transform="translate(79 35) rotate(-180)"/>
  <rect class="cls-1" x="56.5" y="18.5" width="2" height="2" transform="translate(115 39) rotate(-180)"/>
  <rect class="cls-1" x="54.5" y="18.5" width="2" height="2" transform="translate(111 39) rotate(-180)"/>
  <rect class="cls-1" x="52.5" y="18.5" width="2" height="2" transform="translate(107 39) rotate(-180)"/>
  <rect class="cls-1" x="50.5" y="18.5" width="2" height="2" transform="translate(103 39) rotate(-180)"/>
  <rect class="cls-1" x="48.5" y="18.5" width="2" height="2" transform="translate(99 39) rotate(-180)"/>
  <rect class="cls-1" x="46.5" y="18.5" width="2" height="2" transform="translate(95 39) rotate(-180)"/>
  <rect class="cls-1" x="44.5" y="18.5" width="2" height="2" transform="translate(91 39) rotate(-180)"/>
  <rect class="cls-1" x="42.5" y="18.5" width="2" height="2" transform="translate(87 39) rotate(-180)"/>
  <rect class="cls-1" x="40.5" y="18.5" width="2" height="2" transform="translate(83 39) rotate(-180)"/>
  <rect class="cls-1" x="38.5" y="18.5" width="2" height="2" transform="translate(79 39) rotate(-180)"/>
  <rect class="cls-1" x="56.5" y="20.5" width="2" height="2" transform="translate(115 43) rotate(-180)"/>
  <rect class="cls-1" x="54.5" y="20.5" width="2" height="2" transform="translate(111 43) rotate(-180)"/>
  <rect class="cls-1" x="52.5" y="20.5" width="2" height="2" transform="translate(107 43) rotate(-180)"/>
  <rect class="cls-1" x="50.5" y="20.5" width="2" height="2" transform="translate(103 43) rotate(-180)"/>
  <rect class="cls-1" x="48.5" y="20.5" width="2" height="2" transform="translate(99 43) rotate(-180)"/>
  <rect class="cls-1" x="46.5" y="20.5" width="2" height="2" transform="translate(95 43) rotate(-180)"/>
  <rect class="cls-1" x="44.5" y="20.5" width="2" height="2" transform="translate(91 43) rotate(-180)"/>
  <rect class="cls-1" x="42.5" y="20.5" width="2" height="2" transform="translate(87 43) rotate(-180)"/>
  <rect class="cls-1" x="40.5" y="20.5" width="2" height="2" transform="translate(83 43) rotate(-180)"/>
  <rect class="cls-1" x="38.5" y="20.5" width="2" height="2" transform="translate(79 43) rotate(-180)"/>
  <rect class="cls-1" x="36.5" y="20.5" width="2" height="2" transform="translate(75 43) rotate(-180)"/>
  <rect class="cls-1" x="34.5" y="20.5" width="2" height="2" transform="translate(71 43) rotate(-180)"/>
  <rect class="cls-1" x="56.5" y="22.5" width="2" height="2" transform="translate(115 47) rotate(-180)"/>
  <rect class="cls-1" x="54.5" y="22.5" width="2" height="2" transform="translate(111 47) rotate(-180)"/>
  <rect class="cls-1" x="52.5" y="22.5" width="2" height="2" transform="translate(107 47) rotate(-180)"/>
  <rect class="cls-1" x="50.5" y="22.5" width="2" height="2" transform="translate(103 47) rotate(-180)"/>
  <rect class="cls-1" x="48.5" y="22.5" width="2" height="2" transform="translate(99 47) rotate(-180)"/>
  <rect class="cls-1" x="46.5" y="22.5" width="2" height="2" transform="translate(95 47) rotate(-180)"/>
  <rect class="cls-1" x="44.5" y="22.5" width="2" height="2" transform="translate(91 47) rotate(-180)"/>
  <rect class="cls-1" x="42.5" y="22.5" width="2" height="2" transform="translate(87 47) rotate(-180)"/>
  <rect class="cls-1" x="40.5" y="22.5" width="2" height="2" transform="translate(83 47) rotate(-180)"/>
  <rect class="cls-1" x="38.5" y="22.5" width="2" height="2" transform="translate(79 47) rotate(-180)"/>
  <rect class="cls-1" x="36.5" y="22.5" width="2" height="2" transform="translate(75 47) rotate(-180)"/>
  <rect class="cls-1" x="34.5" y="22.5" width="2" height="2" transform="translate(71 47) rotate(-180)"/>
  <rect class="cls-1" x="32.5" y="22.5" width="2" height="2" transform="translate(67 47) rotate(-180)"/>
  <rect class="cls-1" x="56.5" y="24.5" width="2" height="2" transform="translate(115 51) rotate(-180)"/>
  <rect class="cls-1" x="54.5" y="24.5" width="2" height="2" transform="translate(111 51) rotate(-180)"/>
  <rect class="cls-1" x="52.5" y="24.5" width="2" height="2" transform="translate(107 51) rotate(-180)"/>
  <rect class="cls-1" x="50.5" y="24.5" width="2" height="2" transform="translate(103 51) rotate(-180)"/>
  <rect class="cls-1" x="48.5" y="24.5" width="2" height="2" transform="translate(99 51) rotate(-180)"/>
  <rect class="cls-1" x="46.5" y="24.5" width="2" height="2" transform="translate(95 51) rotate(-180)"/>
  <rect class="cls-1" x="44.5" y="24.5" width="2" height="2" transform="translate(91 51) rotate(-180)"/>
  <rect class="cls-1" x="42.5" y="24.5" width="2" height="2" transform="translate(87 51) rotate(-180)"/>
  <rect class="cls-1" x="40.5" y="24.5" width="2" height="2" transform="translate(83 51) rotate(-180)"/>
  <rect class="cls-1" x="38.5" y="24.5" width="2" height="2" transform="translate(79 51) rotate(-180)"/>
  <rect class="cls-1" x="36.5" y="24.5" width="2" height="2" transform="translate(75 51) rotate(-180)"/>
  <rect class="cls-1" x="34.5" y="24.5" width="2" height="2" transform="translate(71 51) rotate(-180)"/>
  <rect class="cls-1" x="32.5" y="24.5" width="2" height="2" transform="translate(67 51) rotate(-180)"/>
  <rect class="cls-1" x="30.5" y="24.5" width="2" height="2" transform="translate(63 51) rotate(-180)"/>
  <rect class="cls-1" x="28.5" y="22.5" width="2" height="2"/>
  <rect class="cls-1" x="30.5" y="22.5" width="2" height="2" transform="translate(63 47) rotate(-180)"/>
  <rect class="cls-1" x="56.5" y="26.5" width="2" height="2" transform="translate(115 55) rotate(-180)"/>
  <rect class="cls-1" x="54.5" y="26.5" width="2" height="2" transform="translate(111 55) rotate(-180)"/>
  <rect class="cls-1" x="52.5" y="26.5" width="2" height="2" transform="translate(107 55) rotate(-180)"/>
  <rect class="cls-1" x="50.5" y="26.5" width="2" height="2" transform="translate(103 55) rotate(-180)"/>
  <rect class="cls-1" x="48.5" y="26.5" width="2" height="2" transform="translate(99 55) rotate(-180)"/>
  <rect class="cls-1" x="46.5" y="26.5" width="2" height="2" transform="translate(95 55) rotate(-180)"/>
  <rect class="cls-1" x="44.5" y="26.5" width="2" height="2" transform="translate(91 55) rotate(-180)"/>
  <rect class="cls-1" x="42.5" y="26.5" width="2" height="2" transform="translate(87 55) rotate(-180)"/>
  <rect class="cls-1" x="40.5" y="26.5" width="2" height="2" transform="translate(83 55) rotate(-180)"/>
  <rect class="cls-1" x="38.5" y="26.5" width="2" height="2" transform="translate(79 55) rotate(-180)"/>
  <rect class="cls-1" x="36.5" y="26.5" width="2" height="2" transform="translate(75 55) rotate(-180)"/>
  <rect class="cls-1" x="34.5" y="26.5" width="2" height="2" transform="translate(71 55) rotate(-180)"/>
  <rect class="cls-1" x="32.5" y="26.5" width="2" height="2" transform="translate(67 55) rotate(-180)"/>
  <rect class="cls-1" x="30.5" y="26.5" width="2" height="2" transform="translate(63 55) rotate(-180)"/>
  <rect class="cls-1" x="56.5" y="28.5" width="2" height="2" transform="translate(115 59) rotate(-180)"/>
  <rect class="cls-1" x="54.5" y="28.5" width="2" height="2" transform="translate(111 59) rotate(-180)"/>
  <rect class="cls-1" x="52.5" y="28.5" width="2" height="2" transform="translate(107 59) rotate(-180)"/>
  <rect class="cls-1" x="50.5" y="28.5" width="2" height="2" transform="translate(103 59) rotate(-180)"/>
  <rect class="cls-1" x="48.5" y="28.5" width="2" height="2" transform="translate(99 59) rotate(-180)"/>
  <rect class="cls-1" x="46.5" y="28.5" width="2" height="2" transform="translate(95 59) rotate(-180)"/>
  <rect class="cls-1" x="44.5" y="28.5" width="2" height="2" transform="translate(91 59) rotate(-180)"/>
  <rect class="cls-1" x="42.5" y="28.5" width="2" height="2" transform="translate(87 59) rotate(-180)"/>
  <rect class="cls-1" x="40.5" y="28.5" width="2" height="2" transform="translate(83 59) rotate(-180)"/>
  <rect class="cls-1" x="38.5" y="28.5" width="2" height="2" transform="translate(79 59) rotate(-180)"/>
  <rect class="cls-1" x="36.5" y="28.5" width="2" height="2" transform="translate(75 59) rotate(-180)"/>
  <rect class="cls-1" x="34.5" y="28.5" width="2" height="2" transform="translate(71 59) rotate(-180)"/>
  <rect class="cls-1" x="32.5" y="28.5" width="2" height="2" transform="translate(67 59) rotate(-180)"/>
  <rect class="cls-1" x="30.5" y="28.5" width="2" height="2" transform="translate(63 59) rotate(-180)"/>
  <rect class="cls-1" x="56.5" y="30.5" width="2" height="2" transform="translate(115 63) rotate(-180)"/>
  <rect class="cls-1" x="54.5" y="30.5" width="2" height="2" transform="translate(111 63) rotate(-180)"/>
  <rect class="cls-1" x="52.5" y="30.5" width="2" height="2" transform="translate(107 63) rotate(-180)"/>
  <rect class="cls-1" x="50.5" y="30.5" width="2" height="2" transform="translate(103 63) rotate(-180)"/>
  <rect class="cls-1" x="48.5" y="30.5" width="2" height="2" transform="translate(99 63) rotate(-180)"/>
  <rect class="cls-1" x="46.5" y="30.5" width="2" height="2" transform="translate(95 63) rotate(-180)"/>
  <rect class="cls-1" x="44.5" y="30.5" width="2" height="2" transform="translate(91 63) rotate(-180)"/>
  <rect class="cls-1" x="42.5" y="30.5" width="2" height="2" transform="translate(87 63) rotate(-180)"/>
  <rect class="cls-1" x="40.5" y="30.5" width="2" height="2" transform="translate(83 63) rotate(-180)"/>
  <rect class="cls-1" x="38.5" y="30.5" width="2" height="2" transform="translate(79 63) rotate(-180)"/>
  <rect class="cls-1" x="36.5" y="30.5" width="2" height="2" transform="translate(75 63) rotate(-180)"/>
  <rect class="cls-1" x="34.5" y="30.5" width="2" height="2" transform="translate(71 63) rotate(-180)"/>
  <rect class="cls-1" x="32.5" y="30.5" width="2" height="2" transform="translate(67 63) rotate(-180)"/>
  <rect class="cls-1" x="30.5" y="30.5" width="2" height="2" transform="translate(63 63) rotate(-180)"/>
  <rect class="cls-1" x="56.5" y="32.5" width="2" height="2" transform="translate(115 67) rotate(-180)"/>
  <rect class="cls-1" x="54.5" y="32.5" width="2" height="2" transform="translate(111 67) rotate(-180)"/>
  <rect class="cls-1" x="52.5" y="32.5" width="2" height="2" transform="translate(107 67) rotate(-180)"/>
  <rect class="cls-1" x="50.5" y="32.5" width="2" height="2" transform="translate(103 67) rotate(-180)"/>
  <rect class="cls-1" x="48.5" y="32.5" width="2" height="2" transform="translate(99 67) rotate(-180)"/>
  <rect class="cls-1" x="46.5" y="32.5" width="2" height="2" transform="translate(95 67) rotate(-180)"/>
  <rect class="cls-1" x="44.5" y="32.5" width="2" height="2" transform="translate(91 67) rotate(-180)"/>
  <rect class="cls-1" x="42.5" y="32.5" width="2" height="2" transform="translate(87 67) rotate(-180)"/>
  <rect class="cls-1" x="40.5" y="32.5" width="2" height="2" transform="translate(83 67) rotate(-180)"/>
  <rect class="cls-1" x="38.5" y="32.5" width="2" height="2" transform="translate(79 67) rotate(-180)"/>
  <rect class="cls-1" x="36.5" y="32.5" width="2" height="2" transform="translate(75 67) rotate(-180)"/>
  <rect class="cls-1" x="34.5" y="32.5" width="2" height="2" transform="translate(71 67) rotate(-180)"/>
  <rect class="cls-1" x="32.5" y="32.5" width="2" height="2" transform="translate(67 67) rotate(-180)"/>
  <rect class="cls-1" x="30.5" y="32.5" width="2" height="2" transform="translate(63 67) rotate(-180)"/>
  <rect class="cls-1" x="54.5" y="34.5" width="2" height="2" transform="translate(111 71) rotate(-180)"/>
  <rect class="cls-1" x="52.5" y="34.5" width="2" height="2" transform="translate(107 71) rotate(-180)"/>
  <rect class="cls-1" x="50.5" y="34.5" width="2" height="2" transform="translate(103 71) rotate(-180)"/>
  <rect class="cls-1" x="48.5" y="34.5" width="2" height="2" transform="translate(99 71) rotate(-180)"/>
  <rect class="cls-1" x="46.5" y="34.5" width="2" height="2" transform="translate(95 71) rotate(-180)"/>
  <rect class="cls-1" x="44.5" y="34.5" width="2" height="2" transform="translate(91 71) rotate(-180)"/>
  <rect class="cls-1" x="42.5" y="34.5" width="2" height="2" transform="translate(87 71) rotate(-180)"/>
  <rect class="cls-1" x="40.5" y="34.5" width="2" height="2" transform="translate(83 71) rotate(-180)"/>
  <rect class="cls-1" x="38.5" y="34.5" width="2" height="2" transform="translate(79 71) rotate(-180)"/>
  <rect class="cls-1" x="36.5" y="34.5" width="2" height="2" transform="translate(75 71) rotate(-180)"/>
  <rect class="cls-1" x="34.5" y="34.5" width="2" height="2" transform="translate(71 71) rotate(-180)"/>
  <rect class="cls-1" x="32.5" y="34.5" width="2" height="2" transform="translate(67 71) rotate(-180)"/>
  <rect class="cls-1" x="30.5" y="34.5" width="2" height="2" transform="translate(63 71) rotate(-180)"/>
  <rect class="cls-1" x="54.5" y="36.5" width="2" height="2" transform="translate(111 75) rotate(-180)"/>
  <rect class="cls-1" x="52.5" y="36.5" width="2" height="2" transform="translate(107 75) rotate(-180)"/>
  <rect class="cls-1" x="50.5" y="36.5" width="2" height="2" transform="translate(103 75) rotate(-180)"/>
  <rect class="cls-1" x="48.5" y="36.5" width="2" height="2" transform="translate(99 75) rotate(-180)"/>
  <rect class="cls-1" x="46.5" y="36.5" width="2" height="2" transform="translate(95 75) rotate(-180)"/>
  <rect class="cls-1" x="44.5" y="36.5" width="2" height="2" transform="translate(91 75) rotate(-180)"/>
  <rect class="cls-1" x="42.5" y="36.5" width="2" height="2" transform="translate(87 75) rotate(-180)"/>
  <rect class="cls-1" x="40.5" y="36.5" width="2" height="2" transform="translate(83 75) rotate(-180)"/>
  <rect class="cls-1" x="38.5" y="36.5" width="2" height="2" transform="translate(79 75) rotate(-180)"/>
  <rect class="cls-1" x="36.5" y="36.5" width="2" height="2" transform="translate(75 75) rotate(-180)"/>
  <rect class="cls-1" x="34.5" y="36.5" width="2" height="2" transform="translate(71 75) rotate(-180)"/>
  <rect class="cls-1" x="32.5" y="36.5" width="2" height="2" transform="translate(67 75) rotate(-180)"/>
  <rect class="cls-1" x="30.5" y="36.5" width="2" height="2" transform="translate(63 75) rotate(-180)"/>
  <rect class="cls-1" x="54.5" y="38.5" width="2" height="2" transform="translate(111 79) rotate(-180)"/>
  <rect class="cls-1" x="52.5" y="38.5" width="2" height="2" transform="translate(107 79) rotate(-180)"/>
  <rect class="cls-1" x="50.5" y="38.5" width="2" height="2" transform="translate(103 79) rotate(-180)"/>
  <rect class="cls-1" x="48.5" y="38.5" width="2" height="2" transform="translate(99 79) rotate(-180)"/>
  <rect class="cls-1" x="46.5" y="38.5" width="2" height="2" transform="translate(95 79) rotate(-180)"/>
  <rect class="cls-1" x="44.5" y="38.5" width="2" height="2" transform="translate(91 79) rotate(-180)"/>
  <rect class="cls-1" x="42.5" y="38.5" width="2" height="2" transform="translate(87 79) rotate(-180)"/>
  <rect class="cls-1" x="40.5" y="38.5" width="2" height="2" transform="translate(83 79) rotate(-180)"/>
  <rect class="cls-1" x="38.5" y="38.5" width="2" height="2" transform="translate(79 79) rotate(-180)"/>
  <rect class="cls-1" x="36.5" y="38.5" width="2" height="2" transform="translate(75 79) rotate(-180)"/>
  <rect class="cls-1" x="34.5" y="38.5" width="2" height="2" transform="translate(71 79) rotate(-180)"/>
  <rect class="cls-1" x="32.5" y="38.5" width="2" height="2" transform="translate(67 79) rotate(-180)"/>
  <rect class="cls-1" x="30.5" y="38.5" width="2" height="2" transform="translate(63 79) rotate(-180)"/>
  <rect class="cls-1" x="52.5" y="40.5" width="2" height="2" transform="translate(107 83) rotate(-180)"/>
  <rect class="cls-1" x="50.5" y="40.5" width="2" height="2" transform="translate(103 83) rotate(-180)"/>
  <rect class="cls-1" x="48.5" y="40.5" width="2" height="2" transform="translate(99 83) rotate(-180)"/>
  <rect class="cls-1" x="46.5" y="40.5" width="2" height="2" transform="translate(95 83) rotate(-180)"/>
  <rect class="cls-1" x="44.5" y="40.5" width="2" height="2" transform="translate(91 83) rotate(-180)"/>
  <rect class="cls-1" x="42.5" y="40.5" width="2" height="2" transform="translate(87 83) rotate(-180)"/>
  <rect class="cls-1" x="40.5" y="40.5" width="2" height="2" transform="translate(83 83) rotate(-180)"/>
  <rect class="cls-1" x="38.5" y="40.5" width="2" height="2" transform="translate(79 83) rotate(-180)"/>
  <rect class="cls-1" x="36.5" y="40.5" width="2" height="2" transform="translate(75 83) rotate(-180)"/>
  <rect class="cls-1" x="34.5" y="40.5" width="2" height="2" transform="translate(71 83) rotate(-180)"/>
  <rect class="cls-1" x="32.5" y="40.5" width="2" height="2" transform="translate(67 83) rotate(-180)"/>
  <rect class="cls-1" x="30.5" y="40.5" width="2" height="2" transform="translate(63 83) rotate(-180)"/>
  <rect class="cls-1" x="50.5" y="42.5" width="2" height="2" transform="translate(103 87) rotate(-180)"/>
  <rect class="cls-1" x="48.5" y="42.5" width="2" height="2" transform="translate(99 87) rotate(-180)"/>
  <rect class="cls-1" x="46.5" y="42.5" width="2" height="2" transform="translate(95 87) rotate(-180)"/>
  <rect class="cls-1" x="44.5" y="42.5" width="2" height="2" transform="translate(91 87) rotate(-180)"/>
  <rect class="cls-1" x="42.5" y="42.5" width="2" height="2" transform="translate(87 87) rotate(-180)"/>
  <rect class="cls-1" x="40.5" y="42.5" width="2" height="2" transform="translate(83 87) rotate(-180)"/>
  <rect class="cls-1" x="38.5" y="42.5" width="2" height="2" transform="translate(79 87) rotate(-180)"/>
  <rect class="cls-1" x="36.5" y="42.5" width="2" height="2" transform="translate(75 87) rotate(-180)"/>
  <rect class="cls-1" x="34.5" y="42.5" width="2" height="2" transform="translate(71 87) rotate(-180)"/>
  <rect class="cls-1" x="32.5" y="42.5" width="2" height="2" transform="translate(67 87) rotate(-180)"/>
  <rect class="cls-1" x="30.5" y="42.5" width="2" height="2" transform="translate(63 87) rotate(-180)"/>
  <rect class="cls-1" x="48.5" y="44.5" width="2" height="2" transform="translate(99 91) rotate(-180)"/>
  <rect class="cls-1" x="46.5" y="44.5" width="2" height="2" transform="translate(95 91) rotate(-180)"/>
  <rect class="cls-1" x="44.5" y="44.5" width="2" height="2" transform="translate(91 91) rotate(-180)"/>
  <rect class="cls-1" x="42.5" y="44.5" width="2" height="2" transform="translate(87 91) rotate(-180)"/>
  <rect class="cls-1" x="40.5" y="44.5" width="2" height="2" transform="translate(83 91) rotate(-180)"/>
  <rect class="cls-1" x="38.5" y="44.5" width="2" height="2" transform="translate(79 91) rotate(-180)"/>
  <rect class="cls-1" x="36.5" y="44.5" width="2" height="2" transform="translate(75 91) rotate(-180)"/>
  <rect class="cls-1" x="34.5" y="44.5" width="2" height="2" transform="translate(71 91) rotate(-180)"/>
  <rect class="cls-1" x="32.5" y="44.5" width="2" height="2" transform="translate(67 91) rotate(-180)"/>
  <rect class="cls-1" x="30.5" y="44.5" width="2" height="2" transform="translate(63 91) rotate(-180)"/>
  <rect class="cls-1" x="44.5" y="46.5" width="2" height="2" transform="translate(91 95) rotate(-180)"/>
  <rect class="cls-1" x="42.5" y="46.5" width="2" height="2" transform="translate(87 95) rotate(-180)"/>
  <rect class="cls-1" x="40.5" y="46.5" width="2" height="2" transform="translate(83 95) rotate(-180)"/>
  <rect class="cls-1" x="38.5" y="46.5" width="2" height="2" transform="translate(79 95) rotate(-180)"/>
  <rect class="cls-1" x="36.5" y="46.5" width="2" height="2" transform="translate(75 95) rotate(-180)"/>
  <rect class="cls-1" x="34.5" y="46.5" width="2" height="2" transform="translate(71 95) rotate(-180)"/>
  <rect class="cls-1" x="32.5" y="46.5" width="2" height="2" transform="translate(67 95) rotate(-180)"/>
  <rect class="cls-1" x="30.5" y="46.5" width="2" height="2" transform="translate(63 95) rotate(-180)"/>
  <rect class="cls-1" x="42.5" y="48.5" width="2" height="2" transform="translate(87 99) rotate(-180)"/>
  <rect class="cls-1" x="40.5" y="48.5" width="2" height="2" transform="translate(83 99) rotate(-180)"/>
  <rect class="cls-1" x="38.5" y="48.5" width="2" height="2" transform="translate(79 99) rotate(-180)"/>
  <rect class="cls-1" x="36.5" y="48.5" width="2" height="2" transform="translate(75 99) rotate(-180)"/>
  <rect class="cls-1" x="34.5" y="48.5" width="2" height="2" transform="translate(71 99) rotate(-180)"/>
  <rect class="cls-1" x="32.5" y="48.5" width="2" height="2" transform="translate(67 99) rotate(-180)"/>
  <rect class="cls-1" x="30.5" y="48.5" width="2" height="2" transform="translate(63 99) rotate(-180)"/>
  <rect class="cls-1" x="36.5" y="50.5" width="2" height="2" transform="translate(75 103) rotate(-180)"/>
  <rect class="cls-1" x="34.5" y="50.5" width="2" height="2" transform="translate(71 103) rotate(-180)"/>
  <rect class="cls-1" x="32.5" y="50.5" width="2" height="2" transform="translate(67 103) rotate(-180)"/>
  <rect class="cls-1" x="30.5" y="50.5" width="2" height="2" transform="translate(63 103) rotate(-180)"/>
</svg>