<?xml version="1.0" encoding="UTF-8"?>
<svg id="Layer_1" data-name="Layer 1" xmlns="http://www.w3.org/2000/svg" xmlns:xlink="http://www.w3.org/1999/xlink" viewBox="0 0 80 38">
  <defs>
    <style>
      .cls-1 {
        fill: url(#linear-gradient);
      }

      .cls-2 {
        fill: #fff;
      }
    </style>
    <linearGradient id="linear-gradient" x1="1.74" y1="35.67" x2="77.44" y2="2.68" gradientUnits="userSpaceOnUse">
      <stop offset="0" stop-color="#ff95dc"/>
      <stop offset="1" stop-color="#fff"/>
    </linearGradient>
  </defs>
  <rect class="cls-1" x="2" y="2" width="76" height="34"/>
  <g>
    <rect x="2" y="36" width="76" height="2"/>
    <rect x="2" width="76" height="2"/>
    <rect x="0" y="2" width="2" height="34"/>
    <rect x="78" y="2" width="2" height="34"/>
  </g>
  <g>
    <path class="cls-2" d="M52,17v-2h-2v-2h-2v-2h-2v-2h-2v-2h-2v-2h-4v2h-2v2h-2v2h-2v2h-2v2h-2v2h-2v4h4v10h2v2h16v-2h2v-10h4v-4h-2ZM46,29h-12v-14h2v-2h2v-2h4v2h2v2h2v14Z"/>
    <rect x="31" y="14" width="2" height="2"/>
    <rect x="37" y="8" width="2" height="2"/>
    <rect x="35" y="10" width="2" height="2"/>
    <rect x="33" y="12" width="2" height="2"/>
    <polygon points="33 26 33 24 33 22 33 20 33 18 31 18 31 16 29 16 29 18 27 18 27 20 29 20 31 20 31 22 31 24 31 26 31 28 31 30 33 30 33 28 33 26"/>
    <polygon points="51 18 51 16 49 16 49 18 47 18 47 20 47 22 47 24 47 26 47 28 47 30 49 30 49 28 49 26 49 24 49 22 49 20 51 20 53 20 53 18 51 18"/>
    <rect x="47" y="14" width="2" height="2"/>
    <rect x="39" y="6" width="2" height="2"/>
    <rect x="41" y="8" width="2" height="2"/>
    <rect x="43" y="10" width="2" height="2"/>
    <rect x="45" y="12" width="2" height="2"/>
    <polygon points="43 30 41 30 39 30 37 30 35 30 33 30 33 32 35 32 37 32 39 32 41 32 43 32 45 32 47 32 47 30 45 30 43 30"/>
  </g>
</svg>