<?xml version="1.0" encoding="UTF-8"?>
<svg id="Layer_1" data-name="Layer 1" xmlns="http://www.w3.org/2000/svg" viewBox="0 0 80 38">
  <defs>
    <style>
      .cls-1 {
        fill: #fff;
      }
    </style>
  </defs>
  <polygon points="78 2 78 0 2 0 2 2 0 2 0 36 2 36 2 38 78 38 78 36 80 36 80 2 78 2"/>
  <polygon class="cls-1" points="51 18 51 16 49 16 49 14 47 14 47 12 45 12 45 10 43 10 43 8 41 8 41 6 39 6 39 8 37 8 37 10 35 10 35 12 33 12 33 14 31 14 31 16 29 16 29 18 27 18 27 20 31 20 31 30 33 30 33 32 47 32 47 30 49 30 49 20 53 20 53 18 51 18"/>
</svg>