<?xml version="1.0" encoding="UTF-8"?>
<svg id="Layer_1" data-name="Layer 1" xmlns="http://www.w3.org/2000/svg" viewBox="0 0 30 20">
  <defs>
    <style>
      .cls-1 {
        fill: #fff;
      }

      .cls-2 {
        fill: #1e96ff;
      }
    </style>
  </defs>
  <g>
    <polygon class="cls-1" points="13 2 13 1 13 0 12 0 11 0 11 1 11 2 12 2 13 2"/>
    <path class="cls-1" d="M14,2h-1v3h-1v1h-2v1h-1v-3h2V2h-4v1h-2v1h-2v1H1v4h1v2h2v-1h4v9h1v-10h1v-1h2v-1h2v-2h1V2h-1ZM3,9v-3h2v-1h2v-1h1v4h-4v1h-1Z"/>
    <rect class="cls-1" x="7" y="19" width="1" height="1"/>
  </g>
  <g>
    <polygon class="cls-2" points="29 0 28 0 28 1 28 2 28 3 28 4 28 5 28 6 28 7 28 8 28 9 28 10 28 11 28 12 28 13 28 14 28 15 28 16 28 17 28 18 28 19 28 20 29 20 30 20 30 19 30 18 30 17 30 16 30 15 30 14 30 13 30 12 30 11 30 10 30 9 30 8 30 7 30 6 30 5 30 4 30 3 30 2 30 1 30 0 29 0"/>
    <polygon class="cls-2" points="25 3 25 4 25 5 25 6 25 7 25 8 25 9 25 10 25 11 25 12 25 13 25 14 25 15 25 16 25 17 25 18 25 19 25 20 26 20 27 20 27 19 27 18 27 17 27 16 27 15 27 14 27 13 27 12 27 11 27 10 27 9 27 8 27 7 27 6 27 5 27 4 27 3 26 3 25 3"/>
    <polygon class="cls-2" points="22 6 22 7 22 8 22 9 22 10 22 11 22 12 22 13 22 14 22 15 22 16 22 17 22 18 22 19 22 20 23 20 24 20 24 19 24 18 24 17 24 16 24 15 24 14 24 13 24 12 24 11 24 10 24 9 24 8 24 7 24 6 23 6 22 6"/>
    <polygon class="cls-2" points="19 9 19 10 19 11 19 12 19 13 19 14 19 15 19 16 19 17 19 18 19 19 19 20 20 20 21 20 21 19 21 18 21 17 21 16 21 15 21 14 21 13 21 12 21 11 21 10 21 9 20 9 19 9"/>
    <polygon class="cls-2" points="12 2 12 1 12 0 11 0 10 0 10 1 10 2 11 2 12 2"/>
    <path class="cls-2" d="M13,6v-1h1V2h-2v3h-1v1h-2v1h-1v-3h2V2h-4v1h-2v1h-2v1H0v4h1v2h2v-1h3v10h1v-1h1v-10h1v-1h2v-1h2v-1ZM2,9v-3h2v-1h2v3h-3v1h-1Z"/>
    <polygon class="cls-2" points="13 15 13 16 13 17 13 18 13 19 13 20 14 20 15 20 15 19 15 18 15 17 15 16 15 15 14 15 13 15"/>
    <polygon class="cls-2" points="10 18 10 19 10 20 11 20 12 20 12 19 12 18 11 18 10 18"/>
    <polygon class="cls-2" points="16 12 16 13 16 14 16 15 16 16 16 17 16 18 16 19 16 20 17 20 18 20 18 19 18 18 18 17 18 16 18 15 18 14 18 13 18 12 17 12 16 12"/>
  </g>
</svg>