<?xml version="1.0" encoding="UTF-8"?>
<svg id="Layer_1" data-name="Layer 1" xmlns="http://www.w3.org/2000/svg" viewBox="0 0 20 20">
  <defs>
    <style>
      .cls-1 {
        fill: #1e96ff;
      }
    </style>
  </defs>
  <polygon class="cls-1" points="18 6 18 4 16 4 16 2 14 2 12 2 12 0 10 0 10 2 10 4 10 6 10 8 10 10 10 12 8 12 8 10 6 10 4 10 4 12 2 12 2 14 0 14 0 16 0 18 2 18 2 20 4 20 6 20 6 18 8 18 10 18 10 16 12 16 12 14 12 12 12 10 12 8 12 6 14 6 16 6 16 8 18 8 18 10 20 10 20 8 20 6 18 6"/>
  <rect class="cls-1" x="16" y="10" width="2" height="2"/>
</svg>