<svg width="24" height="24" viewBox="0 0 24 24" fill="none" xmlns="http://www.w3.org/2000/svg">
<g clip-path="url(#clip0_2380_1957)">
<path d="M14.5394 13.7984C14.6127 13.6833 15.5506 12.1976 14.2659 11.4072C13.6992 11.057 13.2254 10.8719 12.8688 10.7319V15.3992C12.8688 16.2846 12.0042 17 10.9344 17C9.86462 17 9 16.2846 9 15.3992C9 14.5138 9.86462 13.8034 10.9344 13.8034C11.335 13.8034 11.7111 13.9035 12.0237 14.0835V7C12.0237 7 12.3803 7.31016 12.8688 7.71036C13.6113 8.32566 14.6518 9.14107 15.15 9.34117C15.9805 9.67134 16.7913 12.6828 14.5394 13.7984Z" fill="#1E96FF"/>
</g>
<circle cx="12" cy="12" r="7.5" stroke="#1E96FF"/>
<defs>
<clipPath id="clip0_2380_1957">
<rect width="7" height="10" fill="white" transform="translate(9 7)"/>
</clipPath>
</defs>
</svg>
