<?xml version="1.0" encoding="UTF-8"?>
<svg id="Layer_1" data-name="Layer 1" xmlns="http://www.w3.org/2000/svg" viewBox="0 0 60 60">
  <defs>
    <style>
      .cls-1 {
        fill: #1e96ff;
      }
    </style>
  </defs>
  <g>
    <rect class="cls-1" x="34" y="10" width="2" height="2"/>
    <rect class="cls-1" x="32" y="12" width="2" height="2"/>
    <rect class="cls-1" x="30" y="14" width="2" height="2"/>
    <rect class="cls-1" x="28" y="16" width="2" height="2"/>
    <rect class="cls-1" x="26" y="18" width="2" height="2"/>
    <rect class="cls-1" x="24" y="20" width="2" height="2"/>
    <rect class="cls-1" x="22" y="22" width="2" height="2"/>
    <rect class="cls-1" x="20" y="24" width="2" height="2"/>
    <rect class="cls-1" x="18" y="26" width="2" height="2"/>
    <rect class="cls-1" x="16" y="28" width="2" height="2"/>
    <rect class="cls-1" x="16" y="30" width="2" height="2"/>
    <rect class="cls-1" x="18" y="32" width="2" height="2"/>
    <rect class="cls-1" x="20" y="34" width="2" height="2"/>
    <rect class="cls-1" x="22" y="36" width="2" height="2"/>
    <rect class="cls-1" x="24" y="38" width="2" height="2"/>
    <rect class="cls-1" x="26" y="40" width="2" height="2"/>
    <rect class="cls-1" x="28" y="42" width="2" height="2"/>
    <rect class="cls-1" x="30" y="44" width="2" height="2"/>
    <rect class="cls-1" x="32" y="46" width="2" height="2"/>
    <rect class="cls-1" x="34" y="48" width="2" height="2"/>
  </g>
  <g>
    <polygon class="cls-1" points="6 2 8 2 10 2 12 2 14 2 16 2 18 2 20 2 22 2 24 2 26 2 28 2 30 2 32 2 34 2 36 2 38 2 40 2 42 2 44 2 46 2 48 2 50 2 52 2 54 2 56 2 58 2 58 0 56 0 54 0 52 0 50 0 48 0 46 0 44 0 42 0 40 0 38 0 36 0 34 0 32 0 30 0 28 0 26 0 24 0 22 0 20 0 18 0 16 0 14 0 12 0 10 0 8 0 6 0 4 0 2 0 2 2 4 2 6 2"/>
    <polygon class="cls-1" points="58 2 58 4 58 6 58 8 58 10 58 12 58 14 58 16 58 18 58 20 58 22 58 24 58 26 58 28 58 30 58 32 58 34 58 36 58 38 58 40 58 42 58 44 58 46 58 48 58 50 58 52 58 54 58 56 58 58 60 58 60 56 60 54 60 52 60 50 60 48 60 46 60 44 60 42 60 40 60 38 60 36 60 34 60 32 60 30 60 28 60 26 60 24 60 22 60 20 60 18 60 16 60 14 60 12 60 10 60 8 60 6 60 4 60 2 58 2"/>
    <polygon class="cls-1" points="2 54 2 52 2 50 2 48 2 46 2 44 2 42 2 40 2 38 2 36 2 34 2 32 2 30 2 28 2 26 2 24 2 22 2 20 2 18 2 16 2 14 2 12 2 10 2 8 2 6 2 4 2 2 0 2 0 4 0 6 0 8 0 10 0 12 0 14 0 16 0 18 0 20 0 22 0 24 0 26 0 28 0 30 0 32 0 34 0 36 0 38 0 40 0 42 0 44 0 46 0 48 0 50 0 52 0 54 0 56 0 58 2 58 2 56 2 54"/>
    <polygon class="cls-1" points="54 58 52 58 50 58 48 58 46 58 44 58 42 58 40 58 38 58 36 58 34 58 32 58 30 58 28 58 26 58 24 58 22 58 20 58 18 58 16 58 14 58 12 58 10 58 8 58 6 58 4 58 2 58 2 60 4 60 6 60 8 60 10 60 12 60 14 60 16 60 18 60 20 60 22 60 24 60 26 60 28 60 30 60 32 60 34 60 36 60 38 60 40 60 42 60 44 60 46 60 48 60 50 60 52 60 54 60 56 60 58 60 58 58 56 58 54 58"/>
  </g>
</svg>