<?xml version="1.0" encoding="UTF-8"?>
<svg id="Layer_1" data-name="Layer 1" xmlns="http://www.w3.org/2000/svg" viewBox="0 0 120 120">
  <defs>
    <style>
      .cls-1 {
        fill: #1e96ff;
      }
    </style>
  </defs>
  <path class="cls-1" d="M111.46,103.44v-.49h-.35l-38.11-50.46,29.83-35.46,8.63-10.26h-20.7l-8.63,10.26-16.38,19.47-2.56,3.03-6.87-9.12-10.11-13.38-7.73-10.26H1.15l7.4,9.77.35.49,34.62,45.84L9.78,102.95l-1.23,1.48-7.4,8.78h20.72l8.63-10.26,22.83-27.11,2.99,3.96,9.43,12.5,8.03,10.65,7.75,10.26h37.31l-7.38-9.77ZM85.35,102.95l-19.6-25.97-6.33-8.37-3.1-4.11-6.69-8.85L20.47,17.04h14.18l21.67,28.68.78,1.05,8.65,11.45,1.14,1.51,32.65,43.23h-14.2Z"/>
</svg>