<?xml version="1.0" encoding="UTF-8"?>
<svg id="Layer_1" data-name="Layer 1" xmlns="http://www.w3.org/2000/svg" viewBox="0 0 120 120">
  <defs>
    <style>
      .cls-1 {
        fill: #1e96ff;
      }
    </style>
  </defs>
  <path class="cls-1" d="M84.29.16h-48.57C16.12.16.17,16.11.17,35.72v48.56c0,19.61,15.95,35.56,35.55,35.56h48.57c19.6,0,35.55-15.95,35.55-35.56v-48.56C119.84,16.11,103.89.16,84.29.16ZM60,89.61c-16.33,0-29.61-13.28-29.61-29.61s13.28-29.61,29.61-29.61,29.61,13.28,29.61,29.61-13.28,29.61-29.61,29.61ZM91.99,35.2c-3.83,0-6.93-3.1-6.93-6.93s3.1-6.93,6.93-6.93,6.93,3.11,6.93,6.93-3.11,6.93-6.93,6.93Z"/>
  <path class="cls-1" d="M79.99,60c0,11.02-8.97,19.98-19.99,19.98s-19.98-8.96-19.98-19.98,8.96-19.98,19.98-19.98,19.99,8.96,19.99,19.98Z"/>
</svg>