<?xml version="1.0" encoding="UTF-8"?>
<svg id="Layer_1" data-name="Layer 1" xmlns="http://www.w3.org/2000/svg" viewBox="0 0 120 120">
  <defs>
    <style>
      .cls-1 {
        fill: #1e96ff;
      }
    </style>
  </defs>
  <polygon class="cls-1" points="48.1 74.25 77.3 59.97 48.1 74.61 48.1 74.25"/>
  <polygon class="cls-1" points="80.54 57.67 80.54 57.73 48.1 41.86 48.1 41.39 80.54 57.67"/>
  <polygon class="cls-1" points="81.2 58.01 80.54 58.01 80.54 57.67 81.2 58.01"/>
  <path class="cls-1" d="M99.81,18.53c-12.26-.74-25.22-1.17-38.81-1.2-14.32-.02-27.94.43-40.8,1.2-1.3-.01-8.28.08-14.01,5.66C2.6,27.68.38,32.51.38,37.84v44.58c0,10.66,8.88,19.32,19.82,19.32,13.03.61,26.65.94,40.8.92,13.44-.01,26.39-.34,38.81-.92,1.3.02,8.29-.07,14.01-5.66,3.58-3.5,5.79-8.33,5.79-13.66v-44.58c0-10.67-8.86-19.31-19.8-19.31ZM80.54,58.38l-3.24,1.59-29.2,14.28v-32.39l32.44,15.87.54.28.06.03.06.03-.66.31Z"/>
  <polygon class="cls-1" points="81.2 58.01 81.14 58.04 80.54 58.34 80.54 58.01 81.2 58.01"/>
</svg>