<?xml version="1.0" encoding="UTF-8"?>
<svg id="Layer_1" data-name="Layer 1" xmlns="http://www.w3.org/2000/svg" viewBox="0 0 30 30">
  <defs>
    <style>
      .cls-1 {
        fill: #ff95dc;
      }
    </style>
  </defs>
  <g>
    <g>
      <g>
        <rect class="cls-1" x="8" y="2" width="2" height="2"/>
        <rect class="cls-1" x="10" y="0" width="2" height="2"/>
        <rect class="cls-1" x="12" y="0" width="2" height="2"/>
        <rect class="cls-1" x="14" y="0" width="2" height="2"/>
        <rect class="cls-1" x="6" y="2" width="2" height="2"/>
        <rect class="cls-1" x="4" y="4" width="2" height="2"/>
        <rect class="cls-1" x="2" y="6" width="2" height="2"/>
        <rect class="cls-1" x="2" y="8" width="2" height="2"/>
        <rect class="cls-1" x="0" y="10" width="2" height="2"/>
        <rect class="cls-1" x="0" y="12" width="2" height="2"/>
      </g>
      <rect class="cls-1" x="0" y="12" width="2" height="2"/>
    </g>
    <g>
      <g>
        <rect class="cls-1" x="20" y="2" width="2" height="2"/>
        <rect class="cls-1" x="18" y="0" width="2" height="2"/>
        <rect class="cls-1" x="16" y="0" width="2" height="2"/>
        <rect class="cls-1" x="22" y="2" width="2" height="2"/>
        <rect class="cls-1" x="24" y="4" width="2" height="2"/>
        <rect class="cls-1" x="26" y="6" width="2" height="2"/>
        <rect class="cls-1" x="26" y="8" width="2" height="2"/>
        <rect class="cls-1" x="28" y="10" width="2" height="2"/>
        <rect class="cls-1" x="28" y="12" width="2" height="2"/>
      </g>
      <rect class="cls-1" x="28" y="12" width="2" height="2"/>
      <rect class="cls-1" x="0" y="14" width="2" height="2"/>
      <rect class="cls-1" x="28" y="14" width="2" height="2"/>
    </g>
    <g>
      <g>
        <rect class="cls-1" x="8" y="26" width="2" height="2"/>
        <rect class="cls-1" x="10" y="28" width="2" height="2"/>
        <rect class="cls-1" x="12" y="28" width="2" height="2"/>
        <rect class="cls-1" x="14" y="28" width="2" height="2"/>
        <rect class="cls-1" x="6" y="26" width="2" height="2"/>
        <rect class="cls-1" x="4" y="24" width="2" height="2"/>
        <rect class="cls-1" x="2" y="22" width="2" height="2"/>
        <rect class="cls-1" x="2" y="20" width="2" height="2"/>
        <rect class="cls-1" x="0" y="18" width="2" height="2"/>
        <rect class="cls-1" x="0" y="16" width="2" height="2"/>
      </g>
      <rect class="cls-1" x="0" y="16" width="2" height="2"/>
    </g>
    <g>
      <g>
        <rect class="cls-1" x="20" y="26" width="2" height="2"/>
        <rect class="cls-1" x="18" y="28" width="2" height="2"/>
        <rect class="cls-1" x="16" y="28" width="2" height="2"/>
        <rect class="cls-1" x="22" y="26" width="2" height="2"/>
        <rect class="cls-1" x="24" y="24" width="2" height="2"/>
        <rect class="cls-1" x="26" y="22" width="2" height="2"/>
        <rect class="cls-1" x="26" y="20" width="2" height="2"/>
        <rect class="cls-1" x="28" y="18" width="2" height="2"/>
        <rect class="cls-1" x="28" y="16" width="2" height="2"/>
      </g>
      <rect class="cls-1" x="28" y="16" width="2" height="2"/>
    </g>
  </g>
  <g>
    <rect class="cls-1" x="14" y="10" width="2" height="2"/>
    <rect class="cls-1" x="12" y="12" width="2" height="2"/>
    <rect class="cls-1" x="16" y="12" width="2" height="2"/>
    <rect class="cls-1" x="10" y="14" width="2" height="2"/>
    <rect class="cls-1" x="18" y="14" width="2" height="2"/>
    <rect class="cls-1" x="12" y="16" width="2" height="2"/>
    <rect class="cls-1" x="16" y="16" width="2" height="2"/>
    <rect class="cls-1" x="14" y="18" width="2" height="2"/>
  </g>
</svg>