<?xml version="1.0" encoding="UTF-8"?>
<svg id="Layer_1" data-name="Layer 1" xmlns="http://www.w3.org/2000/svg" viewBox="0 0 56 56">
  <defs>
    <style>
      .cls-1 {
        fill: #ff95dc;
      }
    </style>
  </defs>
  <g>
    <rect class="cls-1" x="18" y="6" width="2" height="2"/>
    <polygon class="cls-1" points="14 8 14 10 16 10 18 10 18 8 16 8 14 8"/>
    <rect class="cls-1" x="12" y="10" width="2" height="2"/>
    <rect class="cls-1" x="10" y="12" width="2" height="2"/>
    <rect class="cls-1" x="8" y="14" width="2" height="2"/>
    <polygon class="cls-1" points="24 20 24 22 26 22 28 22 28 20 26 20 24 20"/>
    <rect class="cls-1" x="22" y="22" width="2" height="2"/>
    <polygon class="cls-1" points="20 26 20 28 20 30 20 32 22 32 22 30 22 28 22 26 22 24 20 24 20 26"/>
    <rect class="cls-1" x="26" y="24" width="2" height="2"/>
    <polygon class="cls-1" points="24 28 24 30 26 30 26 28 26 26 24 26 24 28"/>
    <rect class="cls-1" x="26" y="30" width="2" height="2"/>
    <rect class="cls-1" x="22" y="32" width="2" height="2"/>
    <polygon class="cls-1" points="26 36 28 36 28 34 26 34 24 34 24 36 26 36"/>
    <rect class="cls-1" x="10" y="6" width="2" height="2"/>
    <rect class="cls-1" x="8" y="8" width="2" height="2"/>
    <rect class="cls-1" x="6" y="10" width="2" height="2"/>
    <polygon class="cls-1" points="4 14 4 16 6 16 6 14 6 12 4 12 4 14"/>
    <polygon class="cls-1" points="2 18 2 20 4 20 4 18 4 16 2 16 2 18"/>
    <polygon class="cls-1" points="16 2 16 4 18 4 20 4 20 2 18 2 16 2"/>
    <polygon class="cls-1" points="12 4 12 6 14 6 16 6 16 4 14 4 12 4"/>
    <polygon class="cls-1" points="2 38 2 40 4 40 4 38 4 36 4 34 2 34 2 36 2 38"/>
    <polygon class="cls-1" points="4 44 6 44 6 42 6 40 4 40 4 42 4 44"/>
    <rect class="cls-1" x="6" y="44" width="2" height="2"/>
    <rect class="cls-1" x="8" y="46" width="2" height="2"/>
    <rect class="cls-1" x="10" y="48" width="2" height="2"/>
    <polygon class="cls-1" points="26 0 24 0 22 0 20 0 20 2 22 2 24 2 26 2 28 2 28 0 26 0"/>
    <polygon class="cls-1" points="0 22 0 24 0 26 0 28 0 30 0 32 0 34 2 34 2 32 2 30 2 28 2 26 2 24 2 22 2 20 0 20 0 22"/>
    <polygon class="cls-1" points="14 52 16 52 16 50 14 50 12 50 12 52 14 52"/>
    <polygon class="cls-1" points="18 54 20 54 20 52 18 52 16 52 16 54 18 54"/>
    <polygon class="cls-1" points="22 56 24 56 26 56 28 56 28 54 26 54 24 54 22 54 20 54 20 56 22 56"/>
  </g>
  <g>
    <rect class="cls-1" x="36" y="48" width="2" height="2"/>
    <polygon class="cls-1" points="42 48 42 46 40 46 38 46 38 48 40 48 42 48"/>
    <rect class="cls-1" x="42" y="44" width="2" height="2"/>
    <rect class="cls-1" x="44" y="42" width="2" height="2"/>
    <rect class="cls-1" x="46" y="40" width="2" height="2"/>
    <polygon class="cls-1" points="32 36 32 34 30 34 28 34 28 36 30 36 32 36"/>
    <rect class="cls-1" x="32" y="32" width="2" height="2"/>
    <polygon class="cls-1" points="36 30 36 28 36 26 36 24 34 24 34 26 34 28 34 30 34 32 36 32 36 30"/>
    <rect class="cls-1" x="28" y="30" width="2" height="2"/>
    <polygon class="cls-1" points="32 28 32 26 30 26 30 28 30 30 32 30 32 28"/>
    <rect class="cls-1" x="28" y="24" width="2" height="2"/>
    <rect class="cls-1" x="32" y="22" width="2" height="2"/>
    <polygon class="cls-1" points="30 20 28 20 28 22 30 22 32 22 32 20 30 20"/>
    <rect class="cls-1" x="44" y="48" width="2" height="2"/>
    <rect class="cls-1" x="46" y="46" width="2" height="2"/>
    <rect class="cls-1" x="48" y="44" width="2" height="2"/>
    <polygon class="cls-1" points="52 42 52 40 50 40 50 42 50 44 52 44 52 42"/>
    <polygon class="cls-1" points="54 38 54 36 52 36 52 38 52 40 54 40 54 38"/>
    <polygon class="cls-1" points="40 54 40 52 38 52 36 52 36 54 38 54 40 54"/>
    <polygon class="cls-1" points="44 52 44 50 42 50 40 50 40 52 42 52 44 52"/>
    <polygon class="cls-1" points="54 18 54 16 52 16 52 18 52 20 52 22 54 22 54 20 54 18"/>
    <polygon class="cls-1" points="52 12 50 12 50 14 50 16 52 16 52 14 52 12"/>
    <rect class="cls-1" x="48" y="10" width="2" height="2"/>
    <rect class="cls-1" x="46" y="8" width="2" height="2"/>
    <rect class="cls-1" x="44" y="6" width="2" height="2"/>
    <polygon class="cls-1" points="30 56 32 56 34 56 36 56 36 54 34 54 32 54 30 54 28 54 28 56 30 56"/>
    <polygon class="cls-1" points="56 34 56 32 56 30 56 28 56 26 56 24 56 22 54 22 54 24 54 26 54 28 54 30 54 32 54 34 54 36 56 36 56 34"/>
    <polygon class="cls-1" points="42 4 40 4 40 6 42 6 44 6 44 4 42 4"/>
    <polygon class="cls-1" points="38 2 36 2 36 4 38 4 40 4 40 2 38 2"/>
    <polygon class="cls-1" points="34 0 32 0 30 0 28 0 28 2 30 2 32 2 34 2 36 2 36 0 34 0"/>
  </g>
</svg>