<?xml version="1.0" encoding="UTF-8"?>
<svg id="Layer_1" data-name="Layer 1" xmlns="http://www.w3.org/2000/svg" viewBox="0 0 50 50">
  <defs>
    <style>
      .cls-1 {
        fill: #fff;
      }
    </style>
  </defs>
  <g>
    <polygon points="50.09 2 50.09 48 48.09 48 48.09 50 2 50 2 48 0 48 0 2 2 2 2 0 48.09 0 48.09 2 50.09 2"/>
    <g>
      <rect y="2" width="2" height="46"/>
      <rect x="48.09" y="2" width="2" height="46"/>
      <polygon points="46.09 0 2 0 2 2 46.09 2 48.09 2 48.09 0 46.09 0"/>
      <rect x="2" y="48" width="46.09" height="2"/>
    </g>
  </g>
  <g>
    <polygon class="cls-1" points="28 23 28 27 24 27 24 29 22 29 22 31 20 31 20 19 22 19 22 21 24 21 24 23 28 23"/>
    <rect class="cls-1" x="20" y="17" width="2" height="2"/>
    <rect class="cls-1" x="22" y="19" width="2" height="2"/>
    <rect class="cls-1" x="24" y="21" width="2" height="2"/>
    <rect class="cls-1" x="26" y="21" width="2" height="2"/>
    <rect class="cls-1" x="28" y="23" width="2" height="2"/>
    <rect class="cls-1" x="20" y="15" width="2" height="2"/>
    <rect class="cls-1" x="18" y="15" width="2" height="2"/>
    <rect class="cls-1" x="18" y="13" width="2" height="2"/>
    <rect class="cls-1" x="18" y="17" width="2" height="2"/>
    <rect class="cls-1" x="18" y="19" width="2" height="2"/>
    <rect class="cls-1" x="18" y="21" width="2" height="2"/>
    <rect class="cls-1" x="18" y="23" width="2" height="2"/>
    <rect class="cls-1" x="18" y="25" width="2" height="2"/>
    <rect class="cls-1" x="18" y="27" width="2" height="2"/>
    <rect class="cls-1" x="18" y="29" width="2" height="2"/>
    <rect class="cls-1" x="18" y="31" width="2" height="2"/>
    <rect class="cls-1" x="18" y="33" width="2" height="2"/>
    <rect class="cls-1" x="18" y="35" width="2" height="2"/>
    <rect class="cls-1" x="30" y="15" width="2" height="2"/>
    <rect class="cls-1" x="30" y="13" width="2" height="2"/>
    <rect class="cls-1" x="30" y="17" width="2" height="2"/>
    <rect class="cls-1" x="30" y="19" width="2" height="2"/>
    <rect class="cls-1" x="30" y="21" width="2" height="2"/>
    <rect class="cls-1" x="30" y="23" width="2" height="2"/>
    <rect class="cls-1" x="30" y="25" width="2" height="2"/>
    <rect class="cls-1" x="30" y="27" width="2" height="2"/>
    <rect class="cls-1" x="30" y="29" width="2" height="2"/>
    <rect class="cls-1" x="30" y="31" width="2" height="2"/>
    <rect class="cls-1" x="30" y="33" width="2" height="2"/>
    <rect class="cls-1" x="30" y="35" width="2" height="2"/>
    <rect class="cls-1" x="22" y="17" width="2" height="2"/>
    <rect class="cls-1" x="24" y="19" width="2" height="2"/>
    <rect class="cls-1" x="26" y="19" width="2" height="2"/>
    <rect class="cls-1" x="28" y="21" width="2" height="2"/>
    <rect class="cls-1" x="20" y="33" width="2" height="2"/>
    <rect class="cls-1" x="22" y="31" width="2" height="2"/>
    <rect class="cls-1" x="24" y="29" width="2" height="2"/>
    <rect class="cls-1" x="26" y="29" width="2" height="2"/>
    <rect class="cls-1" x="28" y="27" width="2" height="2"/>
    <rect class="cls-1" x="20" y="31" width="2" height="2"/>
    <rect class="cls-1" x="22" y="29" width="2" height="2"/>
    <rect class="cls-1" x="24" y="27" width="2" height="2"/>
    <rect class="cls-1" x="26" y="27" width="2" height="2"/>
    <rect class="cls-1" x="28" y="25" width="2" height="2"/>
    <rect class="cls-1" x="30" y="23" width="2" height="2"/>
    <rect class="cls-1" x="30" y="25" width="2" height="2"/>
  </g>
</svg>