<?xml version="1.0" encoding="UTF-8"?>
<svg id="Layer_1" data-name="Layer 1" xmlns="http://www.w3.org/2000/svg" viewBox="0 0 100 10">
  <defs>
    <style>
      .cls-1 {
        fill: #fff;
      }

      .cls-2 {
        fill: #1e96ff;
      }

      .cls-3 {
        fill: #999;
      }
    </style>
  </defs>
  <rect x="12" y="6" width="2" height="2"/>
  <rect x="10" y="6" width="2" height="2"/>
  <rect x="10" y="2" width="2" height="2"/>
  <rect x="14" y="6" width="2" height="2"/>
  <rect x="16" y="6" width="2" height="2"/>
  <rect x="18" y="6" width="2" height="2"/>
  <rect x="20" y="6" width="2" height="2"/>
  <rect x="22" y="6" width="2" height="2"/>
  <rect x="24" y="6" width="2" height="2"/>
  <rect x="26" y="6" width="2" height="2"/>
  <rect x="28" y="6" width="2" height="2"/>
  <rect x="30" y="6" width="2" height="2"/>
  <rect x="32" y="6" width="2" height="2"/>
  <rect x="34" y="6" width="2" height="2"/>
  <rect x="36" y="6" width="2" height="2"/>
  <rect x="38" y="6" width="2" height="2"/>
  <rect x="40" y="6" width="2" height="2"/>
  <rect x="42" y="6" width="2" height="2"/>
  <rect x="44" y="6" width="2" height="2"/>
  <rect x="46" y="6" width="2" height="2"/>
  <rect x="48" y="6" width="2" height="2"/>
  <rect x="50" y="6" width="2" height="2"/>
  <rect x="60" y="6" width="2" height="2"/>
  <rect x="62" y="6" width="2" height="2"/>
  <rect x="64" y="6" width="2" height="2"/>
  <rect x="66" y="6" width="2" height="2"/>
  <rect x="68" y="6" width="2" height="2"/>
  <rect x="70" y="6" width="2" height="2"/>
  <rect x="72" y="6" width="2" height="2"/>
  <rect x="74" y="6" width="2" height="2"/>
  <rect x="76" y="6" width="2" height="2"/>
  <rect x="78" y="6" width="2" height="2"/>
  <rect x="80" y="6" width="2" height="2"/>
  <rect x="82" y="6" width="2" height="2"/>
  <rect x="84" y="6" width="2" height="2"/>
  <rect x="86" y="6" width="2" height="2"/>
  <rect x="88" y="6" width="2" height="2"/>
  <rect x="90" y="6" width="2" height="2"/>
  <rect x="92" y="6" width="2" height="2"/>
  <rect x="94" y="6" width="2" height="2"/>
  <rect x="96" y="6" width="2" height="2"/>
  <rect x="12" y="2" width="2" height="2"/>
  <rect x="14" y="2" width="2" height="2"/>
  <rect x="16" y="2" width="2" height="2"/>
  <rect x="18" y="2" width="2" height="2"/>
  <rect x="20" y="2" width="2" height="2"/>
  <rect x="22" y="2" width="2" height="2"/>
  <rect x="24" y="2" width="2" height="2"/>
  <rect x="26" y="2" width="2" height="2"/>
  <rect x="28" y="2" width="2" height="2"/>
  <rect x="30" y="2" width="2" height="2"/>
  <rect x="32" y="2" width="2" height="2"/>
  <rect x="34" y="2" width="2" height="2"/>
  <rect x="36" y="2" width="2" height="2"/>
  <rect x="38" y="2" width="2" height="2"/>
  <rect x="40" y="2" width="2" height="2"/>
  <rect x="42" y="2" width="2" height="2"/>
  <rect x="44" y="2" width="2" height="2"/>
  <rect x="46" y="2" width="2" height="2"/>
  <rect x="48" y="2" width="2" height="2"/>
  <rect x="50" y="2" width="2" height="2"/>
  <rect x="60" y="2" width="2" height="2"/>
  <rect x="62" y="2" width="2" height="2"/>
  <rect x="64" y="2" width="2" height="2"/>
  <rect x="66" y="2" width="2" height="2"/>
  <rect x="68" y="2" width="2" height="2"/>
  <rect x="70" y="2" width="2" height="2"/>
  <rect x="72" y="2" width="2" height="2"/>
  <rect x="74" y="2" width="2" height="2"/>
  <rect x="76" y="2" width="2" height="2"/>
  <rect x="78" y="2" width="2" height="2"/>
  <rect x="80" y="2" width="2" height="2"/>
  <rect x="82" y="2" width="2" height="2"/>
  <rect x="84" y="2" width="2" height="2"/>
  <rect x="86" y="2" width="2" height="2"/>
  <rect x="88" y="2" width="2" height="2"/>
  <rect x="90" y="2" width="2" height="2"/>
  <rect x="92" y="2" width="2" height="2"/>
  <rect x="94" y="2" width="2" height="2"/>
  <rect x="96" y="2" width="2" height="2"/>
  <rect x="98" y="4" width="2" height="2"/>
  <rect class="cls-2" x="12" y="4" width="2" height="2"/>
  <rect class="cls-2" x="14" y="4" width="2" height="2"/>
  <rect class="cls-2" x="16" y="4" width="2" height="2"/>
  <rect class="cls-2" x="18" y="4" width="2" height="2"/>
  <rect class="cls-2" x="20" y="4" width="2" height="2"/>
  <rect class="cls-2" x="22" y="4" width="2" height="2"/>
  <rect class="cls-2" x="24" y="4" width="2" height="2"/>
  <rect class="cls-2" x="26" y="4" width="2" height="2"/>
  <rect class="cls-2" x="28" y="4" width="2" height="2"/>
  <rect class="cls-2" x="30" y="4" width="2" height="2"/>
  <rect class="cls-2" x="32" y="4" width="2" height="2"/>
  <rect class="cls-2" x="34" y="4" width="2" height="2"/>
  <rect class="cls-2" x="36" y="4" width="2" height="2"/>
  <rect class="cls-2" x="38" y="4" width="2" height="2"/>
  <rect class="cls-2" x="40" y="4" width="2" height="2"/>
  <rect class="cls-2" x="42" y="4" width="2" height="2"/>
  <rect class="cls-2" x="44" y="4" width="2" height="2"/>
  <rect class="cls-2" x="46" y="4" width="2" height="2"/>
  <rect class="cls-2" x="48" y="4" width="2" height="2"/>
  <rect class="cls-2" x="50" y="4" width="2" height="2"/>
  <rect class="cls-2" x="52" y="4" width="2" height="2"/>
  <rect class="cls-3" x="54" y="4" width="2" height="2"/>
  <rect class="cls-3" x="56" y="4" width="2" height="2"/>
  <rect class="cls-3" x="58" y="4" width="2" height="2"/>
  <rect class="cls-3" x="60" y="4" width="2" height="2"/>
  <rect class="cls-3" x="62" y="4" width="2" height="2"/>
  <rect class="cls-3" x="64" y="4" width="2" height="2"/>
  <rect class="cls-3" x="66" y="4" width="2" height="2"/>
  <rect class="cls-3" x="68" y="4" width="2" height="2"/>
  <rect class="cls-3" x="70" y="4" width="2" height="2"/>
  <rect class="cls-3" x="72" y="4" width="2" height="2"/>
  <rect class="cls-3" x="74" y="4" width="2" height="2"/>
  <rect class="cls-2" x="10" y="4" width="2" height="2"/>
  <rect x="2" y="6" width="2" height="2"/>
  <rect y="4" width="2" height="2"/>
  <rect x="4" y="6" width="2" height="2"/>
  <rect x="6" y="6" width="2" height="2"/>
  <rect x="8" y="6" width="2" height="2"/>
  <rect x="2" y="2" width="2" height="2"/>
  <rect x="4" y="2" width="2" height="2"/>
  <rect x="6" y="2" width="2" height="2"/>
  <rect x="8" y="2" width="2" height="2"/>
  <rect class="cls-2" x="2" y="4" width="2" height="2"/>
  <rect class="cls-2" x="4" y="4" width="2" height="2"/>
  <rect class="cls-2" x="6" y="4" width="2" height="2"/>
  <rect class="cls-2" x="8" y="4" width="2" height="2"/>
  <rect class="cls-2" x="10" y="4" width="2" height="2"/>
  <rect class="cls-2" x="12" y="4" width="2" height="2"/>
  <rect class="cls-2" x="14" y="4" width="2" height="2"/>
  <rect class="cls-2" x="16" y="4" width="2" height="2"/>
  <rect class="cls-2" x="18" y="4" width="2" height="2"/>
  <rect class="cls-2" x="20" y="4" width="2" height="2"/>
  <rect class="cls-2" x="22" y="4" width="2" height="2"/>
  <rect class="cls-3" x="70" y="4" width="2" height="2"/>
  <rect class="cls-3" x="72" y="4" width="2" height="2"/>
  <rect class="cls-3" x="74" y="4" width="2" height="2"/>
  <rect class="cls-3" x="76" y="4" width="2" height="2"/>
  <rect class="cls-3" x="78" y="4" width="2" height="2"/>
  <rect class="cls-3" x="80" y="4" width="2" height="2"/>
  <rect class="cls-3" x="82" y="4" width="2" height="2"/>
  <rect class="cls-3" x="84" y="4" width="2" height="2"/>
  <rect class="cls-3" x="86" y="4" width="2" height="2"/>
  <rect class="cls-3" x="88" y="4" width="2" height="2"/>
  <rect class="cls-3" x="90" y="4" width="2" height="2"/>
  <rect class="cls-3" x="92" y="4" width="2" height="2"/>
  <rect class="cls-3" x="94" y="4" width="2" height="2"/>
  <rect class="cls-3" x="96" y="4" width="2" height="2"/>
  <g>
    <g>
      <polygon points="74 2 74 4 74 6 74 8 76 8 76 6 76 4 76 2 74 2"/>
      <polygon points="56 2 58 2 60 2 62 2 64 2 66 2 68 2 70 2 72 2 74 2 74 0 72 0 70 0 68 0 66 0 64 0 62 0 60 0 58 0 56 0 54 0 52 0 52 2 54 2 56 2"/>
      <polygon points="52 4 52 2 50 2 50 4 50 6 50 8 52 8 52 6 52 4"/>
      <polygon points="70 8 68 8 66 8 64 8 62 8 60 8 58 8 56 8 54 8 52 8 52 10 54 10 56 10 58 10 60 10 62 10 64 10 66 10 68 10 70 10 72 10 74 10 74 8 72 8 70 8"/>
    </g>
    <polygon class="cls-1" points="72 2 70 2 68 2 66 2 64 2 62 2 60 2 58 2 56 2 54 2 52 2 52 4 52 6 52 8 54 8 56 8 58 8 60 8 62 8 64 8 66 8 68 8 70 8 72 8 74 8 74 6 74 4 74 2 72 2"/>
  </g>
</svg>