<?xml version="1.0" encoding="UTF-8"?>
<svg id="Layer_1" data-name="Layer 1" xmlns="http://www.w3.org/2000/svg" viewBox="0 0 1219.43 1086.54">
  <defs>
    <style>
      .cls-1 {
        fill: #0c0608;
      }

      .cls-2 {
        fill: #070404;
      }

      .cls-3 {
        fill: #919090;
      }
    </style>
  </defs>
  <polygon class="cls-1" points="558.4 29.81 539.51 29.81 539.51 39.53 558.4 39.53 558.4 90.92 570.07 90.92 570.07 .74 558.4 .74 558.4 29.81"/>
  <path class="cls-1" d="M528.67,23.41v-15.33h-11.68v15.33c0,17.01-9.05,33.32-22,39.65l-.83.41,7.32,9.24.55-.28c9.25-4.76,16.62-14.06,20.91-26.32,4.19,11.5,11.44,20.27,20.6,24.85l.57.28,6.89-9.37-.83-.38c-12.85-5.96-21.49-21.27-21.49-38.09"/>
  <polygon class="cls-1" points="582.21 46.68 617.05 46.68 617.05 52.32 591.7 52.32 591.7 61.46 642.31 61.46 642.31 66.32 591.9 66.32 591.9 90.04 656.23 90.04 656.23 80.8 603.37 80.8 603.37 74.96 653.69 74.96 653.69 52.32 628.73 52.32 628.73 46.68 663.67 46.68 663.67 37.15 582.21 37.15 582.21 46.68"/>
  <path class="cls-1" d="M622.99,33.85c20.51,0,32.26-5.84,32.26-16.02s-11.76-16.01-32.26-16.01-32.26,5.84-32.26,16.01,11.76,16.02,32.26,16.02M622.99,10.85c13.09,0,20.3,2.48,20.3,6.98s-7.21,6.99-20.3,6.99-20.3-2.48-20.3-6.99,7.21-6.98,20.3-6.98"/>
  <path class="cls-1" d="M703.53,23.51v-15.24h-11.58v15.24c0,17.27-9.4,33.57-22.86,39.65l-.83.37,6.87,9.67.57-.27c9.99-4.86,17.81-14.35,22.21-26.87,4.35,11.45,12.13,20.46,21.58,24.91l.55.26,6.79-9.27-.84-.38c-13.23-5.96-22.47-21.62-22.47-38.08"/>
  <rect class="cls-1" x="731.99" y=".84" width="11.67" height="90.18"/>
  <path class="cls-1" d="M819.42,62.99h-36.38v-9.1h-11.58v35.85h59.45v-35.85h-11.48v9.1ZM819.42,80.12h-36.38v-7.71h36.38v7.71Z"/>
  <rect class="cls-1" x="819.31" y=".93" width="11.58" height="50.34"/>
  <path class="cls-1" d="M812.89,46.84l-1.39-9.71-.75.12c-12.88,2.17-23.82,2.62-38.19,2.63v-8.29h30.25V5.05h-41.93v9.72h30.54v7.7h-30.34v27.14h8.19c17.21,0,29.14-.42,42.89-2.65l.72-.12Z"/>
  <path class="cls-1" d="M848.41,69.19h43V9.26h-43v59.94ZM859.79,18.78h20.23v40.79h-20.23V18.78Z"/>
  <rect class="cls-1" x="906.26" y=".84" width="11.67" height="90.18"/>
  <polygon class="cls-1" points="930.75 46.28 965.6 46.28 965.6 52.23 940.24 52.23 940.24 61.36 990.85 61.36 990.85 66.42 940.44 66.42 940.44 90.04 1004.78 90.04 1004.78 80.8 951.92 80.8 951.92 75.06 1002.23 75.06 1002.23 52.23 977.27 52.23 977.27 46.28 1012.32 46.28 1012.32 36.76 930.75 36.76 930.75 46.28"/>
  <path class="cls-1" d="M939.23,33.46c14.62-1.76,26.31-7.58,32.31-16.05,6,8.47,17.69,14.3,32.31,16.05l.55.07,4.07-9.19-1.03-.1c-17.09-1.7-29.96-10.13-29.96-19.61V1.33h-11.87v3.29c0,9.48-12.88,17.91-29.96,19.61l-1.03.1,4.07,9.19.55-.07Z"/>
  <path class="cls-1" d="M1054.8,38.35l-.15.79,11.37,1.24.13-.68c2.17-11.52,2.17-20.39,2.17-26.27v-5.84h-45.94v9.72h34.53c-.12,5.71-.48,12.24-2.12,21.04"/>
  <polygon class="cls-1" points="1041.99 61.43 1030.32 61.43 1030.32 89.16 1091.92 89.16 1091.92 79.44 1041.99 79.44 1041.99 61.43"/>
  <polygon class="cls-1" points="1089.08 28.93 1089.08 .93 1077.4 .93 1077.4 68.8 1089.08 68.8 1089.08 38.74 1100.82 38.74 1100.82 28.93 1089.08 28.93"/>
  <path class="cls-1" d="M1074.26,51.93l-.83-8.82-.79.12c-8.78,1.38-18.29,1.95-26.54,2.31v-17.78h-11.48v18.13c-5.99.17-11.76.17-16.87.17h-.85l1.27,9.72h.66c14.37,0,35.68-.39,54.74-3.74l.68-.12Z"/>
  <path class="cls-3" d="M548.1,198.19c-7.76,6.58-18.17,6.67-21.09,6.67-3.83,0-16.16-.18-25.11-9.59-1.09-1.19-2.28-2.74-3.1-4.2l10.14-7.03c2.83,4.2,8.12,9.68,19.99,9.68.55,0,2.83,0,4.75-.46,1.37-.27,7.67-2.01,7.67-8.03,0-.64-.09-2.37-1.18-3.83-2.19-2.92-8.04-3.74-11.23-4.47l-7.67-1.74c-3.29-.73-6.85-1.46-9.77-3.01-3.01-1.56-9.22-5.66-9.22-14.97,0-1.46.18-5.66,2.46-9.5,2.92-4.93,9.95-10.59,23.01-10.59,5.74,0,17.07.91,26.01,13.05l-9.95,7.4c-2.01-3.19-6.57-9.59-16.7-9.59-.64,0-8.77-.09-11.41,4.93-.55,1-.73,1.91-.73,2.92,0,1.09.28,2.01.82,2.92,1.55,2.65,5.11,3.47,11.04,4.75l6.66,1.46c6.12,1.37,12.88,3.2,17.16,8.22,1.83,2,3.75,4.93,3.75,10.86s-1.83,10.32-6.3,14.15"/>
  <polygon class="cls-3" points="564.89 203.21 564.89 138.76 610.71 138.76 610.71 149.53 576.75 149.53 576.75 164.69 607.88 164.69 607.88 175.09 576.75 175.09 576.75 192.35 613 192.35 613 203.21 564.89 203.21"/>
  <path class="cls-3" d="M672.24,195.63c-1.46,1.55-5.2,5.29-10.96,7.4-2.01.73-5.75,1.83-11.23,1.83-9.13,0-16.07-3.01-22.09-9.95-6.03-6.85-8.58-14.88-8.58-23.83,0-2.1.09-7.03,1.92-12.5,4.2-12.87,15.25-21.45,29.03-21.45,12.41,0,19.81,6.75,22.82,10.22,3.38,3.84,8.13,11.32,8.04,23.65,0,4.02-.46,15.43-8.95,24.65M665.2,156.65c-3.37-5.48-8.49-8.49-14.97-8.49-4.02,0-6.94,1.28-8.21,1.92-4.57,2.47-10.23,8.49-10.23,20.54,0,2.46.09,14.33,9.13,20.27,3.93,2.56,7.85,2.74,9.49,2.74,1.28,0,4.2-.09,7.4-1.55,4.75-2.19,10.95-7.67,11.23-19.81.09-5.29-.91-10.96-3.84-15.61"/>
  <path class="cls-3" d="M743.71,190.07c-2.1,6.48-9.5,14.79-25.29,14.79-7.57,0-15.15-1.83-20.45-7.67-.82-.82-3.01-3.47-4.1-6.94-1-3.28-1-6.3-1-13.14v-38.34h12.14v39.63c0,3.83,0,5.2.64,7.12,1.19,3.84,4.66,7.67,13.24,7.67,1.55,0,10.4,0,13.05-7.3.73-2.11.82-3.84.82-8.13v-38.99h12.05v37.16c0,7.39.09,10.5-1.1,14.15"/>
  <polygon class="cls-3" points="759.76 203.21 759.76 138.76 771.9 138.76 771.9 192.25 797.46 192.25 797.46 203.21 759.76 203.21"/>
  <polygon class="cls-3" points="881.62 203.21 882.81 150.26 868.84 203.21 857.97 203.21 844.01 150.26 845.19 203.21 833.42 203.21 833.42 138.76 850.95 138.76 863.54 186.6 875.96 138.76 893.4 138.76 893.4 203.21 881.62 203.21"/>
  <path class="cls-3" d="M958.93,190.07c-2.1,6.48-9.5,14.79-25.29,14.79-7.57,0-15.15-1.83-20.45-7.67-.82-.82-3.01-3.47-4.1-6.94-1-3.28-1-6.3-1-13.14v-38.34h12.14v39.63c0,3.83,0,5.2.64,7.12,1.19,3.84,4.66,7.67,13.24,7.67,1.55,0,10.4,0,13.05-7.3.73-2.11.82-3.84.82-8.13v-38.99h12.05v37.16c0,7.39.09,10.5-1.1,14.15"/>
  <path class="cls-3" d="M1018.9,198.19c-7.76,6.58-18.17,6.67-21.09,6.67-3.83,0-16.16-.18-25.11-9.59-1.09-1.19-2.28-2.74-3.1-4.2l10.13-7.03c2.83,4.2,8.13,9.68,20,9.68.54,0,2.83,0,4.74-.46,1.37-.27,7.67-2.01,7.67-8.03,0-.64-.09-2.37-1.19-3.83-2.19-2.92-8.03-3.74-11.22-4.47l-7.67-1.74c-3.29-.73-6.85-1.46-9.77-3.01-3.01-1.56-9.22-5.66-9.22-14.97,0-1.46.18-5.66,2.46-9.5,2.93-4.93,9.95-10.59,23.01-10.59,5.75,0,17.07.91,26.02,13.05l-9.95,7.4c-2.01-3.19-6.57-9.59-16.71-9.59-.64,0-8.76-.09-11.41,4.93-.55,1-.73,1.91-.73,2.92,0,1.09.28,2.01.82,2.92,1.55,2.65,5.11,3.47,11.04,4.75l6.67,1.46c6.12,1.37,12.87,3.2,17.16,8.22,1.83,2,3.75,4.93,3.75,10.86s-1.83,10.32-6.3,14.15"/>
  <polygon class="cls-3" points="1035.68 203.21 1035.68 138.76 1081.51 138.76 1081.51 149.53 1047.55 149.53 1047.55 164.69 1078.68 164.69 1078.68 175.09 1047.55 175.09 1047.55 192.35 1083.79 192.35 1083.79 203.21 1035.68 203.21"/>
  <path class="cls-3" d="M1143.95,190.07c-2.1,6.48-9.5,14.79-25.29,14.79-7.57,0-15.15-1.83-20.45-7.67-.82-.82-3.01-3.47-4.1-6.94-1-3.28-1-6.3-1-13.14v-38.34h12.14v39.63c0,3.83,0,5.2.64,7.12,1.19,3.84,4.66,7.67,13.24,7.67,1.55,0,10.4,0,13.05-7.3.73-2.11.82-3.84.82-8.13v-38.99h12.05v37.16c0,7.39.09,10.5-1.1,14.15"/>
  <polygon class="cls-3" points="1207.65 203.21 1208.84 150.26 1194.87 203.21 1184.01 203.21 1170.04 150.26 1171.23 203.21 1159.45 203.21 1159.45 138.76 1176.98 138.76 1189.58 186.6 1202 138.76 1219.43 138.76 1219.43 203.21 1207.65 203.21"/>
  <path class="cls-3" d="M553.94,286.27c-1.46,1.55-5.2,5.29-10.96,7.39-2.01.73-5.75,1.83-11.23,1.83-9.13,0-16.07-3.01-22.09-9.95-6.03-6.85-8.58-14.88-8.58-23.83,0-2.1.09-7.03,1.92-12.51,4.2-12.87,15.25-21.45,29.03-21.45,12.41,0,19.81,6.75,22.82,10.22,3.38,3.84,8.13,11.32,8.04,23.65,0,4.02-.46,15.43-8.95,24.65M546.91,247.29c-3.37-5.48-8.49-8.49-14.97-8.49-4.02,0-6.94,1.28-8.21,1.92-4.57,2.46-10.23,8.49-10.23,20.54,0,2.46.09,14.33,9.13,20.27,3.93,2.56,7.85,2.74,9.49,2.74,1.28,0,4.2-.09,7.4-1.55,4.75-2.19,10.95-7.67,11.23-19.81.09-5.29-.91-10.96-3.84-15.61"/>
  <polygon class="cls-3" points="586.61 240.16 586.61 256.24 613.54 256.24 613.54 266.55 586.61 266.55 586.61 293.85 574.65 293.85 574.65 229.39 617.28 229.39 617.28 240.16 586.61 240.16"/>
  <path class="cls-3" d="M690.4,293.85l-3.75-12.6h-24.19l-3.74,12.6h-12.97l21.82-64.46h13.69l22,64.46h-12.87ZM674.61,240.98l-8.95,29.67h17.8l-8.85-29.67Z"/>
  <path class="cls-3" d="M747.27,293.84l-12.69-23.92h-10.87v23.92h-11.96v-64.45h26.39c2.92,0,11.59.28,17.35,7.85,3.74,4.93,3.93,10.5,3.93,12.6,0,1-.09,4.2-1.19,7.21-1,2.65-4.1,8.22-11.5,10.5l14.34,26.29h-13.79ZM743.16,241.71c-2.1-1.37-4.57-1.92-9.68-1.92h-9.77v20.08h4.29c7.03,0,11.41,0,14.33-1.55,1.83-1,4.84-3.38,4.84-8.58,0-1.64-.18-5.48-4.01-8.04"/>
  <polygon class="cls-3" points="795.09 240.25 795.09 293.84 783.04 293.84 783.04 240.25 765.51 240.25 765.51 229.39 812.89 229.39 812.89 240.25 795.09 240.25"/>
  <path class="cls-2" d="M749.74,868.98c-.81-.68-1.18-1.01-1.99-1.7.55-.9.82-1.33,1.37-2.23l-17.31-53.27c-.98-.41-1.44-.6-2.41-1l.61-2.54-32.92-45.32c-1.05-.08-1.55-.12-2.61-.2-.08-1.05-.12-1.55-.2-2.61l-45.56-33.1c-.94.15-1.47.23-2.4.38-.15-.94-.23-1.47-.38-2.4l-18.24-13.25-18.24-13.25c-.94.15-1.47.23-2.4.38-.15-.94-.23-1.47-.38-2.4l-18.24-13.25-18.24-13.25c-.94.15-1.47.23-2.4.38-.15-.94-.23-1.47-.38-2.4l-18.24-13.25-18.24-13.25c-.94.15-1.46.23-2.4.38-.15-.94-.23-1.47-.38-2.4l-18.24-13.25-18.24-13.25c-.94.15-1.47.23-2.4.38-.15-.94-.23-1.46-.38-2.4l-18.24-13.25-18.24-13.25c-.94.15-1.47.23-2.4.38-.15-.94-.23-1.46-.38-2.4l-18.24-13.25-18.24-13.25c-.94.15-1.46.23-2.4.38-.15-.94-.23-1.46-.38-2.4l-18.24-13.25-18.24-13.25c-.94.15-1.46.23-2.4.38-.15-.94-.23-1.46-.38-2.4l-18.24-13.25-18.24-13.25c-.94.15-1.47.23-2.4.38-.15-.94-.23-1.46-.38-2.4l-18.24-13.25-18.24-13.25c-.94.15-1.47.23-2.4.38-.15-.94-.23-1.46-.38-2.4l-18.24-13.25-18.24-13.25c-.94.15-1.46.23-2.4.38-.15-.94-.23-1.47-.38-2.4l-18.24-13.25-18.24-13.25c-.94.15-1.46.23-2.4.38-.15-.94-.23-1.47-.38-2.4l-18.24-13.25-18.24-13.25c-.94.15-1.47.23-2.4.38-.15-.94-.23-1.47-.38-2.4l-18.24-13.25-18.24-13.25c-.94.15-1.47.23-2.4.38-.15-.94-.23-1.47-.38-2.4l-18.24-13.25-18.24-13.25c-.94.15-1.46.23-2.4.38-.15-.94-.23-1.47-.38-2.4l-33.89-24.62c-.84.06-1.38.11-2.23.17.07-.84.11-1.38.18-2.23l-22.51-30.99c-.82-.19-1.35-.32-2.17-.52.33-.78.53-1.28.85-2.06l-11.84-36.43-1.9-1.16c.55-.65.9-1.06,1.45-1.7v-41.89c-.67-.67-1.05-1.05-1.72-1.72.67-.67,1.05-1.05,1.72-1.72v-45.08c-.67-.67-1.05-1.05-1.72-1.72.67-.67,1.05-1.05,1.72-1.72v-45.09c-.67-.67-1.05-1.05-1.72-1.72.67-.67,1.05-1.05,1.72-1.72v-26.59c-.48-.62-.8-1.04-1.28-1.66.72-.3,1.21-.51,1.94-.8l10.24-17.74c-.1-.77-.17-1.3-.28-2.07.77.1,1.31.17,2.08.27l17.75-10.24c.3-.72.5-1.21.8-1.94.62.48,1.04.8,1.66,1.28h26.59c.67-.67,1.04-1.05,1.72-1.72.67.67,1.05,1.05,1.72,1.72h45.09c.67-.67,1.05-1.05,1.72-1.72.67.67,1.05,1.05,1.72,1.72h45.09c.67-.67,1.05-1.05,1.72-1.72.67.67,1.05,1.05,1.72,1.72h45.09c.67-.67,1.05-1.05,1.72-1.72.67.67,1.05,1.05,1.72,1.72h45.08c.67-.67,1.05-1.05,1.72-1.72.67.67,1.05,1.05,1.72,1.72h45.08c.67-.67,1.05-1.05,1.72-1.72.67.67,1.05,1.05,1.72,1.72h45.08c.67-.67,1.05-1.05,1.72-1.72.67.67,1.04,1.05,1.72,1.72h45.08c.67-.67,1.05-1.05,1.72-1.72V1.72c-.67-.67-1.05-1.05-1.72-1.72h-45.08c-.67.67-1.05,1.05-1.72,1.72-.67-.67-1.05-1.05-1.72-1.72h-45.08c-.67.67-1.05,1.05-1.72,1.72-.67-.67-1.04-1.05-1.72-1.72h-45.08c-.67.67-1.05,1.05-1.72,1.72-.67-.67-1.05-1.05-1.72-1.72h-45.08c-.67.67-1.05,1.05-1.72,1.72-.67-.67-1.05-1.05-1.72-1.72h-45.09c-.67.67-1.05,1.05-1.72,1.72-.67-.67-1.05-1.05-1.72-1.72h-45.09c-.67.67-1.05,1.05-1.72,1.72-.67-.67-1.05-1.05-1.72-1.72h-45.09c-.67.67-1.05,1.05-1.72,1.72-.67-.67-1.05-1.05-1.72-1.72h-32.17c-.69.9-.97,1.27-1.66,2.16-1.04-.43-1.48-.61-2.52-1.04l-27.41,15.82c-.15,1.12-.21,1.58-.35,2.7-1.12.15-1.58.21-2.7.36L1.12,47.41c.43,1.04.61,1.48,1.04,2.52-.9.69-1.27.97-2.16,1.66v32.17l1.72,1.72c-.67.67-1.05,1.05-1.72,1.72v45.09l1.72,1.72c-.67.67-1.05,1.05-1.72,1.72v45.08l1.72,1.72c-.67.67-1.05,1.05-1.72,1.72v45.19c.8.69,1.18,1.01,1.99,1.7-.55.9-.82,1.33-1.37,2.23l13.87,42.7c.98.41,1.44.6,2.42,1-.25,1.02-.36,1.51-.61,2.54l26.39,36.32c1.05.08,1.55.12,2.61.2.08,1.05.12,1.55.2,2.61l36.56,26.56c.94-.15,1.47-.23,2.4-.38.15.94.23,1.46.38,2.4l18.24,13.25,18.24,13.25c.94-.15,1.47-.23,2.4-.38.15.94.23,1.46.38,2.4l18.24,13.25,18.24,13.25c.94-.15,1.46-.23,2.4-.38.15.94.23,1.46.38,2.4l18.24,13.25,18.24,13.25c.94-.15,1.47-.23,2.4-.38.15.94.23,1.46.38,2.4l18.24,13.25,18.24,13.25c.94-.15,1.47-.23,2.4-.38.15.94.23,1.47.38,2.4l18.24,13.25,18.24,13.25c.94-.15,1.47-.23,2.4-.38.15.94.23,1.47.38,2.4l18.24,13.25,18.24,13.25c.94-.15,1.46-.23,2.4-.38.15.94.23,1.47.38,2.4l18.24,13.25,18.24,13.25c.94-.15,1.47-.23,2.4-.38.15.94.23,1.46.38,2.4l18.24,13.25,18.24,13.25c.94-.15,1.47-.23,2.4-.38.15.94.23,1.47.38,2.4l18.24,13.25,18.24,13.25c.94-.15,1.46-.23,2.4-.38.15.94.23,1.47.38,2.4l18.24,13.25,18.24,13.25c.94-.15,1.46-.23,2.4-.38.15.94.23,1.47.38,2.4l18.24,13.25,18.24,13.25c.94-.15,1.47-.23,2.4-.38.15.94.23,1.46.38,2.4l18.24,13.25,18.24,13.25c.94-.15,1.47-.23,2.4-.38.15.94.23,1.46.38,2.4l18.24,13.25,18.24,13.25c.94-.15,1.46-.23,2.4-.38.15.94.23,1.46.38,2.4l18.24,13.25,18.24,13.25c.94-.15,1.47-.23,2.4-.38.15.94.23,1.46.38,2.4l42.89,31.16c.84-.07,1.38-.11,2.22-.17-.06.84-.11,1.38-.17,2.23l29.05,39.98c.46.11.82.2,1.2.29l.97.23c-.32.78-.53,1.28-.85,2.06l15.27,47c.72.44,1.18.73,1.91,1.17-.55.64-.9,1.05-1.45,1.7v49.42c.55.64.9,1.05,1.45,1.69l-1.91,1.17-15.27,47c.33.78.53,1.28.85,2.06l-2.17.52-29.05,39.98.17,2.22c-.84-.06-1.38-.11-2.22-.17l-39.98,29.05c-.1.41-.18.75-.26,1.09l-.26,1.08c-.78-.32-1.29-.53-2.07-.85l-47,15.27c-.44.72-.72,1.18-1.17,1.91l-1.7-1.45h-49.42l-1.7,1.45-1.17-1.91-47-15.27c-.78.32-1.28.53-2.06.85-.2-.82-.32-1.35-.52-2.17l-42.89-31.16c-.94.15-1.46.23-2.4.38-.15-.94-.23-1.47-.38-2.4l-18.24-13.25-18.24-13.25c-.94.15-1.47.23-2.4.38-.15-.94-.23-1.47-.38-2.4l-18.24-13.25-18.24-13.25c-.94.15-1.47.23-2.4.38-.15-.94-.23-1.47-.38-2.4l-18.24-13.25-18.24-13.25c-.94.15-1.46.23-2.4.38-.15-.94-.23-1.47-.38-2.4l-18.24-13.25-18.24-13.25c-.94.15-1.47.23-2.4.38-.15-.94-.23-1.47-.38-2.4l-18.24-13.25-18.24-13.25c-.94.15-1.47.23-2.4.38l-12.24,16.85c.15.94.23,1.47.38,2.4l18.24,13.25,18.24,13.25c.94-.15,1.46-.23,2.4-.38.15.94.23,1.46.38,2.4l18.24,13.25,18.24,13.25c.94-.15,1.47-.23,2.4-.38.15.94.23,1.46.38,2.4l18.24,13.25,18.24,13.25c.94-.15,1.47-.23,2.4-.38.15.94.23,1.46.38,2.4l18.24,13.25,18.24,13.25c.94-.15,1.47-.23,2.4-.38.15.94.23,1.46.38,2.4l18.24,13.25,18.24,13.25c.94-.15,1.47-.23,2.4-.38l.38,2.4,45.56,33.1c1.02-.24,1.51-.36,2.54-.61.4.98.59,1.44,1,2.41l53.27,17.31c.9-.55,1.33-.82,2.23-1.37.69.81,1.01,1.18,1.7,1.99h56.02c.69-.81,1.01-1.18,1.7-1.99l.85.52c.42.26.82.5,1.38.85l53.28-17.31c.4-.98.6-1.44,1-2.41l2.54.61,45.32-32.92c.08-1.05.12-1.55.2-2.61,1.05-.09,1.55-.13,2.61-.21l32.92-45.32c-.24-1.03-.36-1.51-.61-2.54.98-.4,1.44-.6,2.41-1l17.31-53.27c-.55-.9-.82-1.33-1.37-2.23.81-.68,1.18-1.01,1.99-1.7v-56.02Z"/>
</svg>