<svg width="1200" height="1200" viewBox="0 0 1200 1200" fill="none" xmlns="http://www.w3.org/2000/svg">
<g clip-path="url(#clip0_2382_1982)">
<path d="M587.852 659.548L311.156 304.356C263.277 243.346 270.611 176.543 318.015 137.394C365.872 97.8744 431.707 105.515 474.078 172.652C479.925 181.916 485.031 192.109 488.94 201.711L658.188 618.94C666.701 640.145 657.049 663.909 636.779 672.584C619.45 679.999 599.392 674.261 587.852 659.548Z" fill="#50419B"/>
<path d="M620.964 682.593C606.405 682.593 592.068 675.901 582.52 663.732L582.506 663.714L305.811 308.522C281.79 277.913 270.127 244.624 272.093 212.267C273.037 196.745 277.109 181.952 284.203 168.296C291.297 154.632 301.224 142.477 313.705 132.17C338.277 111.877 367.616 103.233 396.318 107.829C412.101 110.355 427.193 116.735 441.178 126.789C455.724 137.245 468.724 151.456 479.817 169.038C485.619 178.228 490.946 188.644 495.225 199.158L664.478 616.396C669.25 628.279 669.281 641.266 664.577 652.987C659.864 664.726 650.945 673.899 639.454 678.815C633.494 681.368 627.213 682.597 620.973 682.597L620.964 682.593ZM593.188 655.368C603.048 667.93 619.875 672.444 634.113 666.353C642.278 662.86 648.627 656.317 651.989 647.935C655.387 639.468 655.355 630.069 651.898 621.465L482.659 204.26C478.678 194.477 473.73 184.798 468.349 176.272C458.191 160.177 446.384 147.231 433.262 137.796C421.003 128.985 407.854 123.404 394.172 121.217C369.369 117.245 343.857 124.85 322.331 142.622C311.26 151.763 302.476 162.504 296.227 174.541C290.014 186.502 286.444 199.475 285.617 213.085C283.855 242.08 294.532 272.192 316.484 300.171L593.184 655.368H593.188Z" fill="black"/>
<path d="M619.251 657.641L202.028 488.384C130.06 459.483 103.008 397.967 124.489 340.36C146.174 282.206 207.007 255.903 277.271 292.86C286.964 297.957 296.484 304.234 304.672 310.596L659.86 587.301C677.835 601.408 681.355 626.816 668.143 644.461C656.846 659.548 636.603 664.605 619.251 657.637V657.641Z" fill="#0080C8"/>
<path d="M635.175 667.51C629.002 667.51 622.744 666.349 616.725 663.931L616.703 663.922L199.479 494.665C163.376 480.165 136.626 457.17 122.148 428.165C115.203 414.252 111.335 399.404 110.648 384.032C109.962 368.651 112.478 353.161 118.136 337.992C129.269 308.133 150.358 285.979 177.51 275.609C192.439 269.906 208.702 267.882 225.841 269.599C243.662 271.379 262.03 277.19 280.425 286.869C290.045 291.93 299.869 298.287 308.829 305.251L664.021 581.96C674.093 589.863 680.618 601.096 682.403 613.599C684.192 626.12 681.052 638.528 673.56 648.527C664.401 660.755 650.041 667.506 635.166 667.506L635.175 667.51ZM621.795 651.361C636.612 657.303 653.439 652.802 662.72 640.408C668.043 633.3 670.271 624.462 668.992 615.519C667.7 606.491 662.973 598.362 655.68 592.642L300.51 315.951C292.174 309.471 283.046 303.561 274.122 298.866C257.276 290.005 240.58 284.695 224.499 283.087C209.479 281.587 195.3 283.331 182.354 288.274C158.889 297.235 140.598 316.579 130.842 342.732C125.826 356.184 123.59 369.875 124.195 383.427C124.796 396.892 128.19 409.91 134.281 422.11C147.253 448.101 171.554 468.841 204.554 482.094L621.791 651.356L621.795 651.361Z" fill="black"/>
<path d="M645.495 640.295L199.543 702.326C122.767 713.283 68.5804 673.529 58.382 612.903C48.0841 551.699 87.6172 498.501 166.95 495.374C177.894 494.945 189.276 495.618 199.547 497.033L645.5 559.073C668.125 562.304 683.872 582.543 681.251 604.435C679.01 623.151 664.008 637.651 645.5 640.29L645.495 640.295Z" fill="#01B2F1"/>
<path d="M174.577 710.929C146.431 710.929 121.082 703.885 100.256 690.112C87.2873 681.536 76.5105 670.61 68.2279 657.641C59.9408 644.664 54.3784 629.992 51.6944 614.028C46.4077 582.601 53.5922 552.873 71.9241 530.312C82.0051 517.909 95.0728 508.026 110.775 500.941C127.101 493.572 145.911 489.423 166.679 488.606C177.537 488.176 189.222 488.773 200.469 490.323L646.431 552.363C659.105 554.17 670.37 560.636 678.169 570.573C685.982 580.523 689.461 592.836 687.979 605.244C685.408 626.712 668.332 643.882 646.453 647.005H646.431L200.478 709.04C191.626 710.306 182.977 710.929 174.582 710.929H174.577ZM173.656 502.026C171.478 502.026 169.327 502.067 167.208 502.152C148.189 502.902 131.072 506.653 116.342 513.3C102.583 519.508 91.1733 528.112 82.4389 538.861C66.6012 558.355 60.4288 584.251 65.0604 611.778C67.4417 625.934 72.3534 638.912 79.6509 650.344C86.9032 661.704 96.3516 671.278 107.729 678.802C131.958 694.825 163.376 700.636 198.58 695.611L644.551 633.58C660.352 631.321 672.675 619.007 674.514 603.631C675.571 594.815 673.081 586.044 667.501 578.941C661.866 571.766 653.71 567.093 644.533 565.783L198.603 503.747C190.343 502.609 181.83 502.021 173.651 502.021L173.656 502.026Z" fill="black"/>
<path d="M659.548 612.148L304.356 888.844C243.346 936.723 176.543 929.389 137.394 881.985C97.8744 834.128 105.515 768.292 172.652 725.922C181.916 720.075 192.109 714.969 201.711 711.06L618.94 541.812C640.145 533.299 663.909 542.951 672.584 563.221C679.999 580.55 674.261 600.608 659.548 612.148Z" fill="#00AFAB"/>
<path d="M219.298 928.124C216.948 928.124 214.603 928.052 212.262 927.911C196.741 926.967 181.947 922.896 168.292 915.802C154.628 908.707 142.473 898.78 132.166 886.3C111.873 861.728 103.229 832.389 107.824 803.686C110.35 787.903 116.73 772.811 126.784 758.826C137.24 744.281 151.456 731.281 169.033 720.188C178.224 714.386 188.639 709.058 199.154 704.779L616.387 535.527C628.271 530.755 641.257 530.723 652.978 535.427C664.717 540.14 673.89 549.06 678.806 560.55C687.315 580.428 681.111 603.834 663.723 617.476L663.705 617.489L308.513 894.185C280.118 916.466 249.414 928.115 219.289 928.115L219.298 928.124ZM634.868 545.49C630.345 545.49 625.803 546.362 621.461 548.106L204.256 717.345C194.473 721.326 184.794 726.274 176.267 731.656C160.172 741.814 147.226 753.621 137.792 766.743C128.98 779.001 123.4 792.151 121.213 805.833C117.241 830.635 124.846 856.147 142.622 877.674C151.763 888.744 162.504 897.528 174.541 903.778C186.502 909.991 199.475 913.56 213.085 914.387C242.081 916.145 272.192 905.472 300.172 883.521L655.369 606.821C667.93 596.961 672.444 580.134 666.353 565.896C662.86 557.731 656.317 551.382 647.935 548.02C643.738 546.335 639.314 545.494 634.872 545.494L634.868 545.49Z" fill="black"/>
<path d="M657.641 580.749L488.384 997.972C459.483 1069.94 397.967 1096.99 340.36 1075.51C282.206 1053.83 255.903 992.993 292.86 922.729C297.957 913.036 304.234 903.516 310.596 895.328L587.301 540.14C601.408 522.165 626.816 518.645 644.461 531.858C659.548 543.154 664.605 563.397 657.637 580.749H657.641Z" fill="#00AA5B"/>
<path d="M379.08 1089.46C365.33 1089.46 351.539 1086.91 337.997 1081.86C308.138 1070.73 285.983 1049.64 275.613 1022.49C269.911 1007.56 267.886 991.298 269.603 974.159C271.384 956.338 277.194 937.97 286.873 919.575C291.934 909.955 298.292 900.131 305.255 891.171L581.964 535.978C589.867 525.907 601.1 519.382 613.603 517.597C626.124 515.807 638.532 518.948 648.532 526.44C665.838 539.399 672.169 562.774 663.936 583.279L663.927 583.302L494.67 1000.53C480.174 1036.63 457.174 1063.38 428.169 1077.86C414.257 1084.8 399.409 1088.67 384.036 1089.36C382.387 1089.43 380.733 1089.46 379.084 1089.46L379.08 1089.46ZM620.44 530.66C618.809 530.66 617.168 530.778 615.519 531.013C606.486 532.305 598.362 537.031 592.637 544.324L315.946 899.494C309.466 907.831 303.556 916.959 298.861 925.883C290 942.728 284.691 959.424 283.082 975.506C281.582 990.526 283.326 1004.7 288.27 1017.65C297.23 1041.12 316.569 1059.41 342.728 1069.16C356.179 1074.18 369.871 1076.41 383.422 1075.81C396.887 1075.21 409.905 1071.81 422.106 1065.72C448.096 1052.75 468.837 1028.45 482.09 995.451L651.351 578.214C657.293 563.397 652.793 546.575 640.398 537.289C634.601 532.946 627.652 530.665 620.431 530.665L620.44 530.66Z" fill="black"/>
<path d="M640.295 554.505L702.326 1000.46C713.283 1077.23 673.529 1131.42 612.903 1141.62C551.699 1151.92 498.501 1112.38 495.374 1033.05C494.945 1022.11 495.618 1010.72 497.033 1000.45L559.073 554.5C562.304 531.876 582.543 516.128 604.435 518.749C623.151 520.99 637.651 535.992 640.29 554.5L640.295 554.505Z" fill="#98D147"/>
<path d="M594.101 1150C570.184 1150 548.034 1142.48 530.312 1128.08C517.909 1118 508.026 1104.93 500.941 1089.23C493.572 1072.9 489.423 1054.09 488.606 1033.32C488.176 1022.46 488.773 1010.78 490.323 999.531L552.363 553.569C554.17 540.895 560.636 529.63 570.573 521.831C580.523 514.018 592.836 510.539 605.244 512.021C626.712 514.592 643.882 531.668 647.005 553.547V553.569L709.04 999.522C714.539 1038.04 707.992 1072.7 690.112 1099.74C681.536 1112.71 670.61 1123.49 657.641 1131.77C644.664 1140.05 629.992 1145.62 614.028 1148.3C607.291 1149.44 600.63 1150 594.101 1150V1150ZM599.668 525.247C592.221 525.247 584.983 527.755 578.946 532.495C571.77 538.129 567.098 546.285 565.788 555.463L503.752 1001.39C502.306 1011.85 501.755 1022.71 502.152 1032.79C502.902 1051.81 506.653 1068.92 513.3 1083.65C519.508 1097.41 528.112 1108.82 538.861 1117.56C558.355 1133.39 584.251 1139.57 611.778 1134.94C625.934 1132.55 638.912 1127.64 650.344 1120.34C661.704 1113.09 671.278 1103.64 678.802 1092.27C694.825 1068.04 700.636 1036.62 695.611 1001.42L633.58 555.445C631.321 539.643 619.007 527.321 603.631 525.482C602.307 525.324 600.978 525.242 599.663 525.242L599.668 525.247Z" fill="black"/>
<path d="M612.148 540.452L888.844 895.644C936.723 956.654 929.389 1023.46 881.985 1062.61C834.128 1102.13 768.292 1094.48 725.922 1027.35C720.075 1018.08 714.969 1007.89 711.06 998.289L541.812 581.061C533.299 559.855 542.951 536.092 563.221 527.416C580.55 520.001 600.608 525.74 612.148 540.452Z" fill="#FFF402"/>
<path d="M818.819 1093.38C813.777 1093.38 808.72 1092.98 803.687 1092.17C787.903 1089.65 772.811 1083.27 758.826 1073.21C744.281 1062.76 731.281 1048.54 720.188 1030.96C714.386 1021.77 709.058 1011.36 704.779 1000.84L535.527 583.609C530.755 571.725 530.723 558.739 535.427 547.017C540.14 535.278 549.06 526.105 560.55 521.189C580.428 512.681 603.834 518.885 617.476 536.272L617.489 536.29L894.185 891.483C918.206 922.092 929.868 955.38 927.902 987.738C926.958 1003.26 922.887 1018.05 915.793 1031.71C908.698 1045.37 898.771 1057.53 886.291 1067.83C866.029 1084.57 842.524 1093.38 818.81 1093.38H818.819ZM579.05 530.963C574.599 530.963 570.13 531.835 565.887 533.651C557.722 537.144 551.373 543.687 548.011 552.069C544.613 560.537 544.645 569.936 548.102 578.539L717.341 995.745C721.322 1005.53 726.27 1015.21 731.651 1023.73C741.809 1039.83 753.616 1052.77 766.738 1062.21C778.997 1071.02 792.146 1076.6 805.828 1078.79C830.631 1082.76 856.143 1075.15 877.669 1057.38C888.74 1048.24 897.524 1037.5 903.773 1025.46C909.986 1013.5 913.556 1000.53 914.383 986.915C916.145 957.92 905.468 927.808 883.516 899.829L606.816 544.632C599.894 535.811 589.537 530.958 579.054 530.958L579.05 530.963Z" fill="black"/>
<path d="M580.749 542.359L997.972 711.616C1069.94 740.517 1096.99 802.033 1075.51 859.64C1053.83 917.794 992.993 944.097 922.729 907.14C913.036 902.043 903.516 895.766 895.328 889.404L540.14 612.7C522.165 598.592 518.645 573.184 531.858 555.539C543.154 540.452 563.397 535.396 580.749 542.363V542.359Z" fill="#FFC828"/>
<path d="M985.822 930.993C981.981 930.993 978.09 930.794 974.155 930.401C956.333 928.621 937.965 922.81 919.57 913.131C909.95 908.071 900.131 901.717 891.166 894.75L535.974 618.041C525.902 610.138 519.377 598.904 517.592 586.401C515.803 573.88 518.943 561.472 526.435 551.473C539.394 534.167 562.769 527.836 583.274 536.069L583.297 536.078L1000.52 705.335C1036.62 719.831 1063.37 742.83 1077.85 771.835C1084.8 785.748 1088.66 800.596 1089.35 815.968C1090.04 831.349 1087.52 846.839 1081.86 862.008C1070.73 891.867 1049.64 914.021 1022.49 924.392C1010.99 928.784 998.7 930.993 985.826 930.993H985.822ZM564.811 546.041C554.116 546.041 543.827 550.858 537.284 559.593C531.961 566.7 529.734 575.539 531.012 584.481C532.305 593.514 537.031 601.638 544.324 607.363L899.494 884.054C907.831 890.534 916.958 896.444 925.883 901.139C942.728 910 959.424 915.309 975.506 916.918C990.526 918.423 1004.7 916.674 1017.65 911.731C1041.12 902.77 1059.41 883.431 1069.16 857.273C1074.18 843.821 1076.41 830.129 1075.81 816.578C1075.21 803.113 1071.81 790.095 1065.72 777.895C1052.75 751.904 1028.45 731.163 995.451 717.91L578.214 548.649C573.84 546.895 569.294 546.05 564.816 546.05L564.811 546.041Z" fill="black"/>
<path d="M554.504 559.705L1000.46 497.674C1077.23 486.717 1131.42 526.471 1141.62 587.097C1151.92 648.301 1112.38 701.499 1033.05 704.625C1022.11 705.055 1010.72 704.381 1000.45 702.967L554.5 640.927C531.875 637.696 516.128 617.457 518.749 595.565C520.99 576.849 535.992 562.349 554.5 559.71L554.504 559.705Z" fill="#FF9230"/>
<path d="M1026.36 711.534C1017.56 711.534 1008.41 710.906 999.536 709.682L553.574 647.642C540.899 645.834 529.634 639.368 521.835 629.432C514.023 619.482 510.543 607.169 512.025 594.761C514.596 573.293 531.672 556.122 553.551 553H553.574L999.527 490.964C1038.04 485.47 1072.71 492.012 1099.74 509.893C1112.71 518.469 1123.49 529.395 1131.77 542.363C1140.06 555.34 1145.62 570.012 1148.31 585.976C1153.59 617.403 1146.41 647.131 1128.08 669.692C1117.99 682.096 1104.93 691.978 1089.22 699.063C1072.9 706.433 1054.09 710.581 1033.32 711.399C1031.03 711.489 1028.71 711.534 1026.36 711.534H1026.36ZM555.449 566.42C539.647 568.679 527.325 580.992 525.486 596.369C524.429 605.185 526.919 613.956 532.499 621.059C538.134 628.234 546.29 632.907 555.467 634.217L1001.4 696.253C1011.86 697.698 1022.72 698.25 1032.79 697.852C1051.81 697.102 1068.93 693.352 1083.66 686.705C1097.42 680.496 1108.83 671.893 1117.56 661.139C1133.4 641.645 1139.57 615.749 1134.94 588.222C1132.56 574.065 1127.65 561.088 1120.35 549.656C1113.1 538.296 1103.65 528.721 1092.27 521.198C1068.04 505.175 1036.62 499.364 1001.42 504.389L555.449 566.42Z" fill="black"/>
<path d="M540.456 587.852L895.649 311.156C956.659 263.277 1023.46 270.611 1062.61 318.015C1102.13 365.872 1094.49 431.707 1027.35 474.078C1018.09 479.925 1007.9 485.031 998.293 488.94L581.065 658.188C559.859 666.701 536.096 657.049 527.42 636.779C520.005 619.45 525.744 599.392 540.456 587.852Z" fill="#FE572D"/>
<path d="M565.128 668.07C558.974 668.07 552.842 666.904 547.022 664.568C535.283 659.855 526.11 650.936 521.194 639.445C512.685 619.568 518.889 596.161 536.277 582.52L536.295 582.506L891.487 305.811C922.096 281.79 955.385 270.127 987.742 272.093C1003.26 273.037 1018.06 277.109 1031.71 284.203C1045.38 291.297 1057.53 301.224 1067.84 313.705C1088.13 338.277 1096.78 367.616 1092.18 396.318C1089.65 412.101 1083.27 427.193 1073.22 441.178C1062.76 455.724 1048.55 468.724 1030.97 479.817C1021.78 485.619 1011.37 490.946 1000.85 495.225L583.613 664.478C577.631 666.882 571.368 668.079 565.128 668.079V668.07ZM544.636 593.188C532.074 603.048 527.56 619.875 533.651 634.113C537.144 642.278 543.687 648.627 552.069 651.989C560.537 655.387 569.936 655.355 578.539 651.898L995.745 482.659C1005.53 478.678 1015.21 473.73 1023.73 468.349C1039.83 458.191 1052.77 446.384 1062.21 433.262C1071.02 421.003 1076.6 407.854 1078.79 394.172C1082.76 369.369 1075.15 343.857 1057.38 322.331C1048.24 311.26 1037.5 302.476 1025.46 296.227C1013.5 290.014 1000.53 286.444 986.915 285.617C957.924 283.855 927.808 294.528 899.829 316.484L544.632 593.184L544.636 593.188Z" fill="black"/>
<path d="M542.359 619.251L711.616 202.028C740.517 130.06 802.033 103.008 859.64 124.489C917.794 146.174 944.097 207.007 907.14 277.271C902.043 286.964 895.766 296.484 889.404 304.672L612.7 659.86C598.592 677.835 573.184 681.355 555.539 668.143C540.452 656.846 535.396 636.603 542.363 619.251H542.359Z" fill="#FF4E9B"/>
<path d="M579.533 682.9C569.407 682.9 559.638 679.683 551.468 673.569C534.162 660.61 527.831 637.235 536.064 616.73L536.073 616.708L705.33 199.484C719.831 163.38 742.826 136.63 771.83 122.153C785.743 115.208 800.591 111.34 815.964 110.653C831.345 109.966 846.835 112.483 862.003 118.14C891.862 129.274 914.017 150.362 924.387 177.515C930.089 192.444 932.114 208.706 930.397 225.845C928.616 243.667 922.806 262.035 913.127 280.43C908.066 290.05 901.708 299.869 894.745 308.834L618.036 664.026C610.133 674.098 598.9 680.623 586.397 682.408C584.101 682.738 581.806 682.9 579.529 682.9H579.533ZM548.639 621.795C542.698 636.612 547.198 653.435 559.593 662.72C566.7 668.043 575.539 670.271 584.481 668.992C593.509 667.7 601.638 662.973 607.363 655.68L884.054 300.51C890.534 292.174 896.444 283.046 901.139 274.122C910 257.277 915.309 240.58 916.918 224.499C918.418 209.479 916.674 195.3 911.73 182.354C902.77 158.889 883.426 140.598 857.272 130.842C843.821 125.826 830.129 123.59 816.578 124.195C803.113 124.796 790.095 128.19 777.894 134.281C751.904 147.254 731.163 171.555 717.91 204.554L548.649 621.791L548.639 621.795Z" fill="black"/>
<path d="M559.705 645.496L497.674 199.543C486.717 122.768 526.471 68.5807 587.097 58.3822C648.301 48.0844 701.499 87.6175 704.625 166.95C705.055 177.894 704.381 189.277 702.967 199.547L640.927 645.5C637.696 668.125 617.457 683.872 595.565 681.251C576.849 679.01 562.349 664.008 559.71 645.5L559.705 645.496Z" fill="#BF479A"/>
<path d="M600.364 688.314C598.502 688.314 596.631 688.201 594.756 687.979C573.288 685.408 556.118 668.332 552.995 646.453V646.431L490.96 200.478C485.461 161.962 492.008 127.3 509.888 100.26C518.464 87.2919 529.39 76.5151 542.359 68.2325C555.336 59.9455 570.008 54.3831 585.972 51.699C617.399 46.4123 647.127 53.5968 669.688 71.9287C682.091 82.0097 691.973 95.0775 699.059 110.78C706.428 127.105 710.576 145.916 711.394 166.684C711.824 177.542 711.227 189.227 709.677 200.473L647.637 646.435C645.83 659.11 639.364 670.375 629.427 678.174C620.982 684.807 610.829 688.318 600.364 688.318V688.314ZM566.42 644.551C568.679 660.353 580.992 672.675 596.369 674.514C605.185 675.571 613.956 673.081 621.059 667.501C628.234 661.866 632.907 653.71 634.217 644.533L696.253 198.603C697.698 188.142 698.25 177.284 697.852 167.208C697.102 148.189 693.352 131.073 686.705 116.342C680.496 102.583 671.893 91.1734 661.143 82.439C641.65 66.6013 615.754 60.4289 588.227 65.0605C574.07 67.4418 561.093 72.3535 549.661 79.651C538.301 86.9033 528.726 96.3517 521.203 107.73C505.18 131.958 499.369 163.376 504.393 198.58L566.425 644.551H566.42Z" fill="black"/>
<path d="M600.002 460.654C659.295 460.654 670.347 407.113 670.347 388.067C670.347 333.713 705.321 288.062 779.512 288.062C900.917 288.062 915.201 460.825 917.582 599.998C917.582 892.798 600.002 882.003 600.002 882.003C600.002 882.003 282.422 892.798 282.422 599.998C284.804 460.825 299.087 288.062 420.492 288.062C494.687 288.062 529.657 333.709 529.657 388.067C529.657 407.113 540.709 460.654 600.002 460.654Z" fill="white"/>
<path d="M604.579 888.839C602.162 888.839 600.603 888.803 600.002 888.785C596.478 888.889 560.193 889.653 512.477 879.829C483.567 873.874 456.496 865.239 432.015 854.164C401.27 840.251 374.538 822.43 352.56 801.188C301.522 751.854 275.645 684.165 275.645 600.007C275.645 599.966 275.645 599.93 275.645 599.889C276.11 572.669 277.19 531.857 281.18 491.877C285.224 451.386 291.496 417.998 300.352 389.811C310.876 356.329 325.308 330.297 343.247 312.43C364.001 291.767 389.987 281.288 420.488 281.288C457.075 281.288 487.232 292.223 507.71 312.918C517.208 322.516 524.497 334.034 529.381 347.151C534.058 359.717 536.43 373.486 536.43 388.072C536.43 397.94 539.534 414.27 548.282 427.831C559.439 445.114 576.835 453.88 599.993 453.88C623.151 453.88 640.552 445.114 651.704 427.831C660.452 414.275 663.556 397.94 663.556 388.072C663.556 373.486 665.928 359.717 670.605 347.151C675.485 334.034 682.778 322.516 692.276 312.918C712.754 292.228 742.916 281.288 779.498 281.288C809.999 281.288 835.985 291.767 856.739 312.43C874.678 330.292 889.11 356.329 899.634 389.811C908.495 417.998 914.767 451.381 918.806 491.877C922.796 531.857 923.876 572.669 924.342 599.889C924.342 599.93 924.342 599.966 924.342 600.007C924.342 684.17 898.464 751.858 847.426 801.188C825.448 822.43 798.716 840.256 767.972 854.164C743.49 865.243 716.414 873.878 687.509 879.829C647.958 887.972 616.26 888.839 604.566 888.839H604.579ZM600.002 875.225C600.079 875.225 600.156 875.225 600.233 875.225C600.599 875.238 637.497 876.332 685.173 866.468C713.057 860.698 739.125 852.365 762.649 841.692C791.897 828.43 817.278 811.499 838.086 791.369C886.327 744.705 910.795 680.338 910.804 600.056C908.726 478.606 896.837 426.077 886.715 393.869C865.767 327.229 830.703 294.835 779.512 294.835C746.626 294.835 719.799 304.383 701.923 322.444C685.697 338.837 677.125 361.529 677.125 388.063C677.125 400.335 673.443 419.155 663.104 435.173C653.611 449.886 634.953 467.427 600.002 467.427C565.051 467.427 546.398 449.886 536.9 435.173C526.562 419.155 522.879 400.335 522.879 388.063C522.879 361.529 514.303 338.842 498.081 322.444C480.205 304.383 453.379 294.835 420.492 294.835C369.301 294.835 334.233 327.229 313.289 393.869C294.022 455.168 290.294 536.25 289.2 600.056C289.214 680.338 313.677 744.705 361.918 791.373C382.726 811.504 408.107 828.435 437.356 841.697C460.884 852.365 486.947 860.702 514.831 866.472C562.507 876.336 599.406 875.243 599.772 875.229C599.849 875.229 599.925 875.229 599.998 875.229L600.002 875.225Z" fill="black"/>
<path d="M600.002 600.002C457.391 600.002 446.678 621.935 446.678 621.935C446.678 621.935 457.152 688.268 512.021 735.275C562.589 778.595 637.412 778.595 687.979 735.275C742.848 688.268 753.323 621.935 753.323 621.935C753.323 621.935 742.609 600.002 599.998 600.002H600.002Z" fill="#FE71AD"/>
<path d="M600.002 774.542C566.108 774.542 533.299 762.423 507.615 740.422C478.267 715.28 461.462 684.775 452.534 663.61C442.846 640.651 440.099 623.698 439.99 622.988L439.656 620.878L440.596 618.958C443.546 612.921 463.753 593.224 600.007 593.224C736.26 593.224 756.472 612.921 759.423 618.958L760.362 620.878L760.028 622.988C759.915 623.698 757.168 640.651 747.484 663.61C738.556 684.775 721.747 715.28 692.403 740.422C666.719 762.423 633.91 774.542 600.016 774.542H600.002ZM454.052 624.33C455.317 630.209 458.53 643.051 465.181 658.726C473.541 678.431 489.22 706.813 516.431 730.124C539.661 750.024 569.339 760.981 600.002 760.981C630.665 760.981 660.343 750.024 683.574 730.124C710.784 706.813 726.464 678.431 734.823 658.726C741.47 643.06 744.683 630.223 745.953 624.339C743.156 622.527 736.459 619.179 721.869 615.921C694.739 609.857 653.737 606.78 600.002 606.78C559.746 606.78 504.796 608.642 471.611 617.516C461.851 620.128 456.768 622.604 454.219 624.226C454.16 624.263 454.106 624.299 454.052 624.335V624.33ZM462.325 607.819L453.374 620.874C453.379 620.905 453.505 621.678 453.79 623.079L462.325 607.819Z" fill="#3656A5"/>
<path d="M697.745 564.143C710.466 561.234 717.185 543.16 712.752 523.774C708.319 504.387 694.413 491.029 681.692 493.938C668.971 496.847 662.253 514.921 666.686 534.307C671.119 553.694 685.025 567.052 697.745 564.143Z" fill="#5DBF6A"/>
<path d="M687.795 526.962C692.634 525.856 695.19 518.981 693.504 511.608C691.818 504.234 686.528 499.153 681.69 500.26C676.851 501.366 674.295 508.241 675.981 515.614C677.667 522.988 682.957 528.069 687.795 526.962Z" fill="#FBA6CE"/>
<path d="M708.452 548.925C708.986 544.307 706.963 540.279 703.933 539.929C700.904 539.579 698.016 543.04 697.482 547.658C696.948 552.276 698.972 556.304 702.001 556.654C705.031 557.004 707.919 553.544 708.452 548.925Z" fill="#FFFF1C"/>
<path d="M533.286 534.247C537.719 514.86 531.001 496.786 518.28 493.877C505.559 490.968 491.653 504.326 487.22 523.713C482.787 543.1 489.506 561.174 502.227 564.083C514.947 566.991 528.853 553.633 533.286 534.247Z" fill="#DF2717"/>
<path d="M523.991 515.555C525.677 508.182 523.121 501.307 518.282 500.201C513.444 499.094 508.154 504.175 506.468 511.549C504.782 518.922 507.338 525.797 512.177 526.903C517.015 528.01 522.305 522.929 523.991 515.555Z" fill="#FBA6CE"/>
<path d="M497.966 556.695C500.995 556.345 503.018 552.317 502.485 547.698C501.951 543.08 499.063 539.62 496.033 539.97C493.004 540.32 490.981 544.347 491.514 548.966C492.048 553.584 494.936 557.045 497.966 556.695Z" fill="#FFFF1C"/>
</g>
<defs>
<clipPath id="clip0_2382_1982">
<rect width="1100" height="1100" fill="white" transform="translate(50 50)"/>
</clipPath>
</defs>
</svg>
