<?xml version="1.0" encoding="UTF-8"?>
<svg id="Layer_1" data-name="Layer 1" xmlns="http://www.w3.org/2000/svg" viewBox="0 0 120 100">
  <defs>
    <style>
      .cls-1 {
        fill: #fff;
      }

      .cls-2 {
        fill: #42caf4;
      }

      .cls-3 {
        fill: #0076a5;
      }

      .cls-4 {
        opacity: .6;
      }

      .cls-5 {
        fill: #0092cc;
      }

      .cls-6 {
        fill: #88e9ff;
      }

      .cls-7 {
        fill: #dcfaff;
      }

      .cls-8 {
        fill: #0fb4f4;
      }
    </style>
  </defs>
  <polygon class="cls-1" points="89 89 89 87 85 87 85 85 83 85 83 83 81 83 81 79 79 79 79 71 81 71 81 67 83 67 83 65 85 65 85 63 89 63 89 61 97 61 97 63 101 63 101 65 103 65 103 67 105 67 105 71 107 71 107 79 105 79 105 83 103 83 103 85 101 85 101 87 97 87 97 89 89 89"/>
  <g>
    <polygon class="cls-1" points="73 35 73 33 71 33 71 31 69 31 69 27 67 27 67 25 65 25 65 23 63 23 63 21 61 21 61 19 59 19 59 19 57 19 57 17 55 17 55 15 53 15 53 15 39 15 39 17 35 17 35 19 33 19 33 21 31 21 31 23 27 23 27 25 25 25 25 27 23 27 23 31 21 31 21 35 19 35 19 37 17 37 17 51 19 51 19 53 21 53 21 57 23 57 23 61 25 61 25 63 27 63 27 65 31 65 31 67 33 67 33 69 35 69 35 71 39 71 39 73 55 73 55 71 57 71 57 69 59 69 59 67 63 67 63 65 65 65 65 63 67 63 67 61 69 61 69 57 71 57 71 55 73 55 73 51 75 51 75 39 75 37 75 35 73 35"/>
    <polygon class="cls-7" points="40 72 40 70 36 70 36 68 34 68 34 66 32 66 32 64 28 64 28 62 26 62 26 60 24 60 24 56 22 56 22 52 20 52 20 50 18 50 18 38 20 38 20 36 22 36 22 32 24 32 24 28 26 28 26 26 28 26 28 24 32 24 32 22 34 22 34 20 36 20 36 18 40 18 40 16 52 16 52 18 56 18 56 20 58 20 58 22 60 22 60 24 64 24 64 26 66 26 66 28 68 28 68 32 70 32 70 34 72 34 72 36 74 36 74 50 72 50 72 54 70 54 70 56 68 56 68 60 66 60 66 62 64 62 64 64 62 64 62 66 58 66 58 68 56 68 56 70 54 70 54 72 40 72"/>
    <g>
      <g>
        <g>
          <rect class="cls-2" x="40" y="16" width="2" height="2"/>
          <rect class="cls-2" x="42" y="16" width="2" height="2"/>
          <rect class="cls-2" x="44" y="16" width="2" height="2"/>
          <rect class="cls-2" x="46" y="16" width="2" height="2"/>
          <rect class="cls-2" x="48" y="16" width="2" height="2"/>
          <rect class="cls-2" x="50" y="16" width="2" height="2"/>
          <rect class="cls-6" x="36" y="18" width="2" height="2"/>
          <rect class="cls-2" x="38" y="18" width="2" height="2"/>
          <rect class="cls-2" x="34" y="20" width="2" height="2"/>
          <rect class="cls-2" x="36" y="20" width="2" height="2"/>
          <rect class="cls-6" x="32" y="22" width="2" height="2"/>
          <rect class="cls-2" x="28" y="24" width="2" height="2"/>
          <rect class="cls-2" x="30" y="24" width="2" height="2"/>
          <rect class="cls-6" x="26" y="26" width="2" height="2"/>
          <rect class="cls-2" x="24" y="28" width="2" height="2"/>
          <rect class="cls-2" x="24" y="30" width="2" height="2"/>
          <rect class="cls-2" x="22" y="32" width="2" height="2"/>
          <rect class="cls-8" x="22" y="34" width="2" height="2"/>
          <rect class="cls-2" x="20" y="36" width="2" height="2"/>
          <rect class="cls-8" x="18" y="38" width="2" height="2"/>
          <rect class="cls-2" x="18" y="40" width="2" height="2"/>
          <rect class="cls-2" x="18" y="42" width="2" height="2"/>
        </g>
        <g>
          <rect class="cls-8" x="50" y="16" width="2" height="2"/>
          <rect class="cls-2" x="48" y="16" width="2" height="2"/>
          <rect class="cls-8" x="46" y="16" width="2" height="2"/>
          <rect class="cls-2" x="44" y="16" width="2" height="2"/>
          <rect class="cls-2" x="42" y="16" width="2" height="2"/>
          <rect class="cls-2" x="40" y="16" width="2" height="2"/>
          <rect class="cls-8" x="54" y="18" width="2" height="2" transform="translate(110 38) rotate(-180)"/>
          <rect class="cls-2" x="52" y="18" width="2" height="2"/>
          <rect class="cls-2" x="56" y="20" width="2" height="2"/>
          <rect class="cls-2" x="54" y="20" width="2" height="2"/>
          <rect class="cls-2" x="58" y="22" width="2" height="2"/>
          <rect class="cls-2" x="62" y="24" width="2" height="2"/>
          <rect class="cls-2" x="60" y="24" width="2" height="2"/>
          <rect class="cls-2" x="64" y="26" width="2" height="2"/>
          <rect class="cls-2" x="66" y="28" width="2" height="2"/>
          <rect class="cls-2" x="66" y="30" width="2" height="2"/>
          <rect class="cls-2" x="68" y="32" width="2" height="2"/>
          <rect class="cls-2" x="70" y="34" width="2" height="2"/>
          <rect class="cls-2" x="68" y="34" width="2" height="2"/>
          <rect class="cls-2" x="70" y="36" width="2" height="2"/>
          <rect class="cls-2" x="72" y="38" width="2" height="2"/>
          <rect class="cls-2" x="72" y="40" width="2" height="2"/>
          <rect class="cls-8" x="72" y="42" width="2" height="2"/>
        </g>
      </g>
      <g>
        <g>
          <rect class="cls-2" x="40" y="70" width="2" height="2"/>
          <rect class="cls-2" x="42" y="70" width="2" height="2"/>
          <rect class="cls-2" x="44" y="70" width="2" height="2"/>
          <rect class="cls-2" x="46" y="70" width="2" height="2"/>
          <rect class="cls-2" x="48" y="70" width="2" height="2"/>
          <rect class="cls-2" x="50" y="70" width="2" height="2"/>
          <rect class="cls-2" x="36" y="68" width="2" height="2"/>
          <rect class="cls-2" x="38" y="68" width="2" height="2"/>
          <rect class="cls-2" x="34" y="66" width="2" height="2"/>
          <rect class="cls-2" x="36" y="66" width="2" height="2"/>
          <rect class="cls-2" x="32" y="64" width="2" height="2"/>
          <rect class="cls-2" x="28" y="62" width="2" height="2"/>
          <rect class="cls-2" x="30" y="62" width="2" height="2"/>
          <rect class="cls-2" x="26" y="60" width="2" height="2"/>
          <rect class="cls-2" x="24" y="58" width="2" height="2"/>
          <rect class="cls-2" x="24" y="56" width="2" height="2"/>
          <rect class="cls-2" x="22" y="54" width="2" height="2"/>
          <rect class="cls-2" x="22" y="52" width="2" height="2"/>
          <rect class="cls-2" x="20" y="50" width="2" height="2"/>
          <rect class="cls-2" x="18" y="48" width="2" height="2"/>
          <rect class="cls-2" x="18" y="46" width="2" height="2"/>
          <rect class="cls-2" x="18" y="44" width="2" height="2"/>
        </g>
        <g>
          <rect class="cls-8" x="50" y="70" width="2" height="2"/>
          <rect class="cls-5" x="48" y="70" width="2" height="2"/>
          <rect class="cls-8" x="46" y="70" width="2" height="2"/>
          <rect class="cls-8" x="44" y="70" width="2" height="2"/>
          <rect class="cls-2" x="42" y="70" width="2" height="2"/>
          <rect class="cls-2" x="40" y="70" width="2" height="2"/>
          <rect class="cls-8" x="54" y="68" width="2" height="2" transform="translate(110 138) rotate(180)"/>
          <rect class="cls-5" x="52" y="68" width="2" height="2"/>
          <rect class="cls-8" x="56" y="66" width="2" height="2"/>
          <rect class="cls-8" x="54" y="66" width="2" height="2"/>
          <rect class="cls-5" x="58" y="64" width="2" height="2"/>
          <rect class="cls-8" x="62" y="62" width="2" height="2"/>
          <rect class="cls-5" x="60" y="62" width="2" height="2"/>
          <rect class="cls-8" x="64" y="60" width="2" height="2"/>
          <rect class="cls-5" x="66" y="58" width="2" height="2"/>
          <rect class="cls-8" x="66" y="56" width="2" height="2"/>
          <rect class="cls-8" x="68" y="54" width="2" height="2"/>
          <rect class="cls-8" x="68" y="52" width="2" height="2"/>
          <rect class="cls-8" x="70" y="50" width="2" height="2"/>
          <rect class="cls-8" x="70" y="52" width="2" height="2"/>
          <rect class="cls-8" x="72" y="48" width="2" height="2"/>
          <rect class="cls-2" x="72" y="46" width="2" height="2"/>
          <rect class="cls-2" x="72" y="44" width="2" height="2"/>
        </g>
      </g>
      <g class="cls-4">
        <rect class="cls-6" x="40" y="18" width="2" height="2"/>
        <rect class="cls-6" x="42" y="18" width="2" height="2"/>
        <rect class="cls-6" x="44" y="18" width="2" height="2"/>
        <rect class="cls-6" x="46" y="18" width="2" height="2"/>
        <rect class="cls-6" x="48" y="18" width="2" height="2"/>
        <rect class="cls-6" x="50" y="18" width="2" height="2"/>
        <rect class="cls-6" x="38" y="20" width="2" height="2"/>
        <rect class="cls-6" x="34" y="22" width="2" height="2"/>
        <rect class="cls-6" x="36" y="22" width="2" height="2"/>
        <rect class="cls-6" x="32" y="24" width="2" height="2"/>
        <rect class="cls-6" x="28" y="26" width="2" height="2"/>
        <rect class="cls-6" x="30" y="26" width="2" height="2"/>
        <rect class="cls-6" x="26" y="28" width="2" height="2"/>
        <rect class="cls-1" x="24" y="32" width="2" height="2"/>
        <rect class="cls-6" x="22" y="36" width="2" height="2"/>
        <rect class="cls-6" x="20" y="38" width="2" height="2"/>
        <rect class="cls-6" x="20" y="40" width="2" height="2"/>
        <rect class="cls-6" x="20" y="42" width="2" height="2"/>
        <rect class="cls-6" x="22" y="50" width="2" height="2"/>
        <rect class="cls-6" x="30" y="52" width="2" height="2"/>
        <rect class="cls-6" x="54" y="52" width="2" height="2"/>
        <rect class="cls-6" x="24" y="54" width="2" height="2"/>
        <rect class="cls-6" x="60" y="30" width="2" height="2"/>
        <rect class="cls-6" x="68" y="36" width="2" height="2"/>
        <rect class="cls-6" x="72" y="36" width="2" height="2"/>
        <rect class="cls-6" x="58" y="38" width="2" height="2"/>
        <rect class="cls-6" x="68" y="38" width="2" height="2"/>
        <rect class="cls-6" x="70" y="38" width="2" height="2"/>
        <rect class="cls-6" x="66" y="40" width="2" height="2"/>
        <rect class="cls-6" x="68" y="40" width="2" height="2"/>
        <rect class="cls-6" x="70" y="40" width="2" height="2"/>
        <rect class="cls-1" x="66" y="42" width="2" height="2"/>
        <rect class="cls-6" x="68" y="42" width="2" height="2"/>
        <rect class="cls-6" x="70" y="42" width="2" height="2"/>
        <rect class="cls-6" x="68" y="44" width="2" height="2"/>
        <rect class="cls-8" x="70" y="44" width="2" height="2"/>
        <rect class="cls-6" x="62" y="46" width="2" height="2"/>
        <rect class="cls-6" x="66" y="46" width="2" height="2"/>
        <rect class="cls-6" x="68" y="46" width="2" height="2"/>
        <rect class="cls-6" x="70" y="46" width="2" height="2"/>
        <rect class="cls-8" x="64" y="48" width="2" height="2"/>
        <rect class="cls-6" x="66" y="48" width="2" height="2"/>
        <rect class="cls-6" x="68" y="48" width="2" height="2"/>
        <rect class="cls-6" x="70" y="48" width="2" height="2"/>
        <rect class="cls-6" x="62" y="50" width="2" height="2"/>
        <rect class="cls-6" x="64" y="50" width="2" height="2"/>
        <rect class="cls-6" x="66" y="50" width="2" height="2"/>
        <rect class="cls-6" x="68" y="50" width="2" height="2"/>
        <rect class="cls-8" x="60" y="52" width="2" height="2"/>
        <rect class="cls-6" x="62" y="52" width="2" height="2"/>
        <rect class="cls-6" x="64" y="52" width="2" height="2"/>
        <rect class="cls-6" x="66" y="52" width="2" height="2"/>
        <rect class="cls-6" x="60" y="54" width="2" height="2"/>
        <rect class="cls-8" x="62" y="54" width="2" height="2"/>
        <rect class="cls-6" x="64" y="54" width="2" height="2"/>
        <rect class="cls-6" x="66" y="54" width="2" height="2"/>
        <rect class="cls-6" x="48" y="56" width="2" height="2"/>
        <rect class="cls-6" x="26" y="58" width="2" height="2"/>
        <rect class="cls-6" x="40" y="58" width="2" height="2"/>
        <rect class="cls-1" x="50" y="58" width="2" height="2"/>
        <rect class="cls-6" x="54" y="58" width="2" height="2"/>
        <rect class="cls-6" x="28" y="60" width="2" height="2"/>
        <rect class="cls-6" x="34" y="60" width="2" height="2"/>
        <rect class="cls-6" x="42" y="60" width="2" height="2"/>
        <rect class="cls-6" x="44" y="60" width="2" height="2"/>
        <rect class="cls-8" x="46" y="60" width="2" height="2"/>
        <rect class="cls-6" x="48" y="60" width="2" height="2"/>
        <rect class="cls-7" x="50" y="60" width="2" height="2"/>
        <rect class="cls-6" x="52" y="60" width="2" height="2"/>
        <rect class="cls-6" x="54" y="60" width="2" height="2"/>
        <rect class="cls-6" x="32" y="62" width="2" height="2"/>
        <rect class="cls-8" x="34" y="62" width="2" height="2"/>
        <rect class="cls-6" x="38" y="62" width="2" height="2"/>
        <rect class="cls-8" x="42" y="62" width="2" height="2"/>
        <rect class="cls-6" x="44" y="62" width="2" height="2"/>
        <rect class="cls-6" x="46" y="62" width="2" height="2"/>
        <rect class="cls-6" x="48" y="62" width="2" height="2"/>
        <rect class="cls-6" x="50" y="62" width="2" height="2"/>
        <rect class="cls-6" x="52" y="62" width="2" height="2"/>
        <rect class="cls-6" x="54" y="62" width="2" height="2"/>
        <rect class="cls-6" x="34" y="64" width="2" height="2"/>
        <rect class="cls-8" x="36" y="64" width="2" height="2"/>
        <rect class="cls-6" x="38" y="64" width="2" height="2"/>
        <rect class="cls-6" x="40" y="64" width="2" height="2"/>
        <rect class="cls-6" x="42" y="64" width="2" height="2"/>
        <rect class="cls-6" x="44" y="64" width="2" height="2"/>
        <rect class="cls-6" x="46" y="64" width="2" height="2"/>
        <rect class="cls-6" x="48" y="64" width="2" height="2"/>
        <rect class="cls-8" x="50" y="64" width="2" height="2"/>
        <rect class="cls-6" x="52" y="64" width="2" height="2"/>
        <rect class="cls-8" x="54" y="64" width="2" height="2"/>
        <rect class="cls-5" x="34" y="66" width="2" height="2"/>
        <rect class="cls-6" x="36" y="66" width="2" height="2"/>
        <rect class="cls-6" x="38" y="66" width="2" height="2"/>
        <rect class="cls-6" x="40" y="66" width="2" height="2"/>
        <rect class="cls-8" x="42" y="66" width="2" height="2"/>
        <rect class="cls-6" x="44" y="66" width="2" height="2"/>
        <rect class="cls-8" x="46" y="66" width="2" height="2"/>
        <rect class="cls-8" x="48" y="66" width="2" height="2"/>
        <rect class="cls-6" x="50" y="66" width="2" height="2"/>
        <rect class="cls-8" x="52" y="66" width="2" height="2"/>
        <rect class="cls-5" x="38" y="68" width="2" height="2"/>
        <rect class="cls-6" x="40" y="68" width="2" height="2"/>
        <rect class="cls-6" x="42" y="68" width="2" height="2"/>
        <rect class="cls-8" x="44" y="68" width="2" height="2"/>
        <rect class="cls-6" x="46" y="68" width="2" height="2"/>
        <rect class="cls-6" x="48" y="68" width="2" height="2"/>
        <rect class="cls-8" x="50" y="68" width="2" height="2"/>
        <rect class="cls-6" x="52" y="70" width="2" height="2"/>
        <rect class="cls-6" x="56" y="56" width="2" height="2"/>
        <rect class="cls-6" x="58" y="56" width="2" height="2"/>
        <rect class="cls-6" x="60" y="56" width="2" height="2"/>
        <rect class="cls-6" x="62" y="56" width="2" height="2"/>
        <rect class="cls-6" x="64" y="56" width="2" height="2"/>
        <rect class="cls-6" x="56" y="58" width="2" height="2"/>
        <rect class="cls-6" x="58" y="58" width="2" height="2"/>
        <rect class="cls-8" x="60" y="58" width="2" height="2"/>
        <rect class="cls-8" x="60" y="64" width="2" height="2"/>
        <rect class="cls-6" x="62" y="58" width="2" height="2"/>
        <rect class="cls-8" x="64" y="58" width="2" height="2"/>
        <rect class="cls-8" x="56" y="60" width="2" height="2"/>
        <rect class="cls-6" x="58" y="60" width="2" height="2"/>
        <rect class="cls-6" x="60" y="60" width="2" height="2"/>
        <rect class="cls-8" x="62" y="60" width="2" height="2"/>
        <rect class="cls-6" x="56" y="62" width="2" height="2"/>
        <rect class="cls-6" x="58" y="62" width="2" height="2"/>
        <rect class="cls-6" x="56" y="64" width="2" height="2"/>
      </g>
      <g>
        <rect class="cls-6" x="36" y="36" width="2" height="2"/>
        <rect class="cls-6" x="36" y="46" width="2" height="2"/>
        <rect class="cls-6" x="24" y="52" width="2" height="2"/>
        <rect class="cls-6" x="50" y="52" width="2" height="2"/>
        <rect class="cls-6" x="62" y="40" width="2" height="2"/>
        <rect class="cls-6" x="28" y="58" width="2" height="2"/>
      </g>
      <g>
        <rect class="cls-1" x="40" y="20" width="2" height="2"/>
        <rect class="cls-1" x="42" y="20" width="2" height="2"/>
        <rect class="cls-1" x="46" y="20" width="2" height="2"/>
        <rect class="cls-1" x="38" y="22" width="2" height="2"/>
        <rect class="cls-1" x="34" y="24" width="2" height="2"/>
        <rect class="cls-1" x="32" y="26" width="2" height="2"/>
        <rect class="cls-1" x="44" y="28" width="2" height="2"/>
        <rect class="cls-1" x="28" y="30" width="2" height="2"/>
        <rect class="cls-1" x="24" y="32" width="2" height="2"/>
        <rect class="cls-1" x="22" y="36" width="2" height="2"/>
        <rect class="cls-1" x="26" y="40" width="2" height="2"/>
        <rect class="cls-1" x="52" y="42" width="2" height="2"/>
        <rect class="cls-1" x="62" y="48" width="2" height="2"/>
        <rect class="cls-1" x="52" y="56" width="2" height="2"/>
        <rect class="cls-1" x="52" y="58" width="2" height="2"/>
        <rect class="cls-1" x="38" y="60" width="2" height="2"/>
      </g>
      <rect class="cls-1" x="36" y="20" width="2" height="2"/>
      <rect class="cls-1" x="28" y="26" width="2" height="2"/>
      <g>
        <rect class="cls-8" x="54" y="20" width="2" height="2"/>
        <rect class="cls-8" x="18" y="48" width="2" height="2"/>
        <rect class="cls-8" x="20" y="50" width="2" height="2"/>
        <rect class="cls-8" x="56" y="20" width="2" height="2"/>
        <rect class="cls-8" x="60" y="24" width="2" height="2"/>
        <rect class="cls-8" x="66" y="30" width="2" height="2"/>
        <rect class="cls-8" x="26" y="60" width="2" height="2"/>
      </g>
      <rect class="cls-5" x="22" y="54" width="2" height="2"/>
      <rect class="cls-5" x="68" y="34" width="2" height="2"/>
      <rect class="cls-5" x="70" y="36" width="2" height="2"/>
      <rect class="cls-5" x="24" y="56" width="2" height="2"/>
    </g>
    <rect class="cls-1" x="50" y="18" width="2" height="2"/>
    <g>
      <rect class="cls-6" x="44" y="20" width="2" height="2"/>
      <rect class="cls-6" x="50" y="20" width="2" height="2"/>
      <rect class="cls-6" x="52" y="20" width="2" height="2"/>
      <rect class="cls-6" x="52" y="16" width="2" height="2"/>
      <rect class="cls-6" x="28" y="26" width="2" height="2"/>
      <rect class="cls-6" x="52" y="26" width="2" height="2"/>
      <rect class="cls-6" x="36" y="28" width="2" height="2"/>
      <rect class="cls-6" x="50" y="28" width="2" height="2"/>
      <rect class="cls-6" x="26" y="34" width="2" height="2"/>
      <rect class="cls-6" x="42" y="34" width="2" height="2"/>
      <rect class="cls-6" x="52" y="40" width="2" height="2"/>
      <rect class="cls-6" x="54" y="40" width="2" height="2"/>
      <rect class="cls-6" x="20" y="44" width="2" height="2"/>
      <rect class="cls-6" x="52" y="44" width="2" height="2"/>
      <rect class="cls-6" x="32" y="46" width="2" height="2"/>
      <rect class="cls-6" x="46" y="46" width="2" height="2"/>
      <rect class="cls-6" x="24" y="48" width="2" height="2"/>
      <rect class="cls-6" x="50" y="48" width="2" height="2"/>
      <rect class="cls-6" x="54" y="48" width="2" height="2"/>
      <rect class="cls-6" x="26" y="52" width="2" height="2"/>
      <rect class="cls-6" x="38" y="52" width="2" height="2"/>
      <rect class="cls-6" x="42" y="52" width="2" height="2"/>
      <rect class="cls-6" x="46" y="52" width="2" height="2"/>
      <rect class="cls-6" x="28" y="54" width="2" height="2"/>
      <rect class="cls-6" x="36" y="54" width="2" height="2"/>
      <rect class="cls-6" x="44" y="54" width="2" height="2"/>
      <rect class="cls-6" x="56" y="24" width="2" height="2"/>
      <rect class="cls-6" x="58" y="30" width="2" height="2"/>
      <rect class="cls-1" x="56" y="32" width="2" height="2"/>
      <rect class="cls-6" x="60" y="32" width="2" height="2"/>
      <rect class="cls-6" x="58" y="34" width="2" height="2"/>
      <rect class="cls-6" x="60" y="36" width="2" height="2"/>
      <rect class="cls-6" x="64" y="36" width="2" height="2"/>
      <rect class="cls-6" x="66" y="38" width="2" height="2"/>
      <rect class="cls-6" x="64" y="40" width="2" height="2"/>
      <rect class="cls-6" x="66" y="42" width="2" height="2"/>
      <rect class="cls-6" x="58" y="44" width="2" height="2"/>
      <rect class="cls-6" x="64" y="44" width="2" height="2"/>
      <rect class="cls-6" x="62" y="48" width="2" height="2"/>
      <rect class="cls-6" x="60" y="50" width="2" height="2"/>
      <rect class="cls-6" x="56" y="52" width="2" height="2"/>
      <rect class="cls-6" x="58" y="52" width="2" height="2"/>
      <rect class="cls-6" x="34" y="56" width="2" height="2"/>
      <rect class="cls-6" x="36" y="56" width="2" height="2"/>
      <rect class="cls-6" x="42" y="56" width="2" height="2"/>
      <rect class="cls-6" x="46" y="56" width="2" height="2"/>
      <rect class="cls-6" x="50" y="56" width="2" height="2"/>
      <rect class="cls-6" x="54" y="56" width="2" height="2"/>
      <rect class="cls-6" x="32" y="58" width="2" height="2"/>
      <rect class="cls-6" x="36" y="58" width="2" height="2"/>
      <rect class="cls-6" x="38" y="58" width="2" height="2"/>
      <rect class="cls-6" x="42" y="58" width="2" height="2"/>
      <rect class="cls-6" x="44" y="58" width="2" height="2"/>
      <rect class="cls-6" x="48" y="58" width="2" height="2"/>
      <rect class="cls-6" x="52" y="58" width="2" height="2"/>
      <rect class="cls-6" x="36" y="60" width="2" height="2"/>
      <rect class="cls-6" x="50" y="60" width="2" height="2"/>
      <rect class="cls-6" x="36" y="62" width="2" height="2"/>
      <rect class="cls-6" x="48" y="62" width="2" height="2"/>
    </g>
    <rect class="cls-6" x="60" y="22" width="2" height="2"/>
    <rect class="cls-6" x="58" y="20" width="2" height="2"/>
    <g>
      <rect class="cls-6" x="44" y="20" width="2" height="2"/>
      <rect class="cls-6" x="50" y="20" width="2" height="2"/>
      <rect class="cls-6" x="52" y="20" width="2" height="2"/>
      <rect class="cls-6" x="28" y="26" width="2" height="2"/>
      <rect class="cls-6" x="52" y="26" width="2" height="2"/>
      <rect class="cls-6" x="36" y="28" width="2" height="2"/>
      <rect class="cls-6" x="50" y="28" width="2" height="2"/>
      <rect class="cls-6" x="26" y="34" width="2" height="2"/>
      <rect class="cls-6" x="42" y="34" width="2" height="2"/>
      <rect class="cls-6" x="52" y="40" width="2" height="2"/>
      <rect class="cls-6" x="54" y="40" width="2" height="2"/>
      <rect class="cls-6" x="20" y="44" width="2" height="2"/>
      <rect class="cls-6" x="52" y="44" width="2" height="2"/>
      <rect class="cls-6" x="32" y="46" width="2" height="2"/>
      <rect class="cls-6" x="46" y="46" width="2" height="2"/>
      <rect class="cls-6" x="24" y="48" width="2" height="2"/>
      <rect class="cls-6" x="50" y="48" width="2" height="2"/>
      <rect class="cls-6" x="54" y="48" width="2" height="2"/>
      <rect class="cls-6" x="26" y="52" width="2" height="2"/>
      <rect class="cls-6" x="38" y="52" width="2" height="2"/>
      <rect class="cls-6" x="42" y="52" width="2" height="2"/>
      <rect class="cls-6" x="46" y="52" width="2" height="2"/>
      <rect class="cls-6" x="28" y="54" width="2" height="2"/>
      <rect class="cls-6" x="36" y="54" width="2" height="2"/>
      <rect class="cls-6" x="44" y="54" width="2" height="2"/>
      <rect class="cls-6" x="56" y="24" width="2" height="2"/>
      <rect class="cls-6" x="58" y="30" width="2" height="2"/>
      <rect class="cls-1" x="56" y="32" width="2" height="2"/>
      <rect class="cls-6" x="60" y="32" width="2" height="2"/>
      <rect class="cls-6" x="58" y="34" width="2" height="2"/>
      <rect class="cls-6" x="60" y="36" width="2" height="2"/>
      <rect class="cls-6" x="64" y="36" width="2" height="2"/>
      <rect class="cls-6" x="66" y="38" width="2" height="2"/>
      <rect class="cls-6" x="64" y="40" width="2" height="2"/>
      <rect class="cls-6" x="66" y="42" width="2" height="2"/>
      <rect class="cls-6" x="58" y="44" width="2" height="2"/>
      <rect class="cls-6" x="64" y="44" width="2" height="2"/>
      <rect class="cls-6" x="62" y="48" width="2" height="2"/>
      <rect class="cls-6" x="60" y="50" width="2" height="2"/>
      <rect class="cls-6" x="56" y="52" width="2" height="2"/>
      <rect class="cls-6" x="58" y="52" width="2" height="2"/>
      <rect class="cls-6" x="34" y="56" width="2" height="2"/>
      <rect class="cls-6" x="36" y="56" width="2" height="2"/>
      <rect class="cls-6" x="42" y="56" width="2" height="2"/>
      <rect class="cls-6" x="46" y="56" width="2" height="2"/>
      <rect class="cls-6" x="50" y="56" width="2" height="2"/>
      <rect class="cls-6" x="54" y="56" width="2" height="2"/>
      <rect class="cls-6" x="32" y="58" width="2" height="2"/>
      <rect class="cls-6" x="36" y="58" width="2" height="2"/>
      <rect class="cls-6" x="38" y="58" width="2" height="2"/>
      <rect class="cls-6" x="42" y="58" width="2" height="2"/>
      <rect class="cls-6" x="44" y="58" width="2" height="2"/>
      <rect class="cls-6" x="48" y="58" width="2" height="2"/>
      <rect class="cls-6" x="52" y="58" width="2" height="2"/>
      <rect class="cls-6" x="36" y="60" width="2" height="2"/>
      <rect class="cls-6" x="50" y="60" width="2" height="2"/>
      <rect class="cls-6" x="36" y="62" width="2" height="2"/>
      <rect class="cls-6" x="48" y="62" width="2" height="2"/>
    </g>
    <rect class="cls-5" x="24" y="58" width="2" height="2"/>
    <rect class="cls-5" x="30" y="62" width="2" height="2"/>
  </g>
  <g>
    <rect class="cls-7" x="88" y="66" width="2" height="2"/>
    <rect class="cls-6" x="86" y="68" width="2" height="2"/>
    <rect class="cls-1" x="84" y="70" width="2" height="2"/>
    <rect class="cls-6" x="82" y="72" width="2" height="2"/>
    <rect class="cls-7" x="82" y="74" width="2" height="2"/>
    <rect class="cls-7" x="82" y="76" width="2" height="2"/>
    <rect class="cls-7" x="84" y="78" width="2" height="2"/>
    <rect class="cls-6" x="86" y="80" width="2" height="2"/>
    <rect class="cls-2" x="88" y="82" width="2" height="2"/>
    <rect class="cls-6" x="90" y="64" width="2" height="2"/>
    <rect class="cls-2" x="92" y="64" width="2" height="2"/>
    <rect class="cls-6" x="94" y="64" width="2" height="2"/>
    <rect class="cls-6" x="96" y="66" width="2" height="2"/>
    <rect class="cls-6" x="98" y="68" width="2" height="2"/>
    <rect class="cls-6" x="100" y="70" width="2" height="2"/>
    <rect class="cls-6" x="102" y="72" width="2" height="2"/>
    <rect class="cls-5" x="102" y="74" width="2" height="2"/>
    <rect class="cls-6" x="102" y="76" width="2" height="2"/>
    <rect class="cls-3" x="100" y="78" width="2" height="2"/>
    <rect class="cls-6" x="98" y="80" width="2" height="2"/>
    <rect class="cls-5" x="96" y="82" width="2" height="2"/>
    <rect class="cls-6" x="90" y="84" width="2" height="2"/>
    <rect class="cls-5" x="92" y="84" width="2" height="2"/>
    <rect class="cls-6" x="94" y="84" width="2" height="2"/>
  </g>
  <g>
    <rect class="cls-2" x="86" y="64" width="2" height="2"/>
    <rect class="cls-1" x="88" y="64" width="2" height="2"/>
    <rect class="cls-1" x="86" y="66" width="2" height="2"/>
    <rect class="cls-2" x="82" y="68" width="2" height="2"/>
    <rect class="cls-2" x="84" y="68" width="2" height="2"/>
    <rect class="cls-7" x="82" y="70" width="2" height="2"/>
    <rect class="cls-2" x="80" y="72" width="2" height="2"/>
    <rect class="cls-6" x="80" y="74" width="2" height="2"/>
    <rect class="cls-2" x="80" y="76" width="2" height="2"/>
    <rect class="cls-6" x="82" y="78" width="2" height="2"/>
    <rect class="cls-5" x="82" y="80" width="2" height="2"/>
    <rect class="cls-2" x="84" y="80" width="2" height="2"/>
    <rect class="cls-2" x="86" y="82" width="2" height="2"/>
    <rect class="cls-2" x="86" y="84" width="2" height="2"/>
    <rect class="cls-5" x="88" y="84" width="2" height="2"/>
    <rect class="cls-2" x="90" y="62" width="2" height="2"/>
    <rect class="cls-2" x="92" y="62" width="2" height="2"/>
    <rect class="cls-5" x="94" y="62" width="2" height="2"/>
    <rect class="cls-2" x="96" y="64" width="2" height="2"/>
    <rect class="cls-2" x="98" y="64" width="2" height="2"/>
    <rect class="cls-6" x="98" y="66" width="2" height="2"/>
    <rect class="cls-2" x="100" y="68" width="2" height="2"/>
    <rect class="cls-5" x="102" y="68" width="2" height="2"/>
    <rect class="cls-2" x="102" y="70" width="2" height="2"/>
    <rect class="cls-2" x="104" y="72" width="2" height="2"/>
    <rect class="cls-2" x="104" y="74" width="2" height="2"/>
    <rect class="cls-5" x="104" y="76" width="2" height="2"/>
    <rect class="cls-2" x="102" y="78" width="2" height="2"/>
    <rect class="cls-2" x="100" y="80" width="2" height="2"/>
    <rect class="cls-6" x="84" y="66" width="2" height="2"/>
    <rect class="cls-6" x="84" y="82" width="2" height="2"/>
    <rect class="cls-2" x="100" y="66" width="2" height="2"/>
    <rect class="cls-3" x="100" y="82" width="2" height="2"/>
    <rect class="cls-5" x="102" y="80" width="2" height="2"/>
    <rect class="cls-3" x="98" y="82" width="2" height="2"/>
    <rect class="cls-3" x="96" y="84" width="2" height="2"/>
    <rect class="cls-2" x="98" y="84" width="2" height="2"/>
    <rect class="cls-3" x="90" y="86" width="2" height="2"/>
    <rect class="cls-2" x="92" y="86" width="2" height="2"/>
    <rect class="cls-5" x="94" y="86" width="2" height="2"/>
  </g>
  <g>
    <rect class="cls-7" x="88" y="68" width="2" height="2"/>
    <rect class="cls-7" x="86" y="70" width="2" height="2"/>
    <rect class="cls-7" x="88" y="70" width="2" height="2"/>
    <rect class="cls-7" x="84" y="72" width="2" height="2"/>
    <rect class="cls-7" x="86" y="72" width="2" height="2"/>
    <rect class="cls-7" x="88" y="72" width="2" height="2"/>
    <rect class="cls-7" x="84" y="74" width="2" height="2"/>
    <rect class="cls-7" x="86" y="74" width="2" height="2"/>
    <rect class="cls-7" x="88" y="74" width="2" height="2"/>
    <rect class="cls-7" x="84" y="76" width="2" height="2"/>
    <rect class="cls-7" x="86" y="76" width="2" height="2"/>
    <rect class="cls-7" x="88" y="76" width="2" height="2"/>
    <rect class="cls-7" x="86" y="78" width="2" height="2"/>
    <rect class="cls-6" x="88" y="78" width="2" height="2"/>
    <rect class="cls-7" x="88" y="80" width="2" height="2"/>
    <rect class="cls-7" x="90" y="66" width="2" height="2"/>
    <rect class="cls-7" x="92" y="66" width="2" height="2"/>
    <rect class="cls-7" x="94" y="66" width="2" height="2"/>
    <rect class="cls-1" x="90" y="68" width="2" height="2"/>
    <rect class="cls-7" x="92" y="68" width="2" height="2"/>
    <rect class="cls-7" x="94" y="68" width="2" height="2"/>
    <rect class="cls-7" x="96" y="68" width="2" height="2"/>
    <rect class="cls-7" x="90" y="70" width="2" height="2"/>
    <rect class="cls-7" x="92" y="70" width="2" height="2"/>
    <rect class="cls-7" x="94" y="70" width="2" height="2"/>
    <rect class="cls-6" x="96" y="70" width="2" height="2"/>
    <rect class="cls-7" x="98" y="70" width="2" height="2"/>
    <rect class="cls-7" x="90" y="72" width="2" height="2"/>
    <rect class="cls-7" x="92" y="72" width="2" height="2"/>
    <rect class="cls-7" x="94" y="72" width="2" height="2"/>
    <rect class="cls-7" x="96" y="72" width="2" height="2"/>
    <rect class="cls-7" x="98" y="72" width="2" height="2"/>
    <rect class="cls-7" x="100" y="72" width="2" height="2"/>
    <rect class="cls-7" x="90" y="74" width="2" height="2"/>
    <rect class="cls-7" x="92" y="74" width="2" height="2"/>
    <rect class="cls-7" x="94" y="74" width="2" height="2"/>
    <rect class="cls-7" x="96" y="74" width="2" height="2"/>
    <rect class="cls-6" x="98" y="74" width="2" height="2"/>
    <rect class="cls-7" x="100" y="74" width="2" height="2"/>
    <rect class="cls-7" x="90" y="76" width="2" height="2"/>
    <rect class="cls-7" x="92" y="76" width="2" height="2"/>
    <rect class="cls-7" x="94" y="76" width="2" height="2"/>
    <rect class="cls-7" x="96" y="76" width="2" height="2"/>
    <rect class="cls-6" x="98" y="76" width="2" height="2"/>
    <rect class="cls-2" x="100" y="76" width="2" height="2"/>
    <rect class="cls-7" x="90" y="78" width="2" height="2"/>
    <rect class="cls-7" x="92" y="78" width="2" height="2"/>
    <rect class="cls-6" x="94" y="78" width="2" height="2"/>
    <rect class="cls-6" x="96" y="78" width="2" height="2"/>
    <rect class="cls-2" x="98" y="78" width="2" height="2"/>
    <rect class="cls-2" x="90" y="80" width="2" height="2"/>
    <rect class="cls-7" x="92" y="80" width="2" height="2"/>
    <rect class="cls-6" x="94" y="80" width="2" height="2"/>
    <rect class="cls-7" x="96" y="80" width="2" height="2"/>
    <rect class="cls-6" x="90" y="82" width="2" height="2"/>
    <rect class="cls-7" x="92" y="82" width="2" height="2"/>
    <rect class="cls-2" x="94" y="82" width="2" height="2"/>
  </g>
</svg>