<?xml version="1.0" encoding="UTF-8"?>
<svg id="Layer_1" data-name="Layer 1" xmlns="http://www.w3.org/2000/svg" viewBox="0 0 120 100">
  <defs>
    <style>
      .cls-1 {
        fill: #f4f4f4;
      }

      .cls-2 {
        opacity: .2;
      }

      .cls-2, .cls-3 {
        fill: #fff;
      }

      .cls-4 {
        fill: #ddd;
      }

      .cls-5 {
        fill: #666;
      }

      .cls-6 {
        fill: #42caf4;
      }

      .cls-7 {
        fill: #bbb;
      }

      .cls-8 {
        fill: #0076a5;
      }

      .cls-9 {
        fill: #0092cc;
      }

      .cls-10 {
        fill: #88e9ff;
      }

      .cls-11 {
        fill: #dcfaff;
      }

      .cls-12 {
        fill: #999;
      }

      .cls-13 {
        fill: #ffeaf8;
      }
    </style>
  </defs>
  <polygon class="cls-3" points="33 95 33 93 31 93 31 91 29 91 29 89 27 89 27 87 25 87 25 85 23 85 23 83 21 83 21 81 19 81 19 79 17 79 17 77 15 77 15 75 13 75 13 71 15 71 15 69 17 69 17 67 19 67 19 65 21 65 21 63 23 63 23 61 25 61 25 59 27 59 27 57 29 57 29 55 31 55 31 53 33 53 33 51 35 51 35 49 37 49 37 47 39 47 39 45 41 45 41 43 43 43 43 41 45 41 45 35 47 35 47 33 45 33 45 29 47 29 47 27 49 27 49 25 51 25 51 23 53 23 53 19 57 19 57 17 61 17 61 15 63 15 63 9 67 9 67 11 71 11 71 13 73 13 73 18 73 17 75 17 75 15 77 15 77 13 79 13 79 11 81 11 81 9 83 9 83 7 85 7 85 5 89 5 89 7 91 7 91 9 93 9 93 11 95 11 95 13 97 13 97 15 99 15 99 17 101 17 101 19 103 19 103 21 105 21 105 23 107 23 107 25 109 25 109 29 107 29 107 31 103 31 103 33 101 33 103 33 103 35 105 35 105 37 109 37 109 39 115 39 115 43 113 43 113 45 111 45 111 47 109 47 109 49 105 49 105 51 103 51 103 53 87 53 87 51 83 51 83 53 79 53 79 55 77 55 77 57 75 57 75 59 73 59 73 61 71 61 71 63 69 63 69 65 67 65 67 67 65 67 65 69 63 69 63 71 61 71 61 73 59 73 59 75 55 75 55 77 53 77 53 79 51 79 51 81 49 81 49 83 47 83 47 85 45 85 45 87 43 87 43 89 41 89 41 91 39 91 39 93 37 93 37 95 33 95"/>
  <g>
    <g>
      <g>
        <polygon class="cls-11" points="105.83 26 104 26 104 24 103.83 24 102 24 102 22 101.83 22 100 22 100 20 99.83 20 98 20 98 18 97.83 18 96 18 96 16 95.83 16 94 16 94 14 93.83 14 92 14 92 12 91.83 12 90 12 90 10 89.83 10 88.17 10 88.17 8 88 8 86.17 8 86 8 86 10 84.17 10 84 10 84 12 82.17 12 82 12 82 14 80.17 14 80 14 80 16 78.17 16 78 16 78 18 76.17 18 76 18 76 20 74.17 20 74 20 74 22 70.17 22 70 22 70 24 68.17 24 68 24 68 26 66.17 26 66 26 66 28 64.17 28 64 28 64 30 62.17 30 62 30 62 32 60.17 32 60 32 60 36 58.17 36 58 36 58 42 56.17 42 56 42 56 46 54.17 46 54 46 54 50 52.17 50 52 50 52 54 50.17 54 50 54 50 56 48.17 56 48 56 48 62 48.17 62 50 62 50.17 62 50.17 60 52 60 52.17 60 52.17 58 56 58 56.17 58 56.17 56 60 56 60.17 56 60.17 54 64 54 64.17 54 64.17 52 70 52 70.17 52 70.17 50 74 50 74.17 50 74.17 48 76 48 76.17 48 76.17 46 78 46 78.17 46 78.17 44 82 44 82.17 44 82.17 42 88 42 88.17 42 88.17 40 92 40 92.17 40 92.17 38 94 38 94.17 38 94.17 36 96 36 96.17 36 96.17 34 98 34 98.17 34 98.17 32 100 32 100.17 32 100.17 30 102 30 102.17 30 102.17 28 105.83 28 106 28 106 26 105.83 26"/>
        <polygon points="92 40 92 42 90 42 90 44 86 44 86 46 84 46 84 44 82 44 82 42 88 42 88 40 92 40"/>
        <rect x="78" y="44" width="4" height="2"/>
        <rect x="76" y="46" width="2" height="2"/>
        <polygon points="46 42 46 46 42 46 42 44 44 44 44 42 46 42"/>
        <rect x="40" y="46" width="2" height="2"/>
        <polyline points="86 8 86 10 84 10 84 8 85.83 8"/>
        <polyline points="86 8 86 6 88 6 88 8 86.17 8"/>
        <rect x="82" y="10" width="2" height="2"/>
        <rect x="80" y="12" width="2" height="2"/>
        <rect x="78" y="14" width="2" height="2"/>
        <rect x="76" y="16" width="2" height="2"/>
        <rect x="74" y="18" width="2" height="2"/>
        <rect x="68" y="22" width="2" height="2"/>
        <rect x="66" y="24" width="2" height="2"/>
        <rect x="64" y="26" width="2" height="2"/>
        <rect x="62" y="28" width="2" height="2"/>
        <rect x="60" y="30" width="2" height="2"/>
        <rect x="38" y="48" width="2" height="2"/>
        <rect x="36" y="50" width="2" height="2"/>
        <rect x="34" y="52" width="2" height="2"/>
        <rect x="32" y="54" width="2" height="2"/>
        <rect x="30" y="56" width="2" height="2"/>
        <rect x="28" y="58" width="2" height="2"/>
        <rect x="26" y="60" width="2" height="2"/>
        <rect x="24" y="62" width="2" height="2"/>
        <rect x="22" y="64" width="2" height="2"/>
        <rect x="20" y="66" width="2" height="2"/>
        <rect x="18" y="68" width="2" height="2"/>
        <rect x="16" y="70" width="2" height="2"/>
        <rect x="18" y="72" width="2" height="2"/>
        <rect x="20" y="74" width="2" height="2"/>
        <rect x="22" y="76" width="2" height="2"/>
        <rect x="24" y="78" width="2" height="2"/>
        <rect x="26" y="80" width="2" height="2"/>
        <rect x="28" y="82" width="2" height="2"/>
        <rect x="30" y="84" width="2" height="2"/>
        <rect x="32" y="86" width="2" height="2"/>
        <rect x="34" y="88" width="2" height="2"/>
        <rect x="14" y="72" width="2" height="2"/>
        <rect x="16" y="74" width="2" height="2"/>
        <rect x="18" y="76" width="2" height="2"/>
        <rect x="20" y="78" width="2" height="2"/>
        <rect x="22" y="80" width="2" height="2"/>
        <rect x="24" y="82" width="2" height="2"/>
        <rect x="26" y="84" width="2" height="2"/>
        <rect x="28" y="86" width="2" height="2"/>
        <rect x="30" y="88" width="2" height="2"/>
        <rect x="32" y="90" width="2" height="2"/>
        <rect x="34" y="92" width="2" height="2"/>
        <rect x="88" y="8" width="2" height="2"/>
        <polygon points="76 48 76 52 74 52 74 54 72 54 72 52 70 52 70 50 74 50 74 48 76 48"/>
        <polygon points="66 14 68 14 70 14 70 12 68 12 66 12 66 10 64 10 64 12 64 14 64 16 66 16 66 14"/>
        <rect x="62" y="16" width="2" height="2"/>
        <polygon points="74 20 74 22 70 22 70 18 66 18 66 16 70 16 70 14 72 14 72 20 74 20"/>
        <rect x="58" y="18" width="4" height="2"/>
        <rect x="64" y="18" width="2" height="2"/>
        <polygon points="58 20 58 22 56 22 56 24 54 24 54 20 58 20"/>
        <rect x="52" y="24" width="2" height="2"/>
        <rect x="50" y="26" width="2" height="2"/>
        <rect x="48" y="28" width="2" height="2"/>
        <rect x="46" y="30" width="2" height="2"/>
        <rect x="48" y="32" width="2" height="4"/>
        <rect x="46" y="36" width="2" height="6"/>
        <rect x="44" y="50" width="2" height="2"/>
        <rect x="44" y="54" width="2" height="2"/>
        <rect x="46" y="46" width="2" height="4"/>
        <rect x="46" y="52" width="2" height="2"/>
        <rect x="58" y="32" width="2" height="4"/>
        <rect x="56" y="36" width="2" height="6"/>
        <rect x="54" y="42" width="2" height="4"/>
        <rect x="44" y="62" width="2" height="6"/>
        <rect x="42" y="68" width="2" height="2"/>
        <rect x="40" y="70" width="2" height="4"/>
        <rect x="38" y="74" width="2" height="2"/>
        <rect x="34" y="76" width="4" height="2"/>
        <rect x="32" y="78" width="2" height="2"/>
        <rect x="30" y="80" width="2" height="2"/>
        <rect x="52" y="46" width="2" height="4"/>
        <rect x="50" y="50" width="2" height="4"/>
        <polygon class="cls-3" points="70 18 70 22 68 22 68 24 66 24 66 26 64 26 64 28 62 28 62 30 60 30 60 32 58 32 58 36 56 36 56 42 54 42 54 46 52 46 52 50 50 50 50 54 48 54 48 52 46 52 46 50 48 50 48 46 46 46 46 42 48 42 48 36 50 36 50 32 48 32 48 30 50 30 50 28 52 28 52 26 54 26 54 24 56 24 56 22 58 22 58 20 62 20 62 18 64 18 64 20 66 20 66 18 70 18"/>
        <rect x="48" y="54" width="2" height="2"/>
        <polygon class="cls-7" points="46 46 46 50 44 50 44 52 46 52 46 54 44 54 44 56 46 56 46 62 44 62 44 68 42 68 42 70 40 70 40 74 38 74 38 76 34 76 34 78 32 78 32 80 30 80 30 82 28 82 28 80 26 80 26 78 24 78 24 76 22 76 22 74 20 74 20 72 18 72 18 70 20 70 20 68 22 68 22 66 24 66 24 64 26 64 26 62 28 62 28 60 30 60 30 58 32 58 32 56 34 56 34 54 36 54 36 52 38 52 38 50 40 50 40 48 42 48 42 46 46 46"/>
        <rect class="cls-13" x="46" y="54" width="2" height="2"/>
        <rect x="46" y="56" width="2" height="6"/>
        <rect class="cls-3" x="82" y="44" width="2" height="2"/>
        <rect class="cls-3" x="84" y="44" width="2" height="2"/>
        <rect x="82" y="46" width="2" height="2"/>
        <rect x="100" y="30" width="2" height="2"/>
        <polygon points="102 34 102 36 96 36 96 34 98 34 98 32 100 32 100 34 102 34"/>
        <rect x="94" y="36" width="2" height="2"/>
        <rect x="92" y="38" width="2" height="2"/>
        <rect x="44" y="82" width="2" height="2"/>
        <rect x="42" y="84" width="2" height="2"/>
        <rect x="40" y="86" width="2" height="2"/>
        <rect x="38" y="88" width="2" height="2"/>
        <rect x="36" y="90" width="2" height="2"/>
        <polygon points="82 48 82 52 78 52 78 50 80 50 80 48 82 48"/>
        <polygon class="cls-3" points="82 46 82 48 80 48 80 50 78 50 78 52 76 52 76 48 78 48 78 46 82 46"/>
        <rect x="76" y="52" width="2" height="2"/>
        <rect x="74" y="52" width="2" height="2"/>
        <rect x="74" y="54" width="2" height="2"/>
        <rect x="72" y="56" width="2" height="2"/>
        <rect x="70" y="58" width="2" height="2"/>
        <rect x="68" y="60" width="2" height="2"/>
        <rect x="66" y="62" width="2" height="2"/>
        <rect x="64" y="64" width="2" height="2"/>
        <rect x="62" y="66" width="2" height="2"/>
        <rect x="60" y="68" width="2" height="2"/>
        <rect x="58" y="70" width="2" height="2"/>
        <rect x="54" y="72" width="4" height="2"/>
        <rect x="52" y="74" width="2" height="2"/>
        <rect x="50" y="76" width="2" height="2"/>
        <rect x="48" y="78" width="2" height="2"/>
        <rect x="46" y="80" width="2" height="2"/>
        <rect x="102" y="36" width="2" height="2"/>
        <rect x="104" y="38" width="4" height="2"/>
        <polygon points="114 40 114 42 112 42 112 44 110 44 110 42 108 42 108 40 114 40"/>
        <rect x="108" y="44" width="2" height="2"/>
        <rect x="104" y="46" width="4" height="2"/>
        <rect x="84" y="48" width="4" height="2"/>
        <rect x="90" y="48" width="2" height="2"/>
        <rect x="88" y="50" width="2" height="2"/>
        <rect x="64" y="52" width="6" height="2"/>
        <rect x="60" y="54" width="4" height="2"/>
        <polygon points="60 56 60 58 58 58 58 60 52 60 52 58 56 58 56 56 60 56"/>
        <rect x="50" y="60" width="2" height="2"/>
        <polygon class="cls-7" points="74 54 74 56 72 56 72 58 70 58 70 60 68 60 68 62 66 62 66 64 64 64 64 66 62 66 62 68 60 68 60 70 58 70 58 72 54 72 54 74 52 74 52 76 50 76 50 78 48 78 48 80 46 80 46 82 44 82 44 84 42 84 42 86 40 86 40 88 38 88 38 90 36 90 36 88 34 88 34 86 32 86 32 84 30 84 30 82 32 82 32 80 34 80 34 78 38 78 38 76 40 76 40 74 42 74 42 70 44 70 44 68 46 68 46 62 48 62 48 64 50 64 50 62 52 62 52 60 58 60 58 58 60 58 60 56 64 56 64 54 70 54 70 52 72 52 72 54 74 54"/>
        <rect x="48" y="62" width="2" height="2"/>
        <rect x="96" y="48" width="2" height="2"/>
        <rect x="102" y="48" width="2" height="2"/>
        <rect x="92" y="50" width="4" height="2"/>
        <polygon class="cls-3" points="110 42 110 44 108 44 108 46 104 46 104 48 102 48 102 50 98 50 98 48 96 48 96 50 92 50 92 48 90 48 90 50 88 50 88 48 84 48 84 46 86 46 86 44 90 44 90 42 92 42 92 40 94 40 94 38 96 38 96 36 102 36 102 38 104 38 104 40 108 40 108 42 110 42"/>
        <rect x="98" y="50" width="4" height="2"/>
      </g>
      <rect class="cls-4" x="66" y="14" width="2" height="2"/>
      <rect class="cls-4" x="68" y="14" width="2" height="2"/>
      <rect class="cls-4" x="64" y="16" width="2" height="2"/>
      <rect class="cls-1" x="62" y="18" width="2" height="2"/>
      <rect class="cls-1" x="64" y="24" width="2" height="2"/>
      <rect class="cls-1" x="56" y="28" width="2" height="2"/>
      <rect class="cls-1" x="48" y="30" width="2" height="2"/>
      <rect class="cls-1" x="58" y="30" width="2" height="2"/>
      <rect class="cls-6" x="60" y="32" width="2" height="2"/>
      <rect class="cls-1" x="52" y="34" width="2" height="2"/>
      <rect class="cls-9" x="58" y="36" width="2" height="2"/>
      <rect class="cls-6" x="58" y="38" width="2" height="2"/>
      <rect class="cls-6" x="90" y="38" width="2" height="2"/>
      <rect class="cls-1" x="54" y="40" width="2" height="2"/>
      <rect class="cls-6" x="58" y="40" width="2" height="2"/>
      <rect class="cls-1" x="52" y="42" width="2" height="2"/>
      <rect class="cls-9" x="56" y="42" width="2" height="2"/>
      <rect class="cls-4" x="90" y="42" width="2" height="2"/>
      <rect class="cls-1" x="52" y="44" width="2" height="2"/>
      <rect class="cls-6" x="56" y="44" width="2" height="2"/>
      <rect class="cls-4" x="82" y="44" width="2" height="2"/>
      <rect class="cls-1" x="50" y="46" width="2" height="2"/>
      <rect class="cls-9" x="54" y="46" width="2" height="2"/>
      <rect class="cls-4" x="84" y="46" width="2" height="2"/>
      <rect class="cls-6" x="102" y="26" width="2" height="2"/>
      <rect class="cls-9" x="104" y="26" width="2" height="2"/>
      <rect class="cls-6" x="100" y="28" width="2" height="2"/>
      <rect class="cls-6" x="98" y="30" width="2" height="2"/>
      <rect class="cls-6" x="96" y="32" width="2" height="2"/>
      <rect class="cls-6" x="94" y="34" width="2" height="2"/>
      <rect class="cls-6" x="92" y="36" width="2" height="2"/>
      <rect class="cls-4" x="96" y="36" width="2" height="2"/>
      <rect class="cls-4" x="98" y="36" width="2" height="2"/>
      <rect class="cls-4" x="98" y="34" width="2" height="2"/>
      <rect class="cls-4" x="100" y="36" width="2" height="2"/>
      <rect class="cls-4" x="94" y="38" width="2" height="2"/>
      <rect class="cls-4" x="100" y="38" width="2" height="2"/>
      <rect class="cls-4" x="102" y="38" width="2" height="2"/>
      <rect class="cls-4" x="92" y="40" width="2" height="2"/>
      <rect class="cls-4" x="100" y="40" width="2" height="2"/>
      <rect class="cls-4" x="104" y="40" width="2" height="2"/>
      <rect class="cls-4" x="106" y="40" width="2" height="2"/>
      <rect class="cls-4" x="96" y="42" width="2" height="2"/>
      <rect class="cls-4" x="104" y="42" width="2" height="2"/>
      <rect class="cls-4" x="106" y="42" width="2" height="2"/>
      <rect class="cls-4" x="108" y="42" width="2" height="2"/>
      <rect class="cls-4" x="106" y="44" width="2" height="2"/>
      <rect class="cls-2" x="44" y="60" width="2" height="2"/>
      <rect class="cls-1" x="42" y="66" width="2" height="2"/>
      <rect class="cls-1" x="40" y="68" width="2" height="2"/>
      <g>
        <rect class="cls-1" x="56" y="34" width="2" height="2"/>
        <rect class="cls-1" x="50" y="38" width="2" height="2"/>
      </g>
      <rect class="cls-7" x="16" y="72" width="2" height="2"/>
      <rect class="cls-1" x="38" y="72" width="2" height="2"/>
      <rect class="cls-7" x="18" y="74" width="2" height="2"/>
      <rect class="cls-1" x="36" y="74" width="2" height="2"/>
      <rect class="cls-7" x="20" y="76" width="2" height="2"/>
      <rect class="cls-7" x="22" y="78" width="2" height="2"/>
      <rect class="cls-7" x="24" y="80" width="2" height="2"/>
      <rect class="cls-7" x="26" y="82" width="2" height="2"/>
      <rect class="cls-7" x="28" y="84" width="2" height="2"/>
      <rect class="cls-7" x="30" y="86" width="2" height="2"/>
      <rect class="cls-7" x="32" y="88" width="2" height="2"/>
      <rect class="cls-7" x="34" y="90" width="2" height="2"/>
      <rect class="cls-6" x="54" y="48" width="2" height="2"/>
      <rect class="cls-4" x="88" y="48" width="2" height="2"/>
      <rect class="cls-8" x="52" y="50" width="2" height="2"/>
      <rect class="cls-6" x="52" y="52" width="2" height="2"/>
      <rect class="cls-6" x="62" y="52" width="2" height="2"/>
      <rect class="cls-9" x="50" y="54" width="2" height="2"/>
      <rect class="cls-6" x="52" y="54" width="2" height="2"/>
      <rect class="cls-6" x="54" y="54" width="2" height="2"/>
      <rect class="cls-6" x="58" y="54" width="2" height="2"/>
      <rect class="cls-9" x="48" y="56" width="2" height="2"/>
      <rect class="cls-6" x="50" y="56" width="2" height="2"/>
      <rect class="cls-6" x="52" y="56" width="2" height="2"/>
      <rect class="cls-9" x="54" y="56" width="2" height="2"/>
      <rect class="cls-8" x="48" y="58" width="2" height="2"/>
      <rect class="cls-9" x="50" y="58" width="2" height="2"/>
      <rect class="cls-8" x="48" y="60" width="2" height="2"/>
    </g>
    <g>
      <rect class="cls-12" x="44" y="46" width="2" height="2"/>
      <rect class="cls-12" x="44" y="48" width="2" height="2"/>
      <rect class="cls-12" x="42" y="50" width="2" height="2"/>
      <rect class="cls-12" x="44" y="52" width="2" height="2"/>
      <rect class="cls-12" x="40" y="54" width="2" height="2"/>
      <rect class="cls-12" x="42" y="56" width="2" height="2"/>
      <rect class="cls-12" x="44" y="56" width="2" height="2"/>
      <rect class="cls-12" x="38" y="60" width="2" height="2"/>
      <rect class="cls-12" x="42" y="60" width="2" height="2"/>
      <rect class="cls-12" x="42" y="62" width="2" height="2"/>
      <rect class="cls-12" x="38" y="70" width="2" height="2"/>
      <rect class="cls-12" x="42" y="70" width="2" height="2"/>
      <rect class="cls-12" x="40" y="74" width="2" height="2"/>
      <rect class="cls-5" x="38" y="76" width="2" height="2"/>
      <rect class="cls-5" x="34" y="78" width="2" height="2"/>
      <rect class="cls-12" x="36" y="78" width="2" height="2"/>
      <rect class="cls-12" x="40" y="78" width="2" height="2"/>
      <rect class="cls-5" x="32" y="80" width="2" height="2"/>
      <rect class="cls-12" x="36" y="80" width="2" height="2"/>
      <rect class="cls-12" x="30" y="82" width="2" height="2"/>
      <rect class="cls-12" x="32" y="82" width="2" height="2"/>
      <rect class="cls-4" x="38" y="82" width="2" height="2"/>
      <rect class="cls-5" x="70" y="52" width="2" height="2"/>
      <rect class="cls-5" x="64" y="54" width="2" height="2"/>
      <rect class="cls-5" x="66" y="54" width="2" height="2"/>
      <rect class="cls-12" x="68" y="54" width="2" height="2"/>
      <rect class="cls-5" x="70" y="54" width="2" height="2"/>
      <rect class="cls-5" x="72" y="54" width="2" height="2"/>
      <rect class="cls-5" x="60" y="56" width="2" height="2"/>
      <rect class="cls-5" x="62" y="56" width="2" height="2"/>
      <rect class="cls-5" x="64" y="56" width="2" height="2"/>
      <rect class="cls-5" x="66" y="56" width="2" height="2"/>
      <rect class="cls-5" x="68" y="56" width="2" height="2"/>
      <rect class="cls-12" x="70" y="56" width="2" height="2"/>
      <rect class="cls-5" x="58" y="58" width="2" height="2"/>
      <rect class="cls-12" x="60" y="58" width="2" height="2"/>
      <rect class="cls-12" x="62" y="58" width="2" height="2"/>
      <rect class="cls-5" x="64" y="58" width="2" height="2"/>
      <rect class="cls-12" x="66" y="58" width="2" height="2"/>
      <rect class="cls-5" x="68" y="58" width="2" height="2"/>
      <rect class="cls-5" x="52" y="60" width="2" height="2"/>
      <rect class="cls-5" x="54" y="60" width="2" height="2"/>
      <rect class="cls-12" x="56" y="60" width="2" height="2"/>
      <rect class="cls-12" x="58" y="60" width="2" height="2"/>
      <rect class="cls-5" x="60" y="60" width="2" height="2"/>
      <rect class="cls-12" x="62" y="60" width="2" height="2"/>
      <rect class="cls-5" x="64" y="60" width="2" height="2"/>
      <rect class="cls-12" x="66" y="60" width="2" height="2"/>
      <rect class="cls-12" x="46" y="62" width="2" height="2"/>
      <rect class="cls-5" x="50" y="62" width="2" height="2"/>
      <rect class="cls-12" x="52" y="62" width="2" height="2"/>
      <rect class="cls-12" x="54" y="62" width="2" height="2"/>
      <rect class="cls-12" x="58" y="62" width="2" height="2"/>
      <rect class="cls-12" x="60" y="62" width="2" height="2"/>
      <rect class="cls-7" x="62" y="62" width="2" height="2"/>
      <rect class="cls-12" x="64" y="62" width="2" height="2"/>
      <rect class="cls-12" x="46" y="64" width="2" height="2"/>
      <rect class="cls-12" x="48" y="64" width="2" height="2"/>
      <rect class="cls-4" x="52" y="64" width="2" height="2"/>
      <rect class="cls-12" x="62" y="64" width="2" height="2"/>
      <rect class="cls-12" x="46" y="66" width="2" height="2"/>
      <rect class="cls-12" x="60" y="66" width="2" height="2"/>
      <rect class="cls-12" x="58" y="68" width="2" height="2"/>
      <rect class="cls-12" x="54" y="70" width="2" height="2"/>
      <rect class="cls-12" x="56" y="70" width="2" height="2"/>
      <rect class="cls-12" x="48" y="72" width="2" height="2"/>
      <rect class="cls-12" x="52" y="72" width="2" height="2"/>
      <rect class="cls-12" x="50" y="74" width="2" height="2"/>
    </g>
    <rect x="92" y="12" width="2" height="2"/>
    <rect x="94" y="14" width="2" height="2"/>
    <rect x="96" y="16" width="2" height="2"/>
    <rect x="98" y="18" width="2" height="2"/>
    <rect x="100" y="20" width="2" height="2"/>
    <rect x="102" y="22" width="2" height="2"/>
    <rect x="104" y="24" width="2" height="2"/>
    <polygon points="108 26 108 28 106 28 106 30 102 30 102 28 106 28 106 26 108 26"/>
    <g>
      <rect class="cls-4" x="68" y="18" width="2" height="2"/>
      <rect class="cls-4" x="68" y="20" width="2" height="2"/>
      <rect class="cls-4" x="66" y="22" width="2" height="2"/>
      <rect class="cls-4" x="60" y="26" width="2" height="2"/>
      <rect class="cls-4" x="58" y="28" width="2" height="2"/>
      <rect class="cls-4" x="56" y="32" width="2" height="2"/>
      <rect class="cls-4" x="54" y="38" width="2" height="2"/>
      <rect class="cls-4" x="50" y="44" width="2" height="2"/>
      <rect class="cls-1" x="88" y="44" width="2" height="2"/>
      <rect class="cls-1" x="86" y="46" width="2" height="2"/>
      <rect class="cls-1" x="90" y="46" width="2" height="2"/>
      <rect class="cls-1" x="96" y="38" width="2" height="2"/>
      <rect class="cls-1" x="98" y="38" width="2" height="2"/>
      <rect class="cls-1" x="94" y="40" width="2" height="2"/>
      <rect class="cls-1" x="102" y="40" width="2" height="2"/>
      <rect class="cls-1" x="98" y="42" width="2" height="2"/>
      <rect class="cls-1" x="100" y="42" width="2" height="2"/>
      <rect class="cls-1" x="102" y="44" width="2" height="2"/>
      <rect class="cls-1" x="104" y="44" width="2" height="2"/>
      <rect class="cls-1" x="100" y="46" width="2" height="2"/>
      <rect class="cls-3" x="28" y="60" width="2" height="2"/>
      <polyline class="cls-1" points="32 66 32 68 30 68 30 66"/>
      <rect class="cls-3" x="30" y="64" width="2" height="2"/>
      <rect class="cls-1" x="32" y="68" width="2" height="2"/>
      <rect class="cls-1" x="26" y="72" width="2" height="2"/>
      <rect class="cls-3" x="24" y="76" width="2" height="2"/>
      <rect class="cls-12" x="22" y="68" width="2" height="2"/>
      <rect class="cls-3" x="26" y="68" width="2" height="2"/>
      <rect class="cls-4" x="52" y="36" width="2" height="2"/>
      <rect class="cls-12" x="18" y="70" width="2" height="2"/>
      <rect class="cls-12" x="22" y="70" width="2" height="2"/>
      <rect class="cls-12" x="24" y="70" width="2" height="2"/>
      <rect class="cls-12" x="20" y="72" width="2" height="2"/>
      <rect class="cls-12" x="24" y="72" width="2" height="2"/>
      <rect class="cls-12" x="30" y="72" width="2" height="2"/>
      <rect class="cls-12" x="24" y="74" width="2" height="2"/>
      <rect class="cls-1" x="26" y="74" width="2" height="2"/>
      <rect class="cls-12" x="26" y="76" width="2" height="2"/>
      <rect class="cls-1" x="28" y="76" width="2" height="2"/>
      <rect class="cls-1" x="32" y="76" width="2" height="2"/>
      <rect class="cls-12" x="26" y="78" width="2" height="2"/>
      <rect class="cls-12" x="28" y="80" width="2" height="2"/>
      <rect class="cls-4" x="46" y="50" width="2" height="2"/>
      <rect class="cls-4" x="48" y="52" width="2" height="2"/>
      <rect class="cls-4" x="46" y="54" width="2" height="2"/>
    </g>
    <g>
      <rect class="cls-3" x="86" y="8" width="2" height="2"/>
      <rect class="cls-3" x="84" y="10" width="2" height="2"/>
      <rect class="cls-3" x="82" y="12" width="2" height="2"/>
      <rect class="cls-3" x="90" y="12" width="2" height="2"/>
      <rect class="cls-10" x="96" y="18" width="2" height="2"/>
      <rect class="cls-10" x="96" y="28" width="2" height="2"/>
      <rect class="cls-10" x="94" y="32" width="2" height="2"/>
      <rect class="cls-10" x="90" y="36" width="2" height="2"/>
      <rect class="cls-3" x="80" y="14" width="2" height="2"/>
      <rect class="cls-3" x="78" y="16" width="2" height="2"/>
      <rect class="cls-10" x="80" y="16" width="2" height="2"/>
      <rect class="cls-3" x="76" y="18" width="2" height="2"/>
      <rect class="cls-3" x="74" y="20" width="2" height="2"/>
      <rect class="cls-3" x="70" y="22" width="2" height="2"/>
      <rect class="cls-3" x="68" y="24" width="2" height="2"/>
      <rect class="cls-3" x="66" y="26" width="2" height="2"/>
      <rect class="cls-10" x="64" y="28" width="2" height="2"/>
      <rect class="cls-10" x="62" y="30" width="2" height="2"/>
    </g>
    <g>
      <rect class="cls-10" x="84" y="14" width="2" height="2"/>
      <rect class="cls-10" x="78" y="28" width="2" height="2"/>
      <rect class="cls-10" x="66" y="30" width="2" height="2"/>
      <rect class="cls-10" x="68" y="32" width="2" height="2"/>
      <rect class="cls-10" x="80" y="32" width="2" height="2"/>
      <rect class="cls-10" x="64" y="42" width="2" height="2"/>
      <rect class="cls-10" x="80" y="42" width="2" height="2"/>
      <rect class="cls-10" x="58" y="44" width="2" height="2"/>
      <rect class="cls-10" x="92" y="18" width="2" height="2"/>
      <rect class="cls-10" x="92" y="26" width="2" height="2"/>
      <rect class="cls-10" x="98" y="26" width="2" height="2"/>
      <rect class="cls-10" x="70" y="48" width="2" height="2"/>
      <rect class="cls-6" x="72" y="48" width="2" height="2"/>
      <rect class="cls-10" x="62" y="50" width="2" height="2"/>
    </g>
    <rect x="90" y="10" width="2" height="2"/>
  </g>
</svg>