<?xml version="1.0" encoding="UTF-8"?>
<svg id="Layer_1" data-name="Layer 1" xmlns="http://www.w3.org/2000/svg" viewBox="0 0 145.83 131.76">
  <defs>
    <style>
      .cls-1 {
        fill: #fff;
      }
    </style>
  </defs>
  <g>
    <rect x="7.87" y="14.13" width="120" height="2" transform="translate(-1.16 6.79) rotate(-5.68)"/>
    <rect x="11.22" y="21.92" width="2" height="100" transform="translate(-7.06 1.56) rotate(-5.68)"/>
    <rect x="132.62" y="9.84" width="2" height="100" transform="translate(-5.27 13.53) rotate(-5.68)"/>
    <rect class="cls-1" x="12.92" y="15.88" width="120" height="100" transform="translate(-6.17 7.54) rotate(-5.68)"/>
    <rect x="17.97" y="115.63" width="120" height="2" transform="translate(-11.17 8.29) rotate(-5.68)"/>
  </g>
  <g>
    <rect x="-.42" y="15.65" width="120" height="2" transform="translate(-2.28 16.16) rotate(-15.16)"/>
    <rect x="13.04" y="31.82" width="2" height="100" transform="translate(-20.9 6.52) rotate(-15.16)"/>
    <rect x="130.79" y="-.07" width="2" height="100" transform="translate(-8.47 36.19) rotate(-15.16)"/>
    <rect class="cls-1" x="12.92" y="15.88" width="120" height="100" transform="translate(-14.69 21.35) rotate(-15.16)"/>
    <rect x="26.25" y="114.1" width="120" height="2" transform="translate(-27.09 26.55) rotate(-15.16)"/>
  </g>
  <g>
    <rect x="12.92" y="13.88" width="120" height="2"/>
    <rect x="10.92" y="15.88" width="2" height="100"/>
    <rect x="132.92" y="15.88" width="2" height="100"/>
    <rect class="cls-1" x="12.92" y="15.88" width="120" height="100"/>
    <rect x="12.92" y="115.88" width="120" height="2"/>
  </g>
</svg>