<?xml version="1.0" encoding="UTF-8"?>
<svg id="Layer_1" xmlns="http://www.w3.org/2000/svg" version="1.1" viewBox="0 0 120 100">
  <!-- Generator: Adobe Illustrator 29.7.1, SVG Export Plug-In . SVG Version: 2.1.1 Build 8)  -->
  <defs>
    <style>
      .st0, .st1 {
        fill: #fff;
      }

      .st1 {
        isolation: isolate;
        opacity: .2;
      }
    </style>
  </defs>
  <rect class="st0" x="82" y="26" width="2" height="2"/>
  <rect class="st0" x="84" y="26" width="2" height="2"/>
  <rect class="st0" x="86" y="26" width="2" height="2"/>
  <rect class="st0" x="88" y="26" width="2" height="2"/>
  <rect class="st0" x="90" y="26" width="2" height="2"/>
  <rect class="st0" x="80" y="28" width="2" height="2"/>
  <rect class="st0" x="86" y="28" width="2" height="2"/>
  <rect class="st0" x="80" y="30" width="2" height="2"/>
  <rect class="st0" x="84" y="30" width="2" height="2"/>
  <rect class="st0" x="80" y="32" width="2" height="2"/>
  <rect class="st0" x="84" y="32" width="2" height="2"/>
  <polygon class="st0" points="80 34 82 34 82 34 80 34"/>
  <polygon class="st0" points="84 34 86 34 86 34 84 34"/>
  <polygon class="st1" points="86 34 88 34 88 34 86 34"/>
  <rect class="st0" x="80" y="34" width="2" height="2"/>
  <rect class="st0" x="86" y="34" width="2" height="2"/>
  <rect class="st0" x="82" y="36" width="2" height="2"/>
  <rect class="st0" x="84" y="36" width="2" height="2"/>
  <rect class="st0" x="86" y="36" width="2" height="2"/>
  <rect class="st0" x="88" y="36" width="2" height="2"/>
  <rect class="st0" x="90" y="36" width="2" height="2"/>
  <rect class="st0" x="92" y="26" width="2" height="2"/>
  <rect class="st0" x="94" y="26" width="2" height="2"/>
  <rect class="st0" x="96" y="26" width="2" height="2"/>
  <rect class="st0" x="98" y="26" width="2" height="2"/>
  <rect class="st0" x="94" y="28" width="2" height="2"/>
  <rect class="st0" x="100" y="28" width="2" height="2"/>
  <rect class="st0" x="96" y="30" width="2" height="2"/>
  <rect class="st0" x="100" y="30" width="2" height="2"/>
  <rect class="st0" x="96" y="32" width="2" height="2"/>
  <rect class="st0" x="100" y="32" width="2" height="2"/>
  <polygon class="st1" points="94 34 96 34 96 34 94 34"/>
  <polygon class="st0" points="96 34 98 34 98 34 96 34"/>
  <polygon class="st0" points="100 34 102 34 102 34 100 34"/>
  <rect class="st0" x="94" y="34" width="2" height="2"/>
  <rect class="st0" x="100" y="34" width="2" height="2"/>
  <rect class="st0" x="92" y="36" width="2" height="2"/>
  <rect class="st0" x="94" y="36" width="2" height="2"/>
  <rect class="st0" x="96" y="36" width="2" height="2"/>
  <rect class="st0" x="98" y="36" width="2" height="2"/>
  <rect class="st0" x="10" y="40" width="2" height="2"/>
  <rect class="st0" x="12" y="40" width="2" height="2"/>
  <rect class="st0" x="14" y="40" width="2" height="2"/>
  <rect class="st0" x="16" y="40" width="2" height="2"/>
  <rect class="st0" x="18" y="40" width="2" height="2"/>
  <rect class="st0" x="20" y="40" width="2" height="2"/>
  <rect class="st0" x="22" y="40" width="2" height="2"/>
  <rect class="st0" x="24" y="40" width="2" height="2"/>
  <rect class="st0" x="26" y="40" width="2" height="2"/>
  <rect class="st0" x="28" y="40" width="2" height="2"/>
  <rect class="st0" x="30" y="40" width="2" height="2"/>
  <rect class="st0" x="32" y="40" width="2" height="2"/>
  <rect class="st0" x="34" y="40" width="2" height="2"/>
  <rect class="st0" x="36" y="40" width="2" height="2"/>
  <rect class="st0" x="38" y="40" width="2" height="2"/>
  <rect class="st0" x="40" y="40" width="2" height="2"/>
  <rect class="st0" x="42" y="40" width="2" height="2"/>
  <rect class="st0" x="44" y="40" width="2" height="2"/>
  <rect class="st0" x="46" y="40" width="2" height="2"/>
  <rect class="st0" x="48" y="40" width="2" height="2"/>
  <rect class="st0" x="50" y="40" width="2" height="2"/>
  <rect class="st0" x="52" y="40" width="2" height="2"/>
  <rect class="st0" x="54" y="40" width="2" height="2"/>
  <rect class="st0" x="56" y="40" width="2" height="2"/>
  <rect class="st0" x="58" y="40" width="2" height="2"/>
  <rect class="st0" x="60" y="40" width="2" height="2"/>
  <rect class="st0" x="62" y="40" width="2" height="2"/>
  <rect class="st0" x="64" y="40" width="2" height="2"/>
  <rect class="st0" x="66" y="40" width="2" height="2"/>
  <rect class="st0" x="68" y="40" width="2" height="2"/>
  <rect class="st0" x="70" y="40" width="2" height="2"/>
  <rect class="st0" x="72" y="40" width="2" height="2"/>
  <rect class="st0" x="74" y="40" width="2" height="2"/>
  <rect class="st0" x="76" y="40" width="2" height="2"/>
  <rect class="st0" x="78" y="40" width="2" height="2"/>
  <rect class="st0" x="80" y="40" width="2" height="2"/>
  <rect class="st0" x="82" y="40" width="2" height="2"/>
  <rect class="st0" x="84" y="40" width="2" height="2"/>
  <rect class="st0" x="86" y="40" width="2" height="2"/>
  <rect class="st0" x="88" y="40" width="2" height="2"/>
  <rect class="st0" x="90" y="40" width="2" height="2"/>
  <rect class="st0" x="92" y="40" width="2" height="2"/>
  <rect class="st0" x="94" y="40" width="2" height="2"/>
  <rect class="st0" x="96" y="40" width="2" height="2"/>
  <rect class="st0" x="98" y="40" width="2" height="2"/>
  <rect class="st0" x="100" y="40" width="2" height="2"/>
  <rect class="st0" x="102" y="40" width="2" height="2"/>
  <rect class="st0" x="104" y="40" width="2" height="2"/>
  <rect class="st0" x="106" y="40" width="2" height="2"/>
  <rect class="st0" x="108" y="40" width="2" height="2"/>
  <rect class="st0" x="10" y="22" width="2" height="2"/>
  <rect class="st0" x="12" y="22" width="2" height="2"/>
  <rect class="st0" x="14" y="22" width="2" height="2"/>
  <rect class="st0" x="16" y="22" width="2" height="2"/>
  <rect class="st0" x="18" y="22" width="2" height="2"/>
  <rect class="st0" x="20" y="22" width="2" height="2"/>
  <rect class="st0" x="22" y="22" width="2" height="2"/>
  <rect class="st0" x="24" y="22" width="2" height="2"/>
  <rect class="st0" x="26" y="22" width="2" height="2"/>
  <rect class="st0" x="28" y="22" width="2" height="2"/>
  <rect class="st0" x="20" y="20" width="2" height="2"/>
  <rect class="st0" x="22" y="18" width="2" height="2"/>
  <rect class="st0" x="24" y="18" width="2" height="2"/>
  <rect class="st0" x="26" y="18" width="2" height="2"/>
  <rect class="st0" x="28" y="18" width="2" height="2"/>
  <rect class="st0" x="30" y="20" width="2" height="2"/>
  <rect class="st0" x="30" y="22" width="2" height="2"/>
  <rect class="st0" x="32" y="22" width="2" height="2"/>
  <rect class="st0" x="34" y="22" width="2" height="2"/>
  <rect class="st0" x="36" y="22" width="2" height="2"/>
  <rect class="st0" x="38" y="22" width="2" height="2"/>
  <rect class="st0" x="40" y="22" width="2" height="2"/>
  <rect class="st0" x="42" y="22" width="2" height="2"/>
  <rect class="st0" x="44" y="22" width="2" height="2"/>
  <rect class="st0" x="8" y="24" width="2" height="2"/>
  <rect class="st0" x="8" y="26" width="2" height="2"/>
  <rect class="st0" x="8" y="28" width="2" height="2"/>
  <rect class="st0" x="8" y="30" width="2" height="2"/>
  <rect class="st0" x="8" y="32" width="2" height="2"/>
  <rect class="st0" x="8" y="34" width="2" height="2"/>
  <rect class="st0" x="8" y="36" width="2" height="2"/>
  <rect class="st0" x="8" y="38" width="2" height="2"/>
  <rect class="st0" x="8" y="40" width="2" height="2"/>
  <rect class="st0" x="8" y="42" width="2" height="2"/>
  <rect class="st0" x="8" y="44" width="2" height="2"/>
  <rect class="st0" x="8" y="46" width="2" height="2"/>
  <rect class="st0" x="46" y="22" width="2" height="2"/>
  <rect class="st0" x="48" y="22" width="2" height="2"/>
  <rect class="st0" x="50" y="22" width="2" height="2"/>
  <rect class="st0" x="52" y="22" width="2" height="2"/>
  <rect class="st0" x="54" y="22" width="2" height="2"/>
  <rect class="st0" x="56" y="22" width="2" height="2"/>
  <rect class="st0" x="58" y="22" width="2" height="2"/>
  <rect class="st0" x="60" y="22" width="2" height="2"/>
  <rect class="st0" x="62" y="22" width="2" height="2"/>
  <rect class="st0" x="64" y="22" width="2" height="2"/>
  <rect class="st0" x="66" y="22" width="2" height="2"/>
  <rect class="st0" x="68" y="22" width="2" height="2"/>
  <rect class="st0" x="70" y="22" width="2" height="2"/>
  <rect class="st0" x="72" y="22" width="2" height="2"/>
  <rect class="st0" x="74" y="22" width="2" height="2"/>
  <rect class="st0" x="76" y="22" width="2" height="2"/>
  <rect class="st0" x="78" y="22" width="2" height="2"/>
  <rect class="st0" x="80" y="22" width="2" height="2"/>
  <rect class="st0" x="82" y="22" width="2" height="2"/>
  <rect class="st0" x="84" y="22" width="2" height="2"/>
  <rect class="st0" x="86" y="22" width="2" height="2"/>
  <rect class="st0" x="88" y="22" width="2" height="2"/>
  <rect class="st0" x="90" y="22" width="2" height="2"/>
  <rect class="st0" x="92" y="22" width="2" height="2"/>
  <rect class="st0" x="94" y="22" width="2" height="2"/>
  <rect class="st0" x="96" y="22" width="2" height="2"/>
  <rect class="st0" x="98" y="22" width="2" height="2"/>
  <rect class="st0" x="100" y="22" width="2" height="2"/>
  <rect class="st0" x="102" y="22" width="2" height="2"/>
  <rect class="st0" x="104" y="22" width="2" height="2"/>
  <rect class="st0" x="106" y="22" width="2" height="2"/>
  <rect class="st0" x="108" y="22" width="2" height="2"/>
  <rect class="st0" x="110" y="24" width="2" height="2"/>
  <rect class="st0" x="110" y="26" width="2" height="2"/>
  <rect class="st0" x="110" y="28" width="2" height="2"/>
  <rect class="st0" x="110" y="30" width="2" height="2"/>
  <rect class="st0" x="110" y="32" width="2" height="2"/>
  <rect class="st0" x="110" y="34" width="2" height="2"/>
  <rect class="st0" x="110" y="36" width="2" height="2"/>
  <rect class="st0" x="110" y="38" width="2" height="2"/>
  <rect class="st0" x="110" y="40" width="2" height="2"/>
  <rect class="st0" x="110" y="42" width="2" height="2"/>
  <rect class="st0" x="110" y="44" width="2" height="2"/>
  <rect class="st0" x="110" y="46" width="2" height="2"/>
  <rect class="st0" x="8" y="48" width="2" height="2"/>
  <rect class="st0" x="8" y="50" width="2" height="2"/>
  <rect class="st0" x="8" y="52" width="2" height="2"/>
  <rect class="st0" x="8" y="54" width="2" height="2"/>
  <rect class="st0" x="8" y="56" width="2" height="2"/>
  <rect class="st0" x="8" y="58" width="2" height="2"/>
  <rect class="st0" x="8" y="60" width="2" height="2"/>
  <rect class="st0" x="8" y="62" width="2" height="2"/>
  <rect class="st0" x="8" y="64" width="2" height="2"/>
  <rect class="st0" x="8" y="66" width="2" height="2"/>
  <rect class="st0" x="8" y="68" width="2" height="2"/>
  <rect class="st0" x="8" y="70" width="2" height="2"/>
  <rect class="st0" x="8" y="72" width="2" height="2"/>
  <rect class="st0" x="8" y="74" width="2" height="2"/>
  <rect class="st0" x="8" y="76" width="2" height="2"/>
  <rect class="st0" x="8" y="78" width="2" height="2"/>
  <rect class="st0" x="10" y="80" width="2" height="2"/>
  <rect class="st0" x="12" y="80" width="2" height="2"/>
  <rect class="st0" x="14" y="80" width="2" height="2"/>
  <rect class="st0" x="16" y="80" width="2" height="2"/>
  <rect class="st0" x="18" y="80" width="2" height="2"/>
  <rect class="st0" x="20" y="80" width="2" height="2"/>
  <rect class="st0" x="22" y="80" width="2" height="2"/>
  <rect class="st0" x="24" y="80" width="2" height="2"/>
  <rect class="st0" x="26" y="80" width="2" height="2"/>
  <rect class="st0" x="28" y="80" width="2" height="2"/>
  <rect class="st0" x="30" y="80" width="2" height="2"/>
  <rect class="st0" x="32" y="80" width="2" height="2"/>
  <rect class="st0" x="34" y="80" width="2" height="2"/>
  <rect class="st0" x="36" y="80" width="2" height="2"/>
  <rect class="st0" x="38" y="80" width="2" height="2"/>
  <rect class="st0" x="40" y="80" width="2" height="2"/>
  <rect class="st0" x="42" y="80" width="2" height="2"/>
  <rect class="st0" x="44" y="80" width="2" height="2"/>
  <rect class="st0" x="46" y="80" width="2" height="2"/>
  <rect class="st0" x="48" y="80" width="2" height="2"/>
  <rect class="st0" x="50" y="80" width="2" height="2"/>
  <rect class="st0" x="52" y="80" width="2" height="2"/>
  <rect class="st0" x="54" y="80" width="2" height="2"/>
  <rect class="st0" x="56" y="80" width="2" height="2"/>
  <rect class="st0" x="58" y="80" width="2" height="2"/>
  <rect class="st0" x="60" y="80" width="2" height="2"/>
  <rect class="st0" x="62" y="80" width="2" height="2"/>
  <rect class="st0" x="64" y="80" width="2" height="2"/>
  <rect class="st0" x="66" y="80" width="2" height="2"/>
  <rect class="st0" x="68" y="80" width="2" height="2"/>
  <rect class="st0" x="70" y="80" width="2" height="2"/>
  <rect class="st0" x="72" y="80" width="2" height="2"/>
  <rect class="st0" x="74" y="80" width="2" height="2"/>
  <rect class="st0" x="76" y="80" width="2" height="2"/>
  <rect class="st0" x="78" y="80" width="2" height="2"/>
  <rect class="st0" x="80" y="80" width="2" height="2"/>
  <rect class="st0" x="82" y="80" width="2" height="2"/>
  <rect class="st0" x="84" y="80" width="2" height="2"/>
  <rect class="st0" x="86" y="80" width="2" height="2"/>
  <rect class="st0" x="88" y="80" width="2" height="2"/>
  <rect class="st0" x="90" y="80" width="2" height="2"/>
  <rect class="st0" x="110" y="48" width="2" height="2"/>
  <rect class="st0" x="110" y="50" width="2" height="2"/>
  <rect class="st0" x="110" y="52" width="2" height="2"/>
  <rect class="st0" x="110" y="54" width="2" height="2"/>
  <rect class="st0" x="110" y="56" width="2" height="2"/>
  <rect class="st0" x="110" y="58" width="2" height="2"/>
  <rect class="st0" x="110" y="60" width="2" height="2"/>
  <rect class="st0" x="110" y="62" width="2" height="2"/>
  <rect class="st0" x="110" y="64" width="2" height="2"/>
  <rect class="st0" x="110" y="66" width="2" height="2"/>
  <rect class="st0" x="110" y="68" width="2" height="2"/>
  <rect class="st0" x="110" y="70" width="2" height="2"/>
  <rect class="st0" x="110" y="72" width="2" height="2"/>
  <rect class="st0" x="110" y="74" width="2" height="2"/>
  <rect class="st0" x="110" y="76" width="2" height="2"/>
  <rect class="st0" x="110" y="78" width="2" height="2"/>
  <rect class="st0" x="92" y="80" width="2" height="2"/>
  <rect class="st0" x="94" y="80" width="2" height="2"/>
  <rect class="st0" x="96" y="80" width="2" height="2"/>
  <rect class="st0" x="98" y="80" width="2" height="2"/>
  <rect class="st0" x="100" y="80" width="2" height="2"/>
  <rect class="st0" x="102" y="80" width="2" height="2"/>
  <rect class="st0" x="104" y="80" width="2" height="2"/>
  <rect class="st0" x="106" y="80" width="2" height="2"/>
  <rect class="st0" x="108" y="80" width="2" height="2"/>
  <rect class="st0" x="62" y="28" width="2" height="2"/>
  <rect class="st0" x="64" y="28" width="2" height="2"/>
  <rect class="st0" x="66" y="28" width="2" height="2"/>
  <rect class="st0" x="68" y="28" width="2" height="2"/>
  <rect class="st0" x="70" y="28" width="2" height="2"/>
  <rect class="st0" x="72" y="28" width="2" height="2"/>
  <rect class="st0" x="74" y="28" width="2" height="2"/>
  <rect class="st0" x="60" y="30" width="2" height="2"/>
  <rect class="st0" x="76" y="30" width="2" height="2"/>
  <rect class="st0" x="60" y="32" width="2" height="2"/>
  <rect class="st0" x="76" y="32" width="2" height="2"/>
  <rect class="st0" x="60" y="32" width="2" height="2"/>
  <rect class="st0" x="76" y="32" width="2" height="2"/>
  <rect class="st0" x="62" y="34" width="2" height="2"/>
  <rect class="st0" x="64" y="34" width="2" height="2"/>
  <rect class="st0" x="66" y="34" width="2" height="2"/>
  <rect class="st0" x="68" y="34" width="2" height="2"/>
  <rect class="st0" x="70" y="34" width="2" height="2"/>
  <rect class="st0" x="72" y="34" width="2" height="2"/>
  <rect class="st0" x="74" y="34" width="2" height="2"/>
  <g>
    <rect class="st0" x="36" y="42" width="2" height="2"/>
    <rect class="st0" x="60" y="42" width="2" height="2"/>
    <g>
      <rect class="st0" x="36" y="44" width="2" height="2"/>
      <rect class="st0" x="34" y="46" width="2" height="2"/>
      <rect class="st0" x="32" y="48" width="2" height="2"/>
      <rect class="st0" x="32" y="50" width="2" height="2"/>
      <rect class="st0" x="32" y="52" width="2" height="2"/>
      <rect class="st0" x="30" y="54" width="2" height="2"/>
      <rect class="st0" x="30" y="56" width="2" height="2"/>
      <rect class="st0" x="32" y="58" width="2" height="2"/>
      <rect class="st0" x="32" y="60" width="2" height="2"/>
      <rect class="st0" x="32" y="62" width="2" height="2"/>
      <rect class="st0" x="34" y="64" width="2" height="2"/>
      <rect class="st0" x="36" y="66" width="2" height="2"/>
      <rect class="st0" x="38" y="68" width="2" height="2"/>
      <rect class="st0" x="40" y="70" width="2" height="2"/>
      <rect class="st0" x="42" y="70" width="2" height="2"/>
      <rect class="st0" x="44" y="70" width="2" height="2"/>
      <rect class="st0" x="46" y="72" width="2" height="2"/>
      <rect class="st0" x="48" y="72" width="2" height="2"/>
    </g>
    <g>
      <rect class="st0" x="60" y="44" width="2" height="2"/>
      <rect class="st0" x="62" y="46" width="2" height="2"/>
      <rect class="st0" x="64" y="48" width="2" height="2"/>
      <rect class="st0" x="64" y="50" width="2" height="2"/>
      <rect class="st0" x="64" y="52" width="2" height="2"/>
      <rect class="st0" x="66" y="54" width="2" height="2"/>
      <rect class="st0" x="66" y="56" width="2" height="2"/>
      <rect class="st0" x="64" y="58" width="2" height="2"/>
      <rect class="st0" x="64" y="60" width="2" height="2"/>
      <rect class="st0" x="64" y="62" width="2" height="2"/>
      <rect class="st0" x="62" y="64" width="2" height="2"/>
      <rect class="st0" x="60" y="66" width="2" height="2"/>
      <rect class="st0" x="58" y="68" width="2" height="2"/>
      <rect class="st0" x="56" y="70" width="2" height="2"/>
      <rect class="st0" x="54" y="70" width="2" height="2"/>
      <rect class="st0" x="52" y="70" width="2" height="2"/>
      <rect class="st0" x="50" y="72" width="2" height="2"/>
      <rect class="st0" x="48" y="72" width="2" height="2"/>
    </g>
    <g>
      <rect class="st0" x="36" y="66" width="2" height="2"/>
      <rect class="st0" x="34" y="64" width="2" height="2"/>
      <rect class="st0" x="32" y="62" width="2" height="2"/>
      <rect class="st0" x="32" y="60" width="2" height="2"/>
      <rect class="st0" x="32" y="58" width="2" height="2"/>
      <rect class="st0" x="30" y="56" width="2" height="2"/>
      <rect class="st0" x="30" y="54" width="2" height="2"/>
      <rect class="st0" x="32" y="52" width="2" height="2"/>
      <rect class="st0" x="32" y="50" width="2" height="2"/>
      <rect class="st0" x="32" y="48" width="2" height="2"/>
      <rect class="st0" x="34" y="46" width="2" height="2"/>
      <rect class="st0" x="36" y="44" width="2" height="2"/>
      <rect class="st0" x="38" y="42" width="2" height="2"/>
      <rect class="st0" x="40" y="40" width="2" height="2"/>
      <rect class="st0" x="42" y="40" width="2" height="2"/>
      <rect class="st0" x="44" y="40" width="2" height="2"/>
    </g>
    <g>
      <rect class="st0" x="60" y="66" width="2" height="2"/>
      <rect class="st0" x="62" y="64" width="2" height="2"/>
      <rect class="st0" x="64" y="62" width="2" height="2"/>
      <rect class="st0" x="64" y="60" width="2" height="2"/>
      <rect class="st0" x="64" y="58" width="2" height="2"/>
      <rect class="st0" x="66" y="56" width="2" height="2"/>
      <rect class="st0" x="66" y="54" width="2" height="2"/>
      <rect class="st0" x="64" y="52" width="2" height="2"/>
      <rect class="st0" x="64" y="50" width="2" height="2"/>
      <rect class="st0" x="64" y="48" width="2" height="2"/>
      <rect class="st0" x="62" y="46" width="2" height="2"/>
      <rect class="st0" x="60" y="44" width="2" height="2"/>
      <rect class="st0" x="58" y="42" width="2" height="2"/>
      <rect class="st0" x="56" y="40" width="2" height="2"/>
      <rect class="st0" x="54" y="40" width="2" height="2"/>
      <rect class="st0" x="52" y="40" width="2" height="2"/>
    </g>
  </g>
  <g>
    <rect class="st0" x="84" y="52" width="2" height="2"/>
    <rect class="st0" x="86" y="52" width="2" height="2"/>
    <rect class="st0" x="88" y="52" width="2" height="2"/>
    <rect class="st0" x="90" y="52" width="2" height="2"/>
    <rect class="st0" x="84" y="58" width="2" height="2"/>
    <rect class="st0" x="82" y="52" width="2" height="2"/>
    <rect class="st0" x="80" y="54" width="2" height="2"/>
    <rect class="st0" x="80" y="56" width="2" height="2"/>
    <rect class="st0" x="82" y="58" width="2" height="2"/>
    <rect class="st0" x="86" y="58" width="2" height="2"/>
    <rect class="st0" x="88" y="58" width="2" height="2"/>
    <rect class="st0" x="90" y="58" width="2" height="2"/>
    <rect class="st0" x="92" y="52" width="2" height="2"/>
    <rect class="st0" x="92" y="58" width="2" height="2"/>
    <rect class="st0" x="94" y="52" width="2" height="2"/>
    <rect class="st0" x="96" y="54" width="2" height="2"/>
    <rect class="st0" x="96" y="56" width="2" height="2"/>
    <rect class="st0" x="94" y="58" width="2" height="2"/>
  </g>
  <rect class="st0" x="46" y="46" width="6" height="2"/>
  <rect class="st0" x="46" y="64" width="6" height="2"/>
  <rect class="st0" x="44" y="48" width="2" height="2"/>
  <rect class="st0" x="42" y="48" width="2" height="2"/>
  <rect class="st0" x="44" y="62" width="2" height="2"/>
  <rect class="st0" x="42" y="62" width="2" height="2"/>
  <rect class="st0" x="40" y="50" width="2" height="2"/>
  <rect class="st0" x="40" y="52" width="2" height="2"/>
  <rect class="st0" x="38" y="54" width="2" height="2"/>
  <rect class="st0" x="38" y="56" width="2" height="2"/>
  <rect class="st0" x="40" y="58" width="2" height="2"/>
  <rect class="st0" x="40" y="60" width="2" height="2"/>
  <rect class="st0" x="52" y="48" width="2" height="2"/>
  <rect class="st0" x="54" y="48" width="2" height="2"/>
  <rect class="st0" x="52" y="62" width="2" height="2"/>
  <rect class="st0" x="54" y="62" width="2" height="2"/>
  <rect class="st0" x="56" y="50" width="2" height="2"/>
  <rect class="st0" x="56" y="52" width="2" height="2"/>
  <rect class="st0" x="58" y="54" width="2" height="2"/>
  <rect class="st0" x="58" y="56" width="2" height="2"/>
  <rect class="st0" x="56" y="58" width="2" height="2"/>
  <rect class="st0" x="56" y="60" width="2" height="2"/>
  <polygon class="st0" points="50 38 48 38 46 38 46 40 48 40 50 40 52 40 52 38 50 38"/>
</svg>