<?xml version="1.0" encoding="UTF-8"?>
<svg id="Layer_1" data-name="Layer 1" xmlns="http://www.w3.org/2000/svg" viewBox="0 0 124 100">
  <defs>
    <style>
      .cls-1 {
        fill: #fff;
      }

      .cls-2 {
        fill: #ffeaf8;
      }
    </style>
  </defs>
  <g>
    <rect x="10" y="98" width="104" height="2"/>
    <rect x="114" y="9" width="2" height="89"/>
    <rect x="8" y="9" width="2" height="89"/>
    <rect class="cls-1" x="10" y="9" width="104" height="89"/>
    <rect x="10" y="7" width="104" height="2"/>
  </g>
  <g>
    <rect x="6" y="95" width="112" height="2"/>
    <rect x="118" y="6" width="2" height="89"/>
    <rect x="4" y="6" width="2" height="89"/>
    <rect class="cls-1" x="6" y="6" width="112" height="89"/>
    <rect x="6" y="4" width="112" height="2"/>
  </g>
  <g>
    <rect x="2" y="91" width="120" height="2"/>
    <rect x="122" y="2" width="2" height="89"/>
    <rect y="2" width="2" height="89"/>
    <rect class="cls-1" x="2" y="2" width="120" height="89"/>
    <rect class="cls-2" x="10" y="10" width="104" height="73"/>
    <rect x="2" width="120" height="2"/>
  </g>
</svg>