<?xml version="1.0" encoding="UTF-8"?>
<svg id="Layer_1" data-name="Layer 1" xmlns="http://www.w3.org/2000/svg" xmlns:xlink="http://www.w3.org/1999/xlink" viewBox="0 0 120 100">
  <defs>
    <style>
      .cls-1 {
        fill: #ff95dc;
      }

      .cls-2 {
        fill: url(#linear-gradient-2);
      }

      .cls-3 {
        fill: url(#linear-gradient);
      }

      .cls-4 {
        fill: #fff;
      }

      .cls-5 {
        fill: #ffcdee;
      }

      .cls-6 {
        fill: #ffeaf8;
      }
    </style>
    <linearGradient id="linear-gradient" x1="42.3" y1="84.85" x2="77.18" y2="56.31" gradientUnits="userSpaceOnUse">
      <stop offset="0" stop-color="#ff95dc"/>
      <stop offset=".52" stop-color="#ffcdee"/>
      <stop offset="1" stop-color="#fff"/>
    </linearGradient>
    <linearGradient id="linear-gradient-2" x1="18.46" y1="55.71" x2="53.34" y2="27.18" xlink:href="#linear-gradient"/>
  </defs>
  <polygon class="cls-4" points="83 7 83 5 81 5 81 3 69 3 69 5 67 5 67 7 65 7 65 9 63 9 63 17 61 17 61 19 55 19 55 17 53 17 53 9 51 9 51 7 49 7 49 5 47 5 47 3 35 3 35 5 33 5 33 7 31 7 31 37 33 37 33 39 35 39 35 43 37 43 37 45 39 45 39 47 47 47 47 49 49 49 49 95 51 95 51 97 65 97 65 95 67 95 67 49 68.93 49 68.93 47 77 47 77 45 79 45 79 43 81 43 81 39 83 39 83 37 85 37 85 7 83 7"/>
  <g>
    <g>
      <rect x="36" y="4" width="2" height="2"/>
      <rect x="38" y="4" width="2" height="2"/>
      <rect x="40" y="4" width="2" height="2"/>
      <rect x="42" y="4" width="2" height="2"/>
      <rect x="44" y="4" width="2" height="2"/>
      <rect x="34" y="6" width="2" height="2"/>
      <rect x="32" y="8" width="2" height="2"/>
      <rect x="32" y="10" width="2" height="2"/>
      <rect x="32" y="12" width="2" height="2"/>
      <rect x="32" y="14" width="2" height="2"/>
      <rect x="32" y="16" width="2" height="2"/>
      <rect x="32" y="18" width="2" height="2"/>
      <rect x="32" y="20" width="2" height="2"/>
      <rect x="32" y="22" width="2" height="2"/>
      <rect x="32" y="24" width="2" height="2"/>
      <rect x="32" y="26" width="2" height="2"/>
      <rect x="32" y="28" width="2" height="2"/>
      <rect x="32" y="30" width="2" height="2"/>
      <rect x="32" y="32" width="2" height="2"/>
      <rect x="32" y="34" width="2" height="2"/>
      <rect x="34" y="36" width="2" height="2"/>
      <rect x="36" y="38" width="2" height="2"/>
      <rect x="36" y="40" width="2" height="2"/>
      <rect x="38" y="42" width="2" height="2"/>
      <rect x="40" y="44" width="2" height="2"/>
      <rect x="42" y="44" width="2" height="2"/>
      <rect x="44" y="44" width="2" height="2"/>
      <g>
        <rect x="44" y="34" width="2" height="2"/>
        <rect x="44" y="32" width="2" height="2"/>
        <rect x="44" y="30" width="2" height="2"/>
        <rect x="46" y="34" width="2" height="2"/>
        <rect x="46" y="32" width="2" height="2"/>
        <rect x="46" y="30" width="2" height="2"/>
        <rect x="48" y="34" width="2" height="2"/>
        <rect x="48" y="32" width="2" height="2"/>
        <rect x="48" y="30" width="2" height="2"/>
      </g>
      <g>
        <rect x="70" y="34" width="2" height="2"/>
        <rect x="70" y="32" width="2" height="2"/>
        <rect x="70" y="30" width="2" height="2"/>
        <rect x="68" y="34" width="2" height="2"/>
        <rect x="68" y="32" width="2" height="2" transform="translate(138 66) rotate(-180)"/>
        <rect x="68" y="30" width="2" height="2"/>
        <rect x="66" y="34" width="2" height="2"/>
        <rect x="66" y="32" width="2" height="2"/>
        <rect x="66" y="30" width="2" height="2"/>
      </g>
      <rect x="46" y="6" width="2" height="2"/>
      <rect x="48" y="8" width="2" height="2"/>
      <rect x="50" y="10" width="2" height="2"/>
      <rect x="50" y="12" width="2" height="2"/>
      <rect x="50" y="14" width="2" height="2"/>
      <rect x="50" y="16" width="2" height="2"/>
      <rect x="52" y="18" width="2" height="2"/>
      <rect x="46" y="44" width="2" height="2"/>
      <rect class="cls-4" x="48" y="44" width="2" height="2"/>
      <rect x="48" y="46" width="2" height="2"/>
      <rect class="cls-4" x="50" y="46" width="2" height="2"/>
      <rect x="50" y="48" width="2" height="2"/>
      <rect x="50" y="50" width="2" height="2"/>
      <rect x="50" y="52" width="2" height="2"/>
      <rect x="50" y="54" width="2" height="2"/>
      <rect x="50" y="56" width="2" height="2"/>
      <rect x="50" y="58" width="2" height="2"/>
      <rect x="50" y="60" width="2" height="2"/>
      <rect x="50" y="62" width="2" height="2"/>
      <rect x="50" y="64" width="2" height="2"/>
      <rect x="50" y="66" width="2" height="2"/>
      <rect x="50" y="68" width="2" height="2"/>
      <rect x="50" y="70" width="2" height="2"/>
      <rect x="50" y="72" width="2" height="2"/>
      <rect x="50" y="74" width="2" height="2"/>
      <rect x="50" y="76" width="2" height="2"/>
      <rect x="50" y="78" width="2" height="2"/>
      <rect x="50" y="80" width="2" height="2"/>
      <rect x="50" y="82" width="2" height="2"/>
      <rect x="50" y="84" width="2" height="2"/>
      <rect x="50" y="86" width="2" height="2"/>
    </g>
    <g>
      <rect x="78" y="4" width="2" height="2"/>
      <rect x="76" y="4" width="2" height="2"/>
      <rect x="74" y="4" width="2" height="2"/>
      <rect x="72" y="4" width="2" height="2"/>
      <rect x="70" y="4" width="2" height="2"/>
      <rect x="80" y="6" width="2" height="2"/>
      <rect x="82" y="8" width="2" height="2"/>
      <rect x="82" y="10" width="2" height="2"/>
      <rect x="82" y="12" width="2" height="2"/>
      <rect x="82" y="14" width="2" height="2"/>
      <rect x="82" y="16" width="2" height="2"/>
      <rect x="82" y="18" width="2" height="2"/>
      <rect x="82" y="20" width="2" height="2"/>
      <rect x="82" y="22" width="2" height="2"/>
      <rect x="82" y="24" width="2" height="2"/>
      <rect x="82" y="26" width="2" height="2"/>
      <rect x="82" y="28" width="2" height="2"/>
      <rect x="82" y="30" width="2" height="2"/>
      <rect x="82" y="32" width="2" height="2"/>
      <rect x="82" y="34" width="2" height="2"/>
      <rect x="80" y="36" width="2" height="2"/>
      <rect x="78" y="38" width="2" height="2"/>
      <rect x="78" y="40" width="2" height="2"/>
      <rect x="76" y="42" width="2" height="2"/>
      <rect x="74" y="44" width="2" height="2"/>
      <rect x="72" y="44" width="2" height="2"/>
      <rect x="70" y="44" width="2" height="2"/>
      <rect x="68" y="6" width="2" height="2"/>
      <rect x="66" y="8" width="2" height="2"/>
      <rect x="64" y="10" width="2" height="2"/>
      <rect x="64" y="12" width="2" height="2"/>
      <rect x="64" y="14" width="2" height="2"/>
      <rect x="64" y="16" width="2" height="2"/>
      <rect x="62" y="18" width="2" height="2"/>
      <rect x="68" y="44" width="2" height="2"/>
      <rect class="cls-1" x="66" y="44" width="2" height="2"/>
      <rect class="cls-4" x="64" y="46" width="2" height="2"/>
      <rect x="65.93" y="46" width="2" height="2"/>
      <rect x="64" y="48" width="2" height="2" transform="translate(130 98) rotate(-180)"/>
      <rect x="64" y="50" width="2" height="2"/>
      <rect x="64" y="52" width="2" height="2"/>
      <rect x="64" y="54" width="2" height="2"/>
      <rect x="64" y="56" width="2" height="2"/>
      <rect x="64" y="58" width="2" height="2"/>
      <rect x="64" y="60" width="2" height="2"/>
      <rect x="64" y="62" width="2" height="2"/>
      <rect x="64" y="64" width="2" height="2"/>
      <rect x="64" y="66" width="2" height="2"/>
      <rect x="64" y="68" width="2" height="2"/>
      <rect x="64" y="70" width="2" height="2"/>
      <rect x="64" y="72" width="2" height="2"/>
      <rect x="64" y="74" width="2" height="2"/>
      <rect x="64" y="76" width="2" height="2"/>
      <rect x="64" y="78" width="2" height="2"/>
      <rect x="64" y="80" width="2" height="2"/>
      <rect x="64" y="82" width="2" height="2"/>
      <rect x="64" y="84" width="2" height="2"/>
      <rect x="64" y="86" width="2" height="2"/>
      <rect x="50" y="88" width="2" height="2"/>
      <rect x="64" y="88" width="2" height="2"/>
      <rect x="50" y="90" width="2" height="2"/>
      <rect x="64" y="90" width="2" height="2"/>
      <rect x="50" y="92" width="2" height="2"/>
      <rect x="52" y="94" width="2" height="2"/>
      <rect x="54" y="94" width="2" height="2"/>
      <rect x="56" y="94" width="2" height="2"/>
      <rect x="58" y="94" width="2" height="2"/>
      <rect x="60" y="94" width="2" height="2"/>
      <rect x="64" y="92" width="2" height="2"/>
      <rect x="62" y="94" width="2" height="2"/>
    </g>
    <g>
      <rect x="52" y="48" width="2" height="2"/>
      <rect x="54" y="48" width="2" height="2"/>
      <rect x="56" y="48" width="2" height="2"/>
      <rect x="58" y="48" width="2" height="2"/>
      <rect x="56" y="56" width="2" height="2"/>
      <rect x="58" y="56" width="2" height="2"/>
      <rect x="56" y="58" width="2" height="2"/>
      <rect x="58" y="58" width="2" height="2"/>
      <rect x="56" y="64" width="2" height="2"/>
      <rect x="58" y="64" width="2" height="2"/>
      <rect x="56" y="66" width="2" height="2"/>
      <rect x="58" y="66" width="2" height="2"/>
      <rect x="60" y="48" width="2" height="2"/>
      <path class="cls-3" d="M52,50v44h12v-44h-12ZM60,68h-4v-4h4v4ZM60,60h-4v-4h4v4Z"/>
      <rect x="62" y="48" width="2" height="2"/>
    </g>
    <g>
      <rect x="54" y="20" width="2" height="2"/>
      <rect x="56" y="20" width="2" height="2"/>
      <rect x="58" y="20" width="2" height="2"/>
      <path class="cls-2" d="M80,8v-2h-10v2h-2v2h-2v8h-2v2h-2v2h-8v-2h-2v-2h-2v-8h-2v-2h-2v-2h-10v2h-2v28h2v2h2v4h2v2h10v2h2v2h12v-2h2v-2h10v-2h2v-4h2v-2h2V8h-2ZM50,36h-6v-6h6v6ZM72,36h-6v-6h6v6Z"/>
      <rect x="60" y="20" width="2" height="2"/>
    </g>
  </g>
  <g>
    <rect class="cls-1" x="78" y="30" width="2" height="2"/>
    <polyline class="cls-6" points="80 32 80 34 78 34 78 32"/>
    <rect class="cls-4" x="52" y="50" width="2" height="2"/>
    <rect class="cls-5" x="60" y="50" width="2" height="2"/>
    <rect class="cls-1" x="62" y="50" width="2" height="2"/>
    <rect class="cls-4" x="52" y="52" width="2" height="2"/>
    <rect class="cls-5" x="60" y="52" width="2" height="2"/>
    <rect class="cls-1" x="62" y="52" width="2" height="2"/>
    <rect class="cls-6" x="52" y="54" width="2" height="2"/>
    <rect class="cls-6" x="53.81" y="50" width="2" height="2"/>
    <rect class="cls-5" x="60" y="54" width="2" height="2"/>
    <rect class="cls-5" x="62" y="54" width="2" height="2"/>
    <rect class="cls-4" x="52" y="56" width="2" height="2"/>
    <rect class="cls-6" x="60" y="56" width="2" height="2"/>
    <rect class="cls-1" x="62" y="56" width="2" height="2"/>
    <rect class="cls-6" x="52" y="58" width="2" height="2"/>
    <rect class="cls-6" x="60" y="58" width="2" height="2"/>
    <rect class="cls-5" x="62" y="58" width="2" height="2"/>
    <rect class="cls-6" x="52" y="60" width="2" height="2"/>
    <rect class="cls-5" x="58" y="60" width="2" height="2"/>
    <rect class="cls-6" x="56" y="60" width="2" height="2"/>
    <rect class="cls-5" x="58" y="68" width="2" height="2"/>
    <rect class="cls-6" x="56" y="68" width="2" height="2"/>
    <rect class="cls-5" x="60" y="60" width="2" height="2"/>
    <rect class="cls-1" x="62" y="60" width="2" height="2"/>
    <rect class="cls-6" x="52" y="62" width="2" height="2"/>
    <rect class="cls-5" x="60" y="62" width="2" height="2"/>
    <rect class="cls-1" x="62" y="62" width="2" height="2"/>
    <rect class="cls-6" x="52" y="64" width="2" height="2"/>
    <rect class="cls-6" x="60" y="64" width="2" height="2"/>
    <rect class="cls-1" x="62" y="64" width="2" height="2"/>
    <rect class="cls-6" x="52" y="66" width="2" height="2"/>
    <rect class="cls-1" x="60" y="66" width="2" height="2"/>
    <rect class="cls-1" x="62" y="66" width="2" height="2"/>
    <rect class="cls-6" x="52" y="68" width="2" height="2"/>
    <rect class="cls-5" x="60" y="68" width="2" height="2"/>
    <rect class="cls-1" x="62" y="68" width="2" height="2"/>
    <rect class="cls-6" x="52" y="70" width="2" height="2"/>
    <rect class="cls-5" x="60" y="70" width="2" height="2"/>
    <rect class="cls-1" x="62" y="70" width="2" height="2"/>
    <rect class="cls-6" x="52" y="72" width="2" height="2"/>
    <rect class="cls-5" x="60" y="72" width="2" height="2"/>
    <rect class="cls-1" x="62" y="72" width="2" height="2"/>
    <rect class="cls-6" x="52" y="74" width="2" height="2"/>
    <rect class="cls-6" x="54" y="76" width="2" height="2"/>
    <rect class="cls-6" x="60" y="74" width="2" height="2"/>
    <rect class="cls-1" x="62" y="74" width="2" height="2"/>
    <rect class="cls-4" x="52" y="76" width="2" height="2"/>
    <rect class="cls-5" x="60" y="76" width="2" height="2"/>
    <rect class="cls-6" x="62" y="76" width="2" height="2"/>
    <rect class="cls-6" x="52" y="78" width="2" height="2"/>
    <rect class="cls-5" x="60" y="78" width="2" height="2"/>
    <rect class="cls-5" x="62" y="78" width="2" height="2"/>
    <rect class="cls-6" x="52" y="80" width="2" height="2"/>
    <rect class="cls-6" x="60" y="80" width="2" height="2"/>
    <rect class="cls-1" x="62" y="80" width="2" height="2"/>
    <rect class="cls-6" x="52" y="82" width="2" height="2"/>
    <rect class="cls-5" x="60" y="82" width="2" height="2"/>
    <rect class="cls-1" x="62" y="82" width="2" height="2"/>
    <rect class="cls-6" x="52" y="84" width="2" height="2"/>
    <rect class="cls-6" x="60" y="84" width="2" height="2"/>
    <rect class="cls-1" x="62" y="84" width="2" height="2"/>
    <rect class="cls-6" x="52" y="86" width="2" height="2"/>
    <rect class="cls-5" x="60" y="86" width="2" height="2"/>
    <rect class="cls-1" x="62" y="86" width="2" height="2"/>
    <rect class="cls-6" x="52" y="88" width="2" height="2"/>
    <rect class="cls-6" x="58" y="88" width="2" height="2"/>
    <rect class="cls-6" x="54" y="90" width="2" height="2"/>
    <rect class="cls-5" x="60" y="88" width="2" height="2"/>
    <rect class="cls-5" x="62" y="88" width="2" height="2"/>
    <rect class="cls-5" x="52" y="90" width="2" height="2"/>
    <rect class="cls-5" x="58" y="90" width="2" height="2"/>
    <rect class="cls-1" x="60" y="90" width="2" height="2"/>
    <rect class="cls-1" x="62" y="90" width="2" height="2"/>
    <rect class="cls-1" x="52" y="92" width="2" height="2"/>
    <rect class="cls-5" x="54" y="92" width="2" height="2"/>
    <rect class="cls-5" x="56" y="92" width="2" height="2"/>
    <rect class="cls-1" x="58" y="92" width="2" height="2"/>
    <rect class="cls-5" x="60" y="92" width="2" height="2"/>
    <rect class="cls-1" x="62" y="92" width="2" height="2"/>
    <g>
      <g>
        <rect class="cls-5" x="76" y="6" width="2" height="2"/>
        <rect class="cls-5" x="78" y="8" width="2" height="2"/>
        <rect class="cls-5" x="78" y="10" width="2" height="2"/>
        <rect class="cls-5" x="78" y="12" width="2" height="2"/>
        <rect class="cls-5" x="78" y="14" width="2" height="2"/>
        <rect class="cls-5" x="78" y="16" width="2" height="2"/>
        <rect class="cls-5" x="78" y="20" width="2" height="2"/>
        <rect class="cls-5" x="78" y="22" width="2" height="2"/>
        <rect class="cls-5" x="78" y="24" width="2" height="2"/>
        <rect class="cls-5" x="78" y="28" width="2" height="2"/>
        <rect class="cls-5" x="78" y="34" width="2" height="2"/>
        <rect class="cls-5" x="76" y="36" width="2" height="2"/>
        <rect class="cls-5" x="70" y="36" width="2" height="2"/>
        <rect class="cls-6" x="68" y="36" width="2" height="2"/>
        <rect class="cls-6" x="66" y="36" width="2" height="2"/>
        <rect class="cls-5" x="48" y="36" width="2" height="2"/>
        <rect class="cls-6" x="46" y="36" width="2" height="2"/>
        <rect class="cls-6" x="44" y="36" width="2" height="2"/>
        <rect class="cls-5" x="74" y="38" width="2" height="2"/>
        <rect class="cls-5" x="70" y="40" width="2" height="2"/>
        <rect class="cls-5" x="72" y="40" width="2" height="2"/>
        <rect class="cls-5" x="66" y="42" width="2" height="2"/>
        <rect class="cls-5" x="68" y="42" width="2" height="2"/>
        <rect class="cls-5" x="60" y="44" width="2" height="2"/>
        <rect class="cls-5" x="62" y="44" width="2" height="2"/>
        <rect class="cls-1" x="64" y="44" width="2" height="2"/>
      </g>
      <g>
        <rect class="cls-5" x="36" y="6" width="2" height="2"/>
        <rect class="cls-5" x="40" y="6" width="2" height="2"/>
        <rect class="cls-6" x="38" y="6" width="2" height="2"/>
        <rect class="cls-6" x="36" y="10" width="2" height="2"/>
        <rect class="cls-6" x="34" y="14" width="2" height="2"/>
        <rect class="cls-6" x="34" y="18" width="2" height="2"/>
        <rect class="cls-6" x="58" y="22" width="2" height="2"/>
        <rect class="cls-6" x="42" y="6" width="2" height="2"/>
        <rect class="cls-6" x="46" y="8" width="2" height="2"/>
        <rect class="cls-6" x="48" y="10" width="2" height="2"/>
        <rect class="cls-5" x="44" y="6" width="2" height="2"/>
        <rect class="cls-5" x="34" y="8" width="2" height="2"/>
        <rect class="cls-5" x="36" y="8" width="2" height="2"/>
        <rect class="cls-5" x="34" y="10" width="2" height="2"/>
        <rect class="cls-5" x="40" y="10" width="2" height="2"/>
        <rect class="cls-5" x="34" y="12" width="2" height="2"/>
        <rect class="cls-5" x="34" y="16" width="2" height="2"/>
        <rect class="cls-5" x="34" y="22" width="2" height="2"/>
        <rect class="cls-1" x="36" y="36" width="2" height="2"/>
        <rect class="cls-5" x="38" y="38" width="2" height="2"/>
        <rect class="cls-5" x="38" y="40" width="2" height="2"/>
        <rect class="cls-5" x="40" y="40" width="2" height="2"/>
        <rect class="cls-1" x="40" y="42" width="2" height="2"/>
        <rect class="cls-6" x="42" y="42" width="2" height="2"/>
        <rect class="cls-6" x="44" y="42" width="2" height="2"/>
        <rect class="cls-5" x="48" y="44" width="2" height="2"/>
        <rect class="cls-5" x="50" y="46" width="2" height="2"/>
        <rect class="cls-5" x="52" y="46" width="2" height="2"/>
        <rect class="cls-1" x="54" y="46" width="2" height="2"/>
        <rect class="cls-5" x="56" y="46" width="2" height="2"/>
        <rect class="cls-5" x="58" y="46" width="2" height="2"/>
        <rect class="cls-1" x="60" y="46" width="2" height="2"/>
        <rect class="cls-5" x="62" y="46" width="2" height="2"/>
        <rect class="cls-1" x="64" y="46" width="2" height="2"/>
      </g>
      <g>
        <rect class="cls-5" x="70" y="6" width="2" height="2"/>
        <rect class="cls-5" x="74" y="6" width="2" height="2"/>
        <rect class="cls-5" x="68" y="8" width="2" height="2"/>
        <rect class="cls-5" x="66" y="10" width="2" height="2"/>
        <rect class="cls-5" x="66" y="12" width="2" height="2"/>
        <rect class="cls-5" x="66" y="14" width="2" height="2"/>
        <rect class="cls-5" x="50" y="18" width="2" height="2"/>
        <rect class="cls-5" x="64" y="18" width="2" height="2"/>
        <rect class="cls-6" x="66" y="18" width="2" height="2"/>
        <rect class="cls-6" x="66" y="16" width="2" height="2"/>
        <rect class="cls-6" x="76" y="8" width="2" height="2"/>
        <rect class="cls-6" x="76" y="10" width="2" height="2"/>
        <rect class="cls-6" x="76" y="12" width="2" height="2"/>
        <rect class="cls-6" x="76" y="14" width="2" height="2"/>
        <rect class="cls-6" x="76" y="16" width="2" height="2"/>
        <rect class="cls-6" x="76" y="18" width="2" height="2"/>
        <rect class="cls-6" x="78" y="18" width="2" height="2"/>
        <rect class="cls-6" x="76" y="20" width="2" height="2"/>
        <rect class="cls-6" x="76" y="22" width="2" height="2"/>
        <rect class="cls-6" x="76" y="24" width="2" height="2"/>
        <rect class="cls-6" x="76" y="26" width="2" height="2"/>
        <rect class="cls-6" x="78" y="26" width="2" height="2"/>
        <rect class="cls-6" x="76" y="28" width="2" height="2"/>
        <rect class="cls-6" x="76" y="30" width="2" height="2"/>
        <rect class="cls-6" x="76" y="32" width="2" height="2"/>
        <rect class="cls-6" x="78" y="32" width="2" height="2"/>
        <rect class="cls-6" x="76" y="34" width="2" height="2"/>
        <rect class="cls-6" x="74" y="36" width="2" height="2"/>
        <rect class="cls-6" x="72" y="38" width="2" height="2"/>
        <rect class="cls-6" x="68" y="40" width="2" height="2"/>
        <rect class="cls-6" x="64" y="42" width="2" height="2"/>
        <rect class="cls-6" x="58" y="44" width="2" height="2"/>
        <rect class="cls-6" x="56" y="44" width="2" height="2"/>
        <rect class="cls-6" x="54" y="44" width="2" height="2"/>
        <rect class="cls-6" x="52" y="44" width="2" height="2"/>
        <rect class="cls-6" x="50" y="44" width="2" height="2"/>
        <rect class="cls-6" x="74" y="8" width="2" height="2"/>
        <rect class="cls-6" x="72" y="6" width="2" height="2"/>
        <rect class="cls-5" x="62" y="20" width="2" height="2"/>
        <rect class="cls-5" x="54" y="22" width="2" height="2"/>
        <rect class="cls-5" x="56" y="22" width="2" height="2"/>
        <rect class="cls-5" x="60" y="22" width="2" height="2"/>
      </g>
    </g>
    <g>
      <rect class="cls-1" x="78" y="6" width="2" height="2"/>
      <rect class="cls-1" x="80" y="8" width="2" height="2"/>
      <rect class="cls-1" x="80" y="10" width="2" height="2"/>
      <rect class="cls-1" x="80" y="12" width="2" height="2"/>
      <rect class="cls-1" x="80" y="14" width="2" height="2"/>
      <rect class="cls-1" x="80" y="16" width="2" height="2"/>
      <rect class="cls-1" x="80" y="18" width="2" height="2"/>
      <rect class="cls-1" x="80" y="20" width="2" height="2"/>
      <rect class="cls-1" x="80" y="22" width="2" height="2"/>
      <rect class="cls-1" x="80" y="24" width="2" height="2"/>
      <rect class="cls-1" x="80" y="26" width="2" height="2"/>
      <rect class="cls-1" x="80" y="28" width="2" height="2"/>
      <rect class="cls-1" x="80" y="30" width="2" height="2"/>
      <rect class="cls-1" x="80" y="32" width="2" height="2"/>
      <rect class="cls-1" x="80" y="34" width="2" height="2"/>
      <rect class="cls-1" x="78" y="36" width="2" height="2"/>
      <rect class="cls-1" x="76" y="38" width="2" height="2"/>
      <rect class="cls-1" x="74" y="40" width="2" height="2"/>
      <rect class="cls-1" x="76" y="40" width="2" height="2"/>
      <rect class="cls-1" x="70" y="42" width="2" height="2"/>
      <rect class="cls-1" x="72" y="42" width="2" height="2"/>
      <rect class="cls-1" x="74" y="42" width="2" height="2"/>
    </g>
  </g>
</svg>