<?xml version="1.0" encoding="UTF-8"?>
<svg id="Layer_1" data-name="Layer 1" xmlns="http://www.w3.org/2000/svg" viewBox="0 0 120 100">
  <defs>
    <style>
      .cls-1 {
        fill: #fff927;
      }

      .cls-2 {
        fill: #ebfd3c;
      }

      .cls-3 {
        fill: #9e2a80;
      }

      .cls-4 {
        fill: #ff95dc;
      }

      .cls-5 {
        fill: #2eb67b;
      }

      .cls-6 {
        fill: #ff5c8c;
      }

      .cls-7 {
        fill: #f4f4f4;
      }

      .cls-8 {
        fill: #f21c82;
      }

      .cls-9 {
        fill: #ddd;
      }

      .cls-10 {
        fill: #fff;
      }

      .cls-11 {
        fill: #8decff;
      }

      .cls-12 {
        fill: #ffcdee;
      }

      .cls-13 {
        fill: #ff9fd6;
      }

      .cls-14 {
        fill: #da121d;
      }

      .cls-15 {
        fill: #ffeaf8;
      }
    </style>
  </defs>
  <g>
    <g>
      <polygon points="68 6 68 10 66 10 66 8 64 8 64 6 68 6"/>
      <polygon points="72 12 72 14 70 14 70 20 68 20 68 10 70 10 70 12 72 12"/>
      <rect x="74" y="8" width="8" height="2"/>
      <rect x="72" y="10" width="2" height="2"/>
      <rect x="82" y="10" width="2" height="2"/>
      <rect x="84" y="12" width="2" height="2"/>
      <polygon points="96 22 96 24 86 24 86 14 88 14 88 22 96 22"/>
      <rect x="84" y="24" width="2" height="2"/>
      <rect x="72" y="22" width="4" height="2"/>
      <polygon points="72 24 72 26 68 26 68 32 66 32 66 20 68 20 68 24 72 24"/>
      <rect x="76" y="24" width="4" height="2"/>
      <polygon class="cls-6" points="86 14 86 24 84 24 84 26 80 26 80 24 76 24 76 22 72 22 72 24 68 24 68 20 70 20 70 14 72 14 72 12 74 12 74 10 82 10 82 12 84 12 84 14 86 14"/>
      <polygon points="84 26 84 32 82 32 82 28 80 28 80 26 84 26"/>
      <rect x="64" y="32" width="2" height="6"/>
      <rect x="84" y="32" width="2" height="8"/>
      <rect x="56" y="38" width="8" height="2"/>
      <polygon points="90 42 90 44 88 44 88 52 86 52 86 40 88 40 88 42 90 42"/>
      <polygon points="90 56 90 58 86 58 86 60 84 60 84 52 86 52 86 56 90 56"/>
      <rect x="82" y="60" width="2" height="4"/>
      <rect x="80" y="64" width="2" height="2"/>
      <polygon points="80 66 80 70 76 70 76 68 78 68 78 66 80 66"/>
      <rect x="72" y="70" width="4" height="2"/>
      <polygon points="72 72 72 74 68 74 68 80 66 80 66 74 62 74 62 72 72 72"/>
      <rect x="96" y="24" width="2" height="2"/>
      <rect x="98" y="26" width="2" height="2"/>
      <rect x="100" y="28" width="2" height="6"/>
      <rect x="98" y="34" width="2" height="4"/>
      <polygon class="cls-4" points="100 28 100 34 98 34 98 38 96 38 96 40 90 40 90 42 88 42 88 40 86 40 86 32 84 32 84 26 86 26 86 24 96 24 96 26 98 26 98 28 100 28"/>
      <polygon points="100 40 100 42 90 42 90 40 96 40 96 38 98 38 98 40 100 40"/>
      <polygon points="104 42 104 46 102 46 102 44 100 44 100 42 104 42"/>
      <rect x="80" y="70" width="2" height="2"/>
      <rect x="82" y="72" width="2" height="2"/>
      <rect x="84" y="74" width="2" height="2"/>
      <polygon points="72 86 72 88 70 88 70 90 68 90 68 80 70 80 70 86 72 86"/>
      <rect x="84" y="86" width="2" height="2"/>
      <rect x="72" y="88" width="4" height="2"/>
      <rect x="80" y="88" width="4" height="2"/>
      <rect x="76" y="90" width="4" height="2"/>
      <rect x="104" y="46" width="2" height="8"/>
      <rect x="102" y="54" width="2" height="2"/>
      <rect x="100" y="56" width="2" height="2"/>
      <polygon class="cls-4" points="104 46 104 54 102 54 102 56 100 56 100 58 90 58 90 56 86 56 86 52 88 52 88 44 90 44 90 42 100 42 100 44 102 44 102 46 104 46"/>
      <polygon points="100 58 100 60 98 60 98 62 96 62 96 60 90 60 90 58 100 58"/>
      <rect x="98" y="62" width="2" height="4"/>
      <rect x="100" y="66" width="2" height="6"/>
      <rect x="98" y="72" width="2" height="2"/>
      <rect x="96" y="74" width="2" height="2"/>
      <polygon class="cls-15" points="86 76 86 86 84 86 84 88 80 88 80 90 76 90 76 88 72 88 72 86 70 86 70 80 68 80 68 74 72 74 72 72 76 72 76 70 80 70 80 72 82 72 82 74 84 74 84 76 86 76"/>
      <polygon class="cls-12" points="100 66 100 72 98 72 98 74 96 74 96 76 86 76 86 74 84 74 84 72 82 72 82 70 80 70 80 66 82 66 82 64 84 64 84 60 86 60 86 58 90 58 90 60 96 60 96 62 98 62 98 66 100 66"/>
      <polygon points="96 76 96 78 88 78 88 86 86 86 86 76 96 76"/>
      <polygon points="72 50 72 52 68 52 68 51.97 66 51.97 66 50 54 50 54 51.97 52 51.97 52 52 48 52 48 50 52 50 52 48 66 48 66 49.97 68 49.97 68 50 72 50"/>
      <rect x="46" y="52" width="2" height="2"/>
      <rect x="48" y="54" width="2" height="4"/>
      <rect x="50" y="58" width="2" height="2"/>
      <rect x="52" y="60" width="2" height="2"/>
      <rect x="54" y="62" width="2" height="2"/>
      <rect x="72" y="52" width="2" height="2"/>
      <rect x="70" y="54" width="2" height="4"/>
      <rect x="68" y="58" width="2" height="2"/>
      <rect x="66" y="60" width="2" height="2"/>
      <rect x="64" y="62" width="2" height="2"/>
      <rect x="56" y="64" width="8" height="2"/>
      <rect x="56" y="4" width="8" height="2"/>
      <polygon points="56 6 56 8 54 8 54 10 52 10 52 6 56 6"/>
      <rect x="38" y="8" width="8" height="2"/>
      <rect x="46" y="10" width="2" height="2"/>
      <rect x="36" y="10" width="2" height="2"/>
      <polygon points="52 10 52 20 50 20 50 14 48 14 48 12 50 12 50 10 52 10"/>
      <rect x="34" y="12" width="2" height="2"/>
      <rect x="34" y="24" width="2" height="2"/>
      <polygon points="40 26 40 28 38 28 38 32 36 32 36 26 40 26"/>
      <rect x="44" y="22" width="4" height="2"/>
      <rect x="40" y="24" width="4" height="2"/>
      <polygon points="54 20 54 32 52 32 52 26 48 26 48 24 52 24 52 20 54 20"/>
      <rect x="34" y="32" width="2" height="8"/>
      <polygon class="cls-6" points="68 10 68 20 66 20 66 32 64 32 64 38 56 38 56 32 54 32 54 20 52 20 52 10 54 10 54 8 56 8 56 6 64 6 64 8 66 8 66 10 68 10"/>
      <rect x="54" y="32" width="2" height="6"/>
      <polygon points="34 40 34 52 32 52 32 44 30 44 30 42 32 42 32 40 34 40"/>
      <polygon points="36 52 36 60 34 60 34 58 30 58 30 56 34 56 34 52 36 52"/>
      <rect x="36" y="60" width="2" height="4"/>
      <rect x="38" y="64" width="2" height="2"/>
      <polygon points="44 68 44 70 40 70 40 66 42 66 42 68 44 68"/>
      <rect x="44" y="70" width="4" height="2"/>
      <polygon points="52 80 52 90 50 90 50 88 48 88 48 86 50 86 50 80 52 80"/>
      <polygon class="cls-6" points="52 20 52 24 48 24 48 22 44 22 44 24 40 24 40 26 36 26 36 24 34 24 34 14 36 14 36 12 38 12 38 10 46 10 46 12 48 12 48 14 50 14 50 20 52 20"/>
      <polygon points="34 14 34 24 24 24 24 22 32 22 32 14 34 14"/>
      <rect x="22" y="24" width="2" height="2"/>
      <rect x="20" y="26" width="2" height="2"/>
      <rect x="18" y="28" width="2" height="6"/>
      <rect x="20" y="34" width="2" height="4"/>
      <polygon class="cls-4" points="36 26 36 32 34 32 34 40 32 40 32 42 30 42 30 40 24 40 24 38 22 38 22 34 20 34 20 28 22 28 22 26 24 26 24 24 34 24 34 26 36 26"/>
      <polygon points="30 40 30 42 20 42 20 40 22 40 22 38 24 38 24 40 30 40"/>
      <polygon points="20 42 20 44 18 44 18 46 16 46 16 42 20 42"/>
      <rect x="38" y="70" width="2" height="2"/>
      <rect x="36" y="72" width="2" height="2"/>
      <rect x="34" y="74" width="2" height="2"/>
      <polygon points="34 76 34 86 32 86 32 78 24 78 24 76 34 76"/>
      <rect x="34" y="86" width="2" height="2"/>
      <rect x="44" y="88" width="4" height="2"/>
      <rect x="36" y="88" width="4" height="2"/>
      <rect x="40" y="90" width="4" height="2"/>
      <rect x="14" y="46" width="2" height="8"/>
      <rect x="16" y="54" width="2" height="2"/>
      <rect x="18" y="56" width="2" height="2"/>
      <polygon class="cls-4" points="34 52 34 56 30 56 30 58 20 58 20 56 18 56 18 54 16 54 16 46 18 46 18 44 20 44 20 42 30 42 30 44 32 44 32 52 34 52"/>
      <polygon points="30 58 30 60 24 60 24 62 22 62 22 60 20 60 20 58 30 58"/>
      <rect x="20" y="62" width="2" height="4"/>
      <rect x="18" y="66" width="2" height="6"/>
      <rect x="20" y="72" width="2" height="2"/>
      <polygon class="cls-12" points="40 66 40 70 38 70 38 72 36 72 36 74 34 74 34 76 24 76 24 74 22 74 22 72 20 72 20 66 22 66 22 62 24 62 24 60 30 60 30 58 34 58 34 60 36 60 36 64 38 64 38 66 40 66"/>
      <rect x="22" y="74" width="2" height="2"/>
      <polygon points="56 92 56 94 52 94 52 90 54 90 54 92 56 92"/>
      <rect x="56" y="94" width="8" height="2"/>
      <polygon points="68 90 68 94 64 94 64 92 66 92 66 90 68 90"/>
      <polygon class="cls-12" points="52 74 52 80 50 80 50 86 48 86 48 88 44 88 44 90 40 90 40 88 36 88 36 86 34 86 34 76 36 76 36 74 38 74 38 72 40 72 40 70 44 70 44 72 48 72 48 74 52 74"/>
      <polygon points="58 72 58 74 54 74 54 80 52 80 52 74 48 74 48 72 58 72"/>
      <path class="cls-10" d="M84,40v-8h-2v-4h-2v-2h-4v-2h-4v2h-4v6h-2v6h-2v2h-8v-2h-2v-6h-2v-6h-4v-2h-4v2h-4v2h-2v4h-2v8h-2v12h2v8h2v4h2v2h2v2h2v2h4v2h10v2h4v-2h10v-2h4v-2h2v-2h2v-2h2v-4h2v-8h2v-12h-2ZM74,54h-2v4h-2v2h-2v2h-2v2h-2v2h-8v-2h-2v-2h-2v-2h-2v-2h-2v-4h-2v-2h2v-2h4v-2h14v1.97h2v.03h4v2h2v2Z"/>
      <polygon class="cls-6" points="72 52 72 54 70 54 70 58 68 58 68 60 66 60 66 62 64 62 64 64 56 64 56 62 54 62 54 60 52 60 52 58 50 58 50 54 48 54 48 52 52 52 52 51.97 54 51.97 54 50 66 50 66 51.97 68 51.97 68 52 72 52"/>
      <polygon class="cls-15" points="68 80 68 90 66 90 66 92 64 92 64 94 56 94 56 92 54 92 54 90 52 90 52 80 54 80 54 74 58 74 58 76 62 76 62 74 66 74 66 80 68 80"/>
      <rect x="58" y="74" width="4" height="2"/>
    </g>
    <g>
      <g>
        <rect class="cls-12" x="26" y="42" width="2" height="2"/>
        <rect class="cls-12" x="28" y="42" width="2" height="2"/>
        <rect class="cls-12" x="22" y="42" width="2" height="2"/>
        <rect class="cls-12" x="24" y="42" width="2" height="2"/>
        <rect class="cls-12" x="16" y="50" width="2" height="2"/>
        <rect class="cls-12" x="16" y="52" width="2" height="2"/>
        <rect class="cls-12" x="19.88" y="54" width="2" height="2"/>
        <rect class="cls-12" x="22" y="56" width="2" height="2"/>
        <rect class="cls-12" x="24" y="56" width="2" height="2"/>
        <rect class="cls-12" x="26" y="56" width="2" height="2"/>
        <rect class="cls-12" x="27.99" y="56" width="2" height="2"/>
        <rect class="cls-12" x="32" y="54" width="2" height="2" transform="translate(88 22) rotate(90)"/>
      </g>
      <g>
        <rect class="cls-12" x="92" y="42" width="2" height="2" transform="translate(186 86) rotate(-180)"/>
        <rect class="cls-12" x="90" y="42" width="2" height="2" transform="translate(182 86) rotate(-180)"/>
        <rect class="cls-12" x="96" y="42" width="2" height="2" transform="translate(194 86) rotate(-180)"/>
        <rect class="cls-12" x="94" y="42" width="2" height="2" transform="translate(190 86) rotate(-180)"/>
        <rect class="cls-12" x="102" y="50" width="2" height="2" transform="translate(206 102.01) rotate(-180)"/>
        <rect class="cls-12" x="102" y="52" width="2" height="2" transform="translate(206 106.01) rotate(-180)"/>
        <rect class="cls-12" x="98.12" y="54" width="2" height="2" transform="translate(198.24 110.01) rotate(-180)"/>
        <rect class="cls-12" x="96" y="56" width="2" height="2" transform="translate(194 114.01) rotate(-180)"/>
        <rect class="cls-12" x="94" y="56" width="2" height="2" transform="translate(190.01 114.01) rotate(-180)"/>
        <rect class="cls-12" x="92" y="56" width="2" height="2" transform="translate(186.01 114.01) rotate(-180)"/>
        <rect class="cls-12" x="90.01" y="56" width="2" height="2" transform="translate(182.01 114.01) rotate(-180)"/>
        <rect class="cls-12" x="86" y="54" width="2" height="2" transform="translate(142 -32) rotate(90)"/>
      </g>
      <rect class="cls-15" x="20" y="42" width="2" height="2"/>
      <rect class="cls-15" x="18" y="44" width="2" height="2"/>
      <rect class="cls-15" x="16" y="46" width="2" height="2"/>
      <rect class="cls-15" x="16" y="48" width="2" height="2"/>
      <rect class="cls-15" x="18" y="54" width="2" height="2"/>
      <rect class="cls-15" x="20" y="56" width="2" height="2"/>
      <rect class="cls-15" x="32" y="52" width="2" height="2" transform="translate(86 20) rotate(90)"/>
      <rect class="cls-15" x="98" y="42" width="2" height="2" transform="translate(198 86) rotate(-180)"/>
      <rect class="cls-15" x="100" y="44" width="2" height="2" transform="translate(202 90.01) rotate(-180)"/>
      <rect class="cls-15" x="102" y="46" width="2" height="2" transform="translate(206 94.01) rotate(-180)"/>
      <rect class="cls-15" x="102" y="48" width="2" height="2" transform="translate(206 98.01) rotate(-180)"/>
      <rect class="cls-15" x="100" y="54" width="2" height="2" transform="translate(202 110.01) rotate(-180)"/>
      <rect class="cls-15" x="98" y="56" width="2" height="2" transform="translate(198 114.01) rotate(-180)"/>
      <rect class="cls-15" x="86" y="52" width="2" height="2" transform="translate(140 -34) rotate(90)"/>
      <rect class="cls-15" x="88" y="50" width="2" height="2" transform="translate(140 -38) rotate(90)"/>
      <rect class="cls-15" x="88" y="48" width="2" height="2" transform="translate(138 -40) rotate(90)"/>
      <rect class="cls-15" x="88" y="46" width="2" height="2" transform="translate(136 -42) rotate(90)"/>
      <rect class="cls-15" x="88" y="44" width="2" height="2" transform="translate(134 -44) rotate(90)"/>
    </g>
    <g>
      <g>
        <g>
          <rect class="cls-12" x="26" y="24" width="2" height="2"/>
          <rect class="cls-12" x="28" y="24" width="2" height="2"/>
          <rect class="cls-12" x="30" y="24" width="2" height="2"/>
          <rect class="cls-12" x="32" y="24" width="2" height="2"/>
          <rect class="cls-12" x="34" y="30" width="2" height="2"/>
          <rect class="cls-12" x="22" y="34" width="2" height="2"/>
          <rect class="cls-12" x="26" y="38" width="2" height="2"/>
        </g>
        <g>
          <rect class="cls-6" x="24" y="24" width="2" height="2"/>
          <rect class="cls-6" x="22" y="26" width="2" height="2"/>
          <rect class="cls-6" x="20" y="28" width="2" height="2"/>
          <rect class="cls-6" x="20" y="30" width="2" height="2"/>
          <rect class="cls-6" x="20" y="32" width="2" height="2"/>
          <rect class="cls-6" x="22" y="36" width="2" height="2"/>
          <rect class="cls-6" x="24" y="38" width="2" height="2"/>
          <rect class="cls-6" x="32" y="38" width="2" height="2"/>
          <rect class="cls-6" x="30" y="40" width="2" height="2"/>
        </g>
      </g>
      <g>
        <g>
          <rect class="cls-12" x="92" y="24" width="2" height="2" transform="translate(186 50) rotate(-180)"/>
          <rect class="cls-12" x="90" y="24" width="2" height="2" transform="translate(182 50) rotate(-180)"/>
          <rect class="cls-12" x="88" y="24" width="2" height="2" transform="translate(178 50) rotate(-180)"/>
          <rect class="cls-12" x="86" y="24" width="2" height="2" transform="translate(174 50) rotate(-180)"/>
          <rect class="cls-6" x="84" y="30" width="2" height="2" transform="translate(170 62) rotate(-180)"/>
          <rect class="cls-6" x="84" y="28" width="2" height="2" transform="translate(170 58.01) rotate(-180)"/>
          <rect class="cls-6" x="84" y="26.01" width="2" height="2" transform="translate(170 54.01) rotate(-180)"/>
          <rect class="cls-12" x="96" y="34" width="2" height="2" transform="translate(194 70) rotate(-180)"/>
          <rect class="cls-12" x="92" y="38" width="2" height="2" transform="translate(186 78) rotate(-180)"/>
        </g>
        <g>
          <rect class="cls-12" x="94" y="24" width="2" height="2" transform="translate(190 50) rotate(-180)"/>
          <rect class="cls-12" x="96" y="26" width="2" height="2" transform="translate(194 54) rotate(-180)"/>
          <rect class="cls-12" x="98" y="28" width="2" height="2" transform="translate(198 58) rotate(-180)"/>
          <rect class="cls-12" x="98" y="30" width="2" height="2" transform="translate(198 62) rotate(-180)"/>
          <rect class="cls-12" x="98" y="32" width="2" height="2" transform="translate(198 66) rotate(-180)"/>
          <rect class="cls-12" x="96" y="36" width="2" height="2" transform="translate(194 74) rotate(-180)"/>
          <rect class="cls-12" x="94" y="38" width="2" height="2" transform="translate(190 78) rotate(-180)"/>
          <rect class="cls-6" x="86" y="38" width="2" height="2" transform="translate(174 78) rotate(-180)"/>
          <rect class="cls-6" x="88" y="40" width="2" height="2" transform="translate(178 82) rotate(-180)"/>
        </g>
      </g>
      <g>
        <rect class="cls-4" x="38" y="10" width="2" height="2"/>
        <rect class="cls-4" x="36" y="12" width="2" height="2"/>
        <rect class="cls-4" x="34" y="14" width="2" height="2"/>
        <rect class="cls-4" x="34" y="22" width="2" height="2"/>
        <rect class="cls-4" x="36" y="24" width="2" height="2"/>
        <rect class="cls-4" x="48" y="22" width="2" height="2"/>
        <g>
          <rect class="cls-12" x="40" y="10" width="2" height="2"/>
          <rect class="cls-12" x="42" y="10" width="2" height="2"/>
          <rect class="cls-12" x="44" y="10" width="2" height="2"/>
          <rect class="cls-12" x="34" y="16" width="2" height="2"/>
          <rect class="cls-12" x="34" y="18" width="2" height="2"/>
          <rect class="cls-12" x="34" y="20" width="2" height="2"/>
          <rect class="cls-12" x="50" y="22" width="2" height="2"/>
        </g>
      </g>
      <g>
        <rect class="cls-8" x="74" y="10" width="2" height="2"/>
        <rect class="cls-8" x="76" y="10" width="2" height="2"/>
        <rect class="cls-8" x="78" y="10" width="2" height="2"/>
        <rect class="cls-8" x="80" y="10" width="2" height="2"/>
        <rect class="cls-8" x="72" y="12" width="2" height="2"/>
        <rect class="cls-8" x="82" y="12" width="2" height="2"/>
        <rect class="cls-8" x="70" y="14" width="2" height="2"/>
        <rect class="cls-8" x="84" y="14" width="2" height="2"/>
        <rect class="cls-8" x="70" y="16" width="2" height="2"/>
        <rect class="cls-8" x="70" y="18" width="2" height="2"/>
        <rect class="cls-8" x="68" y="20" width="2" height="2"/>
        <rect class="cls-8" x="68" y="22" width="2" height="2"/>
        <rect class="cls-8" x="76" y="22" width="2" height="2"/>
        <rect class="cls-8" x="80" y="24" width="2" height="2"/>
        <rect class="cls-8" x="82" y="24" width="2" height="2"/>
      </g>
      <g>
        <rect class="cls-12" x="56" y="6" width="2" height="2"/>
        <rect class="cls-12" x="54" y="8" width="2" height="2"/>
        <rect class="cls-12" x="52" y="10" width="2" height="2"/>
        <rect class="cls-12" x="52" y="18" width="2" height="2"/>
        <rect class="cls-12" x="54" y="30" width="2" height="2"/>
        <rect class="cls-12" x="56" y="34" width="2" height="2"/>
        <rect class="cls-12" x="56" y="36" width="2" height="2"/>
        <g>
          <rect class="cls-4" x="58" y="6" width="2" height="2"/>
          <rect class="cls-3" x="64" y="8" width="2" height="2"/>
          <rect class="cls-3" x="66" y="10" width="2" height="2"/>
          <rect class="cls-4" x="52" y="12" width="2" height="2"/>
          <rect class="cls-4" x="52" y="14" width="2" height="2"/>
          <rect class="cls-4" x="52" y="16" width="2" height="2"/>
          <rect class="cls-3" x="66" y="16" width="2" height="2"/>
          <rect class="cls-3" x="66" y="18" width="2" height="2"/>
          <rect class="cls-4" x="54" y="20" width="2" height="2"/>
          <rect class="cls-4" x="54" y="22" width="2" height="2"/>
          <rect class="cls-4" x="54" y="24" width="2" height="2"/>
          <rect class="cls-4" x="54" y="26" width="2" height="2"/>
          <rect class="cls-4" x="54" y="28" width="2" height="2"/>
          <rect class="cls-4" x="56" y="32" width="2" height="2"/>
          <rect class="cls-4" x="58" y="36" width="2" height="2"/>
        </g>
      </g>
      <g>
        <rect class="cls-12" x="62" y="6" width="2" height="2" transform="translate(126 14) rotate(-180)"/>
        <rect class="cls-12" x="64" y="8" width="2" height="2" transform="translate(130 18) rotate(-180)"/>
        <rect class="cls-12" x="66" y="10" width="2" height="2" transform="translate(134 22) rotate(-180)"/>
        <rect class="cls-12" x="66" y="18" width="2" height="2" transform="translate(134 38) rotate(-180)"/>
        <rect class="cls-12" x="64" y="30" width="2" height="2" transform="translate(130 62) rotate(-180)"/>
        <rect class="cls-12" x="62" y="34" width="2" height="2" transform="translate(126 70) rotate(-180)"/>
        <rect class="cls-12" x="62" y="36" width="2" height="2" transform="translate(126 74) rotate(-180)"/>
        <g>
          <rect class="cls-4" x="60" y="6" width="2" height="2" transform="translate(122 14) rotate(-180)"/>
          <rect class="cls-4" x="66" y="12" width="2" height="2" transform="translate(134 26) rotate(-180)"/>
          <rect class="cls-4" x="66" y="14" width="2" height="2" transform="translate(134 30) rotate(-180)"/>
          <rect class="cls-4" x="66" y="16" width="2" height="2" transform="translate(134 34) rotate(-180)"/>
          <rect class="cls-4" x="64" y="20" width="2" height="2" transform="translate(130 42) rotate(-180)"/>
          <rect class="cls-4" x="64" y="22" width="2" height="2" transform="translate(130 46) rotate(-180)"/>
          <rect class="cls-4" x="64" y="24" width="2" height="2" transform="translate(130 50) rotate(-180)"/>
          <rect class="cls-4" x="64" y="26" width="2" height="2" transform="translate(130 54) rotate(-180)"/>
          <rect class="cls-4" x="64" y="28" width="2" height="2" transform="translate(130 58) rotate(-180)"/>
          <rect class="cls-4" x="62" y="32" width="2" height="2" transform="translate(126 66) rotate(-180)"/>
          <rect class="cls-4" x="60" y="36" width="2" height="2" transform="translate(122 74) rotate(-180)"/>
        </g>
      </g>
    </g>
  </g>
  <g>
    <rect class="cls-7" x="48" y="26" width="2" height="2"/>
    <rect class="cls-7" x="46" y="24" width="2" height="2"/>
    <rect class="cls-9" x="44" y="24" width="2" height="2"/>
    <rect class="cls-7" x="42" y="26" width="2" height="2"/>
    <rect class="cls-9" x="40" y="26" width="2" height="2"/>
    <rect class="cls-9" x="38" y="28" width="2" height="2"/>
    <rect class="cls-7" x="38" y="30" width="2" height="2"/>
    <rect class="cls-9" x="36" y="32" width="2" height="2"/>
    <rect class="cls-7" x="36" y="34" width="2" height="2"/>
    <rect class="cls-7" x="36" y="36" width="2" height="2"/>
    <rect class="cls-7" x="36" y="38" width="2" height="2"/>
    <rect class="cls-9" x="34" y="40" width="2" height="2"/>
    <rect class="cls-7" x="34" y="42" width="2" height="2"/>
    <rect class="cls-7" x="34" y="44" width="2" height="2"/>
    <rect class="cls-7" x="34" y="46" width="2" height="2"/>
    <rect class="cls-7" x="34" y="48" width="2" height="2"/>
    <rect class="cls-7" x="36" y="52" width="2" height="2"/>
    <rect class="cls-7" x="36" y="54" width="2" height="2"/>
    <rect class="cls-7" x="36" y="56" width="2" height="2"/>
    <rect class="cls-7" x="36" y="58" width="2" height="2"/>
    <rect class="cls-7" x="38" y="60" width="2" height="2"/>
    <rect class="cls-9" x="38" y="62" width="2" height="2"/>
    <rect class="cls-9" x="40" y="64" width="2" height="2"/>
    <rect class="cls-9" x="42" y="66" width="2" height="2"/>
    <rect class="cls-9" x="44" y="68" width="2" height="2"/>
    <rect class="cls-9" x="48" y="70" width="2" height="2"/>
    <rect class="cls-9" x="58" y="72" width="2" height="2"/>
    <rect class="cls-7" x="34" y="50" width="2" height="2"/>
    <rect class="cls-7" x="50" y="26" width="2" height="2"/>
    <rect class="cls-7" x="52" y="32" width="2" height="2"/>
    <rect class="cls-7" x="54" y="38" width="2" height="2"/>
  </g>
  <g>
    <rect class="cls-7" x="70" y="26" width="2" height="2" transform="translate(142 54) rotate(-180)"/>
    <rect class="cls-9" x="72" y="24" width="2" height="2" transform="translate(146 50) rotate(-180)"/>
    <rect class="cls-7" x="74" y="24" width="2" height="2" transform="translate(150 50) rotate(-180)"/>
    <rect class="cls-7" x="76" y="26" width="2" height="2" transform="translate(154 54) rotate(-180)"/>
    <rect class="cls-7" x="78" y="26" width="2" height="2" transform="translate(158 54) rotate(-180)"/>
    <rect class="cls-7" x="80" y="28" width="2" height="2" transform="translate(162 58.01) rotate(-180)"/>
    <rect class="cls-7" x="80" y="30" width="2" height="2" transform="translate(162 62) rotate(-180)"/>
    <rect class="cls-7" x="82" y="32" width="2" height="2" transform="translate(166 66.01) rotate(-180)"/>
    <rect class="cls-7" x="82" y="34" width="2" height="2" transform="translate(166 70.01) rotate(-180)"/>
    <rect class="cls-7" x="82" y="36" width="2" height="2" transform="translate(166 74.01) rotate(-180)"/>
    <rect class="cls-7" x="82" y="38" width="2" height="2" transform="translate(166 78.01) rotate(-180)"/>
    <rect class="cls-7" x="84" y="40" width="2" height="2" transform="translate(170 82) rotate(-180)"/>
    <rect class="cls-7" x="84" y="42" width="2" height="2" transform="translate(170 86) rotate(-180)"/>
    <rect class="cls-7" x="84" y="44" width="2" height="2" transform="translate(170 90) rotate(-180)"/>
    <rect class="cls-7" x="84" y="46" width="2" height="2" transform="translate(170 94.01) rotate(-180)"/>
    <rect class="cls-7" x="84" y="48" width="2" height="2" transform="translate(170 98.01) rotate(-180)"/>
    <rect class="cls-7" x="82" y="52" width="2" height="2" transform="translate(166 106) rotate(-180)"/>
    <rect class="cls-7" x="82" y="54" width="2" height="2" transform="translate(166 110.01) rotate(-180)"/>
    <rect class="cls-7" x="82" y="56" width="2" height="2" transform="translate(166 114.01) rotate(-180)"/>
    <rect class="cls-9" x="82" y="58" width="2" height="2" transform="translate(166 118.01) rotate(-180)"/>
    <rect class="cls-7" x="80" y="60" width="2" height="2" transform="translate(162 122.01) rotate(-180)"/>
    <rect class="cls-9" x="80" y="62" width="2" height="2" transform="translate(162 126.01) rotate(-180)"/>
    <rect class="cls-7" x="78" y="64" width="2" height="2" transform="translate(158 130.01) rotate(-180)"/>
    <rect class="cls-7" x="76" y="66" width="2" height="2" transform="translate(154 134.01) rotate(-180)"/>
    <rect class="cls-9" x="74" y="68" width="2" height="2" transform="translate(150 138.01) rotate(-180)"/>
    <rect class="cls-7" x="70" y="70" width="2" height="2" transform="translate(142 142.01) rotate(-180)"/>
    <rect class="cls-7" x="84" y="50" width="2" height="2" transform="translate(170 102.01) rotate(-180)"/>
    <rect class="cls-9" x="68" y="26" width="2" height="2" transform="translate(138 54) rotate(-180)"/>
    <rect class="cls-9" x="66" y="32" width="2" height="2" transform="translate(134 66) rotate(-180)"/>
    <rect class="cls-9" x="64" y="38" width="2" height="2" transform="translate(130 78) rotate(-180)"/>
  </g>
  <g>
    <rect class="cls-11" x="52" y="42" width="1" height="1"/>
    <rect class="cls-11" x="52" y="43" width="1" height="1"/>
    <rect class="cls-1" x="52" y="45" width="1" height="1"/>
    <rect class="cls-11" x="51" y="43" width="1" height="1"/>
    <g>
      <rect class="cls-14" x="53" y="42" width="1" height="1"/>
      <rect class="cls-14" x="52" y="41" width="1" height="1"/>
      <rect class="cls-14" x="53" y="41" width="1" height="1"/>
      <rect class="cls-14" x="52" y="44" width="1" height="1"/>
      <rect class="cls-14" x="53" y="44" width="1" height="1"/>
      <rect class="cls-14" x="53" y="43" width="1" height="1"/>
      <rect class="cls-14" x="52" y="46" width="1" height="1"/>
      <rect class="cls-14" x="53" y="45" width="1" height="1"/>
      <rect class="cls-14" x="53" y="46" width="1" height="1"/>
      <rect class="cls-14" x="51" y="47" width="1" height="1"/>
      <rect class="cls-14" x="50" y="47" width="1" height="1"/>
      <rect class="cls-14" x="51" y="42" width="1" height="1"/>
      <rect class="cls-14" x="50" y="44" width="1" height="1"/>
      <rect class="cls-14" x="51" y="44" width="1" height="1"/>
      <rect class="cls-14" x="50" y="43" width="1" height="1"/>
      <rect class="cls-14" x="50" y="46" width="1" height="1"/>
      <rect class="cls-14" x="51" y="46" width="1" height="1"/>
      <rect class="cls-14" x="50" y="45" width="1" height="1"/>
      <rect class="cls-14" x="49" y="46" width="1" height="1"/>
      <rect class="cls-14" x="49" y="45" width="1" height="1"/>
      <rect class="cls-14" x="51" y="45" width="1" height="1"/>
      <rect class="cls-14" x="54" y="42" width="1" height="1"/>
      <rect class="cls-14" x="54" y="44" width="1" height="1"/>
      <rect class="cls-14" x="54" y="43" width="1" height="1"/>
    </g>
  </g>
  <g>
    <rect class="cls-13" x="67" y="42" width="1" height="1" transform="translate(134.99 85) rotate(-180)"/>
    <rect class="cls-13" x="67" y="43" width="1" height="1" transform="translate(134.99 87) rotate(-180)"/>
    <rect class="cls-2" x="67" y="45" width="1" height="1" transform="translate(134.99 91) rotate(-180)"/>
    <rect class="cls-13" x="68" y="43" width="1" height="1" transform="translate(136.99 87) rotate(-180)"/>
    <g>
      <rect class="cls-5" x="66" y="42" width="1" height="1" transform="translate(132.99 85) rotate(-180)"/>
      <rect class="cls-5" x="67" y="41" width="1" height="1" transform="translate(134.99 83) rotate(-180)"/>
      <rect class="cls-5" x="66" y="41" width="1" height="1" transform="translate(132.99 83) rotate(-180)"/>
      <rect class="cls-5" x="67" y="44" width="1" height="1" transform="translate(134.99 89) rotate(-180)"/>
      <rect class="cls-5" x="66" y="44" width="1" height="1" transform="translate(132.99 89) rotate(-180)"/>
      <rect class="cls-5" x="66" y="43" width="1" height="1" transform="translate(132.99 87) rotate(-180)"/>
      <rect class="cls-5" x="67" y="46" width="1" height="1" transform="translate(134.99 93) rotate(-180)"/>
      <rect class="cls-5" x="66" y="45" width="1" height="1" transform="translate(132.99 91) rotate(-180)"/>
      <rect class="cls-5" x="66" y="46" width="1" height="1" transform="translate(132.99 93) rotate(-180)"/>
      <rect class="cls-5" x="68" y="47" width="1" height="1" transform="translate(136.99 95) rotate(-180)"/>
      <rect class="cls-5" x="69" y="47" width="1" height="1" transform="translate(138.99 95) rotate(-180)"/>
      <rect class="cls-5" x="68" y="42" width="1" height="1" transform="translate(136.99 85) rotate(-180)"/>
      <rect class="cls-5" x="69" y="44" width="1" height="1" transform="translate(138.99 89) rotate(-180)"/>
      <rect class="cls-5" x="68" y="44" width="1" height="1" transform="translate(136.99 89) rotate(-180)"/>
      <rect class="cls-5" x="69" y="43" width="1" height="1" transform="translate(138.99 87) rotate(-180)"/>
      <rect class="cls-5" x="69" y="46" width="1" height="1" transform="translate(138.99 93) rotate(-180)"/>
      <rect class="cls-5" x="68" y="46" width="1" height="1" transform="translate(136.99 93) rotate(-180)"/>
      <rect class="cls-5" x="69" y="45" width="1" height="1" transform="translate(138.99 91) rotate(-180)"/>
      <rect class="cls-5" x="70" y="46" width="1" height="1" transform="translate(140.99 93) rotate(-180)"/>
      <rect class="cls-5" x="70" y="45" width="1" height="1" transform="translate(140.99 91) rotate(-180)"/>
      <rect class="cls-5" x="68" y="45" width="1" height="1" transform="translate(136.99 91) rotate(-180)"/>
      <rect class="cls-5" x="65" y="42" width="1" height="1" transform="translate(130.99 85) rotate(-180)"/>
      <rect class="cls-5" x="65" y="44" width="1" height="1" transform="translate(130.99 89) rotate(-180)"/>
      <rect class="cls-5" x="65" y="43" width="1" height="1" transform="translate(130.99 87) rotate(-180)"/>
    </g>
  </g>
</svg>