<?xml version="1.0" encoding="UTF-8"?>
<svg id="Layer_1" data-name="Layer 1" xmlns="http://www.w3.org/2000/svg" xmlns:xlink="http://www.w3.org/1999/xlink" viewBox="0 0 120 100">
  <defs>
    <style>
      .cls-1 {
        fill: #ff95dc;
      }

      .cls-2 {
        fill: #ff5c8c;
      }

      .cls-3 {
        fill: url(#linear-gradient);
      }

      .cls-4 {
        fill: #fff;
      }

      .cls-5 {
        fill: #ffcdee;
      }

      .cls-6 {
        fill: #ffeaf8;
      }
    </style>
    <linearGradient id="linear-gradient" x1="9.8" y1="89.75" x2="101.12" y2="50.7" gradientUnits="userSpaceOnUse">
      <stop offset="0" stop-color="#ff95dc"/>
      <stop offset="1" stop-color="#fff"/>
    </linearGradient>
  </defs>
  <polygon class="cls-4" points="111 43 111 41 61 41 61 39 71 39 71 37 81 37 81 35 91 35 91 33 99 33 99 31 107 31 107 29 109 29 109 17 107 17 107 13 105 13 105 11 103 11 103 9 95 9 95 11 91 11 91 13 81 13 81 15 71 15 71 17 61 17 61 19 51 19 51 21 41 21 41 23 31 23 31 25 21 25 21 27 11 27 11 29 9 29 9 31 7 31 7 35 9 35 9 39 11 39 11 41 13 41 13 91 15 91 15 93 111 93 111 91 113 91 113 43 111 43"/>
  <g>
    <polygon class="cls-2" points="106 18 106 28 104 28 104 26 102 26 102 24 96 24 96 22 92 22 92 20 88 20 88 18 84 18 84 16 92 16 92 14 96 14 96 12 102 12 102 14 104 14 104 18 106 18"/>
    <polygon class="cls-2" points="102 26 102 28 98 28 98 30 90 30 90 32 80 32 80 34 78 34 78 32 76 32 76 30 72 30 72 28 70 28 70 26 66 26 66 24 64 24 64 22 62 22 62 20 72 20 72 18 84 18 84 20 88 20 88 22 92 22 92 24 96 24 96 26 102 26"/>
    <polygon class="cls-2" points="76 32 76 34 70 34 70 36 60 36 60 38 58 38 58 36 54 36 54 34 52 34 52 32 48 32 48 30 42 30 42 28 40 28 40 26 42 26 42 24 52 24 52 22 60 22 60 24 64 24 64 26 66 26 66 28 70 28 70 30 72 30 72 32 76 32"/>
    <polygon class="cls-2" points="34 40 34 42 16 42 16 40 14 40 14 38 12 38 12 34 10 34 10 32 12 32 12 30 16 30 16 32 18 32 18 34 22 34 22 36 26 36 26 38 30 38 30 40 34 40"/>
    <polygon class="cls-2" points="54 36 54 38 50 38 50 40 44 40 44 42 36 42 36 40 34 40 34 38 30 38 30 36 26 36 26 34 22 34 22 32 18 32 18 30 22 30 22 28 32 28 32 26 38 26 38 28 40 28 40 30 42 30 42 32 48 32 48 34 52 34 52 36 54 36"/>
    <rect class="cls-3" x="16" y="44" width="94" height="46"/>
  </g>
  <g>
    <rect x="56" y="54" width="2" height="2"/>
    <rect x="56" y="56" width="2" height="2"/>
    <rect x="56" y="58" width="2" height="2"/>
    <rect x="56" y="60" width="2" height="2"/>
    <rect x="56" y="62" width="2" height="2"/>
    <rect x="56" y="64" width="2" height="2"/>
    <rect x="56" y="66" width="2" height="2"/>
    <g>
      <rect x="58" y="54" width="2" height="2"/>
      <rect x="60" y="56" width="2" height="2"/>
      <rect x="62" y="58" width="2" height="2"/>
      <rect x="64" y="58" width="2" height="2"/>
      <rect x="66" y="60" width="2" height="2"/>
      <rect x="68" y="60" width="2" height="2"/>
      <rect x="70" y="62" width="2" height="2"/>
      <rect x="72" y="64" width="2" height="2"/>
      <rect x="72" y="66" width="2" height="2"/>
    </g>
    <g>
      <rect x="58" y="76" width="2" height="2"/>
      <rect x="60" y="74" width="2" height="2"/>
      <rect x="62" y="72" width="2" height="2"/>
      <rect x="64" y="72" width="2" height="2"/>
      <rect x="66" y="70" width="2" height="2"/>
      <rect x="68" y="70" width="2" height="2"/>
      <rect x="70" y="68" width="2" height="2"/>
      <rect x="72" y="66" width="2" height="2"/>
      <rect x="72" y="64" width="2" height="2"/>
    </g>
    <rect x="56" y="68" width="2" height="2"/>
    <rect x="56" y="70" width="2" height="2"/>
    <rect x="56" y="72" width="2" height="2"/>
    <polygon class="cls-4" points="72 64 72 68 70 68 70 70 66 70 66 72 62 72 62 74 60 74 60 76 58 76 58 56 60 56 60 58 62 58 62 60 66 60 66 62 70 62 70 64 72 64"/>
    <rect x="56" y="74" width="2" height="2"/>
    <rect x="56" y="76" width="2" height="2"/>
  </g>
  <g>
    <polygon points="100 12 102 12 102 10 100 10 98 10 96 10 96 12 98 12 100 12"/>
    <polygon points="96 14 96 12 94 12 92 12 92 14 94 14 96 14"/>
    <rect x="102" y="12" width="2" height="2"/>
    <polygon points="76 18 78 18 80 18 82 18 84 18 84 16 86 16 88 16 90 16 92 16 92 14 90 14 88 14 86 14 84 14 82 14 82 16 80 16 78 16 76 16 74 16 72 16 72 18 74 18 76 18"/>
    <polygon points="104 18 106 18 106 16 106 14 104 14 104 16 104 18"/>
    <polygon points="66 20 68 20 70 20 72 20 72 18 70 18 68 18 66 18 64 18 62 18 62 20 64 20 66 20"/>
    <polygon points="86 18 84 18 84 20 86 20 88 20 88 18 86 18"/>
    <polygon points="56 22 58 22 60 22 60 24 62 24 64 24 64 22 62 22 62 20 60 20 58 20 56 20 54 20 52 20 52 22 54 22 56 22"/>
    <polygon points="90 20 88 20 88 22 90 22 92 22 92 20 90 20"/>
    <polygon points="106 22 106 24 106 26 106 28 108 28 108 26 108 24 108 22 108 20 108 18 106 18 106 20 106 22"/>
    <polygon points="46 24 48 24 50 24 52 24 52 22 50 22 48 22 46 22 44 22 42 22 42 24 44 24 46 24"/>
    <polygon points="94 22 92 22 92 24 94 24 96 24 96 22 94 22"/>
    <polygon points="36 26 38 26 38 28 40 28 40 26 42 26 42 24 40 24 38 24 36 24 34 24 32 24 32 26 34 26 36 26"/>
    <rect x="64" y="24" width="2" height="2"/>
    <polygon points="100 24 98 24 96 24 96 26 98 26 100 26 102 26 102 24 100 24"/>
    <polygon points="26 28 28 28 30 28 32 28 32 26 30 26 28 26 26 26 24 26 22 26 22 28 24 28 26 28"/>
    <polygon points="68 26 66 26 66 28 68 28 70 28 70 26 68 26"/>
    <polygon points="104 26 102 26 102 28 100 28 98 28 98 30 100 30 102 30 104 30 106 30 106 28 104 28 104 26"/>
    <polygon points="16 30 16 32 18 32 18 30 20 30 22 30 22 28 20 28 18 28 16 28 14 28 12 28 12 30 14 30 16 30"/>
    <rect x="40" y="28" width="2" height="2"/>
    <rect x="70" y="28" width="2" height="2"/>
    <rect x="10" y="30" width="2" height="2"/>
    <polygon points="46 30 44 30 42 30 42 32 44 32 46 32 48 32 48 30 46 30"/>
    <polygon points="74 30 72 30 72 32 74 32 76 32 76 30 74 30"/>
    <polygon points="94 30 92 30 90 30 90 32 92 32 94 32 96 32 98 32 98 30 96 30 94 30"/>
    <rect x="8" y="32" width="2" height="2"/>
    <polygon points="20 32 18 32 18 34 20 34 22 34 22 32 20 32"/>
    <polygon points="50 32 48 32 48 34 50 34 52 34 52 32 50 32"/>
    <polygon points="78 32 76 32 76 34 74 34 72 34 70 34 70 36 72 36 74 36 76 36 78 36 80 36 80 34 78 34 78 32"/>
    <polygon points="86 32 84 32 82 32 80 32 80 34 82 34 84 34 86 34 88 34 90 34 90 32 88 32 86 32"/>
    <polygon points="12 34 10 34 10 36 10 38 12 38 12 36 12 34"/>
    <polygon points="24 34 22 34 22 36 24 36 26 36 26 34 24 34"/>
    <rect x="52" y="34" width="2" height="2"/>
    <polygon points="28 36 26 36 26 38 28 38 30 38 30 36 28 36"/>
    <polygon points="58 36 56 36 54 36 54 38 52 38 50 38 50 40 52 40 54 40 56 40 58 40 60 40 60 38 58 38 58 36"/>
    <polygon points="66 36 64 36 62 36 60 36 60 38 62 38 64 38 66 38 68 38 70 38 70 36 68 36 66 36"/>
    <rect x="12" y="38" width="2" height="2"/>
    <polygon points="32 38 30 38 30 40 32 40 34 40 34 38 32 38"/>
    <polygon points="110 44 110 46 110 48 110 50 110 52 110 54 110 56 110 58 110 60 110 62 110 64 110 66 110 68 110 70 110 72 110 74 110 76 110 78 110 80 110 82 110 84 110 86 110 88 110 90 112 90 112 88 112 86 112 84 112 82 112 80 112 78 112 76 112 74 112 72 112 70 112 68 112 66 112 64 112 62 112 60 112 58 112 56 112 54 112 52 112 50 112 48 112 46 112 44 110 44"/>
    <polygon points="16 86 16 84 16 82 16 80 16 78 16 76 16 74 16 72 16 70 16 68 16 66 16 64 16 62 16 60 16 58 16 56 16 54 16 52 16 50 16 48 16 46 16 44 18 44 20 44 22 44 24 44 26 44 28 44 30 44 32 44 34 44 36 44 38 44 40 44 42 44 44 44 46 44 48 44 50 44 52 44 54 44 56 44 58 44 60 44 62 44 64 44 66 44 68 44 70 44 72 44 74 44 76 44 78 44 80 44 82 44 84 44 86 44 88 44 90 44 92 44 94 44 96 44 98 44 100 44 102 44 104 44 106 44 108 44 110 44 110 42 108 42 106 42 104 42 102 42 100 42 98 42 96 42 94 42 92 42 90 42 88 42 86 42 84 42 82 42 80 42 78 42 76 42 74 42 72 42 70 42 68 42 66 42 64 42 62 42 60 42 58 42 56 42 54 42 52 42 50 42 50 40 48 40 46 40 44 40 44 42 42 42 40 42 38 42 36 42 36 40 34 40 34 42 32 42 30 42 28 42 26 42 24 42 22 42 20 42 18 42 16 42 16 40 14 40 14 42 14 44 14 46 14 48 14 50 14 52 14 54 14 56 14 58 14 60 14 62 14 64 14 66 14 68 14 70 14 72 14 74 14 76 14 78 14 80 14 82 14 84 14 86 14 88 14 90 16 90 16 88 16 86"/>
    <polygon points="106 90 104 90 102 90 100 90 98 90 96 90 94 90 92 90 90 90 88 90 86 90 84 90 82 90 80 90 78 90 76 90 74 90 72 90 70 90 68 90 66 90 64 90 62 90 60 90 58 90 56 90 54 90 52 90 50 90 48 90 46 90 44 90 42 90 40 90 38 90 36 90 34 90 32 90 30 90 28 90 26 90 24 90 22 90 20 90 18 90 16 90 16 92 18 92 20 92 22 92 24 92 26 92 28 92 30 92 32 92 34 92 36 92 38 92 40 92 42 92 44 92 46 92 48 92 50 92 52 92 54 92 56 92 58 92 60 92 62 92 64 92 66 92 68 92 70 92 72 92 74 92 76 92 78 92 80 92 82 92 84 92 86 92 88 92 90 92 92 92 94 92 96 92 98 92 100 92 102 92 104 92 106 92 108 92 110 92 110 90 108 90 106 90"/>
  </g>
  <g>
    <rect class="cls-4" x="12" y="30" width="1" height="1"/>
    <rect class="cls-5" x="12" y="31" width="1" height="1"/>
    <rect class="cls-5" x="11" y="32" width="1" height="1"/>
    <rect class="cls-4" x="10" y="32" width="1" height="1"/>
    <rect class="cls-4" x="10" y="33" width="1" height="1"/>
    <rect class="cls-5" x="13" y="30" width="1" height="1"/>
    <rect class="cls-5" x="14" y="30" width="1" height="1"/>
    <rect class="cls-5" x="15" y="30" width="1" height="1"/>
    <rect class="cls-5" x="18" y="30" width="1" height="1"/>
    <rect class="cls-5" x="18" y="31" width="1" height="1"/>
    <rect class="cls-5" x="19" y="30" width="1" height="1"/>
    <rect class="cls-5" x="20" y="30" width="1" height="1"/>
    <rect class="cls-5" x="21" y="30" width="1" height="1"/>
    <rect class="cls-5" x="18" y="34" width="1" height="1"/>
    <rect class="cls-5" x="19" y="34" width="1" height="1"/>
    <rect class="cls-5" x="20" y="34" width="1" height="1"/>
    <rect class="cls-5" x="21" y="34" width="1" height="1"/>
    <rect class="cls-5" x="23" y="36" width="1" height="1"/>
    <rect class="cls-5" x="24" y="36" width="1" height="1"/>
    <rect class="cls-5" x="25" y="36" width="1" height="1"/>
    <rect class="cls-5" x="27" y="38" width="1" height="1"/>
    <rect class="cls-5" x="28" y="38" width="1" height="1"/>
    <rect class="cls-5" x="29" y="38" width="1" height="1"/>
    <rect class="cls-1" x="30" y="36" width="1" height="1"/>
    <rect class="cls-1" x="30" y="37" width="1" height="1"/>
    <rect class="cls-1" x="34" y="38" width="1" height="1"/>
    <rect class="cls-1" x="34" y="39" width="1" height="1"/>
    <rect class="cls-1" x="36" y="40" width="1" height="1"/>
    <rect class="cls-1" x="36" y="41" width="1" height="1"/>
    <rect class="cls-1" x="26" y="35" width="1" height="1"/>
    <rect class="cls-1" x="22" y="32" width="1" height="1"/>
    <rect class="cls-1" x="22" y="33" width="1" height="1"/>
    <rect class="cls-1" x="12" y="36" width="1" height="1"/>
    <rect class="cls-1" x="12" y="35" width="1" height="1"/>
    <rect class="cls-1" x="12" y="37" width="1" height="1"/>
    <rect class="cls-1" x="14" y="39" width="1" height="1"/>
    <rect class="cls-1" x="16" y="41" width="1" height="1"/>
    <rect class="cls-4" x="16" y="44" width="1" height="1"/>
    <rect class="cls-4" x="16" y="45" width="1" height="1"/>
    <rect class="cls-4" x="16" y="46" width="1" height="1"/>
    <rect class="cls-4" x="16" y="47" width="1" height="1"/>
    <rect class="cls-6" x="16" y="48" width="1" height="1"/>
    <rect class="cls-4" x="16" y="49" width="1" height="1"/>
    <rect class="cls-4" x="16" y="50" width="1" height="1"/>
    <rect class="cls-4" x="16" y="51" width="1" height="1"/>
    <rect class="cls-4" x="16" y="52" width="1" height="1"/>
    <rect class="cls-6" x="16" y="53" width="1" height="1"/>
    <rect class="cls-4" x="16" y="54" width="1" height="1"/>
    <rect class="cls-4" x="16" y="55" width="1" height="1"/>
    <rect class="cls-5" x="16" y="56" width="1" height="1"/>
    <rect class="cls-5" x="16" y="57" width="1" height="1"/>
    <rect class="cls-6" x="16" y="58" width="1" height="1"/>
    <rect class="cls-6" x="16" y="59" width="1" height="1"/>
    <rect class="cls-6" x="16" y="60" width="1" height="1"/>
    <rect class="cls-4" x="16" y="61" width="1" height="1"/>
    <rect class="cls-6" x="16" y="62" width="1" height="1"/>
    <rect class="cls-6" x="16" y="63" width="1" height="1"/>
    <rect class="cls-6" x="16" y="64" width="1" height="1"/>
    <rect class="cls-6" x="16" y="65" width="1" height="1"/>
    <rect class="cls-5" x="16" y="66" width="1" height="1"/>
    <rect class="cls-6" x="16" y="67" width="1" height="1"/>
    <rect class="cls-6" x="16" y="68" width="1" height="1"/>
    <rect class="cls-4" x="16" y="69" width="1" height="1"/>
    <rect class="cls-6" x="16" y="70" width="1" height="1"/>
    <rect class="cls-4" x="16" y="71" width="1" height="1"/>
    <rect class="cls-6" x="16" y="72" width="1" height="1"/>
    <rect class="cls-6" x="16" y="73" width="1" height="1"/>
    <rect class="cls-5" x="16" y="74" width="1" height="1"/>
    <rect class="cls-6" x="16" y="75" width="1" height="1"/>
    <rect class="cls-6" x="16" y="76" width="1" height="1"/>
    <rect class="cls-6" x="16" y="77" width="1" height="1"/>
    <rect class="cls-6" x="16" y="78" width="1" height="1"/>
    <rect class="cls-6" x="16" y="79" width="1" height="1"/>
    <rect class="cls-4" x="16" y="80" width="1" height="1"/>
    <rect class="cls-6" x="16" y="81" width="1" height="1"/>
    <rect class="cls-6" x="16" y="82" width="1" height="1"/>
    <rect class="cls-6" x="16" y="83" width="1" height="1"/>
    <rect class="cls-5" x="16" y="84" width="1" height="1"/>
    <rect class="cls-6" x="16" y="85" width="1" height="1"/>
    <rect class="cls-5" x="16" y="86" width="1" height="1"/>
    <rect class="cls-6" x="16" y="87" width="1" height="1"/>
    <rect class="cls-6" x="16" y="88" width="1" height="1"/>
    <rect class="cls-5" x="109" y="45" width="1" height="1"/>
    <rect class="cls-5" x="109" y="46" width="1" height="1"/>
    <rect class="cls-5" x="109" y="47" width="1" height="1"/>
    <rect class="cls-5" x="109" y="48" width="1" height="1"/>
    <rect class="cls-5" x="109" y="49" width="1" height="1"/>
    <rect class="cls-5" x="109" y="50" width="1" height="1"/>
    <rect class="cls-5" x="109" y="51" width="1" height="1"/>
    <rect class="cls-5" x="109" y="52" width="1" height="1"/>
    <rect class="cls-5" x="109" y="53" width="1" height="1"/>
    <rect class="cls-5" x="109" y="54" width="1" height="1"/>
    <rect class="cls-5" x="109" y="55" width="1" height="1"/>
    <rect class="cls-5" x="109" y="56" width="1" height="1"/>
    <rect class="cls-5" x="109" y="57" width="1" height="1"/>
    <rect class="cls-5" x="109" y="58" width="1" height="1"/>
    <rect class="cls-5" x="109" y="59" width="1" height="1"/>
    <rect class="cls-5" x="109" y="60" width="1" height="1"/>
    <rect class="cls-5" x="109" y="61" width="1" height="1"/>
    <rect class="cls-5" x="109" y="62" width="1" height="1"/>
    <rect class="cls-5" x="109" y="63" width="1" height="1"/>
    <rect class="cls-5" x="109" y="64" width="1" height="1"/>
    <rect class="cls-5" x="109" y="65" width="1" height="1"/>
    <rect class="cls-5" x="109" y="66" width="1" height="1"/>
    <rect class="cls-5" x="109" y="67" width="1" height="1"/>
    <rect class="cls-5" x="109" y="68" width="1" height="1"/>
    <rect class="cls-5" x="109" y="69" width="1" height="1"/>
    <rect class="cls-5" x="109" y="70" width="1" height="1"/>
    <rect class="cls-5" x="109" y="71" width="1" height="1"/>
    <rect class="cls-5" x="109" y="72" width="1" height="1"/>
    <rect class="cls-5" x="109" y="73" width="1" height="1"/>
    <rect class="cls-5" x="109" y="74" width="1" height="1"/>
    <rect class="cls-5" x="109" y="75" width="1" height="1"/>
    <rect class="cls-5" x="109" y="76" width="1" height="1"/>
    <rect class="cls-5" x="109" y="77" width="1" height="1"/>
    <rect class="cls-5" x="109" y="78" width="1" height="1"/>
    <rect class="cls-5" x="109" y="79" width="1" height="1"/>
    <rect class="cls-5" x="109" y="80" width="1" height="1"/>
    <rect class="cls-5" x="109" y="81" width="1" height="1"/>
    <rect class="cls-5" x="109" y="82" width="1" height="1"/>
    <rect class="cls-5" x="109" y="83" width="1" height="1"/>
    <rect class="cls-5" x="109" y="84" width="1" height="1"/>
    <rect class="cls-5" x="109" y="85" width="1" height="1"/>
    <rect class="cls-5" x="109" y="86" width="1" height="1"/>
    <rect class="cls-5" x="109" y="87" width="1" height="1"/>
    <rect class="cls-5" x="109" y="88" width="1" height="1"/>
    <rect class="cls-4" x="17" y="44" width="1" height="1"/>
    <rect class="cls-4" x="18" y="44" width="1" height="1"/>
    <rect class="cls-4" x="19" y="44" width="1" height="1"/>
    <rect class="cls-4" x="20" y="44" width="1" height="1"/>
    <rect class="cls-4" x="21" y="44" width="1" height="1"/>
    <rect class="cls-6" x="22" y="44" width="1" height="1"/>
    <rect class="cls-4" x="23" y="44" width="1" height="1"/>
    <rect class="cls-4" x="24" y="44" width="1" height="1"/>
    <rect class="cls-6" x="25" y="44" width="1" height="1"/>
    <rect class="cls-4" x="26" y="44" width="1" height="1"/>
    <rect class="cls-4" x="27" y="44" width="1" height="1"/>
    <rect class="cls-4" x="28" y="44" width="1" height="1"/>
    <rect class="cls-4" x="29" y="44" width="1" height="1"/>
    <rect class="cls-4" x="30" y="44" width="1" height="1"/>
    <rect class="cls-4" x="31" y="44" width="1" height="1"/>
    <rect class="cls-5" x="32" y="44" width="1" height="1"/>
    <rect class="cls-4" x="33" y="44" width="1" height="1"/>
    <rect class="cls-4" x="34" y="44" width="1" height="1"/>
    <rect class="cls-6" x="35" y="44" width="1" height="1"/>
    <rect class="cls-6" x="36" y="44" width="1" height="1"/>
    <rect class="cls-4" x="37" y="44" width="1" height="1"/>
    <rect class="cls-6" x="38" y="44" width="1" height="1"/>
    <rect class="cls-6" x="39" y="44" width="1" height="1"/>
    <rect class="cls-6" x="40" y="44" width="1" height="1"/>
    <rect class="cls-5" x="41" y="44" width="1" height="1"/>
    <rect class="cls-6" x="42" y="44" width="1" height="1"/>
    <rect class="cls-6" x="43" y="44" width="1" height="1"/>
    <rect class="cls-6" x="44" y="44" width="1" height="1"/>
    <rect class="cls-5" x="45" y="44" width="1" height="1"/>
    <rect class="cls-6" x="46" y="44" width="1" height="1"/>
    <rect class="cls-6" x="47" y="44" width="1" height="1"/>
    <rect class="cls-4" x="48" y="44" width="1" height="1"/>
    <rect class="cls-6" x="49" y="44" width="1" height="1"/>
    <rect class="cls-6" x="50" y="44" width="1" height="1"/>
    <rect class="cls-6" x="51" y="44" width="1" height="1"/>
    <rect class="cls-6" x="52" y="44" width="1" height="1"/>
    <rect class="cls-6" x="53" y="44" width="1" height="1"/>
    <rect class="cls-4" x="54" y="44" width="1" height="1"/>
    <rect class="cls-6" x="55" y="44" width="1" height="1"/>
    <rect class="cls-5" x="56" y="44" width="1" height="1"/>
    <rect class="cls-6" x="57" y="44" width="1" height="1"/>
    <rect class="cls-5" x="58" y="44" width="1" height="1"/>
    <rect class="cls-6" x="59" y="44" width="1" height="1"/>
    <rect class="cls-6" x="60" y="44" width="1" height="1"/>
    <rect class="cls-6" x="61" y="44" width="1" height="1"/>
    <rect class="cls-6" x="62" y="44" width="1" height="1"/>
    <rect class="cls-6" x="63" y="44" width="1" height="1"/>
    <rect class="cls-6" x="64" y="44" width="1" height="1"/>
    <rect class="cls-6" x="65" y="44" width="1" height="1"/>
    <rect class="cls-6" x="66" y="44" width="1" height="1"/>
    <rect class="cls-6" x="67" y="44" width="1" height="1"/>
    <rect class="cls-6" x="68" y="44" width="1" height="1"/>
    <rect class="cls-6" x="69" y="44" width="1" height="1"/>
    <rect class="cls-4" x="70" y="44" width="1" height="1"/>
    <rect class="cls-6" x="71" y="44" width="1" height="1"/>
    <rect class="cls-6" x="72" y="44" width="1" height="1"/>
    <rect class="cls-6" x="73" y="44" width="1" height="1"/>
    <rect class="cls-6" x="74" y="44" width="1" height="1"/>
    <rect class="cls-6" x="75" y="44" width="1" height="1"/>
    <rect class="cls-6" x="76" y="44" width="1" height="1"/>
    <rect class="cls-6" x="77" y="44" width="1" height="1"/>
    <rect class="cls-6" x="78" y="44" width="1" height="1"/>
    <rect class="cls-6" x="79" y="44" width="1" height="1"/>
    <rect class="cls-6" x="80" y="44" width="1" height="1"/>
    <rect class="cls-6" x="81" y="44" width="1" height="1"/>
    <rect class="cls-6" x="82" y="44" width="1" height="1"/>
    <rect class="cls-6" x="83" y="44" width="1" height="1"/>
    <rect class="cls-6" x="84" y="44" width="1" height="1"/>
    <rect class="cls-5" x="85" y="44" width="1" height="1"/>
    <rect class="cls-6" x="86" y="44" width="1" height="1"/>
    <rect class="cls-6" x="87" y="44" width="1" height="1"/>
    <rect class="cls-6" x="88" y="44" width="1" height="1"/>
    <rect class="cls-6" x="89" y="44" width="1" height="1"/>
    <rect class="cls-6" x="90" y="44" width="1" height="1"/>
    <rect class="cls-5" x="91" y="44" width="1" height="1"/>
    <rect class="cls-6" x="92" y="44" width="1" height="1"/>
    <rect class="cls-6" x="93" y="44" width="1" height="1"/>
    <rect class="cls-6" x="94" y="44" width="1" height="1"/>
    <rect class="cls-6" x="95" y="44" width="1" height="1"/>
    <rect class="cls-6" x="96" y="44" width="1" height="1"/>
    <rect class="cls-6" x="97" y="44" width="1" height="1"/>
    <rect class="cls-6" x="98" y="44" width="1" height="1"/>
    <rect class="cls-6" x="99" y="44" width="1" height="1"/>
    <rect class="cls-6" x="100" y="44" width="1" height="1"/>
    <rect class="cls-6" x="101" y="44" width="1" height="1"/>
    <rect class="cls-4" x="102" y="44" width="1" height="1"/>
    <rect class="cls-6" x="103" y="44" width="1" height="1"/>
    <rect class="cls-6" x="104" y="44" width="1" height="1"/>
    <rect class="cls-4" x="105" y="44" width="1" height="1"/>
    <rect class="cls-6" x="106" y="44" width="1" height="1"/>
    <rect class="cls-6" x="107" y="44" width="1" height="1"/>
    <rect class="cls-6" x="108" y="44" width="1" height="1"/>
    <rect class="cls-6" x="109" y="44" width="1" height="1"/>
    <rect class="cls-5" x="16" y="89" width="1" height="1"/>
    <rect class="cls-2" x="17" y="89" width="1" height="1"/>
    <rect class="cls-2" x="18" y="89" width="1" height="1"/>
    <rect class="cls-2" x="19" y="89" width="1" height="1"/>
    <rect class="cls-2" x="20" y="89" width="1" height="1"/>
    <rect class="cls-2" x="21" y="89" width="1" height="1"/>
    <rect class="cls-2" x="22" y="89" width="1" height="1"/>
    <rect class="cls-2" x="23" y="89" width="1" height="1"/>
    <rect class="cls-2" x="24" y="89" width="1" height="1"/>
    <rect class="cls-2" x="25" y="89" width="1" height="1"/>
    <rect class="cls-2" x="26" y="89" width="1" height="1"/>
    <rect class="cls-2" x="27" y="89" width="1" height="1"/>
    <rect class="cls-2" x="28" y="89" width="1" height="1"/>
    <rect class="cls-2" x="29" y="89" width="1" height="1"/>
    <rect class="cls-2" x="30" y="89" width="1" height="1"/>
    <rect class="cls-2" x="31" y="89" width="1" height="1"/>
    <rect class="cls-2" x="32" y="89" width="1" height="1"/>
    <rect class="cls-2" x="33" y="89" width="1" height="1"/>
    <rect class="cls-2" x="34" y="89" width="1" height="1"/>
    <rect class="cls-2" x="35" y="89" width="1" height="1"/>
    <rect class="cls-2" x="36" y="89" width="1" height="1"/>
    <rect class="cls-2" x="37" y="89" width="1" height="1"/>
    <rect class="cls-2" x="38" y="89" width="1" height="1"/>
    <rect class="cls-2" x="39" y="89" width="1" height="1"/>
    <rect class="cls-2" x="40" y="89" width="1" height="1"/>
    <rect class="cls-2" x="41" y="89" width="1" height="1"/>
    <rect class="cls-2" x="42" y="89" width="1" height="1"/>
    <rect class="cls-2" x="43" y="89" width="1" height="1"/>
    <rect class="cls-2" x="44" y="89" width="1" height="1"/>
    <rect class="cls-2" x="45" y="89" width="1" height="1"/>
    <rect class="cls-2" x="46" y="89" width="1" height="1"/>
    <rect class="cls-2" x="47" y="89" width="1" height="1"/>
    <rect class="cls-2" x="48" y="89" width="1" height="1"/>
    <rect class="cls-2" x="49" y="89" width="1" height="1"/>
    <rect class="cls-2" x="50" y="89" width="1" height="1"/>
    <rect class="cls-2" x="51" y="89" width="1" height="1"/>
    <rect class="cls-2" x="52" y="89" width="1" height="1"/>
    <rect class="cls-2" x="53" y="89" width="1" height="1"/>
    <rect class="cls-2" x="54" y="89" width="1" height="1"/>
    <rect class="cls-2" x="55" y="89" width="1" height="1"/>
    <rect class="cls-2" x="56" y="89" width="1" height="1"/>
    <rect class="cls-2" x="57" y="89" width="1" height="1"/>
    <rect class="cls-2" x="58" y="89" width="1" height="1"/>
    <rect class="cls-2" x="59" y="89" width="1" height="1"/>
    <rect class="cls-2" x="60" y="89" width="1" height="1"/>
    <rect class="cls-2" x="61" y="89" width="1" height="1"/>
    <rect class="cls-2" x="62" y="89" width="1" height="1"/>
    <rect class="cls-2" x="63" y="89" width="1" height="1"/>
    <rect class="cls-2" x="64" y="89" width="1" height="1"/>
    <rect class="cls-2" x="65" y="89" width="1" height="1"/>
    <rect class="cls-2" x="66" y="89" width="1" height="1"/>
    <rect class="cls-2" x="67" y="89" width="1" height="1"/>
    <rect class="cls-2" x="68" y="89" width="1" height="1"/>
    <rect class="cls-2" x="69" y="89" width="1" height="1"/>
    <rect class="cls-2" x="70" y="89" width="1" height="1"/>
    <rect class="cls-2" x="71" y="89" width="1" height="1"/>
    <rect class="cls-2" x="72" y="89" width="1" height="1"/>
    <rect class="cls-2" x="73" y="89" width="1" height="1"/>
    <rect class="cls-2" x="74" y="89" width="1" height="1"/>
    <rect class="cls-2" x="75" y="89" width="1" height="1"/>
    <rect class="cls-2" x="76" y="89" width="1" height="1"/>
    <rect class="cls-2" x="77" y="89" width="1" height="1"/>
    <rect class="cls-2" x="78" y="89" width="1" height="1"/>
    <rect class="cls-2" x="79" y="89" width="1" height="1"/>
    <rect class="cls-2" x="80" y="89" width="1" height="1"/>
    <rect class="cls-2" x="81" y="89" width="1" height="1"/>
    <rect class="cls-2" x="82" y="89" width="1" height="1"/>
    <rect class="cls-2" x="83" y="89" width="1" height="1"/>
    <rect class="cls-2" x="84" y="89" width="1" height="1"/>
    <rect class="cls-2" x="85" y="89" width="1" height="1"/>
    <rect class="cls-2" x="86" y="89" width="1" height="1"/>
    <rect class="cls-2" x="87" y="89" width="1" height="1"/>
    <rect class="cls-2" x="88" y="89" width="1" height="1"/>
    <rect class="cls-2" x="89" y="89" width="1" height="1"/>
    <rect class="cls-2" x="90" y="89" width="1" height="1"/>
    <rect class="cls-2" x="91" y="89" width="1" height="1"/>
    <rect class="cls-2" x="92" y="89" width="1" height="1"/>
    <rect class="cls-2" x="93" y="89" width="1" height="1"/>
    <rect class="cls-2" x="94" y="89" width="1" height="1"/>
    <rect class="cls-2" x="95" y="89" width="1" height="1"/>
    <rect class="cls-2" x="96" y="89" width="1" height="1"/>
    <rect class="cls-2" x="97" y="89" width="1" height="1"/>
    <rect class="cls-2" x="98" y="89" width="1" height="1"/>
    <rect class="cls-2" x="99" y="89" width="1" height="1"/>
    <rect class="cls-2" x="100" y="89" width="1" height="1"/>
    <rect class="cls-2" x="101" y="89" width="1" height="1"/>
    <rect class="cls-2" x="102" y="89" width="1" height="1"/>
    <rect class="cls-2" x="103" y="89" width="1" height="1"/>
    <rect class="cls-2" x="104" y="89" width="1" height="1"/>
    <rect class="cls-2" x="105" y="89" width="1" height="1"/>
    <rect class="cls-2" x="106" y="89" width="1" height="1"/>
    <rect class="cls-2" x="107" y="89" width="1" height="1"/>
    <rect class="cls-2" x="108" y="89" width="1" height="1"/>
    <rect class="cls-1" x="109" y="89" width="1" height="1"/>
    <rect class="cls-1" x="42" y="28" width="1" height="1"/>
    <rect class="cls-1" x="42" y="29" width="1" height="1"/>
    <rect class="cls-1" x="48" y="31" width="1" height="1"/>
    <rect class="cls-1" x="52" y="32" width="1" height="1"/>
    <rect class="cls-1" x="52" y="33" width="1" height="1"/>
    <rect class="cls-1" x="54" y="34" width="1" height="1"/>
    <rect class="cls-1" x="54" y="35" width="1" height="1"/>
    <rect class="cls-1" x="58" y="36" width="1" height="1"/>
    <rect class="cls-1" x="58" y="37" width="1" height="1"/>
    <rect class="cls-1" x="78" y="32" width="1" height="1"/>
    <rect class="cls-1" x="78" y="33" width="1" height="1"/>
    <rect class="cls-1" x="72" y="28" width="1" height="1"/>
    <rect class="cls-1" x="72" y="29" width="1" height="1"/>
    <rect class="cls-1" x="70" y="26" width="1" height="1"/>
    <rect class="cls-1" x="70" y="27" width="1" height="1"/>
    <rect class="cls-1" x="88" y="19" width="1" height="1"/>
    <rect class="cls-1" x="92" y="20" width="1" height="1"/>
    <rect class="cls-1" x="92" y="21" width="1" height="1"/>
    <rect class="cls-1" x="96" y="22" width="1" height="1"/>
    <rect class="cls-1" x="96" y="23" width="1" height="1"/>
    <rect class="cls-1" x="102" y="24" width="1" height="1"/>
    <rect class="cls-1" x="102" y="25" width="1" height="1"/>
    <rect class="cls-1" x="104" y="26" width="1" height="1"/>
    <rect class="cls-1" x="104" y="27" width="1" height="1"/>
    <rect class="cls-1" x="66" y="24" width="1" height="1"/>
    <rect class="cls-1" x="66" y="25" width="1" height="1"/>
    <rect class="cls-1" x="64" y="23" width="1" height="1"/>
    <rect class="cls-5" x="30" y="40" width="1" height="1"/>
    <rect class="cls-5" x="31" y="40" width="1" height="1"/>
    <rect class="cls-5" x="32" y="40" width="1" height="1"/>
    <rect class="cls-5" x="33" y="40" width="1" height="1"/>
    <rect class="cls-4" x="22" y="28" width="1" height="1"/>
    <rect class="cls-5" x="22" y="29" width="1" height="1"/>
    <rect class="cls-5" x="23" y="28" width="1" height="1"/>
    <rect class="cls-5" x="24" y="28" width="1" height="1"/>
    <rect class="cls-5" x="25" y="28" width="1" height="1"/>
    <rect class="cls-5" x="26" y="28" width="1" height="1"/>
    <rect class="cls-5" x="27" y="28" width="1" height="1"/>
    <rect class="cls-4" x="32" y="26" width="1" height="1"/>
    <rect class="cls-5" x="32" y="27" width="1" height="1"/>
    <rect class="cls-5" x="33" y="26" width="1" height="1"/>
    <rect class="cls-5" x="34" y="26" width="1" height="1"/>
    <rect class="cls-5" x="35" y="26" width="1" height="1"/>
    <rect class="cls-5" x="36" y="26" width="1" height="1"/>
    <rect class="cls-5" x="37" y="26" width="1" height="1"/>
    <rect class="cls-5" x="42" y="24" width="1" height="1"/>
    <rect class="cls-5" x="42" y="25" width="1" height="1"/>
    <rect class="cls-5" x="43" y="24" width="1" height="1"/>
    <rect class="cls-5" x="44" y="24" width="1" height="1"/>
    <rect class="cls-5" x="45" y="24" width="1" height="1"/>
    <rect class="cls-5" x="46" y="24" width="1" height="1"/>
    <rect class="cls-5" x="47" y="24" width="1" height="1"/>
    <rect class="cls-5" x="48" y="24" width="1" height="1"/>
    <rect class="cls-5" x="43" y="32" width="1" height="1"/>
    <rect class="cls-5" x="44" y="32" width="1" height="1"/>
    <rect class="cls-5" x="45" y="32" width="1" height="1"/>
    <rect class="cls-5" x="46" y="32" width="1" height="1"/>
    <rect class="cls-5" x="47" y="32" width="1" height="1"/>
    <rect class="cls-5" x="49" y="34" width="1" height="1"/>
    <rect class="cls-5" x="50" y="34" width="1" height="1"/>
    <rect class="cls-5" x="51" y="34" width="1" height="1"/>
    <rect class="cls-5" x="52" y="36" width="1" height="1"/>
    <rect class="cls-5" x="53" y="36" width="1" height="1"/>
    <rect class="cls-5" x="40" y="30" width="1" height="1"/>
    <rect class="cls-5" x="41" y="30" width="1" height="1"/>
    <rect class="cls-5" x="37.97" y="28" width="1" height="1"/>
    <rect class="cls-5" x="38.97" y="28" width="1" height="1"/>
    <rect class="cls-5" x="49" y="24" width="1" height="1"/>
    <rect class="cls-5" x="50" y="24" width="1" height="1"/>
    <rect class="cls-5" x="51" y="24" width="1" height="1"/>
    <rect class="cls-5" x="52" y="22" width="1" height="1"/>
    <rect class="cls-5" x="52" y="23" width="1" height="1"/>
    <rect class="cls-5" x="53" y="22" width="1" height="1"/>
    <rect class="cls-5" x="54" y="22" width="1" height="1"/>
    <rect class="cls-5" x="58" y="56" width="1" height="1"/>
    <rect class="cls-5" x="58" y="57" width="1" height="1"/>
    <rect class="cls-5" x="58" y="58" width="1" height="1"/>
    <rect class="cls-5" x="58" y="59" width="1" height="1"/>
    <rect class="cls-5" x="58" y="60" width="1" height="1"/>
    <rect class="cls-5" x="58" y="61" width="1" height="1"/>
    <rect class="cls-5" x="58" y="62" width="1" height="1"/>
    <rect class="cls-5" x="58" y="63" width="1" height="1"/>
    <rect class="cls-5" x="58" y="64" width="1" height="1"/>
    <rect class="cls-5" x="58" y="65" width="1" height="1"/>
    <rect class="cls-5" x="58" y="66" width="1" height="1"/>
    <rect class="cls-5" x="58" y="67" width="1" height="1"/>
    <rect class="cls-5" x="58" y="68" width="1" height="1"/>
    <rect class="cls-5" x="58" y="69" width="1" height="1"/>
    <rect class="cls-5" x="58" y="70" width="1" height="1"/>
    <rect class="cls-5" x="58" y="71" width="1" height="1"/>
    <rect class="cls-5" x="58" y="72" width="1" height="1"/>
    <rect class="cls-5" x="58" y="73" width="1" height="1"/>
    <rect class="cls-5" x="58" y="74" width="1" height="1"/>
    <rect class="cls-5" x="58" y="75" width="1" height="1"/>
    <rect class="cls-1" x="56" y="78" width="1" height="1"/>
    <rect class="cls-1" x="57" y="78" width="1" height="1"/>
    <rect class="cls-1" x="58" y="78" width="1" height="1"/>
    <rect class="cls-1" x="59" y="78" width="1" height="1"/>
    <rect class="cls-1" x="60" y="76" width="1" height="1"/>
    <rect class="cls-1" x="60" y="77" width="1" height="1"/>
    <rect class="cls-1" x="61" y="76" width="1" height="1"/>
    <rect class="cls-1" x="62" y="74" width="1" height="1"/>
    <rect class="cls-1" x="62" y="75" width="1" height="1"/>
    <rect class="cls-1" x="63" y="74" width="1" height="1"/>
    <rect class="cls-1" x="64" y="74" width="1" height="1"/>
    <rect class="cls-1" x="65" y="74" width="1" height="1"/>
    <rect class="cls-1" x="66" y="72" width="1" height="1"/>
    <rect class="cls-1" x="66" y="73" width="1" height="1"/>
    <rect class="cls-1" x="67" y="72" width="1" height="1"/>
    <rect class="cls-1" x="70" y="70" width="1" height="1"/>
    <rect class="cls-1" x="70" y="71" width="1" height="1"/>
    <rect class="cls-1" x="71" y="70" width="1" height="1"/>
    <rect class="cls-1" x="72" y="68" width="1" height="1"/>
    <rect class="cls-1" x="72" y="69" width="1" height="1"/>
    <rect class="cls-1" x="74" y="66" width="1" height="1"/>
    <rect class="cls-1" x="74" y="67" width="1" height="1"/>
    <rect class="cls-1" x="74" y="64.05" width="1" height="1"/>
    <rect class="cls-1" x="74" y="65.05" width="1" height="1"/>
    <rect class="cls-1" x="72" y="62" width="1" height="1"/>
    <rect class="cls-1" x="72" y="63" width="1" height="1"/>
    <rect class="cls-1" x="70" y="60" width="1" height="1"/>
    <rect class="cls-1" x="70" y="61" width="1" height="1"/>
    <rect class="cls-1" x="66" y="58" width="1" height="1"/>
    <rect class="cls-1" x="66" y="59" width="1" height="1"/>
    <rect class="cls-1" x="62" y="56" width="1" height="1"/>
    <rect class="cls-1" x="62" y="57" width="1" height="1"/>
    <rect class="cls-1" x="60" y="54" width="1" height="1"/>
    <rect class="cls-1" x="60" y="55" width="1" height="1"/>
    <rect class="cls-1" x="73" y="68" width="1" height="1"/>
    <rect class="cls-1" x="68" y="72" width="1" height="1"/>
    <rect class="cls-1" x="69" y="72" width="1" height="1"/>
    <rect class="cls-5" x="59" y="56" width="1" height="1"/>
    <rect class="cls-5" x="55" y="22" width="1" height="1"/>
    <rect class="cls-5" x="56" y="22" width="1" height="1"/>
    <rect class="cls-5" x="57" y="22" width="1" height="1"/>
    <rect class="cls-5" x="58" y="22" width="1" height="1"/>
    <rect class="cls-5" x="59" y="22" width="1" height="1"/>
    <rect class="cls-5" x="62" y="20" width="1" height="1"/>
    <rect class="cls-5" x="62" y="21" width="1" height="1"/>
    <rect class="cls-5" x="63" y="20" width="1" height="1"/>
    <rect class="cls-5" x="64" y="20" width="1" height="1"/>
    <rect class="cls-5" x="65" y="20" width="1" height="1"/>
    <rect class="cls-5" x="64" y="26" width="1" height="1"/>
    <rect class="cls-5" x="65" y="26" width="1" height="1"/>
    <rect class="cls-5" x="62" y="24" width="1" height="1"/>
    <rect class="cls-5" x="63" y="24" width="1" height="1"/>
    <rect class="cls-5" x="68" y="28" width="1" height="1"/>
    <rect class="cls-5" x="69" y="28" width="1" height="1"/>
    <rect class="cls-5" x="70" y="30" width="1" height="1"/>
    <rect class="cls-5" x="71" y="30" width="1" height="1"/>
    <rect class="cls-5" x="74" y="32" width="1" height="1"/>
    <rect class="cls-5" x="75" y="32" width="1" height="1"/>
    <rect class="cls-1" x="76" y="31" width="1" height="1"/>
    <rect class="cls-1" x="76" y="30" width="1" height="1"/>
    <rect class="cls-5" x="72" y="32" width="1" height="1"/>
    <rect class="cls-5" x="73" y="32" width="1" height="1"/>
    <rect class="cls-5" x="66" y="20" width="1" height="1"/>
    <rect class="cls-5" x="67" y="20" width="1" height="1"/>
    <rect class="cls-5" x="68" y="20" width="1" height="1"/>
    <rect class="cls-5" x="69" y="20" width="1" height="1"/>
    <rect class="cls-5" x="70" y="20" width="1" height="1"/>
    <rect class="cls-5" x="71" y="20" width="1" height="1"/>
    <rect class="cls-5" x="72" y="18" width="1" height="1"/>
    <rect class="cls-5" x="72" y="19" width="1" height="1"/>
    <rect class="cls-5" x="73" y="18" width="1" height="1"/>
    <rect class="cls-5" x="74" y="18" width="1" height="1"/>
    <rect class="cls-5" x="75" y="18" width="1" height="1"/>
    <rect class="cls-5" x="76" y="18" width="1" height="1"/>
    <rect class="cls-5" x="77" y="18" width="1" height="1"/>
    <rect class="cls-5" x="78" y="18" width="1" height="1"/>
    <rect class="cls-5" x="79" y="18" width="1" height="1"/>
    <rect class="cls-5" x="80" y="18" width="1" height="1"/>
    <rect class="cls-5" x="81" y="18" width="1" height="1"/>
    <rect class="cls-5" x="82" y="18" width="1" height="1"/>
    <rect class="cls-5" x="83" y="18" width="1" height="1"/>
    <rect class="cls-5" x="84" y="16" width="1" height="1"/>
    <rect class="cls-5" x="84" y="17" width="1" height="1"/>
    <rect class="cls-5" x="85" y="16" width="1" height="1"/>
    <rect class="cls-5" x="86" y="16" width="1" height="1"/>
    <rect class="cls-5" x="87" y="16" width="1" height="1"/>
    <rect class="cls-5" x="92" y="14" width="1" height="1"/>
    <rect class="cls-5" x="92" y="15" width="1" height="1"/>
    <rect class="cls-5" x="93" y="14" width="1" height="1"/>
    <rect class="cls-5" x="94" y="14" width="1" height="1"/>
    <rect class="cls-5" x="95" y="14" width="1" height="1"/>
    <rect class="cls-5" x="96" y="12" width="1" height="1"/>
    <rect class="cls-5" x="96" y="13" width="1" height="1"/>
    <rect class="cls-5" x="97" y="12" width="1" height="1"/>
    <rect class="cls-5" x="98" y="12" width="1" height="1"/>
    <rect class="cls-5" x="99" y="12" width="1" height="1"/>
    <rect class="cls-5" x="100" y="12" width="1" height="1"/>
    <rect class="cls-5" x="101" y="12" width="1" height="1"/>
    <rect class="cls-5" x="88" y="16" width="1" height="1"/>
    <rect class="cls-5" x="89" y="16" width="1" height="1"/>
    <rect class="cls-5" x="90" y="16" width="1" height="1"/>
    <rect class="cls-5" x="91" y="16" width="1" height="1"/>
    <rect class="cls-5" x="88" y="22" width="1" height="1"/>
    <rect class="cls-5" x="89" y="22" width="1" height="1"/>
    <rect class="cls-5" x="90" y="22" width="1" height="1"/>
    <rect class="cls-5" x="91" y="22" width="1" height="1"/>
    <rect class="cls-5" x="85" y="20" width="1" height="1"/>
    <rect class="cls-5" x="86" y="20" width="1" height="1"/>
    <rect class="cls-5" x="87" y="20" width="1" height="1"/>
    <rect class="cls-5" x="93" y="24" width="1" height="1"/>
    <rect class="cls-5" x="94" y="24" width="1" height="1"/>
    <rect class="cls-5" x="95" y="24" width="1" height="1"/>
    <rect class="cls-5" x="96" y="26" width="1" height="1"/>
    <rect class="cls-5" x="97" y="26" width="1" height="1"/>
    <rect class="cls-5" x="98" y="26" width="1" height="1"/>
    <rect class="cls-5" x="99" y="26" width="1" height="1"/>
    <rect class="cls-5" x="100" y="26" width="1" height="1"/>
    <rect class="cls-5" x="101" y="26" width="1" height="1"/>
    <rect class="cls-4" x="28" y="28" width="1" height="1"/>
    <rect class="cls-5" x="29" y="28" width="1" height="1"/>
    <rect class="cls-5" x="30" y="28" width="1" height="1"/>
    <rect class="cls-5" x="31" y="28" width="1" height="1"/>
  </g>
</svg>