<?xml version="1.0" encoding="UTF-8"?>
<svg id="Layer_1" data-name="Layer 1" xmlns="http://www.w3.org/2000/svg" xmlns:xlink="http://www.w3.org/1999/xlink" viewBox="0 0 120 100">
  <defs>
    <style>
      .cls-1 {
        fill: #dd1461;
      }

      .cls-2 {
        fill: #ff95dc;
      }

      .cls-3 {
        fill: #ff5c8c;
      }

      .cls-4 {
        fill: #ff2c72;
      }

      .cls-5 {
        fill: url(#linear-gradient);
      }

      .cls-6 {
        fill: #fff;
      }

      .cls-7 {
        opacity: .2;
      }

      .cls-8 {
        fill: #ffcdee;
      }

      .cls-9 {
        fill: #ffeaf8;
      }
    </style>
    <linearGradient id="linear-gradient" x1="8.21" y1="96.31" x2="45.43" y2="46.37" gradientUnits="userSpaceOnUse">
      <stop offset="0" stop-color="#ff95dc"/>
      <stop offset=".52" stop-color="#ffcdee"/>
      <stop offset="1" stop-color="#fff"/>
    </linearGradient>
  </defs>
  <g>
    <path class="cls-6" d="M111,5h-2v-2H21v2h-2v64h2v2h88v-2h2V5ZM103,63v-2h-2v-2h-2v-2h-2v-2h-2v-2h-2v-2h-2v-2h-2v-2h-2v-2h-2v-2h-2v-2h-2v-2h-2v-2h2v-2h6v-2h8v-2h6v-2h6v36h-2v-2h-2ZM105,23v2h-6v2h-6v2h-8v2h-6v2h-4v2h-6v2h-8v-2h-6v-2h-4v-2h-6v-2h-8v-2h-6v-2h-6v-2h-2V7h84v16h-2ZM23,29h6v2h6v2h8v2h6v2h2v2h-2v2h-2v2h-2v2h-2v2h-2v2h-2v2h-2v2h-2v2h-2v2h-2v2h-2v2h-2v2h-2v2h-2V29ZM29,67v-2h2v-2h2v-2h2v-2h2v-2h2v-2h2v-2h2v-2h2v-2h2v-2h2v-2h2v-2h2v-2h2v-2h4v2h12v-2h4v2h2v2h2v2h2v2h2v2h2v2h2v2h2v2h2v2h2v2h2v2h2v2h2v2h2v2H29Z"/>
    <polygon points="26 6 28 6 30 6 32 6 34 6 36 6 38 6 40 6 42 6 44 6 46 6 48 6 50 6 52 6 54 6 56 6 58 6 60 6 62 6 64 6 66 6 68 6 70 6 72 6 74 6 76 6 78 6 80 6 82 6 84 6 86 6 88 6 90 6 92 6 94 6 96 6 98 6 100 6 102 6 104 6 106 6 108 6 108 4 106 4 104 4 102 4 100 4 98 4 96 4 94 4 92 4 90 4 88 4 86 4 84 4 82 4 80 4 78 4 76 4 74 4 72 4 70 4 68 4 66 4 64 4 62 4 60 4 58 4 56 4 54 4 52 4 50 4 48 4 46 4 44 4 42 4 40 4 38 4 36 4 34 4 32 4 30 4 28 4 26 4 24 4 22 4 22 6 24 6 26 6"/>
    <polygon points="108 6 108 8 108 10 108 12 108 14 108 16 108 18 108 20 108 22 108 24 106 24 106 26 108 26 108 28 108 30 108 32 108 34 108 36 108 38 108 40 108 42 108 44 108 46 108 48 108 50 108 52 108 54 108 56 108 58 108 60 108 62 108 64 108 66 108 68 110 68 110 66 110 64 110 62 110 60 110 58 110 56 110 54 110 52 110 50 110 48 110 46 110 44 110 42 110 40 110 38 110 36 110 34 110 32 110 30 110 28 110 26 110 24 110 22 110 20 110 18 110 16 110 14 110 12 110 10 110 8 110 6 108 6"/>
    <polygon points="22 64 22 62 22 60 22 58 22 56 22 54 22 52 22 50 22 48 22 46 22 44 22 42 22 40 22 38 22 36 22 34 22 32 22 30 22 28 22 26 24 26 24 24 22 24 22 22 22 20 22 18 22 16 22 14 22 12 22 10 22 8 22 6 20 6 20 8 20 10 20 12 20 14 20 16 20 18 20 20 20 22 20 24 20 26 20 28 20 30 20 32 20 34 20 36 20 38 20 40 20 42 20 44 20 46 20 48 20 50 20 52 20 54 20 56 20 58 20 60 20 62 20 64 20 66 20 68 22 68 22 66 22 64"/>
    <polygon points="28 26 26 26 24 26 24 28 26 28 28 28 30 28 30 26 28 26"/>
    <polygon points="34 28 32 28 30 28 30 30 32 30 34 30 36 30 36 28 34 28"/>
    <polygon points="42 30 40 30 38 30 36 30 36 32 38 32 40 32 42 32 44 32 44 30 42 30"/>
    <polygon points="48 32 46 32 44 32 44 34 46 34 48 34 50 34 50 32 48 32"/>
    <polygon points="52 34 50 34 50 36 52 36 54 36 54 34 52 34"/>
    <polygon points="58 38 60 38 60 36 58 36 56 36 54 36 54 38 56 38 58 38"/>
    <polygon points="62 40 64 40 66 40 68 40 70 40 70 38 68 38 66 38 64 38 62 38 60 38 60 40 62 40"/>
    <polygon points="102 26 100 26 100 28 102 28 104 28 106 28 106 26 104 26 102 26"/>
    <polygon points="96 28 94 28 94 30 96 30 98 30 100 30 100 28 98 28 96 28"/>
    <polygon points="90 30 88 30 86 30 86 32 88 32 90 32 92 32 94 32 94 30 92 30 90 30"/>
    <polygon points="82 32 80 32 80 34 82 34 84 34 86 34 86 32 84 32 82 32"/>
    <polygon points="76 34 76 36 78 36 80 36 80 34 78 34 76 34"/>
    <polygon points="72 36 70 36 70 38 72 38 74 38 76 38 76 36 74 36 72 36"/>
    <rect x="52" y="38" width="2" height="2"/>
    <rect x="50" y="40" width="2" height="2"/>
    <rect x="48" y="42" width="2" height="2"/>
    <rect x="46" y="44" width="2" height="2"/>
    <rect x="44" y="46" width="2" height="2"/>
    <rect x="42" y="48" width="2" height="2"/>
    <rect x="40" y="50" width="2" height="2"/>
    <rect x="38" y="52" width="2" height="2"/>
    <rect x="36" y="54" width="2" height="2"/>
    <rect x="34" y="56" width="2" height="2"/>
    <rect x="32" y="58" width="2" height="2"/>
    <rect x="30" y="60" width="2" height="2"/>
    <rect x="28" y="62" width="2" height="2"/>
    <rect x="26" y="64" width="2" height="2"/>
    <rect x="76" y="38" width="2" height="2"/>
    <rect x="78" y="40" width="2" height="2"/>
    <rect x="80" y="42" width="2" height="2"/>
    <rect x="82" y="44" width="2" height="2"/>
    <rect x="84" y="46" width="2" height="2"/>
    <rect x="86" y="48" width="2" height="2"/>
    <rect x="88" y="50" width="2" height="2"/>
    <rect x="90" y="52" width="2" height="2"/>
    <rect x="92" y="54" width="2" height="2"/>
    <rect x="94" y="56" width="2" height="2"/>
    <rect x="96" y="58" width="2" height="2"/>
    <rect x="98" y="60" width="2" height="2"/>
    <rect x="100" y="62" width="2" height="2"/>
    <rect x="102" y="64" width="2" height="2"/>
    <polygon points="106 66 104 66 104 68 102 68 100 68 98 68 96 68 94 68 92 68 90 68 88 68 86 68 84 68 82 68 80 68 78 68 76 68 74 68 72 68 70 68 68 68 66 68 64 68 62 68 60 68 58 68 56 68 54 68 52 68 50 68 48 68 46 68 44 68 42 68 40 68 38 68 36 68 34 68 32 68 30 68 28 68 26 68 26 66 24 66 24 68 22 68 22 70 24 70 26 70 28 70 30 70 32 70 34 70 36 70 38 70 40 70 42 70 44 70 46 70 48 70 50 70 52 70 54 70 56 70 58 70 60 70 62 70 64 70 66 70 68 70 70 70 72 70 74 70 76 70 78 70 80 70 82 70 84 70 86 70 88 70 90 70 92 70 94 70 96 70 98 70 100 70 102 70 104 70 106 70 108 70 108 68 106 68 106 66"/>
  </g>
  <g>
    <rect class="cls-8" x="106" y="6" width="2" height="2"/>
    <g>
      <rect class="cls-9" x="22" y="6" width="2" height="2"/>
      <rect class="cls-9" x="24" y="6" width="2" height="2"/>
      <rect class="cls-9" x="26" y="6" width="2" height="2"/>
      <rect class="cls-9" x="28" y="6" width="2" height="2"/>
      <rect class="cls-9" x="30" y="6" width="2" height="2"/>
      <rect class="cls-9" x="32" y="6" width="2" height="2"/>
      <rect class="cls-9" x="34" y="6" width="2" height="2"/>
      <rect class="cls-9" x="36" y="6" width="2" height="2"/>
      <rect class="cls-9" x="38" y="6" width="2" height="2"/>
      <rect class="cls-9" x="40" y="6" width="2" height="2"/>
      <rect class="cls-9" x="42" y="6" width="2" height="2"/>
      <rect class="cls-9" x="44" y="6" width="2" height="2"/>
      <rect class="cls-9" x="22" y="8" width="2" height="2"/>
      <rect class="cls-9" x="22" y="10" width="2" height="2"/>
      <rect class="cls-9" x="22" y="12" width="2" height="2"/>
      <rect class="cls-9" x="22" y="14" width="2" height="2"/>
      <rect class="cls-9" x="22" y="16" width="2" height="2"/>
      <rect class="cls-9" x="22" y="18" width="2" height="2"/>
      <rect class="cls-9" x="22" y="20" width="2" height="2"/>
      <rect class="cls-9" x="22" y="22" width="2" height="2"/>
      <rect class="cls-8" x="22" y="26" width="2" height="2"/>
      <rect class="cls-8" x="22" y="28" width="2" height="2"/>
      <rect class="cls-8" x="22" y="30" width="2" height="2"/>
      <rect class="cls-2" x="22" y="32" width="2" height="2"/>
      <rect class="cls-8" x="22" y="34" width="2" height="2"/>
      <rect class="cls-2" x="22" y="36" width="2" height="2"/>
      <rect class="cls-2" x="22" y="38" width="2" height="2"/>
      <rect class="cls-2" x="22" y="40" width="2" height="2"/>
      <rect class="cls-2" x="22" y="42" width="2" height="2"/>
      <rect class="cls-2" x="22" y="44" width="2" height="2"/>
      <rect class="cls-9" x="46" y="6" width="2" height="2"/>
      <rect class="cls-9" x="48" y="6" width="2" height="2"/>
      <rect class="cls-9" x="50" y="6" width="2" height="2"/>
      <rect class="cls-9" x="52" y="6" width="2" height="2"/>
      <rect class="cls-9" x="54" y="6" width="2" height="2"/>
      <rect class="cls-9" x="56" y="6" width="2" height="2"/>
      <rect class="cls-9" x="58" y="6" width="2" height="2"/>
      <rect class="cls-9" x="60" y="6" width="2" height="2"/>
      <rect class="cls-9" x="62" y="6" width="2" height="2"/>
      <rect class="cls-9" x="64" y="6" width="2" height="2"/>
      <rect class="cls-9" x="66" y="6" width="2" height="2"/>
      <rect class="cls-9" x="68" y="6" width="2" height="2"/>
      <rect class="cls-9" x="70" y="6" width="2" height="2"/>
      <rect class="cls-9" x="72" y="6" width="2" height="2"/>
      <rect class="cls-9" x="74" y="6" width="2" height="2"/>
      <rect class="cls-9" x="76" y="6" width="2" height="2"/>
      <rect class="cls-9" x="78" y="6" width="2" height="2"/>
      <rect class="cls-9" x="80" y="6" width="2" height="2"/>
      <rect class="cls-9" x="82" y="6" width="2" height="2"/>
      <rect class="cls-9" x="84" y="6" width="2" height="2"/>
      <rect class="cls-9" x="86" y="6" width="2" height="2"/>
      <rect class="cls-9" x="88" y="6" width="2" height="2"/>
      <rect class="cls-9" x="90" y="6" width="2" height="2"/>
      <rect class="cls-9" x="92" y="6" width="2" height="2"/>
      <rect class="cls-9" x="94" y="6" width="2" height="2"/>
      <rect class="cls-9" x="96" y="6" width="2" height="2"/>
      <rect class="cls-9" x="98" y="6" width="2" height="2"/>
      <rect class="cls-9" x="100" y="6" width="2" height="2"/>
      <rect class="cls-9" x="102" y="6" width="2" height="2"/>
      <rect class="cls-9" x="104" y="6" width="2" height="2"/>
      <rect class="cls-9" x="106" y="8" width="2" height="2"/>
      <rect class="cls-9" x="106" y="10" width="2" height="2"/>
      <rect class="cls-9" x="106" y="12" width="2" height="2"/>
      <rect class="cls-9" x="106" y="14" width="2" height="2"/>
      <rect class="cls-9" x="106" y="16" width="2" height="2"/>
      <rect class="cls-9" x="106" y="18" width="2" height="2"/>
      <rect class="cls-9" x="106" y="20" width="2" height="2"/>
      <rect class="cls-9" x="106" y="22" width="2" height="2"/>
      <rect class="cls-1" x="106" y="26" width="2" height="2"/>
      <rect class="cls-2" x="106" y="28" width="2" height="2"/>
      <rect class="cls-2" x="106" y="30" width="2" height="2"/>
      <rect class="cls-2" x="106" y="32" width="2" height="2"/>
      <rect class="cls-2" x="106" y="34" width="2" height="2"/>
      <rect class="cls-2" x="106" y="36" width="2" height="2"/>
      <rect class="cls-2" x="106" y="38" width="2" height="2"/>
      <rect class="cls-2" x="106" y="40" width="2" height="2"/>
      <rect class="cls-2" x="106" y="42" width="2" height="2"/>
      <rect class="cls-2" x="106" y="44" width="2" height="2"/>
      <rect class="cls-2" x="22" y="46" width="2" height="2"/>
      <rect class="cls-2" x="22" y="48" width="2" height="2"/>
      <rect class="cls-2" x="22" y="50" width="2" height="2"/>
      <rect class="cls-2" x="22" y="52" width="2" height="2"/>
      <rect class="cls-2" x="22" y="54" width="2" height="2"/>
      <rect class="cls-2" x="22" y="56" width="2" height="2"/>
      <rect class="cls-2" x="22" y="58" width="2" height="2"/>
      <rect class="cls-2" x="22" y="60" width="2" height="2"/>
      <rect class="cls-2" x="22" y="62" width="2" height="2"/>
      <rect class="cls-2" x="22" y="64" width="2" height="2"/>
      <rect class="cls-2" x="22" y="66" width="2" height="2"/>
      <rect class="cls-2" x="26" y="66" width="2" height="2"/>
      <rect class="cls-2" x="28" y="66" width="2" height="2"/>
      <rect class="cls-2" x="30" y="66" width="2" height="2"/>
      <rect class="cls-2" x="32" y="66" width="2" height="2"/>
      <rect class="cls-2" x="34" y="66" width="2" height="2"/>
      <rect class="cls-2" x="36" y="66" width="2" height="2"/>
      <rect class="cls-2" x="38" y="66" width="2" height="2"/>
      <rect class="cls-2" x="40" y="66" width="2" height="2"/>
      <rect class="cls-2" x="42" y="66" width="2" height="2"/>
      <rect class="cls-2" x="44" y="66" width="2" height="2"/>
      <rect class="cls-2" x="46" y="66" width="2" height="2"/>
      <rect class="cls-2" x="48" y="66" width="2" height="2"/>
      <rect class="cls-2" x="50" y="66" width="2" height="2"/>
      <rect class="cls-2" x="52" y="66" width="2" height="2"/>
      <rect class="cls-2" x="54" y="66" width="2" height="2"/>
      <rect class="cls-2" x="56" y="66" width="2" height="2"/>
      <rect class="cls-2" x="58" y="66" width="2" height="2"/>
      <rect class="cls-2" x="60" y="66" width="2" height="2"/>
      <rect class="cls-2" x="62" y="66" width="2" height="2"/>
      <polygon class="cls-2" points="64 66 66 66 66 68 64 68 64 66 64 66"/>
      <rect class="cls-2" x="66" y="66" width="2" height="2"/>
      <rect class="cls-2" x="68" y="66" width="2" height="2"/>
      <rect class="cls-2" x="70" y="66" width="2" height="2"/>
      <rect class="cls-2" x="72" y="66" width="2" height="2"/>
      <rect class="cls-2" x="74" y="66" width="2" height="2"/>
      <rect class="cls-2" x="76" y="66" width="2" height="2"/>
      <rect class="cls-2" x="78" y="66" width="2" height="2"/>
      <rect class="cls-2" x="80" y="66" width="2" height="2"/>
      <rect class="cls-2" x="82" y="66" width="2" height="2"/>
      <rect class="cls-2" x="84" y="66" width="2" height="2"/>
      <rect class="cls-2" x="86" y="66" width="2" height="2"/>
      <rect class="cls-2" x="88" y="66" width="2" height="2"/>
      <rect class="cls-2" x="90" y="66" width="2" height="2"/>
      <rect class="cls-2" x="106" y="46" width="2" height="2"/>
      <rect class="cls-2" x="106" y="48" width="2" height="2"/>
      <rect class="cls-2" x="106" y="50" width="2" height="2"/>
      <rect class="cls-2" x="106" y="52" width="2" height="2"/>
      <rect class="cls-2" x="106" y="54" width="2" height="2"/>
      <rect class="cls-2" x="106" y="56" width="2" height="2"/>
      <rect class="cls-2" x="106" y="58" width="2" height="2"/>
      <rect class="cls-2" x="106" y="60" width="2" height="2"/>
      <rect class="cls-2" x="106" y="62" width="2" height="2"/>
      <rect class="cls-2" x="106" y="64" width="2" height="2"/>
      <rect class="cls-2" x="92" y="66" width="2" height="2"/>
      <rect class="cls-2" x="94" y="66" width="2" height="2"/>
      <rect class="cls-2" x="96" y="66" width="2" height="2"/>
      <rect class="cls-2" x="98" y="66" width="2" height="2"/>
      <rect class="cls-2" x="100" y="66" width="2" height="2"/>
      <rect class="cls-2" x="102" y="66" width="2" height="2"/>
      <rect class="cls-2" x="106" y="66" width="2" height="2"/>
    </g>
    <g>
      <rect class="cls-8" x="24" y="24" width="2" height="2"/>
      <rect class="cls-8" x="26" y="24" width="2" height="2"/>
      <rect class="cls-8" x="28" y="24" width="2" height="2"/>
      <rect class="cls-8" x="30" y="26" width="2" height="2"/>
      <rect class="cls-8" x="32" y="26" width="2" height="2"/>
      <rect class="cls-8" x="34" y="26" width="2" height="2"/>
      <rect class="cls-8" x="36" y="28" width="2" height="2"/>
      <rect class="cls-8" x="38" y="28" width="2" height="2"/>
      <rect class="cls-8" x="40" y="28" width="2" height="2"/>
      <rect class="cls-8" x="42" y="28" width="2" height="2"/>
      <rect class="cls-8" x="44" y="30" width="2" height="2"/>
      <rect class="cls-8" x="46" y="30" width="2" height="2"/>
      <rect class="cls-8" x="48" y="30" width="2" height="2"/>
      <rect class="cls-8" x="50" y="32" width="2" height="2"/>
      <rect class="cls-8" x="52" y="32" width="2" height="2"/>
      <rect class="cls-2" x="54" y="34" width="2" height="2"/>
      <rect class="cls-8" x="56" y="34" width="2" height="2"/>
      <rect class="cls-8" x="58" y="34" width="2" height="2"/>
      <rect class="cls-2" x="60" y="36" width="2" height="2"/>
      <rect class="cls-2" x="62" y="36" width="2" height="2"/>
      <rect class="cls-2" x="64" y="36" width="2" height="2"/>
    </g>
    <g>
      <rect class="cls-8" x="104" y="24" width="2" height="2"/>
      <rect class="cls-8" x="102" y="24" width="2" height="2"/>
      <rect class="cls-8" x="100" y="24" width="2" height="2"/>
      <rect class="cls-2" x="98" y="26" width="2" height="2"/>
      <rect class="cls-2" x="96" y="26" width="2" height="2"/>
      <rect class="cls-2" x="94" y="26" width="2" height="2"/>
      <rect class="cls-2" x="92" y="28" width="2" height="2"/>
      <rect class="cls-2" x="90" y="28" width="2" height="2"/>
      <rect class="cls-8" x="88" y="28" width="2" height="2"/>
      <rect class="cls-8" x="86" y="28" width="2" height="2"/>
      <rect class="cls-2" x="84" y="30" width="2" height="2"/>
      <rect class="cls-8" x="82" y="30" width="2" height="2"/>
      <rect class="cls-8" x="80" y="30" width="2" height="2"/>
      <rect class="cls-2" x="78" y="32" width="2" height="2"/>
      <rect class="cls-8" x="76" y="32" width="2" height="2"/>
      <rect class="cls-2" x="74" y="34" width="2" height="2"/>
      <rect class="cls-2" x="72" y="34" width="2" height="2"/>
      <rect class="cls-8" x="70" y="34" width="2" height="2"/>
      <rect class="cls-2" x="68" y="36" width="2" height="2"/>
      <polygon class="cls-6" points="106 8 106 24 100 24 100 26 94 26 94 28 86 28 86 30 80 30 80 32 76 32 76 34 70 34 70 36 60 36 60 34 54 34 54 32 50 32 50 30 44 30 44 28 36 28 36 26 30 26 30 24 24 24 24 8 106 8"/>
      <rect class="cls-2" x="66" y="36" width="2" height="2"/>
    </g>
    <polygon class="cls-6" points="108 26 108 68 106 68 106 66 104 66 104 64 102 64 102 62 100 62 100 60 98 60 98 58 96 58 96 56 94 56 94 54 92 54 92 52 90 52 90 50 88 50 88 48 86 48 86 46 84 46 84 44 82 44 82 42 80 42 80 40 78 40 78 38 76 38 76 36 80 36 80 34 86 34 86 32 94 32 94 30 100 30 100 28 106 28 106 26 108 26"/>
    <polygon class="cls-6" points="104 66 104 68 26 68 26 66 28 66 28 64 30 64 30 62 32 62 32 60 34 60 34 58 36 58 36 56 38 56 38 54 40 54 40 52 42 52 42 50 44 50 44 48 46 48 46 46 48 46 48 44 50 44 50 42 52 42 52 40 54 40 54 38 60 38 60 40 70 40 70 38 76 38 76 40 78 40 78 42 80 42 80 44 82 44 82 46 84 46 84 48 86 48 86 50 88 50 88 52 90 52 90 54 92 54 92 56 94 56 94 58 96 58 96 60 98 60 98 62 100 62 100 64 102 64 102 66 104 66"/>
    <polygon class="cls-6" points="54 36 54 38 52 38 52 40 50 40 50 42 48 42 48 44 46 44 46 46 44 46 44 48 42 48 42 50 40 50 40 52 38 52 38 54 36 54 36 56 34 56 34 58 32 58 32 60 30 60 30 62 28 62 28 64 26 64 26 66 24 66 24 68 22 68 22 26 24 26 24 28 30 28 30 30 36 30 36 32 44 32 44 34 50 34 50 36 54 36"/>
  </g>
  <g>
    <rect class="cls-1" x="86" y="32" width="2" height="2"/>
    <rect class="cls-4" x="88" y="32" width="2" height="2"/>
    <rect class="cls-4" x="90" y="32" width="2" height="2"/>
    <rect class="cls-1" x="80" y="34" width="2" height="2"/>
    <rect class="cls-4" x="82" y="34" width="2" height="2"/>
    <rect class="cls-3" x="84" y="34" width="2" height="2"/>
    <rect class="cls-1" x="76" y="36" width="2" height="2"/>
    <rect class="cls-4" x="78" y="36" width="2" height="2"/>
    <rect class="cls-1" x="100" y="28" width="2" height="2"/>
    <rect class="cls-4" x="102" y="28" width="2" height="2"/>
    <rect class="cls-3" x="104" y="28" width="2" height="2"/>
    <rect class="cls-1" x="94" y="30" width="2" height="2"/>
    <rect class="cls-4" x="96" y="30" width="2" height="2"/>
    <rect class="cls-3" x="98" y="30" width="2" height="2"/>
    <rect class="cls-3" x="92" y="32" width="2" height="2"/>
    <rect class="cls-2" x="86" y="34" width="2" height="2"/>
    <rect class="cls-2" x="88" y="34" width="2" height="2"/>
    <rect class="cls-3" x="90" y="34" width="2" height="2"/>
    <rect class="cls-3" x="80" y="36" width="2" height="2"/>
    <rect class="cls-3" x="82" y="36" width="2" height="2"/>
    <rect class="cls-8" x="88" y="36" width="2" height="2"/>
    <rect class="cls-8" x="80" y="38" width="2" height="2"/>
    <rect class="cls-2" x="84" y="38" width="2" height="2"/>
    <rect class="cls-8" x="86" y="38" width="2" height="2"/>
    <rect class="cls-7" x="78" y="40" width="2" height="2"/>
    <rect class="cls-2" x="82" y="40" width="2" height="2"/>
    <rect class="cls-8" x="84" y="40" width="2" height="2"/>
    <rect class="cls-2" x="102" y="30" width="2" height="2"/>
    <rect class="cls-3" x="104" y="30" width="2" height="2"/>
    <rect class="cls-3" x="94" y="32" width="2" height="2"/>
    <rect class="cls-8" x="96" y="32" width="2" height="2"/>
    <rect class="cls-9" x="98" y="32" width="2" height="2"/>
    <rect class="cls-2" x="94" y="34" width="2" height="2"/>
    <rect class="cls-8" x="98" y="34" width="2" height="2"/>
    <rect class="cls-8" x="92" y="36" width="2" height="2"/>
    <rect class="cls-8" x="98" y="36" width="2" height="2"/>
    <rect class="cls-9" x="86" y="40" width="2" height="2"/>
    <rect class="cls-9" x="84" y="36" width="2" height="2"/>
    <rect class="cls-9" x="82" y="38" width="2" height="2"/>
    <rect class="cls-9" x="88" y="42" width="2" height="2"/>
    <rect class="cls-2" x="86" y="42" width="2" height="2"/>
    <g>
      <rect class="cls-9" x="96" y="34" width="2" height="2"/>
      <rect class="cls-2" x="102" y="34" width="2" height="2"/>
      <rect class="cls-2" x="100" y="36" width="2" height="2"/>
      <rect class="cls-9" x="92" y="38" width="2" height="2"/>
      <rect class="cls-9" x="96" y="38" width="2" height="2"/>
      <rect class="cls-8" x="100" y="38" width="2" height="2"/>
      <rect class="cls-9" x="102" y="38" width="2" height="2"/>
    </g>
    <rect class="cls-8" x="94" y="42" width="2" height="2"/>
    <rect class="cls-9" x="92" y="44" width="2" height="2"/>
    <rect class="cls-9" x="88" y="46" width="2" height="2"/>
    <rect class="cls-2" x="54" y="38" width="2" height="2"/>
    <rect class="cls-3" x="56" y="38" width="2" height="2"/>
    <rect class="cls-3" x="58" y="38" width="2" height="2"/>
    <rect class="cls-1" x="70" y="38" width="2" height="2"/>
    <rect class="cls-4" x="72" y="38" width="2" height="2"/>
    <rect class="cls-3" x="74" y="38" width="2" height="2"/>
    <rect class="cls-2" x="60" y="40" width="2" height="2"/>
    <rect class="cls-3" x="62" y="40" width="2" height="2"/>
    <rect class="cls-2" x="64" y="40" width="2" height="2"/>
    <rect class="cls-3" x="66" y="40" width="2" height="2"/>
    <rect class="cls-3" x="68" y="40" width="2" height="2"/>
  </g>
  <g>
    <rect class="cls-3" x="42" y="32" width="2" height="2" transform="translate(86 66) rotate(-180)"/>
    <rect class="cls-3" x="40" y="32" width="2" height="2" transform="translate(82 66) rotate(-180)"/>
    <rect class="cls-2" x="38" y="32" width="2" height="2" transform="translate(78 66) rotate(-180)"/>
    <rect class="cls-3" x="48" y="34" width="2" height="2" transform="translate(98 70) rotate(-180)"/>
    <rect class="cls-3" x="46" y="34" width="2" height="2" transform="translate(94 70) rotate(-180)"/>
    <rect class="cls-2" x="44" y="34" width="2" height="2" transform="translate(90 70) rotate(-180)"/>
    <rect class="cls-3" x="52" y="36" width="2" height="2" transform="translate(106 74) rotate(-180)"/>
    <rect class="cls-2" x="50" y="36" width="2" height="2" transform="translate(102 74) rotate(-180)"/>
    <rect class="cls-2" x="28" y="28" width="2" height="2" transform="translate(58 58) rotate(-180)"/>
    <rect class="cls-2" x="26" y="28" width="2" height="2" transform="translate(54 58) rotate(-180)"/>
    <rect class="cls-2" x="34" y="30" width="2" height="2" transform="translate(70 62) rotate(-180)"/>
    <rect class="cls-2" x="32" y="30" width="2" height="2" transform="translate(66 62) rotate(-180)"/>
    <rect class="cls-8" x="30" y="30" width="2" height="2" transform="translate(62 62) rotate(-180)"/>
    <rect class="cls-9" x="24" y="30" width="2" height="2"/>
    <rect class="cls-9" x="28" y="30" width="2" height="2"/>
    <rect class="cls-9" x="34" y="32" width="2" height="2"/>
    <rect class="cls-9" x="32" y="34" width="2" height="2"/>
    <rect class="cls-9" x="38" y="34" width="2" height="2"/>
    <rect class="cls-9" x="42" y="34" width="2" height="2"/>
    <rect class="cls-9" x="40" y="36" width="2" height="2"/>
    <rect class="cls-9" x="38" y="40" width="2" height="2"/>
    <rect class="cls-9" x="44" y="42" width="2" height="2"/>
    <rect class="cls-9" x="46" y="36" width="2" height="2"/>
    <rect class="cls-2" x="48" y="36" width="2" height="2"/>
    <rect class="cls-9" x="48" y="38" width="2" height="2"/>
    <rect class="cls-9" x="46" y="40" width="2" height="2"/>
    <rect class="cls-8" x="36" y="34" width="2" height="2"/>
    <rect class="cls-8" x="40" y="34" width="2" height="2"/>
    <rect class="cls-8" x="42" y="36" width="2" height="2"/>
    <rect class="cls-8" x="44" y="36" width="2" height="2"/>
    <rect class="cls-8" x="44" y="38" width="2" height="2"/>
    <rect class="cls-8" x="42" y="40" width="2" height="2"/>
    <rect class="cls-8" x="26" y="30" width="2" height="2"/>
    <rect class="cls-9" x="26" y="32" width="2" height="2"/>
    <rect class="cls-9" x="28" y="36" width="2" height="2"/>
    <rect class="cls-2" x="34" y="36" width="2" height="2"/>
    <rect class="cls-2" x="38" y="36" width="2" height="2"/>
    <rect class="cls-2" x="40" y="38" width="2" height="2"/>
    <rect class="cls-2" x="40" y="44" width="2" height="2"/>
  </g>
  <g>
    <rect class="cls-3" x="78" y="38" width="2" height="2"/>
    <rect class="cls-4" x="80" y="40" width="2" height="2"/>
    <rect class="cls-3" x="82" y="42" width="2" height="2"/>
    <rect class="cls-4" x="84" y="44" width="2" height="2"/>
    <rect class="cls-3" x="86" y="46" width="2" height="2"/>
    <rect class="cls-2" x="88" y="48" width="2" height="2"/>
    <rect class="cls-2" x="90" y="50" width="2" height="2"/>
    <rect class="cls-2" x="92" y="52" width="2" height="2"/>
    <rect class="cls-3" x="94" y="54" width="2" height="2"/>
    <rect class="cls-2" x="96" y="56" width="2" height="2"/>
    <rect class="cls-3" x="98" y="58" width="2" height="2"/>
    <rect class="cls-2" x="100" y="60" width="2" height="2"/>
    <rect class="cls-2" x="102" y="62" width="2" height="2"/>
    <rect class="cls-2" x="104" y="64" width="2" height="2"/>
  </g>
  <g>
    <rect class="cls-8" x="50" y="38" width="2" height="2" transform="translate(102 78) rotate(-180)"/>
    <rect class="cls-8" x="48" y="40" width="2" height="2" transform="translate(98 82) rotate(-180)"/>
    <rect class="cls-8" x="46" y="42" width="2" height="2" transform="translate(94 86) rotate(-180)"/>
    <rect class="cls-8" x="44" y="44" width="2" height="2" transform="translate(90 90) rotate(-180)"/>
    <rect class="cls-8" x="42" y="46" width="2" height="2" transform="translate(86 94) rotate(-180)"/>
    <rect class="cls-8" x="40" y="48" width="2" height="2" transform="translate(82 98) rotate(-180)"/>
    <rect class="cls-8" x="38" y="50" width="2" height="2" transform="translate(78 102) rotate(-180)"/>
    <rect class="cls-8" x="36" y="52" width="2" height="2" transform="translate(74 106) rotate(-180)"/>
    <rect class="cls-8" x="34" y="54" width="2" height="2" transform="translate(70 110) rotate(-180)"/>
    <rect class="cls-8" x="32" y="56" width="2" height="2" transform="translate(66 114) rotate(-180)"/>
    <rect class="cls-8" x="30" y="58" width="2" height="2" transform="translate(62 118) rotate(-180)"/>
    <rect class="cls-8" x="28" y="60" width="2" height="2" transform="translate(58 122) rotate(-180)"/>
    <rect class="cls-8" x="26" y="62" width="2" height="2" transform="translate(54 126) rotate(-180)"/>
    <rect class="cls-8" x="24" y="64" width="2" height="2" transform="translate(50 130) rotate(-180)"/>
  </g>
  <g>
    <path class="cls-6" d="M7,99v-10h6v-10h4v-24h6v-6h-6v-10h34v2h2v2h4v2h4v26h-6v2h-4v2h-4v4h-14v10h-4,8v10H7ZM41,67v-6h4v-10h-4v-2h-2v16h-6v2h8Z"/>
    <path d="M58,46h-2v-2h-4v-2h-2v-2H18v8h6v8h-6v24h-4v10h-6v8h28v-8h-8v-2h4v-10h14v-4h4v-2h4v-2h6v-24h-2ZM42,62v6h-10v-4h6v-16h4v2h4v12h-4Z"/>
    <path class="cls-5" d="M56,48h-2v-2h-4v-2h-2v-2h-28v4h6v12h-6v24h-4v10h-6v4h24v-4h-8v-6h4v-10h14v-4h4v-2h4v-2h6v-20h-2ZM42,70h-12v-8h6v-16h8v2h4v16h-4v6h-2Z"/>
    <g>
      <rect class="cls-6" x="20" y="42" width="1" height="1"/>
      <rect class="cls-6" x="20" y="43" width="1" height="1"/>
      <rect class="cls-6" x="21" y="43" width="1" height="1"/>
      <rect class="cls-6" x="22" y="44" width="1" height="1"/>
      <rect class="cls-6" x="20" y="44" width="1" height="1"/>
      <rect class="cls-6" x="20" y="45" width="1" height="1"/>
      <rect class="cls-6" x="21" y="42" width="1" height="1"/>
      <rect class="cls-6" x="22" y="42" width="1" height="1"/>
      <rect class="cls-6" x="23" y="42" width="1" height="1"/>
      <rect class="cls-6" x="23" y="43" width="1" height="1"/>
      <rect class="cls-6" x="24" y="42" width="1" height="1"/>
      <rect class="cls-6" x="25" y="42" width="1" height="1"/>
      <rect class="cls-6" x="26" y="42" width="1" height="1"/>
      <rect class="cls-6" x="26" y="46" width="1" height="1"/>
      <rect class="cls-6" x="35" y="47" width="1" height="1"/>
      <rect class="cls-6" x="35" y="48" width="1" height="1"/>
      <rect class="cls-6" x="35" y="50" width="1" height="1"/>
      <rect class="cls-6" x="35" y="51" width="1" height="1"/>
      <rect class="cls-6" x="35" y="53" width="1" height="1"/>
      <rect class="cls-6" x="35" y="54" width="1" height="1"/>
      <rect class="cls-6" x="35" y="55" width="1" height="1"/>
      <rect class="cls-6" x="35" y="56" width="1" height="1"/>
      <rect class="cls-6" x="35" y="58" width="1" height="1"/>
      <rect class="cls-6" x="35" y="59" width="1" height="1"/>
      <rect class="cls-6" x="35" y="60" width="1" height="1"/>
      <rect class="cls-6" x="35" y="61" width="1" height="1"/>
      <rect class="cls-6" x="34" y="61" width="1" height="1"/>
      <rect class="cls-6" x="33" y="61" width="1" height="1"/>
      <rect class="cls-6" x="31" y="61" width="1" height="1"/>
      <rect class="cls-6" x="29" y="61" width="1" height="1"/>
      <rect class="cls-6" x="29" y="62" width="1" height="1"/>
      <rect class="cls-6" x="29" y="63" width="1" height="1"/>
      <rect class="cls-6" x="29" y="65" width="1" height="1"/>
      <rect class="cls-6" x="29" y="66" width="1" height="1"/>
      <rect class="cls-6" x="29" y="67" width="1" height="1"/>
      <rect class="cls-6" x="29" y="68" width="1" height="1"/>
      <rect class="cls-6" x="26" y="47" width="1" height="1"/>
      <rect class="cls-6" x="26" y="48" width="1" height="1"/>
      <rect class="cls-6" x="26" y="49" width="1" height="1"/>
      <rect class="cls-6" x="26" y="50" width="1" height="1"/>
      <rect class="cls-6" x="26" y="52" width="1" height="1"/>
      <rect class="cls-6" x="26" y="55" width="1" height="1"/>
      <rect class="cls-6" x="26" y="57" width="1" height="1"/>
      <rect class="cls-9" x="26" y="58" width="1" height="1"/>
      <rect class="cls-9" x="25" y="58" width="1" height="1"/>
      <rect class="cls-6" x="24" y="58" width="1" height="1"/>
      <rect class="cls-9" x="23" y="58" width="1" height="1"/>
      <rect class="cls-6" x="22" y="58" width="1" height="1"/>
      <rect class="cls-6" x="21" y="58" width="1" height="1"/>
      <rect class="cls-6" x="21" y="59" width="1" height="1"/>
      <rect class="cls-6" x="20" y="58" width="1" height="1"/>
      <rect class="cls-6" x="20" y="59" width="1" height="1"/>
      <rect class="cls-6" x="20" y="60" width="1" height="1"/>
      <rect class="cls-6" x="20" y="61" width="1" height="1"/>
      <rect class="cls-9" x="20" y="62" width="1" height="1"/>
      <rect class="cls-6" x="20" y="63" width="1" height="1"/>
      <rect class="cls-9" x="20" y="64" width="1" height="1"/>
      <rect class="cls-6" x="20" y="65" width="1" height="1"/>
      <rect class="cls-6" x="20" y="66" width="1" height="1"/>
      <rect class="cls-6" x="20" y="67" width="1" height="1"/>
      <rect class="cls-9" x="20" y="68" width="1" height="1"/>
      <rect class="cls-9" x="20" y="69" width="1" height="1"/>
      <rect class="cls-6" x="20" y="70" width="1" height="1"/>
      <rect class="cls-9" x="20" y="71" width="1" height="1"/>
      <rect class="cls-6" x="20" y="72" width="1" height="1"/>
      <rect class="cls-6" x="20" y="73" width="1" height="1"/>
      <rect class="cls-6" x="20" y="74" width="1" height="1"/>
      <rect class="cls-9" x="20" y="75" width="1" height="1"/>
      <rect class="cls-6" x="20" y="76" width="1" height="1"/>
      <rect class="cls-6" x="20" y="77" width="1" height="1"/>
      <rect class="cls-9" x="20" y="78" width="1" height="1"/>
      <rect class="cls-6" x="20" y="79" width="1" height="1"/>
      <rect class="cls-9" x="20" y="80" width="1" height="1"/>
      <rect class="cls-6" x="20" y="81" width="1" height="1"/>
      <rect class="cls-6" x="20" y="82" width="1" height="1"/>
      <rect class="cls-9" x="19" y="82" width="1" height="1"/>
      <rect class="cls-6" x="17" y="82" width="1" height="1"/>
      <rect class="cls-6" x="16" y="82" width="1" height="1"/>
      <rect class="cls-9" x="16" y="83" width="1" height="1"/>
      <rect class="cls-9" x="16" y="84" width="1" height="1"/>
      <rect class="cls-9" x="16" y="85" width="1" height="1"/>
      <rect class="cls-6" x="16" y="86" width="1" height="1"/>
      <rect class="cls-9" x="16" y="87" width="1" height="1"/>
      <rect class="cls-9" x="16" y="88" width="1" height="1"/>
      <rect class="cls-9" x="16" y="89" width="1" height="1"/>
      <rect class="cls-9" x="16" y="90" width="1" height="1"/>
      <rect class="cls-6" x="16" y="91" width="1" height="1"/>
      <rect class="cls-9" x="15" y="92" width="1" height="1"/>
      <rect class="cls-6" x="13" y="92" width="1" height="1"/>
      <rect class="cls-6" x="11" y="92" width="1" height="1"/>
      <rect class="cls-6" x="10" y="92" width="1" height="1"/>
      <rect class="cls-9" x="10" y="93" width="1" height="1"/>
      <rect class="cls-2" x="10" y="94" width="1" height="1"/>
      <rect class="cls-8" x="10" y="95" width="1" height="1"/>
      <rect class="cls-8" x="11" y="95" width="1" height="1"/>
      <rect class="cls-9" x="12" y="95" width="1" height="1"/>
      <rect class="cls-8" x="13" y="95" width="1" height="1"/>
      <rect class="cls-2" x="14" y="95" width="1" height="1"/>
      <rect class="cls-9" x="15" y="95" width="1" height="1"/>
      <rect class="cls-9" x="16" y="95" width="1" height="1"/>
      <rect class="cls-8" x="17" y="95" width="1" height="1"/>
      <rect class="cls-9" x="18" y="95" width="1" height="1"/>
      <rect class="cls-8" x="19" y="95" width="1" height="1"/>
      <rect class="cls-9" x="20" y="95" width="1" height="1"/>
      <rect class="cls-2" x="21" y="95" width="1" height="1"/>
      <rect class="cls-2" x="22" y="95" width="1" height="1"/>
      <rect class="cls-9" x="23" y="95" width="1" height="1"/>
      <rect class="cls-9" x="24" y="95" width="1" height="1"/>
      <rect class="cls-9" x="25" y="95" width="1" height="1"/>
      <rect class="cls-9" x="26" y="95" width="1" height="1"/>
      <rect class="cls-6" x="27" y="95" width="1" height="1"/>
      <rect class="cls-8" x="28" y="95" width="1" height="1"/>
      <rect class="cls-2" x="29" y="95" width="1" height="1"/>
      <rect class="cls-8" x="30" y="95" width="1" height="1"/>
      <rect class="cls-8" x="31" y="95" width="1" height="1"/>
      <rect class="cls-2" x="32" y="95" width="1" height="1"/>
      <rect class="cls-9" x="33" y="95" width="1" height="1"/>
      <rect class="cls-9" x="33" y="94" width="1" height="1"/>
      <rect class="cls-8" x="33" y="93" width="1" height="1"/>
      <rect class="cls-2" x="33" y="92" width="1" height="1"/>
      <rect class="cls-9" x="32" y="92" width="1" height="1"/>
      <rect class="cls-9" x="31" y="92" width="1" height="1"/>
      <rect class="cls-8" x="30" y="92" width="1" height="1"/>
      <rect class="cls-8" x="29" y="92" width="1" height="1"/>
      <rect class="cls-6" x="28" y="92" width="1" height="1"/>
      <rect class="cls-6" x="27" y="92" width="1" height="1"/>
      <rect class="cls-6" x="26" y="92" width="1" height="1"/>
      <rect class="cls-8" x="25" y="92" width="1" height="1"/>
      <rect class="cls-6" x="25" y="91" width="1" height="1"/>
      <rect class="cls-8" x="25" y="90" width="1" height="1"/>
      <rect class="cls-2" x="25" y="89" width="1" height="1"/>
      <rect class="cls-9" x="25" y="88" width="1" height="1"/>
      <rect class="cls-9" x="25" y="87" width="1" height="1"/>
      <rect class="cls-8" x="25" y="86" width="1" height="1"/>
      <rect class="cls-9" x="25" y="85" width="1" height="1"/>
      <rect class="cls-6" x="26" y="85" width="1" height="1"/>
      <rect class="cls-8" x="27" y="85" width="1" height="1"/>
      <rect class="cls-2" x="28" y="85" width="1" height="1"/>
      <rect class="cls-9" x="29" y="85" width="1" height="1"/>
      <rect class="cls-2" x="29" y="84" width="1" height="1"/>
      <rect class="cls-8" x="29" y="83" width="1" height="1"/>
      <rect class="cls-6" x="29" y="82" width="1" height="1"/>
      <rect class="cls-6" x="29" y="81" width="1" height="1"/>
      <rect class="cls-9" x="29" y="80" width="1" height="1"/>
      <rect class="cls-8" x="29" y="79" width="1" height="1"/>
      <rect class="cls-2" x="29" y="78" width="1" height="1"/>
      <rect class="cls-9" x="29" y="77" width="1" height="1"/>
      <rect class="cls-9" x="29" y="76" width="1" height="1"/>
      <rect class="cls-6" x="29" y="75" width="1" height="1"/>
      <rect class="cls-8" x="30" y="75" width="1" height="1"/>
      <rect class="cls-6" x="31" y="75" width="1" height="1"/>
      <rect class="cls-9" x="33" y="75" width="1" height="1"/>
      <rect class="cls-8" x="35" y="75" width="1" height="1"/>
      <rect class="cls-8" x="36" y="75" width="1" height="1"/>
      <rect class="cls-9" x="37" y="75" width="1" height="1"/>
      <rect class="cls-8" x="38" y="75" width="1" height="1"/>
      <rect class="cls-9" x="40" y="75" width="1" height="1"/>
      <rect class="cls-9" x="41" y="75" width="1" height="1"/>
      <rect class="cls-8" x="42" y="75" width="1" height="1"/>
      <rect class="cls-2" x="43" y="75" width="1" height="1"/>
      <rect class="cls-8" x="43" y="74" width="1" height="1"/>
      <rect class="cls-8" x="43" y="73" width="1" height="1"/>
      <rect class="cls-2" x="43" y="72" width="1" height="1"/>
      <rect class="cls-8" x="43" y="71" width="1" height="1"/>
      <rect class="cls-9" x="45" y="71" width="1" height="1"/>
      <rect class="cls-8" x="46" y="71" width="1" height="1"/>
      <rect class="cls-2" x="47" y="71" width="1" height="1"/>
      <rect class="cls-2" x="47" y="70" width="1" height="1"/>
      <rect class="cls-8" x="47" y="69" width="1" height="1"/>
      <rect class="cls-9" x="48" y="69" width="1" height="1"/>
      <rect class="cls-2" x="49" y="69" width="1" height="1"/>
      <rect class="cls-8" x="50" y="69" width="1" height="1"/>
      <rect class="cls-2" x="51" y="69" width="1" height="1"/>
      <rect class="cls-9" x="51" y="68" width="1" height="1"/>
      <rect class="cls-9" x="51" y="67" width="1" height="1"/>
      <rect class="cls-6" x="52" y="67" width="1" height="1"/>
      <rect class="cls-6" x="53" y="67" width="1" height="1"/>
      <rect class="cls-9" x="54" y="67" width="1" height="1"/>
      <rect class="cls-6" x="55" y="67" width="1" height="1"/>
      <rect class="cls-9" x="56" y="67" width="1" height="1"/>
      <rect class="cls-9" x="57" y="67" width="1" height="1"/>
      <rect class="cls-6" x="57" y="48" width="1" height="1"/>
      <rect class="cls-6" x="53" y="48" width="1" height="1"/>
      <rect class="cls-6" x="53" y="46" width="1" height="1"/>
      <rect class="cls-6" x="27" y="42" width="1" height="1"/>
      <rect class="cls-6" x="28" y="42" width="1" height="1"/>
      <rect class="cls-6" x="29" y="42" width="1" height="1"/>
      <rect class="cls-6" x="30" y="42" width="1" height="1"/>
      <rect class="cls-6" x="31" y="42" width="1" height="1"/>
      <rect class="cls-6" x="32" y="42" width="1" height="1"/>
      <rect class="cls-6" x="33" y="42" width="1" height="1"/>
      <rect class="cls-6" x="34" y="42" width="1" height="1"/>
      <rect class="cls-6" x="35" y="42" width="1" height="1"/>
      <rect class="cls-6" x="36" y="42" width="1" height="1"/>
      <rect class="cls-9" x="37" y="42" width="1" height="1"/>
      <rect class="cls-6" x="38" y="42" width="1" height="1"/>
      <rect class="cls-6" x="39" y="42" width="1" height="1"/>
      <rect class="cls-6" x="40" y="42" width="1" height="1"/>
      <rect class="cls-6" x="41" y="42" width="1" height="1"/>
      <rect class="cls-6" x="42" y="42" width="1" height="1"/>
      <rect class="cls-9" x="43" y="42" width="1" height="1"/>
      <rect class="cls-6" x="44" y="42" width="1" height="1"/>
      <rect class="cls-6" x="45" y="42" width="1" height="1"/>
      <rect class="cls-9" x="46" y="42" width="1" height="1"/>
      <rect class="cls-9" x="47" y="42" width="1" height="1"/>
      <rect class="cls-9" x="47" y="43" width="1" height="1"/>
      <rect class="cls-9" x="47" y="44" width="1" height="1"/>
      <rect class="cls-9" x="44" y="46" width="1" height="1"/>
      <rect class="cls-8" x="45" y="47" width="1" height="1"/>
      <rect class="cls-9" x="46" y="47" width="1" height="1"/>
      <rect class="cls-9" x="47" y="47" width="1" height="1"/>
      <rect class="cls-9" x="48" y="47" width="1" height="1"/>
      <rect class="cls-8" x="48" y="48" width="1" height="1"/>
      <rect class="cls-8" x="48" y="49" width="1" height="1"/>
      <rect class="cls-9" x="48" y="50" width="1" height="1"/>
      <rect class="cls-8" x="48" y="51" width="1" height="1"/>
      <rect class="cls-9" x="48" y="52" width="1" height="1"/>
      <rect class="cls-9" x="48" y="53" width="1" height="1"/>
      <rect class="cls-9" x="48" y="54" width="1" height="1"/>
      <rect class="cls-8" x="48" y="55" width="1" height="1"/>
      <rect class="cls-9" x="48" y="56" width="1" height="1"/>
      <rect class="cls-8" x="48" y="57" width="1" height="1"/>
      <rect class="cls-9" x="48" y="58" width="1" height="1"/>
      <rect class="cls-9" x="48" y="59" width="1" height="1"/>
      <rect class="cls-9" x="48" y="60" width="1" height="1"/>
      <rect class="cls-9" x="48" y="61" width="1" height="1"/>
      <rect class="cls-9" x="48" y="62" width="1" height="1"/>
      <rect class="cls-9" x="48" y="63" width="1" height="1"/>
      <rect class="cls-8" x="48" y="64" width="1" height="1"/>
      <rect class="cls-9" x="47" y="64" width="1" height="1"/>
      <rect class="cls-9" x="46" y="64" width="1" height="1"/>
      <rect class="cls-8" x="45" y="64" width="1" height="1"/>
      <rect class="cls-8" x="44" y="64" width="1" height="1"/>
      <rect class="cls-8" x="44" y="65" width="1" height="1"/>
      <rect class="cls-9" x="44" y="66" width="1" height="1"/>
      <rect class="cls-9" x="44" y="67" width="1" height="1"/>
      <rect class="cls-9" x="44" y="68" width="1" height="1"/>
      <rect class="cls-8" x="44" y="69" width="1" height="1"/>
      <rect class="cls-9" x="44" y="70" width="1" height="1"/>
      <rect class="cls-9" x="43" y="70" width="1" height="1"/>
      <rect class="cls-9" x="42" y="70" width="1" height="1"/>
      <rect class="cls-9" x="41" y="70" width="1" height="1"/>
      <rect class="cls-8" x="40" y="70" width="1" height="1"/>
      <rect class="cls-9" x="39" y="70" width="1" height="1"/>
      <rect class="cls-8" x="38" y="70" width="1" height="1"/>
      <rect class="cls-9" x="37" y="70" width="1" height="1"/>
      <rect class="cls-9" x="36" y="70" width="1" height="1"/>
      <rect class="cls-9" x="35" y="70" width="1" height="1"/>
      <rect class="cls-9" x="34" y="70" width="1" height="1"/>
      <rect class="cls-8" x="33" y="70" width="1" height="1"/>
      <rect class="cls-9" x="32" y="70" width="1" height="1"/>
      <rect class="cls-8" x="31" y="70" width="1" height="1"/>
      <rect class="cls-8" x="30" y="70" width="1" height="1"/>
      <rect class="cls-8" x="44" y="47" width="1" height="1"/>
      <rect class="cls-9" x="49" y="44" width="1" height="1"/>
      <rect class="cls-8" x="49" y="45" width="1" height="1"/>
      <rect class="cls-9" x="49" y="46" width="1" height="1"/>
      <rect class="cls-8" x="50" y="46" width="1" height="1"/>
      <rect class="cls-9" x="51" y="46" width="1" height="1"/>
      <rect class="cls-8" x="52" y="46" width="1" height="1"/>
      <rect class="cls-9" x="53" y="46" width="1" height="1"/>
      <rect class="cls-8" x="53" y="47" width="1" height="1"/>
      <rect class="cls-9" x="53" y="48" width="1" height="1"/>
      <rect class="cls-8" x="54" y="48" width="1" height="1"/>
      <rect class="cls-8" x="55" y="48" width="1" height="1"/>
      <rect class="cls-9" x="56" y="48" width="1" height="1"/>
      <rect class="cls-9" x="57" y="48" width="1" height="1"/>
      <rect class="cls-9" x="57" y="49" width="1" height="1"/>
      <rect class="cls-9" x="57" y="51" width="1" height="1"/>
      <rect class="cls-8" x="57" y="52" width="1" height="1"/>
      <rect class="cls-9" x="57" y="53" width="1" height="1"/>
      <rect class="cls-8" x="57" y="54" width="1" height="1"/>
      <rect class="cls-9" x="57" y="55" width="1" height="1"/>
      <rect class="cls-9" x="57" y="57" width="1" height="1"/>
      <rect class="cls-9" x="57" y="58" width="1" height="1"/>
      <rect class="cls-8" x="57" y="59" width="1" height="1"/>
      <rect class="cls-8" x="57" y="60" width="1" height="1"/>
      <rect class="cls-8" x="57" y="62" width="1" height="1"/>
      <rect class="cls-8" x="57" y="64" width="1" height="1"/>
      <rect class="cls-8" x="57" y="65" width="1" height="1"/>
      <rect class="cls-8" x="57" y="66" width="1" height="1"/>
    </g>
  </g>
  <rect class="cls-9" x="24" y="8" width="2" height="2"/>
  <rect class="cls-9" x="26" y="8" width="2" height="2"/>
  <rect class="cls-9" x="28" y="8" width="2" height="2"/>
  <rect class="cls-9" x="32" y="8" width="2" height="2"/>
  <rect class="cls-9" x="34" y="8" width="2" height="2"/>
  <rect class="cls-9" x="36" y="8" width="2" height="2"/>
  <rect class="cls-9" x="44" y="8" width="2" height="2"/>
  <rect class="cls-9" x="24" y="10" width="2" height="2"/>
  <rect class="cls-9" x="30" y="10" width="2" height="2"/>
  <rect class="cls-9" x="42" y="10" width="2" height="2"/>
  <rect class="cls-9" x="24" y="12" width="2" height="2"/>
  <rect class="cls-9" x="28" y="12" width="2" height="2"/>
  <rect class="cls-9" x="36" y="14" width="2" height="2"/>
  <rect class="cls-9" x="24" y="16" width="2" height="2"/>
  <rect class="cls-9" x="28" y="16" width="2" height="2"/>
  <rect class="cls-9" x="44" y="16" width="2" height="2"/>
  <rect class="cls-9" x="30" y="18" width="2" height="2"/>
  <rect class="cls-9" x="32" y="18" width="2" height="2"/>
  <rect class="cls-9" x="28" y="20" width="2" height="2"/>
  <rect class="cls-9" x="24" y="22" width="2" height="2"/>
  <rect class="cls-9" x="36" y="22" width="2" height="2"/>
  <rect class="cls-9" x="46" y="8" width="2" height="2"/>
  <rect class="cls-9" x="52" y="8" width="2" height="2"/>
  <rect class="cls-9" x="54" y="8" width="2" height="2"/>
  <rect class="cls-9" x="56" y="8" width="2" height="2"/>
  <rect class="cls-9" x="62" y="8" width="2" height="2"/>
  <rect class="cls-9" x="50" y="10" width="2" height="2"/>
</svg>