<?xml version="1.0" encoding="UTF-8"?>
<svg id="Layer_1" data-name="Layer 1" xmlns="http://www.w3.org/2000/svg" viewBox="0 0 144 127">
  <defs>
    <style>
      .cls-1 {
        fill: #89036d;
      }

      .cls-2 {
        fill: #057fa0;
      }

      .cls-3 {
        fill: #fff927;
      }

      .cls-4 {
        fill: #ffc828;
      }

      .cls-5 {
        fill: #f47e1e;
      }

      .cls-6 {
        fill: #ebfd3c;
      }

      .cls-7 {
        fill: #9e2a80;
      }

      .cls-8 {
        fill: #004589;
      }

      .cls-9 {
        fill: #efac06;
      }

      .cls-10 {
        fill: #00afab;
      }

      .cls-11 {
        fill: #2eb67b;
      }

      .cls-12 {
        fill: #f4f4f4;
      }

      .cls-13 {
        fill: #50419b;
      }

      .cls-14 {
        fill: #221c72;
      }

      .cls-15 {
        fill: #f21c82;
      }

      .cls-16 {
        fill: #3b2f8e;
      }

      .cls-17 {
        fill: #ff9230;
      }

      .cls-18 {
        fill: #fff402;
      }

      .cls-19 {
        fill: #fe572d;
      }

      .cls-20 {
        fill: #00aa5b;
      }

      .cls-21 {
        fill: #ddd;
      }

      .cls-22 {
        fill: #0067ad;
      }

      .cls-23 {
        fill: #ead906;
      }

      .cls-24 {
        fill: #fff;
      }

      .cls-25 {
        fill: #ea6c0f;
      }

      .cls-26 {
        fill: #0080c8;
      }

      .cls-27 {
        fill: #be479a;
      }

      .cls-28 {
        fill: #06847b;
      }

      .cls-29 {
        fill: #f44522;
      }

      .cls-30 {
        fill: #f7b719;
      }

      .cls-31 {
        fill: #ff73af;
      }

      .cls-32 {
        fill: #0693c4;
      }

      .cls-33 {
        fill: #dbc607;
      }

      .cls-34 {
        fill: #00964b;
      }

      .cls-35 {
        fill: #8decff;
      }

      .cls-36 {
        fill: #98d147;
      }

      .cls-37 {
        fill: #86bf2c;
      }

      .cls-38 {
        fill: #7aaf14;
      }

      .cls-39 {
        fill: #00b2f1;
      }

      .cls-40 {
        fill: #ff4e9b;
      }

      .cls-41 {
        fill: #db3014;
      }

      .cls-42 {
        fill: #ff9fd6;
      }

      .cls-43 {
        fill: #089b94;
      }

      .cls-44 {
        fill: #da121d;
      }

      .cls-45 {
        fill: #00823e;
      }

      .cls-46 {
        fill: #ffeaf8;
      }
    </style>
  </defs>
  <g>
    <g>
      <rect x="9" y="7" width="125" height="2"/>
      <rect x="7" y="9" width="2" height="116"/>
      <rect x="134" y="9" width="2" height="116"/>
      <rect class="cls-24" x="9" y="9" width="125" height="116"/>
      <rect class="cls-46" x="15" y="15" width="113" height="104"/>
      <rect x="9" y="125" width="125" height="2"/>
    </g>
    <g>
      <rect x="6" y="4" width="132" height="2"/>
      <rect x="4" y="6" width="2" height="116"/>
      <rect x="138" y="6" width="2" height="116"/>
      <rect class="cls-24" x="6" y="6" width="132" height="116"/>
      <rect class="cls-46" x="12" y="12" width="120" height="104"/>
      <rect x="6" y="122" width="132" height="2"/>
    </g>
    <g>
      <rect x="2" width="140" height="2"/>
      <rect y="2" width="2" height="116"/>
      <rect x="142" y="2" width="2" height="116"/>
      <rect class="cls-24" x="2" y="2" width="140" height="116"/>
      <rect class="cls-46" x="8" y="8" width="128" height="104"/>
      <rect x="2" y="118" width="140" height="2"/>
    </g>
  </g>
  <g>
    <polygon class="cls-24" points="67 107 67 105 63 105 63 101 57 101 57 103 51 103 51 101 47 101 47 99 45 99 45 97 43 97 43 89 35 89 35 87 33 87 33 85 31 85 31 83 29 83 29 75 31 75 31 69 29 69 29 67 27 67 27 65 25 65 25 55 27 55 27 51 31 51 31 49 31 45 29 45 29 37 31 37 31 35 33 35 33 33 35 33 35 31 43 31 43 23 45 23 45 21 47 21 47 19 49 19 49 17 59 17 59 19 61 19 61 21 61 19 63 19 63 15 67 15 67 13 77 13 77 15 81 15 81 19 83 19 83 20 83 19 85 19 85 17 95 17 95 19 97 19 97 21 99 21 99 23 101 23 101 31 109 31 109 33 111 33 111 35 113 35 113 37 115 37 115 45 113 45 113 49 111 49 113 49 113 51 117 51 117 55 119 55 119 65 117 65 117 67 115 67 115 69 113 69 113 71 111 71 113 71 113 75 115 75 115 83 113 83 113 85 111 85 111 87 109 87 109 89 101 89 101 97 99 97 99 99 97 99 97 101 93 101 93 103 87 103 87 101 81 101 81 105 77 105 77 107 67 107"/>
    <g>
      <g>
        <polygon points="80 16 80 20 78 20 78 18 76 18 76 16 80 16"/>
        <polygon points="84 22 84 24 82 24 82 30 80 30 80 20 82 20 82 22 84 22"/>
        <rect x="86" y="18" width="8" height="2"/>
        <rect x="84" y="20" width="2" height="2"/>
        <rect x="94" y="20" width="2" height="2"/>
        <rect x="96" y="22" width="2" height="2"/>
        <polygon points="108 32 108 34 98 34 98 24 100 24 100 32 108 32"/>
        <rect x="96" y="34" width="2" height="2"/>
        <rect x="84" y="32" width="4" height="2"/>
        <polygon points="84 34 84 36 80 36 80 42 78 42 78 30 80 30 80 34 84 34"/>
        <rect x="88" y="34" width="4" height="2"/>
        <polygon class="cls-40" points="98 24 98 34 96 34 96 36 92 36 92 34 88 34 88 32 84 32 84 34 80 34 80 30 82 30 82 24 84 24 84 22 86 22 86 20 94 20 94 22 96 22 96 24 98 24"/>
        <polygon points="96 36 96 42 94 42 94 38 92 38 92 36 96 36"/>
        <rect x="76" y="42" width="2" height="6"/>
        <rect x="96" y="42" width="2" height="8"/>
        <rect x="68" y="48" width="8" height="2"/>
        <polygon points="102 52 102 54 100 54 100 62 98 62 98 50 100 50 100 52 102 52"/>
        <polygon points="102 66 102 68 98 68 98 70 96 70 96 62 98 62 98 66 102 66"/>
        <rect x="94" y="70" width="2" height="4"/>
        <rect x="92" y="74" width="2" height="2"/>
        <polygon points="92 76 92 80 88 80 88 78 90 78 90 76 92 76"/>
        <rect x="84" y="80" width="4" height="2"/>
        <polygon points="84 82 84 84 80 84 80 90 78 90 78 84 74 84 74 82 84 82"/>
        <rect x="108" y="34" width="2" height="2"/>
        <rect x="110" y="36" width="2" height="2"/>
        <rect x="112" y="38" width="2" height="6"/>
        <rect x="110" y="44" width="2" height="4"/>
        <polygon class="cls-19" points="112 38 112 44 110 44 110 48 108 48 108 50 102 50 102 52 100 52 100 50 98 50 98 42 96 42 96 36 98 36 98 34 108 34 108 36 110 36 110 38 112 38"/>
        <polygon points="112 50 112 52 102 52 102 50 108 50 108 48 110 48 110 50 112 50"/>
        <polygon points="116 52 116 56 114 56 114 54 112 54 112 52 116 52"/>
        <rect x="92" y="80" width="2" height="2"/>
        <rect x="94" y="82" width="2" height="2"/>
        <rect x="96" y="84" width="2" height="2"/>
        <polygon points="84 96 84 98 82 98 82 100 80 100 80 90 82 90 82 96 84 96"/>
        <rect x="96" y="96" width="2" height="2"/>
        <rect x="84" y="98" width="4" height="2"/>
        <rect x="92" y="98" width="4" height="2"/>
        <rect x="88" y="100" width="4" height="2"/>
        <rect x="116" y="56" width="2" height="8"/>
        <rect x="114" y="64" width="2" height="2"/>
        <rect x="112" y="66" width="2" height="2"/>
        <polygon class="cls-17" points="116 56 116 64 114 64 114 66 112 66 112 68 102 68 102 66 98 66 98 62 100 62 100 54 102 54 102 52 112 52 112 54 114 54 114 56 116 56"/>
        <polygon points="112 68 112 70 110 70 110 72 108 72 108 70 102 70 102 68 112 68"/>
        <rect x="110" y="72" width="2" height="4"/>
        <rect x="112" y="76" width="2" height="6"/>
        <rect x="110" y="82" width="2" height="2"/>
        <rect x="108" y="84" width="2" height="2"/>
        <polygon class="cls-18" points="98 86 98 96 96 96 96 98 92 98 92 100 88 100 88 98 84 98 84 96 82 96 82 90 80 90 80 84 84 84 84 82 88 82 88 80 92 80 92 82 94 82 94 84 96 84 96 86 98 86"/>
        <polygon class="cls-4" points="112 76 112 82 110 82 110 84 108 84 108 86 98 86 98 84 96 84 96 82 94 82 94 80 92 80 92 76 94 76 94 74 96 74 96 70 98 70 98 68 102 68 102 70 108 70 108 72 110 72 110 76 112 76"/>
        <polygon points="108 86 108 88 100 88 100 96 98 96 98 86 108 86"/>
        <polygon points="84 60 84 62 80 62 80 61.97 78 61.97 78 60 66 60 66 61.97 64 61.97 64 62 60 62 60 60 64 60 64 58 78 58 78 59.97 80 59.97 80 60 84 60"/>
        <rect x="58" y="62" width="2" height="2"/>
        <rect x="60" y="64" width="2" height="4"/>
        <rect x="62" y="68" width="2" height="2"/>
        <rect x="64" y="70" width="2" height="2"/>
        <rect x="66" y="72" width="2" height="2"/>
        <rect x="84" y="62" width="2" height="2"/>
        <rect x="82" y="64" width="2" height="4"/>
        <rect x="80" y="68" width="2" height="2"/>
        <rect x="78" y="70" width="2" height="2"/>
        <rect x="76" y="72" width="2" height="2"/>
        <rect x="68" y="74" width="8" height="2"/>
        <rect x="68" y="14" width="8" height="2"/>
        <polygon points="68 16 68 18 66 18 66 20 64 20 64 16 68 16"/>
        <rect x="50" y="18" width="8" height="2"/>
        <rect x="58" y="20" width="2" height="2"/>
        <rect x="48" y="20" width="2" height="2"/>
        <polygon points="64 20 64 30 62 30 62 24 60 24 60 22 62 22 62 20 64 20"/>
        <rect x="46" y="22" width="2" height="2"/>
        <rect x="46" y="34" width="2" height="2"/>
        <polygon points="52 36 52 38 50 38 50 42 48 42 48 36 52 36"/>
        <rect x="56" y="32" width="4" height="2"/>
        <rect x="52" y="34" width="4" height="2"/>
        <polygon points="66 30 66 42 64 42 64 36 60 36 60 34 64 34 64 30 66 30"/>
        <rect x="46" y="42" width="2" height="8"/>
        <polygon class="cls-27" points="80 20 80 30 78 30 78 42 76 42 76 48 68 48 68 42 66 42 66 30 64 30 64 20 66 20 66 18 68 18 68 16 76 16 76 18 78 18 78 20 80 20"/>
        <rect x="66" y="42" width="2" height="6"/>
        <polygon points="46 50 46 62 44 62 44 54 42 54 42 52 44 52 44 50 46 50"/>
        <polygon points="48 62 48 70 46 70 46 68 42 68 42 66 46 66 46 62 48 62"/>
        <rect x="48" y="70" width="2" height="4"/>
        <rect x="50" y="74" width="2" height="2"/>
        <polygon points="56 78 56 80 52 80 52 76 54 76 54 78 56 78"/>
        <rect x="56" y="80" width="4" height="2"/>
        <polygon points="64 90 64 100 62 100 62 98 60 98 60 96 62 96 62 90 64 90"/>
        <polygon class="cls-13" points="64 30 64 34 60 34 60 32 56 32 56 34 52 34 52 36 48 36 48 34 46 34 46 24 48 24 48 22 50 22 50 20 58 20 58 22 60 22 60 24 62 24 62 30 64 30"/>
        <polygon points="46 24 46 34 36 34 36 32 44 32 44 24 46 24"/>
        <rect x="34" y="34" width="2" height="2"/>
        <rect x="32" y="36" width="2" height="2"/>
        <rect x="30" y="38" width="2" height="6"/>
        <rect x="32" y="44" width="2" height="4"/>
        <polygon class="cls-26" points="48 36 48 42 46 42 46 50 44 50 44 52 42 52 42 50 36 50 36 48 34 48 34 44 32 44 32 38 34 38 34 36 36 36 36 34 46 34 46 36 48 36"/>
        <polygon points="42 50 42 52 32 52 32 50 34 50 34 48 36 48 36 50 42 50"/>
        <polygon points="32 52 32 54 30 54 30 56 28 56 28 52 32 52"/>
        <rect x="50" y="80" width="2" height="2"/>
        <rect x="48" y="82" width="2" height="2"/>
        <rect x="46" y="84" width="2" height="2"/>
        <polygon points="46 86 46 96 44 96 44 88 36 88 36 86 46 86"/>
        <rect x="46" y="96" width="2" height="2"/>
        <rect x="56" y="98" width="4" height="2"/>
        <rect x="48" y="98" width="4" height="2"/>
        <rect x="52" y="100" width="4" height="2"/>
        <rect x="26" y="56" width="2" height="8"/>
        <rect x="28" y="64" width="2" height="2"/>
        <rect x="30" y="66" width="2" height="2"/>
        <polygon class="cls-39" points="46 62 46 66 42 66 42 68 32 68 32 66 30 66 30 64 28 64 28 56 30 56 30 54 32 54 32 52 42 52 42 54 44 54 44 62 46 62"/>
        <polygon points="42 68 42 70 36 70 36 72 34 72 34 70 32 70 32 68 42 68"/>
        <rect x="32" y="72" width="2" height="4"/>
        <rect x="30" y="76" width="2" height="6"/>
        <rect x="32" y="82" width="2" height="2"/>
        <polygon class="cls-10" points="52 76 52 80 50 80 50 82 48 82 48 84 46 84 46 86 36 86 36 84 34 84 34 82 32 82 32 76 34 76 34 72 36 72 36 70 42 70 42 68 46 68 46 70 48 70 48 74 50 74 50 76 52 76"/>
        <rect x="34" y="84" width="2" height="2"/>
        <polygon points="68 102 68 104 64 104 64 100 66 100 66 102 68 102"/>
        <rect x="68" y="104" width="8" height="2"/>
        <polygon points="80 100 80 104 76 104 76 102 78 102 78 100 80 100"/>
        <polygon class="cls-20" points="64 84 64 90 62 90 62 96 60 96 60 98 56 98 56 100 52 100 52 98 48 98 48 96 46 96 46 86 48 86 48 84 50 84 50 82 52 82 52 80 56 80 56 82 60 82 60 84 64 84"/>
        <polygon points="70 82 70 84 66 84 66 90 64 90 64 84 60 84 60 82 70 82"/>
        <path class="cls-24" d="M96,50v-8h-2v-4h-2v-2h-4v-2h-4v2h-4v6h-2v6h-2v2h-8v-2h-2v-6h-2v-6h-4v-2h-4v2h-4v2h-2v4h-2v8h-2v12h2v8h2v4h2v2h2v2h2v2h4v2h10v2h4v-2h10v-2h4v-2h2v-2h2v-2h2v-4h2v-8h2v-12h-2ZM86,64h-2v4h-2v2h-2v2h-2v2h-2v2h-8v-2h-2v-2h-2v-2h-2v-2h-2v-4h-2v-2h2v-2h4v-2h14v1.97h2v.03h4v2h2v2Z"/>
        <polygon class="cls-31" points="84 62 84 64 82 64 82 68 80 68 80 70 78 70 78 72 76 72 76 74 68 74 68 72 66 72 66 70 64 70 64 68 62 68 62 64 60 64 60 62 64 62 64 61.97 66 61.97 66 60 78 60 78 61.97 80 61.97 80 62 84 62"/>
        <polygon class="cls-36" points="80 90 80 100 78 100 78 102 76 102 76 104 68 104 68 102 66 102 66 100 64 100 64 90 66 90 66 84 70 84 70 86 74 86 74 84 78 84 78 90 80 90"/>
        <rect x="70" y="84" width="4" height="2"/>
      </g>
      <g>
        <g>
          <rect class="cls-33" x="80" y="84" width="2" height="2"/>
          <rect class="cls-23" x="80" y="86" width="2" height="2"/>
          <rect class="cls-23" x="82" y="90" width="2" height="2"/>
          <rect class="cls-23" x="82" y="92" width="2" height="2"/>
          <rect class="cls-33" x="82" y="94" width="2" height="2"/>
          <rect class="cls-33" x="84" y="96" width="2" height="2"/>
          <rect class="cls-23" x="82" y="84" width="2" height="2"/>
          <rect class="cls-33" x="84" y="82" width="2" height="2"/>
          <rect class="cls-23" x="86" y="82" width="2" height="2"/>
          <rect class="cls-33" x="88" y="80" width="2" height="2"/>
          <rect class="cls-33" x="90" y="80" width="2" height="2"/>
          <rect class="cls-33" x="92" y="82" width="2" height="2"/>
          <rect class="cls-33" x="94" y="84" width="2" height="2"/>
          <rect class="cls-33" x="96" y="86" width="2" height="2"/>
          <rect class="cls-23" x="96" y="88" width="2" height="2"/>
          <rect class="cls-23" x="96" y="90" width="2" height="2"/>
          <rect class="cls-23" x="96" y="92" width="2" height="2"/>
          <rect class="cls-23" x="96" y="94" width="2" height="2"/>
          <rect class="cls-23" x="94" y="96" width="2" height="2"/>
          <rect class="cls-23" x="90" y="98" width="2" height="2"/>
        </g>
        <g>
          <rect class="cls-38" x="64" y="90" width="2" height="2"/>
          <rect class="cls-37" x="64" y="92" width="2" height="2"/>
          <rect class="cls-37" x="64" y="94" width="2" height="2"/>
          <rect class="cls-37" x="64" y="96" width="2" height="2"/>
          <rect class="cls-37" x="64" y="98" width="2" height="2"/>
          <rect class="cls-37" x="66" y="100" width="2" height="2"/>
          <rect class="cls-37" x="68" y="102" width="2" height="2"/>
          <rect class="cls-38" x="66" y="84" width="2" height="2"/>
          <rect class="cls-38" x="66" y="86" width="2" height="2"/>
          <rect class="cls-37" x="66" y="88" width="2" height="2"/>
          <rect class="cls-38" x="68" y="84" width="2" height="2"/>
          <rect class="cls-38" x="74" y="84" width="2" height="2"/>
          <rect class="cls-38" x="72" y="86" width="2" height="2"/>
          <rect class="cls-38" x="70" y="86" width="2" height="2"/>
          <rect class="cls-38" x="76" y="84" width="2" height="2"/>
          <rect class="cls-37" x="78" y="90" width="2" height="2"/>
          <rect class="cls-37" x="78" y="92" width="2" height="2"/>
          <rect class="cls-37" x="78" y="94" width="2" height="2"/>
          <rect class="cls-37" x="78" y="96" width="2" height="2"/>
          <rect class="cls-37" x="78" y="98" width="2" height="2"/>
          <rect class="cls-37" x="76" y="100" width="2" height="2"/>
          <rect class="cls-37" x="74" y="102" width="2" height="2"/>
        </g>
        <g>
          <rect class="cls-45" x="52" y="80" width="2" height="2"/>
          <rect class="cls-45" x="50" y="82" width="2" height="2"/>
          <rect class="cls-45" x="48" y="84" width="2" height="2"/>
          <rect class="cls-45" x="46" y="86" width="2" height="2"/>
          <rect class="cls-34" x="46" y="88" width="2" height="2"/>
          <rect class="cls-34" x="46" y="90" width="2" height="2"/>
          <rect class="cls-34" x="46" y="92" width="2" height="2"/>
          <rect class="cls-34" x="46" y="94" width="2" height="2"/>
          <rect class="cls-34" x="48" y="96" width="2" height="2"/>
          <rect class="cls-34" x="52" y="98" width="2" height="2"/>
          <rect class="cls-34" x="58" y="96" width="2" height="2"/>
          <rect class="cls-34" x="60" y="94" width="2" height="2"/>
          <rect class="cls-45" x="54" y="80" width="2" height="2"/>
          <rect class="cls-45" x="58" y="82" width="2" height="2"/>
          <rect class="cls-34" x="56" y="82" width="2" height="2"/>
          <rect class="cls-45" x="62" y="84" width="2" height="2"/>
          <rect class="cls-34" x="62" y="86" width="2" height="2"/>
          <rect class="cls-34" x="60" y="84" width="2" height="2"/>
        </g>
        <g>
          <rect class="cls-43" x="39.99" y="70" width="2" height="2"/>
          <rect class="cls-43" x="38" y="70" width="2" height="2"/>
          <rect class="cls-28" x="36" y="70" width="2" height="2"/>
          <rect class="cls-43" x="36" y="72" width="2" height="2"/>
          <rect class="cls-28" x="34" y="72" width="2" height="2"/>
          <rect class="cls-43" x="34" y="74" width="2" height="2"/>
          <rect class="cls-28" x="32" y="76" width="2" height="2"/>
          <rect class="cls-43" x="32" y="78" width="2" height="2"/>
          <rect class="cls-43" x="32" y="80" width="2" height="2"/>
          <rect class="cls-28" x="34" y="82" width="2" height="2"/>
          <rect class="cls-28" x="36" y="84" width="2" height="2"/>
          <rect class="cls-43" x="38" y="84" width="2" height="2"/>
          <rect class="cls-43" x="40" y="84" width="2" height="2"/>
          <rect class="cls-43" x="42" y="84" width="2" height="2"/>
          <rect class="cls-43" x="44" y="84" width="2" height="2"/>
          <rect class="cls-28" x="46" y="70" width="2" height="2"/>
          <rect class="cls-28" x="48" y="74" width="2" height="2"/>
          <rect class="cls-28" x="50" y="76" width="2" height="2"/>
          <rect class="cls-43" x="50" y="78" width="2" height="2"/>
          <rect class="cls-28" x="44" y="68" width="2" height="2"/>
          <rect class="cls-28" x="42" y="68" width="2" height="2"/>
        </g>
        <g>
          <rect class="cls-32" x="38" y="51.99" width="2" height="2"/>
          <rect class="cls-32" x="40" y="51.99" width="2" height="2"/>
          <rect class="cls-32" x="34" y="51.99" width="2" height="2"/>
          <rect class="cls-32" x="36" y="51.99" width="2" height="2"/>
          <rect class="cls-2" x="32" y="51.99" width="2" height="2"/>
          <rect class="cls-2" x="30" y="54" width="2" height="2"/>
          <rect class="cls-2" x="28" y="56" width="2" height="2"/>
          <rect class="cls-2" x="28" y="58" width="2" height="2"/>
          <rect class="cls-32" x="28" y="60" width="2" height="2"/>
          <rect class="cls-32" x="28" y="62" width="2" height="2"/>
          <rect class="cls-2" x="30" y="64" width="2" height="2"/>
          <rect class="cls-32" x="31.88" y="64" width="2" height="2"/>
          <rect class="cls-2" x="32" y="66" width="2" height="2"/>
          <rect class="cls-32" x="34" y="66" width="2" height="2"/>
          <rect class="cls-32" x="36" y="66" width="2" height="2"/>
          <rect class="cls-32" x="38" y="66" width="2" height="2"/>
          <rect class="cls-32" x="39.99" y="66" width="2" height="2"/>
          <rect class="cls-2" x="44" y="62" width="2" height="2" transform="translate(108 18) rotate(90)"/>
          <rect class="cls-32" x="44" y="64" width="2" height="2" transform="translate(110 20) rotate(90)"/>
        </g>
        <g>
          <rect class="cls-9" x="106" y="70" width="2" height="2" transform="translate(214.01 141.99) rotate(-180)"/>
          <rect class="cls-9" x="108" y="72" width="2" height="2" transform="translate(218 145.99) rotate(-180)"/>
          <rect class="cls-9" x="110" y="76" width="2" height="2" transform="translate(222 153.99) rotate(-180)"/>
          <rect class="cls-9" x="108" y="82" width="2" height="2" transform="translate(218 165.99) rotate(-180)"/>
          <rect class="cls-9" x="104" y="84" width="2" height="2" transform="translate(210 169.99) rotate(-180)"/>
          <rect class="cls-9" x="96" y="70" width="2" height="2" transform="translate(194 141.99) rotate(-180)"/>
          <rect class="cls-9" x="94" y="74" width="2" height="2" transform="translate(190 149.99) rotate(-180)"/>
          <rect class="cls-9" x="92" y="76" width="2" height="2" transform="translate(186 153.99) rotate(-180)"/>
          <rect class="cls-9" x="98" y="68" width="2" height="2" transform="translate(198 137.99) rotate(-180)"/>
          <rect class="cls-9" x="100" y="68" width="2" height="2" transform="translate(202 137.99) rotate(-180)"/>
        </g>
        <g>
          <rect class="cls-5" x="104" y="51.99" width="2" height="2" transform="translate(210 105.99) rotate(-180)"/>
          <rect class="cls-5" x="102" y="51.99" width="2" height="2" transform="translate(206 105.99) rotate(-180)"/>
          <rect class="cls-5" x="108" y="51.99" width="2" height="2" transform="translate(218 105.99) rotate(-180)"/>
          <rect class="cls-5" x="106" y="51.99" width="2" height="2" transform="translate(214 105.99) rotate(-180)"/>
          <rect class="cls-25" x="110" y="51.99" width="2" height="2" transform="translate(222 105.99) rotate(-180)"/>
          <rect class="cls-25" x="112" y="54" width="2" height="2" transform="translate(226 109.99) rotate(-180)"/>
          <rect class="cls-25" x="114" y="56" width="2" height="2" transform="translate(230 113.99) rotate(-180)"/>
          <rect class="cls-25" x="114" y="58" width="2" height="2" transform="translate(230 117.99) rotate(-180)"/>
          <rect class="cls-5" x="114" y="60" width="2" height="2" transform="translate(230 121.99) rotate(-180)"/>
          <rect class="cls-5" x="114" y="62" width="2" height="2" transform="translate(230 125.99) rotate(-180)"/>
          <rect class="cls-25" x="112" y="64" width="2" height="2" transform="translate(226 129.99) rotate(-180)"/>
          <rect class="cls-5" x="110.12" y="64" width="2" height="2" transform="translate(222.24 129.99) rotate(-180)"/>
          <rect class="cls-25" x="110" y="66" width="2" height="2" transform="translate(222 133.99) rotate(-180)"/>
          <rect class="cls-5" x="108" y="66" width="2" height="2" transform="translate(218 133.99) rotate(-180)"/>
          <rect class="cls-5" x="106" y="66" width="2" height="2" transform="translate(214.01 133.99) rotate(-180)"/>
          <rect class="cls-5" x="104" y="66" width="2" height="2" transform="translate(210.01 133.99) rotate(-180)"/>
          <rect class="cls-5" x="102.01" y="66" width="2" height="2" transform="translate(206.01 133.99) rotate(-180)"/>
          <rect class="cls-25" x="98" y="62" width="2" height="2" transform="translate(162 -36) rotate(90)"/>
          <rect class="cls-25" x="100" y="60" width="2" height="2" transform="translate(161.99 -40) rotate(90)"/>
          <rect class="cls-25" x="100" y="58" width="2" height="2" transform="translate(159.99 -42) rotate(90)"/>
          <rect class="cls-25" x="100" y="55.99" width="2" height="2" transform="translate(157.99 -44) rotate(90)"/>
          <rect class="cls-25" x="100" y="53.99" width="2" height="2" transform="translate(155.99 -46.01) rotate(90)"/>
          <rect class="cls-5" x="98" y="64" width="2" height="2" transform="translate(164 -34) rotate(90)"/>
        </g>
        <rect class="cls-30" x="102.01" y="70" width="2" height="2" transform="translate(206.01 141.99) rotate(-180)"/>
        <rect class="cls-30" x="104" y="70" width="2" height="2" transform="translate(210.01 141.99) rotate(-180)"/>
        <rect class="cls-30" x="106" y="72" width="2" height="2" transform="translate(214.01 145.99) rotate(-180)"/>
        <rect class="cls-30" x="108" y="74" width="2" height="2" transform="translate(218 149.99) rotate(-180)"/>
        <rect class="cls-30" x="110" y="78" width="2" height="2" transform="translate(222 157.99) rotate(-180)"/>
        <rect class="cls-30" x="110" y="80" width="2" height="2" transform="translate(222 161.99) rotate(-180)"/>
        <rect class="cls-30" x="106" y="84" width="2" height="2" transform="translate(214 169.99) rotate(-180)"/>
        <rect class="cls-30" x="102" y="84" width="2" height="2" transform="translate(206 169.99) rotate(-180)"/>
        <rect class="cls-30" x="100" y="84" width="2" height="2" transform="translate(202 169.99) rotate(-180)"/>
        <rect class="cls-30" x="98" y="84" width="2" height="2" transform="translate(198 169.99) rotate(-180)"/>
        <rect class="cls-30" x="92" y="78" width="2" height="2" transform="translate(186 157.99) rotate(-180)"/>
      </g>
      <g>
        <g>
          <g>
            <rect class="cls-22" x="38" y="33.99" width="2" height="2"/>
            <rect class="cls-22" x="40" y="33.99" width="2" height="2"/>
            <rect class="cls-22" x="42" y="33.99" width="2" height="2"/>
            <rect class="cls-22" x="44" y="33.99" width="2" height="2"/>
            <rect class="cls-22" x="46" y="39.99" width="2" height="2"/>
            <rect class="cls-22" x="34" y="43.99" width="2" height="2"/>
            <rect class="cls-22" x="38" y="47.99" width="2" height="2"/>
          </g>
          <g>
            <rect class="cls-8" x="36" y="33.99" width="2" height="2"/>
            <rect class="cls-8" x="34" y="35.99" width="2" height="2"/>
            <rect class="cls-8" x="32" y="37.99" width="2" height="2"/>
            <rect class="cls-8" x="32" y="39.99" width="2" height="2"/>
            <rect class="cls-8" x="32" y="41.99" width="2" height="2"/>
            <rect class="cls-8" x="34" y="45.99" width="2" height="2"/>
            <rect class="cls-8" x="36" y="47.99" width="2" height="2"/>
            <rect class="cls-8" x="44" y="47.99" width="2" height="2"/>
            <rect class="cls-8" x="42" y="49.99" width="2" height="2"/>
          </g>
        </g>
        <g>
          <g>
            <rect class="cls-29" x="104" y="33.99" width="2" height="2" transform="translate(210 69.99) rotate(-180)"/>
            <rect class="cls-29" x="102" y="33.99" width="2" height="2" transform="translate(206 69.99) rotate(-180)"/>
            <rect class="cls-29" x="100" y="33.99" width="2" height="2" transform="translate(202 69.99) rotate(-180)"/>
            <rect class="cls-29" x="98" y="33.99" width="2" height="2" transform="translate(198 69.99) rotate(-180)"/>
            <rect class="cls-41" x="96" y="39.99" width="2" height="2" transform="translate(194 81.99) rotate(-180)"/>
            <rect class="cls-41" x="96" y="38" width="2" height="2" transform="translate(194 77.99) rotate(-180)"/>
            <rect class="cls-41" x="96" y="36" width="2" height="2" transform="translate(194 74) rotate(-180)"/>
            <rect class="cls-29" x="108" y="43.99" width="2" height="2" transform="translate(218 89.99) rotate(-180)"/>
            <rect class="cls-29" x="104" y="47.99" width="2" height="2" transform="translate(210 97.99) rotate(-180)"/>
          </g>
          <g>
            <rect class="cls-29" x="106" y="33.99" width="2" height="2" transform="translate(214 69.99) rotate(-180)"/>
            <rect class="cls-29" x="108" y="35.99" width="2" height="2" transform="translate(218 73.99) rotate(-180)"/>
            <rect class="cls-29" x="110" y="37.99" width="2" height="2" transform="translate(222 77.99) rotate(-180)"/>
            <rect class="cls-29" x="110" y="39.99" width="2" height="2" transform="translate(222 81.99) rotate(-180)"/>
            <rect class="cls-29" x="110" y="41.99" width="2" height="2" transform="translate(222 85.99) rotate(-180)"/>
            <rect class="cls-29" x="108" y="45.99" width="2" height="2" transform="translate(218 93.99) rotate(-180)"/>
            <rect class="cls-29" x="106" y="47.99" width="2" height="2" transform="translate(214 97.99) rotate(-180)"/>
            <rect class="cls-41" x="98" y="47.99" width="2" height="2" transform="translate(198 97.99) rotate(-180)"/>
            <rect class="cls-41" x="100" y="49.99" width="2" height="2" transform="translate(202 101.99) rotate(-180)"/>
          </g>
        </g>
        <g>
          <rect class="cls-14" x="50" y="19.99" width="2" height="2"/>
          <rect class="cls-14" x="48" y="21.99" width="2" height="2"/>
          <rect class="cls-14" x="46" y="23.99" width="2" height="2"/>
          <rect class="cls-14" x="46" y="31.99" width="2" height="2"/>
          <rect class="cls-14" x="48" y="33.99" width="2" height="2"/>
          <rect class="cls-14" x="60" y="31.99" width="2" height="2"/>
          <g>
            <rect class="cls-16" x="52" y="19.99" width="2" height="2"/>
            <rect class="cls-16" x="54" y="19.99" width="2" height="2"/>
            <rect class="cls-16" x="56" y="19.99" width="2" height="2"/>
            <rect class="cls-16" x="46" y="25.99" width="2" height="2"/>
            <rect class="cls-16" x="46" y="27.99" width="2" height="2"/>
            <rect class="cls-16" x="46" y="29.99" width="2" height="2"/>
            <rect class="cls-16" x="62" y="31.99" width="2" height="2"/>
          </g>
        </g>
        <g>
          <rect class="cls-15" x="86" y="19.99" width="2" height="2"/>
          <rect class="cls-15" x="88" y="19.99" width="2" height="2"/>
          <rect class="cls-15" x="90" y="19.99" width="2" height="2"/>
          <rect class="cls-15" x="92" y="19.99" width="2" height="2"/>
          <rect class="cls-15" x="84" y="21.99" width="2" height="2"/>
          <rect class="cls-15" x="94" y="21.99" width="2" height="2"/>
          <rect class="cls-15" x="82" y="23.99" width="2" height="2"/>
          <rect class="cls-15" x="96" y="23.99" width="2" height="2"/>
          <rect class="cls-15" x="82" y="25.99" width="2" height="2"/>
          <rect class="cls-15" x="82" y="27.99" width="2" height="2"/>
          <rect class="cls-15" x="80" y="29.99" width="2" height="2"/>
          <rect class="cls-15" x="80" y="31.99" width="2" height="2"/>
          <rect class="cls-15" x="88" y="31.99" width="2" height="2"/>
          <rect class="cls-15" x="92" y="33.99" width="2" height="2"/>
          <rect class="cls-15" x="94" y="33.99" width="2" height="2"/>
        </g>
        <g>
          <rect class="cls-1" x="68" y="15.99" width="2" height="2"/>
          <rect class="cls-1" x="66" y="17.99" width="2" height="2"/>
          <rect class="cls-1" x="64" y="19.99" width="2" height="2"/>
          <rect class="cls-1" x="64" y="27.99" width="2" height="2"/>
          <rect class="cls-1" x="66" y="39.99" width="2" height="2"/>
          <rect class="cls-1" x="68" y="43.99" width="2" height="2"/>
          <rect class="cls-1" x="68" y="45.99" width="2" height="2"/>
          <g>
            <rect class="cls-7" x="70" y="15.99" width="2" height="2"/>
            <rect class="cls-7" x="76" y="17.99" width="2" height="2"/>
            <rect class="cls-7" x="78" y="19.99" width="2" height="2"/>
            <rect class="cls-7" x="64" y="21.99" width="2" height="2"/>
            <rect class="cls-7" x="64" y="23.99" width="2" height="2"/>
            <rect class="cls-7" x="64" y="25.99" width="2" height="2"/>
            <rect class="cls-7" x="78" y="25.99" width="2" height="2"/>
            <rect class="cls-7" x="78" y="27.99" width="2" height="2"/>
            <rect class="cls-7" x="66" y="29.99" width="2" height="2"/>
            <rect class="cls-7" x="66" y="31.99" width="2" height="2"/>
            <rect class="cls-7" x="66" y="33.99" width="2" height="2"/>
            <rect class="cls-7" x="66" y="35.99" width="2" height="2"/>
            <rect class="cls-7" x="66" y="37.99" width="2" height="2"/>
            <rect class="cls-7" x="68" y="41.99" width="2" height="2"/>
            <rect class="cls-7" x="70" y="45.99" width="2" height="2"/>
          </g>
        </g>
        <g>
          <rect class="cls-1" x="74" y="15.99" width="2" height="2" transform="translate(150 33.99) rotate(-180)"/>
          <rect class="cls-1" x="76" y="17.99" width="2" height="2" transform="translate(154 37.99) rotate(-180)"/>
          <rect class="cls-1" x="78" y="19.99" width="2" height="2" transform="translate(158 41.99) rotate(-180)"/>
          <rect class="cls-1" x="78" y="27.99" width="2" height="2" transform="translate(158 57.99) rotate(-180)"/>
          <rect class="cls-1" x="76" y="39.99" width="2" height="2" transform="translate(154 81.99) rotate(-180)"/>
          <rect class="cls-1" x="74" y="43.99" width="2" height="2" transform="translate(150 89.99) rotate(-180)"/>
          <rect class="cls-1" x="74" y="45.99" width="2" height="2" transform="translate(150 93.99) rotate(-180)"/>
          <g>
            <rect class="cls-7" x="72" y="15.99" width="2" height="2" transform="translate(146 33.99) rotate(-180)"/>
            <rect class="cls-7" x="66" y="17.99" width="2" height="2" transform="translate(134 37.99) rotate(-180)"/>
            <rect class="cls-7" x="64" y="19.99" width="2" height="2" transform="translate(130 41.99) rotate(-180)"/>
            <rect class="cls-7" x="78" y="21.99" width="2" height="2" transform="translate(158 45.99) rotate(-180)"/>
            <rect class="cls-7" x="78" y="23.99" width="2" height="2" transform="translate(158 49.99) rotate(-180)"/>
            <rect class="cls-7" x="78" y="25.99" width="2" height="2" transform="translate(158 53.99) rotate(-180)"/>
            <rect class="cls-7" x="64" y="25.99" width="2" height="2" transform="translate(130 53.99) rotate(-180)"/>
            <rect class="cls-7" x="64" y="27.99" width="2" height="2" transform="translate(130 57.99) rotate(-180)"/>
            <rect class="cls-7" x="76" y="29.99" width="2" height="2" transform="translate(154 61.99) rotate(-180)"/>
            <rect class="cls-7" x="76" y="31.99" width="2" height="2" transform="translate(154 65.99) rotate(-180)"/>
            <rect class="cls-7" x="76" y="33.99" width="2" height="2" transform="translate(154 69.99) rotate(-180)"/>
            <rect class="cls-7" x="76" y="35.99" width="2" height="2" transform="translate(154 73.99) rotate(-180)"/>
            <rect class="cls-7" x="76" y="37.99" width="2" height="2" transform="translate(154 77.99) rotate(-180)"/>
            <rect class="cls-7" x="74" y="41.99" width="2" height="2" transform="translate(150 85.99) rotate(-180)"/>
            <rect class="cls-7" x="72" y="45.99" width="2" height="2" transform="translate(146 93.99) rotate(-180)"/>
          </g>
        </g>
      </g>
    </g>
    <g>
      <rect class="cls-12" x="60" y="36" width="2" height="2"/>
      <rect class="cls-12" x="58" y="34" width="2" height="2"/>
      <rect class="cls-21" x="56" y="34" width="2" height="2"/>
      <rect class="cls-12" x="54" y="36" width="2" height="2"/>
      <rect class="cls-21" x="52" y="36" width="2" height="2"/>
      <rect class="cls-21" x="50" y="38" width="2" height="2"/>
      <rect class="cls-12" x="50" y="40" width="2" height="2"/>
      <rect class="cls-21" x="48" y="42" width="2" height="2"/>
      <rect class="cls-12" x="48" y="44" width="2" height="2"/>
      <rect class="cls-12" x="48" y="46" width="2" height="2"/>
      <rect class="cls-12" x="48" y="48" width="2" height="2"/>
      <rect class="cls-21" x="46" y="50" width="2" height="2"/>
      <rect class="cls-12" x="46" y="52" width="2" height="2"/>
      <rect class="cls-12" x="46" y="54" width="2" height="2"/>
      <rect class="cls-12" x="46" y="56" width="2" height="2"/>
      <rect class="cls-12" x="46" y="58" width="2" height="2"/>
      <rect class="cls-12" x="48" y="62" width="2" height="2"/>
      <rect class="cls-12" x="48" y="64" width="2" height="2"/>
      <rect class="cls-12" x="48" y="66" width="2" height="2"/>
      <rect class="cls-12" x="48" y="68" width="2" height="2"/>
      <rect class="cls-12" x="50" y="70" width="2" height="2"/>
      <rect class="cls-21" x="50" y="72" width="2" height="2"/>
      <rect class="cls-21" x="52" y="74" width="2" height="2"/>
      <rect class="cls-21" x="54" y="76" width="2" height="2"/>
      <rect class="cls-21" x="56" y="78" width="2" height="2"/>
      <rect class="cls-21" x="60" y="80" width="2" height="2"/>
      <rect class="cls-21" x="70" y="82" width="2" height="2"/>
      <rect class="cls-12" x="46" y="60" width="2" height="2"/>
      <rect class="cls-12" x="62" y="36" width="2" height="2"/>
      <rect class="cls-12" x="64" y="42" width="2" height="2"/>
      <rect class="cls-12" x="66" y="48" width="2" height="2"/>
    </g>
    <g>
      <rect class="cls-12" x="82" y="36" width="2" height="2" transform="translate(166 73.99) rotate(-180)"/>
      <rect class="cls-21" x="84" y="34" width="2" height="2" transform="translate(170 70) rotate(-180)"/>
      <rect class="cls-12" x="86" y="34" width="2" height="2" transform="translate(174 70) rotate(-180)"/>
      <rect class="cls-12" x="88" y="36" width="2" height="2" transform="translate(178 73.99) rotate(-180)"/>
      <rect class="cls-12" x="90" y="36" width="2" height="2" transform="translate(182 73.99) rotate(-180)"/>
      <rect class="cls-12" x="92" y="38" width="2" height="2" transform="translate(186 78) rotate(-180)"/>
      <rect class="cls-12" x="92" y="40" width="2" height="2" transform="translate(186 81.99) rotate(-180)"/>
      <rect class="cls-12" x="94" y="42" width="2" height="2" transform="translate(190 86) rotate(-180)"/>
      <rect class="cls-12" x="94" y="44" width="2" height="2" transform="translate(190 90) rotate(-180)"/>
      <rect class="cls-12" x="94" y="46" width="2" height="2" transform="translate(190 94) rotate(-180)"/>
      <rect class="cls-12" x="94" y="48" width="2" height="2" transform="translate(190 98) rotate(-180)"/>
      <rect class="cls-12" x="96" y="50" width="2" height="2" transform="translate(194 101.99) rotate(-180)"/>
      <rect class="cls-12" x="96" y="52" width="2" height="2" transform="translate(194 105.99) rotate(-180)"/>
      <rect class="cls-12" x="96" y="54" width="2" height="2" transform="translate(194 109.99) rotate(-180)"/>
      <rect class="cls-12" x="96" y="56" width="2" height="2" transform="translate(194 114) rotate(-180)"/>
      <rect class="cls-12" x="96" y="58" width="2" height="2" transform="translate(194 118) rotate(-180)"/>
      <rect class="cls-12" x="94" y="62" width="2" height="2" transform="translate(190 126) rotate(-180)"/>
      <rect class="cls-12" x="94" y="64" width="2" height="2" transform="translate(190 130) rotate(-180)"/>
      <rect class="cls-12" x="94" y="66" width="2" height="2" transform="translate(190 134) rotate(-180)"/>
      <rect class="cls-21" x="94" y="68" width="2" height="2" transform="translate(190 138) rotate(-180)"/>
      <rect class="cls-12" x="92" y="70" width="2" height="2" transform="translate(186 142) rotate(-180)"/>
      <rect class="cls-21" x="92" y="72" width="2" height="2" transform="translate(186 146) rotate(-180)"/>
      <rect class="cls-12" x="90" y="74" width="2" height="2" transform="translate(182 150) rotate(-180)"/>
      <rect class="cls-12" x="88" y="76" width="2" height="2" transform="translate(178 154) rotate(-180)"/>
      <rect class="cls-21" x="86" y="78" width="2" height="2" transform="translate(174 158) rotate(-180)"/>
      <rect class="cls-12" x="82" y="80" width="2" height="2" transform="translate(166 162) rotate(-180)"/>
      <rect class="cls-12" x="96" y="60" width="2" height="2" transform="translate(194 122) rotate(-180)"/>
      <rect class="cls-21" x="80" y="36" width="2" height="2" transform="translate(162 73.99) rotate(-180)"/>
      <rect class="cls-21" x="78" y="42" width="2" height="2" transform="translate(158 85.99) rotate(-180)"/>
      <rect class="cls-21" x="76" y="48" width="2" height="2" transform="translate(154 97.99) rotate(-180)"/>
    </g>
    <g>
      <rect class="cls-35" x="64" y="52" width="1" height="1"/>
      <rect class="cls-35" x="64" y="53" width="1" height="1"/>
      <rect class="cls-3" x="64" y="55" width="1" height="1"/>
      <rect class="cls-35" x="63" y="53" width="1" height="1"/>
      <g>
        <rect class="cls-44" x="65" y="52" width="1" height="1"/>
        <rect class="cls-44" x="64" y="51" width="1" height="1"/>
        <rect class="cls-44" x="65" y="51" width="1" height="1"/>
        <rect class="cls-44" x="64" y="54" width="1" height="1"/>
        <rect class="cls-44" x="65" y="54" width="1" height="1"/>
        <rect class="cls-44" x="65" y="53" width="1" height="1"/>
        <rect class="cls-44" x="64" y="56" width="1" height="1"/>
        <rect class="cls-44" x="65" y="55" width="1" height="1"/>
        <rect class="cls-44" x="65" y="56" width="1" height="1"/>
        <rect class="cls-44" x="63" y="57" width="1" height="1"/>
        <rect class="cls-44" x="62" y="57" width="1" height="1"/>
        <rect class="cls-44" x="63" y="52" width="1" height="1"/>
        <rect class="cls-44" x="62" y="54" width="1" height="1"/>
        <rect class="cls-44" x="63" y="54" width="1" height="1"/>
        <rect class="cls-44" x="62" y="53" width="1" height="1"/>
        <rect class="cls-44" x="62" y="56" width="1" height="1"/>
        <rect class="cls-44" x="63" y="56" width="1" height="1"/>
        <rect class="cls-44" x="62" y="55" width="1" height="1"/>
        <rect class="cls-44" x="61" y="56" width="1" height="1"/>
        <rect class="cls-44" x="61" y="55" width="1" height="1"/>
        <rect class="cls-44" x="63" y="55" width="1" height="1"/>
        <rect class="cls-44" x="66" y="52" width="1" height="1"/>
        <rect class="cls-44" x="66" y="54" width="1" height="1"/>
        <rect class="cls-44" x="66" y="53" width="1" height="1"/>
      </g>
    </g>
    <g>
      <rect class="cls-42" x="79" y="52" width="1" height="1" transform="translate(158.99 104.99) rotate(-180)"/>
      <rect class="cls-42" x="79" y="53" width="1" height="1" transform="translate(158.99 106.99) rotate(-180)"/>
      <rect class="cls-6" x="79" y="55" width="1" height="1" transform="translate(158.99 110.99) rotate(-180)"/>
      <rect class="cls-42" x="80" y="53" width="1" height="1" transform="translate(160.99 106.99) rotate(-180)"/>
      <g>
        <rect class="cls-11" x="78" y="52" width="1" height="1" transform="translate(156.99 104.99) rotate(-180)"/>
        <rect class="cls-11" x="79" y="51" width="1" height="1" transform="translate(158.99 102.99) rotate(-180)"/>
        <rect class="cls-11" x="78" y="51" width="1" height="1" transform="translate(156.99 102.99) rotate(-180)"/>
        <rect class="cls-11" x="79" y="54" width="1" height="1" transform="translate(158.99 108.99) rotate(-180)"/>
        <rect class="cls-11" x="78" y="54" width="1" height="1" transform="translate(156.99 108.99) rotate(-180)"/>
        <rect class="cls-11" x="78" y="53" width="1" height="1" transform="translate(156.99 106.99) rotate(-180)"/>
        <rect class="cls-11" x="79" y="56" width="1" height="1" transform="translate(158.99 112.99) rotate(-180)"/>
        <rect class="cls-11" x="78" y="55" width="1" height="1" transform="translate(156.99 110.99) rotate(-180)"/>
        <rect class="cls-11" x="78" y="56" width="1" height="1" transform="translate(156.99 112.99) rotate(-180)"/>
        <rect class="cls-11" x="80" y="57" width="1" height="1" transform="translate(160.99 114.99) rotate(-180)"/>
        <rect class="cls-11" x="81" y="57" width="1" height="1" transform="translate(162.99 114.99) rotate(-180)"/>
        <rect class="cls-11" x="80" y="52" width="1" height="1" transform="translate(160.99 104.99) rotate(-180)"/>
        <rect class="cls-11" x="81" y="54" width="1" height="1" transform="translate(162.99 108.99) rotate(-180)"/>
        <rect class="cls-11" x="80" y="54" width="1" height="1" transform="translate(160.99 108.99) rotate(-180)"/>
        <rect class="cls-11" x="81" y="53" width="1" height="1" transform="translate(162.99 106.99) rotate(-180)"/>
        <rect class="cls-11" x="81" y="56" width="1" height="1" transform="translate(162.99 112.99) rotate(-180)"/>
        <rect class="cls-11" x="80" y="56" width="1" height="1" transform="translate(160.99 112.99) rotate(-180)"/>
        <rect class="cls-11" x="81" y="55" width="1" height="1" transform="translate(162.99 110.99) rotate(-180)"/>
        <rect class="cls-11" x="82" y="56" width="1" height="1" transform="translate(164.99 112.99) rotate(-180)"/>
        <rect class="cls-11" x="82" y="55" width="1" height="1" transform="translate(164.99 110.99) rotate(-180)"/>
        <rect class="cls-11" x="80" y="55" width="1" height="1" transform="translate(160.99 110.99) rotate(-180)"/>
        <rect class="cls-11" x="77" y="52" width="1" height="1" transform="translate(154.99 104.99) rotate(-180)"/>
        <rect class="cls-11" x="77" y="54" width="1" height="1" transform="translate(154.99 108.99) rotate(-180)"/>
        <rect class="cls-11" x="77" y="53" width="1" height="1" transform="translate(154.99 106.99) rotate(-180)"/>
      </g>
    </g>
  </g>
</svg>