<svg id="Layer_1" data-name="Layer 1" xmlns="http://www.w3.org/2000/svg" viewBox="0 0 132.39 92.71"><defs><style>.cls-1{fill:#fff;}.cls-2{fill:#1d1d1b;}</style></defs><title>Artboard 4</title><polygon class="cls-1" points="128.56 18.01 128.56 12.34 125.72 12.34 125.72 9.5 122.89 9.5 122.89 6.67 120.05 6.67 120.05 3.84 117.22 3.84 117.22 1 15.17 1 15.17 3.84 12.34 3.84 12.34 6.67 9.5 6.67 9.5 9.5 6.67 9.5 6.67 12.34 3.83 12.34 3.83 18.01 1 18.01 1 63.36 3.83 63.36 3.83 69.03 6.67 69.03 6.67 71.87 9.5 71.87 9.5 74.7 12.34 74.7 12.34 77.54 15.17 77.54 15.17 80.37 26.51 80.37 26.51 83.2 26.51 86.04 29.34 86.04 29.34 88.87 32.18 88.87 32.18 91.71 46.35 91.71 46.35 80.37 117.22 80.37 117.22 77.54 120.05 77.54 120.05 74.7 122.89 74.7 122.89 71.87 125.72 71.87 125.72 69.03 128.56 69.03 128.56 63.36 131.39 63.36 131.39 18.01 128.56 18.01"/><polygon class="cls-2" points="73.23 44.97 73.23 47.78 70.41 47.78 70.41 50.61 70.41 50.62 70.41 53.43 70.41 53.44 70.41 56.25 67.64 56.25 67.64 53.44 67.64 53.43 67.64 50.62 67.64 50.61 67.64 47.78 64.83 47.78 64.83 44.97 64.83 42.13 61.99 42.13 61.99 44.97 61.99 47.8 64.81 47.8 64.81 50.61 64.81 50.62 64.81 53.43 64.81 53.44 64.81 56.26 67.61 56.26 67.61 59.08 70.44 59.08 70.44 56.26 73.24 56.26 73.24 53.44 73.24 53.43 73.24 50.62 73.24 50.61 73.24 47.8 76.06 47.8 76.06 44.97 76.06 42.13 73.23 42.13 73.23 44.97"/><polygon class="cls-2" points="30.81 44.94 30.81 42.1 27.98 42.1 27.98 44.94 27.98 47.77 27.98 50.61 27.98 53.44 27.98 56.27 27.98 59.11 30.81 59.11 30.81 56.27 30.81 53.44 30.81 50.61 30.81 47.77 33.64 47.77 33.64 44.94 30.81 44.94"/><polygon class="cls-2" points="36.48 47.77 33.64 47.77 33.64 50.61 33.64 53.44 36.48 53.44 36.48 50.61 36.48 47.77"/><polygon class="cls-2" points="39.31 44.94 39.31 47.77 39.31 50.61 39.31 53.44 36.48 53.44 36.48 56.27 39.31 56.27 39.31 59.11 42.15 59.11 42.15 56.27 42.15 53.44 42.15 50.61 42.15 47.77 42.15 44.94 42.15 42.1 39.31 42.1 39.31 44.94"/><polygon class="cls-2" points="47.82 50.61 47.82 47.77 47.82 44.94 44.98 44.94 44.98 47.77 44.98 50.61 44.98 53.44 44.98 56.27 47.82 56.27 47.82 53.44 47.82 50.61"/><polygon class="cls-2" points="56.32 47.77 56.32 50.61 56.32 53.44 56.32 56.27 59.16 56.27 59.16 53.44 59.16 50.61 59.16 47.77 59.16 44.94 56.32 44.94 56.32 47.77"/><polygon class="cls-2" points="53.49 44.94 56.32 44.94 56.32 42.1 53.49 42.1 50.65 42.1 47.82 42.1 47.82 44.94 50.65 44.94 53.49 44.94"/><polygon class="cls-2" points="50.65 56.27 47.82 56.27 47.82 59.11 50.65 59.11 53.49 59.11 56.32 59.11 56.32 56.27 53.49 56.27 50.65 56.27"/><polygon class="cls-2" points="84.57 42.1 81.74 42.1 78.91 42.1 78.91 44.94 78.91 47.77 78.91 50.61 78.91 53.44 78.91 56.27 78.91 59.11 81.74 59.11 84.57 59.11 87.41 59.11 90.24 59.11 90.24 56.27 87.41 56.27 84.57 56.27 81.74 56.27 81.74 53.44 81.74 50.61 84.57 50.61 87.41 50.61 90.24 50.61 90.24 47.77 87.41 47.77 84.57 47.77 81.74 47.77 81.74 44.94 84.57 44.94 87.41 44.94 90.24 44.94 90.24 42.1 87.41 42.1 84.57 42.1"/><polygon class="cls-2" points="101.58 56.27 98.75 56.27 95.91 56.27 95.91 53.44 95.91 50.61 95.91 47.77 95.91 44.94 95.91 42.1 93.08 42.1 93.08 44.94 93.08 47.77 93.08 50.61 93.08 53.44 93.08 56.27 93.08 59.11 95.91 59.11 98.75 59.11 101.58 59.11 104.42 59.11 104.42 56.27 101.58 56.27"/><polygon class="cls-2" points="60.43 22.26 60.43 25.08 57.61 25.08 57.61 27.9 57.61 27.91 57.61 30.72 57.61 30.73 57.61 33.54 54.85 33.54 54.85 30.73 54.85 30.72 54.85 27.91 54.85 27.9 54.85 25.08 52.02 25.08 52.02 22.26 52.02 19.43 49.18 19.43 49.18 22.26 49.18 25.08 46.36 25.08 46.36 27.9 46.36 27.91 46.36 30.72 46.36 30.73 46.36 33.54 43.6 33.54 43.6 30.73 43.6 30.72 43.6 27.91 43.6 27.9 43.6 25.08 40.78 25.08 40.78 22.26 40.78 19.43 37.94 19.43 37.94 22.26 37.94 25.09 40.76 25.09 40.76 27.9 40.76 27.91 40.76 30.72 40.76 30.73 40.76 33.55 43.56 33.55 43.56 36.38 46.4 36.38 46.4 33.55 49.2 33.55 49.2 30.73 49.2 30.72 49.2 27.91 49.2 27.9 49.2 25.09 52.02 25.09 52.02 27.9 52.02 27.91 52.02 30.72 52.02 30.73 52.02 33.55 54.81 33.55 54.81 36.38 57.65 36.38 57.65 33.55 60.45 33.55 60.45 30.73 60.45 30.72 60.45 27.91 60.45 27.9 60.45 25.09 63.27 25.09 63.27 22.26 63.27 19.43 60.43 19.43 60.43 22.26"/><polygon class="cls-2" points="71.77 19.43 68.94 19.43 66.1 19.43 66.1 22.26 66.1 25.09 66.1 27.93 66.1 30.76 66.1 33.6 66.1 36.43 68.94 36.43 71.77 36.43 74.61 36.43 77.44 36.43 77.44 33.6 74.61 33.6 71.77 33.6 68.94 33.6 68.94 30.76 68.94 27.93 71.77 27.93 74.61 27.93 77.44 27.93 77.44 25.09 74.61 25.09 71.77 25.09 68.94 25.09 68.94 22.26 71.77 22.26 74.61 22.26 77.44 22.26 77.44 19.43 74.61 19.43 71.77 19.43"/><rect class="cls-2" x="91.61" y="22.26" width="2.83" height="2.83"/><polygon class="cls-2" points="91.61 33.6 94.45 33.6 94.45 30.76 94.45 27.93 91.61 27.93 91.61 30.76 91.61 33.6"/><polygon class="cls-2" points="83.11 25.09 83.11 22.26 85.94 22.26 88.78 22.26 91.61 22.26 91.61 19.43 88.78 19.43 85.94 19.43 83.11 19.43 80.28 19.43 80.28 22.26 80.28 25.09 80.28 27.93 80.28 30.76 80.28 33.6 80.28 36.43 83.11 36.43 85.94 36.43 88.78 36.43 91.61 36.43 91.61 33.6 88.78 33.6 85.94 33.6 83.11 33.6 83.11 30.76 83.11 27.93 91.61 27.93 91.61 25.09 83.11 25.09"/><rect class="cls-2" x="32.18" y="74.7" width="2.83" height="2.83" transform="translate(67.19 152.24) rotate(-180)"/><rect class="cls-2" x="32.18" y="77.53" width="2.83" height="2.83" transform="translate(67.19 157.9) rotate(-180)"/><rect class="cls-2" x="35.01" y="80.37" width="2.83" height="2.83" transform="translate(72.86 163.57) rotate(-180)"/><rect class="cls-2" x="37.85" y="83.2" width="2.83" height="2.83" transform="translate(78.53 169.24) rotate(-180)"/><rect class="cls-2" x="114.38" y="12.34" width="2.83" height="2.83"/><rect class="cls-2" x="111.55" y="9.5" width="2.83" height="2.83"/><rect class="cls-2" x="117.22" y="15.17" width="2.83" height="2.83"/><polygon class="cls-2" points="120.05 23.68 122.89 23.68 122.89 20.84 122.89 18.01 120.05 18.01 120.05 20.84 120.05 23.68"/><polygon class="cls-2" points="122.89 23.68 122.89 26.51 122.89 29.35 122.89 32.18 122.89 35.02 122.89 37.85 122.89 40.68 122.89 43.52 122.89 46.35 122.89 49.19 122.89 52.02 122.89 54.86 122.89 57.69 125.72 57.69 125.72 54.86 125.72 52.02 125.72 49.19 125.72 46.35 125.72 43.52 125.72 40.68 125.72 37.85 125.72 35.02 125.72 32.18 125.72 29.35 125.72 26.51 125.72 23.68 122.89 23.68"/><rect class="cls-2" x="111.55" y="69.03" width="2.83" height="2.83"/><rect class="cls-2" x="117.22" y="63.36" width="2.83" height="2.83"/><rect class="cls-2" x="114.38" y="66.2" width="2.83" height="2.83"/><polygon class="cls-2" points="120.05 60.53 120.05 63.36 122.89 63.36 122.89 60.53 122.89 57.69 120.05 57.69 120.05 60.53"/><polygon class="cls-2" points="105.88 71.87 103.05 71.87 100.21 71.87 97.38 71.87 94.54 71.87 91.71 71.87 88.87 71.87 86.04 71.87 83.2 71.87 80.37 71.87 77.53 71.87 74.7 71.87 71.86 71.87 69.03 71.87 66.19 71.87 63.36 71.87 60.53 71.87 57.69 71.87 54.86 71.87 52.02 71.87 49.19 71.87 46.35 71.87 43.52 71.87 40.68 71.87 37.85 71.87 35.01 71.87 32.18 71.87 29.34 71.87 26.51 71.87 23.68 71.87 20.84 71.87 20.84 74.7 23.68 74.7 26.51 74.7 29.34 74.7 32.18 74.7 35.01 74.7 37.85 74.7 40.68 74.7 43.52 74.7 46.35 74.7 49.19 74.7 52.02 74.7 54.86 74.7 57.69 74.7 60.53 74.7 63.36 74.7 66.19 74.7 69.03 74.7 71.86 74.7 74.7 74.7 77.53 74.7 80.37 74.7 83.2 74.7 86.04 74.7 88.87 74.7 91.71 74.7 94.54 74.7 97.38 74.7 100.21 74.7 103.05 74.7 105.88 74.7 108.72 74.7 111.55 74.7 111.55 71.87 108.72 71.87 105.88 71.87"/><rect class="cls-2" x="15.17" y="12.34" width="2.83" height="2.83"/><rect class="cls-2" x="18.01" y="9.5" width="2.83" height="2.83"/><rect class="cls-2" x="12.34" y="15.17" width="2.83" height="2.83"/><polygon class="cls-2" points="12.34 20.84 12.34 18.01 9.5 18.01 9.5 20.84 9.5 23.68 12.34 23.68 12.34 20.84"/><polygon class="cls-2" points="9.5 52.02 9.5 49.19 9.5 46.35 9.5 43.52 9.5 40.68 9.5 37.85 9.5 35.02 9.5 32.18 9.5 29.35 9.5 26.51 9.5 23.68 6.67 23.68 6.67 26.51 6.67 29.35 6.67 32.18 6.67 35.02 6.67 37.85 6.67 40.68 6.67 43.52 6.67 46.35 6.67 49.19 6.67 52.02 6.67 54.86 6.67 57.69 9.5 57.69 9.5 54.86 9.5 52.02"/><polygon class="cls-2" points="26.51 9.5 29.34 9.5 32.18 9.5 35.01 9.5 37.85 9.5 40.68 9.5 43.52 9.5 46.35 9.5 49.19 9.5 52.02 9.5 54.86 9.5 57.69 9.5 60.53 9.5 63.36 9.5 66.19 9.5 69.03 9.5 71.86 9.5 74.7 9.5 77.53 9.5 80.37 9.5 83.2 9.5 86.04 9.5 88.87 9.5 91.71 9.5 94.54 9.5 97.38 9.5 100.21 9.5 103.05 9.5 105.88 9.5 108.72 9.5 111.55 9.5 111.55 6.67 108.72 6.67 105.88 6.67 103.05 6.67 100.21 6.67 97.38 6.67 94.54 6.67 91.71 6.67 88.87 6.67 86.04 6.67 83.2 6.67 80.37 6.67 77.53 6.67 74.7 6.67 71.86 6.67 69.03 6.67 66.19 6.67 63.36 6.67 60.53 6.67 57.69 6.67 54.86 6.67 52.02 6.67 49.19 6.67 46.35 6.67 43.52 6.67 40.68 6.67 37.85 6.67 35.01 6.67 32.18 6.67 29.34 6.67 26.51 6.67 23.68 6.67 20.84 6.67 20.84 9.5 23.68 9.5 26.51 9.5"/><rect class="cls-2" x="18.01" y="69.03" width="2.83" height="2.83"/><rect class="cls-2" x="12.34" y="63.36" width="2.83" height="2.83"/><rect class="cls-2" x="15.17" y="66.2" width="2.83" height="2.83"/><polygon class="cls-2" points="12.34 57.69 9.5 57.69 9.5 60.53 9.5 63.36 12.34 63.36 12.34 60.53 12.34 57.69"/></svg>