<?xml version="1.0" encoding="UTF-8"?>
<svg id="Layer_1" data-name="Layer 1" xmlns="http://www.w3.org/2000/svg" viewBox="0 0 30 30">
  <defs>
    <style>
      .cls-1 {
        fill: #fff;
      }
    </style>
  </defs>
  <polygon class="cls-1" points="28 4 28 2 26 2 24 2 22 2 22 4 20 4 20 6 20 8 20 10 18 10 18 12 16 12 14 12 12 12 12 10 10 10 10 8 10 6 10 4 8 4 8 2 6 2 4 2 2 2 2 4 0 4 0 6 0 8 0 10 0 12 0 14 0 16 0 18 2 18 2 20 2 22 4 22 4 24 6 24 6 26 8 26 10 26 10 28 12 28 14 28 16 28 18 28 20 28 20 26 22 26 24 26 24 24 26 24 26 22 28 22 28 20 28 18 30 18 30 16 30 14 30 12 30 10 30 8 30 6 30 4 28 4"/>
</svg>