<?xml version="1.0" encoding="UTF-8"?>
<svg id="Layer_1" data-name="Layer 1" xmlns="http://www.w3.org/2000/svg" viewBox="0 0 15.93 20">
  <defs>
    <style>
      .cls-1 {
        fill: #1e96ff;
      }
    </style>
  </defs>
  <polygon class="cls-1" points="9.93 2 9.93 0 7.93 0 5.93 0 5.93 2 7.93 2 9.93 2"/>
  <rect class="cls-1" x="3.93" y="2" width="2" height="2"/>
  <rect class="cls-1" x="9.93" y="2" width="2" height="2"/>
  <polygon class="cls-1" points="13.93 8 13.93 6 13.93 4 11.93 4 11.93 6 11.93 8 9.93 8 7.93 8 5.93 8 3.93 8 3.93 6 3.93 4 1.93 4 1.93 6 1.93 8 -.07 8 -.07 10 -.07 12 -.07 14 -.07 16 -.07 18 -.07 20 1.92 20 1.93 20 3.92 20 3.92 18 3.93 18 3.93 20 5.93 20 7.93 20 9.93 20 11.93 20 13.93 20 15.93 20 15.93 18 15.93 16 15.93 14 15.93 12 15.93 10 15.93 8 13.93 8"/>
</svg>