<?xml version="1.0" encoding="UTF-8"?>
<svg id="Layer_1" data-name="Layer 1" xmlns="http://www.w3.org/2000/svg" viewBox="0 0 30 20">
  <defs>
    <style>
      .cls-1 {
        fill: #1e96ff;
      }
    </style>
  </defs>
  <polygon class="cls-1" points="2 12.04 2 14.04 2 18 4 18 4 11.91 4 9.91 4 7.91 4 5.91 4 3.91 4 2 6 2 8 2 10 2 12 2 14 2 16 2 18 2 20 2 22 2 24 2 26 2 28 2 28 3.91 28 5.91 28 7.91 28 9.91 28 11.91 28 18 30 18 30 11.91 30 9.91 30 7.91 30 5.91 30 3.91 30 1.91 28 1.91 28 0 26 0 24 0 22 0 20 0 18 0 16 0 14 0 12 0 10 0 8 0 6 0 4 0 4 1.91 2 1.91 2 3.91 2 8.04 0 8.04 0 10.04 0 12.04 2 12.04"/>
  <polygon class="cls-1" points="21 16 22 16 23 16 24 16 25 16 26 16 26 4.17 25 4.17 24 4.17 23 4.17 22 4.17 21 4.17 20 4.17 20 16 21 16"/>
  <polygon class="cls-1" points="7 16 8 16 9 16 10 16 11 16 12 16 12 4.17 11 4.17 10 4.17 9 4.17 8 4.17 7 4.17 6 4.17 6 16 7 16"/>
  <polygon class="cls-1" points="14 16 15 16 16 16 17 16 18 16 19 16 19 4.17 18 4.17 17 4.17 16 4.17 15 4.17 14 4.17 13 4.17 13 16 14 16"/>
  <polygon class="cls-1" points="24 18 22 18 20 18 18 18 16 18 14 18 12 18 10 18 8 18 6 18 4 18 4 20 6 20 8 20 10 20 12 20 14 20 16 20 18 20 20 20 22 20 24 20 26 20 28 20 28 18 26 18 24 18"/>
</svg>