<?xml version="1.0" encoding="UTF-8"?>
<svg id="Layer_1" data-name="Layer 1" xmlns="http://www.w3.org/2000/svg" viewBox="0 0 50 30">
  <defs>
    <style>
      .cls-1 {
        fill: #fff;
      }
    </style>
  </defs>
  <g>
    <polygon points="6 2 8 2 10 2 12 2 14 2 16 2 18 2 20 2 22 2 24 2 26 2 28 2 30 2 32 2 34 2 36 2 38 2 40 2 42 2 44 2 46 2 48 2 48 0 46 0 44 0 42 0 40 0 38 0 36 0 34 0 32 0 30 0 28 0 26 0 24 0 22 0 20 0 18 0 16 0 14 0 12 0 10 0 8 0 6 0 4 0 2 0 2 2 4 2 6 2"/>
    <polygon points="46 2 44 2 42 2 40 2 38 2 36 2 34 2 32 2 30 2 28 2 26 2 24 2 22 2 20 2 18 2 16 2 14 2 12 2 10 2 8 2 6 2 4 2 2 2 2 4 2 5 2 6 2 9.75 2 14 2 14.5 2 16 2 18 2 19.25 2 20 2 22 2 22 2 24 2 24 2 26 2 28 4 28 6 28 8 28 10 28 12 28 14 28 16 28 18 28 20 28 22 28 24 28 26 28 28 28 30 28 32 28 34 28 36 28 38 28 40 28 42 28 44 28 46 28 48 28 48 26 48 24 48 24 48 22 48 22 48 20 48 19.25 48 18 48 16 48 14.5 48 14 48 9.75 48 6 48 5 48 4 48 2 46 2"/>
    <polygon points="44 28 42 28 40 28 38 28 36 28 34 28 32 28 30 28 28 28 26 28 24 28 22 28 20 28 18 28 16 28 14 28 12 28 10 28 8 28 6 28 4 28 2 28 2 30 4 30 6 30 8 30 10 30 12 30 14 30 16 30 18 30 20 30 22 30 24 30 26 30 28 30 30 30 32 30 34 30 36 30 38 30 40 30 42 30 44 30 46 30 48 30 48 28 46 28 44 28"/>
    <polygon points="48 2 48 4 48 6 48 8 48 10 48 12 48 14 48 16 48 18 48 20 48 22 48 24 48 26 48 28 50 28 50 26 50 24 50 22 50 20 50 18 50 16 50 14 50 12 50 10 50 8 50 6 50 4 50 2 48 2"/>
    <polygon points="2 24 2 22 2 20 2 18 2 16 2 14 2 12 2 10 2 8 2 6 2 4 2 2 0 2 0 4 0 6 0 8 0 10 0 12 0 14 0 16 0 18 0 20 0 22 0 24 0 26 0 28 2 28 2 26 2 24"/>
  </g>
  <polygon class="cls-1" points="28 14 28 12 26 12 24 12 24 10 22 10 22 8 20 8 20 22 22 22 22 20 24 20 24 18 26 18 28 18 28 16 30 16 30 14 28 14"/>
</svg>