<svg id="Layer_1" data-name="Layer 1" xmlns="http://www.w3.org/2000/svg" viewBox="0 0 120 120"><title>Artboard 6 copy 13</title><path d="M112.43,104.26v-.5h-.36L73.25,52.36l30.39-36.12,8.79-10.45H91.34L82.55,16.24,65.86,36.07l-2.61,3.08-7-9.28L46,16.24,38.08,5.79H.05l7.54,10,.36.5,35.27,46.7L8.85,103.76l-1.26,1.5L.05,114.21H21.16L30,103.76,53.21,76.15l3,4,9.61,12.73L74,103.76l7.9,10.45h38Zm-26.61-.5-20-26.45-6.45-8.53L56.25,64.6l-6.81-9L19.73,16.24H34.18L56.25,45.45l.8,1.07,8.81,11.66L67,59.72l33.27,44Z"/></svg>