<svg id="Layer_1" data-name="Layer 1" xmlns="http://www.w3.org/2000/svg" viewBox="0 0 120 120"><defs><style>.cls-1{fill:#fff;}</style></defs><title>Artboard 6</title><rect width="120" height="120" rx="60"/><path class="cls-1" d="M87.55,83.26V83h-.19L67,56l16-19,4.62-5.49H76.47L71.85,37,63.08,47.42,61.71,49,58,44.16,52.62,37l-4.14-5.49h-20l4,5.22.19.27L51.18,61.54,33.12,83l-.66.79-4,4.7H39.59L44.21,83,56.43,68.48,58,70.6l5,6.69,4.3,5.7,4.15,5.49h20Zm-14-.27L63.08,69.09l-3.39-4.48L58,62.41l-3.58-4.74L38.84,37h7.59L58,52.35l.42.56L63.08,59l.61.81L81.17,83Z"/></svg>