<?xml version="1.0" encoding="UTF-8"?>
<svg id="Layer_1" data-name="Layer 1" xmlns="http://www.w3.org/2000/svg" xmlns:xlink="http://www.w3.org/1999/xlink" viewBox="0 0 66.2 56.2">
  <defs>
    <style>
      .cls-1 {
        fill: url(#linear-gradient-2);
      }

      .cls-2, .cls-3 {
        fill: #fff;
      }

      .cls-4 {
        opacity: .1;
      }

      .cls-5 {
        fill: url(#linear-gradient);
      }

      .cls-5, .cls-3 {
        stroke: #000;
        stroke-linejoin: bevel;
        stroke-width: 2px;
      }
    </style>
    <linearGradient id="linear-gradient" x1="13.39" y1="58.59" x2="52.81" y2="11.6" gradientUnits="userSpaceOnUse">
      <stop offset="0" stop-color="#ff95dc"/>
      <stop offset="1" stop-color="#fff"/>
    </linearGradient>
    <linearGradient id="linear-gradient-2" x1="10.9" y1="55.14" x2="55.42" y2="15.06" gradientUnits="userSpaceOnUse">
      <stop offset="0" stop-color="#ff95dc"/>
      <stop offset="1" stop-color="#fff"/>
    </linearGradient>
  </defs>
  <g class="cls-4">
    <polygon class="cls-3" points="63.1 13.1 63.1 53.1 6.84 53.1 6.84 13.1 8.72 3.1 31.22 3.1 34.97 13.1 63.1 13.1"/>
    <polygon class="cls-3" points="52.47 17.1 20.87 17.1 48.02 5.39 52.47 17.1"/>
    <polygon class="cls-5" points="63.1 53.1 6.84 53.1 3.1 17.1 59.36 17.1 63.1 53.1"/>
  </g>
  <rect x="10.16" y="2.1" width="2" height="2"/>
  <rect x="12.16" y="2.1" width="2" height="2"/>
  <rect x="14.16" y="2.1" width="2" height="2"/>
  <rect x="16.16" y="2.1" width="2" height="2"/>
  <rect x="18.16" y="2.1" width="2" height="2"/>
  <rect x="20.16" y="2.1" width="2" height="2"/>
  <rect x="22.16" y="2.1" width="2" height="2"/>
  <rect x="24.16" y="2.1" width="2" height="2"/>
  <rect x="26.16" y="2.1" width="2" height="2"/>
  <rect x="28.16" y="2.1" width="2" height="2"/>
  <rect x="30.16" y="2.1" width="2" height="2"/>
  <rect x="8.16" y="4.1" width="2" height="2"/>
  <rect x="30.16" y="4.1" width="2" height="2"/>
  <rect x="46.16" y="4.1" width="2" height="2"/>
  <rect x="8.16" y="6.1" width="2" height="2"/>
  <rect x="32.16" y="6.1" width="2" height="2"/>
  <rect x="42.16" y="6.1" width="2" height="2"/>
  <rect x="44.16" y="6.1" width="2" height="2"/>
  <rect x="48.16" y="6.1" width="2" height="2"/>
  <rect x="6.16" y="8.1" width="2" height="2"/>
  <rect x="32.16" y="8.1" width="2" height="2"/>
  <rect x="38.16" y="8.1" width="2" height="2"/>
  <rect x="40.16" y="8.1" width="2" height="2"/>
  <rect x="48.16" y="8.1" width="2" height="2"/>
  <rect x="6.16" y="10.1" width="2" height="2"/>
  <rect x="32.16" y="10.1" width="2" height="2"/>
  <rect x="34.16" y="10.1" width="2" height="2"/>
  <rect x="36.16" y="10.1" width="2" height="2"/>
  <rect x="50.16" y="10.1" width="2" height="2"/>
  <rect x="6.16" y="12.1" width="2" height="2"/>
  <rect x="28.16" y="12.1" width="2" height="2"/>
  <rect x="30.16" y="12.1" width="2" height="2"/>
  <rect x="50.16" y="12.1" width="2" height="2"/>
  <rect x="52.16" y="12.1" width="2" height="2"/>
  <rect x="54.16" y="12.1" width="2" height="2"/>
  <rect x="56.16" y="12.1" width="2" height="2"/>
  <rect x="58.16" y="12.1" width="2" height="2"/>
  <rect x="60.16" y="12.1" width="2" height="2"/>
  <rect x="6.16" y="14.1" width="2" height="2"/>
  <rect x="22.16" y="14.1" width="2" height="2"/>
  <rect x="24.16" y="14.1" width="2" height="2"/>
  <rect x="26.16" y="14.1" width="2" height="2"/>
  <rect x="50.16" y="14.1" width="2" height="2"/>
  <rect x="62.16" y="14.1" width="2" height="2"/>
  <rect x="4.16" y="16.1" width="2" height="2"/>
  <rect x="6.16" y="16.1" width="2" height="2"/>
  <rect x="8.16" y="16.1" width="2" height="2"/>
  <rect x="10.16" y="16.1" width="2" height="2"/>
  <rect x="12.16" y="16.1" width="2" height="2"/>
  <rect x="14.16" y="16.1" width="2" height="2"/>
  <rect x="16.16" y="16.1" width="2" height="2"/>
  <rect x="18.16" y="16.1" width="2" height="2"/>
  <rect x="20.16" y="16.1" width="2" height="2"/>
  <rect x="22.16" y="16.1" width="2" height="2"/>
  <rect x="24.16" y="16.1" width="2" height="2"/>
  <rect x="26.16" y="16.1" width="2" height="2"/>
  <rect x="28.16" y="16.1" width="2" height="2"/>
  <rect x="30.16" y="16.1" width="2" height="2"/>
  <rect x="32.16" y="16.1" width="2" height="2"/>
  <rect x="34.16" y="16.1" width="2" height="2"/>
  <rect x="36.16" y="16.1" width="2" height="2"/>
  <rect x="38.16" y="16.1" width="2" height="2"/>
  <rect x="40.16" y="16.1" width="2" height="2"/>
  <rect x="42.16" y="16.1" width="2" height="2"/>
  <rect x="44.16" y="16.1" width="2" height="2"/>
  <rect x="46.16" y="16.1" width="2" height="2"/>
  <rect x="48.16" y="16.1" width="2" height="2"/>
  <rect x="50.16" y="16.1" width="2" height="2"/>
  <rect x="52.16" y="16.1" width="2" height="2"/>
  <rect x="54.16" y="16.1" width="2" height="2"/>
  <rect x="56.16" y="16.1" width="2" height="2"/>
  <rect x="62.16" y="16.1" width="2" height="2"/>
  <rect x="2.16" y="18.1" width="2" height="2"/>
  <rect x="58.16" y="18.1" width="2" height="2"/>
  <rect x="62.16" y="18.1" width="2" height="2"/>
  <rect x="2.16" y="20.1" width="2" height="2"/>
  <rect x="58.16" y="20.1" width="2" height="2"/>
  <rect x="62.16" y="20.1" width="2" height="2"/>
  <rect x="2.16" y="22.1" width="2" height="2"/>
  <rect x="58.16" y="22.1" width="2" height="2"/>
  <rect x="62.16" y="22.1" width="2" height="2"/>
  <rect x="2.16" y="24.1" width="2" height="2"/>
  <rect x="58.16" y="24.1" width="2" height="2"/>
  <rect x="62.16" y="24.1" width="2" height="2"/>
  <rect x="2.16" y="26.1" width="2" height="2"/>
  <rect x="58.16" y="26.1" width="2" height="2"/>
  <rect x="62.16" y="26.1" width="2" height="2"/>
  <rect x="4.16" y="28.1" width="2" height="2"/>
  <rect x="58.16" y="28.1" width="2" height="2"/>
  <rect x="62.16" y="28.1" width="2" height="2"/>
  <rect x="4.16" y="30.1" width="2" height="2"/>
  <rect x="60.16" y="30.1" width="2" height="2"/>
  <rect x="62.16" y="30.1" width="2" height="2"/>
  <rect x="4.16" y="32.1" width="2" height="2"/>
  <rect x="60.16" y="32.1" width="2" height="2"/>
  <rect x="62.16" y="32.1" width="2" height="2"/>
  <rect x="4.16" y="34.1" width="2" height="2"/>
  <rect x="60.16" y="34.1" width="2" height="2"/>
  <rect x="62.16" y="34.1" width="2" height="2"/>
  <rect x="4.16" y="36.1" width="2" height="2"/>
  <rect x="60.16" y="36.1" width="2" height="2"/>
  <rect x="62.16" y="36.1" width="2" height="2"/>
  <rect x="4.16" y="38.1" width="2" height="2"/>
  <rect x="60.16" y="38.1" width="2" height="2"/>
  <rect x="62.16" y="38.1" width="2" height="2"/>
  <rect x="4.16" y="40.1" width="2" height="2"/>
  <rect x="60.16" y="40.1" width="2" height="2"/>
  <rect x="62.16" y="40.1" width="2" height="2"/>
  <rect x="4.16" y="42.1" width="2" height="2"/>
  <rect x="62.16" y="42.1" width="2" height="2"/>
  <rect x="4.16" y="44.1" width="2" height="2"/>
  <rect x="62.16" y="44.1" width="2" height="2"/>
  <rect x="6.16" y="46.1" width="2" height="2"/>
  <rect x="62.16" y="46.1" width="2" height="2"/>
  <rect x="6.16" y="48.1" width="2" height="2"/>
  <rect x="62.16" y="48.1" width="2" height="2"/>
  <rect x="6.16" y="50.1" width="2" height="2"/>
  <g>
    <polygon class="cls-2" points="12.16 16.1 14.16 16.1 16.16 16.1 18.16 16.1 20.16 16.1 22.16 16.1 22.16 14.1 24.16 14.1 26.16 14.1 28.16 14.1 28.16 12.1 30.16 12.1 32.16 12.1 32.16 10.1 32.16 8.1 32.16 6.1 30.16 6.1 30.16 4.1 28.16 4.1 26.16 4.1 24.16 4.1 22.16 4.1 20.16 4.1 18.16 4.1 16.16 4.1 14.16 4.1 12.16 4.1 10.16 4.1 10.16 6.1 10.16 8.1 8.16 8.1 8.16 10.1 8.16 12.1 8.16 14.1 8.16 16.1 10.16 16.1 12.16 16.1"/>
    <polygon class="cls-2" points="30.16 14.1 28.16 14.1 28.16 16.1 30.16 16.1 32.16 16.1 34.16 16.1 36.16 16.1 38.16 16.1 40.16 16.1 42.16 16.1 44.16 16.1 46.16 16.1 48.16 16.1 50.16 16.1 50.16 14.1 50.16 12.1 50.16 10.1 48.16 10.1 48.16 8.1 48.16 6.1 46.16 6.1 46.16 8.1 44.16 8.1 42.16 8.1 42.16 10.1 40.16 10.1 38.16 10.1 38.16 12.1 36.16 12.1 34.16 12.1 32.16 12.1 32.16 14.1 30.16 14.1"/>
    <polygon class="cls-2" points="60.16 14.1 58.16 14.1 56.16 14.1 54.16 14.1 52.16 14.1 52.16 16.1 54.16 16.1 56.16 16.1 58.16 16.1 58.16 18.1 60.16 18.1 60.16 20.1 60.16 22.1 60.16 24.1 60.16 26.1 60.16 28.1 60.16 30.1 62.16 30.1 62.16 28.1 62.16 26.1 62.16 24.1 62.16 22.1 62.16 20.1 62.16 18.1 62.16 16.1 62.16 14.1 60.16 14.1"/>
    <polygon class="cls-1" points="58.16 28.1 58.16 26.1 58.16 24.1 58.16 22.1 58.16 20.1 58.16 18.1 56.16 18.1 54.16 18.1 52.16 18.1 50.16 18.1 48.16 18.1 46.16 18.1 44.16 18.1 42.16 18.1 40.16 18.1 38.16 18.1 36.16 18.1 34.16 18.1 32.16 18.1 30.16 18.1 28.16 18.1 26.16 18.1 24.16 18.1 22.16 18.1 20.16 18.1 18.16 18.1 16.16 18.1 14.16 18.1 12.16 18.1 10.16 18.1 8.16 18.1 6.16 18.1 4.16 18.1 4.16 20.1 4.16 22.1 4.16 24.1 4.16 26.1 4.16 28.1 6.16 28.1 6.16 30.1 6.16 32.1 6.16 34.1 6.16 36.1 6.16 38.1 6.16 40.1 6.16 42.1 6.16 44.1 6.16 46.1 8.16 46.1 8.16 48.1 8.16 50.1 8.16 52.1 10.16 52.1 12.16 52.1 14.16 52.1 16.16 52.1 18.16 52.1 20.16 52.1 22.16 52.1 24.16 52.1 26.16 52.1 28.16 52.1 30.16 52.1 32.16 52.1 34.16 52.1 36.16 52.1 38.16 52.1 40.16 52.1 42.16 52.1 44.16 52.1 46.16 52.1 48.16 52.1 50.16 52.1 52.16 52.1 54.16 52.1 56.16 52.1 58.16 52.1 60.16 52.1 62.16 52.1 62.16 50.1 62.16 48.1 62.16 46.1 62.16 44.1 62.16 42.1 60.16 42.1 60.16 40.1 60.16 38.1 60.16 36.1 60.16 34.1 60.16 32.1 60.16 30.1 58.16 30.1 58.16 28.1"/>
  </g>
  <rect x="62.16" y="50.1" width="2" height="2"/>
  <rect x="6.16" y="52.1" width="2" height="2"/>
  <rect x="8.16" y="52.1" width="2" height="2"/>
  <rect x="10.16" y="52.1" width="2" height="2"/>
  <rect x="12.16" y="52.1" width="2" height="2"/>
  <rect x="14.16" y="52.1" width="2" height="2"/>
  <rect x="16.16" y="52.1" width="2" height="2"/>
  <rect x="18.16" y="52.1" width="2" height="2"/>
  <rect x="20.16" y="52.1" width="2" height="2"/>
  <rect x="22.16" y="52.1" width="2" height="2"/>
  <rect x="24.16" y="52.1" width="2" height="2"/>
  <rect x="26.16" y="52.1" width="2" height="2"/>
  <rect x="28.16" y="52.1" width="2" height="2"/>
  <rect x="30.16" y="52.1" width="2" height="2"/>
  <rect x="32.16" y="52.1" width="2" height="2"/>
  <rect x="34.16" y="52.1" width="2" height="2"/>
  <rect x="36.16" y="52.1" width="2" height="2"/>
  <rect x="38.16" y="52.1" width="2" height="2"/>
  <rect x="40.16" y="52.1" width="2" height="2"/>
  <rect x="42.16" y="52.1" width="2" height="2"/>
  <rect x="44.16" y="52.1" width="2" height="2"/>
  <rect x="46.16" y="52.1" width="2" height="2"/>
  <rect x="48.16" y="52.1" width="2" height="2"/>
  <rect x="50.16" y="52.1" width="2" height="2"/>
  <rect x="52.16" y="52.1" width="2" height="2"/>
  <rect x="54.16" y="52.1" width="2" height="2"/>
  <rect x="56.16" y="52.1" width="2" height="2"/>
  <rect x="58.16" y="52.1" width="2" height="2"/>
  <rect x="60.16" y="52.1" width="2" height="2"/>
</svg>