<?xml version="1.0" encoding="UTF-8"?>
<svg id="Layer_1" data-name="Layer 1" xmlns="http://www.w3.org/2000/svg" xmlns:xlink="http://www.w3.org/1999/xlink" viewBox="0 0 66 56">
  <defs>
    <style>
      .cls-1 {
        fill: #ff95dc;
      }

      .cls-2 {
        fill: #ff5c8c;
      }

      .cls-3 {
        fill: url(#linear-gradient);
      }

      .cls-4 {
        fill: #fff;
      }

      .cls-5 {
        fill: #ffcdee;
      }

      .cls-6 {
        fill: #ffeaf8;
      }
    </style>
    <linearGradient id="linear-gradient" x1="10.74" y1="55.04" x2="55.26" y2="14.96" gradientUnits="userSpaceOnUse">
      <stop offset="0" stop-color="#ff95dc"/>
      <stop offset="1" stop-color="#fff"/>
    </linearGradient>
  </defs>
  <g>
    <g>
      <polygon class="cls-4" points="29 7 29 5 9 5 9 1 33 1 33 7 29 7"/>
      <rect class="cls-4" x="45" y="3" width="4" height="4"/>
      <rect class="cls-4" x="7" y="3" width="4" height="6"/>
      <rect class="cls-4" x="41" y="5" width="6" height="4"/>
      <polygon class="cls-4" points="31 13 31 5 35 5 35 9 39 9 39 13 31 13"/>
      <rect class="cls-4" x="37" y="7" width="6" height="4"/>
      <rect class="cls-4" x="47" y="5" width="4" height="6"/>
      <rect class="cls-4" x="27" y="11" width="6" height="4"/>
      <polygon class="cls-4" points="61 53 61 43 59 43 59 29 61 29 61 13 65 13 65 53 61 53"/>
      <polygon class="cls-4" points="3 19 3 15 5 15 5 7 9 7 9 15 21 15 21 13 29 13 29 15 49 15 49 9 53 9 53 11 63 11 63 15 53 15 59 15 59 19 3 19"/>
      <rect class="cls-4" x="1" y="17" width="4" height="12"/>
      <rect class="cls-4" x="57" y="17" width="4" height="14"/>
      <rect class="cls-4" x="3" y="27" width="4" height="20"/>
      <polygon class="cls-4" points="5 55 5 45 9 45 9 51 63 51 63 55 5 55"/>
    </g>
    <g>
      <g>
        <polygon class="cls-4" points="12 16 14 16 16 16 18 16 20 16 22 16 22 14 24 14 26 14 28 14 28 12 30 12 32 12 32 10 32 8 32 6 30 6 30 4 28 4 26 4 24 4 22 4 20 4 18 4 16 4 14 4 12 4 10 4 10 6 10 8 8 8 8 10 8 12 8 14 8 16 10 16 12 16"/>
        <polygon class="cls-4" points="30 14 28 14 28 16 30 16 32 16 34 16 36 16 38 16 40 16 42 16 44 16 46 16 48 16 50 16 50 14 50 12 50 10 48 10 48 8 48 6 46 6 46 8 44 8 42 8 42 10 40 10 38 10 38 12 36 12 34 12 32 12 32 14 30 14"/>
        <polygon class="cls-4" points="60 14 58 14 56 14 54 14 52 14 52 16 54 16 56 16 58 16 58 18 60 18 60 20 60 22 60 24 60 26 60 28 60 30 62 30 62 28 62 26 62 24 62 22 62 20 62 18 62 16 62 14 60 14"/>
        <polygon class="cls-3" points="58 28 58 26 58 24 58 22 58 20 58 18 56 18 54 18 52 18 50 18 48 18 46 18 44 18 42 18 40 18 38 18 36 18 34 18 32 18 30 18 28 18 26 18 24 18 22 18 20 18 18 18 16 18 14 18 12 18 10 18 8 18 6 18 4 18 4 20 4 22 4 24 4 26 4 28 6 28 6 30 6 32 6 34 6 36 6 38 6 40 6 42 6 44 6 46 8 46 8 48 8 50 8 52 10 52 12 52 14 52 16 52 18 52 20 52 22 52 24 52 26 52 28 52 30 52 32 52 34 52 36 52 38 52 40 52 42 52 44 52 46 52 48 52 50 52 52 52 54 52 56 52 58 52 60 52 62 52 62 50 62 48 62 46 62 44 62 42 60 42 60 40 60 38 60 36 60 34 60 32 60 30 58 30 58 28"/>
      </g>
      <g>
        <polygon points="14 4 16 4 18 4 20 4 22 4 24 4 26 4 28 4 30 4 30 6 32 6 32 4 32 2 30 2 28 2 26 2 24 2 22 2 20 2 18 2 16 2 14 2 12 2 10 2 10 4 12 4 14 4"/>
        <rect x="46" y="4" width="2" height="2"/>
        <polygon points="10 6 10 4 8 4 8 6 8 8 10 8 10 6"/>
        <polygon points="46 8 46 6 44 6 42 6 42 8 44 8 46 8"/>
        <polygon points="32 10 32 12 34 12 36 12 38 12 38 10 36 10 34 10 34 8 34 6 32 6 32 8 32 10"/>
        <polygon points="42 10 42 8 40 8 38 8 38 10 40 10 42 10"/>
        <polygon points="48 10 50 10 50 8 50 6 48 6 48 8 48 10"/>
        <polygon points="32 14 32 12 30 12 28 12 28 14 30 14 32 14"/>
        <polygon points="62 14 62 16 62 18 62 20 62 22 62 24 62 26 62 28 62 30 60 30 60 32 60 34 60 36 60 38 60 40 60 42 62 42 62 44 62 46 62 48 62 50 62 52 64 52 64 50 64 48 64 46 64 44 64 42 64 40 64 38 64 36 64 34 64 32 64 30 64 28 64 26 64 24 64 22 64 20 64 18 64 16 64 14 62 14"/>
        <polygon points="8 18 10 18 12 18 14 18 16 18 18 18 20 18 22 18 24 18 26 18 28 18 30 18 32 18 34 18 36 18 38 18 40 18 42 18 44 18 46 18 48 18 50 18 52 18 54 18 56 18 58 18 58 16 56 16 54 16 52 16 52 14 54 14 56 14 58 14 60 14 62 14 62 12 60 12 58 12 56 12 54 12 52 12 52 10 50 10 50 12 50 14 50 16 48 16 46 16 44 16 42 16 40 16 38 16 36 16 34 16 32 16 30 16 28 16 28 14 26 14 24 14 22 14 22 16 20 16 18 16 16 16 14 16 12 16 10 16 8 16 8 14 8 12 8 10 8 8 6 8 6 10 6 12 6 14 6 16 4 16 4 18 6 18 8 18"/>
        <polygon points="4 24 4 22 4 20 4 18 2 18 2 20 2 22 2 24 2 26 2 28 4 28 4 26 4 24"/>
        <polygon points="60 26 60 24 60 22 60 20 60 18 58 18 58 20 58 22 58 24 58 26 58 28 58 30 60 30 60 28 60 26"/>
        <polygon points="6 42 6 40 6 38 6 36 6 34 6 32 6 30 6 28 4 28 4 30 4 32 4 34 4 36 4 38 4 40 4 42 4 44 4 46 6 46 6 44 6 42"/>
        <polygon points="58 52 56 52 54 52 52 52 50 52 48 52 46 52 44 52 42 52 40 52 38 52 36 52 34 52 32 52 30 52 28 52 26 52 24 52 22 52 20 52 18 52 16 52 14 52 12 52 10 52 8 52 8 50 8 48 8 46 6 46 6 48 6 50 6 52 6 54 8 54 10 54 12 54 14 54 16 54 18 54 20 54 22 54 24 54 26 54 28 54 30 54 32 54 34 54 36 54 38 54 40 54 42 54 44 54 46 54 48 54 50 54 52 54 54 54 56 54 58 54 60 54 62 54 62 52 60 52 58 52"/>
      </g>
    </g>
  </g>
  <g>
    <rect class="cls-4" x="4" y="18" width="1" height="1"/>
    <rect class="cls-4" x="5" y="18" width="1" height="1"/>
    <rect class="cls-4" x="6" y="18" width="1" height="1"/>
    <rect class="cls-4" x="7" y="18" width="1" height="1"/>
    <rect class="cls-4" x="8" y="18" width="1" height="1"/>
    <rect class="cls-6" x="60" y="29" width="1" height="1"/>
    <g>
      <rect class="cls-1" x="8" y="15" width="1" height="1"/>
      <rect class="cls-5" x="28" y="15" width="1" height="1"/>
      <rect class="cls-1" x="28" y="14" width="1" height="1"/>
      <rect class="cls-5" x="29" y="14" width="1" height="1"/>
      <rect class="cls-5" x="30" y="14" width="1" height="1"/>
      <rect class="cls-5" x="31" y="14" width="1" height="1"/>
      <rect class="cls-1" x="32" y="14" width="1" height="1"/>
      <rect class="cls-5" x="32" y="13" width="1" height="1"/>
      <rect class="cls-1" x="32" y="12" width="1" height="1"/>
      <rect class="cls-1" x="33" y="12" width="1" height="1"/>
      <rect class="cls-5" x="34" y="12" width="1" height="1"/>
      <rect class="cls-5" x="35" y="12" width="1" height="1"/>
      <rect class="cls-5" x="36" y="12" width="1" height="1"/>
      <rect class="cls-5" x="37" y="12" width="1" height="1"/>
      <rect class="cls-5" x="38" y="11" width="1" height="1"/>
      <rect class="cls-1" x="38" y="10" width="1" height="1"/>
      <rect class="cls-5" x="39" y="10" width="1" height="1"/>
      <rect class="cls-1" x="40" y="10" width="1" height="1"/>
      <rect class="cls-5" x="41" y="10" width="1" height="1"/>
      <rect class="cls-5" x="42" y="9" width="1" height="1"/>
      <rect class="cls-1" x="42" y="8" width="1" height="1"/>
      <rect class="cls-5" x="43" y="8" width="1" height="1"/>
      <rect class="cls-5" x="44" y="8" width="1" height="1"/>
      <rect class="cls-1" x="45" y="8" width="1" height="1"/>
      <rect class="cls-5" x="46" y="7" width="1" height="1"/>
      <rect class="cls-1" x="46" y="6" width="1" height="1"/>
      <rect class="cls-5" x="47" y="6" width="1" height="1"/>
      <rect class="cls-5" x="48" y="10" width="1" height="1"/>
      <rect class="cls-5" x="49" y="10" width="1" height="1"/>
      <rect class="cls-1" x="52" y="14" width="1" height="1"/>
      <rect class="cls-5" x="53" y="14" width="1" height="1"/>
      <rect class="cls-5" x="54" y="14" width="1" height="1"/>
      <rect class="cls-1" x="55" y="14" width="1" height="1"/>
      <rect class="cls-5" x="56" y="14" width="1" height="1"/>
      <rect class="cls-5" x="57" y="14" width="1" height="1"/>
      <rect class="cls-5" x="58" y="14" width="1" height="1"/>
      <rect class="cls-5" x="58" y="16" width="1" height="1"/>
      <rect class="cls-1" x="58" y="17" width="1" height="1"/>
      <rect class="cls-1" x="59" y="14" width="1" height="1"/>
      <rect class="cls-5" x="60" y="14" width="1" height="1"/>
      <rect class="cls-5" x="60" y="18" width="1" height="1"/>
      <rect class="cls-1" x="60" y="19" width="1" height="1"/>
      <rect class="cls-1" x="60" y="20" width="1" height="1"/>
      <rect class="cls-5" x="60" y="21" width="1" height="1"/>
      <rect class="cls-5" x="60" y="22" width="1" height="1"/>
      <rect class="cls-5" x="60" y="23" width="1" height="1"/>
      <rect class="cls-5" x="60" y="24" width="1" height="1"/>
      <rect class="cls-5" x="60" y="25" width="1" height="1"/>
      <rect class="cls-1" x="60" y="26" width="1" height="1"/>
      <rect class="cls-5" x="60" y="27" width="1" height="1"/>
      <rect class="cls-5" x="60" y="28" width="1" height="1"/>
      <rect class="cls-5" x="61" y="14" width="1" height="1"/>
      <rect class="cls-1" x="52" y="15" width="1" height="1"/>
      <rect class="cls-5" x="8" y="14" width="1" height="1"/>
      <rect class="cls-5" x="8" y="13" width="1" height="1"/>
      <rect class="cls-5" x="8" y="12" width="1" height="1"/>
      <rect class="cls-1" x="8" y="11" width="1" height="1"/>
      <rect class="cls-5" x="8" y="10" width="1" height="1"/>
      <rect class="cls-5" x="8" y="9" width="1" height="1"/>
      <rect class="cls-1" x="8" y="8" width="1" height="1"/>
      <rect class="cls-1" x="9" y="8" width="1" height="1"/>
      <rect class="cls-5" x="10" y="7" width="1" height="1"/>
      <rect class="cls-5" x="10" y="6" width="1" height="1"/>
      <rect class="cls-1" x="10" y="5" width="1" height="1"/>
      <rect class="cls-1" x="10" y="4" width="1" height="1"/>
      <rect class="cls-5" x="11" y="4" width="1" height="1"/>
      <rect class="cls-5" x="12" y="4" width="1" height="1"/>
      <rect class="cls-5" x="13" y="4" width="1" height="1"/>
      <rect class="cls-5" x="14" y="4" width="1" height="1"/>
      <rect class="cls-5" x="15" y="4" width="1" height="1"/>
      <rect class="cls-5" x="16" y="4" width="1" height="1"/>
      <rect class="cls-5" x="17" y="4" width="1" height="1"/>
      <rect class="cls-5" x="18" y="4" width="1" height="1"/>
      <rect class="cls-5" x="19" y="4" width="1" height="1"/>
      <rect class="cls-5" x="20" y="4" width="1" height="1"/>
      <rect class="cls-5" x="21" y="4" width="1" height="1"/>
      <rect class="cls-5" x="22" y="4" width="1" height="1"/>
      <rect class="cls-5" x="23" y="4" width="1" height="1"/>
      <rect class="cls-5" x="24" y="4" width="1" height="1"/>
      <rect class="cls-5" x="25" y="4" width="1" height="1"/>
      <rect class="cls-5" x="26" y="4" width="1" height="1"/>
      <rect class="cls-5" x="27" y="4" width="1" height="1"/>
      <rect class="cls-5" x="28" y="4" width="1" height="1"/>
      <rect class="cls-5" x="29" y="4" width="1" height="1"/>
      <rect class="cls-5" x="30" y="6" width="1" height="1"/>
      <rect class="cls-5" x="31" y="6" width="1" height="1"/>
    </g>
    <rect class="cls-5" x="9" y="18" width="1" height="1"/>
    <rect class="cls-6" x="10" y="18" width="1" height="1"/>
    <rect class="cls-6" x="11" y="18" width="1" height="1"/>
    <rect class="cls-4" x="12" y="18" width="1" height="1"/>
    <rect class="cls-4" x="13" y="18" width="1" height="1"/>
    <rect class="cls-4" x="14" y="18" width="1" height="1"/>
    <rect class="cls-4" x="15" y="18" width="1" height="1"/>
    <rect class="cls-6" x="16" y="18" width="1" height="1"/>
    <rect class="cls-5" x="17" y="18" width="1" height="1"/>
    <rect class="cls-6" x="18" y="18" width="1" height="1"/>
    <rect class="cls-5" x="19" y="18" width="1" height="1"/>
    <rect class="cls-5" x="20" y="18" width="1" height="1"/>
    <rect class="cls-6" x="21" y="18" width="1" height="1"/>
    <rect class="cls-6" x="22" y="18" width="1" height="1"/>
    <rect class="cls-6" x="23" y="18" width="1" height="1"/>
    <rect class="cls-6" x="24" y="18" width="1" height="1"/>
    <rect class="cls-4" x="25" y="18" width="1" height="1"/>
    <rect class="cls-6" x="26" y="18" width="1" height="1"/>
    <rect class="cls-4" x="27" y="18" width="1" height="1"/>
    <rect class="cls-6" x="28" y="18" width="1" height="1"/>
    <rect class="cls-5" x="29" y="18" width="1" height="1"/>
    <rect class="cls-6" x="30" y="18" width="1" height="1"/>
    <rect class="cls-6" x="31" y="18" width="1" height="1"/>
    <rect class="cls-6" x="32" y="18" width="1" height="1"/>
    <rect class="cls-5" x="33" y="18" width="1" height="1"/>
    <rect class="cls-4" x="34" y="18" width="1" height="1"/>
    <rect class="cls-6" x="35" y="18" width="1" height="1"/>
    <rect class="cls-6" x="36" y="18" width="1" height="1"/>
    <rect class="cls-6" x="37" y="18" width="1" height="1"/>
    <rect class="cls-6" x="38" y="18" width="1" height="1"/>
    <rect class="cls-6" x="39" y="18" width="1" height="1"/>
    <rect class="cls-6" x="40" y="18" width="1" height="1"/>
    <rect class="cls-6" x="41" y="18" width="1" height="1"/>
    <rect class="cls-6" x="42" y="18" width="1" height="1"/>
    <rect class="cls-5" x="43" y="18" width="1" height="1"/>
    <rect class="cls-6" x="44" y="18" width="1" height="1"/>
    <rect class="cls-5" x="45" y="18" width="1" height="1"/>
    <rect class="cls-5" x="46" y="18" width="1" height="1"/>
    <rect class="cls-6" x="47" y="18" width="1" height="1"/>
    <rect class="cls-4" x="48" y="18" width="1" height="1"/>
    <rect class="cls-6" x="49" y="18" width="1" height="1"/>
    <rect class="cls-6" x="50" y="18" width="1" height="1"/>
    <rect class="cls-6" x="51" y="18" width="1" height="1"/>
    <rect class="cls-6" x="52" y="18" width="1" height="1"/>
    <rect class="cls-6" x="53" y="18" width="1" height="1"/>
    <rect class="cls-6" x="54" y="18" width="1" height="1"/>
    <rect class="cls-5" x="55" y="18" width="1" height="1"/>
    <rect class="cls-6" x="56" y="18" width="1" height="1"/>
    <rect class="cls-5" x="57" y="18" width="1" height="1"/>
    <rect class="cls-5" x="57" y="19" width="1" height="1"/>
    <rect class="cls-5" x="57" y="20" width="1" height="1"/>
    <rect class="cls-5" x="57" y="21" width="1" height="1"/>
    <rect class="cls-5" x="57" y="22" width="1" height="1"/>
    <rect class="cls-1" x="57" y="23" width="1" height="1"/>
    <rect class="cls-1" x="57" y="24" width="1" height="1"/>
    <rect class="cls-5" x="57" y="25" width="1" height="1"/>
    <rect class="cls-5" x="57" y="26" width="1" height="1"/>
    <rect class="cls-1" x="57" y="27" width="1" height="1"/>
    <rect class="cls-5" x="57" y="28" width="1" height="1"/>
    <rect class="cls-5" x="57" y="29" width="1" height="1"/>
    <rect class="cls-5" x="57" y="30" width="1" height="1"/>
    <rect class="cls-1" x="58" y="30" width="1" height="1"/>
    <rect class="cls-1" x="59" y="30" width="1" height="1"/>
    <rect class="cls-5" x="59" y="31" width="1" height="1"/>
    <rect class="cls-5" x="59" y="32" width="1" height="1"/>
    <rect class="cls-5" x="59" y="33" width="1" height="1"/>
    <rect class="cls-1" x="59" y="34" width="1" height="1"/>
    <rect class="cls-5" x="59" y="35" width="1" height="1"/>
    <rect class="cls-5" x="59" y="36" width="1" height="1"/>
    <rect class="cls-5" x="59" y="37" width="1" height="1"/>
    <rect class="cls-5" x="59" y="38" width="1" height="1"/>
    <rect class="cls-1" x="59" y="39" width="1" height="1"/>
    <rect class="cls-5" x="59" y="40" width="1" height="1"/>
    <rect class="cls-5" x="59" y="41" width="1" height="1"/>
    <rect class="cls-5" x="59" y="42" width="1" height="1"/>
    <rect class="cls-4" x="4" y="19" width="1" height="1"/>
    <rect class="cls-4" x="4" y="20" width="1" height="1"/>
    <rect class="cls-5" x="4" y="21" width="1" height="1"/>
    <rect class="cls-4" x="4" y="22" width="1" height="1"/>
    <rect class="cls-6" x="4" y="23" width="1" height="1"/>
    <rect class="cls-6" x="4" y="24" width="1" height="1"/>
    <rect class="cls-4" x="4" y="25" width="1" height="1"/>
    <rect class="cls-6" x="4" y="26" width="1" height="1"/>
    <rect class="cls-5" x="4" y="27" width="1" height="1"/>
    <rect class="cls-5" x="5" y="27" width="1" height="1"/>
    <rect class="cls-5" x="6" y="27" width="1" height="1"/>
    <rect class="cls-6" x="6" y="28" width="1" height="1"/>
    <rect class="cls-6" x="6" y="29" width="1" height="1"/>
    <rect class="cls-5" x="6" y="30" width="1" height="1"/>
    <rect class="cls-1" x="6" y="31" width="1" height="1"/>
    <rect class="cls-5" x="6" y="32" width="1" height="1"/>
    <rect class="cls-1" x="6" y="33" width="1" height="1"/>
    <rect class="cls-6" x="6" y="34" width="1" height="1"/>
    <rect class="cls-6" x="6" y="35" width="1" height="1"/>
    <rect class="cls-6" x="6" y="36" width="1" height="1"/>
    <rect class="cls-6" x="6" y="37" width="1" height="1"/>
    <rect class="cls-1" x="6" y="38" width="1" height="1"/>
    <rect class="cls-5" x="6" y="39" width="1" height="1"/>
    <rect class="cls-1" x="6" y="40" width="1" height="1"/>
    <rect class="cls-6" x="6" y="41" width="1" height="1"/>
    <rect class="cls-6" x="6" y="42" width="1" height="1"/>
    <rect class="cls-5" x="6" y="43" width="1" height="1"/>
    <rect class="cls-6" x="6" y="44" width="1" height="1"/>
    <rect class="cls-5" x="6" y="45" width="1" height="1"/>
    <rect class="cls-5" x="7" y="45" width="1" height="1"/>
    <rect class="cls-5" x="8" y="45" width="1" height="1"/>
    <rect class="cls-6" x="8" y="46" width="1" height="1"/>
    <rect class="cls-6" x="8" y="47" width="1" height="1"/>
    <rect class="cls-6" x="8" y="48" width="1" height="1"/>
    <rect class="cls-6" x="8" y="49" width="1" height="1"/>
    <rect class="cls-6" x="8" y="50" width="1" height="1"/>
    <rect class="cls-1" x="8" y="51" width="1" height="1"/>
    <rect class="cls-2" x="9" y="51" width="1" height="1"/>
    <rect class="cls-2" x="10" y="51" width="1" height="1"/>
    <rect class="cls-2" x="11" y="51" width="1" height="1"/>
    <rect class="cls-2" x="12" y="51" width="1" height="1"/>
    <rect class="cls-2" x="13" y="51" width="1" height="1"/>
    <rect class="cls-2" x="14" y="51" width="1" height="1"/>
    <rect class="cls-2" x="15" y="51" width="1" height="1"/>
    <rect class="cls-2" x="16" y="51" width="1" height="1"/>
    <rect class="cls-2" x="17" y="51" width="1" height="1"/>
    <rect class="cls-2" x="18" y="51" width="1" height="1"/>
    <rect class="cls-2" x="19" y="51" width="1" height="1"/>
    <rect class="cls-2" x="20" y="51" width="1" height="1"/>
    <rect class="cls-2" x="21" y="51" width="1" height="1"/>
    <rect class="cls-2" x="22" y="51" width="1" height="1"/>
    <rect class="cls-2" x="23" y="51" width="1" height="1"/>
    <rect class="cls-2" x="24" y="51" width="1" height="1"/>
    <rect class="cls-2" x="25" y="51" width="1" height="1"/>
    <rect class="cls-2" x="26" y="51" width="1" height="1"/>
    <rect class="cls-2" x="27" y="51" width="1" height="1"/>
    <rect class="cls-2" x="28" y="51" width="1" height="1"/>
    <rect class="cls-2" x="29" y="51" width="1" height="1"/>
    <rect class="cls-2" x="30" y="51" width="1" height="1"/>
    <rect class="cls-2" x="31" y="51" width="1" height="1"/>
    <rect class="cls-2" x="32" y="51" width="1" height="1"/>
    <rect class="cls-2" x="33" y="51" width="1" height="1"/>
    <rect class="cls-2" x="34" y="51" width="1" height="1"/>
    <rect class="cls-2" x="35" y="51" width="1" height="1"/>
    <rect class="cls-2" x="36" y="51" width="1" height="1"/>
    <rect class="cls-2" x="37" y="51" width="1" height="1"/>
    <rect class="cls-2" x="38" y="51" width="1" height="1"/>
    <rect class="cls-2" x="39" y="51" width="1" height="1"/>
    <rect class="cls-2" x="40" y="51" width="1" height="1"/>
    <rect class="cls-2" x="41" y="51" width="1" height="1"/>
    <rect class="cls-2" x="42" y="51" width="1" height="1"/>
    <rect class="cls-2" x="43" y="51" width="1" height="1"/>
    <rect class="cls-2" x="44" y="51" width="1" height="1"/>
    <rect class="cls-2" x="45" y="51" width="1" height="1"/>
    <rect class="cls-2" x="46" y="51" width="1" height="1"/>
    <rect class="cls-2" x="47" y="51" width="1" height="1"/>
    <rect class="cls-2" x="48" y="51" width="1" height="1"/>
    <rect class="cls-2" x="49" y="51" width="1" height="1"/>
    <rect class="cls-2" x="50" y="51" width="1" height="1"/>
    <rect class="cls-2" x="51" y="51" width="1" height="1"/>
    <rect class="cls-2" x="52" y="51" width="1" height="1"/>
    <rect class="cls-2" x="53" y="51" width="1" height="1"/>
    <rect class="cls-2" x="54" y="51" width="1" height="1"/>
    <rect class="cls-2" x="55" y="51" width="1" height="1"/>
    <rect class="cls-2" x="56" y="51" width="1" height="1"/>
    <rect class="cls-2" x="57" y="51" width="1" height="1"/>
    <rect class="cls-2" x="58" y="51" width="1" height="1"/>
    <rect class="cls-2" x="59" y="51" width="1" height="1"/>
    <rect class="cls-2" x="60" y="51" width="1" height="1"/>
    <rect class="cls-1" x="61" y="51" width="1" height="1"/>
    <rect class="cls-5" x="61" y="50" width="1" height="1"/>
    <rect class="cls-5" x="61" y="49" width="1" height="1"/>
    <rect class="cls-1" x="61" y="48" width="1" height="1"/>
    <rect class="cls-5" x="61" y="47" width="1" height="1"/>
    <rect class="cls-1" x="61" y="46" width="1" height="1"/>
    <rect class="cls-5" x="61" y="45" width="1" height="1"/>
    <rect class="cls-5" x="61" y="44" width="1" height="1"/>
    <rect class="cls-1" x="61" y="43" width="1" height="1"/>
    <rect class="cls-1" x="61" y="42" width="1" height="1"/>
    <rect class="cls-1" x="60" y="42" width="1" height="1"/>
  </g>
</svg>