<?xml version="1.0" encoding="UTF-8"?>
<svg id="Layer_1" data-name="Layer 1" xmlns="http://www.w3.org/2000/svg" xmlns:xlink="http://www.w3.org/1999/xlink" viewBox="0 0 66.2 56.2">
  <defs>
    <style>
      .cls-1 {
        fill: url(#linear-gradient);
      }

      .cls-2 {
        fill: #fff;
      }
    </style>
    <linearGradient id="linear-gradient" x1="10.84" y1="55.14" x2="55.36" y2="15.06" gradientUnits="userSpaceOnUse">
      <stop offset="0" stop-color="#ff95dc"/>
      <stop offset="1" stop-color="#fff"/>
    </linearGradient>
  </defs>
  <polygon class="cls-1" points="58.1 18.1 58.1 52.1 8.1 52.1 8.1 18.1 22.1 18.1 22.1 22.1 24.1 22.1 24.1 20.1 26.1 20.1 26.1 18.1 40.1 18.1 40.1 20.1 42.1 20.1 42.1 22.1 44.1 22.1 44.1 18.1 58.1 18.1"/>
  <g>
    <rect x="28.1" y="2.1" width="10" height="2"/>
    <rect x="26.1" y="4.1" width="2" height="2"/>
    <rect x="38.1" y="4.1" width="2" height="2"/>
    <rect x="24.1" y="6.1" width="2" height="2"/>
    <rect x="40.1" y="6.1" width="2" height="2"/>
    <rect x="28.1" y="6.1" width="10" height="2"/>
    <g>
      <rect class="cls-2" x="28.1" y="4.1" width="10" height="2"/>
      <rect class="cls-2" x="24.1" y="8.1" width="2" height="12"/>
      <rect class="cls-2" x="26.1" y="6.1" width="2" height="2"/>
      <rect class="cls-2" x="38.1" y="6.1" width="2" height="2"/>
      <rect class="cls-2" x="40.1" y="8.1" width="2" height="12"/>
    </g>
    <polygon points="60.1 16.1 60.1 54.1 8.1 54.1 8.1 52.1 58.1 52.1 58.1 18.1 44.1 18.1 44.1 22.1 38.1 22.1 38.1 18.1 28.1 18.1 28.1 22.1 22.1 22.1 22.1 18.1 8.1 18.1 8.1 16.1 22.1 16.1 22.1 8.1 24.1 8.1 24.1 20.1 26.1 20.1 26.1 8.1 28.1 8.1 28.1 16.1 38.1 16.1 38.1 8.1 40.1 8.1 40.1 20.1 42.1 20.1 42.1 8.1 44.1 8.1 44.1 16.1 60.1 16.1"/>
    <polygon points="8.1 48.1 8.1 46.1 8.1 44.1 8.1 42.1 8.1 40.1 8.1 38.1 8.1 36.1 8.1 34.1 8.1 32.1 8.1 30.1 8.1 28.1 8.1 26.1 8.1 24.1 8.1 22.1 8.1 20.1 8.1 18.1 6.1 18.1 6.1 20.1 6.1 22.1 6.1 24.1 6.1 26.1 6.1 28.1 6.1 30.1 6.1 32.1 6.1 34.1 6.1 36.1 6.1 38.1 6.1 40.1 6.1 42.1 6.1 44.1 6.1 46.1 6.1 48.1 6.1 50.1 6.1 52.1 8.1 52.1 8.1 50.1 8.1 48.1"/>
  </g>
</svg>