<?xml version="1.0" encoding="UTF-8"?>
<svg id="Layer_1" data-name="Layer 1" xmlns="http://www.w3.org/2000/svg" viewBox="0 0 22 22">
  <defs>
    <style>
      .cls-1 {
        fill: #fff;
      }
    </style>
  </defs>
  <rect x="4" y="2" width="2" height="2"/>
  <rect x="6" y="2" width="2" height="2"/>
  <rect x="8" y="2" width="2" height="2"/>
  <rect x="10" y="2" width="2" height="2"/>
  <rect x="12" y="2" width="2" height="2"/>
  <rect x="14" y="2" width="2" height="2"/>
  <rect x="16" y="2" width="2" height="2"/>
  <rect x="2" y="4" width="2" height="2"/>
  <rect x="18" y="4" width="2" height="2"/>
  <rect x="2" y="6" width="2" height="2"/>
  <rect x="8" y="6" width="2" height="2"/>
  <rect x="10" y="6" width="2" height="2"/>
  <rect x="12" y="6" width="2" height="2"/>
  <rect x="14" y="6" width="2" height="2"/>
  <rect x="18" y="6" width="2" height="2"/>
  <rect x="2" y="8" width="2" height="2"/>
  <rect x="12" y="8" width="2" height="2"/>
  <rect x="18" y="8" width="2" height="2"/>
  <rect x="2" y="10" width="2" height="2"/>
  <rect x="10" y="10" width="2" height="2"/>
  <rect x="14" y="10" width="2" height="2"/>
  <rect x="18" y="10" width="2" height="2"/>
  <rect x="2" y="12" width="2" height="2"/>
  <rect x="8" y="12" width="2" height="2"/>
  <rect x="14" y="12" width="2" height="2"/>
  <rect x="18" y="12" width="2" height="2"/>
  <rect x="2" y="14" width="2" height="2"/>
  <rect x="6" y="14" width="2" height="2"/>
  <rect x="18" y="14" width="2" height="2"/>
  <rect x="2" y="16" width="2" height="2"/>
  <rect x="18" y="16" width="2" height="2"/>
  <rect x="4" y="18" width="2" height="2"/>
  <rect x="6" y="18" width="2" height="2"/>
  <rect x="8" y="18" width="2" height="2"/>
  <rect x="10" y="18" width="2" height="2"/>
  <rect x="12" y="18" width="2" height="2"/>
  <rect x="14" y="18" width="2" height="2"/>
  <rect x="16" y="18" width="2" height="2"/>
  <g>
    <path class="cls-1" d="M18,14V4H4v14h14v-4ZM6,16v-2h2v-2h2v-2h2v-2h-4v-2h8v2h-2v2h2v4h-2v-4h-2v2h-2v2h-2v2h-2Z"/>
    <path class="cls-1" d="M19,3V1H3v2H1v16h2v2h16v-2h2V3h-2ZM20,6v12h-2v2H4v-2h-2V4h2v-2h14v2h2v2Z"/>
  </g>
</svg>