<?xml version="1.0" encoding="UTF-8"?>
<svg id="Layer_1" data-name="Layer 1" xmlns="http://www.w3.org/2000/svg" viewBox="0 0 18 18">
  <defs>
    <style>
      .cls-1 {
        fill: #fff;
      }
    </style>
  </defs>
  <rect x="2" width="2" height="2"/>
  <rect x="4" width="2" height="2"/>
  <rect x="6" width="2" height="2"/>
  <rect x="8" width="2" height="2"/>
  <rect x="10" width="2" height="2"/>
  <rect x="12" width="2" height="2"/>
  <rect x="14" width="2" height="2"/>
  <rect y="2" width="2" height="2"/>
  <rect class="cls-1" x="2" y="2" width="2" height="2"/>
  <rect class="cls-1" x="4" y="2" width="2" height="2"/>
  <rect class="cls-1" x="6" y="2" width="2" height="2"/>
  <rect class="cls-1" x="8" y="2" width="2" height="2"/>
  <rect class="cls-1" x="10" y="2" width="2" height="2"/>
  <rect class="cls-1" x="12" y="2" width="2" height="2"/>
  <rect class="cls-1" x="14" y="2" width="2" height="2"/>
  <rect x="16" y="2" width="2" height="2"/>
  <rect y="4" width="2" height="2"/>
  <rect class="cls-1" x="2" y="4" width="2" height="2"/>
  <rect class="cls-1" x="4" y="4" width="2" height="2"/>
  <rect x="6" y="4" width="2" height="2"/>
  <rect x="8" y="4" width="2" height="2"/>
  <rect x="10" y="4" width="2" height="2"/>
  <rect x="12" y="4" width="2" height="2"/>
  <rect class="cls-1" x="14" y="4" width="2" height="2"/>
  <rect x="16" y="4" width="2" height="2"/>
  <rect y="6" width="2" height="2"/>
  <rect class="cls-1" x="2" y="6" width="2" height="2"/>
  <rect class="cls-1" x="4" y="6" width="2" height="2"/>
  <rect class="cls-1" x="6" y="6" width="2" height="2"/>
  <rect class="cls-1" x="8" y="6" width="2" height="2"/>
  <rect x="10" y="6" width="2" height="2"/>
  <rect class="cls-1" x="12" y="6" width="2" height="2"/>
  <rect class="cls-1" x="14" y="6" width="2" height="2"/>
  <rect x="16" y="6" width="2" height="2"/>
  <rect y="8" width="2" height="2"/>
  <rect class="cls-1" x="2" y="8" width="2" height="2"/>
  <rect class="cls-1" x="4" y="8" width="2" height="2"/>
  <rect class="cls-1" x="6" y="8" width="2" height="2"/>
  <rect x="8" y="8" width="2" height="2"/>
  <rect class="cls-1" x="10" y="8" width="2" height="2"/>
  <rect x="12" y="8" width="2" height="2"/>
  <rect class="cls-1" x="14" y="8" width="2" height="2"/>
  <rect x="16" y="8" width="2" height="2"/>
  <rect y="10" width="2" height="2"/>
  <rect class="cls-1" x="2" y="10" width="2" height="2"/>
  <rect class="cls-1" x="4" y="10" width="2" height="2"/>
  <rect x="6" y="10" width="2" height="2"/>
  <rect class="cls-1" x="8" y="10" width="2" height="2"/>
  <rect class="cls-1" x="10" y="10" width="2" height="2"/>
  <rect x="12" y="10" width="2" height="2"/>
  <rect class="cls-1" x="14" y="10" width="2" height="2"/>
  <rect x="16" y="10" width="2" height="2"/>
  <rect y="12" width="2" height="2"/>
  <rect class="cls-1" x="2" y="12" width="2" height="2"/>
  <rect x="4" y="12" width="2" height="2"/>
  <rect class="cls-1" x="6" y="12" width="2" height="2"/>
  <rect class="cls-1" x="8" y="12" width="2" height="2"/>
  <rect class="cls-1" x="10" y="12" width="2" height="2"/>
  <rect class="cls-1" x="12" y="12" width="2" height="2"/>
  <rect class="cls-1" x="14" y="12" width="2" height="2"/>
  <rect x="16" y="12" width="2" height="2"/>
  <rect y="14" width="2" height="2"/>
  <rect class="cls-1" x="2" y="14" width="2" height="2"/>
  <rect class="cls-1" x="4" y="14" width="2" height="2"/>
  <rect class="cls-1" x="6" y="14" width="2" height="2"/>
  <rect class="cls-1" x="8" y="14" width="2" height="2"/>
  <rect class="cls-1" x="10" y="14" width="2" height="2"/>
  <rect class="cls-1" x="12" y="14" width="2" height="2"/>
  <rect class="cls-1" x="14" y="14" width="2" height="2"/>
  <rect x="16" y="14" width="2" height="2"/>
  <rect x="2" y="16" width="2" height="2"/>
  <rect x="4" y="16" width="2" height="2"/>
  <rect x="6" y="16" width="2" height="2"/>
  <rect x="8" y="16" width="2" height="2"/>
  <rect x="10" y="16" width="2" height="2"/>
  <rect x="12" y="16" width="2" height="2"/>
  <rect x="14" y="16" width="2" height="2"/>
</svg>