<?xml version="1.0" encoding="UTF-8"?>
<svg id="Layer_1" data-name="Layer 1" xmlns="http://www.w3.org/2000/svg" xmlns:xlink="http://www.w3.org/1999/xlink" viewBox="0 0 66 56">
  <defs>
    <style>
      .cls-1 {
        fill: #ff95dc;
      }

      .cls-2 {
        fill: url(#linear-gradient-2);
      }

      .cls-3 {
        fill: #ff5c8c;
      }

      .cls-4 {
        fill: url(#linear-gradient);
      }

      .cls-5 {
        fill: #fff;
      }

      .cls-6 {
        fill: #ffcdee;
      }

      .cls-7 {
        fill: #ffeaf8;
      }
    </style>
    <linearGradient id="linear-gradient" x1="6" y1="38" x2="62" y2="38" gradientUnits="userSpaceOnUse">
      <stop offset="0" stop-color="#ff95dc"/>
      <stop offset="1" stop-color="#fff"/>
    </linearGradient>
    <linearGradient id="linear-gradient-2" x1="7" x2="63" xlink:href="#linear-gradient"/>
  </defs>
  <g>
    <polygon class="cls-5" points="57 9 57 5 53 5 53 1 61 1 61 9 57 9"/>
    <polygon class="cls-5" points="35 9 35 5 45 5 45 3 55 3 55 7 49 7 49 9 35 9"/>
    <polygon class="cls-5" points="31 13 31 11 27 11 27 7 37 7 37 13 31 13"/>
    <rect class="cls-5" x="47" y="7" width="6" height="4"/>
    <rect class="cls-5" x="19" y="9" width="10" height="4"/>
    <rect class="cls-5" x="51" y="9" width="6" height="4"/>
    <polygon class="cls-5" points="55 15 55 11 59 11 59 7 63 7 63 15 55 15"/>
    <rect class="cls-5" x="11" y="11" width="10" height="4"/>
    <rect class="cls-5" x="35" y="11" width="6" height="4"/>
    <rect class="cls-5" x="19" y="13" width="4" height="4"/>
    <rect class="cls-5" x="39" y="13" width="4" height="4"/>
    <rect class="cls-5" x="51" y="13" width="6" height="4"/>
    <polygon class="cls-5" points="1 21 1 15 3 15 3 13 13 13 13 17 7 17 7 19 5 19 5 21 1 21"/>
    <rect class="cls-5" x="21" y="15" width="6" height="4"/>
    <rect class="cls-5" x="41" y="15" width="12" height="4"/>
    <rect class="cls-5" x="5" y="17" width="6" height="4"/>
    <rect class="cls-5" x="61" y="23" width="4" height="30"/>
    <rect class="cls-5" x="33" y="31" width="4" height="4"/>
    <rect class="cls-5" x="35" y="33" width="6" height="4"/>
    <rect class="cls-5" x="39" y="35" width="4" height="6"/>
    <rect class="cls-5" x="35" y="39" width="6" height="4"/>
    <polygon class="cls-5" points="29 47 29 29 35 29 35 33 33 33 33 43 35 43 35 47 29 47"/>
    <rect class="cls-5" x="33" y="41" width="4" height="4"/>
    <polygon class="cls-5" points="3 53 3 19 7 19 7 21 9 21 9 19 15 19 15 21 25 21 25 17 29 17 29 19 31 19 31 17 43 17 43 21 35 21 63 21 63 25 7 25 7 53 3 53"/>
    <rect class="cls-5" x="5" y="51" width="58" height="4"/>
  </g>
  <g>
    <g>
      <polygon class="cls-3" points="52 8 52 10 54 10 56 10 56 12 58 12 60 12 60 10 60 8 58 8 58 6 58 4 56 4 54 4 54 6 52 6 50 6 48 6 48 8 50 8 52 8"/>
      <polygon class="cls-3" points="40 12 40 14 42 14 42 16 44 16 46 16 48 16 50 16 52 16 52 14 54 14 56 14 56 12 54 12 52 12 52 10 50 10 48 10 48 8 46 8 44 8 42 8 40 8 38 8 36 8 36 10 36 12 38 12 40 12"/>
      <polygon class="cls-3" points="22 16 24 16 26 16 26 18 28 18 28 20 30 20 32 20 32 18 34 18 36 18 38 18 40 18 42 18 42 16 40 16 40 14 38 14 36 14 36 12 34 12 32 12 32 10 30 10 28 10 28 12 26 12 24 12 22 12 20 12 20 14 22 14 22 16"/>
      <polygon class="cls-3" points="10 18 10 20 12 20 14 20 14 22 16 22 18 22 20 22 22 22 24 22 26 22 26 20 26 18 24 18 22 18 22 16 20 16 20 14 18 14 16 14 14 14 12 14 12 16 10 16 8 16 6 16 6 18 8 18 10 18"/>
      <rect class="cls-6" x="4" y="18" width="1" height="1"/>
      <polygon class="cls-3" points="14 22 14 24 6 24 6 20 10 20 10 22 14 22"/>
      <path class="cls-4" d="M6,24v28h56v-28H6ZM40,42h-4v2h-2v2h-2v-12h2v2h2v2h4v4Z"/>
      <polygon class="cls-5" points="40 36 40 40 36 40 36 42 34 42 34 44 32 44 32 32 34 32 34 34 36 34 36 36 40 36"/>
    </g>
    <g>
      <polygon class="cls-3" points="53 8 53 10 55 10 57 10 57 12 59 12 61 12 61 10 61 8 59 8 59 6 59 4 57 4 55 4 55 6 53 6 51 6 49 6 49 8 51 8 53 8"/>
      <polygon class="cls-3" points="41 12 41 14 43 14 43 16 45 16 47 16 49 16 51 16 53 16 53 14 55 14 57 14 57 12 55 12 53 12 53 10 51 10 49 10 49 8 47 8 45 8 43 8 41 8 39 8 37 8 37 10 37 12 39 12 41 12"/>
      <polygon class="cls-3" points="23 16 25 16 27 16 27 18 29 18 29 20 31 20 33 20 33 18 35 18 37 18 39 18 41 18 43 18 43 16 41 16 41 14 39 14 37 14 37 12 35 12 33 12 33 10 31 10 29 10 29 12 27 12 25 12 23 12 21 12 21 14 23 14 23 16"/>
      <polygon class="cls-3" points="11 18 11 20 13 20 15 20 15 22 17 22 19 22 21 22 23 22 25 22 27 22 27 20 27 18 25 18 23 18 23 16 21 16 21 14 19 14 17 14 15 14 13 14 13 16 11 16 9 16 7 16 7 18 9 18 11 18"/>
      <rect class="cls-6" x="5" y="18" width="1" height="1"/>
      <rect class="cls-3" x="5" y="19" width="1" height="1"/>
      <rect class="cls-6" x="4" y="19" width="1" height="1"/>
      <polygon class="cls-3" points="15 22 15 24 7 24 7 20 11 20 11 22 15 22"/>
      <path class="cls-2" d="M7,24v28h56v-28H7ZM41,42h-4v2h-2v2h-2v-12h2v2h2v2h4v4Z"/>
      <polygon class="cls-5" points="41 36 41 40 37 40 37 42 35 42 35 44 33 44 33 32 35 32 35 34 37 34 37 36 41 36"/>
    </g>
    <rect class="cls-6" x="54" y="4" width="2" height="1"/>
    <rect class="cls-6" x="54" y="5" width="1" height="1"/>
    <rect class="cls-6" x="56" y="4" width="2" height="1"/>
    <polygon class="cls-6" points="52 6 50 6 48 6 48 7 50 7 52 7 54 7 54 6 52 6"/>
    <rect class="cls-1" x="35" y="12" width="1" height="1"/>
    <rect class="cls-6" x="39" y="14" width="1" height="1"/>
    <rect class="cls-6" x="38" y="14" width="1" height="1"/>
    <rect class="cls-6" x="37" y="14" width="1" height="1"/>
    <rect class="cls-6" x="36" y="14" width="1" height="1"/>
    <rect class="cls-6" x="41" y="16" width="1" height="1"/>
    <rect class="cls-6" x="40" y="16" width="1" height="1"/>
    <rect class="cls-1" x="40" y="12" width="1" height="2"/>
    <rect class="cls-1" x="42" y="14" width="1" height="2"/>
    <rect class="cls-1" x="56" y="10" width="1" height="2"/>
    <rect class="cls-6" x="48" y="10" width="4" height="1"/>
    <rect class="cls-6" x="52" y="12" width="4" height="1"/>
    <polygon class="cls-6" points="46 8 44 8 42 8 40 8 38 8 36 8 36 9 38 9 40 9 42 9 44 9 46 9 48 9 48 8 46 8"/>
    <g>
      <polygon class="cls-6" points="28 10 28 11 29 11 30 11 30 10 29 10 28 10"/>
      <rect class="cls-6" x="28" y="11" width="1" height="1"/>
      <polygon class="cls-6" points="31 10 30 10 30 11 31 11 32 11 32 10 31 10"/>
    </g>
    <rect class="cls-6" x="32" y="10" width="2" height="2"/>
    <polygon class="cls-6" points="27 12 26 12 25 12 24 12 23 12 22 12 21 12 20 12 20 13 21 13 22 13 23 13 24 13 25 13 26 13 27 13 28 13 28 12 27 12"/>
    <rect class="cls-6" x="12" y="14" width="1" height="1"/>
    <rect class="cls-6" x="12" y="15" width="1" height="1"/>
    <rect class="cls-1" x="22" y="14" width="1" height="1"/>
    <rect class="cls-1" x="22" y="15" width="1" height="1"/>
    <rect class="cls-1" x="26" y="16" width="1" height="2"/>
    <rect class="cls-1" x="28" y="18" width="1" height="2"/>
    <rect class="cls-6" x="24" y="18" width="2" height="1"/>
    <rect class="cls-6" x="22" y="18" width="2" height="1"/>
    <rect class="cls-6" x="13" y="14" width="1" height="1"/>
    <rect class="cls-6" x="14" y="20" width="1" height="2"/>
    <rect class="cls-6" x="6" y="20" width="1" height="1"/>
    <rect class="cls-6" x="7" y="20" width="1" height="1"/>
    <rect class="cls-6" x="8" y="20" width="1" height="1"/>
    <rect class="cls-6" x="9" y="20" width="1" height="1"/>
    <rect class="cls-1" x="6" y="21" width="1" height="1"/>
    <rect class="cls-5" x="14" y="14" width="1" height="1"/>
    <rect class="cls-6" x="15" y="14" width="1" height="1"/>
    <rect class="cls-6" x="16" y="14" width="1" height="1"/>
    <rect class="cls-6" x="17" y="14" width="1" height="1"/>
    <rect class="cls-6" x="18" y="14" width="1" height="1"/>
    <rect class="cls-6" x="19" y="14" width="1" height="1"/>
    <rect class="cls-6" x="6" y="16" width="1" height="1"/>
    <rect class="cls-6" x="7" y="16" width="1" height="1"/>
    <rect class="cls-6" x="8" y="16" width="1" height="1"/>
    <rect class="cls-5" x="9" y="16" width="1" height="1"/>
    <rect class="cls-6" x="10" y="16" width="1" height="1"/>
    <rect class="cls-6" x="11" y="16" width="1" height="1"/>
    <rect class="cls-6" x="10" y="18" width="1" height="2"/>
    <g>
      <polygon points="58 4 58 6 58 8 60 8 60 6 60 4 60 2 58 2 56 2 54 2 54 4 56 4 58 4"/>
      <polygon points="40 8 42 8 44 8 46 8 48 8 48 6 50 6 52 6 54 6 54 4 52 4 50 4 48 4 46 4 46 6 44 6 42 6 40 6 38 6 36 6 36 8 38 8 40 8"/>
      <polygon points="32 10 32 12 34 12 36 12 36 10 36 8 34 8 32 8 30 8 28 8 28 10 30 10 32 10"/>
      <polygon points="50 8 48 8 48 10 50 10 52 10 52 8 50 8"/>
      <polygon points="24 12 26 12 28 12 28 10 26 10 24 10 22 10 20 10 20 12 22 12 24 12"/>
      <polygon points="54 10 52 10 52 12 54 12 56 12 56 10 54 10"/>
      <polygon points="60 12 58 12 56 12 56 14 58 14 60 14 62 14 62 12 62 10 62 8 60 8 60 10 60 12"/>
      <polygon points="16 14 18 14 20 14 20 12 18 12 16 12 14 12 12 12 12 14 14 14 16 14"/>
      <polygon points="38 12 36 12 36 14 38 14 40 14 40 12 38 12"/>
      <rect x="20" y="14" width="2" height="2"/>
      <rect x="40" y="14" width="2" height="2"/>
      <polygon points="52 14 52 16 54 16 56 16 56 14 54 14 52 14"/>
      <polygon points="6 18 6 16 8 16 10 16 12 16 12 14 10 14 8 14 6 14 4 14 4 16 2 16 2 18 2 20 4 20 4 18 6 18"/>
      <polygon points="24 16 22 16 22 18 24 18 26 18 26 16 24 16"/>
      <polygon points="48 16 46 16 44 16 42 16 42 18 44 18 46 18 48 18 50 18 52 18 52 16 50 16 48 16"/>
      <polygon points="8 18 6 18 6 20 8 20 10 20 10 18 8 18"/>
      <polygon points="62 24 62 26 62 28 62 30 62 32 62 34 62 36 62 38 62 40 62 42 62 44 62 46 62 48 62 50 62 52 64 52 64 50 64 48 64 46 64 44 64 42 64 40 64 38 64 36 64 34 64 32 64 30 64 28 64 26 64 24 62 24"/>
      <rect x="34" y="32" width="2" height="2"/>
      <polygon points="38 36 40 36 40 34 38 34 36 34 36 36 38 36"/>
      <polygon points="40 38 40 40 42 40 42 38 42 36 40 36 40 38"/>
      <polygon points="36 40 36 42 38 42 40 42 40 40 38 40 36 40"/>
      <polygon points="32 42 32 40 32 38 32 36 32 34 32 32 34 32 34 30 32 30 30 30 30 32 30 34 30 36 30 38 30 40 30 42 30 44 30 46 32 46 34 46 34 44 32 44 32 42"/>
      <rect x="34" y="42" width="2" height="2"/>
      <polygon points="6 48 6 46 6 44 6 42 6 40 6 38 6 36 6 34 6 32 6 30 6 28 6 26 6 24 8 24 10 24 12 24 14 24 16 24 18 24 20 24 22 24 24 24 26 24 28 24 30 24 32 24 34 24 36 24 38 24 40 24 42 24 44 24 46 24 48 24 50 24 52 24 54 24 56 24 58 24 60 24 62 24 62 22 60 22 58 22 56 22 54 22 52 22 50 22 48 22 46 22 44 22 42 22 40 22 38 22 36 22 34 22 34 20 36 20 38 20 40 20 42 20 42 18 40 18 38 18 36 18 34 18 32 18 32 20 30 20 28 20 28 18 26 18 26 20 26 22 24 22 22 22 20 22 18 22 16 22 14 22 14 20 12 20 10 20 10 22 8 22 6 22 6 20 4 20 4 22 4 24 4 26 4 28 4 30 4 32 4 34 4 36 4 38 4 40 4 42 4 44 4 46 4 48 4 50 4 52 6 52 6 50 6 48"/>
      <polygon points="58 52 56 52 54 52 52 52 50 52 48 52 46 52 44 52 42 52 40 52 38 52 36 52 34 52 32 52 30 52 28 52 26 52 24 52 22 52 20 52 18 52 16 52 14 52 12 52 10 52 8 52 6 52 6 54 8 54 10 54 12 54 14 54 16 54 18 54 20 54 22 54 24 54 26 54 28 54 30 54 32 54 34 54 36 54 38 54 40 54 42 54 44 54 46 54 48 54 50 54 52 54 54 54 56 54 58 54 60 54 62 54 62 52 60 52 58 52"/>
    </g>
    <g>
      <rect class="cls-5" x="6" y="25" width="1" height="1"/>
      <rect class="cls-5" x="6" y="24" width="1" height="1"/>
      <rect class="cls-5" x="6" y="26" width="1" height="1"/>
      <rect class="cls-5" x="6" y="27" width="1" height="1"/>
      <rect class="cls-5" x="6" y="28" width="1" height="1"/>
      <rect class="cls-5" x="6" y="29" width="1" height="1"/>
      <rect class="cls-5" x="6" y="30" width="1" height="1"/>
      <rect class="cls-7" x="6" y="31" width="1" height="1"/>
      <rect class="cls-6" x="6" y="32" width="1" height="1"/>
      <rect class="cls-5" x="6" y="33" width="1" height="1"/>
      <rect class="cls-5" x="6" y="34" width="1" height="1"/>
      <rect class="cls-7" x="6" y="35" width="1" height="1"/>
      <rect class="cls-7" x="6" y="36" width="1" height="1"/>
      <rect class="cls-6" x="6" y="37" width="1" height="1"/>
      <rect class="cls-7" x="6" y="38" width="1" height="1"/>
      <rect class="cls-7" x="6" y="39" width="1" height="1"/>
      <rect class="cls-7" x="6" y="40" width="1" height="1"/>
      <rect class="cls-5" x="6" y="41" width="1" height="1"/>
      <rect class="cls-7" x="6" y="42" width="1" height="1"/>
      <rect class="cls-6" x="6" y="43" width="1" height="1"/>
      <rect class="cls-7" x="6" y="44" width="1" height="1"/>
      <rect class="cls-7" x="6" y="45" width="1" height="1"/>
      <rect class="cls-6" x="6" y="46" width="1" height="1"/>
      <rect class="cls-7" x="6" y="47" width="1" height="1"/>
      <rect class="cls-7" x="6" y="48" width="1" height="1"/>
      <rect class="cls-7" x="6" y="49" width="1" height="1"/>
      <rect class="cls-7" x="6" y="50" width="1" height="1"/>
      <rect class="cls-1" x="6" y="51" width="1" height="1"/>
      <rect class="cls-6" x="61" y="25" width="1" height="1"/>
      <rect class="cls-6" x="61" y="26" width="1" height="1"/>
      <rect class="cls-6" x="61" y="27" width="1" height="1"/>
      <rect class="cls-6" x="61" y="28" width="1" height="1"/>
      <rect class="cls-6" x="61" y="29" width="1" height="1"/>
      <rect class="cls-6" x="61" y="30" width="1" height="1"/>
      <rect class="cls-6" x="61" y="31" width="1" height="1"/>
      <rect class="cls-1" x="61" y="32" width="1" height="1"/>
      <rect class="cls-6" x="61" y="33" width="1" height="1"/>
      <rect class="cls-6" x="61" y="34" width="1" height="1"/>
      <rect class="cls-6" x="61" y="35" width="1" height="1"/>
      <rect class="cls-6" x="61" y="36" width="1" height="1"/>
      <rect class="cls-6" x="61" y="37" width="1" height="1"/>
      <rect class="cls-6" x="61" y="38" width="1" height="1"/>
      <rect class="cls-6" x="61" y="39" width="1" height="1"/>
      <rect class="cls-1" x="61" y="40" width="1" height="1"/>
      <rect class="cls-6" x="61" y="41" width="1" height="1"/>
      <rect class="cls-6" x="61" y="42" width="1" height="1"/>
      <rect class="cls-6" x="61" y="43" width="1" height="1"/>
      <rect class="cls-1" x="61" y="44" width="1" height="1"/>
      <rect class="cls-1" x="61" y="45" width="1" height="1"/>
      <rect class="cls-1" x="61" y="46" width="1" height="1"/>
      <rect class="cls-6" x="61" y="47" width="1" height="1"/>
      <rect class="cls-6" x="61" y="48" width="1" height="1"/>
      <rect class="cls-1" x="61" y="49" width="1" height="1"/>
      <rect class="cls-6" x="61" y="50" width="1" height="1"/>
      <rect class="cls-1" x="61" y="51" width="1" height="1"/>
      <rect class="cls-5" x="7" y="24" width="1" height="1"/>
      <rect class="cls-5" x="8" y="24" width="1" height="1"/>
      <rect class="cls-5" x="9" y="24" width="1" height="1"/>
      <rect class="cls-5" x="10" y="24" width="1" height="1"/>
      <rect class="cls-7" x="11" y="24" width="1" height="1"/>
      <rect class="cls-7" x="12" y="24" width="1" height="1"/>
      <rect class="cls-5" x="13" y="24" width="1" height="1"/>
      <rect class="cls-5" x="14" y="24" width="1" height="1"/>
      <rect class="cls-7" x="15" y="24" width="1" height="1"/>
      <rect class="cls-7" x="16" y="24" width="1" height="1"/>
      <rect class="cls-7" x="17" y="24" width="1" height="1"/>
      <rect class="cls-6" x="18" y="24" width="1" height="1"/>
      <rect class="cls-7" x="19" y="24" width="1" height="1"/>
      <rect class="cls-7" x="20" y="24" width="1" height="1"/>
      <rect class="cls-7" x="21" y="24" width="1" height="1"/>
      <rect class="cls-5" x="22" y="24" width="1" height="1"/>
      <rect class="cls-7" x="23" y="24" width="1" height="1"/>
      <rect class="cls-5" x="24" y="24" width="1" height="1"/>
      <rect class="cls-7" x="25" y="24" width="1" height="1"/>
      <rect class="cls-7" x="26" y="24" width="1" height="1"/>
      <rect class="cls-7" x="27" y="24" width="1" height="1"/>
      <rect class="cls-6" x="28" y="24" width="1" height="1"/>
      <rect class="cls-7" x="29" y="24" width="1" height="1"/>
      <rect class="cls-7" x="30" y="24" width="1" height="1"/>
      <rect class="cls-7" x="31" y="24" width="1" height="1"/>
      <rect class="cls-7" x="32" y="24" width="1" height="1"/>
      <rect class="cls-7" x="33" y="24" width="1" height="1"/>
      <rect class="cls-7" x="34" y="24" width="1" height="1"/>
      <rect class="cls-7" x="35" y="24" width="1" height="1"/>
      <rect class="cls-5" x="36" y="24" width="1" height="1"/>
      <rect class="cls-7" x="37" y="24" width="1" height="1"/>
      <rect class="cls-7" x="38" y="24" width="1" height="1"/>
      <rect class="cls-7" x="39" y="24" width="1" height="1"/>
      <rect class="cls-7" x="40" y="24" width="1" height="1"/>
      <rect class="cls-7" x="41" y="24" width="1" height="1"/>
      <rect class="cls-7" x="42" y="24" width="1" height="1"/>
      <rect class="cls-7" x="43" y="24" width="1" height="1"/>
      <rect class="cls-7" x="44" y="24" width="1" height="1"/>
      <rect class="cls-7" x="45" y="24" width="1" height="1"/>
      <rect class="cls-6" x="46" y="24" width="1" height="1"/>
      <rect class="cls-7" x="47" y="24" width="1" height="1"/>
      <rect class="cls-7" x="48" y="24" width="1" height="1"/>
      <rect class="cls-6" x="49" y="24" width="1" height="1"/>
      <rect class="cls-7" x="50" y="24" width="1" height="1"/>
      <rect class="cls-7" x="51" y="24" width="1" height="1"/>
      <rect class="cls-7" x="52" y="24" width="1" height="1"/>
      <rect class="cls-7" x="53" y="24" width="1" height="1"/>
      <rect class="cls-7" x="54" y="24" width="1" height="1"/>
      <rect class="cls-7" x="55" y="24" width="1" height="1"/>
      <rect class="cls-6" x="56" y="24" width="1" height="1"/>
      <rect class="cls-7" x="57" y="24" width="1" height="1"/>
      <rect class="cls-6" x="58" y="24" width="1" height="1"/>
      <rect class="cls-6" x="59" y="24" width="1" height="1"/>
      <rect class="cls-7" x="60" y="24" width="1" height="1"/>
      <rect class="cls-6" x="61" y="24" width="1" height="1"/>
    </g>
    <g>
      <rect class="cls-6" x="6" y="51" width="1" height="1"/>
      <rect class="cls-3" x="7" y="51" width="1" height="1"/>
      <rect class="cls-3" x="8" y="51" width="1" height="1"/>
      <rect class="cls-3" x="9" y="51" width="1" height="1"/>
      <rect class="cls-3" x="10" y="51" width="1" height="1"/>
      <rect class="cls-3" x="11" y="51" width="1" height="1"/>
      <rect class="cls-3" x="12" y="51" width="1" height="1"/>
      <rect class="cls-3" x="13" y="51" width="1" height="1"/>
      <rect class="cls-3" x="14" y="51" width="1" height="1"/>
      <rect class="cls-3" x="15" y="51" width="1" height="1"/>
      <rect class="cls-3" x="16" y="51" width="1" height="1"/>
      <rect class="cls-3" x="17" y="51" width="1" height="1"/>
      <rect class="cls-3" x="18" y="51" width="1" height="1"/>
      <rect class="cls-3" x="19" y="51" width="1" height="1"/>
      <rect class="cls-3" x="20" y="51" width="1" height="1"/>
      <rect class="cls-3" x="21" y="51" width="1" height="1"/>
      <rect class="cls-3" x="22" y="51" width="1" height="1"/>
      <rect class="cls-3" x="23" y="51" width="1" height="1"/>
      <rect class="cls-3" x="24" y="51" width="1" height="1"/>
      <rect class="cls-3" x="25" y="51" width="1" height="1"/>
      <rect class="cls-3" x="26" y="51" width="1" height="1"/>
      <rect class="cls-3" x="27" y="51" width="1" height="1"/>
      <rect class="cls-3" x="28" y="51" width="1" height="1"/>
      <rect class="cls-3" x="29" y="51" width="1" height="1"/>
      <rect class="cls-3" x="30" y="51" width="1" height="1"/>
      <rect class="cls-3" x="31" y="51" width="1" height="1"/>
      <rect class="cls-3" x="32" y="51" width="1" height="1"/>
      <rect class="cls-3" x="33" y="51" width="1" height="1"/>
      <rect class="cls-3" x="34" y="51" width="1" height="1"/>
      <rect class="cls-3" x="35" y="51" width="1" height="1"/>
      <rect class="cls-3" x="36" y="51" width="1" height="1"/>
      <rect class="cls-3" x="37" y="51" width="1" height="1"/>
      <rect class="cls-3" x="38" y="51" width="1" height="1"/>
      <rect class="cls-3" x="39" y="51" width="1" height="1"/>
      <rect class="cls-3" x="40" y="51" width="1" height="1"/>
      <rect class="cls-3" x="41" y="51" width="1" height="1"/>
      <rect class="cls-3" x="42" y="51" width="1" height="1"/>
      <rect class="cls-3" x="43" y="51" width="1" height="1"/>
      <rect class="cls-3" x="44" y="51" width="1" height="1"/>
      <rect class="cls-3" x="45" y="51" width="1" height="1"/>
      <rect class="cls-3" x="46" y="51" width="1" height="1"/>
      <rect class="cls-3" x="47" y="51" width="1" height="1"/>
      <rect class="cls-3" x="48" y="51" width="1" height="1"/>
      <rect class="cls-3" x="49" y="51" width="1" height="1"/>
      <rect class="cls-3" x="50" y="51" width="1" height="1"/>
      <rect class="cls-3" x="51" y="51" width="1" height="1"/>
      <rect class="cls-3" x="52" y="51" width="1" height="1"/>
      <rect class="cls-3" x="53" y="51" width="1" height="1"/>
      <rect class="cls-3" x="54" y="51" width="1" height="1"/>
      <rect class="cls-3" x="55" y="51" width="1" height="1"/>
      <rect class="cls-3" x="56" y="51" width="1" height="1"/>
      <rect class="cls-3" x="57" y="51" width="1" height="1"/>
      <rect class="cls-3" x="58" y="51" width="1" height="1"/>
      <rect class="cls-3" x="59" y="51" width="1" height="1"/>
      <rect class="cls-3" x="60" y="51" width="1" height="1"/>
      <rect class="cls-1" x="61" y="51" width="1" height="1"/>
    </g>
    <rect class="cls-1" x="34" y="44" width="2" height="1"/>
    <rect class="cls-1" x="34" y="44" width="1" height="2"/>
    <rect class="cls-1" x="32" y="46" width="2" height="1"/>
    <rect class="cls-6" x="32" y="42" width="1" height="2"/>
    <rect class="cls-6" x="32" y="40" width="1" height="2"/>
    <rect class="cls-6" x="32" y="38" width="1" height="2"/>
    <rect class="cls-6" x="32" y="36" width="1" height="2"/>
    <rect class="cls-6" x="32" y="34" width="1" height="2"/>
    <rect class="cls-6" x="32" y="32" width="1" height="2"/>
    <rect class="cls-6" x="33" y="32" width="1" height="1"/>
    <rect class="cls-1" x="36" y="42" width="2" height="1"/>
    <rect class="cls-1" x="36" y="43" width="1" height="1"/>
    <rect class="cls-1" x="38" y="42" width="2" height="1"/>
    <rect class="cls-1" x="40" y="40" width="1" height="2"/>
    <rect class="cls-1" x="34" y="30" width="1" height="2"/>
    <rect class="cls-1" x="36" y="32" width="1" height="2"/>
    <rect class="cls-1" x="40" y="34" width="1" height="2"/>
    <rect class="cls-1" x="42" y="36" width="1" height="2"/>
    <rect class="cls-1" x="42" y="38" width="1" height="2"/>
    <rect class="cls-1" x="30" y="46" width="2" height="1"/>
    <g>
      <rect class="cls-1" x="36" y="9" width="1" height="1"/>
      <rect class="cls-1" x="36" y="10" width="1" height="1"/>
      <rect class="cls-1" x="36" y="11" width="1" height="1"/>
    </g>
    <g>
      <rect class="cls-1" x="52" y="8" width="1" height="1"/>
      <rect class="cls-1" x="52" y="9" width="1" height="1"/>
    </g>
  </g>
</svg>