<?xml version="1.0" encoding="UTF-8"?>
<svg id="Layer_1" data-name="Layer 1" xmlns="http://www.w3.org/2000/svg" xmlns:xlink="http://www.w3.org/1999/xlink" viewBox="0 0 66.2 56.2">
  <defs>
    <style>
      .cls-1 {
        fill: url(#linear-gradient-6);
      }

      .cls-2 {
        fill: none;
      }

      .cls-2, .cls-3, .cls-4, .cls-5, .cls-6, .cls-7, .cls-8 {
        stroke: #000;
        stroke-linejoin: bevel;
        stroke-width: 2px;
      }

      .cls-9, .cls-8 {
        fill: #fff;
      }

      .cls-3 {
        fill: url(#linear-gradient-2);
      }

      .cls-4 {
        fill: url(#linear-gradient-3);
      }

      .cls-5 {
        fill: url(#linear-gradient-4);
      }

      .cls-6 {
        fill: url(#linear-gradient-5);
      }

      .cls-10 {
        opacity: .1;
      }

      .cls-7 {
        fill: url(#linear-gradient);
      }

      .cls-11 {
        clip-path: url(#clippath);
      }
    </style>
    <linearGradient id="linear-gradient" x1="16.09" y1="61.67" x2="52.88" y2="17.82" gradientUnits="userSpaceOnUse">
      <stop offset="0" stop-color="#ff95dc"/>
      <stop offset="1" stop-color="#fff"/>
    </linearGradient>
    <clipPath id="clippath">
      <polygon class="cls-8" points="61.4 13.47 5.87 26.39 3.1 16.02 58.63 3.1 61.4 13.47"/>
    </clipPath>
    <linearGradient id="linear-gradient-2" x1="8.51" y1="21.78" x2="11.45" y2="18.29" xlink:href="#linear-gradient"/>
    <linearGradient id="linear-gradient-3" x1="23.79" y1="19.11" x2="26.72" y2="15.61" xlink:href="#linear-gradient"/>
    <linearGradient id="linear-gradient-4" x1="39.06" y1="16.43" x2="41.99" y2="12.94" xlink:href="#linear-gradient"/>
    <linearGradient id="linear-gradient-5" x1="54.34" y1="13.76" x2="57.27" y2="10.26" xlink:href="#linear-gradient"/>
    <linearGradient id="linear-gradient-6" x1="12.67" y1="59.33" x2="55.53" y2="20.74" gradientUnits="userSpaceOnUse">
      <stop offset="0" stop-color="#ff95dc"/>
      <stop offset="1" stop-color="#fff"/>
    </linearGradient>
  </defs>
  <g class="cls-10">
    <g>
      <rect class="cls-7" x="5.87" y="26.39" width="57.23" height="26.71"/>
      <polyline class="cls-8" points="31.2 32.18 31.2 47.31 42.24 39.75 31.2 32.18 31.2 47.31"/>
    </g>
    <g>
      <polygon class="cls-9" points="61.4 13.47 5.87 26.39 3.1 16.02 58.63 3.1 61.4 13.47"/>
      <g class="cls-11">
        <line class="cls-3" x1="-.72" y1="14.03" x2="20.68" y2="26.04"/>
        <line class="cls-4" x1="14.55" y1="11.36" x2="35.95" y2="23.36"/>
        <line class="cls-5" x1="29.83" y1="8.68" x2="51.23" y2="20.69"/>
        <line class="cls-6" x1="45.1" y1="6.01" x2="66.5" y2="18.01"/>
      </g>
      <polygon class="cls-2" points="61.4 13.47 5.87 26.39 3.1 16.02 58.63 3.1 61.4 13.47"/>
    </g>
  </g>
  <rect x="54.1" y="2.04" width="2" height="2"/>
  <rect x="56.1" y="2.04" width="2" height="2"/>
  <rect x="58.1" y="2.04" width="2" height="2"/>
  <rect x="46.1" y="4.04" width="2" height="2"/>
  <rect x="48.1" y="4.04" width="2" height="2"/>
  <rect x="50.1" y="4.04" width="2" height="2"/>
  <rect x="52.1" y="4.04" width="2" height="2"/>
  <rect x="58.1" y="4.04" width="2" height="2"/>
  <rect x="36.1" y="6.04" width="2" height="2"/>
  <rect x="38.1" y="6.04" width="2" height="2"/>
  <rect x="40.1" y="6.04" width="2" height="2"/>
  <rect x="42.1" y="6.04" width="2" height="2"/>
  <rect x="44.1" y="6.04" width="2" height="2"/>
  <rect x="46.1" y="6.04" width="2" height="2"/>
  <rect x="58.1" y="6.04" width="2" height="2"/>
  <rect x="28.1" y="8.04" width="2" height="2"/>
  <rect x="30.1" y="8.04" width="2" height="2"/>
  <rect x="32.1" y="8.04" width="2" height="2"/>
  <rect x="34.1" y="8.04" width="2" height="2"/>
  <rect x="48.1" y="8.04" width="2" height="2"/>
  <rect x="50.1" y="8.04" width="2" height="2"/>
  <rect x="60.1" y="8.04" width="2" height="2"/>
  <rect x="20.1" y="10.04" width="2" height="2"/>
  <rect x="22.1" y="10.04" width="2" height="2"/>
  <rect x="24.1" y="10.04" width="2" height="2"/>
  <rect x="26.1" y="10.04" width="2" height="2"/>
  <rect x="32.1" y="10.04" width="2" height="2"/>
  <rect x="34.1" y="10.04" width="2" height="2"/>
  <rect x="52.1" y="10.04" width="2" height="2"/>
  <rect x="54.1" y="10.04" width="2" height="2"/>
  <rect x="60.1" y="10.04" width="2" height="2"/>
  <rect x="12.1" y="12.04" width="2" height="2"/>
  <rect x="14.1" y="12.04" width="2" height="2"/>
  <rect x="16.1" y="12.04" width="2" height="2"/>
  <rect x="18.1" y="12.04" width="2" height="2"/>
  <rect x="36.1" y="12.04" width="2" height="2"/>
  <rect x="38.1" y="12.04" width="2" height="2"/>
  <rect x="56.1" y="12.04" width="2" height="2"/>
  <rect x="58.1" y="12.04" width="2" height="2"/>
  <rect x="60.1" y="12.04" width="2" height="2"/>
  <rect x="4.1" y="14.04" width="2" height="2"/>
  <rect x="6.1" y="14.04" width="2" height="2"/>
  <rect x="8.1" y="14.04" width="2" height="2"/>
  <rect x="10.1" y="14.04" width="2" height="2"/>
  <rect x="20.1" y="14.04" width="2" height="2"/>
  <rect x="40.1" y="14.04" width="2" height="2"/>
  <rect x="52.1" y="14.04" width="2" height="2"/>
  <rect x="54.1" y="14.04" width="2" height="2"/>
  <rect x="2.1" y="16.04" width="2" height="2"/>
  <rect x="4.1" y="16.04" width="2" height="2"/>
  <rect x="22.1" y="16.04" width="2" height="2"/>
  <rect x="24.1" y="16.04" width="2" height="2"/>
  <rect x="42.1" y="16.04" width="2" height="2"/>
  <rect x="44.1" y="16.04" width="2" height="2"/>
  <rect x="46.1" y="16.04" width="2" height="2"/>
  <rect x="48.1" y="16.04" width="2" height="2"/>
  <rect x="50.1" y="16.04" width="2" height="2"/>
  <rect x="2.1" y="18.04" width="2" height="2"/>
  <rect x="6.1" y="18.04" width="2" height="2"/>
  <rect x="8.1" y="18.04" width="2" height="2"/>
  <rect x="26.1" y="18.04" width="2" height="2"/>
  <rect x="32.1" y="18.04" width="2" height="2"/>
  <rect x="34.1" y="18.04" width="2" height="2"/>
  <rect x="36.1" y="18.04" width="2" height="2"/>
  <rect x="38.1" y="18.04" width="2" height="2"/>
  <rect x="40.1" y="18.04" width="2" height="2"/>
  <rect x="4.1" y="20.04" width="2" height="2"/>
  <rect x="10.1" y="20.04" width="2" height="2"/>
  <rect x="12.1" y="20.04" width="2" height="2"/>
  <rect x="26.1" y="20.04" width="2" height="2"/>
  <rect x="28.1" y="20.04" width="2" height="2"/>
  <rect x="30.1" y="20.04" width="2" height="2"/>
  <rect x="32.1" y="20.04" width="2" height="2"/>
  <rect x="4.1" y="22.04" width="2" height="2"/>
  <rect x="14.1" y="22.04" width="2" height="2"/>
  <rect x="16.1" y="22.04" width="2" height="2"/>
  <rect x="18.1" y="22.04" width="2" height="2"/>
  <rect x="20.1" y="22.04" width="2" height="2"/>
  <rect x="22.1" y="22.04" width="2" height="2"/>
  <rect x="24.1" y="22.04" width="2" height="2"/>
  <rect x="4.1" y="24.04" width="2" height="2"/>
  <rect x="8.1" y="24.04" width="2" height="2"/>
  <rect x="10.1" y="24.04" width="2" height="2"/>
  <rect x="12.1" y="24.04" width="2" height="2"/>
  <rect x="14.1" y="24.04" width="2" height="2"/>
  <rect x="4.1" y="26.04" width="2" height="2"/>
  <rect x="6.1" y="26.04" width="2" height="2"/>
  <rect x="8.1" y="26.04" width="2" height="2"/>
  <rect x="10.1" y="26.04" width="2" height="2"/>
  <rect x="12.1" y="26.04" width="2" height="2"/>
  <rect x="14.1" y="26.04" width="2" height="2"/>
  <rect x="16.1" y="26.04" width="2" height="2"/>
  <rect x="18.1" y="26.04" width="2" height="2"/>
  <rect x="20.1" y="26.04" width="2" height="2"/>
  <rect x="22.1" y="26.04" width="2" height="2"/>
  <rect x="24.1" y="26.04" width="2" height="2"/>
  <rect x="26.1" y="26.04" width="2" height="2"/>
  <rect x="28.1" y="26.04" width="2" height="2"/>
  <rect x="30.1" y="26.04" width="2" height="2"/>
  <rect x="32.1" y="26.04" width="2" height="2"/>
  <rect x="34.1" y="26.04" width="2" height="2"/>
  <rect x="36.1" y="26.04" width="2" height="2"/>
  <rect x="38.1" y="26.04" width="2" height="2"/>
  <rect x="40.1" y="26.04" width="2" height="2"/>
  <rect x="42.1" y="26.04" width="2" height="2"/>
  <rect x="44.1" y="26.04" width="2" height="2"/>
  <rect x="46.1" y="26.04" width="2" height="2"/>
  <rect x="48.1" y="26.04" width="2" height="2"/>
  <rect x="50.1" y="26.04" width="2" height="2"/>
  <rect x="52.1" y="26.04" width="2" height="2"/>
  <rect x="54.1" y="26.04" width="2" height="2"/>
  <rect x="56.1" y="26.04" width="2" height="2"/>
  <rect x="58.1" y="26.04" width="2" height="2"/>
  <rect x="60.1" y="26.04" width="2" height="2"/>
  <rect x="4.1" y="28.04" width="2" height="2"/>
  <rect x="62.1" y="28.04" width="2" height="2"/>
  <rect x="4.1" y="30.04" width="2" height="2"/>
  <rect x="62.1" y="30.04" width="2" height="2"/>
  <rect x="4.1" y="32.04" width="2" height="2"/>
  <rect x="30.1" y="32.04" width="2" height="2"/>
  <rect x="32.1" y="32.04" width="2" height="2"/>
  <rect x="62.1" y="32.04" width="2" height="2"/>
  <rect x="4.1" y="34.04" width="2" height="2"/>
  <rect x="30.1" y="34.04" width="2" height="2"/>
  <rect x="34.1" y="34.04" width="2" height="2"/>
  <rect x="62.1" y="34.04" width="2" height="2"/>
  <rect x="4.1" y="36.04" width="2" height="2"/>
  <rect x="30.1" y="36.04" width="2" height="2"/>
  <rect x="36.1" y="36.04" width="2" height="2"/>
  <rect x="38.1" y="36.04" width="2" height="2"/>
  <rect x="62.1" y="36.04" width="2" height="2"/>
  <rect x="4.1" y="38.04" width="2" height="2"/>
  <rect x="30.1" y="38.04" width="2" height="2"/>
  <rect x="40.1" y="38.04" width="2" height="2"/>
  <rect x="62.1" y="38.04" width="2" height="2"/>
  <rect x="4.1" y="40.04" width="2" height="2"/>
  <rect x="30.1" y="40.04" width="2" height="2"/>
  <rect x="40.1" y="40.04" width="2" height="2"/>
  <rect x="62.1" y="40.04" width="2" height="2"/>
  <rect x="4.1" y="42.04" width="2" height="2"/>
  <rect x="30.1" y="42.04" width="2" height="2"/>
  <rect x="36.1" y="42.04" width="2" height="2"/>
  <rect x="38.1" y="42.04" width="2" height="2"/>
  <rect x="62.1" y="42.04" width="2" height="2"/>
  <rect x="4.1" y="44.04" width="2" height="2"/>
  <rect x="30.1" y="44.04" width="2" height="2"/>
  <rect x="34.1" y="44.04" width="2" height="2"/>
  <rect x="62.1" y="44.04" width="2" height="2"/>
  <rect x="4.1" y="46.04" width="2" height="2"/>
  <rect x="30.1" y="46.04" width="2" height="2"/>
  <rect x="32.1" y="46.04" width="2" height="2"/>
  <rect x="62.1" y="46.04" width="2" height="2"/>
  <rect x="4.1" y="48.04" width="2" height="2"/>
  <rect x="62.1" y="48.04" width="2" height="2"/>
  <rect x="4.1" y="50.04" width="2" height="2"/>
  <g>
    <polygon class="cls-9" points="52.1 8.04 52.1 10.04 54.1 10.04 56.1 10.04 56.1 12.04 58.1 12.04 60.1 12.04 60.1 10.04 60.1 8.04 58.1 8.04 58.1 6.04 58.1 4.04 56.1 4.04 54.1 4.04 54.1 6.04 52.1 6.04 50.1 6.04 48.1 6.04 48.1 8.04 50.1 8.04 52.1 8.04"/>
    <polygon class="cls-9" points="40.1 12.04 40.1 14.04 42.1 14.04 42.1 16.04 44.1 16.04 46.1 16.04 48.1 16.04 50.1 16.04 52.1 16.04 52.1 14.04 54.1 14.04 56.1 14.04 56.1 12.04 54.1 12.04 52.1 12.04 52.1 10.04 50.1 10.04 48.1 10.04 48.1 8.04 46.1 8.04 44.1 8.04 42.1 8.04 40.1 8.04 38.1 8.04 36.1 8.04 36.1 10.04 36.1 12.04 38.1 12.04 40.1 12.04"/>
    <polygon class="cls-9" points="22.1 16.04 24.1 16.04 26.1 16.04 26.1 18.04 28.1 18.04 28.1 20.04 30.1 20.04 32.1 20.04 32.1 18.04 34.1 18.04 36.1 18.04 38.1 18.04 40.1 18.04 42.1 18.04 42.1 16.04 40.1 16.04 40.1 14.04 38.1 14.04 36.1 14.04 36.1 12.04 34.1 12.04 32.1 12.04 32.1 10.04 30.1 10.04 28.1 10.04 28.1 12.04 26.1 12.04 24.1 12.04 22.1 12.04 20.1 12.04 20.1 14.04 22.1 14.04 22.1 16.04"/>
    <polygon class="cls-9" points="10.1 18.04 10.1 20.04 12.1 20.04 14.1 20.04 14.1 22.04 16.1 22.04 18.1 22.04 20.1 22.04 22.1 22.04 24.1 22.04 26.1 22.04 26.1 20.04 26.1 18.04 24.1 18.04 22.1 18.04 22.1 16.04 20.1 16.04 20.1 14.04 18.1 14.04 16.1 14.04 14.1 14.04 12.1 14.04 12.1 16.04 10.1 16.04 8.1 16.04 6.1 16.04 6.1 18.04 8.1 18.04 10.1 18.04"/>
    <rect class="cls-9" x="4.1" y="18.04" width="2" height="2"/>
    <polygon class="cls-9" points="10.1 22.04 10.1 20.04 8.1 20.04 6.1 20.04 6.1 22.04 6.1 24.04 6.1 26.04 8.1 26.04 8.1 24.04 10.1 24.04 12.1 24.04 14.1 24.04 14.1 22.04 12.1 22.04 10.1 22.04"/>
    <path class="cls-1" d="M60.1,28.04H6.1v24h56v-24h-2ZM30.1,46.04v-14h4v2h2v2h4v2h2v4h-2v2h-4v2h-2v2h-4v-2Z"/>
    <polygon class="cls-9" points="32.1 36.04 32.1 38.04 32.1 40.04 32.1 42.04 32.1 44.04 32.1 46.04 34.1 46.04 34.1 44.04 36.1 44.04 36.1 42.04 38.1 42.04 40.1 42.04 40.1 40.04 40.1 38.04 38.1 38.04 36.1 38.04 36.1 36.04 34.1 36.04 34.1 34.04 32.1 34.04 32.1 36.04"/>
  </g>
  <rect x="62.1" y="50.04" width="2" height="2"/>
  <rect x="6.1" y="52.04" width="2" height="2"/>
  <rect x="8.1" y="52.04" width="2" height="2"/>
  <rect x="10.1" y="52.04" width="2" height="2"/>
  <rect x="12.1" y="52.04" width="2" height="2"/>
  <rect x="14.1" y="52.04" width="2" height="2"/>
  <rect x="16.1" y="52.04" width="2" height="2"/>
  <rect x="18.1" y="52.04" width="2" height="2"/>
  <rect x="20.1" y="52.04" width="2" height="2"/>
  <rect x="22.1" y="52.04" width="2" height="2"/>
  <rect x="24.1" y="52.04" width="2" height="2"/>
  <rect x="26.1" y="52.04" width="2" height="2"/>
  <rect x="28.1" y="52.04" width="2" height="2"/>
  <rect x="30.1" y="52.04" width="2" height="2"/>
  <rect x="32.1" y="52.04" width="2" height="2"/>
  <rect x="34.1" y="52.04" width="2" height="2"/>
  <rect x="36.1" y="52.04" width="2" height="2"/>
  <rect x="38.1" y="52.04" width="2" height="2"/>
  <rect x="40.1" y="52.04" width="2" height="2"/>
  <rect x="42.1" y="52.04" width="2" height="2"/>
  <rect x="44.1" y="52.04" width="2" height="2"/>
  <rect x="46.1" y="52.04" width="2" height="2"/>
  <rect x="48.1" y="52.04" width="2" height="2"/>
  <rect x="50.1" y="52.04" width="2" height="2"/>
  <rect x="52.1" y="52.04" width="2" height="2"/>
  <rect x="54.1" y="52.04" width="2" height="2"/>
  <rect x="56.1" y="52.04" width="2" height="2"/>
  <rect x="58.1" y="52.04" width="2" height="2"/>
  <rect x="60.1" y="52.04" width="2" height="2"/>
</svg>