<?xml version="1.0" encoding="UTF-8"?>
<svg id="Layer_1" data-name="Layer 1" xmlns="http://www.w3.org/2000/svg" xmlns:xlink="http://www.w3.org/1999/xlink" viewBox="0 0 66.2 56.2">
  <defs>
    <style>
      .cls-1 {
        fill: url(#linear-gradient);
      }

      .cls-2 {
        fill: none;
        opacity: .1;
        stroke: #000;
        stroke-miterlimit: 10;
        stroke-width: 2px;
      }
    </style>
    <linearGradient id="linear-gradient" x1="13.53" y1="51.97" x2="60.81" y2="9.4" gradientUnits="userSpaceOnUse">
      <stop offset="0" stop-color="#ff95dc"/>
      <stop offset="1" stop-color="#fff"/>
    </linearGradient>
  </defs>
  <path class="cls-2" d="M57.48,3.1v38.27c0,3.04-1.54,5.73-3.88,7.32-1.42.97-3.14,1.53-4.99,1.53-4.89,0-8.85-3.96-8.85-8.85s3.96-8.86,8.85-8.86c1.85,0,3.57.56,4.99,1.54V15.91l-27.17,4.42v23.91c0,2.95-1.44,5.55-3.65,7.16-1.47,1.06-3.27,1.69-5.22,1.69-4.89,0-8.85-3.96-8.85-8.85s3.96-8.85,8.85-8.85c1.95,0,3.75.63,5.22,1.69V8.75l3.65-.6,27.17-4.42,3.88-.63Z"/>
  <rect x="50.04" y="2.1" width="2" height="2"/>
  <rect x="52.04" y="2.1" width="2" height="2"/>
  <rect x="54.04" y="2.1" width="2" height="2"/>
  <rect x="56.04" y="2.1" width="2" height="2"/>
  <rect x="38.04" y="4.1" width="2" height="2"/>
  <rect x="40.04" y="4.1" width="2" height="2"/>
  <rect x="42.04" y="4.1" width="2" height="2"/>
  <rect x="44.04" y="4.1" width="2" height="2"/>
  <rect x="46.04" y="4.1" width="2" height="2"/>
  <rect x="48.04" y="4.1" width="2" height="2"/>
  <rect x="56.04" y="4.1" width="2" height="2"/>
  <rect x="26.04" y="6.1" width="2" height="2"/>
  <rect x="28.04" y="6.1" width="2" height="2"/>
  <rect x="30.04" y="6.1" width="2" height="2"/>
  <rect x="32.04" y="6.1" width="2" height="2"/>
  <rect x="34.04" y="6.1" width="2" height="2"/>
  <rect x="36.04" y="6.1" width="2" height="2"/>
  <rect x="56.04" y="6.1" width="2" height="2"/>
  <rect x="22.04" y="8.1" width="2" height="2"/>
  <rect x="24.04" y="8.1" width="2" height="2"/>
  <rect x="56.04" y="8.1" width="2" height="2"/>
  <rect x="22.04" y="10.1" width="2" height="2"/>
  <rect x="56.04" y="10.1" width="2" height="2"/>
  <rect x="22.04" y="12.1" width="2" height="2"/>
  <rect x="56.04" y="12.1" width="2" height="2"/>
  <rect x="22.04" y="14.1" width="2" height="2"/>
  <rect x="50.04" y="14.1" width="2" height="2"/>
  <rect x="52.04" y="14.1" width="2" height="2"/>
  <rect x="56.04" y="14.1" width="2" height="2"/>
  <rect x="22.04" y="16.1" width="2" height="2"/>
  <rect x="38.04" y="16.1" width="2" height="2"/>
  <rect x="40.04" y="16.1" width="2" height="2"/>
  <rect x="42.04" y="16.1" width="2" height="2"/>
  <rect x="44.04" y="16.1" width="2" height="2"/>
  <rect x="46.04" y="16.1" width="2" height="2"/>
  <rect x="48.04" y="16.1" width="2" height="2"/>
  <rect x="52.04" y="16.1" width="2" height="2"/>
  <rect x="56.04" y="16.1" width="2" height="2"/>
  <rect x="22.04" y="18.1" width="2" height="2"/>
  <rect x="28.04" y="18.1" width="2" height="2"/>
  <rect x="30.04" y="18.1" width="2" height="2"/>
  <rect x="32.04" y="18.1" width="2" height="2"/>
  <rect x="34.04" y="18.1" width="2" height="2"/>
  <rect x="36.04" y="18.1" width="2" height="2"/>
  <rect x="52.04" y="18.1" width="2" height="2"/>
  <rect x="56.04" y="18.1" width="2" height="2"/>
  <rect x="22.04" y="20.1" width="2" height="2"/>
  <rect x="26.04" y="20.1" width="2" height="2"/>
  <rect x="52.04" y="20.1" width="2" height="2"/>
  <rect x="56.04" y="20.1" width="2" height="2"/>
  <rect x="22.04" y="22.1" width="2" height="2"/>
  <rect x="52.04" y="22.1" width="2" height="2"/>
  <rect x="56.04" y="22.1" width="2" height="2"/>
  <rect x="22.04" y="24.1" width="2" height="2"/>
  <rect x="52.04" y="24.1" width="2" height="2"/>
  <rect x="56.04" y="24.1" width="2" height="2"/>
  <rect x="22.04" y="26.1" width="2" height="2"/>
  <rect x="52.04" y="26.1" width="2" height="2"/>
  <rect x="56.04" y="26.1" width="2" height="2"/>
  <rect x="22.04" y="28.1" width="2" height="2"/>
  <rect x="52.04" y="28.1" width="2" height="2"/>
  <rect x="56.04" y="28.1" width="2" height="2"/>
  <rect x="22.04" y="30.1" width="2" height="2"/>
  <rect x="52.04" y="30.1" width="2" height="2"/>
  <rect x="56.04" y="30.1" width="2" height="2"/>
  <rect x="22.04" y="32.1" width="2" height="2"/>
  <rect x="44.04" y="32.1" width="2" height="2"/>
  <rect x="46.04" y="32.1" width="2" height="2"/>
  <rect x="48.04" y="32.1" width="2" height="2"/>
  <rect x="50.04" y="32.1" width="2" height="2"/>
  <rect x="52.04" y="32.1" width="2" height="2"/>
  <rect x="56.04" y="32.1" width="2" height="2"/>
  <rect x="14.04" y="34.1" width="2" height="2"/>
  <rect x="16.04" y="34.1" width="2" height="2"/>
  <rect x="18.04" y="34.1" width="2" height="2"/>
  <rect x="22.04" y="34.1" width="2" height="2"/>
  <rect x="42.04" y="34.1" width="2" height="2"/>
  <rect x="52.04" y="34.1" width="2" height="2"/>
  <rect x="56.04" y="34.1" width="2" height="2"/>
  <rect x="10.04" y="36.1" width="2" height="2"/>
  <rect x="12.04" y="36.1" width="2" height="2"/>
  <rect x="20.04" y="36.1" width="2" height="2"/>
  <rect x="22.04" y="36.1" width="2" height="2"/>
  <rect x="40.04" y="36.1" width="2" height="2"/>
  <rect x="56.04" y="36.1" width="2" height="2"/>
  <rect x="10.04" y="38.1" width="2" height="2"/>
  <rect x="38.04" y="38.1" width="2" height="2"/>
  <rect x="56.04" y="38.1" width="2" height="2"/>
  <rect x="8.04" y="40.1" width="2" height="2"/>
  <rect x="38.04" y="40.1" width="2" height="2"/>
  <rect x="56.04" y="40.1" width="2" height="2"/>
  <rect x="8.04" y="42.1" width="2" height="2"/>
  <rect x="38.04" y="42.1" width="2" height="2"/>
  <rect x="56.04" y="42.1" width="2" height="2"/>
  <rect x="8.04" y="44.1" width="2" height="2"/>
  <rect x="40.04" y="44.1" width="2" height="2"/>
  <rect x="56.04" y="44.1" width="2" height="2"/>
  <rect x="8.04" y="46.1" width="2" height="2"/>
  <rect x="26.04" y="22.1" width="2" height="2"/>
  <rect x="26.04" y="24.1" width="2" height="2"/>
  <rect x="26.04" y="26.1" width="2" height="2"/>
  <rect x="26.04" y="28.1" width="2" height="2"/>
  <rect x="26.04" y="30.1" width="2" height="2"/>
  <rect x="26.04" y="32.1" width="2" height="2"/>
  <rect x="26.04" y="34.1" width="2" height="2"/>
  <rect x="26.04" y="36.1" width="2" height="2"/>
  <rect x="26.04" y="38.1" width="2" height="2"/>
  <rect x="26.04" y="40.1" width="2" height="2"/>
  <rect x="26.04" y="42.1" width="2" height="2"/>
  <rect x="26.04" y="44.1" width="2" height="2"/>
  <rect x="26.04" y="46.1" width="2" height="2"/>
  <rect x="40.04" y="46.1" width="2" height="2"/>
  <rect x="54.04" y="46.1" width="2" height="2"/>
  <rect x="10.04" y="48.1" width="2" height="2"/>
  <rect x="24.04" y="48.1" width="2" height="2"/>
  <rect x="42.04" y="48.1" width="2" height="2"/>
  <rect x="44.04" y="48.1" width="2" height="2"/>
  <rect x="50.04" y="48.1" width="2" height="2"/>
  <rect x="52.04" y="48.1" width="2" height="2"/>
  <rect x="12.04" y="50.1" width="2" height="2"/>
  <rect x="22.04" y="50.1" width="2" height="2"/>
  <rect x="46.04" y="50.1" width="2" height="2"/>
  <rect x="48.04" y="50.1" width="2" height="2"/>
  <rect x="14.04" y="52.1" width="2" height="2"/>
  <rect x="16.04" y="52.1" width="2" height="2"/>
  <rect x="18.04" y="52.1" width="2" height="2"/>
  <rect x="20.04" y="52.1" width="2" height="2"/>
  <polygon class="cls-1" points="56.04 4.1 56.04 46.1 54.04 46.1 54.04 48.1 50.04 48.1 50.04 50.1 46.04 50.1 46.04 48.1 42.04 48.1 42.04 44.1 40.04 44.1 40.04 38.1 42.04 38.1 42.04 36.1 44.04 36.1 44.04 34.1 52.04 34.1 52.04 36.1 54.04 36.1 54.04 14.1 50.04 14.1 50.04 16.1 38.04 16.1 38.04 18.1 28.04 18.1 28.04 20.1 26.04 20.1 26.04 48.1 24.04 48.1 24.04 50.1 22.04 50.1 22.04 52.1 14.04 52.1 14.04 50.1 12.04 50.1 12.04 48.1 10.04 48.1 10.04 40.1 12.04 40.1 12.04 38.1 14.04 38.1 14.04 36.1 20.04 36.1 20.04 38.1 24.04 38.1 24.04 10.1 26.04 10.1 26.04 8.1 38.04 8.1 38.04 6.1 50.04 6.1 50.04 4.1 56.04 4.1"/>
</svg>