<?xml version="1.0" encoding="UTF-8"?>
<svg id="Layer_1" data-name="Layer 1" xmlns="http://www.w3.org/2000/svg" xmlns:xlink="http://www.w3.org/1999/xlink" viewBox="0 0 66 56">
  <defs>
    <style>
      .cls-1 {
        fill: #ff95dc;
      }

      .cls-2 {
        fill: #ff5c8c;
      }

      .cls-3 {
        fill: url(#linear-gradient);
      }

      .cls-4 {
        fill: #fff;
      }

      .cls-5 {
        fill: #ffcdee;
      }

      .cls-6 {
        fill: #ffeaf8;
      }
    </style>
    <linearGradient id="linear-gradient" x1="13.49" y1="51.87" x2="60.77" y2="9.3" gradientUnits="userSpaceOnUse">
      <stop offset="0" stop-color="#ff95dc"/>
      <stop offset="1" stop-color="#fff"/>
    </linearGradient>
  </defs>
  <g>
    <polygon class="cls-4" points="13 55 13 53 11 53 11 51 9 51 9 49 7 49 7 39 9 39 9 35 13 35 13 33 21 33 21 35 21 7 25 7 25 5 37 5 37 3 49 3 49 1 59 1 59 47 57 47 57 49 55 49 55 51 51 51 51 53 45 53 45 51 41 51 41 49 39 49 39 45 37 45 37 37 39 37 39 35 41 35 41 33 43 33 43 31 51 31 51 19 39 19 39 21 29 21 29 49 27 49 27 51 25 51 25 53 23 53 23 55 13 55"/>
    <polygon points="56 2 54 2 52 2 50 2 50 4 48 4 46 4 44 4 42 4 40 4 38 4 38 6 36 6 34 6 32 6 30 6 28 6 26 6 26 8 24 8 22 8 22 10 22 12 22 14 22 16 22 18 22 20 22 22 22 24 22 26 22 28 22 30 22 32 22 34 22 36 20 36 20 34 18 34 16 34 14 34 14 36 12 36 10 36 10 38 10 40 8 40 8 42 8 44 8 46 8 48 10 48 10 50 12 50 12 52 14 52 14 54 16 54 18 54 20 54 22 54 22 52 24 52 24 50 26 50 26 48 28 48 28 46 28 44 28 42 28 40 28 38 28 36 28 34 28 32 28 30 28 28 28 26 28 24 28 22 28 20 30 20 32 20 34 20 36 20 38 20 38 18 40 18 42 18 44 18 46 18 48 18 50 18 50 16 52 16 52 18 52 20 52 22 52 24 52 26 52 28 52 30 52 32 50 32 48 32 46 32 44 32 44 34 42 34 42 36 40 36 40 38 38 38 38 40 38 42 38 44 40 44 40 46 40 48 42 48 42 50 44 50 46 50 46 52 48 52 50 52 50 50 52 50 54 50 54 48 56 48 56 46 58 46 58 44 58 42 58 40 58 38 58 36 58 34 58 32 58 30 58 28 58 26 58 24 58 22 58 20 58 18 58 16 58 14 58 12 58 10 58 8 58 6 58 4 58 2 56 2"/>
    <polygon class="cls-3" points="56 4 56 46 54 46 54 48 50 48 50 50 46 50 46 48 42 48 42 44 40 44 40 38 42 38 42 36 44 36 44 34 52 34 52 36 54 36 54 14 50 14 50 16 38 16 38 18 28 18 28 20 26 20 26 48 24 48 24 50 22 50 22 52 14 52 14 50 12 50 12 48 10 48 10 40 12 40 12 38 14 38 14 36 20 36 20 38 24 38 24 10 26 10 26 8 38 8 38 6 50 6 50 4 56 4"/>
  </g>
  <g>
    <rect class="cls-4" x="10" y="40" width="1" height="1"/>
    <rect class="cls-6" x="10" y="41" width="1" height="1"/>
    <rect class="cls-6" x="10" y="42" width="1" height="1"/>
    <rect class="cls-6" x="10" y="43" width="1" height="1"/>
    <rect class="cls-6" x="10" y="44" width="1" height="1"/>
    <rect class="cls-6" x="10" y="45" width="1" height="1"/>
    <rect class="cls-6" x="10" y="46" width="1" height="1"/>
    <rect class="cls-6" x="10" y="47" width="1" height="1"/>
    <rect class="cls-4" x="11" y="47" width="1" height="1"/>
    <rect class="cls-1" x="12" y="47" width="1" height="1"/>
    <rect class="cls-2" x="12" y="48" width="1" height="1"/>
    <rect class="cls-2" x="12" y="49" width="1" height="1"/>
    <rect class="cls-6" x="13" y="49" width="1" height="1"/>
    <rect class="cls-1" x="14" y="49" width="1" height="1"/>
    <rect class="cls-1" x="14" y="50" width="1" height="1"/>
    <rect class="cls-2" x="14" y="51" width="1" height="1"/>
    <rect class="cls-2" x="15" y="51" width="1" height="1"/>
    <rect class="cls-2" x="16" y="51" width="1" height="1"/>
    <rect class="cls-2" x="17" y="51" width="1" height="1"/>
    <rect class="cls-2" x="18" y="51" width="1" height="1"/>
    <rect class="cls-2" x="19" y="51" width="1" height="1"/>
    <rect class="cls-2" x="20" y="51" width="1" height="1"/>
    <rect class="cls-2" x="21" y="51" width="1" height="1"/>
    <rect class="cls-6" x="21" y="50" width="1" height="1"/>
    <rect class="cls-4" x="21" y="49" width="1" height="1"/>
    <rect class="cls-6" x="22" y="49" width="1" height="1"/>
    <rect class="cls-2" x="23" y="49" width="1" height="1"/>
    <rect class="cls-6" x="23" y="48" width="1" height="1"/>
    <rect class="cls-4" x="23" y="47" width="1" height="1"/>
    <rect class="cls-6" x="24" y="47" width="1" height="1"/>
    <rect class="cls-2" x="25" y="47" width="1" height="1"/>
    <rect class="cls-6" x="25" y="46" width="1" height="1"/>
    <rect class="cls-6" x="25" y="45" width="1" height="1"/>
    <rect class="cls-6" x="25" y="44" width="1" height="1"/>
    <rect class="cls-6" x="25" y="43" width="1" height="1"/>
    <rect class="cls-6" x="25" y="42" width="1" height="1"/>
    <rect class="cls-6" x="25" y="41" width="1" height="1"/>
    <rect class="cls-6" x="25" y="40" width="1" height="1"/>
    <rect class="cls-6" x="25" y="39" width="1" height="1"/>
    <rect class="cls-6" x="25" y="38" width="1" height="1"/>
    <rect class="cls-6" x="25" y="37" width="1" height="1"/>
    <rect class="cls-6" x="25" y="36" width="1" height="1"/>
    <rect class="cls-6" x="25" y="35" width="1" height="1"/>
    <rect class="cls-6" x="25" y="34" width="1" height="1"/>
    <rect class="cls-6" x="25" y="33" width="1" height="1"/>
    <rect class="cls-6" x="25" y="32" width="1" height="1"/>
    <rect class="cls-6" x="25" y="31" width="1" height="1"/>
    <rect class="cls-6" x="25" y="30" width="1" height="1"/>
    <rect class="cls-6" x="25" y="29" width="1" height="1"/>
    <rect class="cls-6" x="25" y="28" width="1" height="1"/>
    <rect class="cls-6" x="25" y="27" width="1" height="1"/>
    <rect class="cls-6" x="25" y="26" width="1" height="1"/>
    <rect class="cls-6" x="25" y="25" width="1" height="1"/>
    <rect class="cls-6" x="25" y="24" width="1" height="1"/>
    <rect class="cls-6" x="25" y="23" width="1" height="1"/>
    <rect class="cls-6" x="25" y="22" width="1" height="1"/>
    <rect class="cls-6" x="25" y="21" width="1" height="1"/>
    <rect class="cls-6" x="25" y="20" width="1" height="1"/>
    <rect class="cls-6" x="25" y="19" width="1" height="1"/>
    <rect class="cls-4" x="11" y="40" width="1" height="1"/>
    <rect class="cls-6" x="12" y="40" width="1" height="1"/>
    <rect class="cls-1" x="12" y="39" width="1" height="1"/>
    <rect class="cls-1" x="12" y="38" width="1" height="1"/>
    <rect class="cls-6" x="13" y="38" width="1" height="1"/>
    <rect class="cls-6" x="14" y="38" width="1" height="1"/>
    <rect class="cls-1" x="14" y="37" width="1" height="1"/>
    <rect class="cls-1" x="14" y="36" width="1" height="1"/>
    <rect class="cls-4" x="15" y="36" width="1" height="1"/>
    <rect class="cls-4" x="16" y="36" width="1" height="1"/>
    <rect class="cls-6" x="17" y="36" width="1" height="1"/>
    <rect class="cls-6" x="18" y="36" width="1" height="1"/>
    <rect class="cls-6" x="19" y="36" width="1" height="1"/>
    <rect class="cls-6" x="19" y="37" width="1" height="1"/>
    <rect class="cls-6" x="19" y="38" width="1" height="1"/>
    <rect class="cls-1" x="20" y="38" width="1" height="1"/>
    <rect class="cls-1" x="21" y="38" width="1" height="1"/>
    <rect class="cls-1" x="22" y="38" width="1" height="1"/>
    <rect class="cls-1" x="23" y="38" width="1" height="1"/>
    <rect class="cls-2" x="24" y="38" width="1" height="1"/>
    <rect class="cls-4" x="24" y="37" width="1" height="1"/>
    <rect class="cls-4" x="24" y="36" width="1" height="1"/>
    <rect class="cls-4" x="24" y="35" width="1" height="1"/>
    <rect class="cls-4" x="24" y="34" width="1" height="1"/>
    <rect class="cls-4" x="24" y="33" width="1" height="1"/>
    <rect class="cls-4" x="24" y="32" width="1" height="1"/>
    <rect class="cls-4" x="24" y="31" width="1" height="1"/>
    <rect class="cls-4" x="24" y="30" width="1" height="1"/>
    <rect class="cls-4" x="24" y="29" width="1" height="1"/>
    <rect class="cls-4" x="24" y="28" width="1" height="1"/>
    <rect class="cls-4" x="24" y="27" width="1" height="1"/>
    <rect class="cls-4" x="24" y="26" width="1" height="1"/>
    <rect class="cls-4" x="24" y="25" width="1" height="1"/>
    <rect class="cls-4" x="24" y="24" width="1" height="1"/>
    <rect class="cls-4" x="24" y="23" width="1" height="1"/>
    <rect class="cls-4" x="24" y="22" width="1" height="1"/>
    <rect class="cls-4" x="24" y="21" width="1" height="1"/>
    <rect class="cls-4" x="24" y="20" width="1" height="1"/>
    <rect class="cls-4" x="24" y="19" width="1" height="1"/>
    <rect class="cls-4" x="24" y="18" width="1" height="1"/>
    <rect class="cls-4" x="24" y="17" width="1" height="1"/>
    <rect class="cls-4" x="24" y="16" width="1" height="1"/>
    <rect class="cls-4" x="24" y="15" width="1" height="1"/>
    <rect class="cls-4" x="24" y="14" width="1" height="1"/>
    <rect class="cls-4" x="24" y="13" width="1" height="1"/>
    <rect class="cls-4" x="24" y="12" width="1" height="1"/>
    <rect class="cls-4" x="24" y="11" width="1" height="1"/>
    <rect class="cls-4" x="24" y="10" width="1" height="1"/>
    <rect class="cls-6" x="25" y="10" width="1" height="1"/>
    <rect class="cls-5" x="26" y="10" width="1" height="1"/>
    <rect class="cls-5" x="26" y="9" width="1" height="1"/>
    <rect class="cls-4" x="26" y="8" width="1" height="1"/>
    <rect class="cls-4" x="27" y="8" width="1" height="1"/>
    <rect class="cls-4" x="28" y="8" width="1" height="1"/>
    <rect class="cls-4" x="29" y="8" width="1" height="1"/>
    <rect class="cls-6" x="30" y="8" width="1" height="1"/>
    <rect class="cls-4" x="31" y="8" width="1" height="1"/>
    <rect class="cls-4" x="32" y="8" width="1" height="1"/>
    <rect class="cls-6" x="33" y="8" width="1" height="1"/>
    <rect class="cls-6" x="34" y="8" width="1" height="1"/>
    <rect class="cls-6" x="35" y="8" width="1" height="1"/>
    <rect class="cls-6" x="36" y="8" width="1" height="1"/>
    <rect class="cls-6" x="37" y="8" width="1" height="1"/>
    <rect class="cls-5" x="38" y="8" width="1" height="1"/>
    <rect class="cls-5" x="38" y="7" width="1" height="1"/>
    <rect class="cls-4" x="38" y="6" width="1" height="1"/>
    <rect class="cls-4" x="39" y="6" width="1" height="1"/>
    <rect class="cls-4" x="40" y="6" width="1" height="1"/>
    <rect class="cls-6" x="41" y="6" width="1" height="1"/>
    <rect class="cls-4" x="42" y="6" width="1" height="1"/>
    <rect class="cls-6" x="43" y="6" width="1" height="1"/>
    <rect class="cls-6" x="44" y="6" width="1" height="1"/>
    <rect class="cls-6" x="45" y="6" width="1" height="1"/>
    <rect class="cls-4" x="46" y="6" width="1" height="1"/>
    <rect class="cls-6" x="47" y="6" width="1" height="1"/>
    <rect class="cls-6" x="48" y="6" width="1" height="1"/>
    <rect class="cls-6" x="49" y="6" width="1" height="1"/>
    <rect class="cls-5" x="50" y="6" width="1" height="1"/>
    <rect class="cls-5" x="50" y="5" width="1" height="1"/>
    <rect class="cls-4" x="50" y="4" width="1" height="1"/>
    <rect class="cls-4" x="51" y="4" width="1" height="1"/>
    <rect class="cls-6" x="52" y="4" width="1" height="1"/>
    <rect class="cls-6" x="53" y="4" width="1" height="1"/>
    <rect class="cls-6" x="54" y="4" width="1" height="1"/>
    <rect class="cls-5" x="55" y="4" width="1" height="1"/>
    <rect class="cls-5" x="55" y="5" width="1" height="1"/>
    <rect class="cls-5" x="55" y="6" width="1" height="1"/>
    <rect class="cls-5" x="55" y="7" width="1" height="1"/>
    <rect class="cls-5" x="55" y="8" width="1" height="1"/>
    <rect class="cls-5" x="55" y="9" width="1" height="1"/>
    <rect class="cls-5" x="55" y="10" width="1" height="1"/>
    <rect class="cls-5" x="55" y="11" width="1" height="1"/>
    <rect class="cls-5" x="55" y="12" width="1" height="1"/>
    <rect class="cls-5" x="55" y="13" width="1" height="1"/>
    <rect class="cls-5" x="55" y="14" width="1" height="1"/>
    <rect class="cls-5" x="55" y="15" width="1" height="1"/>
    <rect class="cls-5" x="55" y="16" width="1" height="1"/>
    <rect class="cls-5" x="55" y="17" width="1" height="1"/>
    <rect class="cls-5" x="55" y="18" width="1" height="1"/>
    <rect class="cls-5" x="55" y="19" width="1" height="1"/>
    <rect class="cls-5" x="55" y="20" width="1" height="1"/>
    <rect class="cls-5" x="55" y="21" width="1" height="1"/>
    <rect class="cls-5" x="55" y="22" width="1" height="1"/>
    <rect class="cls-5" x="55" y="23" width="1" height="1"/>
    <rect class="cls-5" x="55" y="24" width="1" height="1"/>
    <rect class="cls-5" x="55" y="25" width="1" height="1"/>
    <rect class="cls-5" x="55" y="26" width="1" height="1"/>
    <rect class="cls-5" x="55" y="27" width="1" height="1"/>
    <rect class="cls-5" x="55" y="28" width="1" height="1"/>
    <rect class="cls-5" x="55" y="29" width="1" height="1"/>
    <rect class="cls-5" x="55" y="30" width="1" height="1"/>
    <rect class="cls-5" x="55" y="31" width="1" height="1"/>
    <rect class="cls-5" x="55" y="32" width="1" height="1"/>
    <rect class="cls-5" x="55" y="33" width="1" height="1"/>
    <rect class="cls-5" x="55" y="34" width="1" height="1"/>
    <rect class="cls-5" x="55" y="35" width="1" height="1"/>
    <rect class="cls-5" x="55" y="36" width="1" height="1"/>
    <rect class="cls-5" x="55" y="37" width="1" height="1"/>
    <rect class="cls-5" x="55" y="38" width="1" height="1"/>
    <rect class="cls-5" x="55" y="39" width="1" height="1"/>
    <rect class="cls-5" x="55" y="40" width="1" height="1"/>
    <rect class="cls-5" x="55" y="41" width="1" height="1"/>
    <rect class="cls-5" x="55" y="42" width="1" height="1"/>
    <rect class="cls-5" x="55" y="43" width="1" height="1"/>
    <rect class="cls-5" x="55" y="44" width="1" height="1"/>
    <rect class="cls-2" x="55" y="45" width="1" height="1"/>
    <rect class="cls-6" x="54" y="45" width="1" height="1"/>
    <rect class="cls-6" x="52" y="47" width="1" height="1"/>
    <rect class="cls-6" x="53" y="47" width="1" height="1"/>
    <rect class="cls-6" x="53" y="46" width="1" height="1"/>
    <rect class="cls-4" x="53" y="45" width="1" height="1"/>
    <rect class="cls-6" x="51" y="47" width="1" height="1"/>
    <rect class="cls-4" x="50" y="47" width="1" height="1"/>
    <rect class="cls-4" x="49" y="47" width="1" height="1"/>
    <rect class="cls-6" x="49" y="48" width="1" height="1"/>
    <rect class="cls-2" x="49" y="49" width="1" height="1"/>
    <rect class="cls-2" x="48" y="49" width="1" height="1"/>
    <rect class="cls-2" x="47" y="49" width="1" height="1"/>
    <rect class="cls-2" x="46" y="49" width="1" height="1"/>
    <rect class="cls-1" x="46" y="48" width="1" height="1"/>
    <rect class="cls-1" x="46" y="47" width="1" height="1"/>
    <rect class="cls-5" x="45" y="47" width="1" height="1"/>
    <rect class="cls-5" x="44" y="47" width="1" height="1"/>
    <rect class="cls-5" x="43" y="47" width="1" height="1"/>
    <rect class="cls-1" x="42" y="47" width="1" height="1"/>
    <rect class="cls-1" x="42" y="46" width="1" height="1"/>
    <rect class="cls-1" x="42" y="45" width="1" height="1"/>
    <rect class="cls-1" x="42" y="44" width="1" height="1"/>
    <rect class="cls-4" x="42" y="43" width="1" height="1"/>
    <rect class="cls-5" x="41" y="43" width="1" height="1"/>
    <rect class="cls-1" x="40" y="43" width="1" height="1"/>
    <rect class="cls-1" x="40" y="42" width="1" height="1"/>
    <rect class="cls-1" x="40" y="41" width="1" height="1"/>
    <rect class="cls-1" x="40" y="40" width="1" height="1"/>
    <rect class="cls-1" x="40" y="39" width="1" height="1"/>
    <rect class="cls-1" x="40" y="38" width="1" height="1"/>
    <rect class="cls-6" x="41" y="38" width="1" height="1"/>
    <rect class="cls-6" x="42" y="38" width="1" height="1"/>
    <rect class="cls-1" x="42" y="37" width="1" height="1"/>
    <rect class="cls-1" x="42" y="36" width="1" height="1"/>
    <rect class="cls-6" x="43" y="36" width="1" height="1"/>
    <rect class="cls-6" x="44" y="36" width="1" height="1"/>
    <rect class="cls-1" x="44" y="35" width="1" height="1"/>
    <rect class="cls-1" x="44" y="34" width="1" height="1"/>
    <rect class="cls-4" x="45" y="34" width="1" height="1"/>
    <rect class="cls-4" x="46" y="34" width="1" height="1"/>
    <rect class="cls-6" x="47" y="34" width="1" height="1"/>
    <rect class="cls-6" x="48" y="34" width="1" height="1"/>
    <rect class="cls-6" x="49" y="34" width="1" height="1"/>
    <rect class="cls-6" x="50" y="34" width="1" height="1"/>
    <rect class="cls-6" x="51" y="34" width="1" height="1"/>
    <rect class="cls-6" x="51" y="35" width="1" height="1"/>
    <rect class="cls-5" x="51" y="36" width="1" height="1"/>
    <rect class="cls-2" x="52" y="36" width="1" height="1"/>
    <rect class="cls-2" x="53" y="36" width="1" height="1"/>
    <rect class="cls-1" x="54" y="36" width="1" height="1"/>
    <rect class="cls-2" x="54" y="35" width="1" height="1"/>
    <rect class="cls-2" x="54" y="34" width="1" height="1"/>
    <rect class="cls-2" x="54" y="33" width="1" height="1"/>
    <rect class="cls-2" x="54" y="32" width="1" height="1"/>
    <rect class="cls-2" x="54" y="31" width="1" height="1"/>
    <rect class="cls-2" x="54" y="30" width="1" height="1"/>
    <rect class="cls-2" x="54" y="29" width="1" height="1"/>
    <rect class="cls-2" x="54" y="28" width="1" height="1"/>
    <rect class="cls-2" x="54" y="27" width="1" height="1"/>
    <rect class="cls-2" x="54" y="26" width="1" height="1"/>
    <rect class="cls-2" x="54" y="25" width="1" height="1"/>
    <rect class="cls-2" x="54" y="24" width="1" height="1"/>
    <rect class="cls-2" x="54" y="23" width="1" height="1"/>
    <rect class="cls-2" x="54" y="22" width="1" height="1"/>
    <rect class="cls-2" x="54" y="21" width="1" height="1"/>
    <rect class="cls-2" x="54" y="20" width="1" height="1"/>
    <rect class="cls-2" x="54" y="19" width="1" height="1"/>
    <rect class="cls-2" x="54" y="18" width="1" height="1"/>
    <rect class="cls-2" x="54" y="17" width="1" height="1"/>
    <rect class="cls-2" x="54" y="16" width="1" height="1"/>
    <rect class="cls-2" x="54" y="15" width="1" height="1"/>
    <rect class="cls-2" x="54" y="14" width="1" height="1"/>
    <rect class="cls-1" x="54" y="13" width="1" height="1"/>
    <rect class="cls-2" x="53" y="13" width="1" height="1"/>
    <rect class="cls-2" x="52" y="13" width="1" height="1"/>
    <rect class="cls-2" x="51" y="13" width="1" height="1"/>
    <rect class="cls-2" x="50" y="13" width="1" height="1"/>
    <rect class="cls-1" x="49" y="13" width="1" height="1"/>
    <rect class="cls-1" x="49" y="14" width="1" height="1"/>
    <rect class="cls-2" x="49" y="15" width="1" height="1"/>
    <rect class="cls-2" x="48" y="15" width="1" height="1"/>
    <rect class="cls-2" x="47" y="15" width="1" height="1"/>
    <rect class="cls-2" x="46" y="15" width="1" height="1"/>
    <rect class="cls-2" x="45" y="15" width="1" height="1"/>
    <rect class="cls-2" x="44" y="15" width="1" height="1"/>
    <rect class="cls-2" x="43" y="15" width="1" height="1"/>
    <rect class="cls-2" x="42" y="15" width="1" height="1"/>
    <rect class="cls-2" x="41" y="15" width="1" height="1"/>
    <rect class="cls-2" x="40" y="15" width="1" height="1"/>
    <rect class="cls-2" x="39" y="15" width="1" height="1"/>
    <rect class="cls-2" x="38" y="15" width="1" height="1"/>
    <rect class="cls-1" x="37" y="15" width="1" height="1"/>
    <rect class="cls-1" x="37" y="16" width="1" height="1"/>
    <rect class="cls-2" x="37" y="17" width="1" height="1"/>
    <rect class="cls-2" x="36" y="17" width="1" height="1"/>
    <rect class="cls-2" x="35" y="17" width="1" height="1"/>
    <rect class="cls-2" x="34" y="17" width="1" height="1"/>
    <rect class="cls-2" x="33" y="17" width="1" height="1"/>
    <rect class="cls-2" x="32" y="17" width="1" height="1"/>
    <rect class="cls-2" x="31" y="17" width="1" height="1"/>
    <rect class="cls-2" x="30" y="17" width="1" height="1"/>
    <rect class="cls-2" x="29" y="17" width="1" height="1"/>
    <rect class="cls-2" x="28" y="17" width="1" height="1"/>
    <rect class="cls-1" x="27" y="17" width="1" height="1"/>
    <rect class="cls-1" x="27" y="18" width="1" height="1"/>
    <rect class="cls-1" x="27" y="19" width="1" height="1"/>
    <rect class="cls-6" x="26" y="19" width="1" height="1"/>
  </g>
</svg>