<svg width="100" height="100" viewBox="0 0 100 100" fill="none" xmlns="http://www.w3.org/2000/svg">
<path d="M50 96C75.4051 96 96 75.4051 96 50C96 24.5949 75.4051 4 50 4C24.5949 4 4 24.5949 4 50C4 75.4051 24.5949 96 50 96Z" fill="black" stroke="#1E96FF" stroke-width="4" stroke-linecap="round"/>
<path d="M50 55C52.7614 55 55 52.7614 55 50C55 47.2386 52.7614 45 50 45C47.2386 45 45 47.2386 45 50C45 52.7614 47.2386 55 50 55Z" stroke="#1E96FF" stroke-width="4" stroke-linecap="round"/>
<path d="M50 63C57.1797 63 63 57.1797 63 50C63 42.8203 57.1797 37 50 37C42.8203 37 37 42.8203 37 50C37 57.1797 42.8203 63 50 63Z" stroke="#1E96FF" stroke-width="4" stroke-linecap="round"/>
<path d="M65.5 14.2017C74.9076 18.2805 82.392 25.9592 86.2154 35.5" stroke="#1E96FF" stroke-width="4" stroke-linecap="round"/>
<path d="M34.7154 85.5C25.3078 81.4211 17.8235 73.7424 14 64.2017" stroke="#1E96FF" stroke-width="4" stroke-linecap="round"/>
</svg>
